<?xml version="1.0" encoding="UTF-8" standalone="no"?>
<svg xmlns:ffdec="https://www.free-decompiler.com/flash" xmlns:xlink="http://www.w3.org/1999/xlink" ffdec:objectType="shape" height="90.8px" width="846.0px" xmlns="http://www.w3.org/2000/svg">
  <g transform="matrix(1.0, 0.0, 0.0, 1.0, 415.6, 43.7)">
    <path d="M33.9 -28.7 Q34.55 -27.05 34.55 -25.3 34.55 -21.8 32.0 -18.9 29.45 -16.0 25.4 -15.9 22.95 -15.8 21.15 -16.7 19.4 -17.65 17.8 -18.95 L17.0 -19.55 16.25 -20.25 16.75 -20.5 17.25 -20.75 Q19.15 -21.8 20.6 -23.0 22.05 -24.15 22.85 -26.45 L23.1 -27.15 23.15 -27.85 Q23.15 -29.5 21.85 -30.35 20.5 -31.2 18.6 -31.2 13.5 -31.2 9.55 -27.1 5.55 -23.05 2.75 -18.1 L0.75 -13.9 -0.85 -10.1 -2.25 -5.4 Q-2.9 -2.75 -3.0 -0.05 L-3.0 0.45 -3.0 0.95 Q-3.0 4.45 -1.65 7.5 -0.25 10.55 3.4 11.9 L6.15 12.55 8.95 12.8 9.65 12.8 10.3 12.7 Q16.15 12.35 21.5 8.6 26.75 4.85 29.35 -0.05 L29.55 -0.4 29.75 -0.7 29.9 -1.05 30.1 -1.4 35.2 0.5 46.5 -32.4 64.75 -32.4 57.5 -11.5 Q59.5 -12.6 61.9 -13.35 64.3 -14.2 66.9 -14.5 L67.9 -14.5 68.9 -14.55 Q71.65 -14.5 74.2 -13.65 76.75 -12.75 78.6 -10.7 79.8 -9.4 80.3 -7.8 80.85 -6.25 80.85 -4.6 L80.7 -2.75 80.15 -0.95 79.55 1.0 78.85 3.05 78.1 5.0 77.5 7.0 77.35 7.4 77.15 7.9 76.95 8.45 76.75 9.1 76.7 9.55 76.7 10.05 76.9 10.85 Q77.15 11.2 77.8 11.2 L78.75 11.05 79.7 10.65 Q81.05 10.0 82.25 8.75 L84.55 6.2 85.75 4.3 86.65 2.55 86.8 2.2 87.0 1.7 87.2 1.3 87.4 0.95 88.9 1.7 91.2 -5.1 94.2 -13.75 98.8 -13.75 103.5 -13.75 108.15 -13.75 112.8 -13.75 111.6 -10.25 110.4 -6.85 108.0 0.05 105.65 7.0 105.2 8.4 105.0 9.7 Q105.0 10.25 105.45 10.65 105.85 11.05 106.9 10.9 107.65 10.9 108.8 10.3 109.95 9.7 111.2 8.55 112.9 6.85 113.95 4.95 L116.0 0.95 116.2 1.05 Q116.8 -1.75 118.55 -4.4 121.2 -8.3 125.35 -10.7 128.15 -12.2 132.1 -13.3 136.1 -14.4 140.25 -14.55 L141.3 -14.65 142.25 -14.65 149.05 -13.85 Q152.3 -13.0 154.65 -10.85 155.85 -9.75 156.55 -8.2 157.35 -6.6 157.55 -4.9 L157.55 -4.55 157.55 -4.25 Q157.55 -3.05 157.1 -1.8 156.65 -0.55 155.85 0.4 154.75 1.65 153.4 2.2 151.95 2.75 150.3 2.75 L149.9 2.75 149.4 2.65 147.65 2.25 145.95 1.45 Q144.7 0.65 144.0 -0.5 143.2 -1.7 143.0 -3.05 L143.0 -3.2 143.0 -3.5 142.9 -3.7 142.9 -3.85 Q142.9 -6.05 144.35 -7.65 145.8 -9.3 147.85 -9.85 L146.7 -10.15 145.5 -10.2 144.95 -10.2 144.45 -10.1 143.95 -10.05 143.4 -9.85 Q140.1 -8.7 137.7 -5.15 135.2 -1.6 134.4 2.45 L134.1 4.3 134.0 6.1 Q134.1 9.8 136.0 12.5 137.9 15.2 142.25 15.2 149.6 15.2 154.1 11.2 158.65 7.15 161.6 1.2 L162.7 1.7 Q163.25 -0.5 164.45 -2.6 166.75 -6.7 170.4 -9.5 173.1 -11.55 176.75 -12.9 180.35 -14.3 184.15 -14.5 L184.95 -14.55 185.75 -14.55 Q188.75 -14.55 191.65 -13.7 194.45 -12.75 196.75 -10.85 L197.7 -13.75 206.95 -13.75 216.2 -13.75 215.0 -10.25 213.85 -6.8 211.4 0.05 209.05 7.0 208.95 7.3 208.9 7.7 208.7 8.2 208.6 8.8 208.5 9.25 208.5 9.6 208.65 10.35 209.15 10.8 209.6 10.95 210.15 10.9 211.25 10.65 212.3 10.15 214.4 8.45 216.3 6.25 217.75 4.2 218.65 2.45 218.85 2.1 219.0 1.75 219.15 1.35 219.35 1.0 221.5 1.95 Q222.15 1.0 223.1 0.35 225.1 -1.05 227.45 -0.95 L227.95 -0.95 228.45 -0.95 228.85 -0.9 229.35 -0.75 237.8 -12.55 255.7 -17.05 256.35 -6.95 257.05 3.1 Q257.5 11.0 251.9 15.1 246.35 19.3 239.6 19.95 L237.95 20.05 236.4 20.1 234.4 20.05 232.3 19.85 Q229.55 19.55 226.95 18.5 224.3 17.5 222.4 15.5 221.1 13.85 220.5 12.05 L220.1 10.55 Q218.1 13.35 215.85 15.65 210.95 20.6 201.9 20.6 L201.65 20.6 201.4 20.6 Q198.35 20.5 195.7 19.2 192.95 17.95 191.65 15.0 189.05 17.35 185.8 18.8 182.5 20.3 179.1 20.6 L178.3 20.7 177.4 20.7 Q174.1 20.6 171.0 19.35 167.95 18.15 165.5 15.15 163.7 13.0 162.95 10.65 L162.65 9.5 160.65 12.3 Q158.0 15.75 153.05 18.15 150.15 19.45 146.55 20.15 L139.3 20.9 138.7 20.9 138.1 20.9 Q132.6 20.6 127.5 18.8 122.45 16.9 119.2 12.85 L117.3 9.8 116.6 10.9 Q114.8 13.8 112.2 16.05 109.85 18.15 106.7 19.3 103.5 20.4 100.05 20.6 L99.65 20.6 99.25 20.6 96.35 20.4 93.65 19.75 Q90.0 18.5 88.5 15.9 87.35 13.95 87.1 11.65 L83.75 15.55 Q78.85 20.6 69.9 20.6 L68.75 20.55 67.55 20.5 Q65.3 20.2 63.2 19.4 61.1 18.5 59.7 16.6 58.75 15.3 58.35 13.85 57.95 12.45 57.95 10.95 L57.95 10.15 58.05 9.4 Q58.25 7.5 58.85 5.6 L60.05 2.1 60.4 1.2 61.0 -0.35 61.35 -1.25 61.6 -2.15 61.9 -3.55 62.05 -4.8 Q62.05 -5.7 61.7 -6.2 61.4 -6.7 60.5 -6.7 58.85 -6.7 57.3 -5.25 55.8 -3.8 54.75 -2.05 L53.75 -0.3 53.15 1.2 51.15 6.7 49.25 12.25 47.95 16.0 46.65 19.75 28.55 19.75 34.45 2.65 Q29.0 11.45 21.45 15.4 13.0 19.75 1.25 19.75 -9.45 19.75 -17.7 13.0 -25.95 6.2 -25.95 -5.3 -25.95 -12.9 -22.0 -19.25 -18.05 -25.6 -11.9 -29.65 -6.9 -33.2 -0.45 -35.1 6.0 -37.0 12.9 -37.0 L15.15 -36.95 17.4 -36.8 Q21.25 -36.5 25.0 -35.4 28.75 -34.35 31.7 -31.65 33.25 -30.35 33.9 -28.7 M110.1 -30.05 L110.7 -29.85 111.2 -29.65 Q113.2 -28.85 114.85 -27.3 116.5 -25.8 116.5 -23.6 L116.4 -23.0 116.3 -22.3 Q115.7 -20.5 114.2 -19.3 112.7 -18.1 111.0 -17.55 L110.3 -17.4 109.75 -17.25 108.15 -17.05 106.65 -17.0 102.45 -17.5 Q100.35 -18.0 98.75 -19.25 97.5 -20.15 96.85 -21.45 96.1 -22.75 96.1 -24.05 L96.35 -25.6 97.15 -27.05 Q98.45 -28.75 100.6 -29.6 L105.0 -30.65 105.55 -30.65 106.05 -30.65 108.15 -30.5 110.1 -30.05 M186.7 -5.7 Q184.9 -3.8 183.45 -1.6 L181.65 1.4 Q180.8 2.85 180.45 3.9 L180.1 4.85 179.7 6.35 179.3 7.75 179.0 9.25 Q178.8 9.8 178.75 10.45 L178.7 11.7 Q178.7 13.15 179.2 14.05 179.7 15.05 180.9 15.05 183.7 15.05 185.8 12.7 187.95 10.45 189.45 7.7 L190.85 5.0 191.9 2.55 193.65 -2.55 Q194.2 -4.7 194.2 -6.25 194.2 -7.4 193.85 -8.05 193.55 -8.7 192.2 -8.7 L191.25 -8.6 190.3 -8.3 Q188.5 -7.6 186.7 -5.7 M234.65 4.05 L234.9 5.9 234.6 7.7 233.7 9.35 Q232.8 10.7 231.15 11.55 229.55 12.35 227.85 12.35 L227.6 12.35 227.35 12.35 227.15 12.3 226.9 12.25 228.6 13.9 Q229.65 14.6 230.9 14.6 234.8 14.6 237.1 12.5 239.4 10.45 239.4 6.35 L239.5 0.55 239.5 -5.2 233.8 2.4 Q234.4 3.1 234.65 4.05 M-367.6 -28.95 Q-367.6 -30.5 -368.3 -31.65 -369.05 -32.75 -371.15 -32.75 -375.7 -32.75 -379.5 -28.85 -383.35 -24.9 -384.2 -20.25 L-384.35 -19.15 -384.4 -18.0 -384.25 -16.15 -383.75 -14.4 Q-382.9 -12.2 -381.4 -11.5 -379.95 -10.75 -378.05 -10.3 L-377.45 -10.15 -376.85 -10.05 -377.4 -9.45 -377.95 -8.8 -379.95 -6.85 Q-381.0 -5.95 -382.3 -5.3 -383.55 -4.7 -384.7 -4.45 L-386.9 -4.25 Q-390.85 -4.25 -393.55 -7.35 -396.25 -10.4 -396.5 -14.95 -396.55 -16.55 -396.2 -18.2 L-395.2 -21.5 Q-391.5 -30.9 -382.4 -34.65 -373.3 -38.4 -363.1 -38.7 L-362.05 -38.7 -361.1 -38.7 -349.7 -37.9 Q-344.2 -37.1 -339.75 -35.8 L-347.55 -13.0 -355.4 9.8 Q-359.4 21.1 -369.5 27.95 -379.65 34.85 -391.35 34.85 L-395.3 34.6 -399.3 33.9 -399.9 33.7 -400.55 33.6 Q-404.3 32.5 -407.45 30.05 -410.6 27.6 -410.6 23.65 L-410.5 22.6 -410.3 21.45 Q-409.55 18.55 -407.15 16.9 -404.7 15.3 -401.95 15.3 -400.25 15.3 -398.6 15.9 -396.95 16.55 -395.6 17.85 L-393.9 19.45 -394.7 19.85 -395.6 20.2 -398.6 22.4 Q-399.95 23.65 -399.85 25.65 L-399.85 25.95 -399.85 26.2 Q-399.65 27.8 -398.45 28.6 -397.2 29.35 -395.7 29.45 -392.35 29.6 -389.5 26.75 -386.6 23.85 -384.6 20.3 -383.45 18.55 -382.7 16.75 L-381.45 13.6 -378.25 4.5 -375.2 -4.5 -372.0 -13.6 -368.95 -22.65 -368.75 -23.2 -368.55 -23.7 -368.2 -25.2 -367.8 -26.7 -367.65 -27.85 -367.6 -28.95 M-344.35 -4.8 L-342.85 -9.5 -341.15 -14.1 -323.15 -14.1 -325.0 -8.8 -326.7 -3.5 -328.55 1.85 -330.45 7.1 -330.65 7.95 -330.8 8.75 -330.45 9.7 Q-330.15 10.05 -329.3 10.05 -328.35 10.05 -327.0 9.35 -325.6 8.65 -324.0 6.65 -321.9 4.3 -320.4 1.1 -318.95 -2.05 -317.75 -5.4 L-316.7 -8.45 -315.65 -11.55 -315.4 -12.25 -315.2 -12.95 -315.15 -13.3 -314.95 -13.55 -314.9 -13.7 -314.85 -13.75 -314.8 -13.9 -314.75 -14.1 -311.8 -14.1 -308.8 -14.1 -302.85 -14.1 -296.85 -14.1 -298.7 -8.9 -300.45 -3.8 -302.2 1.5 -304.05 6.65 -304.45 8.05 -304.55 9.1 Q-304.55 9.9 -304.2 10.2 -303.9 10.55 -303.35 10.55 L-302.1 10.25 -300.65 9.6 -299.7 8.8 -298.75 8.1 Q-296.95 6.45 -295.85 4.6 L-294.2 1.7 -294.2 1.5 -293.5 -1.3 Q-291.6 -6.95 -285.8 -10.15 -280.0 -13.3 -273.5 -14.2 L-270.7 -14.5 -268.0 -14.55 -264.1 -14.4 -260.55 -13.75 -260.05 -13.55 -259.55 -13.4 Q-256.75 -12.65 -254.35 -10.75 -251.95 -8.85 -251.85 -5.7 -251.7 -0.55 -256.1 2.4 -260.55 5.35 -265.9 6.65 L-271.6 7.7 -276.3 7.9 Q-275.85 11.3 -273.7 13.15 -271.6 15.05 -268.05 15.05 -261.0 15.05 -256.1 11.05 -251.3 7.05 -248.55 1.0 L-248.0 1.25 Q-246.65 -4.2 -241.85 -8.4 -235.1 -14.35 -227.05 -15.1 L-226.05 -15.15 -225.05 -15.15 -219.65 -14.4 Q-217.0 -13.55 -214.6 -11.95 L-213.95 -13.85 -195.85 -13.85 -199.25 -3.8 -202.65 6.2 -206.2 16.2 -209.6 26.2 Q-211.8 32.65 -218.25 36.8 -224.75 40.95 -232.0 41.95 L-233.85 42.05 -235.6 42.1 -241.35 41.45 Q-244.1 40.8 -246.5 39.4 -248.65 38.15 -250.05 36.05 -251.45 33.95 -251.8 31.8 L-251.95 30.85 -252.0 30.0 Q-251.9 27.6 -250.45 25.7 -249.05 23.85 -245.85 23.2 L-245.45 23.2 -244.95 23.15 -244.6 23.15 -244.2 23.15 Q-240.8 23.15 -238.7 25.3 -236.6 27.55 -236.5 30.15 L-236.5 30.3 -236.5 30.45 Q-236.5 32.35 -237.75 34.1 -238.9 35.85 -241.5 36.7 L-241.0 36.9 -240.5 37.0 -240.1 37.1 -239.65 37.15 Q-234.7 37.3 -232.0 33.6 -229.2 29.9 -227.55 25.55 L-226.3 21.95 -225.2 18.8 -227.85 19.7 -230.55 20.2 -231.9 20.35 -233.2 20.4 Q-239.3 20.4 -243.95 16.65 -247.0 14.2 -248.0 10.25 L-249.15 11.8 Q-252.05 15.65 -257.3 18.15 -260.4 19.55 -263.85 20.25 L-270.95 20.9 -272.05 20.9 -273.1 20.8 -277.55 20.3 -281.85 19.2 Q-287.35 17.3 -290.9 13.4 L-293.0 10.35 Q-294.95 13.4 -297.65 15.65 -300.25 17.85 -303.55 19.0 -306.8 20.2 -311.1 20.2 -315.2 20.2 -318.2 18.3 -321.25 16.4 -321.9 12.15 -325.15 15.6 -329.45 17.95 -333.75 20.3 -338.65 20.3 -343.8 20.3 -346.2 17.2 -348.65 14.15 -348.65 10.05 L-348.35 7.2 -347.6 4.45 -345.95 -0.2 -344.35 -4.8 M-274.4 -1.9 L-275.2 0.4 -275.65 2.45 -273.3 2.2 -270.85 1.65 Q-267.25 0.65 -264.25 -1.5 -261.25 -3.7 -261.15 -7.6 -261.15 -9.2 -262.0 -9.85 -262.9 -10.5 -264.45 -10.6 -268.0 -10.7 -270.55 -7.95 -273.1 -5.2 -274.4 -1.9 M-227.05 -2.8 Q-228.95 -0.05 -230.2 2.85 L-231.65 7.0 Q-232.15 9.05 -232.15 10.65 L-232.05 11.95 -231.7 13.15 -230.85 14.1 -229.8 14.4 Q-225.9 14.4 -223.5 11.05 -221.05 7.6 -219.65 3.45 L-218.05 -1.55 -216.8 -5.6 -216.8 -6.05 -216.9 -6.5 -217.3 -7.8 -218.4 -8.7 -218.7 -8.85 -218.95 -8.85 -219.3 -9.0 -219.65 -9.0 Q-220.5 -9.0 -221.45 -8.5 L-223.35 -7.3 Q-225.2 -5.6 -227.05 -2.8 M-187.6 -9.5 Q-183.8 -11.95 -179.05 -13.35 -174.35 -14.75 -169.3 -14.75 L-167.8 -14.7 -166.35 -14.65 Q-162.3 -14.3 -158.4 -12.95 -154.5 -11.55 -151.55 -8.8 -149.0 -6.5 -147.65 -3.65 -146.3 -0.7 -146.3 2.4 L-146.55 4.65 -147.1 6.95 -144.8 6.25 Q-143.75 5.7 -142.85 4.55 L-141.7 3.1 -140.5 1.1 -139.35 1.6 -138.0 0.35 Q-136.0 -1.05 -133.65 -0.95 L-133.15 -0.95 -132.65 -0.95 -132.25 -0.9 -131.75 -0.75 -123.3 -12.55 -105.4 -17.05 -104.75 -6.95 -104.05 3.1 Q-103.6 11.0 -109.2 15.1 -114.75 19.3 -121.5 19.95 L-123.15 20.05 -124.7 20.1 -126.7 20.05 -128.8 19.85 Q-131.55 19.55 -134.15 18.5 -136.8 17.5 -138.7 15.5 -139.9 14.0 -140.45 12.4 L-142.8 15.0 Q-145.4 17.55 -148.9 17.55 L-151.6 17.15 -154.0 16.05 Q-157.7 19.1 -162.7 20.8 -167.65 22.5 -172.9 22.8 L-173.7 22.8 -174.6 22.8 Q-179.55 22.8 -184.1 21.3 -188.65 19.85 -192.1 16.9 -194.8 14.4 -196.05 11.65 -197.25 8.8 -197.25 6.0 -197.25 1.55 -194.6 -2.55 -192.0 -6.6 -187.6 -9.5 M-175.65 -0.4 Q-177.0 2.85 -177.55 6.25 L-177.7 8.5 -177.8 10.65 -177.75 12.05 -177.55 13.8 Q-177.25 15.4 -176.55 16.65 -175.8 17.95 -174.35 17.95 -171.95 17.95 -170.1 16.3 -168.25 14.6 -167.1 12.5 L-166.55 11.65 -166.05 10.7 Q-167.6 9.7 -168.4 8.1 -169.2 6.55 -169.2 4.75 L-169.2 4.35 -169.2 4.1 Q-168.9 1.25 -167.05 -1.3 -165.2 -3.8 -162.4 -4.5 -162.5 -7.5 -163.45 -8.75 -164.45 -10.05 -165.95 -10.05 -166.95 -10.05 -168.05 -9.5 -169.2 -9.0 -170.35 -8.05 L-171.25 -7.2 -172.15 -6.25 Q-174.35 -3.7 -175.65 -0.4 M-89.25 -3.35 Q-86.7 -4.3 -83.95 -4.5 L-83.35 -4.5 -82.8 -4.5 -78.5 -3.9 Q-76.4 -3.3 -74.7 -1.85 L-69.5 -17.15 -63.05 -17.15 -56.6 -17.15 -61.5 -3.05 -66.35 11.05 -66.45 11.25 -66.5 11.65 -66.6 11.95 -66.65 12.3 -66.7 12.6 -66.7 12.85 -66.6 13.4 -66.3 13.7 -66.0 13.85 -65.6 13.8 -64.9 13.65 -64.1 13.3 -63.4 12.8 Q-64.15 11.05 -64.15 9.0 L-63.95 7.05 -63.45 5.1 Q-62.1 1.0 -57.95 -1.25 -53.8 -3.5 -49.15 -4.15 L-47.15 -4.35 -45.2 -4.4 -42.45 -4.3 -39.9 -3.8 -39.55 -3.7 -39.2 -3.6 Q-37.2 -3.05 -35.5 -1.7 -33.75 -0.35 -33.7 1.95 -33.55 5.6 -36.75 7.7 -39.9 9.8 -43.75 10.75 L-47.8 11.5 -51.15 11.65 Q-50.85 14.1 -49.3 15.4 -47.8 16.75 -45.3 16.75 -40.2 16.75 -36.75 13.9 -33.3 11.05 -31.3 6.7 L-27.95 8.25 Q-29.65 11.65 -31.75 14.4 -33.85 17.2 -37.55 18.95 -39.8 19.95 -42.25 20.45 L-47.35 20.95 -48.15 20.95 -48.9 20.85 -52.05 20.5 -55.1 19.7 Q-58.45 18.55 -60.75 16.4 L-61.5 17.15 Q-64.95 20.7 -71.4 20.7 -73.6 20.7 -75.65 19.85 -77.6 18.95 -78.6 16.8 -80.45 18.8 -83.0 19.85 -85.55 20.85 -88.15 20.85 -90.7 20.75 -93.05 19.85 -95.4 18.9 -97.15 16.85 -98.3 15.55 -98.9 14.1 -99.5 12.65 -99.7 11.15 L-99.75 10.5 -99.8 9.95 Q-99.8 6.9 -98.15 4.0 -96.5 1.15 -93.8 -0.9 -91.85 -2.4 -89.25 -3.35 M-79.35 -0.1 L-79.7 0.0 Q-81.05 0.3 -82.35 1.7 L-84.75 4.7 -86.0 6.95 -86.8 8.7 -87.05 9.3 -87.3 10.15 -87.65 11.35 -87.9 12.65 -87.95 13.3 -88.0 14.0 Q-88.0 15.0 -87.6 15.75 -87.2 16.5 -86.2 16.5 -84.05 16.5 -82.5 14.9 -81.0 13.3 -80.0 11.45 L-79.15 9.85 -78.5 8.4 -78.2 7.6 -77.8 6.4 -77.45 5.3 -77.2 4.1 -77.05 3.2 -77.05 2.35 Q-77.05 1.3 -77.4 0.55 -77.8 -0.15 -79.0 -0.15 L-79.35 -0.1 M-42.7 -1.55 Q-45.2 -1.65 -47.05 0.3 -48.9 2.25 -49.8 4.65 L-50.4 6.25 -50.7 7.75 -49.0 7.55 -47.25 7.15 Q-44.7 6.45 -42.55 4.9 -40.4 3.35 -40.35 0.6 -40.35 -0.6 -40.95 -1.05 -41.6 -1.5 -42.7 -1.55 M-126.5 7.7 L-127.4 9.35 Q-128.3 10.7 -129.95 11.55 -131.55 12.35 -133.25 12.35 L-133.5 12.35 -133.75 12.35 -133.95 12.3 -134.2 12.25 -132.5 13.9 Q-131.45 14.6 -130.2 14.6 -126.3 14.6 -124.0 12.5 -121.7 10.45 -121.7 6.35 L-121.6 0.55 -121.6 -5.2 -127.3 2.4 Q-126.7 3.1 -126.45 4.05 -126.2 4.95 -126.2 5.9 -126.2 6.85 -126.5 7.7" fill="none" stroke="url(#gradient0)" stroke-linecap="round" stroke-linejoin="round" stroke-width="10.0"/>
    <path d="M301.35 -7.45 L302.1 -7.45 307.4 -6.8 Q309.95 -6.15 311.8 -4.5 L313.3 -2.4 314.05 0.2 314.05 0.45 314.05 0.7 313.7 2.6 312.7 4.3 Q311.85 5.25 310.8 5.7 L308.4 6.15 308.05 6.15 307.7 6.05 306.3 5.75 305.0 5.15 Q304.05 4.5 303.45 3.6 302.85 2.65 302.7 1.6 L302.7 1.5 302.7 1.25 302.6 1.1 302.6 0.95 Q302.6 -0.75 303.75 -2.0 304.85 -3.25 306.5 -3.7 L305.6 -3.95 304.65 -4.0 304.2 -4.0 303.8 -3.9 303.4 -3.85 303.0 -3.7 Q300.4 -2.8 298.55 -0.05 296.6 2.75 295.95 5.9 L295.75 7.35 295.7 8.75 Q295.75 11.65 297.25 13.75 298.7 15.85 302.1 15.85 307.8 15.85 311.35 12.7 314.05 10.3 316.05 7.1 316.4 4.45 318.0 2.0 320.05 -1.15 323.45 -3.4 326.45 -5.3 330.1 -6.45 333.8 -7.5 337.75 -7.5 L338.9 -7.5 340.0 -7.45 Q343.2 -7.15 346.25 -6.1 349.25 -5.05 351.6 -2.85 353.55 -1.1 354.6 1.15 355.65 3.45 355.65 5.85 L355.5 7.6 355.05 9.45 356.85 8.85 358.4 7.55 359.3 6.45 360.2 4.85 360.25 4.9 364.2 -6.55 378.05 -6.55 377.45 -4.9 Q379.15 -5.95 381.25 -6.65 383.35 -7.35 385.5 -7.5 L385.95 -7.5 386.4 -7.5 388.5 -7.35 390.55 -6.85 Q392.1 -6.35 393.35 -5.3 394.65 -4.2 395.15 -2.5 397.35 -4.85 400.1 -6.1 402.9 -7.35 405.85 -7.35 L408.05 -7.2 410.3 -6.6 Q413.2 -5.7 414.7 -3.55 416.15 -1.4 416.15 1.25 L416.0 3.05 415.5 4.9 415.05 6.15 414.45 7.85 414.3 8.3 414.15 8.75 413.6 10.7 413.35 12.2 413.35 12.4 413.4 12.65 413.65 12.7 414.15 12.7 414.9 12.6 415.6 12.3 Q416.65 11.7 417.7 10.6 L419.55 8.25 420.85 6.3 421.7 4.75 425.4 6.5 Q422.65 12.15 418.8 16.1 414.95 20.05 408.0 20.05 L406.95 20.0 405.8 19.9 402.5 19.05 Q400.9 18.4 399.85 17.0 399.15 16.0 398.8 14.9 398.55 13.85 398.55 12.7 L398.55 11.65 398.7 10.65 Q398.9 9.45 399.35 8.2 L400.15 5.85 400.45 5.05 401.0 3.7 401.2 3.05 401.4 2.3 401.7 1.15 401.8 0.2 401.55 -0.85 Q401.3 -1.25 400.7 -1.25 399.35 -1.25 398.15 -0.05 397.0 1.2 396.1 2.6 L395.3 4.2 394.7 5.55 393.5 9.0 392.3 12.45 391.05 15.95 389.9 19.4 375.25 19.4 376.8 14.95 378.4 10.45 379.9 6.0 381.45 1.55 381.65 0.7 381.75 0.0 Q381.75 -0.75 381.4 -1.0 L380.45 -1.3 379.7 -1.2 378.9 -0.85 378.1 -0.35 377.3 0.45 374.9 4.05 Q373.6 6.4 372.1 10.3 L371.65 11.7 370.55 14.8 369.65 17.65 369.1 19.4 355.25 19.4 356.0 17.3 353.65 17.7 351.55 17.4 349.65 16.5 Q346.8 18.9 342.9 20.25 339.0 21.55 334.95 21.8 L334.3 21.8 333.6 21.8 Q329.75 21.8 326.2 20.65 322.65 19.45 319.95 17.2 317.85 15.25 316.85 13.1 L316.45 13.6 Q314.4 16.3 310.55 18.15 308.25 19.2 305.45 19.75 L299.8 20.3 299.35 20.3 298.85 20.3 Q294.55 20.05 290.6 18.65 286.65 17.2 284.1 14.0 282.8 12.3 282.15 10.55 281.55 8.8 281.55 7.05 281.55 3.65 283.6 0.55 285.65 -2.5 288.9 -4.35 291.1 -5.55 294.2 -6.4 L300.55 -7.35 301.35 -7.45" fill="none" stroke="url(#gradient1)" stroke-linecap="round" stroke-linejoin="round" stroke-width="10.0"/>
    <path d="M335.5 -0.85 Q333.8 1.1 332.8 3.7 331.75 6.2 331.3 8.9 L331.15 10.6 331.1 12.3 331.15 13.4 331.3 14.75 Q331.55 16.0 332.05 17.0 332.65 18.0 333.8 18.0 335.7 18.0 337.1 16.7 338.55 15.4 339.45 13.75 L339.9 13.1 340.25 12.35 Q339.1 11.55 338.45 10.35 337.8 9.1 337.8 7.7 L337.8 7.4 337.8 7.2 Q338.05 5.0 339.5 3.0 340.9 1.05 343.15 0.45 343.05 -1.85 342.3 -2.8 341.5 -3.85 340.35 -3.85 L338.7 -3.45 336.9 -2.3 336.25 -1.65 335.5 -0.85" fill="none" stroke="url(#gradient2)" stroke-linecap="round" stroke-linejoin="round" stroke-width="10.0"/>
    <path d="M269.25 10.7 L270.3 10.6 271.25 10.55 272.5 10.6 273.9 10.9 Q276.05 11.4 277.8 12.85 279.65 14.3 279.5 16.7 279.3 18.9 277.6 20.1 275.9 21.3 273.85 21.7 L272.45 21.95 271.15 22.0 270.15 21.95 269.2 21.8 Q266.85 21.35 265.0 19.9 263.1 18.45 263.25 15.85 263.4 13.4 265.25 12.25 267.15 11.05 269.25 10.7 Z" fill="none" stroke="url(#gradient3)" stroke-linecap="round" stroke-linejoin="round" stroke-width="10.0"/>
    <path d="M33.9 -28.7 Q34.55 -27.05 34.55 -25.3 34.55 -21.8 32.0 -18.9 29.45 -16.0 25.4 -15.9 22.95 -15.8 21.15 -16.7 19.4 -17.65 17.8 -18.95 L17.0 -19.55 16.25 -20.25 16.75 -20.5 17.25 -20.75 Q19.15 -21.8 20.6 -23.0 22.05 -24.15 22.85 -26.45 L23.1 -27.15 23.15 -27.85 Q23.15 -29.5 21.85 -30.35 20.5 -31.2 18.6 -31.2 13.5 -31.2 9.55 -27.1 5.55 -23.05 2.75 -18.1 L0.75 -13.9 -0.85 -10.1 -2.25 -5.4 Q-2.9 -2.75 -3.0 -0.05 L-3.0 0.45 -3.0 0.95 Q-3.0 4.45 -1.65 7.5 -0.25 10.55 3.4 11.9 L6.15 12.55 8.95 12.8 9.65 12.8 10.3 12.7 Q16.15 12.35 21.5 8.6 26.75 4.85 29.35 -0.05 L29.55 -0.4 29.75 -0.7 29.9 -1.05 30.1 -1.4 35.2 0.5 46.5 -32.4 64.75 -32.4 57.5 -11.5 Q59.5 -12.6 61.9 -13.35 64.3 -14.2 66.9 -14.5 L67.9 -14.5 68.9 -14.55 Q71.65 -14.5 74.2 -13.65 76.75 -12.75 78.6 -10.7 79.8 -9.4 80.3 -7.8 80.85 -6.25 80.85 -4.6 L80.7 -2.75 80.15 -0.95 79.55 1.0 78.85 3.05 78.1 5.0 77.5 7.0 77.35 7.4 77.15 7.9 76.95 8.45 76.75 9.1 76.7 9.55 76.7 10.05 76.9 10.85 Q77.15 11.2 77.8 11.2 L78.75 11.05 79.7 10.65 Q81.05 10.0 82.25 8.75 L84.55 6.2 85.75 4.3 86.65 2.55 86.8 2.2 87.0 1.7 87.2 1.3 87.4 0.95 88.9 1.7 91.2 -5.1 94.2 -13.75 98.8 -13.75 103.5 -13.75 108.15 -13.75 112.8 -13.75 111.6 -10.25 110.4 -6.85 108.0 0.05 105.65 7.0 105.2 8.4 105.0 9.7 Q105.0 10.25 105.45 10.65 105.85 11.05 106.9 10.9 107.65 10.9 108.8 10.3 109.95 9.7 111.2 8.55 112.9 6.85 113.95 4.95 L116.0 0.95 116.2 1.05 Q116.8 -1.75 118.55 -4.4 121.2 -8.3 125.35 -10.7 128.15 -12.2 132.1 -13.3 136.1 -14.4 140.25 -14.55 L141.3 -14.65 142.25 -14.65 149.05 -13.85 Q152.3 -13.0 154.65 -10.85 155.85 -9.75 156.55 -8.2 157.35 -6.6 157.55 -4.9 L157.55 -4.55 157.55 -4.25 Q157.55 -3.05 157.1 -1.8 156.65 -0.55 155.85 0.4 154.75 1.65 153.4 2.2 151.95 2.75 150.3 2.75 L149.9 2.75 149.4 2.65 147.65 2.25 145.95 1.45 Q144.7 0.65 144.0 -0.5 143.2 -1.7 143.0 -3.05 L143.0 -3.2 143.0 -3.5 142.9 -3.7 142.9 -3.85 Q142.9 -6.05 144.35 -7.65 145.8 -9.3 147.85 -9.85 L146.7 -10.15 145.5 -10.2 144.95 -10.2 144.45 -10.1 143.95 -10.05 143.4 -9.85 Q140.1 -8.7 137.7 -5.15 135.2 -1.6 134.4 2.45 L134.1 4.3 134.0 6.1 Q134.1 9.8 136.0 12.5 137.9 15.2 142.25 15.2 149.6 15.2 154.1 11.2 158.65 7.15 161.6 1.2 L162.7 1.7 Q163.25 -0.5 164.45 -2.6 166.75 -6.7 170.4 -9.5 173.1 -11.55 176.75 -12.9 180.35 -14.3 184.15 -14.5 L184.95 -14.55 185.75 -14.55 Q188.75 -14.55 191.65 -13.7 194.45 -12.75 196.75 -10.85 L197.7 -13.75 206.95 -13.75 216.2 -13.75 215.0 -10.25 213.85 -6.8 211.4 0.05 209.05 7.0 208.95 7.3 208.9 7.7 208.7 8.2 208.6 8.8 208.5 9.25 208.5 9.6 208.65 10.35 209.15 10.8 209.6 10.95 210.15 10.9 211.25 10.65 212.3 10.15 214.4 8.45 216.3 6.25 217.75 4.2 218.65 2.45 218.85 2.1 219.0 1.75 219.15 1.35 219.35 1.0 221.5 1.95 Q222.15 1.0 223.1 0.35 225.1 -1.05 227.45 -0.95 L227.95 -0.95 228.45 -0.95 228.85 -0.9 229.35 -0.75 237.8 -12.55 255.7 -17.05 256.35 -6.95 257.05 3.1 Q257.5 11.0 251.9 15.1 246.35 19.3 239.6 19.95 L237.95 20.05 236.4 20.1 234.4 20.05 232.3 19.85 Q229.55 19.55 226.95 18.5 224.3 17.5 222.4 15.5 221.1 13.85 220.5 12.05 L220.1 10.55 Q218.1 13.35 215.85 15.65 210.95 20.6 201.9 20.6 L201.65 20.6 201.4 20.6 Q198.35 20.5 195.7 19.2 192.95 17.95 191.65 15.0 189.05 17.35 185.8 18.8 182.5 20.3 179.1 20.6 L178.3 20.7 177.4 20.7 Q174.1 20.6 171.0 19.35 167.95 18.15 165.5 15.15 163.7 13.0 162.95 10.65 L162.65 9.5 160.65 12.3 Q158.0 15.75 153.05 18.15 150.15 19.45 146.55 20.15 L139.3 20.9 138.7 20.9 138.1 20.9 Q132.6 20.6 127.5 18.8 122.45 16.9 119.2 12.85 L117.3 9.8 116.6 10.9 Q114.8 13.8 112.2 16.05 109.85 18.15 106.7 19.3 103.5 20.4 100.05 20.6 L99.65 20.6 99.25 20.6 96.35 20.4 93.65 19.75 Q90.0 18.5 88.5 15.9 87.35 13.95 87.1 11.65 L83.75 15.55 Q78.85 20.6 69.9 20.6 L68.75 20.55 67.55 20.5 Q65.3 20.2 63.2 19.4 61.1 18.5 59.7 16.6 58.75 15.3 58.35 13.85 57.95 12.45 57.95 10.95 L57.95 10.15 58.05 9.4 Q58.25 7.5 58.85 5.6 L60.05 2.1 60.4 1.2 61.0 -0.35 61.35 -1.25 61.6 -2.15 61.9 -3.55 62.05 -4.8 Q62.05 -5.7 61.7 -6.2 61.4 -6.7 60.5 -6.7 58.85 -6.7 57.3 -5.25 55.8 -3.8 54.75 -2.05 L53.75 -0.3 53.15 1.2 51.15 6.7 49.25 12.25 47.95 16.0 46.65 19.75 28.55 19.75 34.45 2.65 Q29.0 11.45 21.45 15.4 13.0 19.75 1.25 19.75 -9.45 19.75 -17.7 13.0 -25.95 6.2 -25.95 -5.3 -25.95 -12.9 -22.0 -19.25 -18.05 -25.6 -11.9 -29.65 -6.9 -33.2 -0.45 -35.1 6.0 -37.0 12.9 -37.0 L15.15 -36.95 17.4 -36.8 Q21.25 -36.5 25.0 -35.4 28.75 -34.35 31.7 -31.65 33.25 -30.35 33.9 -28.7 M110.1 -30.05 L110.7 -29.85 111.2 -29.65 Q113.2 -28.85 114.85 -27.3 116.5 -25.8 116.5 -23.6 L116.4 -23.0 116.3 -22.3 Q115.7 -20.5 114.2 -19.3 112.7 -18.1 111.0 -17.55 L110.3 -17.4 109.75 -17.25 108.15 -17.05 106.65 -17.0 102.45 -17.5 Q100.35 -18.0 98.75 -19.25 97.5 -20.15 96.85 -21.45 96.1 -22.75 96.1 -24.05 L96.35 -25.6 97.15 -27.05 Q98.45 -28.75 100.6 -29.6 L105.0 -30.65 105.55 -30.65 106.05 -30.65 108.15 -30.5 110.1 -30.05 M186.7 -5.7 Q184.9 -3.8 183.45 -1.6 L181.65 1.4 Q180.8 2.85 180.45 3.9 L180.1 4.85 179.7 6.35 179.3 7.75 179.0 9.25 Q178.8 9.8 178.75 10.45 L178.7 11.7 Q178.7 13.15 179.2 14.05 179.7 15.05 180.9 15.05 183.7 15.05 185.8 12.7 187.95 10.45 189.45 7.7 L190.85 5.0 191.9 2.55 193.65 -2.55 Q194.2 -4.7 194.2 -6.25 194.2 -7.4 193.85 -8.05 193.55 -8.7 192.2 -8.7 L191.25 -8.6 190.3 -8.3 Q188.5 -7.6 186.7 -5.7 M301.35 -7.45 L302.1 -7.45 307.4 -6.8 Q309.95 -6.15 311.8 -4.5 L313.3 -2.4 314.05 0.2 314.05 0.45 314.05 0.7 313.7 2.6 312.7 4.3 Q311.85 5.25 310.8 5.7 L308.4 6.15 308.05 6.15 307.7 6.05 306.3 5.75 305.0 5.15 Q304.05 4.5 303.45 3.6 302.85 2.65 302.7 1.6 L302.7 1.5 302.7 1.25 302.6 1.1 302.6 0.95 Q302.6 -0.75 303.75 -2.0 304.85 -3.25 306.5 -3.7 L305.6 -3.95 304.65 -4.0 304.2 -4.0 303.8 -3.9 303.4 -3.85 303.0 -3.7 Q300.4 -2.8 298.55 -0.05 296.6 2.75 295.95 5.9 L295.75 7.35 295.7 8.75 Q295.75 11.65 297.25 13.75 298.7 15.85 302.1 15.85 307.8 15.85 311.35 12.7 314.05 10.3 316.05 7.1 316.4 4.45 318.0 2.0 320.05 -1.15 323.45 -3.4 326.45 -5.3 330.1 -6.45 333.8 -7.5 337.75 -7.5 L338.9 -7.5 340.0 -7.45 Q343.2 -7.15 346.25 -6.1 349.25 -5.05 351.6 -2.85 353.55 -1.1 354.6 1.15 355.65 3.45 355.65 5.85 L355.5 7.6 355.05 9.45 356.85 8.85 358.4 7.55 359.3 6.45 360.2 4.85 360.25 4.9 364.2 -6.55 378.05 -6.55 377.45 -4.9 Q379.15 -5.95 381.25 -6.65 383.35 -7.35 385.5 -7.5 L385.95 -7.5 386.4 -7.5 388.5 -7.35 390.55 -6.85 Q392.1 -6.35 393.35 -5.3 394.65 -4.2 395.15 -2.5 397.35 -4.85 400.1 -6.1 402.9 -7.35 405.85 -7.35 L408.05 -7.2 410.3 -6.6 Q413.2 -5.7 414.7 -3.55 416.15 -1.4 416.15 1.25 L416.0 3.05 415.5 4.9 415.05 6.15 414.45 7.85 414.3 8.3 414.15 8.75 413.6 10.7 413.35 12.2 413.35 12.4 413.4 12.65 413.65 12.7 414.15 12.7 414.9 12.6 415.6 12.3 Q416.65 11.7 417.7 10.6 L419.55 8.25 420.85 6.3 421.7 4.75 425.4 6.5 Q422.65 12.15 418.8 16.1 414.95 20.05 408.0 20.05 L406.95 20.0 405.8 19.9 402.5 19.05 Q400.9 18.4 399.85 17.0 399.15 16.0 398.8 14.9 398.55 13.85 398.55 12.7 L398.55 11.65 398.7 10.65 Q398.9 9.45 399.35 8.2 L400.15 5.85 400.45 5.05 401.0 3.7 401.2 3.05 401.4 2.3 401.7 1.15 401.8 0.2 401.55 -0.85 Q401.3 -1.25 400.7 -1.25 399.35 -1.25 398.15 -0.05 397.0 1.2 396.1 2.6 L395.3 4.2 394.7 5.55 393.5 9.0 392.3 12.45 391.05 15.95 389.9 19.4 375.25 19.4 376.8 14.95 378.4 10.45 379.9 6.0 381.45 1.55 381.65 0.7 381.75 0.0 Q381.75 -0.75 381.4 -1.0 L380.45 -1.3 379.7 -1.2 378.9 -0.85 378.1 -0.35 377.3 0.45 374.9 4.05 Q373.6 6.4 372.1 10.3 L371.65 11.7 370.55 14.8 369.65 17.65 369.1 19.4 355.25 19.4 356.0 17.3 353.65 17.7 351.55 17.4 349.65 16.5 Q346.8 18.9 342.9 20.25 339.0 21.55 334.95 21.8 L334.3 21.8 333.6 21.8 Q329.75 21.8 326.2 20.65 322.65 19.45 319.95 17.2 317.85 15.25 316.85 13.1 L316.45 13.6 Q314.4 16.3 310.55 18.15 308.25 19.2 305.45 19.75 L299.8 20.3 299.35 20.3 298.85 20.3 Q294.55 20.05 290.6 18.65 286.65 17.2 284.1 14.0 282.8 12.3 282.15 10.55 281.55 8.8 281.55 7.05 281.55 3.65 283.6 0.55 285.65 -2.5 288.9 -4.35 291.1 -5.55 294.2 -6.4 L300.55 -7.35 301.35 -7.45 M336.25 -1.65 L335.5 -0.85 Q333.8 1.1 332.8 3.7 331.75 6.2 331.3 8.9 L331.15 10.6 331.1 12.3 331.15 13.4 331.3 14.75 Q331.55 16.0 332.05 17.0 332.65 18.0 333.8 18.0 335.7 18.0 337.1 16.7 338.55 15.4 339.45 13.75 L339.9 13.1 340.25 12.35 Q339.1 11.55 338.45 10.35 337.8 9.1 337.8 7.7 L337.8 7.4 337.8 7.2 Q338.05 5.0 339.5 3.0 340.9 1.05 343.15 0.45 343.05 -1.85 342.3 -2.8 341.5 -3.85 340.35 -3.85 L338.7 -3.45 336.9 -2.3 336.25 -1.65 M269.25 10.7 L270.3 10.6 271.25 10.55 272.5 10.6 273.9 10.9 Q276.05 11.4 277.8 12.85 279.65 14.3 279.5 16.7 279.3 18.9 277.6 20.1 275.9 21.3 273.85 21.7 L272.45 21.95 271.15 22.0 270.15 21.95 269.2 21.8 Q266.85 21.35 265.0 19.9 263.1 18.45 263.25 15.85 263.4 13.4 265.25 12.25 267.15 11.05 269.25 10.7 M234.65 4.05 L234.9 5.9 234.6 7.7 233.7 9.35 Q232.8 10.7 231.15 11.55 229.55 12.35 227.85 12.35 L227.6 12.35 227.35 12.35 227.15 12.3 226.9 12.25 228.6 13.9 Q229.65 14.6 230.9 14.6 234.8 14.6 237.1 12.5 239.4 10.45 239.4 6.35 L239.5 0.55 239.5 -5.2 233.8 2.4 Q234.4 3.1 234.65 4.05 M-367.6 -28.95 Q-367.6 -30.5 -368.3 -31.65 -369.05 -32.75 -371.15 -32.75 -375.7 -32.75 -379.5 -28.85 -383.35 -24.9 -384.2 -20.25 L-384.35 -19.15 -384.4 -18.0 -384.25 -16.15 -383.75 -14.4 Q-382.9 -12.2 -381.4 -11.5 -379.95 -10.75 -378.05 -10.3 L-377.45 -10.15 -376.85 -10.05 -377.4 -9.45 -377.95 -8.8 -379.95 -6.85 Q-381.0 -5.95 -382.3 -5.3 -383.55 -4.7 -384.7 -4.45 L-386.9 -4.25 Q-390.85 -4.25 -393.55 -7.35 -396.25 -10.4 -396.5 -14.95 -396.55 -16.55 -396.2 -18.2 L-395.2 -21.5 Q-391.5 -30.9 -382.4 -34.65 -373.3 -38.4 -363.1 -38.7 L-362.05 -38.7 -361.1 -38.7 -349.7 -37.9 Q-344.2 -37.1 -339.75 -35.8 L-347.55 -13.0 -355.4 9.8 Q-359.4 21.1 -369.5 27.95 -379.65 34.85 -391.35 34.85 L-395.3 34.6 -399.3 33.9 -399.9 33.7 -400.55 33.6 Q-404.3 32.5 -407.45 30.05 -410.6 27.6 -410.6 23.65 L-410.5 22.6 -410.3 21.45 Q-409.55 18.55 -407.15 16.9 -404.7 15.3 -401.95 15.3 -400.25 15.3 -398.6 15.9 -396.95 16.55 -395.6 17.85 L-393.9 19.45 -394.7 19.85 -395.6 20.2 -398.6 22.4 Q-399.95 23.65 -399.85 25.65 L-399.85 25.95 -399.85 26.2 Q-399.65 27.8 -398.45 28.6 -397.2 29.35 -395.7 29.45 -392.35 29.6 -389.5 26.75 -386.6 23.85 -384.6 20.3 -383.45 18.55 -382.7 16.75 L-381.45 13.6 -378.25 4.5 -375.2 -4.5 -372.0 -13.6 -368.95 -22.65 -368.75 -23.2 -368.55 -23.7 -368.2 -25.2 -367.8 -26.7 -367.65 -27.85 -367.6 -28.95 M-344.35 -4.8 L-342.85 -9.5 -341.15 -14.1 -323.15 -14.1 -325.0 -8.8 -326.7 -3.5 -328.55 1.85 -330.45 7.1 -330.65 7.95 -330.8 8.75 -330.45 9.7 Q-330.15 10.05 -329.3 10.05 -328.35 10.05 -327.0 9.35 -325.6 8.65 -324.0 6.65 -321.9 4.3 -320.4 1.1 -318.95 -2.05 -317.75 -5.4 L-316.7 -8.45 -315.65 -11.55 -315.4 -12.25 -315.2 -12.95 -315.15 -13.3 -314.95 -13.55 -314.9 -13.7 -314.85 -13.75 -314.8 -13.9 -314.75 -14.1 -311.8 -14.1 -308.8 -14.1 -302.85 -14.1 -296.85 -14.1 -298.7 -8.9 -300.45 -3.8 -302.2 1.5 -304.05 6.65 -304.45 8.05 -304.55 9.1 Q-304.55 9.9 -304.2 10.2 -303.9 10.55 -303.35 10.55 L-302.1 10.25 -300.65 9.6 -299.7 8.8 -298.75 8.1 Q-296.95 6.45 -295.85 4.6 L-294.2 1.7 -294.2 1.5 -293.5 -1.3 Q-291.6 -6.95 -285.8 -10.15 -280.0 -13.3 -273.5 -14.2 L-270.7 -14.5 -268.0 -14.55 -264.1 -14.4 -260.55 -13.75 -260.05 -13.55 -259.55 -13.4 Q-256.75 -12.65 -254.35 -10.75 -251.95 -8.85 -251.85 -5.7 -251.7 -0.55 -256.1 2.4 -260.55 5.35 -265.9 6.65 L-271.6 7.7 -276.3 7.9 Q-275.85 11.3 -273.7 13.15 -271.6 15.05 -268.05 15.05 -261.0 15.05 -256.1 11.05 -251.3 7.05 -248.55 1.0 L-248.0 1.25 Q-246.65 -4.2 -241.85 -8.4 -235.1 -14.35 -227.05 -15.1 L-226.05 -15.15 -225.05 -15.15 -219.65 -14.4 Q-217.0 -13.55 -214.6 -11.95 L-213.95 -13.85 -195.85 -13.85 -199.25 -3.8 -202.65 6.2 -206.2 16.2 -209.6 26.2 Q-211.8 32.65 -218.25 36.8 -224.75 40.95 -232.0 41.95 L-233.85 42.05 -235.6 42.1 -241.35 41.45 Q-244.1 40.8 -246.5 39.4 -248.65 38.15 -250.05 36.05 -251.45 33.95 -251.8 31.8 L-251.95 30.85 -252.0 30.0 Q-251.9 27.6 -250.45 25.7 -249.05 23.85 -245.85 23.2 L-245.45 23.2 -244.95 23.15 -244.6 23.15 -244.2 23.15 Q-240.8 23.15 -238.7 25.3 -236.6 27.55 -236.5 30.15 L-236.5 30.3 -236.5 30.45 Q-236.5 32.35 -237.75 34.1 -238.9 35.85 -241.5 36.7 L-241.0 36.9 -240.5 37.0 -240.1 37.1 -239.65 37.15 Q-234.7 37.3 -232.0 33.6 -229.2 29.9 -227.55 25.55 L-226.3 21.95 -225.2 18.8 -227.85 19.7 -230.55 20.2 -231.9 20.35 -233.2 20.4 Q-239.3 20.4 -243.95 16.65 -247.0 14.2 -248.0 10.25 L-249.15 11.8 Q-252.05 15.65 -257.3 18.15 -260.4 19.55 -263.85 20.25 L-270.95 20.9 -272.05 20.9 -273.1 20.8 -277.55 20.3 -281.85 19.2 Q-287.35 17.3 -290.9 13.4 L-293.0 10.35 Q-294.95 13.4 -297.65 15.65 -300.25 17.85 -303.55 19.0 -306.8 20.2 -311.1 20.2 -315.2 20.2 -318.2 18.3 -321.25 16.4 -321.9 12.15 -325.15 15.6 -329.45 17.95 -333.75 20.3 -338.65 20.3 -343.8 20.3 -346.2 17.2 -348.65 14.15 -348.65 10.05 L-348.35 7.2 -347.6 4.45 -345.95 -0.2 -344.35 -4.8 M-274.4 -1.9 L-275.2 0.4 -275.65 2.45 -273.3 2.2 -270.85 1.65 Q-267.25 0.65 -264.25 -1.5 -261.25 -3.7 -261.15 -7.6 -261.15 -9.2 -262.0 -9.85 -262.9 -10.5 -264.45 -10.6 -268.0 -10.7 -270.55 -7.95 -273.1 -5.2 -274.4 -1.9 M-227.05 -2.8 Q-228.95 -0.05 -230.2 2.85 L-231.65 7.0 Q-232.15 9.05 -232.15 10.65 L-232.05 11.95 -231.7 13.15 -230.85 14.1 -229.8 14.4 Q-225.9 14.4 -223.5 11.05 -221.05 7.6 -219.65 3.45 L-218.05 -1.55 -216.8 -5.6 -216.8 -6.05 -216.9 -6.5 -217.3 -7.8 -218.4 -8.7 -218.7 -8.85 -218.95 -8.85 -219.3 -9.0 -219.65 -9.0 Q-220.5 -9.0 -221.45 -8.5 L-223.35 -7.3 Q-225.2 -5.6 -227.05 -2.8 M-187.6 -9.5 Q-183.8 -11.95 -179.05 -13.35 -174.35 -14.75 -169.3 -14.75 L-167.8 -14.7 -166.35 -14.65 Q-162.3 -14.3 -158.4 -12.95 -154.5 -11.55 -151.55 -8.8 -149.0 -6.5 -147.65 -3.65 -146.3 -0.7 -146.3 2.4 L-146.55 4.65 -147.1 6.95 -144.8 6.25 Q-143.75 5.7 -142.85 4.55 L-141.7 3.1 -140.5 1.1 -139.35 1.6 -138.0 0.35 Q-136.0 -1.05 -133.65 -0.95 L-133.15 -0.95 -132.65 -0.95 -132.25 -0.9 -131.75 -0.75 -123.3 -12.55 -105.4 -17.05 -104.75 -6.95 -104.05 3.1 Q-103.6 11.0 -109.2 15.1 -114.75 19.3 -121.5 19.95 L-123.15 20.05 -124.7 20.1 -126.7 20.05 -128.8 19.85 Q-131.55 19.55 -134.15 18.5 -136.8 17.5 -138.7 15.5 -139.9 14.0 -140.45 12.4 L-142.8 15.0 Q-145.4 17.55 -148.9 17.55 L-151.6 17.15 -154.0 16.05 Q-157.7 19.1 -162.7 20.8 -167.65 22.5 -172.9 22.8 L-173.7 22.8 -174.6 22.8 Q-179.55 22.8 -184.1 21.3 -188.65 19.85 -192.1 16.9 -194.8 14.4 -196.05 11.65 -197.25 8.8 -197.25 6.0 -197.25 1.55 -194.6 -2.55 -192.0 -6.6 -187.6 -9.5 M-175.65 -0.4 Q-177.0 2.85 -177.55 6.25 L-177.7 8.5 -177.8 10.65 -177.75 12.05 -177.55 13.8 Q-177.25 15.4 -176.55 16.65 -175.8 17.95 -174.35 17.95 -171.95 17.95 -170.1 16.3 -168.25 14.6 -167.1 12.5 L-166.55 11.65 -166.05 10.7 Q-167.6 9.7 -168.4 8.1 -169.2 6.55 -169.2 4.75 L-169.2 4.35 -169.2 4.1 Q-168.9 1.25 -167.05 -1.3 -165.2 -3.8 -162.4 -4.5 -162.5 -7.5 -163.45 -8.75 -164.45 -10.05 -165.95 -10.05 -166.95 -10.05 -168.05 -9.5 -169.2 -9.0 -170.35 -8.05 L-171.25 -7.2 -172.15 -6.25 Q-174.35 -3.7 -175.65 -0.4 M-89.25 -3.35 Q-86.7 -4.3 -83.95 -4.5 L-83.35 -4.5 -82.8 -4.5 -78.5 -3.9 Q-76.4 -3.3 -74.7 -1.85 L-69.5 -17.15 -63.05 -17.15 -56.6 -17.15 -61.5 -3.05 -66.35 11.05 -66.45 11.25 -66.5 11.65 -66.6 11.95 -66.65 12.3 -66.7 12.6 -66.7 12.85 -66.6 13.4 -66.3 13.7 -66.0 13.85 -65.6 13.8 -64.9 13.65 -64.1 13.3 -63.4 12.8 Q-64.15 11.05 -64.15 9.0 L-63.95 7.05 -63.45 5.1 Q-62.1 1.0 -57.95 -1.25 -53.8 -3.5 -49.15 -4.15 L-47.15 -4.35 -45.2 -4.4 -42.45 -4.3 -39.9 -3.8 -39.55 -3.7 -39.2 -3.6 Q-37.2 -3.05 -35.5 -1.7 -33.75 -0.35 -33.7 1.95 -33.55 5.6 -36.75 7.7 -39.9 9.8 -43.75 10.75 L-47.8 11.5 -51.15 11.65 Q-50.85 14.1 -49.3 15.4 -47.8 16.75 -45.3 16.75 -40.2 16.75 -36.75 13.9 -33.3 11.05 -31.3 6.7 L-27.95 8.25 Q-29.65 11.65 -31.75 14.4 -33.85 17.2 -37.55 18.95 -39.8 19.95 -42.25 20.45 L-47.35 20.95 -48.15 20.95 -48.9 20.85 -52.05 20.5 -55.1 19.7 Q-58.45 18.55 -60.75 16.4 L-61.5 17.15 Q-64.95 20.7 -71.4 20.7 -73.6 20.7 -75.65 19.85 -77.6 18.95 -78.6 16.8 -80.45 18.8 -83.0 19.85 -85.55 20.85 -88.15 20.85 -90.7 20.75 -93.05 19.85 -95.4 18.9 -97.15 16.85 -98.3 15.55 -98.9 14.1 -99.5 12.65 -99.7 11.15 L-99.75 10.5 -99.8 9.95 Q-99.8 6.9 -98.15 4.0 -96.5 1.15 -93.8 -0.9 -91.85 -2.4 -89.25 -3.35 M-79.35 -0.1 L-79.7 0.0 Q-81.05 0.3 -82.35 1.7 L-84.75 4.7 -86.0 6.95 -86.8 8.7 -87.05 9.3 -87.3 10.15 -87.65 11.35 -87.9 12.65 -87.95 13.3 -88.0 14.0 Q-88.0 15.0 -87.6 15.75 -87.2 16.5 -86.2 16.5 -84.05 16.5 -82.5 14.9 -81.0 13.3 -80.0 11.45 L-79.15 9.85 -78.5 8.4 -78.2 7.6 -77.8 6.4 -77.45 5.3 -77.2 4.1 -77.05 3.2 -77.05 2.35 Q-77.05 1.3 -77.4 0.55 -77.8 -0.15 -79.0 -0.15 L-79.35 -0.1 M-42.7 -1.55 Q-45.2 -1.65 -47.05 0.3 -48.9 2.25 -49.8 4.65 L-50.4 6.25 -50.7 7.75 -49.0 7.55 -47.25 7.15 Q-44.7 6.45 -42.55 4.9 -40.4 3.35 -40.35 0.6 -40.35 -0.6 -40.95 -1.05 -41.6 -1.5 -42.7 -1.55 M-126.5 7.7 L-127.4 9.35 Q-128.3 10.7 -129.95 11.55 -131.55 12.35 -133.25 12.35 L-133.5 12.35 -133.75 12.35 -133.95 12.3 -134.2 12.25 -132.5 13.9 Q-131.45 14.6 -130.2 14.6 -126.3 14.6 -124.0 12.5 -121.7 10.45 -121.7 6.35 L-121.6 0.55 -121.6 -5.2 -127.3 2.4 Q-126.7 3.1 -126.45 4.05 -126.2 4.95 -126.2 5.9 -126.2 6.85 -126.5 7.7" fill="#ffffff" fill-rule="evenodd" stroke="none"/>
  </g>
  <defs>
    <linearGradient gradientTransform="matrix(0.0, 0.0294, -0.05, 0.0, -63.85, 1.9)" gradientUnits="userSpaceOnUse" id="gradient0" spreadMethod="pad" x1="-819.2" x2="819.2">
      <stop offset="0.0" stop-color="#ef019d"/>
      <stop offset="1.0" stop-color="#5a015f"/>
    </linearGradient>
    <linearGradient gradientTransform="matrix(0.0, 0.0242, -0.024, 0.0, 353.45, 7.15)" gradientUnits="userSpaceOnUse" id="gradient1" spreadMethod="pad" x1="-819.2" x2="819.2">
      <stop offset="0.0" stop-color="#cb018e"/>
      <stop offset="1.0" stop-color="#78016b"/>
    </linearGradient>
    <linearGradient gradientTransform="matrix(0.0, 0.0135, -0.0194, 0.0, 337.15, 7.1)" gradientUnits="userSpaceOnUse" id="gradient2" spreadMethod="pad" x1="-819.2" x2="819.2">
      <stop offset="0.0" stop-color="#cb018e"/>
      <stop offset="1.0" stop-color="#78016b"/>
    </linearGradient>
    <linearGradient gradientTransform="matrix(0.0, 0.016, -0.0131, 0.0, 271.35, 16.25)" gradientUnits="userSpaceOnUse" id="gradient3" spreadMethod="pad" x1="-819.2" x2="819.2">
      <stop offset="0.0" stop-color="#cb018e"/>
      <stop offset="1.0" stop-color="#78016b"/>
    </linearGradient>
  </defs>
</svg>
