<?xml version="1.0" encoding="UTF-8" standalone="no"?>
<svg xmlns:ffdec="https://www.free-decompiler.com/flash" xmlns:xlink="http://www.w3.org/1999/xlink" ffdec:objectType="shape" height="79.95px" width="642.35px" xmlns="http://www.w3.org/2000/svg">
  <g transform="matrix(1.0, 0.0, 0.0, 1.0, 358.55, 37.9)">
    <path d="M18.8 -4.25 L16.5 2.3 14.25 8.9 14.15 9.2 14.1 9.6 13.9 10.05 13.8 10.65 13.75 11.05 13.75 11.4 13.85 12.1 14.35 12.55 14.8 12.65 15.3 12.6 16.35 12.4 17.35 11.9 19.35 10.3 21.15 8.2 22.55 6.25 23.4 4.6 23.55 4.25 23.75 3.9 23.9 3.55 24.05 3.2 28.75 5.25 Q25.4 12.35 20.75 17.1 16.05 21.85 7.45 21.85 L7.2 21.85 7.0 21.85 Q4.05 21.75 1.5 20.5 -1.1 19.35 -2.3 16.5 -4.8 18.75 -7.9 20.15 -11.0 21.6 -14.3 21.85 L-15.05 21.95 -15.9 21.95 Q-19.05 21.85 -22.0 20.65 -24.9 19.5 -27.2 16.7 -28.9 14.6 -29.65 12.35 -30.4 10.1 -30.4 7.75 -30.4 3.65 -28.2 -0.25 -26.0 -4.15 -22.55 -6.8 -19.95 -8.75 -16.55 -10.05 -13.1 -11.35 -9.45 -11.55 L-8.7 -11.65 -7.9 -11.65 -2.3 -10.8 Q0.35 -9.9 2.55 -8.1 L3.45 -10.85 12.25 -10.85 21.05 -10.85 19.9 -7.55 18.8 -4.25 M55.6 -1.75 L55.7 -2.65 Q55.7 -3.5 55.3 -3.85 54.9 -4.25 54.15 -4.25 L53.25 -4.1 52.25 -3.7 51.25 -3.05 50.3 -2.05 Q48.95 -0.5 47.35 2.3 45.8 5.15 44.0 9.95 L43.4 11.65 42.1 15.45 41.0 18.9 40.25 21.05 23.4 21.05 34.3 -10.6 51.2 -10.6 50.5 -8.65 Q52.6 -9.9 55.15 -10.75 57.7 -11.65 60.35 -11.8 L60.85 -11.8 61.4 -11.8 64.0 -11.65 66.45 -11.0 Q68.35 -10.35 69.9 -9.1 71.45 -7.75 72.05 -5.7 74.75 -8.55 78.15 -10.1 81.55 -11.65 85.15 -11.65 L87.85 -11.4 90.6 -10.7 Q94.15 -9.55 95.95 -6.95 97.75 -4.3 97.75 -1.1 L97.55 1.05 96.9 3.35 96.4 4.85 95.65 6.95 95.45 7.5 95.3 8.05 94.6 10.4 Q94.3 11.55 94.3 12.25 L94.3 12.5 94.4 12.8 94.7 12.9 95.3 12.9 96.2 12.75 97.1 12.35 99.65 10.3 101.9 7.45 103.4 5.3 103.6 3.65 104.25 1.0 Q106.05 -4.4 111.6 -7.45 117.1 -10.45 123.3 -11.3 L125.95 -11.55 128.55 -11.65 132.25 -11.45 135.6 -10.85 136.1 -10.65 136.6 -10.55 Q139.25 -9.85 141.55 -8.0 143.85 -6.2 143.9 -3.15 144.1 1.75 139.85 4.5 135.6 7.35 130.55 8.55 L125.1 9.6 120.6 9.75 Q121.05 13.0 123.1 14.8 125.1 16.55 128.45 16.55 135.2 16.55 139.85 12.75 144.45 8.95 147.1 3.2 L148.2 3.7 149.4 2.55 Q151.3 1.25 153.55 1.35 L154.05 1.35 154.5 1.35 154.9 1.4 155.35 1.5 163.4 -9.7 180.45 -14.0 181.1 -4.4 181.75 5.2 Q182.2 12.4 177.3 16.3 L176.85 16.65 Q171.55 20.6 165.1 21.25 L163.5 21.35 162.05 21.4 160.15 21.35 158.15 21.15 Q155.55 20.85 153.05 19.85 150.55 18.9 148.75 17.0 147.5 15.45 146.95 13.75 L146.85 13.35 146.75 13.15 146.5 13.45 Q143.75 17.15 138.75 19.5 135.8 20.85 132.5 21.55 L125.75 22.15 124.7 22.15 123.65 22.05 119.45 21.6 115.35 20.5 Q110.15 18.7 106.75 15.0 105.6 13.75 104.85 12.4 L100.95 17.05 Q96.3 21.85 87.8 21.85 L86.5 21.8 85.1 21.65 81.05 20.65 Q79.15 19.85 77.85 18.15 76.95 16.9 76.55 15.6 76.2 14.25 76.2 12.85 L76.25 11.6 76.4 10.4 Q76.65 8.9 77.2 7.4 L78.2 4.5 78.55 3.55 79.2 1.9 79.5 1.05 79.75 0.2 80.05 -1.25 80.2 -2.4 79.9 -3.65 Q79.55 -4.15 78.85 -4.15 77.25 -4.15 75.8 -2.7 74.3 -1.2 73.25 0.55 L72.25 2.5 71.55 4.15 70.1 8.35 68.65 12.55 67.1 16.85 65.7 21.05 47.75 21.05 49.7 15.6 51.65 10.1 53.5 4.7 55.35 -0.75 55.6 -1.75 M131.9 -7.85 Q128.55 -7.95 126.15 -5.35 123.65 -2.75 122.45 0.45 L121.7 2.6 121.25 4.6 123.5 4.35 125.85 3.8 Q129.25 2.9 132.15 0.8 134.95 -1.25 135.05 -4.95 135.05 -6.5 134.25 -7.15 133.4 -7.75 131.9 -7.85 M165.0 2.75 L165.0 -2.75 159.6 4.5 160.4 6.1 160.6 7.85 160.35 9.6 159.5 11.15 Q158.65 12.45 157.1 13.25 155.55 14.0 153.9 14.0 L153.7 14.0 153.45 14.0 153.25 13.95 153.05 13.9 Q153.65 14.85 154.65 15.5 155.65 16.15 156.8 16.15 160.5 16.15 162.75 14.15 164.95 12.2 164.95 8.3 L165.0 2.75 M-350.85 -11.7 Q-347.95 -20.05 -340.25 -25.35 -332.55 -30.65 -323.95 -32.2 L-320.25 -32.7 -316.7 -32.9 -312.35 -32.75 -306.6 -32.1 Q-302.25 -31.35 -298.6 -29.5 -294.95 -27.65 -294.95 -23.95 -294.95 -21.2 -297.2 -19.45 -299.45 -17.7 -302.25 -17.5 L-302.5 -17.5 -302.7 -17.5 -305.0 -18.0 -307.05 -19.15 -307.4 -19.45 -307.8 -19.8 -307.9 -19.85 -307.95 -19.95 -308.2 -20.15 -308.4 -20.35 -307.05 -21.7 -306.0 -23.15 Q-305.5 -23.75 -305.3 -24.4 L-305.15 -25.55 Q-305.15 -26.6 -306.15 -27.25 -307.15 -27.9 -309.6 -27.9 -315.35 -27.9 -320.45 -21.9 -325.55 -15.9 -328.55 -8.6 L-328.95 -7.6 -329.35 -6.45 -329.5 -6.15 -329.6 -5.85 -330.7 -2.7 -331.45 0.7 -331.7 2.5 -331.8 4.25 -331.7 5.7 -331.45 7.15 Q-331.1 8.5 -330.35 9.05 -329.6 9.6 -328.75 9.6 L-328.1 9.55 -327.45 9.4 -325.75 8.5 -324.3 7.25 Q-322.95 5.6 -321.5 2.7 -320.05 -0.15 -318.5 -4.9 L-318.05 -6.2 -317.1 -9.1 -316.2 -11.55 -315.65 -13.1 -292.05 -13.1 -294.3 -6.55 -296.6 0.0 -298.9 6.65 -301.15 13.2 Q-304.9 23.95 -314.6 30.5 -324.3 37.05 -335.4 37.05 L-339.2 36.8 -343.0 36.15 Q-347.95 34.95 -350.4 32.75 -352.85 30.55 -353.4 28.1 L-353.55 27.3 -353.55 26.55 Q-353.5 23.2 -351.05 20.7 -348.6 18.2 -345.25 18.25 -343.75 18.25 -342.3 18.85 -340.85 19.4 -339.35 20.85 L-339.0 21.25 -338.6 21.6 -338.2 22.0 -337.85 22.4 -338.65 22.8 -339.55 23.3 -342.3 25.3 Q-343.55 26.5 -343.45 28.3 L-343.45 28.6 -343.45 28.8 Q-343.25 30.35 -342.15 31.05 -341.0 31.8 -339.55 31.9 -338.4 32.0 -337.1 31.5 L-334.45 29.9 -333.4 29.05 -332.35 28.0 Q-329.7 25.2 -328.1 21.85 -326.45 18.45 -325.3 14.85 L-328.05 15.6 -330.9 16.2 -332.3 16.35 -333.7 16.35 Q-338.2 16.35 -342.35 14.5 -346.45 12.65 -349.15 8.55 -350.85 5.95 -351.65 3.1 -352.4 0.2 -352.4 -2.8 L-352.35 -4.25 -352.2 -5.75 -351.7 -8.8 -350.85 -11.7 M-287.3 -22.15 L-286.55 -23.5 Q-285.3 -25.15 -283.25 -25.95 -281.2 -26.75 -279.05 -26.95 L-278.55 -26.95 -278.05 -26.95 -276.1 -26.8 -274.2 -26.35 -273.6 -26.2 -273.15 -26.0 Q-271.3 -25.2 -269.7 -23.75 -268.1 -22.3 -268.1 -20.25 L-268.2 -19.65 -268.3 -19.0 Q-268.85 -17.3 -270.3 -16.15 -271.7 -15.0 -273.35 -14.45 L-274.0 -14.35 -274.55 -14.2 -276.05 -14.0 -277.5 -13.95 -281.5 -14.4 Q-283.5 -14.9 -285.0 -16.1 -286.2 -16.95 -286.85 -18.2 -287.55 -19.45 -287.55 -20.7 L-287.3 -22.15 M-284.95 -10.85 L-280.5 -10.85 -276.05 -10.85 -271.65 -10.85 -272.75 -7.55 -273.9 -4.25 -276.2 2.3 -278.4 8.9 -278.85 10.25 -279.05 11.5 Q-279.05 12.0 -278.65 12.35 -278.25 12.75 -277.25 12.6 -276.5 12.6 -275.4 12.05 L-273.15 10.4 Q-271.55 8.75 -270.55 6.95 L-269.15 4.35 -270.25 3.9 Q-267.95 -2.3 -263.4 -7.2 -258.8 -12.1 -251.95 -12.45 L-250.65 -12.55 -249.25 -12.45 Q-246.25 -12.3 -243.5 -10.95 -240.75 -9.65 -239.15 -7.05 L-234.95 -9.8 Q-232.7 -11.0 -230.35 -11.75 L-228.25 -12.25 -226.2 -12.4 -223.5 -12.05 Q-222.25 -11.7 -221.05 -10.95 -219.9 -10.15 -219.2 -8.95 -218.55 -7.75 -218.25 -6.5 L-218.1 -5.4 -218.1 -4.45 Q-218.1 -1.1 -220.1 0.85 -222.15 2.8 -224.55 2.8 L-224.7 2.8 -224.85 2.8 Q-226.75 2.8 -228.45 1.5 -230.15 0.25 -230.9 -2.55 -231.2 -3.35 -231.6 -3.75 -232.0 -4.2 -232.5 -4.1 -233.45 -4.1 -234.55 -3.05 -235.7 -2.0 -236.95 -0.15 -239.15 2.6 -240.65 6.05 L-243.35 13.0 -244.4 16.0 -245.35 18.9 -245.7 19.95 -246.05 21.05 -262.75 21.05 -255.25 0.1 Q-255.1 -0.25 -255.1 -0.55 L-255.1 -1.0 Q-255.1 -2.0 -255.9 -2.35 L-257.65 -2.55 Q-260.0 -2.3 -261.8 -0.4 -263.6 1.5 -264.75 3.7 L-265.3 4.65 -263.95 5.35 -264.4 6.2 -264.9 7.0 -268.0 12.6 Q-269.75 15.35 -272.2 17.5 -274.45 19.5 -277.45 20.6 -280.5 21.65 -283.75 21.85 L-284.55 21.85 -287.3 21.65 -289.9 21.05 Q-293.35 19.85 -294.8 17.4 -296.2 14.9 -296.2 11.9 L-296.05 9.9 -295.65 7.75 -295.35 6.7 -295.05 5.7 -292.2 -2.6 -289.35 -10.85 -284.95 -10.85 M-205.55 -28.65 L-201.05 -28.65 -196.6 -28.65 -192.2 -28.65 -187.7 -28.65 -194.25 -9.85 -200.65 8.9 -201.2 10.4 -201.35 11.55 -200.9 12.4 -199.45 12.6 Q-198.75 12.6 -197.65 12.05 L-195.4 10.4 Q-193.75 8.75 -192.75 6.95 L-192.35 6.25 Q-191.95 4.8 -191.05 3.75 L-190.8 3.15 -190.6 3.25 -189.8 2.55 Q-187.9 1.25 -185.65 1.35 L-185.15 1.35 -184.7 1.35 -184.3 1.4 -183.85 1.5 -175.8 -9.7 -158.75 -14.0 -158.1 -4.4 -157.45 5.2 Q-157.0 12.7 -162.35 16.65 -167.65 20.6 -174.1 21.25 L-175.7 21.35 -177.15 21.4 -179.05 21.35 -181.05 21.15 Q-183.65 20.85 -186.15 19.85 -188.65 18.9 -190.45 17.0 L-191.9 14.6 -194.0 17.0 Q-198.4 21.85 -206.85 21.85 L-207.85 21.8 -208.75 21.75 Q-211.05 21.5 -213.2 20.6 -215.4 19.75 -216.75 17.85 -217.65 16.6 -218.05 15.05 -218.55 13.55 -218.55 12.0 L-218.5 11.3 -218.45 10.75 -218.0 8.15 -217.3 5.65 -211.35 -11.55 -205.55 -28.65 M-147.85 -3.85 Q-144.8 -5.55 -141.45 -5.85 L-140.8 -5.9 -140.1 -5.95 -136.55 -5.4 Q-134.75 -4.85 -133.15 -3.75 L-132.75 -5.05 -120.65 -5.05 -122.9 1.65 -124.1 5.15 -125.2 8.3 -127.55 14.95 -129.85 21.65 Q-131.3 25.95 -135.6 28.7 -139.9 31.5 -144.75 32.15 L-145.95 32.25 -147.15 32.25 -147.85 32.25 -151.0 31.85 Q-152.85 31.35 -154.4 30.45 -155.85 29.6 -156.8 28.2 -157.7 26.85 -157.95 25.4 L-158.05 24.75 -158.1 24.15 Q-158.0 22.6 -157.05 21.35 -156.15 20.05 -153.95 19.65 L-153.7 19.65 -153.4 19.6 -153.15 19.6 -152.9 19.6 Q-150.6 19.6 -149.2 21.05 -148.15 22.25 -147.85 23.6 L-147.75 24.3 -147.75 24.4 -147.75 24.5 -147.85 25.4 -148.55 26.9 Q-149.1 27.75 -150.15 28.3 L-151.05 28.65 -150.75 28.75 -150.4 28.85 -150.15 28.95 -149.85 28.95 -147.85 28.75 Q-145.95 28.25 -144.75 26.6 -142.9 24.1 -141.75 21.2 L-140.95 18.85 -140.25 16.7 -142.0 17.3 -143.8 17.65 -144.7 17.75 -145.55 17.8 -147.85 17.6 Q-150.5 17.05 -152.7 15.3 -155.8 12.8 -155.8 8.05 -155.8 2.55 -151.3 -1.4 L-147.85 -3.85 M-139.0 -0.7 Q-140.25 0.45 -141.45 2.3 -142.7 4.15 -143.55 6.1 L-144.5 8.85 -144.85 11.25 -144.75 12.15 -144.55 12.95 -144.0 13.6 -143.3 13.8 Q-140.7 13.8 -139.1 11.55 -137.45 9.25 -136.55 6.5 L-135.45 3.15 -134.6 0.45 -134.6 0.15 -134.65 -0.15 -134.95 -1.0 Q-135.2 -1.4 -135.7 -1.6 L-135.9 -1.7 -136.05 -1.75 -136.3 -1.8 -136.55 -1.8 -137.75 -1.5 -139.0 -0.7 M-106.2 -1.2 L-106.8 -0.6 -107.4 0.05 Q-108.85 1.75 -109.7 3.9 -110.6 6.1 -111.0 8.35 L-111.1 9.85 -111.15 11.25 -111.15 12.2 -111.0 13.35 -110.35 15.3 Q-109.85 16.15 -108.85 16.15 -107.25 16.15 -106.05 15.05 -104.8 13.9 -104.05 12.55 L-103.65 11.95 -103.35 11.35 -104.9 9.6 Q-105.45 8.55 -105.45 7.35 L-105.45 7.1 -105.45 6.9 Q-105.25 5.05 -104.0 3.35 -102.8 1.65 -100.9 1.15 -100.95 -0.8 -101.6 -1.65 -102.3 -2.5 -103.25 -2.5 L-104.65 -2.15 -106.2 -1.2 M-112.0 -4.75 Q-108.85 -5.65 -105.5 -5.65 L-104.5 -5.6 -103.55 -5.6 Q-100.85 -5.35 -98.25 -4.45 -95.65 -3.5 -93.65 -1.65 -91.95 -0.15 -91.05 1.75 -90.2 3.7 -90.2 5.75 L-90.35 7.3 -90.7 8.85 -89.15 8.35 -87.85 7.2 -87.1 6.25 -86.55 5.45 -87.4 3.1 Q-88.15 0.2 -88.15 -2.8 L-88.1 -4.25 -87.95 -5.75 -87.45 -8.8 -86.6 -11.7 Q-83.7 -20.05 -76.0 -25.35 -68.3 -30.65 -59.7 -32.2 L-56.0 -32.7 -52.45 -32.9 -48.1 -32.75 -42.35 -32.1 Q-38.0 -31.35 -34.35 -29.5 -30.7 -27.65 -30.7 -23.95 -30.7 -21.2 -32.95 -19.45 -35.2 -17.7 -38.0 -17.5 L-38.25 -17.5 -38.45 -17.5 -40.75 -18.0 Q-41.9 -18.35 -42.8 -19.15 L-43.15 -19.45 -43.55 -19.8 -43.65 -19.85 -43.7 -19.95 -43.95 -20.15 -44.15 -20.35 -42.8 -21.7 -41.75 -23.15 Q-41.25 -23.75 -41.05 -24.4 L-40.9 -25.55 Q-40.9 -26.6 -41.9 -27.25 -42.9 -27.9 -45.35 -27.9 -51.1 -27.9 -56.2 -21.9 -61.3 -15.9 -64.3 -8.6 L-64.7 -7.6 -65.1 -6.45 -65.25 -6.15 -65.35 -5.85 -66.45 -2.7 -67.2 0.7 -67.45 2.5 -67.55 4.25 -67.45 5.7 -67.2 7.15 Q-66.85 8.5 -66.1 9.05 -65.35 9.6 -64.5 9.6 L-63.85 9.55 -63.2 9.4 -61.5 8.5 -60.05 7.25 Q-58.7 5.6 -57.25 2.7 -55.8 -0.15 -54.25 -4.9 L-53.8 -6.2 -52.85 -9.1 -51.95 -11.55 -51.4 -13.1 -27.8 -13.1 -30.05 -6.55 -32.35 0.0 -34.65 6.65 -36.9 13.2 Q-40.65 23.95 -50.35 30.5 -60.05 37.05 -71.15 37.05 L-74.95 36.8 -78.75 36.15 Q-83.7 34.95 -86.15 32.75 -88.6 30.55 -89.15 28.1 L-89.3 27.3 -89.3 26.55 Q-89.25 23.2 -86.8 20.7 -84.35 18.2 -81.0 18.25 -79.5 18.25 -78.05 18.85 -76.6 19.4 -75.1 20.85 L-74.75 21.25 -74.35 21.6 -73.95 22.0 -73.6 22.4 -74.4 22.8 -75.3 23.3 -78.05 25.3 Q-79.3 26.5 -79.2 28.3 L-79.2 28.6 -79.2 28.8 Q-79.0 30.35 -77.9 31.05 -76.75 31.8 -75.3 31.9 L-72.85 31.5 Q-71.5 30.95 -70.2 29.9 L-69.15 29.05 -68.1 28.0 Q-65.45 25.2 -63.85 21.85 -62.2 18.45 -61.05 14.85 L-63.8 15.6 -66.65 16.2 -68.05 16.35 -69.45 16.35 Q-73.95 16.35 -78.1 14.5 -81.8 12.85 -84.3 9.4 L-84.85 10.35 Q-86.05 12.4 -87.85 14.15 -89.55 15.9 -91.9 15.9 L-93.7 15.6 -95.3 14.9 Q-97.75 16.9 -101.1 18.05 -104.4 19.15 -107.9 19.4 L-108.45 19.4 -109.05 19.4 Q-112.3 19.4 -115.35 18.4 -118.4 17.4 -120.7 15.45 -122.5 13.8 -123.35 11.95 -124.15 10.05 -124.15 8.2 -124.15 6.7 -123.7 5.3 -123.25 3.85 -122.4 2.5 -120.6 -0.2 -117.7 -2.15 -115.15 -3.75 -112.0 -4.75 M-2.7 -5.95 L-3.6 -5.7 Q-5.3 -4.95 -7.05 -3.15 L-10.15 0.7 -11.85 3.6 -13.0 5.95 -13.3 6.85 -13.7 8.3 -14.1 9.65 -14.35 11.05 -14.6 12.2 -14.65 13.35 Q-14.65 14.75 -14.2 15.6 -13.7 16.55 -12.55 16.55 -9.9 16.55 -7.9 14.35 -5.85 12.2 -4.4 9.6 L-3.05 7.0 -2.05 4.7 -0.45 -0.15 Q0.1 -2.25 0.1 -3.7 L-0.2 -5.4 Q-0.5 -6.05 -1.8 -6.05 L-2.7 -5.95 M-178.75 6.15 L-178.55 7.9 -178.8 9.65 -179.65 11.2 Q-180.5 12.5 -182.05 13.3 -183.6 14.05 -185.25 14.05 L-185.45 14.05 -185.7 14.05 -185.9 14.0 -186.1 13.95 -184.5 15.55 Q-183.5 16.2 -182.35 16.2 -178.65 16.2 -176.4 14.2 -174.2 12.25 -174.2 8.35 L-174.15 2.8 -174.15 -2.7 -179.55 4.55 Q-179.0 5.25 -178.75 6.15" fill="none" stroke="url(#gradient0)" stroke-linecap="round" stroke-linejoin="round" stroke-width="10.0"/>
    <path d="M236.85 -1.15 L237.4 6.75 Q237.75 12.85 233.4 16.1 229.05 19.35 223.8 19.85 L222.5 19.95 221.3 20.0 219.75 19.95 218.1 19.75 Q215.95 19.55 213.9 18.7 211.85 17.95 210.4 16.4 209.35 15.1 208.9 13.7 208.4 12.3 208.4 10.8 L208.5 9.2 Q208.6 8.35 208.85 7.55 209.35 5.65 210.9 4.55 212.5 3.5 214.3 3.55 L214.7 3.55 215.1 3.55 215.4 3.6 215.8 3.7 222.4 -5.5 236.35 -9.05 236.85 -1.15 M257.95 -1.9 Q255.95 0.2 254.9 2.85 L254.3 4.6 253.95 6.2 255.8 6.0 257.7 5.55 Q260.5 4.8 262.85 3.1 265.2 1.4 265.25 -1.6 265.25 -2.9 264.6 -3.4 L262.7 -3.95 Q259.95 -4.05 257.95 -1.9 M255.65 -6.8 L257.8 -7.0 259.95 -7.05 263.0 -6.95 265.7 -6.4 266.1 -6.3 266.5 -6.15 Q268.7 -5.6 270.55 -4.1 272.45 -2.65 272.5 -0.15 272.65 3.85 269.2 6.15 265.7 8.45 261.55 9.45 L257.1 10.3 253.45 10.45 Q253.8 13.1 255.45 14.55 257.1 16.0 259.85 16.0 265.4 16.0 269.2 12.9 272.95 9.8 275.1 5.05 L278.8 6.75 Q276.95 10.45 274.65 13.5 272.35 16.5 268.3 18.45 265.85 19.55 263.15 20.1 L257.65 20.6 256.75 20.6 255.95 20.55 252.45 20.15 249.15 19.25 Q244.85 17.8 242.05 14.75 239.25 11.7 239.25 7.55 239.25 6.55 239.5 5.45 239.65 4.4 240.05 3.3 241.5 -1.15 246.05 -3.65 250.55 -6.1 255.65 -6.8 M223.7 4.7 L223.7 0.2 219.25 6.15 219.9 7.45 220.1 8.9 219.9 10.3 219.2 11.55 Q218.5 12.65 217.2 13.3 215.95 13.9 214.6 13.9 L214.45 13.9 214.25 13.9 214.05 13.9 213.9 13.85 Q214.4 14.6 215.2 15.15 216.0 15.7 217.0 15.7 220.05 15.7 221.85 14.05 223.65 12.45 223.65 9.25 L223.7 4.7 M206.45 17.0 Q206.25 19.2 204.55 20.4 202.85 21.6 200.8 22.0 L199.4 22.25 198.1 22.3 197.1 22.25 196.15 22.1 Q193.8 21.65 191.95 20.2 190.05 18.75 190.2 16.15 190.35 13.7 192.2 12.55 194.1 11.35 196.2 11.0 L197.25 10.9 198.2 10.85 199.45 10.9 200.85 11.2 Q203.0 11.7 204.75 13.15 206.6 14.6 206.45 17.0 Z" fill="none" stroke="url(#gradient1)" stroke-linecap="round" stroke-linejoin="round" stroke-width="10.0"/>
    <path d="M20.0 -7.45 L18.9 -4.15 16.6 2.4 14.35 9.0 14.25 9.3 14.2 9.7 14.0 10.15 13.9 10.75 13.85 11.15 13.85 11.5 13.95 12.2 14.45 12.65 14.9 12.75 15.4 12.7 16.45 12.5 17.45 12.0 19.45 10.4 21.25 8.3 22.65 6.35 23.5 4.7 23.65 4.35 23.85 4.0 24.0 3.65 24.15 3.3 28.85 5.35 Q25.5 12.45 20.85 17.2 16.15 21.95 7.55 21.95 L7.3 21.95 7.1 21.95 Q4.15 21.85 1.6 20.6 -1.0 19.45 -2.2 16.6 -4.7 18.85 -7.8 20.25 -10.9 21.7 -14.2 21.95 L-14.95 22.05 -15.8 22.05 Q-18.95 21.95 -21.9 20.75 -24.8 19.6 -27.1 16.8 -28.8 14.7 -29.55 12.45 -30.3 10.2 -30.3 7.85 -30.3 3.75 -28.1 -0.15 -25.9 -4.05 -22.45 -6.7 -19.85 -8.65 -16.45 -9.95 -13.0 -11.25 -9.35 -11.45 L-8.6 -11.55 -7.8 -11.55 Q-4.95 -11.55 -2.2 -10.7 0.45 -9.8 2.65 -8.0 L3.55 -10.75 12.35 -10.75 21.15 -10.75 20.0 -7.45 M55.8 -2.55 Q55.8 -3.4 55.4 -3.75 55.0 -4.15 54.25 -4.15 L53.35 -4.0 52.35 -3.6 51.35 -2.95 50.4 -1.95 Q49.05 -0.4 47.45 2.4 45.9 5.25 44.1 10.05 L43.5 11.75 42.2 15.55 41.1 19.0 40.35 21.15 23.5 21.15 34.4 -10.5 51.3 -10.5 50.6 -8.55 Q52.7 -9.8 55.25 -10.65 57.8 -11.55 60.45 -11.7 L60.95 -11.7 61.5 -11.7 64.1 -11.55 66.55 -10.9 Q68.45 -10.25 70.0 -9.0 71.55 -7.65 72.15 -5.6 74.85 -8.45 78.25 -10.0 81.65 -11.55 85.25 -11.55 L87.95 -11.3 90.7 -10.6 Q94.25 -9.45 96.05 -6.85 97.85 -4.2 97.85 -1.0 L97.65 1.15 97.0 3.45 96.5 4.95 95.75 7.05 95.55 7.6 95.4 8.15 94.7 10.5 Q94.4 11.65 94.4 12.35 L94.4 12.6 94.5 12.9 94.8 13.0 95.4 13.0 96.3 12.85 97.2 12.45 99.75 10.4 102.0 7.55 103.5 5.4 103.7 3.75 Q103.9 2.45 104.35 1.1 106.15 -4.3 111.7 -7.35 117.2 -10.35 123.4 -11.2 L126.05 -11.45 128.65 -11.55 132.35 -11.35 135.7 -10.75 136.2 -10.55 136.7 -10.45 Q139.35 -9.75 141.65 -7.9 143.95 -6.1 144.0 -3.05 144.2 1.85 139.95 4.6 135.7 7.45 130.65 8.65 L125.2 9.7 120.7 9.85 Q121.15 13.1 123.2 14.9 125.2 16.65 128.55 16.65 135.3 16.65 139.95 12.85 144.55 9.05 147.2 3.3 L148.3 3.8 149.5 2.65 Q151.4 1.35 153.65 1.45 L154.15 1.45 154.6 1.45 155.0 1.5 155.45 1.6 163.5 -9.6 180.55 -13.9 181.2 -4.3 181.85 5.3 Q182.3 12.55 177.3 16.5 L176.95 16.75 Q171.65 20.7 165.2 21.35 L163.6 21.45 162.15 21.5 160.25 21.45 158.25 21.25 Q155.65 20.95 153.15 19.95 150.65 19.0 148.85 17.1 147.6 15.55 147.05 13.85 L146.85 13.25 146.6 13.55 Q143.85 17.25 138.85 19.6 135.9 20.95 132.6 21.65 L125.85 22.25 124.8 22.25 123.75 22.15 119.55 21.7 115.45 20.6 Q110.25 18.8 106.85 15.1 L104.95 12.5 101.05 17.15 Q96.4 21.95 87.9 21.95 L86.6 21.9 85.2 21.75 Q83.1 21.5 81.15 20.75 79.25 19.95 77.95 18.25 77.05 17.0 76.65 15.7 76.3 14.35 76.3 12.95 L76.35 11.7 76.5 10.5 Q76.75 9.0 77.3 7.5 L78.3 4.6 78.65 3.65 79.3 2.0 79.6 1.15 79.85 0.3 80.15 -1.15 80.3 -2.3 80.0 -3.55 Q79.65 -4.05 78.95 -4.05 77.35 -4.05 75.9 -2.6 74.4 -1.1 73.35 0.65 L72.35 2.6 71.65 4.25 70.2 8.45 68.75 12.65 67.2 16.95 65.8 21.15 47.85 21.15 49.8 15.7 51.75 10.2 53.6 4.8 55.45 -0.65 55.7 -1.65 55.8 -2.55 M134.35 -7.05 Q133.5 -7.65 132.0 -7.75 128.65 -7.85 126.25 -5.25 123.75 -2.65 122.55 0.55 L121.8 2.7 121.35 4.7 123.6 4.45 125.95 3.9 Q129.35 3.0 132.25 0.9 135.05 -1.15 135.15 -4.85 135.15 -6.4 134.35 -7.05 M236.85 -1.15 L237.4 6.75 Q237.75 12.85 233.4 16.1 229.05 19.35 223.8 19.85 L222.5 19.95 221.3 20.0 219.75 19.95 218.1 19.75 Q215.95 19.55 213.9 18.7 211.85 17.95 210.4 16.4 209.35 15.1 208.9 13.7 208.4 12.3 208.4 10.8 L208.5 9.2 Q208.6 8.35 208.85 7.55 209.35 5.65 210.9 4.55 212.5 3.5 214.3 3.55 L214.7 3.55 215.1 3.55 215.4 3.6 215.8 3.7 222.4 -5.5 236.35 -9.05 236.85 -1.15 M263.0 -6.95 L265.7 -6.4 266.1 -6.3 266.5 -6.15 Q268.7 -5.6 270.55 -4.1 272.45 -2.65 272.5 -0.15 272.65 3.85 269.2 6.15 265.7 8.45 261.55 9.45 L257.1 10.3 253.45 10.45 Q253.8 13.1 255.45 14.55 257.1 16.0 259.85 16.0 265.4 16.0 269.2 12.9 272.95 9.8 275.1 5.05 L278.8 6.75 Q276.95 10.45 274.65 13.5 272.35 16.5 268.3 18.45 265.85 19.55 263.15 20.1 L257.65 20.6 256.75 20.6 255.95 20.55 252.45 20.15 249.15 19.25 Q244.85 17.8 242.05 14.75 239.25 11.7 239.25 7.55 239.25 6.55 239.5 5.45 239.65 4.4 240.05 3.3 241.5 -1.15 246.05 -3.65 250.55 -6.1 255.65 -6.8 L257.8 -7.0 259.95 -7.05 263.0 -6.95 M257.95 -1.9 Q255.95 0.2 254.9 2.85 L254.3 4.6 253.95 6.2 255.8 6.0 257.7 5.55 Q260.5 4.8 262.85 3.1 265.2 1.4 265.25 -1.6 265.25 -2.9 264.6 -3.4 L262.7 -3.95 Q259.95 -4.05 257.95 -1.9 M223.7 4.7 L223.7 0.2 219.25 6.15 219.9 7.45 220.1 8.9 219.9 10.3 219.2 11.55 Q218.5 12.65 217.2 13.3 215.95 13.9 214.6 13.9 L214.45 13.9 214.25 13.9 214.05 13.9 213.9 13.85 Q214.4 14.6 215.2 15.15 216.0 15.7 217.0 15.7 220.05 15.7 221.85 14.05 223.65 12.45 223.65 9.25 L223.7 4.7 M206.45 17.0 Q206.25 19.2 204.55 20.4 202.85 21.6 200.8 22.0 L199.4 22.25 198.1 22.3 197.1 22.25 196.15 22.1 Q193.8 21.65 191.95 20.2 190.05 18.75 190.2 16.15 190.35 13.7 192.2 12.55 194.1 11.35 196.2 11.0 L197.25 10.9 198.2 10.85 199.45 10.9 200.85 11.2 Q203.0 11.7 204.75 13.15 206.6 14.6 206.45 17.0 M165.05 8.4 L165.1 2.85 165.1 -2.65 159.7 4.6 160.5 6.2 160.7 7.95 160.45 9.7 159.6 11.25 Q158.75 12.55 157.2 13.35 155.65 14.1 154.0 14.1 L153.8 14.1 153.55 14.1 153.35 14.05 153.15 14.0 Q153.75 14.95 154.75 15.6 155.75 16.25 156.9 16.25 160.6 16.25 162.85 14.25 165.05 12.3 165.05 8.4 M-352.25 -4.15 L-352.1 -5.65 -351.6 -8.7 -350.75 -11.6 Q-347.85 -19.95 -340.15 -25.25 -332.45 -30.55 -323.85 -32.1 L-320.15 -32.6 -316.6 -32.8 -312.25 -32.65 -306.5 -32.0 Q-302.15 -31.25 -298.5 -29.4 -294.85 -27.55 -294.85 -23.85 -294.85 -21.1 -297.1 -19.35 -299.35 -17.6 -302.15 -17.4 L-302.4 -17.4 -302.6 -17.4 -304.9 -17.9 Q-306.05 -18.25 -306.95 -19.05 L-307.3 -19.35 -307.7 -19.7 -307.8 -19.75 -307.85 -19.85 -308.1 -20.05 -308.3 -20.25 -306.95 -21.6 -305.9 -23.05 Q-305.4 -23.65 -305.2 -24.3 L-305.05 -25.45 Q-305.05 -26.5 -306.05 -27.15 -307.05 -27.8 -309.5 -27.8 -315.25 -27.8 -320.35 -21.8 -325.45 -15.8 -328.45 -8.5 L-328.85 -7.5 -329.25 -6.35 -329.4 -6.05 -329.5 -5.75 -330.6 -2.6 -331.35 0.8 -331.6 2.6 -331.7 4.35 -331.6 5.8 -331.35 7.25 Q-331.0 8.6 -330.25 9.15 -329.5 9.7 -328.65 9.7 L-328.0 9.65 -327.35 9.5 -325.65 8.6 -324.2 7.35 Q-322.85 5.7 -321.4 2.8 -319.95 -0.05 -318.4 -4.8 L-317.95 -6.1 -317.0 -9.0 -316.1 -11.45 -315.55 -13.0 -291.95 -13.0 -294.2 -6.45 -296.5 0.1 -298.8 6.75 -301.05 13.3 Q-304.8 24.05 -314.5 30.6 -324.2 37.15 -335.3 37.15 L-339.1 36.9 -342.9 36.25 Q-347.85 35.05 -350.3 32.85 -352.75 30.65 -353.3 28.2 L-353.45 27.4 -353.45 26.65 Q-353.4 23.3 -350.95 20.8 -348.5 18.3 -345.15 18.35 -343.65 18.35 -342.2 18.95 -340.75 19.5 -339.25 20.95 L-338.9 21.35 -338.5 21.7 -338.1 22.1 -337.75 22.5 -338.55 22.9 -339.45 23.4 -342.2 25.4 Q-343.45 26.6 -343.35 28.4 L-343.35 28.7 -343.35 28.9 Q-343.15 30.45 -342.05 31.15 -340.9 31.9 -339.45 32.0 L-337.0 31.6 Q-335.65 31.05 -334.35 30.0 L-333.3 29.15 -332.25 28.1 Q-329.6 25.3 -328.0 21.95 -326.35 18.55 -325.2 14.95 L-327.95 15.7 -330.8 16.3 -332.2 16.45 -333.6 16.45 Q-338.1 16.45 -342.25 14.6 -346.35 12.75 -349.05 8.65 -350.75 6.05 -351.55 3.2 -352.3 0.3 -352.3 -2.7 L-352.25 -4.15 M-286.45 -23.4 Q-285.2 -25.05 -283.15 -25.85 -281.1 -26.65 -278.95 -26.85 L-278.45 -26.85 -277.95 -26.85 -276.0 -26.7 -274.1 -26.25 -273.5 -26.1 -273.05 -25.9 Q-271.2 -25.1 -269.6 -23.65 -268.0 -22.2 -268.0 -20.15 L-268.1 -19.55 -268.2 -18.9 Q-268.75 -17.2 -270.2 -16.05 -271.6 -14.9 -273.25 -14.35 L-273.9 -14.25 -274.45 -14.1 -275.95 -13.9 -277.4 -13.85 -281.4 -14.3 Q-283.4 -14.8 -284.9 -16.0 -286.1 -16.85 -286.75 -18.1 -287.45 -19.35 -287.45 -20.6 L-287.2 -22.05 -286.45 -23.4 M-289.25 -10.75 L-284.85 -10.75 -280.4 -10.75 -275.95 -10.75 -271.55 -10.75 -272.65 -7.45 -273.8 -4.15 -276.1 2.4 -278.3 9.0 -278.75 10.35 -278.95 11.6 Q-278.95 12.1 -278.55 12.45 -278.15 12.85 -277.15 12.7 L-275.3 12.15 Q-274.25 11.6 -273.05 10.5 -271.45 8.85 -270.45 7.05 L-269.05 4.45 -270.15 4.0 Q-267.85 -2.2 -263.3 -7.1 -258.7 -12.0 -251.85 -12.35 L-250.55 -12.45 -249.15 -12.35 Q-246.15 -12.2 -243.4 -10.85 -240.65 -9.55 -239.05 -6.95 L-234.85 -9.7 -230.25 -11.65 -228.15 -12.15 -226.1 -12.3 -223.4 -11.95 Q-222.15 -11.6 -220.95 -10.85 -219.8 -10.05 -219.1 -8.85 -218.45 -7.65 -218.15 -6.4 L-218.0 -5.3 -218.0 -4.35 Q-218.0 -1.0 -220.0 0.95 -222.05 2.9 -224.45 2.9 L-224.6 2.9 -224.75 2.9 Q-226.65 2.9 -228.35 1.6 -230.05 0.35 -230.8 -2.45 -231.1 -3.25 -231.5 -3.65 -231.9 -4.1 -232.4 -4.0 -233.35 -4.0 -234.45 -2.95 L-236.85 -0.05 Q-239.05 2.7 -240.55 6.15 L-243.25 13.1 -244.3 16.1 -245.25 19.0 -245.6 20.05 -245.95 21.15 -262.65 21.15 -255.15 0.2 Q-255.0 -0.15 -255.0 -0.45 L-255.0 -0.9 Q-255.0 -1.9 -255.8 -2.25 L-257.55 -2.45 Q-259.9 -2.2 -261.7 -0.3 -263.5 1.6 -264.65 3.8 L-265.2 4.75 -263.85 5.45 -264.3 6.3 -264.8 7.1 -267.9 12.7 Q-269.65 15.45 -272.1 17.6 -274.35 19.6 -277.35 20.7 -280.4 21.75 -283.65 21.95 L-284.05 21.95 -284.45 21.95 -287.2 21.75 -289.8 21.15 Q-293.25 19.95 -294.7 17.5 -296.1 15.0 -296.1 12.0 L-295.95 10.0 -295.55 7.85 -295.25 6.8 -294.95 5.8 -292.1 -2.5 -289.25 -10.75 M-205.45 -28.55 L-200.95 -28.55 -196.5 -28.55 -192.1 -28.55 -187.6 -28.55 -194.15 -9.75 -200.55 9.0 -201.1 10.5 -201.25 11.65 -200.8 12.5 -199.35 12.7 -197.55 12.15 -195.3 10.5 Q-193.65 8.85 -192.65 7.05 L-192.25 6.35 Q-191.85 4.9 -190.95 3.85 L-190.7 3.25 -190.5 3.35 -189.7 2.65 Q-187.8 1.35 -185.55 1.45 L-185.05 1.45 -184.6 1.45 -184.2 1.5 -183.75 1.6 -175.7 -9.6 -158.65 -13.9 -158.0 -4.3 -157.35 5.3 Q-156.9 12.8 -162.25 16.75 -167.55 20.7 -174.0 21.35 L-175.6 21.45 -177.05 21.5 -178.95 21.45 -180.95 21.25 Q-183.55 20.95 -186.05 19.95 -188.55 19.0 -190.35 17.1 L-191.8 14.7 -193.9 17.1 Q-198.3 21.95 -206.75 21.95 L-207.75 21.9 -208.65 21.85 Q-210.95 21.6 -213.1 20.7 -215.3 19.85 -216.65 17.95 -217.55 16.7 -217.95 15.15 -218.45 13.65 -218.45 12.1 L-218.4 11.4 -218.35 10.85 -217.9 8.25 -217.2 5.75 -211.25 -11.45 -205.45 -28.55 M-138.9 -0.6 Q-140.15 0.55 -141.35 2.4 -142.6 4.25 -143.45 6.2 L-144.4 8.95 -144.75 11.35 -144.65 12.25 -144.45 13.05 -143.9 13.7 -143.2 13.9 Q-140.6 13.9 -139.0 11.65 -137.35 9.35 -136.45 6.6 L-135.35 3.25 -134.5 0.55 -134.5 0.25 -134.55 -0.05 -134.85 -0.9 -135.6 -1.5 -135.8 -1.6 -135.95 -1.65 -136.2 -1.7 -136.45 -1.7 -137.65 -1.4 -138.9 -0.6 M-140.0 -5.85 L-136.45 -5.3 Q-134.65 -4.75 -133.05 -3.65 L-132.65 -4.95 -120.55 -4.95 -122.8 1.75 -125.1 8.4 -127.45 15.05 -129.75 21.75 Q-131.2 26.05 -135.5 28.8 -139.8 31.6 -144.65 32.25 L-145.85 32.35 -147.05 32.35 -150.9 31.95 Q-152.75 31.45 -154.3 30.55 -155.75 29.7 -156.7 28.3 -157.6 26.95 -157.85 25.5 L-157.95 24.85 -158.0 24.25 Q-157.9 22.7 -156.95 21.45 -156.05 20.15 -153.85 19.75 L-153.6 19.75 -153.3 19.7 -153.05 19.7 -152.8 19.7 Q-150.5 19.7 -149.1 21.15 -147.75 22.65 -147.65 24.4 L-147.65 24.5 -147.65 24.6 Q-147.65 25.85 -148.45 27.0 -149.25 28.2 -150.95 28.75 L-150.65 28.85 -150.3 28.95 -150.05 29.05 -149.75 29.05 Q-146.45 29.15 -144.65 26.7 -142.8 24.2 -141.65 21.3 L-140.85 18.95 -140.15 16.8 -141.9 17.4 -143.7 17.75 -144.6 17.85 -145.45 17.9 Q-149.5 17.9 -152.6 15.4 -155.7 12.9 -155.7 8.15 -155.7 2.65 -151.2 -1.3 -146.7 -5.3 -141.35 -5.75 L-140.7 -5.8 -140.0 -5.85 M-106.7 -0.5 L-107.3 0.15 Q-108.75 1.85 -109.6 4.0 -110.5 6.2 -110.9 8.45 L-111.0 9.95 -111.05 11.35 -111.05 12.3 -110.9 13.45 -110.25 15.4 Q-109.75 16.25 -108.75 16.25 -107.15 16.25 -105.95 15.15 -104.7 14.0 -103.95 12.65 L-103.55 12.05 -103.25 11.45 Q-104.25 10.75 -104.8 9.7 -105.35 8.65 -105.35 7.45 L-105.35 7.2 -105.35 7.0 Q-105.15 5.15 -103.9 3.45 -102.7 1.75 -100.8 1.25 -100.85 -0.7 -101.5 -1.55 -102.2 -2.4 -103.15 -2.4 L-104.55 -2.05 -106.1 -1.1 -106.7 -0.5 M-111.9 -4.65 Q-108.75 -5.55 -105.4 -5.55 L-104.4 -5.5 -103.45 -5.5 Q-100.75 -5.25 -98.15 -4.35 -95.55 -3.4 -93.55 -1.55 -91.85 -0.05 -90.95 1.85 -90.1 3.8 -90.1 5.85 L-90.25 7.4 -90.6 8.95 -89.05 8.45 -87.75 7.3 -87.0 6.35 -86.45 5.55 -87.3 3.2 Q-88.05 0.3 -88.05 -2.7 L-88.0 -4.15 -87.85 -5.65 -87.35 -8.7 -86.5 -11.6 Q-83.6 -19.95 -75.9 -25.25 -68.2 -30.55 -59.6 -32.1 L-55.9 -32.6 -52.35 -32.8 -48.0 -32.65 -42.25 -32.0 Q-37.9 -31.25 -34.25 -29.4 -30.6 -27.55 -30.6 -23.85 -30.6 -21.1 -32.85 -19.35 -35.1 -17.6 -37.9 -17.4 L-38.15 -17.4 -38.35 -17.4 -40.65 -17.9 Q-41.8 -18.25 -42.7 -19.05 L-43.05 -19.35 -43.45 -19.7 -43.55 -19.75 -43.6 -19.85 -43.85 -20.05 -44.05 -20.25 -42.7 -21.6 -41.65 -23.05 Q-41.15 -23.65 -40.95 -24.3 L-40.8 -25.45 Q-40.8 -26.5 -41.8 -27.15 -42.8 -27.8 -45.25 -27.8 -51.0 -27.8 -56.1 -21.8 -61.2 -15.8 -64.2 -8.5 L-64.6 -7.5 -65.0 -6.35 -65.15 -6.05 -65.25 -5.75 -66.35 -2.6 -67.1 0.8 -67.35 2.6 -67.45 4.35 -67.35 5.8 -67.1 7.25 Q-66.75 8.6 -66.0 9.15 -65.25 9.7 -64.4 9.7 L-63.75 9.65 -63.1 9.5 Q-62.25 9.15 -61.4 8.6 L-59.95 7.35 Q-58.6 5.7 -57.15 2.8 -55.7 -0.05 -54.15 -4.8 L-53.7 -6.1 -52.75 -9.0 -51.85 -11.45 -51.3 -13.0 -27.7 -13.0 -29.95 -6.45 -32.25 0.1 -34.55 6.75 -36.8 13.3 Q-40.55 24.05 -50.25 30.6 -59.95 37.15 -71.05 37.15 L-74.85 36.9 -78.65 36.25 Q-83.6 35.05 -86.05 32.85 -88.5 30.65 -89.05 28.2 L-89.2 27.4 -89.2 26.65 Q-89.15 23.3 -86.7 20.8 -84.25 18.3 -80.9 18.35 -79.4 18.35 -77.95 18.95 -76.5 19.5 -75.0 20.95 L-74.65 21.35 -74.25 21.7 -73.85 22.1 -73.5 22.5 -74.3 22.9 -75.2 23.4 Q-76.65 24.25 -77.95 25.4 -79.2 26.6 -79.1 28.4 L-79.1 28.7 -79.1 28.9 Q-78.9 30.45 -77.8 31.15 -76.65 31.9 -75.2 32.0 -74.05 32.1 -72.75 31.6 -71.4 31.05 -70.1 30.0 L-69.05 29.15 -68.0 28.1 Q-65.35 25.3 -63.75 21.95 -62.1 18.55 -60.95 14.95 L-63.7 15.7 -66.55 16.3 -67.95 16.45 -69.35 16.45 Q-73.85 16.45 -78.0 14.6 -81.7 12.95 -84.2 9.5 L-84.75 10.45 Q-85.95 12.5 -87.75 14.25 -89.45 16.0 -91.8 16.0 L-93.6 15.7 -95.2 15.0 Q-97.65 17.0 -101.0 18.15 -104.3 19.25 -107.8 19.5 L-108.35 19.5 -108.95 19.5 Q-112.2 19.5 -115.25 18.5 -118.3 17.5 -120.6 15.55 -122.4 13.9 -123.25 12.05 -124.05 10.15 -124.05 8.3 -124.05 5.3 -122.3 2.6 -120.5 -0.1 -117.6 -2.05 -115.05 -3.65 -111.9 -4.65 M-1.7 -5.95 L-2.6 -5.85 -3.5 -5.6 Q-5.2 -4.85 -6.95 -3.05 L-10.05 0.8 -11.75 3.7 -12.9 6.05 -13.2 6.95 -13.6 8.4 -14.0 9.75 -14.25 11.15 -14.5 12.3 -14.55 13.45 Q-14.55 14.85 -14.1 15.7 -13.6 16.65 -12.45 16.65 -9.8 16.65 -7.8 14.45 -5.75 12.3 -4.3 9.7 L-2.95 7.1 -1.95 4.8 -0.35 -0.05 Q0.2 -2.15 0.2 -3.6 L-0.1 -5.3 Q-0.4 -5.95 -1.7 -5.95 M-179.6 11.25 Q-180.45 12.55 -182.0 13.35 -183.55 14.1 -185.2 14.1 L-185.4 14.1 -185.65 14.1 -185.85 14.05 -186.05 14.0 -184.45 15.6 Q-183.45 16.25 -182.3 16.25 -178.6 16.25 -176.35 14.25 -174.15 12.3 -174.15 8.4 L-174.1 2.85 -174.1 -2.65 -179.5 4.6 Q-178.95 5.3 -178.7 6.2 L-178.5 7.95 -178.75 9.7 -179.6 11.25" fill="#ffffff" fill-rule="evenodd" stroke="none"/>
  </g>
  <defs>
    <linearGradient gradientTransform="matrix(0.0, 0.0488, -0.0649, 0.0, -75.95, 2.05)" gradientUnits="userSpaceOnUse" id="gradient0" spreadMethod="pad" x1="-819.2" x2="819.2">
      <stop offset="0.0" stop-color="#ef019d"/>
      <stop offset="1.0" stop-color="#5a015f"/>
    </linearGradient>
    <linearGradient gradientTransform="matrix(0.0, 0.0251, -0.147, 0.0, 336.25, 6.6)" gradientUnits="userSpaceOnUse" id="gradient1" spreadMethod="pad" x1="-819.2" x2="819.2">
      <stop offset="0.0" stop-color="#e60199"/>
      <stop offset="1.0" stop-color="#710168"/>
    </linearGradient>
  </defs>
</svg>
