<?xml version="1.0" encoding="UTF-8" standalone="no"?>
<svg xmlns:ffdec="https://www.free-decompiler.com/flash" xmlns:xlink="http://www.w3.org/1999/xlink" ffdec:objectType="shape" height="41.95px" width="162.6px" xmlns="http://www.w3.org/2000/svg">
  <g transform="matrix(1.0, 0.0, 0.0, 1.0, 0.0, 0.0)">
    <path d="M90.5 21.85 Q90.3 19.4 89.35 17.7 88.2 15.6 86.55 15.6 85.0 15.6 84.1 17.15 83.35 18.35 83.25 20.3 L83.2 19.2 Q83.2 16.65 84.1 15.15 85.0 13.6 86.55 13.6 88.2 13.6 89.35 15.7 90.5 17.75 90.5 20.8 L90.5 21.85 M95.45 21.0 L95.45 21.95 Q95.45 26.75 93.1 29.65 90.7 32.55 86.75 32.55 82.85 32.55 80.35 29.65 77.8 26.7 77.8 22.15 L77.85 21.2 Q78.1 25.05 80.35 27.65 82.85 30.55 86.75 30.55 90.7 30.55 93.1 27.65 95.2 25.05 95.45 21.0 M112.35 13.7 L112.6 14.8 Q112.6 15.55 111.65 16.65 L110.85 17.55 Q110.2 16.35 108.7 15.6 107.25 14.8 105.8 14.8 104.55 14.8 104.0 15.3 L103.8 15.1 103.55 14.4 Q103.55 12.8 105.8 12.8 107.25 12.8 108.7 13.6 110.2 14.35 110.85 15.55 L111.65 14.65 112.35 13.7 M112.75 25.6 L112.8 26.55 Q112.8 29.4 110.8 31.1 108.8 32.85 105.5 32.85 101.8 32.85 98.45 30.7 L96.95 29.8 96.85 29.75 96.95 29.65 98.0 28.45 98.45 28.7 Q101.8 30.85 105.5 30.85 108.8 30.85 110.8 29.1 112.4 27.7 112.75 25.6 M106.85 25.85 L106.2 25.1 104.5 23.95 101.65 22.1 Q98.05 19.8 98.05 16.7 L98.15 15.7 Q98.65 18.2 101.65 20.1 L104.5 21.95 106.2 23.1 Q107.15 23.9 107.15 24.8 L106.85 25.85 M127.2 12.5 Q127.85 14.3 127.85 18.1 L127.85 18.85 Q127.75 14.05 126.45 12.95 L127.2 12.5 M127.3 34.65 Q127.4 37.7 127.7 38.65 128.1 40.0 129.6 40.0 131.1 40.0 132.25 39.15 L133.25 37.95 133.4 38.85 Q133.4 39.95 132.25 40.85 131.1 41.7 129.6 41.7 128.1 41.7 127.7 40.35 127.3 39.15 127.3 34.65 M132.5 31.2 L132.45 29.65 132.45 29.45 Q134.65 30.85 136.7 30.85 140.4 30.85 142.75 27.4 144.9 24.25 145.1 19.5 L145.1 20.3 Q145.1 25.65 142.75 29.1 140.4 32.55 136.7 32.55 134.65 32.55 132.5 31.2 M132.7 24.15 L132.7 23.0 Q132.7 18.95 133.95 16.15 135.25 13.4 137.1 13.4 139.95 13.4 139.95 19.4 L139.95 20.2 Q139.7 15.1 137.1 15.1 135.25 15.1 133.95 17.85 132.8 20.45 132.7 24.15 M157.0 8.8 L156.85 8.8 Q156.95 6.05 157.8 3.2 L157.9 2.8 158.15 3.5 157.8 4.9 Q157.2 6.9 157.0 8.8 M146.25 12.3 Q146.9 13.0 149.05 13.0 L149.9 12.95 151.15 12.9 151.3 12.9 151.3 13.05 151.2 14.6 151.15 14.6 149.9 14.65 149.05 14.7 Q145.9 14.7 145.9 13.2 L146.15 12.4 146.25 12.3 M150.85 21.8 Q150.95 25.8 152.05 27.75 153.6 30.5 157.05 30.5 159.35 30.5 161.0 28.85 162.15 27.7 162.5 26.15 L162.55 26.05 162.6 26.6 Q162.6 28.95 161.0 30.55 159.35 32.2 157.05 32.2 153.6 32.2 152.05 29.45 150.85 27.35 150.85 22.95 L150.85 22.4 150.85 21.8 M156.05 20.9 L156.0 19.8 156.2 16.95 156.35 13.05 156.35 12.8 156.55 12.8 157.45 12.85 159.45 12.5 Q160.8 12.05 161.5 11.1 L162.25 11.65 162.15 11.7 161.55 12.7 Q160.85 13.75 159.45 14.2 L157.45 14.55 156.55 14.5 156.35 14.5 156.35 14.75 156.2 18.65 156.05 20.9 M116.2 29.0 L116.8 29.8 Q117.65 30.45 119.0 30.45 121.0 30.45 122.35 29.45 L123.55 28.0 123.7 28.95 Q123.7 30.45 122.35 31.45 121.0 32.45 119.0 32.45 117.65 32.45 116.8 31.8 116.0 31.1 116.0 30.0 L116.2 29.0 M23.7 15.25 L23.7 16.15 Q23.7 23.5 20.35 28.0 17.0 32.55 11.5 32.55 6.6 32.55 3.3 28.3 0.0 24.0 0.0 17.7 L0.05 16.6 Q0.25 22.3 3.3 26.3 6.6 30.55 11.5 30.55 17.0 30.55 20.35 26.0 23.45 21.85 23.7 15.25 M5.55 16.35 L5.5 15.3 Q5.5 10.35 7.3 7.25 9.1 4.15 12.05 4.15 14.95 4.15 16.7 7.3 18.5 10.4 18.5 15.45 L18.5 16.45 Q18.3 12.1 16.7 9.3 14.95 6.15 12.05 6.15 9.1 6.15 7.3 9.25 5.7 12.05 5.55 16.35 M27.0 6.65 L27.5 7.3 Q28.15 7.85 29.25 7.85 31.2 7.85 32.85 6.55 33.9 5.7 34.25 4.75 L34.4 5.75 Q34.4 7.3 32.85 8.55 31.2 9.85 29.25 9.85 28.15 9.85 27.5 9.3 26.8 8.7 26.8 7.75 L26.8 7.6 27.0 6.65 M33.6 13.35 L33.65 14.1 33.5 16.15 33.4 19.4 33.25 24.1 33.25 23.15 33.4 17.4 33.5 14.15 33.6 13.35 M33.35 33.2 L33.35 34.4 Q33.35 38.3 32.1 39.9 30.5 41.9 27.0 41.9 24.05 41.9 21.55 39.65 L20.65 38.85 20.45 38.7 20.7 38.6 21.75 37.8 Q24.15 39.9 27.0 39.9 30.5 39.9 32.1 37.9 33.2 36.45 33.35 33.2 M28.4 25.05 L28.2 21.25 Q27.95 16.7 27.1 14.65 L27.45 14.55 27.65 14.45 28.2 19.25 28.4 25.05 M54.95 21.0 L54.95 21.95 Q54.95 26.75 52.6 29.65 50.2 32.55 46.25 32.55 42.35 32.55 39.85 29.65 37.3 26.7 37.3 22.15 L37.35 21.2 Q37.6 25.05 39.85 27.65 42.35 30.55 46.25 30.55 50.2 30.55 52.6 27.65 54.7 25.05 54.95 21.0 M50.0 21.85 Q49.8 19.4 48.85 17.7 47.7 15.6 46.05 15.6 44.5 15.6 43.6 17.15 42.85 18.35 42.75 20.3 L42.7 19.2 Q42.7 16.65 43.6 15.15 44.5 13.6 46.05 13.6 47.7 13.6 48.85 15.7 50.0 17.75 50.0 20.8 L50.0 21.85 M73.05 16.0 L73.15 16.45 73.0 16.45 72.85 16.5 73.05 16.0 M74.35 18.55 L74.65 19.2 74.2 21.05 73.85 22.85 Q73.65 24.6 73.6 26.75 L73.6 26.45 73.6 25.85 Q73.6 23.05 73.85 20.85 L74.2 19.05 74.35 18.55 M73.65 32.5 L73.65 33.1 73.5 36.75 Q73.2 38.8 72.15 40.1 70.7 41.95 67.6 41.95 64.3 41.95 62.3 39.65 L61.35 38.5 61.05 38.3 62.25 37.55 62.3 37.65 Q64.3 39.95 67.6 39.95 70.7 39.95 72.15 38.1 73.2 36.8 73.5 34.75 L73.65 32.5 M68.95 30.3 Q66.85 32.15 64.35 32.15 61.75 32.15 60.0 29.65 58.25 27.1 58.25 23.35 L58.3 22.35 Q58.5 25.45 60.0 27.65 61.75 30.15 64.35 30.15 66.85 30.15 68.95 28.3 L68.95 28.75 68.95 30.15 68.95 30.3 M63.15 22.05 L63.1 21.0 Q63.1 18.0 64.35 15.75 65.55 13.55 67.2 13.55 67.9 13.55 68.35 14.2 68.85 14.85 68.85 15.9 68.85 17.2 69.25 17.45 L69.65 17.6 Q69.25 17.9 69.1 19.25 68.85 18.85 68.85 17.9 68.85 16.85 68.35 16.2 67.9 15.55 67.2 15.55 65.55 15.55 64.35 17.75 63.3 19.65 63.15 22.05" fill="#86111a" fill-rule="evenodd" stroke="none"/>
    <path d="M83.25 20.3 Q83.4 22.75 84.3 24.35 85.45 26.3 87.2 26.3 90.2 26.3 90.5 21.85 L90.5 20.8 Q90.5 17.75 89.35 15.7 88.2 13.6 86.55 13.6 85.0 13.6 84.1 15.15 83.2 16.65 83.2 19.2 L83.25 20.3 M77.85 21.2 L77.8 20.15 Q77.8 17.6 78.85 15.25 79.9 12.9 81.4 12.15 L81.0 11.05 Q81.75 10.2 83.35 9.55 85.0 8.9 86.45 8.9 90.35 8.9 92.9 12.05 95.45 15.15 95.45 19.95 L95.45 21.0 Q95.2 25.05 93.1 27.65 90.7 30.55 86.75 30.55 82.85 30.55 80.35 27.65 78.1 25.05 77.85 21.2" fill="url(#gradient0)" fill-rule="evenodd" stroke="none"/>
    <path d="M98.15 15.7 L98.05 14.7 Q98.05 12.3 100.15 10.7 102.25 9.15 105.5 9.15 108.55 9.15 110.6 10.2 112.6 11.2 112.6 12.8 L112.35 13.7 111.65 14.65 110.85 15.55 Q110.2 14.35 108.7 13.6 107.25 12.8 105.8 12.8 103.55 12.8 103.55 14.4 L103.8 15.1 104.0 15.3 108.3 18.3 Q110.55 19.7 111.55 20.95 112.8 22.5 112.8 24.55 L112.75 25.6 Q112.4 27.7 110.8 29.1 108.8 30.85 105.5 30.85 101.8 30.85 98.45 28.7 L98.0 28.45 96.95 27.8 96.85 27.75 96.95 27.65 98.2 26.2 Q99.1 25.2 100.15 25.2 L101.05 25.4 102.35 26.05 Q103.65 26.65 105.05 26.65 105.95 26.65 106.55 26.15 L106.85 25.85 107.15 24.8 Q107.15 23.9 106.2 23.1 L104.5 21.95 101.65 20.1 Q98.65 18.2 98.15 15.7" fill="url(#gradient1)" fill-rule="evenodd" stroke="none"/>
    <path d="M127.85 18.85 L127.85 18.1 Q127.85 14.3 127.2 12.5 126.9 11.65 126.45 11.25 L128.5 9.95 Q130.4 8.65 131.35 8.65 L132.2 8.9 Q132.75 9.25 132.75 10.8 L132.8 12.4 Q133.7 10.7 135.25 9.7 136.8 8.65 138.45 8.65 141.45 8.65 143.3 11.4 145.1 14.15 145.1 18.6 L145.1 19.5 Q144.9 24.25 142.75 27.4 140.4 30.85 136.7 30.85 134.65 30.85 132.45 29.45 L132.45 29.65 132.5 31.2 132.5 31.25 132.65 33.2 133.15 35.9 133.4 37.15 133.25 37.95 132.25 39.15 Q131.1 40.0 129.6 40.0 128.1 40.0 127.7 38.65 127.4 37.7 127.3 34.65 L127.3 33.4 127.3 32.95 127.55 24.9 127.85 18.85 M139.95 20.2 L139.95 19.4 Q139.95 13.4 137.1 13.4 135.25 13.4 133.95 16.15 132.7 18.95 132.7 23.0 L132.7 24.15 132.7 24.5 Q134.3 26.55 136.05 26.55 137.75 26.55 138.85 24.55 139.8 22.8 139.95 20.2" fill="url(#gradient2)" fill-rule="evenodd" stroke="none"/>
    <path d="M157.9 2.8 L157.8 3.2 Q156.95 6.05 156.85 8.8 L157.0 8.8 159.3 8.9 Q161.3 8.9 162.25 9.95 L162.15 10.0 161.55 11.0 161.5 11.1 Q160.8 12.05 159.45 12.5 L157.45 12.85 156.55 12.8 156.35 12.8 156.35 13.05 156.2 16.95 156.0 19.8 156.05 20.9 Q156.15 23.8 157.05 24.9 157.95 26.0 159.35 26.0 161.25 26.0 162.55 24.35 L162.6 24.9 162.5 26.15 Q162.15 27.7 161.0 28.85 159.35 30.5 157.05 30.5 153.6 30.5 152.05 27.75 150.95 25.8 150.85 21.8 L150.85 21.25 150.85 20.7 Q150.85 18.4 151.2 14.6 L151.3 13.05 151.3 12.9 151.15 12.9 149.9 12.95 149.05 13.0 Q146.9 13.0 146.25 12.3 145.9 12.0 145.9 11.5 L146.15 10.7 147.95 8.4 148.05 8.3 148.6 8.7 150.35 8.95 150.85 8.9 151.65 8.9 151.75 8.9 151.85 6.3 152.0 4.55 152.1 3.65 Q152.2 2.75 152.75 2.35 153.45 1.85 154.4 1.6 L157.4 0.95 Q158.15 0.95 158.15 1.8 L157.9 2.8" fill="url(#gradient3)" fill-rule="evenodd" stroke="none"/>
    <path d="M123.55 28.0 L122.35 29.45 Q121.0 30.45 119.0 30.45 117.65 30.45 116.8 29.8 L116.2 29.0 116.0 28.0 Q116.0 26.65 117.4 25.6 118.85 24.55 120.7 24.55 122.05 24.55 122.9 25.2 123.7 25.85 123.7 26.95 L123.55 28.0" fill="url(#gradient4)" fill-rule="evenodd" stroke="none"/>
    <path d="M0.05 16.6 L0.0 15.7 Q0.0 11.3 1.1 8.25 2.2 5.1 4.1 4.15 3.8 3.8 3.8 3.45 3.8 3.1 4.15 2.6 4.95 1.6 7.3 0.8 9.65 0.0 11.85 0.0 17.05 0.0 20.35 3.95 23.7 7.9 23.7 14.15 L23.7 15.25 Q23.45 21.85 20.35 26.0 17.0 30.55 11.5 30.55 6.6 30.55 3.3 26.3 0.25 22.3 0.05 16.6 M18.5 16.45 L18.5 15.45 Q18.5 10.4 16.7 7.3 14.95 4.15 12.05 4.15 9.1 4.15 7.3 7.25 5.5 10.35 5.5 15.3 L5.55 16.35 Q5.65 20.25 6.95 22.9 8.8 26.75 12.05 26.75 14.95 26.75 16.7 23.65 18.3 20.8 18.5 16.45" fill="url(#gradient5)" fill-rule="evenodd" stroke="none"/>
    <path d="M34.25 4.75 Q33.9 5.7 32.85 6.55 31.2 7.85 29.25 7.85 28.15 7.85 27.5 7.3 L27.0 6.65 26.8 5.75 26.8 5.6 Q26.8 3.85 29.05 2.3 30.45 1.4 31.8 1.4 34.4 1.4 34.4 3.75 L34.25 4.75" fill="url(#gradient6)" fill-rule="evenodd" stroke="none"/>
    <path d="M27.65 14.45 L27.1 12.65 27.45 12.55 29.65 11.25 Q31.35 10.3 32.3 10.3 33.65 10.3 33.65 12.1 L33.6 13.35 33.5 14.15 33.4 17.4 33.25 23.15 33.25 24.1 33.35 32.4 33.35 33.2 Q33.2 36.45 32.1 37.9 30.5 39.9 27.0 39.9 24.15 39.9 21.75 37.8 L21.55 37.65 20.65 36.85 20.45 36.7 20.7 36.6 22.0 35.6 Q23.0 34.85 23.6 34.85 L24.6 35.1 25.2 35.45 26.5 35.75 Q27.45 35.75 27.9 34.85 28.35 34.0 28.45 30.45 L28.4 25.05 28.2 19.25 27.65 14.45" fill="url(#gradient7)" fill-rule="evenodd" stroke="none"/>
    <path d="M37.35 21.2 L37.3 20.15 Q37.3 17.6 38.35 15.25 39.4 12.9 40.9 12.15 L40.5 11.05 Q41.25 10.2 42.85 9.55 44.5 8.9 45.95 8.9 49.85 8.9 52.4 12.05 54.95 15.15 54.95 19.95 L54.95 21.0 Q54.7 25.05 52.6 27.65 50.2 30.55 46.25 30.55 42.35 30.55 39.85 27.65 37.6 25.05 37.35 21.2 M50.0 21.85 L50.0 20.8 Q50.0 17.75 48.85 15.7 47.7 13.6 46.05 13.6 44.5 13.6 43.6 15.15 42.7 16.65 42.7 19.2 L42.75 20.3 Q42.9 22.75 43.8 24.35 44.95 26.3 46.7 26.3 49.7 26.3 50.0 21.85" fill="url(#gradient8)" fill-rule="evenodd" stroke="none"/>
    <path d="M58.3 22.35 L58.25 21.35 Q58.25 16.35 61.05 12.65 63.8 8.9 67.45 8.9 69.35 8.9 70.55 9.9 71.55 10.7 72.4 12.35 73.2 13.95 73.2 15.15 L73.05 16.0 72.85 16.5 73.0 16.45 73.15 16.45 73.8 16.4 Q74.65 16.4 74.65 17.2 L74.35 18.55 74.2 19.05 73.85 20.85 Q73.6 23.05 73.6 25.85 L73.6 26.45 73.6 26.75 73.6 27.85 73.6 28.4 73.6 28.45 73.65 29.85 73.65 31.1 73.65 31.7 73.65 32.5 73.5 34.75 Q73.2 36.8 72.15 38.1 70.7 39.95 67.6 39.95 64.3 39.95 62.3 37.65 L62.25 37.55 61.35 36.5 61.05 36.3 Q61.85 35.75 62.7 35.3 63.6 34.8 64.25 34.8 L65.9 35.2 66.95 35.4 Q68.85 35.4 68.95 31.75 L68.95 31.35 68.95 30.75 68.95 30.3 68.95 30.15 68.95 28.75 68.95 28.3 Q66.85 30.15 64.35 30.15 61.75 30.15 60.0 27.65 58.5 25.45 58.3 22.35 M69.1 19.25 Q69.25 17.9 69.65 17.6 L69.25 17.45 Q68.85 17.2 68.85 15.9 68.85 14.85 68.35 14.2 67.9 13.55 67.2 13.55 65.55 13.55 64.35 15.75 63.1 18.0 63.1 21.0 L63.15 22.05 Q63.4 25.7 65.7 25.7 68.35 25.7 68.95 20.2 L69.1 19.25" fill="url(#gradient9)" fill-rule="evenodd" stroke="none"/>
  </g>
  <defs>
    <linearGradient gradientTransform="matrix(0.0, 0.0108, -0.0132, 0.0, 86.65, 19.75)" gradientUnits="userSpaceOnUse" id="gradient0" spreadMethod="pad" x1="-819.2" x2="819.2">
      <stop offset="0.34901960784313724" stop-color="#ffffff"/>
      <stop offset="0.5725490196078431" stop-color="#d8e4e4"/>
    </linearGradient>
    <linearGradient gradientTransform="matrix(0.0, 0.0097, -0.0132, 0.0, 104.8, 20.0)" gradientUnits="userSpaceOnUse" id="gradient1" spreadMethod="pad" x1="-819.2" x2="819.2">
      <stop offset="0.34901960784313724" stop-color="#ffffff"/>
      <stop offset="0.5725490196078431" stop-color="#d8e4e4"/>
    </linearGradient>
    <linearGradient gradientTransform="matrix(0.0, 0.0114, -0.0191, 0.0, 135.75, 24.3)" gradientUnits="userSpaceOnUse" id="gradient2" spreadMethod="pad" x1="-819.2" x2="819.2">
      <stop offset="0.34901960784313724" stop-color="#ffffff"/>
      <stop offset="0.5725490196078431" stop-color="#d8e4e4"/>
    </linearGradient>
    <linearGradient gradientTransform="matrix(0.0, 0.0102, -0.018, 0.0, 154.2, 21.6)" gradientUnits="userSpaceOnUse" id="gradient3" spreadMethod="pad" x1="-819.2" x2="819.2">
      <stop offset="0.34901960784313724" stop-color="#ffffff"/>
      <stop offset="0.5725490196078431" stop-color="#d8e4e4"/>
    </linearGradient>
    <linearGradient gradientTransform="matrix(0.0, 0.0047, -0.0036, 0.0, 119.85, 27.5)" gradientUnits="userSpaceOnUse" id="gradient4" spreadMethod="pad" x1="-819.2" x2="819.2">
      <stop offset="0.34901960784313724" stop-color="#ffffff"/>
      <stop offset="0.5725490196078431" stop-color="#d8e4e4"/>
    </linearGradient>
    <linearGradient gradientTransform="matrix(0.0, 0.0145, -0.0186, 0.0, 11.9, 15.3)" gradientUnits="userSpaceOnUse" id="gradient5" spreadMethod="pad" x1="-819.2" x2="819.2">
      <stop offset="0.34901960784313724" stop-color="#ffffff"/>
      <stop offset="0.5725490196078431" stop-color="#d8e4e4"/>
    </linearGradient>
    <linearGradient gradientTransform="matrix(0.0, 0.0046, -0.0039, 0.0, 30.6, 4.6)" gradientUnits="userSpaceOnUse" id="gradient6" spreadMethod="pad" x1="-819.2" x2="819.2">
      <stop offset="0.34901960784313724" stop-color="#ffffff"/>
      <stop offset="0.5725490196078431" stop-color="#d8e4e4"/>
    </linearGradient>
    <linearGradient gradientTransform="matrix(0.0, 0.0135, -0.0181, 0.0, 27.05, 25.1)" gradientUnits="userSpaceOnUse" id="gradient7" spreadMethod="pad" x1="-819.2" x2="819.2">
      <stop offset="0.34901960784313724" stop-color="#ffffff"/>
      <stop offset="0.5725490196078431" stop-color="#d8e4e4"/>
    </linearGradient>
    <linearGradient gradientTransform="matrix(0.0, 0.0108, -0.0132, 0.0, 46.15, 19.75)" gradientUnits="userSpaceOnUse" id="gradient8" spreadMethod="pad" x1="-819.2" x2="819.2">
      <stop offset="0.34901960784313724" stop-color="#ffffff"/>
      <stop offset="0.5725490196078431" stop-color="#d8e4e4"/>
    </linearGradient>
    <linearGradient gradientTransform="matrix(0.0, 0.01, -0.019, 0.0, 66.5, 24.45)" gradientUnits="userSpaceOnUse" id="gradient9" spreadMethod="pad" x1="-819.2" x2="819.2">
      <stop offset="0.34901960784313724" stop-color="#ffffff"/>
      <stop offset="0.5725490196078431" stop-color="#d8e4e4"/>
    </linearGradient>
  </defs>
</svg>
