<?xml version="1.0" encoding="UTF-8" standalone="no"?>
<svg xmlns:ffdec="https://www.free-decompiler.com/flash" xmlns:xlink="http://www.w3.org/1999/xlink" ffdec:objectType="shape" height="23.55px" width="164.2px" xmlns="http://www.w3.org/2000/svg">
  <g transform="matrix(1.0, 0.0, 0.0, 1.0, 66.15, 13.2)">
    <path d="M4.75 -1.35 Q4.75 2.4 7.45 5.0 10.15 7.55 13.95 7.55 17.5 7.55 19.95 5.35 L17.55 0.4 Q15.8 2.1 14.1 2.1 L12.65 1.85 11.45 1.05 10.7 -0.1 Q10.4 -0.8 10.4 -1.6 10.4 -3.05 11.55 -4.0 12.7 -5.0 14.1 -5.0 14.9 -5.0 15.95 -4.5 L17.6 -3.4 20.15 -9.05 15.8 -10.7 15.45 -10.15 14.3 -10.25 13.3 -10.3 Q9.45 -10.3 6.95 -7.1 4.75 -4.35 4.75 -1.35 M27.65 -3.85 Q28.75 -4.8 30.2 -4.8 31.7 -4.8 32.65 -3.8 33.6 -2.75 33.6 -1.3 L33.35 0.05 32.65 1.1 31.55 1.85 30.2 2.1 28.75 1.85 Q28.1 1.6 27.6 1.15 L26.85 0.0 Q26.6 -0.6 26.6 -1.4 26.6 -2.9 27.65 -3.85 M20.8 -1.65 Q20.8 2.5 23.45 5.05 26.15 7.6 30.3 7.6 34.4 7.6 37.1 4.7 39.45 2.15 39.45 -1.0 39.45 -4.85 36.8 -7.55 34.15 -10.3 30.25 -10.3 26.05 -10.3 23.3 -7.4 20.8 -4.85 20.8 -1.65 M46.2 -9.95 L40.75 -9.95 39.55 -4.65 40.75 -4.65 40.75 7.35 46.15 7.35 46.15 -2.0 49.4 1.45 52.5 -2.3 52.5 7.35 57.55 7.35 57.55 -9.95 52.2 -9.95 49.35 -6.3 46.2 -9.95 M66.6 -4.8 L66.6 7.35 72.0 7.35 72.0 3.6 73.65 3.6 Q76.25 3.6 78.05 1.5 79.65 -0.5 79.65 -3.1 L79.5 -4.85 Q79.1 -6.75 77.85 -8.05 76.05 -9.95 73.0 -9.95 L66.6 -9.95 65.4 -4.8 66.6 -4.8 M80.9 -4.85 L80.9 7.35 86.3 7.35 86.3 1.35 90.15 1.35 90.15 7.35 95.55 7.35 95.55 -9.95 90.15 -9.95 90.15 -4.2 86.3 -4.2 86.3 -9.95 80.9 -9.95 79.7 -4.85 80.9 -4.85 M62.05 2.05 L60.9 2.25 60.0 2.9 59.4 3.8 59.15 4.95 59.4 6.1 60.0 7.0 60.9 7.6 62.05 7.85 Q63.2 7.85 64.1 7.0 64.95 6.15 64.95 4.95 64.95 3.75 64.1 2.9 63.25 2.05 62.05 2.05 M1.0 2.05 L-0.15 2.25 Q-0.65 2.5 -1.05 2.9 L-1.65 3.8 -1.9 4.95 -1.65 6.1 -1.05 7.0 -0.15 7.6 1.0 7.85 Q2.15 7.85 3.05 7.0 3.9 6.15 3.9 4.95 3.9 3.75 3.05 2.9 2.2 2.05 1.0 2.05 M-50.4 -9.95 L-52.1 -5.3 -50.85 -5.3 -54.25 7.35 -48.7 7.35 -48.0 4.95 -43.1 4.95 -42.6 7.35 -36.9 7.35 -41.8 -9.95 -50.4 -9.95 M-62.45 -4.75 L-62.45 7.35 -54.65 7.35 -53.4 1.95 -57.05 1.95 -57.05 -9.95 -62.45 -9.95 -63.65 -4.75 -62.45 -4.75 M-30.95 -4.9 L-29.65 -4.9 Q-27.8 -4.9 -27.8 -3.45 -27.8 -2.05 -29.65 -2.05 L-30.95 -2.05 -30.95 -4.9 M-36.35 -4.85 L-36.35 7.35 -30.95 7.35 -30.95 2.25 -28.6 7.35 -22.15 7.35 -25.15 1.75 Q-22.3 -0.1 -22.3 -3.7 -22.3 -6.45 -24.1 -8.2 -25.85 -9.95 -28.6 -9.95 L-36.35 -9.95 -37.55 -4.85 -36.35 -4.85 M-14.65 -3.85 Q-13.55 -4.8 -12.1 -4.8 -10.6 -4.8 -9.65 -3.8 -8.7 -2.75 -8.7 -1.3 -8.7 -0.6 -8.95 0.05 L-9.65 1.1 -10.75 1.85 -12.1 2.1 -13.55 1.85 Q-14.2 1.6 -14.7 1.15 L-15.45 0.0 -15.7 -1.4 Q-15.7 -2.9 -14.65 -3.85 M-12.05 -10.3 Q-16.25 -10.3 -19.0 -7.4 -21.5 -4.85 -21.5 -1.65 -21.5 2.5 -18.85 5.05 -16.15 7.6 -12.0 7.6 -7.9 7.6 -5.2 4.7 -2.85 2.15 -2.85 -1.0 -2.85 -4.85 -5.5 -7.55 -8.15 -10.3 -12.05 -10.3 M-46.9 0.4 L-45.55 -4.75 -44.2 0.4 -46.9 0.4" fill="none" stroke="#000000" stroke-linecap="round" stroke-linejoin="round" stroke-width="5.0"/>
    <path d="M74.3 -3.2 L74.0 -2.05 Q73.65 -1.5 73.05 -1.5 L72.0 -1.5 72.0 -4.65 73.2 -4.65 Q73.75 -4.65 74.0 -4.2 L74.3 -3.2 Z" fill="none" stroke="#000000" stroke-linecap="round" stroke-linejoin="round" stroke-width="3.0"/>
    <path d="M4.75 -1.35 Q4.75 2.4 7.45 5.0 10.15 7.55 13.95 7.55 17.5 7.55 19.95 5.35 L17.55 0.4 Q15.8 2.1 14.1 2.1 L12.65 1.85 11.45 1.05 10.7 -0.1 Q10.4 -0.8 10.4 -1.6 10.4 -3.05 11.55 -4.0 12.7 -5.0 14.1 -5.0 14.9 -5.0 15.95 -4.5 L17.6 -3.4 20.15 -9.05 15.8 -10.7 15.45 -10.15 14.3 -10.25 13.3 -10.3 Q9.45 -10.3 6.95 -7.1 4.75 -4.35 4.75 -1.35 M27.65 -3.85 Q28.75 -4.8 30.2 -4.8 31.7 -4.8 32.65 -3.8 33.6 -2.75 33.6 -1.3 L33.35 0.05 32.65 1.1 31.55 1.85 30.2 2.1 28.75 1.85 Q28.1 1.6 27.6 1.15 L26.85 0.0 Q26.6 -0.6 26.6 -1.4 26.6 -2.9 27.65 -3.85 M20.8 -1.65 Q20.8 2.5 23.45 5.05 26.15 7.6 30.3 7.6 34.4 7.6 37.1 4.7 39.45 2.15 39.45 -1.0 39.45 -4.85 36.8 -7.55 34.15 -10.3 30.25 -10.3 26.05 -10.3 23.3 -7.4 20.8 -4.85 20.8 -1.65 M46.2 -9.95 L40.75 -9.95 39.55 -4.65 40.75 -4.65 40.75 7.35 46.15 7.35 46.15 -2.0 49.4 1.45 52.5 -2.3 52.5 7.35 57.55 7.35 57.55 -9.95 52.2 -9.95 49.35 -6.3 46.2 -9.95 M65.4 -4.8 L66.6 -4.8 66.6 7.35 72.0 7.35 72.0 3.6 73.65 3.6 Q76.25 3.6 78.05 1.5 79.65 -0.5 79.65 -3.1 L79.5 -4.85 Q79.1 -6.75 77.85 -8.05 76.05 -9.95 73.0 -9.95 L66.6 -9.95 65.4 -4.8 M74.3 -3.2 L74.0 -2.05 Q73.65 -1.5 73.05 -1.5 L72.0 -1.5 72.0 -4.65 73.2 -4.65 Q73.75 -4.65 74.0 -4.2 L74.3 -3.2 M80.9 -4.85 L80.9 7.35 86.3 7.35 86.3 1.35 90.15 1.35 90.15 7.35 95.55 7.35 95.55 -9.95 90.15 -9.95 90.15 -4.2 86.3 -4.2 86.3 -9.95 80.9 -9.95 79.7 -4.85 80.9 -4.85 M62.05 2.05 L60.9 2.25 60.0 2.9 59.4 3.8 59.15 4.95 59.4 6.1 60.0 7.0 60.9 7.6 62.05 7.85 Q63.2 7.85 64.1 7.0 64.95 6.15 64.95 4.95 64.95 3.75 64.1 2.9 63.25 2.05 62.05 2.05 M1.0 2.05 L-0.15 2.25 Q-0.65 2.5 -1.05 2.9 L-1.65 3.8 -1.9 4.95 -1.65 6.1 -1.05 7.0 -0.15 7.6 1.0 7.85 Q2.15 7.85 3.05 7.0 3.9 6.15 3.9 4.95 3.9 3.75 3.05 2.9 2.2 2.05 1.0 2.05 M-50.4 -9.95 L-52.1 -5.3 -50.85 -5.3 -54.25 7.35 -48.7 7.35 -48.0 4.95 -43.1 4.95 -42.6 7.35 -36.9 7.35 -41.8 -9.95 -50.4 -9.95 M-62.45 -4.75 L-62.45 7.35 -54.65 7.35 -53.4 1.95 -57.05 1.95 -57.05 -9.95 -62.45 -9.95 -63.65 -4.75 -62.45 -4.75 M-30.95 -4.9 L-29.65 -4.9 Q-27.8 -4.9 -27.8 -3.45 -27.8 -2.05 -29.65 -2.05 L-30.95 -2.05 -30.95 -4.9 M-36.35 -4.85 L-36.35 7.35 -30.95 7.35 -30.95 2.25 -28.6 7.35 -22.15 7.35 -25.15 1.75 Q-22.3 -0.1 -22.3 -3.7 -22.3 -6.45 -24.1 -8.2 -25.85 -9.95 -28.6 -9.95 L-36.35 -9.95 -37.55 -4.85 -36.35 -4.85 M-14.65 -3.85 Q-13.55 -4.8 -12.1 -4.8 -10.6 -4.8 -9.65 -3.8 -8.7 -2.75 -8.7 -1.3 -8.7 -0.6 -8.95 0.05 L-9.65 1.1 -10.75 1.85 -12.1 2.1 -13.55 1.85 Q-14.2 1.6 -14.7 1.15 L-15.45 0.0 -15.7 -1.4 Q-15.7 -2.9 -14.65 -3.85 M-12.05 -10.3 Q-16.25 -10.3 -19.0 -7.4 -21.5 -4.85 -21.5 -1.65 -21.5 2.5 -18.85 5.05 -16.15 7.6 -12.0 7.6 -7.9 7.6 -5.2 4.7 -2.85 2.15 -2.85 -1.0 -2.85 -4.85 -5.5 -7.55 -8.15 -10.3 -12.05 -10.3 M-46.9 0.4 L-45.55 -4.75 -44.2 0.4 -46.9 0.4 Z" fill="none" stroke="#ffffff" stroke-linecap="round" stroke-linejoin="round" stroke-width="3.0"/>
    <path d="M-46.9 0.4 L-44.2 0.4 -45.55 -4.75 -46.9 0.4 M-12.05 -10.3 Q-8.15 -10.3 -5.5 -7.55 -2.85 -4.85 -2.85 -1.0 -2.85 2.15 -5.2 4.7 -7.9 7.6 -12.0 7.6 -16.15 7.6 -18.85 5.05 -21.5 2.5 -21.5 -1.65 -21.5 -4.85 -19.0 -7.4 -16.25 -10.3 -12.05 -10.3 M-14.65 -3.85 Q-15.7 -2.9 -15.7 -1.4 L-15.45 0.0 -14.7 1.15 Q-14.2 1.6 -13.55 1.85 L-12.1 2.1 -10.75 1.85 -9.65 1.1 -8.95 0.05 Q-8.7 -0.6 -8.7 -1.3 -8.7 -2.75 -9.65 -3.8 -10.6 -4.8 -12.1 -4.8 -13.55 -4.8 -14.65 -3.85 M-36.35 -4.85 L-37.55 -4.85 -36.35 -9.95 -28.6 -9.95 Q-25.85 -9.95 -24.1 -8.2 -22.3 -6.45 -22.3 -3.7 -22.3 -0.1 -25.15 1.75 L-22.15 7.35 -28.6 7.35 -30.95 2.25 -30.95 7.35 -36.35 7.35 -36.35 -4.85 M-30.95 -4.9 L-30.95 -2.05 -29.65 -2.05 Q-27.8 -2.05 -27.8 -3.45 -27.8 -4.9 -29.65 -4.9 L-30.95 -4.9 M-62.45 -4.75 L-63.65 -4.75 -62.45 -9.95 -57.05 -9.95 -57.05 1.95 -53.4 1.95 -54.65 7.35 -62.45 7.35 -62.45 -4.75 M-50.4 -9.95 L-41.8 -9.95 -36.9 7.35 -42.6 7.35 -43.1 4.95 -48.0 4.95 -48.7 7.35 -54.25 7.35 -50.85 -5.3 -52.1 -5.3 -50.4 -9.95 M1.0 2.05 Q2.2 2.05 3.05 2.9 3.9 3.75 3.9 4.95 3.9 6.15 3.05 7.0 2.15 7.85 1.0 7.85 L-0.15 7.6 -1.05 7.0 -1.65 6.1 -1.9 4.95 -1.65 3.8 -1.05 2.9 Q-0.65 2.5 -0.15 2.25 L1.0 2.05 M62.05 2.05 Q63.25 2.05 64.1 2.9 64.95 3.75 64.95 4.95 64.95 6.15 64.1 7.0 63.2 7.85 62.05 7.85 L60.9 7.6 60.0 7.0 59.4 6.1 59.15 4.95 59.4 3.8 60.0 2.9 60.9 2.25 62.05 2.05 M80.9 -4.85 L79.7 -4.85 80.9 -9.95 86.3 -9.95 86.3 -4.2 90.15 -4.2 90.15 -9.95 95.55 -9.95 95.55 7.35 90.15 7.35 90.15 1.35 86.3 1.35 86.3 7.35 80.9 7.35 80.9 -4.85 M74.3 -3.2 L74.0 -4.2 Q73.75 -4.65 73.2 -4.65 L72.0 -4.65 72.0 -1.5 73.05 -1.5 Q73.65 -1.5 74.0 -2.05 L74.3 -3.2 M65.4 -4.8 L66.6 -9.95 73.0 -9.95 Q76.05 -9.95 77.85 -8.05 79.1 -6.75 79.5 -4.85 L79.5 -4.8 79.65 -3.1 Q79.65 -0.5 78.05 1.5 76.25 3.6 73.65 3.6 L72.0 3.6 72.0 7.35 66.6 7.35 66.6 -4.8 65.4 -4.8 M46.2 -9.95 L49.35 -6.3 52.2 -9.95 57.55 -9.95 57.55 7.35 52.5 7.35 52.5 -2.3 49.4 1.45 46.15 -2.0 46.15 7.35 40.75 7.35 40.75 -4.65 39.55 -4.65 40.75 -9.95 46.2 -9.95 M20.8 -1.65 Q20.8 -4.85 23.3 -7.4 26.05 -10.3 30.25 -10.3 34.15 -10.3 36.8 -7.55 39.45 -4.85 39.45 -1.0 39.45 2.15 37.1 4.7 34.4 7.6 30.3 7.6 26.15 7.6 23.45 5.05 20.8 2.5 20.8 -1.65 M27.65 -3.85 Q26.6 -2.9 26.6 -1.4 26.6 -0.6 26.85 0.0 L27.6 1.15 Q28.1 1.6 28.75 1.85 L30.2 2.1 31.55 1.85 32.65 1.1 33.35 0.05 33.6 -1.3 Q33.6 -2.75 32.65 -3.8 31.7 -4.8 30.2 -4.8 28.75 -4.8 27.65 -3.85 M4.75 -1.35 Q4.75 -4.35 6.95 -7.1 9.45 -10.3 13.3 -10.3 L14.3 -10.25 15.45 -10.15 15.8 -10.7 20.15 -9.05 17.6 -3.4 15.95 -4.5 Q14.9 -5.0 14.1 -5.0 12.7 -5.0 11.55 -4.0 10.4 -3.05 10.4 -1.6 10.4 -0.8 10.7 -0.1 L11.45 1.05 12.65 1.85 14.1 2.1 Q15.8 2.1 17.55 0.4 L19.95 5.35 Q17.5 7.55 13.95 7.55 10.15 7.55 7.45 5.0 4.75 2.4 4.75 -1.35" fill="url(#gradient0)" fill-rule="evenodd" stroke="none"/>
  </g>
  <defs>
    <linearGradient gradientTransform="matrix(0.0, 0.0113, -0.0972, 0.0, 15.95, -1.45)" gradientUnits="userSpaceOnUse" id="gradient0" spreadMethod="pad" x1="-819.2" x2="819.2">
      <stop offset="0.0" stop-color="#ffc234"/>
      <stop offset="0.7215686274509804" stop-color="#ff3930"/>
    </linearGradient>
  </defs>
</svg>
