<?xml version="1.0" encoding="UTF-8" standalone="no"?>
<svg xmlns:ffdec="https://www.free-decompiler.com/flash" xmlns:xlink="http://www.w3.org/1999/xlink" ffdec:objectType="shape" height="95.7px" width="499.6px" xmlns="http://www.w3.org/2000/svg">
  <g transform="matrix(1.0, 0.0, 0.0, 1.0, 249.25, 47.4)">
    <path d="M241.4 -38.0 Q236.45 -43.4 226.55 -43.4 L196.1 -43.4 196.1 24.35 214.5 24.35 214.5 -0.75 224.5 -0.75 Q235.6 -0.8 240.95 -6.55 246.35 -12.35 246.35 -22.6 246.35 -32.6 241.4 -38.0 M226.4 -16.6 Q224.25 -14.5 218.95 -14.5 L214.5 -14.5 214.5 -29.6 219.7 -29.6 Q224.85 -29.65 226.7 -27.4 228.55 -25.2 228.55 -22.0 228.55 -18.7 226.4 -16.6 M165.55 1.35 Q165.25 5.25 164.2 7.15 162.8 9.75 159.7 9.75 157.75 9.75 156.7 8.9 155.2 7.55 154.55 5.35 153.9 3.2 153.85 -1.3 L136.35 1.45 Q136.85 9.3 139.5 14.65 142.2 20.0 147.15 22.75 152.05 25.55 161.05 25.55 169.5 25.5 174.95 21.3 180.4 17.15 182.2 11.05 L183.3 5.5 183.5 4.0 183.55 3.2 183.7 1.6 183.75 0.9 183.85 -0.75 183.9 -1.35 183.95 -3.55 183.95 -4.1 184.0 -6.6 184.0 -43.4 165.65 -43.4 165.65 -1.65 165.55 1.35 M81.55 -25.85 Q74.25 -25.85 69.95 -24.1 65.6 -22.35 63.15 -18.85 L62.4 -17.6 62.2 -17.3 61.6 -15.95 61.15 -14.45 61.1 -14.3 Q60.7 -12.5 60.7 -10.5 60.65 -6.05 62.95 -2.6 65.25 0.85 68.6 2.3 71.9 3.75 80.45 5.5 86.2 6.65 87.55 7.4 89.4 8.55 89.4 10.55 89.4 12.35 88.0 13.55 86.15 15.2 82.85 15.15 79.85 15.2 78.0 13.75 76.2 12.3 75.2 9.0 L58.85 10.75 Q60.3 17.8 65.25 21.65 70.25 25.5 82.0 25.5 90.35 25.5 95.15 23.1 100.0 20.75 102.25 16.7 104.45 12.7 104.45 8.45 104.5 4.25 102.35 0.75 100.25 -2.8 96.25 -4.65 92.25 -6.55 84.05 -7.65 78.6 -8.35 77.0 -9.3 75.4 -10.2 75.4 -12.0 75.4 -13.65 76.65 -14.75 77.95 -15.9 80.7 -15.9 83.45 -15.9 85.4 -14.4 86.8 -13.3 87.4 -10.95 L103.0 -12.7 Q101.4 -17.5 98.95 -20.35 96.5 -23.15 92.85 -24.5 89.2 -25.85 81.55 -25.85 M107.85 23.75 Q110.8 30.0 121.05 34.0 L121.1 34.0 Q131.35 30.0 134.3 23.75 137.25 17.5 132.35 14.25 128.2 12.25 125.2 14.2 122.15 16.2 121.1 17.9 120.0 16.2 117.0 14.2 114.0 12.25 109.8 14.25 104.9 17.5 107.85 23.75 M37.5 -4.5 L21.3 -4.5 Q21.7 -8.9 23.2 -11.15 24.85 -13.65 27.35 -14.4 L32.2 -14.2 Q33.75 -13.65 34.9 -12.35 37.0 -9.95 37.5 -4.5 M43.3 -22.65 Q37.95 -25.85 28.75 -25.85 17.4 -25.85 10.95 -18.7 L9.45 -16.85 Q4.5 -10.15 4.5 -0.1 4.5 8.0 7.75 14.0 10.95 20.0 15.85 22.75 20.7 25.5 29.25 25.5 39.05 25.5 44.3 22.25 49.55 19.05 53.3 11.65 L37.1 9.95 Q35.55 12.15 34.2 13.05 32.05 14.45 29.6 14.45 25.75 14.45 23.4 11.25 21.7 9.0 21.25 4.5 L54.2 4.5 54.2 2.35 Q54.2 -7.25 51.5 -13.25 L51.45 -13.4 Q48.65 -19.45 43.3 -22.65 M-5.4 -18.4 L-6.15 -19.75 -6.2 -19.85 -7.1 -21.15 Q-9.05 -23.5 -11.75 -24.65 -14.45 -25.85 -17.9 -25.85 L-20.15 -25.7 Q-23.35 -25.4 -25.75 -24.1 L-26.55 -23.6 Q-29.45 -21.75 -32.8 -17.55 -33.75 -19.6 -35.0 -21.15 -36.2 -22.7 -37.7 -23.75 -40.7 -25.85 -45.85 -25.85 L-50.25 -25.35 Q-52.3 -24.9 -54.0 -23.95 -56.1 -22.75 -58.2 -20.55 L-60.7 -17.55 -60.7 -24.7 -76.05 -24.7 -76.05 24.35 -59.55 24.35 -59.55 -0.7 Q-59.55 -6.25 -57.75 -8.75 -55.9 -11.15 -53.05 -11.2 -51.35 -11.15 -50.05 -10.05 -48.75 -8.9 -48.2 -7.05 -47.9 -5.9 -47.9 -2.65 L-47.9 24.35 -31.4 24.35 -31.4 -0.95 Q-31.4 -6.3 -29.65 -8.7 -27.85 -11.1 -24.95 -11.1 -22.5 -11.1 -20.85 -8.55 -19.7 -6.9 -19.7 -3.6 L-19.7 24.35 -3.25 24.35 -3.25 -6.45 Q-3.25 -13.9 -5.4 -18.4 M-87.25 -15.05 Q-88.45 -18.85 -90.55 -20.95 -93.55 -23.95 -98.0 -24.9 L-109.9 -25.85 -118.45 -25.05 Q-122.45 -24.25 -124.7 -22.85 -127.85 -20.85 -129.5 -18.15 -131.2 -15.45 -132.1 -10.7 L-116.35 -8.8 -116.2 -9.35 -115.7 -10.6 -115.7 -10.65 -115.15 -11.65 -115.1 -11.7 -114.5 -12.5 -114.45 -12.55 -113.8 -13.15 Q-111.8 -14.65 -107.75 -14.65 -104.6 -14.65 -103.35 -13.25 L-103.05 -12.8 -102.95 -12.7 -102.75 -12.3 -102.7 -12.1 -102.5 -11.65 -102.45 -11.5 -102.3 -10.8 -102.1 -8.4 Q-105.2 -7.0 -107.9 -6.15 -110.7 -5.3 -119.9 -3.2 -127.65 -1.4 -130.5 2.2 -133.4 5.8 -133.4 11.4 -133.35 17.35 -129.4 21.4 -125.4 25.5 -117.75 25.5 -111.95 25.5 -107.6 23.45 -104.4 21.9 -101.15 18.35 L-100.6 21.5 -99.4 24.35 -83.95 24.35 Q-85.25 21.35 -85.65 19.35 -86.0 17.4 -86.0 13.9 L-86.0 -7.75 Q-86.05 -10.55 -86.8 -13.5 L-87.25 -15.05 M-159.1 -8.05 L-158.2 -5.45 -158.1 -5.15 -157.85 -3.6 -157.75 -1.15 Q-157.75 4.2 -159.8 6.9 -161.9 9.55 -164.95 9.55 -168.2 9.55 -170.2 6.95 -172.15 4.4 -172.15 -0.9 L-172.15 -1.05 -171.9 -5.05 -171.7 -6.15 -171.65 -6.25 -171.4 -7.15 -171.35 -7.4 -171.1 -8.05 -170.95 -8.45 -170.7 -8.9 -170.3 -9.6 Q-168.4 -12.2 -165.25 -12.2 -162.1 -12.2 -159.9 -9.35 L-159.25 -8.3 -159.1 -8.05 M-156.7 -24.7 L-156.7 -17.45 Q-159.5 -21.95 -162.75 -23.9 -166.05 -25.85 -171.05 -25.85 -178.85 -25.85 -183.7 -19.8 -188.55 -13.8 -188.55 -2.35 L-188.5 0.05 -188.35 2.25 -188.35 2.3 Q-187.65 9.15 -184.8 13.8 -179.5 22.4 -170.9 22.4 -166.5 22.4 -162.7 20.05 -160.3 18.6 -157.85 15.3 L-157.85 22.75 Q-157.85 28.15 -159.6 30.35 -161.4 32.5 -164.95 32.5 -167.65 32.5 -169.5 31.1 -170.75 30.1 -171.35 27.55 L-187.3 25.5 -187.4 28.0 Q-187.4 35.4 -182.55 39.85 -177.75 44.3 -164.8 44.3 -159.15 44.3 -154.75 43.15 -150.4 42.0 -147.55 39.4 -144.7 36.8 -142.95 32.65 -141.25 28.45 -141.25 23.8 L-141.3 -24.7 -156.7 -24.7 M-103.1 9.8 Q-104.1 12.0 -106.45 13.5 -108.8 15.05 -111.55 15.05 -114.2 15.05 -115.55 13.65 -116.9 12.2 -116.9 10.0 -116.9 8.05 -115.5 6.55 -114.2 5.05 -109.15 3.5 -105.5 2.45 -102.1 1.05 L-102.1 4.1 Q-102.1 7.6 -103.1 9.8 M-196.2 -43.4 L-245.25 -43.4 -245.25 24.35 -195.3 24.35 -195.3 9.0 -226.9 9.0 -226.9 -4.35 -198.4 -4.35 -198.4 -18.15 -226.9 -18.15 -226.9 -28.95 -196.2 -28.95 -196.2 -43.4 Z" fill="none" stroke="#ffffff" stroke-linecap="round" stroke-linejoin="round" stroke-width="8.0"/>
    <path d="M132.35 14.2 Q137.25 17.45 134.3 23.75 131.35 30.0 121.1 33.95 L121.05 34.0 121.05 33.95 Q110.8 30.0 107.85 23.75 104.9 17.45 109.8 14.2 113.95 12.2 117.0 14.2 120.0 16.15 121.1 17.85 122.15 16.15 125.15 14.2 128.2 12.2 132.35 14.2" fill="url(#gradient0)" fill-rule="evenodd" stroke="none"/>
    <path d="M132.35 14.2 Q128.2 12.2 125.15 14.2 122.15 16.15 121.1 17.85 120.0 16.15 117.0 14.2 113.95 12.2 109.8 14.2 104.9 17.45 107.85 23.75 110.8 30.0 121.05 33.95 L121.05 34.0 121.1 33.95 Q131.35 30.0 134.3 23.75 137.25 17.45 132.35 14.2 Z" fill="none" stroke="#933d37" stroke-linecap="round" stroke-linejoin="round" stroke-width="1.5"/>
    <path d="M-198.45 -4.35 L-226.95 -4.35 -226.95 9.0 -195.35 9.0 -195.35 24.35 -245.3 24.35 -245.3 -43.4 -196.25 -43.4 -196.25 -28.95 -226.95 -28.95 -226.95 -18.15 -198.45 -18.15 -198.45 -4.35" fill="#eb6248" fill-rule="evenodd" stroke="none"/>
    <path d="M-170.3 -9.6 Q-172.2 -6.95 -172.2 -0.9 -172.2 4.4 -170.2 6.95 -168.25 9.55 -165.0 9.55 -161.95 9.55 -159.85 6.9 -157.8 4.2 -157.75 -1.15 -157.75 -6.5 -159.95 -9.35 -162.15 -12.2 -165.3 -12.2 -168.45 -12.2 -170.3 -9.6 M-183.75 -19.8 Q-178.9 -25.85 -171.05 -25.85 -166.05 -25.85 -162.8 -23.9 -159.55 -21.95 -156.7 -17.45 L-156.7 -24.7 -141.35 -24.7 -141.3 23.8 Q-141.3 28.45 -143.0 32.65 -144.75 36.8 -147.55 39.4 -150.4 42.0 -154.8 43.15 -159.2 44.3 -164.85 44.3 -177.75 44.3 -182.6 39.85 -187.4 35.4 -187.45 28.0 L-187.35 25.5 -171.4 27.55 Q-170.8 30.1 -169.55 31.1 -167.7 32.5 -164.95 32.5 -161.4 32.5 -159.65 30.35 -157.9 28.15 -157.9 22.75 L-157.9 15.3 Q-160.3 18.6 -162.75 20.05 -166.55 22.4 -170.95 22.4 -179.55 22.4 -184.85 13.8 -188.6 7.7 -188.6 -2.35 -188.6 -13.8 -183.75 -19.8 M-102.15 4.1 L-102.15 1.05 Q-105.55 2.45 -109.2 3.5 -114.2 5.05 -115.55 6.55 -116.9 8.05 -116.95 10.0 -116.95 12.2 -115.55 13.65 -114.2 15.05 -111.6 15.05 -108.85 15.05 -106.5 13.5 -104.1 12.0 -103.15 9.8 -102.15 7.6 -102.15 4.1 M-102.15 -8.4 Q-102.15 -11.85 -103.4 -13.25 -104.65 -14.65 -107.8 -14.65 -111.85 -14.65 -113.85 -13.15 -115.45 -12.0 -116.4 -8.8 L-132.1 -10.7 Q-131.25 -15.45 -129.55 -18.15 -127.9 -20.85 -124.7 -22.85 -122.45 -24.25 -118.5 -25.05 L-109.95 -25.85 -98.05 -24.9 Q-93.55 -23.95 -90.6 -20.95 -88.5 -18.85 -87.25 -15.05 -86.05 -11.25 -86.05 -7.75 L-86.05 13.9 Q-86.05 17.4 -85.65 19.35 -85.3 21.35 -84.0 24.35 L-99.45 24.35 -100.65 21.5 -101.2 18.35 Q-104.45 21.9 -107.65 23.45 -112.0 25.5 -117.75 25.5 -125.45 25.5 -129.45 21.4 -133.4 17.35 -133.4 11.4 -133.4 5.8 -130.55 2.2 -127.65 -1.4 -119.95 -3.2 -110.7 -5.3 -107.95 -6.15 -105.2 -7.0 -102.15 -8.4 M-17.9 -25.85 Q-11.0 -25.85 -7.15 -21.15 -3.3 -16.45 -3.25 -6.45 L-3.25 24.35 -19.75 24.35 -19.75 -3.6 Q-19.75 -6.9 -20.9 -8.55 -22.55 -11.1 -25.0 -11.1 -27.9 -11.1 -29.65 -8.7 -31.45 -6.3 -31.45 -0.95 L-31.45 24.35 -47.9 24.35 -47.9 -2.65 Q-47.9 -5.9 -48.25 -7.05 -48.75 -8.9 -50.05 -10.05 -51.35 -11.15 -53.1 -11.2 -55.95 -11.15 -57.75 -8.75 -59.6 -6.25 -59.6 -0.7 L-59.6 24.35 -76.1 24.35 -76.1 -24.7 -60.75 -24.7 -60.75 -17.55 Q-57.4 -22.05 -54.05 -23.95 -50.65 -25.85 -45.9 -25.85 -40.75 -25.85 -37.75 -23.75 -34.75 -21.65 -32.85 -17.55 -28.95 -22.35 -25.8 -24.1 -22.6 -25.85 -17.9 -25.85 M54.2 2.35 L54.2 4.5 21.2 4.5 Q21.65 9.0 23.35 11.25 25.75 14.45 29.55 14.45 32.0 14.45 34.2 13.05 35.5 12.15 37.05 9.95 L53.25 11.65 Q49.55 19.05 44.3 22.25 39.05 25.5 29.2 25.5 20.7 25.5 15.8 22.75 10.9 20.0 7.7 14.0 4.5 8.0 4.5 -0.1 4.5 -11.6 10.95 -18.7 17.35 -25.85 28.75 -25.85 37.95 -25.85 43.25 -22.65 48.6 -19.45 51.4 -13.4 54.2 -7.35 54.2 2.35 M29.4 -14.7 Q25.5 -14.7 23.15 -11.15 21.65 -8.9 21.25 -4.5 L37.45 -4.5 Q36.95 -9.95 34.9 -12.35 32.8 -14.7 29.4 -14.7 M96.2 -4.65 Q100.2 -2.8 102.3 0.75 104.45 4.25 104.45 8.45 104.45 12.7 102.2 16.7 99.95 20.75 95.15 23.1 90.3 25.5 82.0 25.5 70.2 25.5 65.25 21.65 60.25 17.8 58.85 10.75 L75.15 9.0 Q76.15 12.3 78.0 13.75 79.8 15.2 82.85 15.15 86.15 15.2 87.95 13.55 89.4 12.35 89.35 10.55 89.35 8.55 87.5 7.4 86.2 6.65 80.45 5.5 71.85 3.75 68.55 2.3 65.2 0.85 62.95 -2.6 60.65 -6.05 60.65 -10.5 60.65 -15.35 63.1 -18.85 65.55 -22.35 69.9 -24.1 74.2 -25.85 81.5 -25.85 89.15 -25.85 92.85 -24.5 96.5 -23.15 98.95 -20.35 101.35 -17.5 103.0 -12.7 L87.4 -10.95 Q86.8 -13.3 85.35 -14.4 83.45 -15.9 80.7 -15.9 77.9 -15.9 76.6 -14.75 75.35 -13.65 75.35 -12.0 75.35 -10.2 76.95 -9.3 78.6 -8.35 84.0 -7.65 92.2 -6.55 96.2 -4.65 M183.95 -43.4 L183.95 -6.6 Q183.95 5.0 182.15 11.05 180.35 17.15 174.9 21.3 169.5 25.5 161.0 25.55 152.05 25.55 147.1 22.75 142.15 20.0 139.5 14.65 136.8 9.3 136.3 1.45 L153.8 -1.3 Q153.85 3.2 154.5 5.35 155.15 7.55 156.7 8.9 157.75 9.75 159.65 9.75 162.75 9.75 164.2 7.15 165.6 4.55 165.6 -1.65 L165.6 -43.4 183.95 -43.4 M226.4 -16.6 Q228.5 -18.7 228.5 -22.0 228.5 -25.2 226.65 -27.4 224.8 -29.65 219.65 -29.6 L214.45 -29.6 214.45 -14.5 218.95 -14.5 Q224.25 -14.5 226.4 -16.6 M241.4 -38.0 Q246.35 -32.6 246.35 -22.6 246.35 -12.35 240.95 -6.55 235.55 -0.8 224.5 -0.75 L214.45 -0.75 214.45 24.35 196.05 24.35 196.05 -43.4 226.5 -43.4 Q236.45 -43.4 241.4 -38.0" fill="url(#gradient1)" fill-rule="evenodd" stroke="none"/>
    <path d="M27.35 -14.4 L29.45 -14.7 32.2 -14.2 27.35 -14.4" fill="#ffffff" fill-rule="evenodd" stroke="none"/>
    <path d="M-196.25 -43.4 L-196.25 -28.95 -226.95 -28.95 -226.95 -18.15 -198.45 -18.15 -198.45 -4.35 -226.95 -4.35 -226.95 9.0 -214.85 9.0 Q-231.75 13.9 -245.3 19.5 L-245.3 -43.4 -196.25 -43.4" fill="url(#gradient2)" fill-rule="evenodd" stroke="none"/>
    <path d="M-4.2 -15.05 L-9.25 -15.05 -76.05 -12.9 -76.05 -24.75 -60.7 -24.75 -60.7 -17.6 Q-57.4 -22.05 -54.0 -23.95 -50.6 -25.85 -45.85 -25.85 -40.7 -25.85 -37.7 -23.75 -34.75 -21.7 -32.8 -17.6 -28.95 -22.4 -25.75 -24.1 -22.55 -25.85 -17.9 -25.85 -11.0 -25.85 -7.1 -21.15 -5.15 -18.75 -4.2 -15.05" fill="url(#gradient3)" fill-rule="evenodd" stroke="none"/>
    <path d="M228.55 -22.0 Q228.55 -25.2 226.7 -27.4 224.85 -29.65 219.7 -29.6 L214.5 -29.6 214.5 -14.5 218.95 -14.5 Q224.25 -14.5 226.4 -16.6 228.55 -18.7 228.55 -22.0 M241.4 -38.0 Q246.35 -32.6 246.35 -22.6 246.35 -12.35 240.95 -6.55 235.55 -0.8 224.5 -0.75 L214.5 -0.75 214.5 14.8 Q205.85 11.75 196.1 8.95 L196.1 -43.4 226.5 -43.4 Q236.45 -43.4 241.4 -38.0" fill="url(#gradient4)" fill-rule="evenodd" stroke="none"/>
    <path d="M51.4 -13.4 L51.45 -13.3 32.15 -14.25 29.4 -14.7 27.3 -14.4 8.1 -14.9 Q9.3 -16.95 10.9 -18.75 17.35 -25.85 28.7 -25.85 37.95 -25.85 43.25 -22.65 48.6 -19.45 51.4 -13.4" fill="url(#gradient5)" fill-rule="evenodd" stroke="none"/>
    <path d="M183.95 -6.6 Q183.95 0.5 183.25 5.5 L165.5 1.35 165.6 -1.65 165.6 -43.4 183.95 -43.4 183.95 -6.6" fill="url(#gradient6)" fill-rule="evenodd" stroke="none"/>
    <path d="M87.4 -10.95 Q86.8 -13.3 85.4 -14.45 83.45 -15.9 80.7 -15.9 77.9 -15.9 76.65 -14.8 75.4 -13.65 75.35 -12.05 L75.45 -11.55 60.8 -12.7 Q61.25 -16.15 63.15 -18.9 65.6 -22.4 69.9 -24.1 74.25 -25.85 81.5 -25.85 89.2 -25.85 92.85 -24.5 96.5 -23.15 98.95 -20.35 101.4 -17.55 103.0 -12.7 L87.4 -10.95" fill="url(#gradient7)" fill-rule="evenodd" stroke="none"/>
    <path d="M-141.35 -24.75 L-141.35 -6.2 -157.9 -3.6 Q-158.3 -7.2 -159.95 -9.35 -162.15 -12.2 -165.3 -12.2 -168.45 -12.2 -170.3 -9.6 -172.15 -7.0 -172.2 -1.05 L-188.35 2.3 -188.6 -2.35 Q-188.6 -13.85 -183.75 -19.85 -178.9 -25.85 -171.05 -25.85 -166.05 -25.85 -162.8 -23.9 -159.55 -21.95 -156.7 -17.5 L-156.7 -24.75 -141.35 -24.75" fill="url(#gradient8)" fill-rule="evenodd" stroke="none"/>
    <path d="M-90.55 -20.95 Q-88.45 -18.85 -87.25 -15.05 L-86.5 -12.15 -102.3 -10.8 Q-102.6 -12.4 -103.35 -13.3 -104.6 -14.65 -107.8 -14.65 -111.8 -14.65 -113.85 -13.2 -115.3 -12.1 -116.2 -9.4 L-118.65 -9.1 -132.1 -10.75 Q-131.2 -15.45 -129.55 -18.15 -127.85 -20.85 -124.7 -22.85 -122.45 -24.3 -118.5 -25.05 L-109.9 -25.85 -98.05 -24.9 Q-93.55 -23.95 -90.55 -20.95" fill="url(#gradient9)" fill-rule="evenodd" stroke="none"/>
    <path d="M-116.2 -9.4 L-116.4 -8.85 -118.65 -9.15 -116.2 -9.4" fill="#ffffff" fill-rule="evenodd" stroke="none"/>
    <path d="M-198.45 -4.35 L-226.95 -4.35 -226.95 9.0 -195.35 9.0 -195.35 24.35 -245.3 24.35 -245.3 -43.4 -196.25 -43.4 -196.25 -28.95 -226.95 -28.95 -226.95 -18.15 -198.45 -18.15 -198.45 -4.35 Z" fill="none" stroke="#933d37" stroke-linecap="round" stroke-linejoin="round" stroke-width="1.5"/>
  </g>
  <defs>
    <linearGradient gradientTransform="matrix(0.0, -0.0127, 0.0127, 0.0, 121.1, 23.6)" gradientUnits="userSpaceOnUse" id="gradient0" spreadMethod="pad" x1="-819.2" x2="819.2">
      <stop offset="0.0" stop-color="#eb6248"/>
      <stop offset="0.7333333333333333" stop-color="#eb927d"/>
      <stop offset="1.0" stop-color="#ebc2b1"/>
    </linearGradient>
    <linearGradient gradientTransform="matrix(0.0, 0.0535, -0.0535, 0.0, 28.85, 0.45)" gradientUnits="userSpaceOnUse" id="gradient1" spreadMethod="pad" x1="-819.2" x2="819.2">
      <stop offset="0.0" stop-color="#50524e"/>
      <stop offset="0.33725490196078434" stop-color="#4c4e4a"/>
      <stop offset="1.0" stop-color="#474945"/>
    </linearGradient>
    <linearGradient gradientTransform="matrix(0.0, -0.0384, 0.0384, 0.0, -220.8, -11.95)" gradientUnits="userSpaceOnUse" id="gradient2" spreadMethod="pad" x1="-819.2" x2="819.2">
      <stop offset="0.0" stop-color="#eb6248"/>
      <stop offset="0.33725490196078434" stop-color="#eb927d"/>
      <stop offset="1.0" stop-color="#ebc2b1"/>
    </linearGradient>
    <linearGradient gradientTransform="matrix(0.0, -0.0079, 0.0079, 0.0, -40.1, -19.35)" gradientUnits="userSpaceOnUse" id="gradient3" spreadMethod="pad" x1="-819.2" x2="819.2">
      <stop offset="0.0" stop-color="#50524e"/>
      <stop offset="0.33725490196078434" stop-color="#696a68"/>
      <stop offset="1.0" stop-color="#818281"/>
    </linearGradient>
    <linearGradient gradientTransform="matrix(0.0, -0.0355, 0.0355, 0.0, 221.25, -14.3)" gradientUnits="userSpaceOnUse" id="gradient4" spreadMethod="pad" x1="-819.2" x2="819.2">
      <stop offset="0.0" stop-color="#50524e"/>
      <stop offset="0.33725490196078434" stop-color="#696a68"/>
      <stop offset="1.0" stop-color="#818281"/>
    </linearGradient>
    <linearGradient gradientTransform="matrix(0.0, -0.0077, 0.0077, 0.0, 29.75, -19.55)" gradientUnits="userSpaceOnUse" id="gradient5" spreadMethod="pad" x1="-819.2" x2="819.2">
      <stop offset="0.0" stop-color="#50524e"/>
      <stop offset="0.33725490196078434" stop-color="#696a68"/>
      <stop offset="1.0" stop-color="#818281"/>
    </linearGradient>
    <linearGradient gradientTransform="matrix(0.0, -0.0298, 0.0298, 0.0, 174.7, -18.95)" gradientUnits="userSpaceOnUse" id="gradient6" spreadMethod="pad" x1="-819.2" x2="819.2">
      <stop offset="0.0" stop-color="#50524e"/>
      <stop offset="0.33725490196078434" stop-color="#696a68"/>
      <stop offset="1.0" stop-color="#818281"/>
    </linearGradient>
    <linearGradient gradientTransform="matrix(0.0, -0.0091, 0.0091, 0.0, 81.9, -18.4)" gradientUnits="userSpaceOnUse" id="gradient7" spreadMethod="pad" x1="-819.2" x2="819.2">
      <stop offset="0.0" stop-color="#50524e"/>
      <stop offset="0.33725490196078434" stop-color="#696a68"/>
      <stop offset="1.0" stop-color="#818281"/>
    </linearGradient>
    <linearGradient gradientTransform="matrix(0.0, -0.0172, 0.0172, 0.0, -164.95, -11.8)" gradientUnits="userSpaceOnUse" id="gradient8" spreadMethod="pad" x1="-819.2" x2="819.2">
      <stop offset="0.0" stop-color="#50524e"/>
      <stop offset="0.33725490196078434" stop-color="#696a68"/>
      <stop offset="1.0" stop-color="#818281"/>
    </linearGradient>
    <linearGradient gradientTransform="matrix(0.0, -0.0102, 0.0102, 0.0, -109.3, -17.5)" gradientUnits="userSpaceOnUse" id="gradient9" spreadMethod="pad" x1="-819.2" x2="819.2">
      <stop offset="0.0" stop-color="#50524e"/>
      <stop offset="0.33725490196078434" stop-color="#696a68"/>
      <stop offset="1.0" stop-color="#818281"/>
    </linearGradient>
  </defs>
</svg>
