<?xml version="1.0" encoding="UTF-8" standalone="no"?>
<svg xmlns:ffdec="https://www.free-decompiler.com/flash" xmlns:xlink="http://www.w3.org/1999/xlink" ffdec:objectType="shape" height="34.4px" width="85.5px" xmlns="http://www.w3.org/2000/svg">
  <g transform="matrix(1.0, 0.0, 0.0, 1.0, 1.4, 0.8)">
    <path d="M19.0 18.9 L16.75 11.65 14.45 18.9 19.0 18.9 M28.95 19.25 L28.95 20.0 30.65 24.55 30.65 11.75 25.8 11.75 28.65 19.25 28.95 19.25 M56.5 25.0 L56.0 25.4 56.0 25.9 56.25 25.6 56.5 25.0 M52.6 10.3 Q52.25 8.35 51.0 7.35 L50.95 7.3 49.35 7.0 Q46.1 7.0 46.0 12.75 L45.95 16.3 46.3 17.8 Q46.85 21.35 49.05 21.35 L50.0 21.35 51.35 20.65 51.4 20.55 51.5 20.5 Q52.1 19.9 52.55 17.85 52.9 16.15 52.9 14.1 52.9 11.65 52.6 10.3 M65.45 22.95 L64.7 22.85 64.4 22.85 63.9 22.8 63.9 23.05 64.4 22.95 65.55 23.0 65.85 23.05 66.0 23.05 66.25 23.0 66.35 23.0 66.35 22.85 66.2 22.85 65.45 22.95 M83.35 20.7 L83.35 27.7 82.05 27.85 81.8 27.8 81.55 27.85 79.75 27.8 79.45 27.85 78.2 27.95 76.35 27.9 76.35 27.8 76.15 27.85 73.05 27.85 73.05 27.4 72.9 27.0 72.9 26.95 72.7 27.2 72.55 27.35 Q71.7 27.85 70.65 28.0 L68.9 28.0 68.95 27.9 67.55 27.3 Q67.0 26.9 66.75 26.1 L66.7 26.2 66.65 26.6 66.5 26.65 66.35 26.8 Q65.45 27.85 64.75 27.9 L63.75 28.0 63.45 28.0 63.3 27.95 63.15 28.0 62.4 27.8 62.4 28.35 61.05 27.05 61.0 26.95 61.0 26.9 60.9 26.75 60.9 26.8 Q60.25 28.45 58.55 28.45 57.6 28.45 56.9 27.75 56.4 27.15 56.25 26.55 L56.0 26.3 56.0 26.5 54.55 26.5 Q53.1 27.45 52.0 27.45 L51.1 27.5 51.05 27.75 48.35 27.75 47.9 27.55 47.7 27.55 46.65 27.4 46.55 27.45 45.8 27.45 45.8 27.2 45.3 27.1 45.0 27.0 44.85 26.75 44.8 26.75 Q43.6 26.75 42.4 25.2 L40.7 22.8 Q39.75 22.05 39.75 21.25 L39.75 21.15 38.9 19.8 39.15 19.7 39.1 19.55 39.05 19.45 39.05 19.4 39.05 18.55 38.85 17.9 38.85 26.9 38.65 27.1 Q38.4 27.45 37.85 27.45 L31.75 27.5 32.1 28.4 32.4 28.8 32.4 28.85 32.65 28.75 32.7 29.2 32.8 29.3 32.7 29.4 32.7 29.8 32.8 30.2 32.85 30.3 33.35 31.75 23.25 31.9 21.75 27.2 21.7 27.1 21.45 26.25 12.6 26.25 12.05 26.55 10.35 31.9 1.3 31.8 1.35 31.75 1.2 31.8 0.35 31.9 0.0 32.1 0.6 30.55 0.7 30.2 0.8 30.05 0.8 29.95 0.85 29.85 1.0 29.7 1.3 28.8 1.3 28.75 1.35 28.65 1.35 28.55 1.4 28.45 1.75 27.6 1.8 27.4 1.85 27.45 2.05 26.9 2.0 26.85 2.2 26.4 2.2 26.45 12.5 0.0 21.4 0.0 21.55 0.5 24.55 8.35 24.55 5.75 26.8 5.75 Q28.55 5.75 30.2 4.55 32.05 3.25 32.15 1.25 L32.15 0.5 38.8 0.5 38.85 10.05 Q39.0 8.75 39.55 7.4 L39.65 7.05 40.5 5.35 40.55 5.2 41.5 4.1 41.9 3.95 41.5 3.75 42.35 3.0 Q45.15 0.6 49.3 0.6 55.15 0.6 58.05 5.15 60.3 8.7 60.3 13.95 60.3 18.8 58.5 22.25 L57.7 23.9 57.65 23.75 57.4 24.05 57.9 23.85 58.55 23.75 58.95 23.75 Q59.65 23.95 60.05 24.25 L60.05 23.0 60.15 20.95 Q60.7 18.3 63.2 18.2 L63.75 18.2 Q65.2 18.2 66.15 19.05 L66.6 19.6 66.65 19.75 67.1 19.0 67.25 18.85 67.35 18.7 67.5 18.55 67.7 18.45 Q67.95 18.15 68.65 18.0 L69.4 17.8 69.6 17.9 69.7 17.9 69.75 17.85 69.9 17.85 71.95 18.3 72.0 18.35 72.1 18.4 72.75 18.95 72.75 18.2 73.3 18.05 75.85 18.0 76.15 17.95 76.35 18.15 77.7 17.9 77.8 17.9 Q78.5 17.9 79.2 18.45 79.9 17.85 80.7 17.85 L80.9 17.85 Q82.2 17.85 83.05 19.2 L83.15 19.4 83.3 20.5 83.35 20.7" fill="#422103" fill-rule="evenodd" stroke="none"/>
    <path d="M83.35 20.7 L83.3 20.5 83.15 19.4 83.05 19.2 Q82.2 17.85 80.9 17.85 L80.7 17.85 Q79.9 17.85 79.2 18.45 78.5 17.9 77.8 17.9 L77.7 17.9 76.35 18.15 76.15 17.95 75.85 18.0 73.3 18.05 72.75 18.2 72.75 18.95 72.1 18.4 72.0 18.35 71.95 18.3 69.9 17.85 69.75 17.85 69.7 17.9 69.6 17.9 69.4 17.8 68.65 18.0 Q67.95 18.15 67.7 18.45 L67.5 18.55 67.35 18.7 67.25 18.85 67.1 19.0 66.65 19.75 66.6 19.6 66.15 19.05 Q65.2 18.2 63.75 18.2 L63.2 18.2 Q60.7 18.3 60.15 20.95 L60.05 23.0 60.05 24.25 Q59.65 23.95 58.95 23.75 L58.55 23.75 57.9 23.85 57.4 24.05 57.65 23.75 57.7 23.9 58.5 22.25 Q60.3 18.8 60.3 13.95 60.3 8.7 58.05 5.15 55.15 0.6 49.3 0.6 45.15 0.6 42.35 3.0 L41.5 3.75 41.9 3.95 41.5 4.1 40.55 5.2 40.5 5.35 39.65 7.05 39.55 7.4 Q39.0 8.75 38.85 10.05 L38.8 0.5 32.15 0.5 32.15 1.25 Q32.05 3.25 30.2 4.55 28.55 5.75 26.8 5.75 L24.55 5.75 24.55 8.35 21.55 0.5 21.4 0.0 12.5 0.0 2.2 26.45 2.2 26.4 2.0 26.85 2.05 26.9 1.85 27.45 1.8 27.4 1.75 27.6 1.4 28.45 1.35 28.55 1.35 28.65 1.3 28.75 1.3 28.8 1.0 29.7 0.85 29.85 0.8 29.95 0.8 30.05 0.7 30.2 0.6 30.55 0.0 32.1 0.35 31.9 1.2 31.8 1.35 31.75 1.3 31.8 10.35 31.9 12.05 26.55 12.6 26.25 21.45 26.25 21.7 27.1 21.75 27.2 23.25 31.9 33.35 31.75 32.85 30.3 32.8 30.2 32.7 29.8 32.7 29.4 32.8 29.3 32.7 29.2 32.65 28.75 32.4 28.85 32.4 28.8 32.1 28.4 31.75 27.5 37.85 27.45 Q38.4 27.45 38.65 27.1 L38.85 26.9 38.85 17.9 39.05 18.55 39.05 19.4 39.05 19.45 39.1 19.55 39.15 19.7 38.9 19.8 39.75 21.15 39.75 21.25 Q39.75 22.05 40.7 22.8 L42.4 25.2 Q43.6 26.75 44.8 26.75 L44.85 26.75 45.0 27.0 45.3 27.1 45.8 27.2 45.8 27.45 46.55 27.45 46.65 27.4 47.7 27.55 47.9 27.55 48.35 27.75 51.05 27.75 51.1 27.5 52.0 27.45 Q53.1 27.45 54.55 26.5 L56.0 26.5 56.0 26.3 56.25 26.55 Q56.4 27.15 56.9 27.75 57.6 28.45 58.55 28.45 60.25 28.45 60.9 26.8 L60.9 26.75 61.0 26.9 61.0 26.95 61.05 27.05 62.4 28.35 62.4 27.8 63.15 28.0 63.3 27.95 63.45 28.0 63.75 28.0 64.75 27.9 Q65.45 27.85 66.35 26.8 L66.5 26.65 66.65 26.6 66.7 26.2 66.75 26.1 Q67.0 26.9 67.55 27.3 L68.95 27.9 68.9 28.0 70.65 28.0 Q71.7 27.85 72.55 27.35 L72.7 27.2 72.9 26.95 72.9 27.0 73.05 27.4 73.05 27.85 76.15 27.85 76.35 27.8 76.35 27.9 78.2 27.95 79.45 27.85 79.75 27.8 81.55 27.85 81.8 27.8 82.05 27.85 83.35 27.7 83.35 20.7 M65.45 22.95 L66.2 22.85 66.35 22.85 66.35 23.0 66.25 23.0 66.0 23.05 65.85 23.05 65.55 23.0 64.4 22.95 63.9 23.05 63.9 22.8 64.4 22.85 64.7 22.85 65.45 22.95 M52.6 10.3 Q52.9 11.65 52.9 14.1 52.9 16.15 52.55 17.85 52.1 19.9 51.5 20.5 L51.4 20.55 51.35 20.65 50.0 21.35 49.05 21.35 Q46.85 21.35 46.3 17.8 L45.95 16.3 46.0 12.75 Q46.1 7.0 49.35 7.0 L50.95 7.3 51.0 7.35 Q52.25 8.35 52.6 10.3 M56.5 25.0 L56.25 25.6 56.0 25.9 56.0 25.4 56.5 25.0 M28.95 19.25 L28.65 19.25 25.8 11.75 30.65 11.75 30.65 24.55 28.95 20.0 28.95 19.25 M19.0 18.9 L14.45 18.9 16.75 11.65 19.0 18.9 Z" fill="none" stroke="#422103" stroke-linecap="butt" stroke-linejoin="miter-clip" stroke-miterlimit="4.0" stroke-width="1.5"/>
    <path d="M57.4 5.3 Q59.5 8.6 59.5 13.7 59.5 18.35 57.85 21.7 L57.7 21.4 57.25 21.55 57.05 21.8 Q57.05 22.0 57.6 22.0 57.3 23.2 55.25 24.8 53.25 26.45 52.0 26.45 L51.45 26.5 51.35 26.5 Q51.45 25.7 51.2 25.45 50.55 25.6 50.4 26.75 L48.45 26.75 48.15 26.45 47.75 26.15 47.75 26.25 47.8 26.4 47.95 26.5 46.65 26.4 46.55 26.4 45.55 26.1 Q45.35 25.6 45.1 25.6 L44.95 25.65 44.8 25.7 Q44.0 25.7 43.0 24.5 L41.85 22.85 Q42.1 22.85 42.15 23.0 L42.85 22.45 42.3 21.85 42.7 22.05 42.85 22.05 41.9 20.8 42.0 21.85 41.55 21.7 Q41.2 21.7 41.2 21.95 40.5 21.5 40.5 21.0 40.5 20.75 40.8 20.6 L41.05 20.45 40.75 19.8 39.8 19.05 39.9 18.2 Q39.35 17.45 39.35 14.95 L39.45 11.15 Q39.6 9.0 40.25 7.4 L41.1 5.5 41.9 4.5 42.35 4.4 42.8 4.2 42.55 4.45 Q43.35 4.3 43.35 3.9 L42.85 3.3 Q44.15 2.2 45.8 1.65 47.4 1.1 49.3 1.1 51.25 1.1 52.85 1.65 55.7 2.6 57.4 5.3 M51.4 6.2 L51.0 6.25 49.35 6.0 Q45.4 6.0 45.25 12.5 L45.2 15.8 44.9 15.65 Q44.6 15.65 44.65 16.5 44.95 16.2 45.2 16.2 L45.55 17.65 Q46.25 21.85 49.05 21.85 L50.0 21.85 Q50.75 21.85 51.9 20.9 L51.95 20.8 Q52.8 20.1 53.3 17.75 53.65 16.0 53.65 13.85 L53.35 9.85 Q52.9 7.65 51.5 6.5 L51.75 6.2 51.4 6.2 M46.35 2.4 L46.55 2.0 46.35 1.95 46.15 2.3 46.35 2.4 M41.0 6.6 L40.75 6.6 40.6 7.25 40.85 7.25 41.0 6.6 M54.4 19.85 L54.3 19.6 54.0 19.8 54.0 20.0 54.4 19.85 M54.85 25.25 L55.25 25.25 55.25 25.5 54.85 25.5 54.85 25.25 M40.1 18.95 L40.1 19.15 40.5 18.95 40.4 18.75 40.1 18.95 M40.25 19.8 L40.4 20.2 40.2 20.2 40.0 19.9 40.25 19.8" fill="url(#gradient0)" fill-rule="evenodd" stroke="none"/>
    <path d="M30.65 4.9 Q32.55 3.55 32.85 1.65 L32.9 1.0 38.05 1.0 38.05 26.4 37.8 26.4 31.4 26.5 31.4 10.9 31.45 10.9 31.45 10.75 25.3 10.75 25.3 6.25 26.8 6.25 Q28.8 6.25 30.65 4.9 M34.4 21.05 L35.25 21.2 35.25 20.95 34.4 20.8 34.4 21.05 M32.6 20.9 L34.35 20.9 34.35 20.65 32.6 20.65 32.6 20.9" fill="url(#gradient1)" fill-rule="evenodd" stroke="none"/>
    <path d="M28.2 19.8 L28.2 19.9 30.5 26.05 30.7 26.1 30.6 26.3 31.45 28.55 31.8 29.0 31.65 29.1 31.85 29.6 31.95 29.55 32.05 30.15 32.1 30.3 32.3 30.75 23.8 30.85 22.0 25.2 19.95 25.2 19.4 25.25 18.7 25.2 12.4 25.2 11.5 25.7 11.45 25.65 9.8 30.85 9.0 30.85 8.8 31.0 8.55 30.9 8.5 30.85 8.15 30.85 7.5 31.45 7.7 30.95 7.25 30.85 1.2 30.75 1.35 30.4 1.45 30.3 1.6 30.0 1.5 30.05 1.5 30.0 1.65 29.8 2.05 28.75 2.05 28.55 2.1 28.5 2.15 28.5 2.4 27.85 2.35 27.85 2.5 27.4 2.55 27.45 3.05 26.1 3.0 26.15 10.8 6.2 10.95 6.1 10.85 6.05 13.0 0.5 16.55 0.5 16.7 1.1 17.15 1.1 17.05 0.5 20.85 0.5 28.15 19.8 28.2 19.8 M13.4 19.4 L20.05 19.4 16.75 8.9 13.4 19.4" fill="url(#gradient2)" fill-rule="evenodd" stroke="none"/>
    <path d="M58.8 24.25 Q59.55 24.35 60.0 25.0 60.45 25.65 60.2 26.3 59.85 27.15 59.0 27.4 58.1 27.6 57.45 26.95 56.95 26.45 57.0 25.9 L56.9 25.9 56.9 25.75 57.0 25.75 57.05 25.45 Q57.25 24.6 58.1 24.3 L58.8 24.25" fill="url(#gradient3)" fill-rule="evenodd" stroke="none"/>
    <path d="M63.45 20.2 Q63.25 20.25 63.25 20.6 L63.25 21.1 63.15 21.45 63.1 21.45 63.2 21.5 63.15 23.3 63.15 24.25 63.45 25.1 Q63.9 25.5 64.1 24.65 L64.25 23.5 65.3 23.5 65.95 23.55 66.3 23.55 66.45 23.8 66.45 24.05 66.2 25.3 66.0 25.8 Q65.8 25.85 65.8 26.05 65.05 26.85 64.7 26.85 L63.65 27.0 63.25 26.9 63.1 26.95 Q61.55 26.6 61.05 25.25 L60.85 24.0 60.8 22.7 60.9 20.85 Q61.35 18.75 63.25 18.7 L63.8 18.7 Q65.0 18.7 65.75 19.45 L65.9 19.7 66.2 20.8 66.25 21.6 66.05 21.85 64.85 21.85 64.1 21.8 Q64.1 20.2 63.55 20.2 L63.45 20.2 M61.5 20.3 L61.7 20.25 61.7 20.2 61.65 20.2 61.45 20.25 61.45 20.3 61.5 20.3" fill="url(#gradient4)" fill-rule="evenodd" stroke="none"/>
    <path d="M68.9 18.5 L69.35 18.35 69.65 18.4 69.85 18.35 69.9 18.35 71.65 18.75 72.45 19.45 72.9 20.75 73.0 24.75 Q73.0 25.45 72.15 26.45 71.2 27.0 70.1 27.0 L69.95 27.0 70.0 26.9 69.95 26.9 69.85 26.95 69.9 26.95 69.9 27.0 69.8 27.0 Q68.85 27.0 68.0 26.4 67.6 26.1 67.25 24.85 L67.1 23.35 67.15 21.7 67.1 20.9 67.2 20.75 67.1 20.6 Q67.3 19.6 67.65 19.25 L67.95 18.9 68.25 18.7 68.9 18.5 M70.45 20.35 Q70.45 19.9 70.0 19.9 L69.8 19.95 69.7 20.05 69.55 20.35 69.65 25.05 Q69.65 25.5 70.1 25.5 L70.55 25.0 70.5 22.45 70.55 22.45 70.7 22.35 70.5 22.35 70.45 20.35" fill="url(#gradient5)" fill-rule="evenodd" stroke="none"/>
    <path d="M82.6 21.05 L82.6 26.8 80.3 26.8 80.3 20.6 80.25 20.2 Q80.1 19.75 79.75 19.85 79.35 19.95 79.35 20.4 L79.35 26.85 78.0 26.95 77.05 26.9 77.0 26.65 77.0 20.4 Q77.0 19.9 76.55 19.9 L76.45 19.9 Q76.25 19.9 76.15 20.05 L76.1 20.15 76.05 20.4 76.05 26.85 73.8 26.85 73.8 26.8 73.65 26.75 73.65 26.45 73.75 26.4 73.75 26.3 73.65 26.25 73.55 18.95 73.5 18.5 75.9 18.5 76.05 19.15 Q76.25 18.8 76.7 18.6 L77.7 18.4 77.8 18.4 Q78.45 18.4 79.2 19.25 79.95 18.35 80.7 18.35 L80.9 18.35 Q81.8 18.35 82.4 19.35 L82.55 20.5 82.6 20.55 82.6 20.9 82.55 20.9 82.6 21.05 M77.25 18.8 L77.25 18.7 77.15 18.7 77.15 18.8 77.25 18.8 M73.85 19.2 L73.9 19.15 73.9 19.1 73.85 19.05 73.8 19.1 73.85 19.2" fill="url(#gradient6)" fill-rule="evenodd" stroke="none"/>
  </g>
  <defs>
    <linearGradient gradientTransform="matrix(0.0081, 0.0188, 0.0188, -0.0081, 48.5, 11.95)" gradientUnits="userSpaceOnUse" id="gradient0" spreadMethod="pad" x1="-819.2" x2="819.2">
      <stop offset="0.00392156862745098" stop-color="#fc5d06"/>
      <stop offset="0.3137254901960784" stop-color="#fb7f04"/>
      <stop offset="0.984313725490196" stop-color="#f9d400"/>
      <stop offset="0.9882352941176471" stop-color="#f9d400"/>
    </linearGradient>
    <linearGradient gradientTransform="matrix(0.0079, 0.0184, 0.0184, -0.0079, 36.35, 17.45)" gradientUnits="userSpaceOnUse" id="gradient1" spreadMethod="pad" x1="-819.2" x2="819.2">
      <stop offset="0.00392156862745098" stop-color="#fc5d06"/>
      <stop offset="0.3137254901960784" stop-color="#fb7f04"/>
      <stop offset="0.984313725490196" stop-color="#f9d400"/>
      <stop offset="0.9882352941176471" stop-color="#f9d400"/>
    </linearGradient>
    <linearGradient gradientTransform="matrix(0.0114, 0.0143, 0.0143, -0.0114, 15.95, 21.8)" gradientUnits="userSpaceOnUse" id="gradient2" spreadMethod="pad" x1="-819.2" x2="819.2">
      <stop offset="0.0" stop-color="#9a8479"/>
      <stop offset="0.5568627450980392" stop-color="#ffffff"/>
      <stop offset="1.0" stop-color="#9a8479"/>
    </linearGradient>
    <linearGradient gradientTransform="matrix(-8.0E-4, 0.0091, 0.0091, 8.0E-4, 58.75, 24.05)" gradientUnits="userSpaceOnUse" id="gradient3" spreadMethod="pad" x1="-819.2" x2="819.2">
      <stop offset="0.0" stop-color="#9a8479"/>
      <stop offset="0.5568627450980392" stop-color="#ffffff"/>
      <stop offset="1.0" stop-color="#9a8479"/>
    </linearGradient>
    <linearGradient gradientTransform="matrix(-8.0E-4, 0.0091, 0.0091, 8.0E-4, 63.5, 24.45)" gradientUnits="userSpaceOnUse" id="gradient4" spreadMethod="pad" x1="-819.2" x2="819.2">
      <stop offset="0.0" stop-color="#9a8479"/>
      <stop offset="0.5568627450980392" stop-color="#ffffff"/>
      <stop offset="1.0" stop-color="#9a8479"/>
    </linearGradient>
    <linearGradient gradientTransform="matrix(-8.0E-4, 0.0091, 0.0091, 8.0E-4, 69.9, 25.0)" gradientUnits="userSpaceOnUse" id="gradient5" spreadMethod="pad" x1="-819.2" x2="819.2">
      <stop offset="0.0" stop-color="#9a8479"/>
      <stop offset="0.5568627450980392" stop-color="#ffffff"/>
      <stop offset="1.0" stop-color="#9a8479"/>
    </linearGradient>
    <linearGradient gradientTransform="matrix(-8.0E-4, 0.0091, 0.0091, 8.0E-4, 77.8, 25.65)" gradientUnits="userSpaceOnUse" id="gradient6" spreadMethod="pad" x1="-819.2" x2="819.2">
      <stop offset="0.0" stop-color="#9a8479"/>
      <stop offset="0.5568627450980392" stop-color="#ffffff"/>
      <stop offset="1.0" stop-color="#9a8479"/>
    </linearGradient>
  </defs>
</svg>
