<?xml version="1.0" encoding="UTF-8" standalone="no"?>
<svg xmlns:ffdec="https://www.free-decompiler.com/flash" xmlns:xlink="http://www.w3.org/1999/xlink" ffdec:objectType="shape" height="42.2px" width="277.65px" xmlns="http://www.w3.org/2000/svg">
  <g transform="matrix(1.0, 0.0, 0.0, 1.0, 0.0, 0.0)">
    <path d="M267.1 20.0 L267.1 18.5 267.1 18.3 Q267.1 17.35 266.6 17.35 266.3 17.35 265.75 18.1 L265.3 18.65 Q264.1 20.75 263.95 22.1 L263.6 24.4 263.5 25.7 263.55 26.85 263.5 27.4 Q263.4 28.1 262.95 28.55 262.35 29.1 260.6 29.5 L259.4 29.85 258.2 30.0 Q257.25 30.0 257.05 29.0 L257.0 28.35 257.0 28.2 257.25 24.25 257.4 22.75 257.6 20.65 257.65 19.4 Q257.65 17.9 256.9 17.9 256.05 17.9 255.15 20.0 L253.7 23.95 253.55 24.45 Q253.15 25.75 253.15 26.95 L253.2 27.55 253.25 27.85 253.25 28.25 253.15 28.7 252.7 29.3 Q250.95 31.0 249.4 31.0 248.15 31.0 247.3 29.65 246.7 28.6 246.55 27.1 L246.5 26.2 246.65 23.5 246.85 18.9 246.85 17.85 Q246.85 14.85 246.5 13.05 L245.9 11.15 246.2 11.15 248.15 10.05 Q250.35 8.6 252.05 8.6 253.6 8.6 253.6 10.55 L253.5 11.75 253.35 13.0 253.15 15.8 253.15 16.0 253.2 16.3 253.25 16.3 253.35 16.0 Q254.55 13.9 256.25 12.65 257.95 11.4 259.55 11.4 261.0 11.4 261.8 12.25 262.6 13.15 263.2 15.25 L264.85 13.2 Q266.95 10.9 269.45 10.9 273.95 10.9 273.95 17.1 L273.95 18.1 273.85 19.4 273.7 22.85 273.75 23.5 Q273.9 25.85 275.5 25.85 276.95 25.85 277.55 24.9 L277.65 25.6 277.4 27.1 Q277.05 28.2 276.05 29.05 274.45 30.4 272.1 30.4 267.4 30.4 266.9 24.45 L266.85 22.95 267.0 21.7 267.1 20.0" fill="url(#gradient0)" fill-rule="evenodd" stroke="none"/>
    <path d="M223.0 21.05 L222.95 20.0 Q222.95 16.8 224.5 14.4 225.5 12.75 226.45 12.4 L226.15 11.35 Q226.9 10.5 228.75 9.8 230.65 9.05 232.25 9.05 236.55 9.05 239.15 12.15 241.8 15.2 241.8 20.2 L241.8 21.2 Q241.55 25.4 239.3 27.95 236.75 30.85 232.45 30.85 228.3 30.85 225.65 27.8 223.25 25.05 223.0 21.05 M235.8 22.75 L235.8 21.8 Q235.8 18.7 234.7 16.55 233.65 14.35 232.1 14.35 231.0 14.35 230.3 15.5 229.6 16.65 229.6 18.5 L229.65 19.7 Q229.8 22.1 230.65 23.85 231.65 25.95 233.25 25.95 235.5 25.95 235.8 22.75" fill="url(#gradient1)" fill-rule="evenodd" stroke="none"/>
    <path d="M204.2 21.15 L204.15 20.1 Q204.15 15.2 206.9 12.05 209.6 8.95 213.9 8.95 216.7 8.95 218.45 10.3 220.2 11.6 220.2 13.75 L220.1 14.75 Q219.9 15.65 219.25 16.35 218.3 17.4 216.9 17.4 L215.45 17.1 215.5 16.7 Q215.5 15.75 215.0 15.15 214.45 14.5 213.65 14.5 212.4 14.5 211.6 16.15 210.75 17.75 210.75 20.15 L210.8 21.2 Q210.95 23.2 211.75 24.45 212.75 26.0 214.55 26.0 215.9 26.0 217.5 25.0 219.1 23.95 219.9 22.55 220.75 23.05 220.75 24.6 L220.65 25.7 Q220.3 27.6 218.75 28.95 216.7 30.65 213.45 30.65 209.05 30.65 206.6 27.85 204.4 25.4 204.2 21.15" fill="url(#gradient2)" fill-rule="evenodd" stroke="none"/>
    <path d="M175.0 21.15 L174.95 20.15 Q174.95 15.35 177.35 12.05 179.7 8.75 183.15 8.75 185.65 8.75 187.35 10.5 189.05 12.25 189.05 14.8 L189.0 15.75 Q188.65 17.75 187.05 19.55 185.1 21.85 182.15 22.75 182.35 23.85 182.85 24.55 183.65 25.8 185.3 25.8 187.3 25.8 189.45 24.15 L190.45 23.4 190.55 23.3 Q190.9 23.95 190.9 24.95 L190.8 25.95 Q190.4 27.6 188.7 28.9 186.5 30.5 183.35 30.5 179.55 30.5 177.25 27.65 175.2 25.15 175.0 21.15 M184.05 16.2 L184.2 15.05 Q184.2 13.7 183.15 13.7 182.35 13.7 181.8 14.7 181.2 15.75 181.2 17.1 L181.3 18.0 181.5 18.5 Q182.7 18.25 183.45 17.3 L184.05 16.2" fill="url(#gradient3)" fill-rule="evenodd" stroke="none"/>
    <path d="M149.55 16.3 L149.65 16.0 Q150.85 13.9 152.55 12.65 154.25 11.4 155.85 11.4 157.3 11.4 158.1 12.25 158.9 13.15 159.5 15.25 L161.15 13.2 Q163.25 10.9 165.75 10.9 170.25 10.9 170.25 17.1 L170.25 18.1 170.15 19.4 170.0 22.85 170.05 23.5 Q170.2 25.85 171.8 25.85 173.25 25.85 173.85 24.9 L173.95 25.6 173.7 27.1 Q173.35 28.2 172.35 29.05 170.75 30.4 168.4 30.4 163.7 30.4 163.2 24.45 L163.15 22.95 163.3 21.7 163.4 20.0 163.4 18.5 163.4 18.3 Q163.4 17.35 162.9 17.35 162.6 17.35 162.05 18.1 L161.6 18.65 Q160.4 20.75 160.25 22.1 L159.9 24.4 159.8 25.7 159.85 26.85 159.8 27.4 159.25 28.55 Q158.65 29.1 156.9 29.5 L155.7 29.85 154.5 30.0 Q153.55 30.0 153.35 29.0 L153.3 28.35 153.3 28.2 153.55 24.25 153.7 22.75 153.9 20.65 153.95 19.4 Q153.95 17.9 153.2 17.9 152.35 17.9 151.45 20.0 L150.0 23.95 149.85 24.45 Q149.45 25.75 149.45 26.95 L149.5 27.55 149.55 27.85 149.55 28.25 149.45 28.7 149.0 29.3 Q147.25 31.0 145.7 31.0 144.45 31.0 143.6 29.65 143.0 28.6 142.85 27.1 L142.8 26.2 142.95 23.5 143.15 18.9 143.15 17.85 Q143.15 14.85 142.8 13.05 L142.2 11.15 142.5 11.15 144.45 10.05 Q146.65 8.6 148.35 8.6 149.9 8.6 149.9 10.55 L149.8 11.75 149.65 13.0 149.45 15.8 149.45 16.0 149.5 16.3 149.55 16.3" fill="url(#gradient4)" fill-rule="evenodd" stroke="none"/>
    <path d="M194.5 28.75 L194.3 27.7 Q194.3 26.3 195.8 25.3 197.3 24.25 199.4 24.25 202.7 24.25 202.7 26.9 L202.55 27.9 Q202.25 28.8 201.3 29.45 199.9 30.45 197.7 30.45 196.15 30.45 195.2 29.7 L194.5 28.75" fill="url(#gradient5)" fill-rule="evenodd" stroke="none"/>
    <path d="M131.3 19.5 Q131.55 18.05 131.9 17.8 131.2 17.75 131.2 17.0 L131.2 16.15 Q131.2 14.2 129.95 14.2 128.6 14.2 127.6 16.35 126.6 18.55 126.6 21.5 L126.65 22.45 Q126.85 25.15 128.55 25.15 129.5 25.15 130.25 23.8 131.0 22.4 131.2 20.2 L131.3 19.5 M136.7 16.5 L137.05 16.5 Q138.15 16.5 138.15 17.2 L138.05 17.8 137.85 18.65 Q137.3 20.7 137.3 22.3 L137.35 23.3 Q137.65 25.8 139.5 25.8 140.1 25.8 140.75 25.3 L141.0 26.5 140.9 27.6 Q140.65 28.6 139.9 29.35 138.75 30.45 136.85 30.45 133.35 30.45 132.55 27.2 130.65 30.35 127.05 30.35 124.05 30.35 122.3 28.0 120.75 25.95 120.55 22.65 L120.5 21.6 Q120.5 16.55 123.55 12.85 126.6 9.05 130.7 9.05 134.3 9.05 135.9 12.3 136.8 14.2 136.8 15.3 L136.6 16.05 136.25 16.55 136.45 16.5 136.7 16.5" fill="url(#gradient6)" fill-rule="evenodd" stroke="none"/>
    <path d="M98.85 22.55 L98.8 21.55 Q98.8 16.4 101.7 12.7 104.6 9.0 108.7 9.0 110.55 9.0 111.95 9.8 113.0 10.5 114.0 12.05 115.05 13.7 115.05 14.9 L114.9 15.85 114.55 16.6 114.8 16.55 115.05 16.55 115.5 16.5 Q116.35 16.5 116.35 17.35 L116.15 18.75 116.05 19.2 115.8 20.5 115.6 22.55 115.4 26.05 115.35 28.4 115.35 28.7 115.45 32.75 115.45 33.45 Q115.25 37.3 113.15 38.95 111.55 40.15 108.9 40.15 107.1 40.15 105.35 39.25 L104.8 38.95 Q103.5 38.2 102.9 37.2 L102.6 36.6 102.0 35.5 101.8 35.35 Q102.95 33.85 105.05 33.85 L106.3 34.0 107.15 34.35 107.95 34.45 Q109.6 34.45 109.8 32.2 L109.8 31.6 109.75 28.55 Q107.9 30.3 105.05 30.3 102.3 30.3 100.6 27.85 99.05 25.65 98.85 22.55 M109.5 19.15 Q109.65 18.1 110.15 17.8 109.45 17.75 109.45 16.8 L109.45 16.7 109.45 16.0 109.5 15.6 Q109.5 14.15 108.3 14.15 107.2 14.15 106.45 15.3 104.75 18.05 104.75 21.3 L104.8 22.35 Q105.05 25.1 106.7 25.1 107.8 25.1 108.55 23.7 109.3 22.3 109.4 20.1 L109.5 19.15" fill="url(#gradient7)" fill-rule="evenodd" stroke="none"/>
    <path d="M88.2 13.9 Q88.05 12.65 87.65 12.05 L87.95 11.95 90.75 10.75 Q92.65 9.8 93.8 9.8 95.35 9.8 95.35 11.2 L95.25 12.5 95.1 13.4 Q94.7 17.0 94.7 19.5 L94.75 20.25 94.75 21.05 95.1 27.65 95.3 31.35 95.3 32.3 Q95.0 37.05 92.1 38.95 90.1 40.2 87.0 40.2 84.0 40.2 82.75 38.95 81.95 38.2 81.8 36.95 L81.75 36.65 81.5 35.3 81.45 35.15 81.6 35.05 Q82.9 34.15 84.1 34.15 L85.85 34.4 87.4 34.7 Q88.45 34.7 88.7 33.15 L88.75 32.25 88.7 31.3 88.65 29.65 88.6 26.9 Q86.3 30.25 82.95 30.25 80.5 30.25 79.0 28.25 77.7 26.55 77.55 23.9 L77.5 22.95 77.8 17.15 77.9 15.9 77.9 14.8 77.9 14.15 77.8 13.3 Q77.65 12.9 77.05 12.7 L79.75 10.85 Q81.7 9.5 83.1 9.5 84.85 9.5 84.85 11.2 L84.75 12.45 84.3 15.0 83.8 17.55 Q83.45 19.45 83.45 21.45 L83.5 22.25 Q83.7 24.35 85.0 24.35 86.3 24.35 87.25 22.4 88.15 20.5 88.2 17.7 L88.25 16.35 88.25 15.45 88.2 13.9" fill="url(#gradient8)" fill-rule="evenodd" stroke="none"/>
    <path d="M65.9 4.6 L65.55 2.7 65.95 2.6 67.95 1.35 Q68.9 0.75 70.4 0.25 L71.6 0.0 Q73.5 0.0 73.5 2.35 L73.45 3.55 73.05 6.0 Q72.25 10.55 71.85 15.35 L71.45 21.35 71.5 22.15 Q71.75 25.25 74.05 25.25 75.1 25.25 75.75 24.7 76.15 25.2 76.15 26.05 L76.05 27.2 Q75.7 28.45 74.7 29.35 73.25 30.55 70.75 30.55 68.05 30.55 66.45 28.9 65.0 27.4 64.9 24.25 L64.85 23.6 Q64.85 19.55 65.3 15.35 L65.9 10.35 66.0 8.25 66.0 7.05 65.9 4.6" fill="url(#gradient9)" fill-rule="evenodd" stroke="none"/>
    <path d="M60.8 3.5 Q60.35 4.6 58.9 5.6 56.75 7.15 54.5 7.15 53.35 7.15 52.6 6.5 L52.05 5.8 51.85 4.95 51.85 4.8 Q51.85 2.5 55.1 0.9 56.65 0.15 58.0 0.15 61.0 0.15 61.0 2.55 L60.8 3.5" fill="url(#gradient10)" fill-rule="evenodd" stroke="none"/>
    <path d="M52.8 14.9 Q52.5 13.55 52.05 13.0 L52.5 12.95 Q53.4 12.75 55.4 11.5 57.05 10.5 58.6 10.5 60.1 10.5 60.1 12.05 L60.0 13.4 59.85 14.8 59.6 17.9 59.4 21.1 59.45 22.3 Q59.55 24.7 60.05 26.9 60.3 28.05 60.95 28.9 L60.15 29.2 58.7 29.7 Q56.65 30.6 55.6 30.6 54.7 30.6 53.95 30.0 53.15 29.35 52.95 28.65 L52.8 27.55 52.8 27.0 52.85 24.2 53.05 20.85 53.1 20.2 53.1 19.4 52.8 14.9" fill="url(#gradient11)" fill-rule="evenodd" stroke="none"/>
    <path d="M0.15 6.8 L0.0 5.8 Q0.0 3.25 3.0 1.7 5.95 0.1 10.7 0.1 14.1 0.1 17.35 1.2 20.55 2.3 22.5 4.1 26.75 8.0 26.75 14.9 L26.75 15.9 Q26.4 22.25 22.15 26.6 18.15 30.7 11.95 30.7 6.4 30.7 4.1 28.45 2.65 27.05 2.55 22.75 L2.5 21.8 2.8 14.8 3.05 10.8 3.25 8.9 3.65 6.8 Q1.55 7.2 0.65 8.0 L0.15 6.8 M19.1 16.5 L19.1 15.45 Q19.1 11.65 17.35 8.85 15.85 6.4 12.8 6.4 L10.75 6.55 10.7 6.8 Q9.95 10.7 9.9 18.75 L9.9 20.35 9.9 20.55 Q9.95 23.1 10.35 24.1 10.95 25.65 12.7 25.65 15.35 25.65 17.25 22.7 18.85 20.1 19.1 16.5" fill="url(#gradient12)" fill-rule="evenodd" stroke="none"/>
    <path d="M263.55 26.85 L263.5 25.7 263.6 24.4 263.95 22.1 Q264.1 20.75 265.3 18.65 L265.75 18.1 Q266.3 17.35 266.6 17.35 267.1 17.35 267.1 18.3 L267.1 18.5 267.1 20.0 Q267.0 19.35 266.6 19.35 266.3 19.35 265.75 20.1 L265.3 20.65 Q264.1 22.75 263.95 24.1 L263.6 26.4 263.55 26.85 M266.9 24.45 Q267.4 30.4 272.1 30.4 274.45 30.4 276.05 29.05 277.05 28.2 277.4 27.1 L277.55 26.9 277.65 27.6 Q277.65 29.65 276.05 31.05 274.45 32.4 272.1 32.4 266.85 32.4 266.85 24.95 L266.9 24.45 M273.75 23.5 L273.7 22.85 273.85 19.4 273.95 18.1 273.95 19.1 273.85 21.4 273.75 23.5 M253.25 16.3 L253.2 16.3 253.15 16.0 253.15 15.8 253.35 13.0 253.5 11.75 253.6 12.55 253.35 15.0 253.25 16.3 M246.5 13.05 Q246.85 14.85 246.85 17.85 L246.85 18.9 Q246.75 14.75 245.9 13.15 L246.2 13.15 246.5 13.05 M246.55 27.1 Q246.7 28.6 247.3 29.65 248.15 31.0 249.4 31.0 250.95 31.0 252.7 29.3 L253.15 28.7 253.15 28.95 253.2 29.55 253.25 30.25 Q253.25 30.8 252.7 31.3 250.95 33.0 249.4 33.0 248.15 33.0 247.3 31.65 246.5 30.3 246.5 28.2 L246.55 27.1 M253.25 27.85 L253.2 27.55 253.15 26.95 Q253.15 25.75 253.55 24.45 L253.7 23.95 255.15 20.0 Q256.05 17.9 256.9 17.9 257.65 17.9 257.65 19.4 L257.6 20.65 Q257.45 19.9 256.9 19.9 256.05 19.9 255.15 22.0 L253.7 25.95 253.55 26.45 253.25 27.85 M257.05 29.0 Q257.25 30.0 258.2 30.0 L259.4 29.85 260.6 29.5 Q262.35 29.1 262.95 28.55 263.4 28.1 263.5 27.4 L263.5 27.7 263.55 28.85 Q263.55 29.95 262.95 30.55 262.35 31.1 260.6 31.5 L259.4 31.85 258.2 32.0 Q257.0 32.0 257.0 30.35 L257.0 30.2 257.05 29.0 M241.8 21.2 L241.8 22.2 Q241.8 27.1 239.3 29.95 236.75 32.85 232.45 32.85 228.3 32.85 225.65 29.8 222.95 26.7 222.95 22.0 L223.0 21.05 Q223.25 25.05 225.65 27.8 228.3 30.85 232.45 30.85 236.75 30.85 239.3 27.95 241.55 25.4 241.8 21.2 M229.65 19.7 L229.6 18.5 Q229.6 16.65 230.3 15.5 231.0 14.35 232.1 14.35 233.65 14.35 234.7 16.55 235.8 18.7 235.8 21.8 L235.8 22.75 Q235.6 20.3 234.7 18.55 233.65 16.35 232.1 16.35 231.0 16.35 230.3 17.5 229.75 18.4 229.65 19.7 M220.1 14.75 L220.2 15.75 Q220.2 17.3 219.25 18.35 218.3 19.4 216.9 19.4 L215.45 19.1 215.5 18.7 Q215.5 17.75 215.0 17.15 214.45 16.5 213.65 16.5 212.4 16.5 211.6 18.15 210.95 19.4 210.8 21.2 L210.75 20.15 Q210.75 17.75 211.6 16.15 212.4 14.5 213.65 14.5 214.45 14.5 215.0 15.15 215.5 15.75 215.5 16.7 L215.45 17.1 216.9 17.4 Q218.3 17.4 219.25 16.35 219.9 15.65 220.1 14.75 M220.65 25.7 L220.75 26.6 Q220.75 29.25 218.75 30.95 216.7 32.65 213.45 32.65 209.05 32.65 206.6 29.85 204.15 27.1 204.15 22.1 L204.2 21.15 Q204.4 25.4 206.6 27.85 209.05 30.65 213.45 30.65 216.7 30.65 218.75 28.95 220.3 27.6 220.65 25.7 M202.55 27.9 L202.7 28.9 Q202.7 30.45 201.3 31.45 199.9 32.45 197.7 32.45 196.15 32.45 195.2 31.7 194.3 30.95 194.3 29.7 L194.5 28.75 195.2 29.7 Q196.15 30.45 197.7 30.45 199.9 30.45 201.3 29.45 202.25 28.8 202.55 27.9 M189.0 15.75 L189.05 16.8 Q189.05 19.3 187.05 21.55 185.35 23.6 182.85 24.55 182.35 23.85 182.15 22.75 185.1 21.85 187.05 19.55 188.65 17.75 189.0 15.75 M190.8 25.95 L190.9 26.95 Q190.9 29.25 188.7 30.9 186.5 32.5 183.35 32.5 179.55 32.5 177.25 29.65 174.95 26.85 174.95 22.15 L175.0 21.15 Q175.2 25.15 177.25 27.65 179.55 30.5 183.35 30.5 186.5 30.5 188.7 28.9 190.4 27.6 190.8 25.95 M181.3 18.0 L181.2 17.1 Q181.2 15.75 181.8 14.7 182.35 13.7 183.15 13.7 184.2 13.7 184.2 15.05 L184.05 16.2 Q183.8 15.7 183.15 15.7 182.35 15.7 181.8 16.7 L181.3 18.0 M170.25 18.1 L170.25 19.1 170.15 21.4 170.05 23.5 170.0 22.85 170.15 19.4 170.25 18.1 M173.7 27.1 L173.85 26.9 173.95 27.6 Q173.95 29.65 172.35 31.05 170.75 32.4 168.4 32.4 163.15 32.4 163.15 24.95 L163.2 24.45 Q163.7 30.4 168.4 30.4 170.75 30.4 172.35 29.05 173.35 28.2 173.7 27.1 M163.4 20.0 Q163.3 19.35 162.9 19.35 162.6 19.35 162.05 20.1 L161.6 20.65 Q160.4 22.75 160.25 24.1 L159.9 26.4 159.85 26.85 159.8 25.7 159.9 24.4 160.25 22.1 Q160.4 20.75 161.6 18.65 L162.05 18.1 Q162.6 17.35 162.9 17.35 163.4 17.35 163.4 18.3 L163.4 18.5 163.4 20.0 M159.8 27.4 L159.8 27.7 159.85 28.85 Q159.85 29.95 159.25 30.55 158.65 31.1 156.9 31.5 L155.7 31.85 154.5 32.0 Q153.3 32.0 153.3 30.35 L153.3 30.2 153.35 29.0 Q153.55 30.0 154.5 30.0 L155.7 29.85 156.9 29.5 Q158.65 29.1 159.25 28.55 L159.8 27.4 M153.9 20.65 Q153.75 19.9 153.2 19.9 152.35 19.9 151.45 22.0 L150.0 25.95 149.85 26.45 149.55 27.85 149.5 27.55 149.45 26.95 Q149.45 25.75 149.85 24.45 L150.0 23.95 151.45 20.0 Q152.35 17.9 153.2 17.9 153.95 17.9 153.95 19.4 L153.9 20.65 M149.45 28.7 L149.45 28.95 149.5 29.55 149.55 30.25 Q149.55 30.8 149.0 31.3 147.25 33.0 145.7 33.0 144.45 33.0 143.6 31.65 142.8 30.3 142.8 28.2 L142.85 27.1 Q143.0 28.6 143.6 29.65 144.45 31.0 145.7 31.0 147.25 31.0 149.0 29.3 L149.45 28.7 M143.15 18.9 Q143.05 14.75 142.2 13.15 L142.5 13.15 142.8 13.05 Q143.15 14.85 143.15 17.85 L143.15 18.9 M149.8 11.75 L149.9 12.55 149.65 15.0 149.55 16.3 149.5 16.3 149.45 16.0 149.45 15.8 149.65 13.0 149.8 11.75 M131.3 19.5 L131.2 19.0 131.2 18.15 Q131.2 16.2 129.95 16.2 128.6 16.2 127.6 18.35 126.8 20.15 126.65 22.45 L126.6 21.5 Q126.6 18.55 127.6 16.35 128.6 14.2 129.95 14.2 131.2 14.2 131.2 16.15 L131.2 17.0 Q131.2 17.75 131.9 17.8 131.55 18.05 131.3 19.5 M137.85 18.65 Q138.15 18.8 138.15 19.2 L138.05 19.8 137.35 23.3 137.3 22.3 Q137.3 20.7 137.85 18.65 M140.9 27.6 L141.0 28.5 Q141.0 30.25 139.9 31.35 138.75 32.45 136.85 32.45 133.35 32.45 132.55 29.2 130.65 32.35 127.05 32.35 124.05 32.35 122.3 30.0 120.5 27.65 120.5 23.6 L120.55 22.65 Q120.75 25.95 122.3 28.0 124.05 30.35 127.05 30.35 130.65 30.35 132.55 27.2 133.35 30.45 136.85 30.45 138.75 30.45 139.9 29.35 140.65 28.6 140.9 27.6 M136.6 16.05 L136.7 16.5 136.45 16.5 136.25 16.55 136.6 16.05 M114.9 15.85 L115.05 16.55 114.8 16.55 114.55 16.6 114.9 15.85 M116.15 18.75 L116.35 19.35 116.05 21.2 115.8 22.5 115.6 24.55 115.4 28.05 115.35 28.7 115.35 28.4 115.4 26.05 115.6 22.55 115.8 20.5 116.05 19.2 116.15 18.75 M115.45 33.45 L115.45 34.75 Q115.45 39.15 113.15 40.95 111.55 42.15 108.9 42.15 107.1 42.15 105.35 41.25 L104.8 40.95 Q103.5 40.2 102.9 39.2 L102.0 37.5 101.8 37.35 102.6 36.6 102.9 37.2 Q103.5 38.2 104.8 38.95 L105.35 39.25 Q107.1 40.15 108.9 40.15 111.55 40.15 113.15 38.95 115.25 37.3 115.45 33.45 M109.8 32.2 L109.75 30.55 Q107.9 32.3 105.05 32.3 102.3 32.3 100.6 29.85 98.8 27.35 98.8 23.55 L98.85 22.55 Q99.05 25.65 100.6 27.85 102.3 30.3 105.05 30.3 107.9 30.3 109.75 28.55 L109.8 31.6 109.8 32.2 M104.8 22.35 L104.75 21.3 Q104.75 18.05 106.45 15.3 107.2 14.15 108.3 14.15 109.5 14.15 109.5 15.6 L109.45 16.0 109.45 16.7 109.45 16.8 Q109.45 17.75 110.15 17.8 109.65 18.1 109.5 19.15 L109.45 18.8 109.45 18.7 109.45 18.0 109.5 17.6 Q109.5 16.15 108.3 16.15 107.2 16.15 106.45 17.3 105.0 19.65 104.8 22.35 M95.25 12.5 L95.35 13.2 95.1 15.4 94.75 20.25 94.7 19.5 Q94.7 17.0 95.1 13.4 L95.25 12.5 M95.3 32.3 L95.3 33.35 Q95.3 38.85 92.1 40.95 90.1 42.2 87.0 42.2 84.0 42.2 82.75 40.95 81.85 40.1 81.75 38.65 L81.5 37.3 81.45 37.15 81.6 37.05 81.8 36.95 Q81.95 38.2 82.75 38.95 84.0 40.2 87.0 40.2 90.1 40.2 92.1 38.95 95.0 37.05 95.3 32.3 M88.7 33.15 L88.65 31.65 88.6 28.9 Q86.3 32.25 82.95 32.25 80.5 32.25 79.0 30.25 77.5 28.25 77.5 24.95 L77.55 23.9 Q77.7 26.55 79.0 28.25 80.5 30.25 82.95 30.25 86.3 30.25 88.6 26.9 L88.65 29.65 88.7 31.3 88.75 32.25 88.7 33.15 M77.9 15.9 L77.8 15.3 Q77.65 14.9 77.05 14.7 L77.9 14.15 77.9 14.8 77.9 15.9 M84.75 12.45 L84.85 13.2 84.3 17.0 83.8 19.55 83.5 22.25 83.45 21.45 Q83.45 19.45 83.8 17.55 L84.3 15.0 84.75 12.45 M88.25 16.35 Q88.15 14.75 87.65 14.05 L87.95 13.95 88.2 13.9 88.25 15.45 88.25 16.35 M73.45 3.55 L73.5 4.35 73.05 8.0 Q72.25 12.55 71.85 17.35 L71.5 22.15 71.45 21.35 71.85 15.35 Q72.25 10.55 73.05 6.0 L73.45 3.55 M76.05 27.2 L76.15 28.05 Q76.15 30.1 74.7 31.35 73.25 32.55 70.75 32.55 68.05 32.55 66.45 30.9 64.85 29.25 64.85 25.6 L64.9 24.25 Q65.0 27.4 66.45 28.9 68.05 30.55 70.75 30.55 73.25 30.55 74.7 29.35 75.7 28.45 76.05 27.2 M66.0 8.25 Q65.95 5.85 65.55 4.7 L65.9 4.6 66.0 7.05 66.0 8.25 M60.8 3.5 L61.0 4.55 Q61.0 6.15 58.9 7.6 56.75 9.15 54.5 9.15 53.35 9.15 52.6 8.5 51.85 7.9 51.85 6.95 L51.85 6.8 52.05 5.8 52.6 6.5 Q53.35 7.15 54.5 7.15 56.75 7.15 58.9 5.6 60.35 4.6 60.8 3.5 M60.0 13.4 L60.1 14.05 59.85 16.8 59.6 19.9 59.45 22.3 59.4 21.1 59.6 17.9 59.85 14.8 60.0 13.4 M60.15 29.2 Q60.4 30.15 60.95 30.9 L58.7 31.7 Q56.65 32.6 55.6 32.6 54.7 32.6 53.95 32.0 53.15 31.35 52.95 30.65 52.8 30.2 52.8 29.0 L52.8 27.55 52.95 28.65 Q53.15 29.35 53.95 30.0 54.7 30.6 55.6 30.6 56.65 30.6 58.7 29.7 L60.15 29.2 M53.1 20.2 Q52.95 16.1 52.05 15.0 L52.5 14.95 52.8 14.9 53.1 19.4 53.1 20.2 M46.7 23.3 L46.65 22.3 Q46.65 20.7 47.2 18.65 L47.5 19.2 47.4 19.8 Q46.85 21.75 46.7 23.3 M40.55 17.0 Q40.55 17.75 41.25 17.8 40.9 18.05 40.65 19.5 L40.55 19.0 40.55 18.15 Q40.55 16.2 39.3 16.2 37.95 16.2 36.95 18.35 36.15 20.15 36.0 22.45 L35.95 21.5 Q35.95 18.55 36.95 16.35 37.95 14.2 39.3 14.2 40.55 14.2 40.55 16.15 L40.55 17.0 M46.05 16.5 L45.8 16.5 45.6 16.55 45.95 16.05 46.05 16.5 M26.75 15.9 L26.75 16.9 Q26.75 23.9 22.15 28.6 18.15 32.7 11.95 32.7 6.4 32.7 4.1 30.45 2.5 28.9 2.5 23.8 L2.55 22.75 Q2.65 27.05 4.1 28.45 6.4 30.7 11.95 30.7 18.15 30.7 22.15 26.6 26.4 22.25 26.75 15.9 M3.25 8.9 Q1.45 9.3 0.65 10.0 0.0 8.85 0.0 7.8 0.0 7.25 0.15 6.8 L0.65 8.0 Q1.55 7.2 3.65 6.8 L3.25 8.9 M9.9 20.35 L9.9 18.75 Q9.95 10.7 10.7 6.8 L10.75 6.55 12.8 6.4 Q15.85 6.4 17.35 8.85 19.1 11.65 19.1 15.45 L19.1 16.5 Q18.9 13.3 17.35 10.85 15.85 8.4 12.8 8.4 L10.75 8.55 10.7 8.8 Q9.95 12.6 9.9 20.35" fill="#86111a" fill-rule="evenodd" stroke="none"/>
    <path d="M29.9 22.65 L29.85 21.6 Q29.85 16.55 32.9 12.85 35.95 9.05 40.05 9.05 43.65 9.05 45.25 12.3 46.15 14.2 46.15 15.3 L45.95 16.05 45.6 16.55 45.8 16.5 46.4 16.5 Q47.5 16.5 47.5 17.2 L47.4 17.8 47.2 18.65 Q46.65 20.7 46.65 22.3 L46.7 23.3 Q47.0 25.8 48.85 25.8 49.45 25.8 50.1 25.3 L50.35 26.5 50.25 27.6 49.25 29.35 Q48.1 30.45 46.2 30.45 42.7 30.45 41.9 27.2 40.0 30.35 36.4 30.35 33.4 30.35 31.65 28.0 30.1 25.95 29.9 22.65 M40.55 17.0 L40.55 16.15 Q40.55 14.2 39.3 14.2 37.95 14.2 36.95 16.35 35.95 18.55 35.95 21.5 L36.0 22.45 Q36.2 25.15 37.9 25.15 38.85 25.15 39.6 23.8 40.35 22.4 40.55 20.2 L40.65 19.5 Q40.9 18.05 41.25 17.8 40.55 17.75 40.55 17.0" fill="url(#gradient13)" fill-rule="evenodd" stroke="none"/>
    <path d="M50.25 27.6 L50.35 28.5 Q50.35 30.25 49.25 31.35 48.1 32.45 46.2 32.45 42.7 32.45 41.9 29.2 40.0 32.35 36.4 32.35 33.4 32.35 31.65 30.0 29.85 27.65 29.85 23.6 L29.9 22.65 Q30.1 25.95 31.65 28.0 33.4 30.35 36.4 30.35 40.0 30.35 41.9 27.2 42.7 30.45 46.2 30.45 48.1 30.45 49.25 29.35 L50.25 27.6" fill="#86111a" fill-rule="evenodd" stroke="none"/>
  </g>
  <defs>
    <linearGradient gradientTransform="matrix(0.0, 0.015, -0.0137, 0.0, 261.75, 19.8)" gradientUnits="userSpaceOnUse" id="gradient0" spreadMethod="pad" x1="-819.2" x2="819.2">
      <stop offset="0.0" stop-color="#ffffff"/>
      <stop offset="1.0" stop-color="#d8e4e4"/>
    </linearGradient>
    <linearGradient gradientTransform="matrix(0.0, 0.0148, -0.0133, 0.0, 232.35, 19.95)" gradientUnits="userSpaceOnUse" id="gradient1" spreadMethod="pad" x1="-819.2" x2="819.2">
      <stop offset="0.0" stop-color="#ffffff"/>
      <stop offset="1.0" stop-color="#d8e4e4"/>
    </linearGradient>
    <linearGradient gradientTransform="matrix(0.0, 0.0148, -0.0132, 0.0, 212.45, 19.95)" gradientUnits="userSpaceOnUse" id="gradient2" spreadMethod="pad" x1="-819.2" x2="819.2">
      <stop offset="0.0" stop-color="#ffffff"/>
      <stop offset="1.0" stop-color="#d8e4e4"/>
    </linearGradient>
    <linearGradient gradientTransform="matrix(0.0, 0.0152, -0.0133, 0.0, 182.95, 19.65)" gradientUnits="userSpaceOnUse" id="gradient3" spreadMethod="pad" x1="-819.2" x2="819.2">
      <stop offset="0.0" stop-color="#ffffff"/>
      <stop offset="1.0" stop-color="#d8e4e4"/>
    </linearGradient>
    <linearGradient gradientTransform="matrix(0.0, 0.015, -0.0137, 0.0, 158.05, 19.8)" gradientUnits="userSpaceOnUse" id="gradient4" spreadMethod="pad" x1="-819.2" x2="819.2">
      <stop offset="0.0" stop-color="#ffffff"/>
      <stop offset="1.0" stop-color="#d8e4e4"/>
    </linearGradient>
    <linearGradient gradientTransform="matrix(0.0, 0.0051, -0.0038, 0.0, 198.5, 27.35)" gradientUnits="userSpaceOnUse" id="gradient5" spreadMethod="pad" x1="-819.2" x2="819.2">
      <stop offset="0.0" stop-color="#ffffff"/>
      <stop offset="1.0" stop-color="#d8e4e4"/>
    </linearGradient>
    <linearGradient gradientTransform="matrix(0.0, 0.0125, -0.0131, 0.0, 130.75, 19.75)" gradientUnits="userSpaceOnUse" id="gradient6" spreadMethod="pad" x1="-819.2" x2="819.2">
      <stop offset="0.0" stop-color="#ffffff"/>
      <stop offset="1.0" stop-color="#d8e4e4"/>
    </linearGradient>
    <linearGradient gradientTransform="matrix(0.0, 0.0214, -0.019, 0.0, 107.55, 24.55)" gradientUnits="userSpaceOnUse" id="gradient7" spreadMethod="pad" x1="-819.2" x2="819.2">
      <stop offset="0.0" stop-color="#ffffff"/>
      <stop offset="1.0" stop-color="#d8e4e4"/>
    </linearGradient>
    <linearGradient gradientTransform="matrix(0.0, 0.0211, -0.0187, 0.0, 86.2, 24.85)" gradientUnits="userSpaceOnUse" id="gradient8" spreadMethod="pad" x1="-819.2" x2="819.2">
      <stop offset="0.0" stop-color="#ffffff"/>
      <stop offset="1.0" stop-color="#d8e4e4"/>
    </linearGradient>
    <linearGradient gradientTransform="matrix(0.0, 0.0205, -0.0186, 0.0, 70.55, 15.3)" gradientUnits="userSpaceOnUse" id="gradient9" spreadMethod="pad" x1="-819.2" x2="819.2">
      <stop offset="0.0" stop-color="#ffffff"/>
      <stop offset="1.0" stop-color="#d8e4e4"/>
    </linearGradient>
    <linearGradient gradientTransform="matrix(0.0, 0.0056, -0.0043, 0.0, 56.4, 3.65)" gradientUnits="userSpaceOnUse" id="gradient10" spreadMethod="pad" x1="-819.2" x2="819.2">
      <stop offset="0.0" stop-color="#ffffff"/>
      <stop offset="1.0" stop-color="#d8e4e4"/>
    </linearGradient>
    <linearGradient gradientTransform="matrix(0.0, 0.0141, -0.0123, 0.0, 56.5, 20.55)" gradientUnits="userSpaceOnUse" id="gradient11" spreadMethod="pad" x1="-819.2" x2="819.2">
      <stop offset="0.0" stop-color="#ffffff"/>
      <stop offset="1.0" stop-color="#d8e4e4"/>
    </linearGradient>
    <linearGradient gradientTransform="matrix(0.0, 0.0163, -0.0187, 0.0, 13.35, 15.4)" gradientUnits="userSpaceOnUse" id="gradient12" spreadMethod="pad" x1="-819.2" x2="819.2">
      <stop offset="0.0" stop-color="#ffffff"/>
      <stop offset="1.0" stop-color="#d8e4e4"/>
    </linearGradient>
    <linearGradient gradientTransform="matrix(0.0, 0.0125, -0.0131, 0.0, 40.1, 19.75)" gradientUnits="userSpaceOnUse" id="gradient13" spreadMethod="pad" x1="-819.2" x2="819.2">
      <stop offset="0.0" stop-color="#ffffff"/>
      <stop offset="1.0" stop-color="#d8e4e4"/>
    </linearGradient>
  </defs>
</svg>
