<?xml version="1.0" encoding="UTF-8" standalone="no"?>
<svg xmlns:ffdec="https://www.free-decompiler.com/flash" xmlns:xlink="http://www.w3.org/1999/xlink" ffdec:objectType="shape" height="33.2px" width="90.45px" xmlns="http://www.w3.org/2000/svg">
  <g transform="matrix(1.0, 0.0, 0.0, 1.0, 0.0, 0.0)">
    <path d="M85.95 9.25 L87.0 10.1 Q90.45 13.2 90.45 16.6 90.45 18.5 89.4 20.3 L90.15 22.65 90.2 22.95 89.85 24.2 88.65 24.75 88.6 24.8 84.95 24.95 84.65 24.95 Q81.6 26.9 77.1 28.5 70.8 30.75 62.7 32.0 L45.7 33.2 Q36.85 33.2 28.75 32.0 20.65 30.75 14.35 28.5 10.75 27.2 8.1 25.7 L3.6 26.05 Q2.9 26.05 2.45 25.6 1.95 25.2 1.85 24.55 L1.3 20.6 1.3 20.5 Q1.2 19.75 1.55 19.3 1.0 17.95 1.0 16.6 1.0 14.8 2.0 13.1 1.4 13.05 1.05 12.7 0.55 12.25 0.5 11.55 L0.0 7.75 Q-0.1 7.0 0.35 6.45 0.85 5.9 1.6 5.8 L14.65 4.6 Q20.85 2.4 28.75 1.2 L45.7 0.0 62.7 1.2 Q70.8 2.45 77.1 4.7 80.6 6.0 83.25 7.5 L84.15 7.4 Q84.7 7.4 85.15 7.75 L85.75 8.6 85.95 9.25 M84.7 8.2 L84.1 8.0 84.05 8.0 78.2 8.45 Q77.85 8.45 77.65 8.7 L77.35 9.3 75.15 23.5 75.15 23.65 75.15 23.7 75.45 24.35 76.1 24.6 79.8 24.25 80.4 24.0 80.7 23.4 80.9 21.4 83.45 21.2 83.95 23.35 83.95 23.4 84.3 23.9 84.9 24.1 88.55 23.95 89.25 23.6 89.45 22.9 89.4 22.75 85.05 8.75 84.7 8.2 M81.0 17.9 L81.6 13.4 81.65 13.4 82.95 17.85 81.05 17.9 81.0 17.9 M81.45 23.65 L80.95 24.65 Q80.5 25.05 79.9 25.1 L76.15 25.45 Q75.5 25.45 75.05 25.0 74.55 24.55 74.5 23.85 L74.5 23.8 74.5 23.5 75.55 16.95 73.95 18.6 71.9 19.95 Q70.45 20.7 68.9 21.0 L68.95 23.8 Q68.9 24.5 68.5 24.95 68.05 25.45 67.4 25.55 L62.9 26.0 62.7 26.0 61.5 25.55 Q61.0 25.1 61.0 24.4 L60.05 24.75 56.45 24.95 Q55.85 24.95 55.3 24.5 L54.7 23.6 54.4 22.1 53.0 22.15 52.95 23.35 52.95 23.5 Q52.85 24.1 52.35 24.55 51.85 25.05 51.25 25.1 L50.85 25.15 50.9 25.2 51.05 25.35 51.35 26.1 52.05 27.7 52.85 25.3 52.9 25.25 53.15 25.05 55.05 25.0 55.3 25.05 55.45 25.35 55.85 30.65 55.85 30.75 55.7 31.0 55.55 31.05 54.0 31.2 53.95 31.2 53.85 31.2 53.65 31.05 53.55 30.8 53.45 29.2 53.0 30.75 52.75 31.05 51.65 31.1 51.45 31.05 51.3 30.85 51.0 30.1 50.7 29.3 50.7 30.95 50.6 31.2 50.35 31.3 48.75 31.3 48.55 31.25 Q48.4 31.15 48.4 30.9 L48.4 30.35 48.25 30.55 Q47.35 31.7 45.75 31.75 L45.55 31.75 Q43.9 31.75 42.95 30.8 L42.75 30.55 42.8 30.75 42.7 31.1 Q42.3 31.5 41.6 31.7 L40.35 31.9 40.15 31.9 Q38.45 31.9 37.45 30.95 36.5 30.1 36.5 28.85 36.45 27.2 37.6 26.25 38.3 25.65 39.4 25.35 L35.0 26.05 34.7 26.05 Q34.0 26.05 33.55 25.6 33.05 25.15 33.0 24.5 L33.0 24.2 32.95 24.2 Q32.5 24.7 31.8 24.75 L28.2 24.95 Q27.6 24.95 27.15 24.6 26.7 24.25 26.55 23.7 L26.2 22.05 24.75 22.15 24.55 23.65 Q24.5 24.25 24.05 24.65 23.65 25.05 23.05 25.1 L19.4 25.45 Q18.75 25.45 18.25 25.0 L17.9 24.5 Q17.45 24.9 16.8 24.95 L9.35 25.6 Q11.65 26.8 14.6 27.85 20.7 30.0 28.6 31.25 L45.7 32.5 62.85 31.25 Q70.75 30.0 76.85 27.85 81.0 26.35 83.9 24.55 L83.3 23.7 82.95 22.1 81.6 22.15 81.45 23.65 M89.1 19.3 Q89.7 17.95 89.7 16.6 89.7 13.4 86.35 10.5 L89.1 19.3 M60.05 6.15 L60.0 5.8 Q60.0 5.05 60.45 4.55 60.95 4.05 61.7 4.0 L63.8 3.95 67.8 4.15 71.6 4.8 Q73.15 5.25 74.1 6.0 75.35 6.95 76.05 8.55 L76.6 10.15 76.7 9.3 Q76.75 8.7 77.2 8.25 77.6 7.85 78.2 7.8 L80.15 7.7 81.95 7.55 Q79.7 6.4 76.85 5.35 70.75 3.2 62.85 1.95 L45.7 0.7 Q36.75 0.7 28.6 1.95 21.65 3.05 16.1 4.85 L16.3 5.0 16.65 5.45 16.8 6.15 17.15 10.1 17.2 10.6 17.1 11.35 16.8 11.9 16.65 12.1 11.75 17.85 16.5 17.55 Q17.2 17.55 17.7 18.0 18.15 18.45 18.2 19.15 L18.25 20.0 19.8 9.3 19.85 9.1 Q19.95 8.65 20.3 8.25 20.75 7.85 21.35 7.8 L25.15 7.55 27.3 7.4 Q27.85 7.4 28.3 7.75 28.75 8.05 28.9 8.6 L32.65 20.65 31.25 6.25 31.2 6.0 Q31.15 5.25 31.6 4.7 32.05 4.15 32.8 4.1 L37.05 3.95 38.9 3.95 42.75 4.5 Q43.7 4.7 44.45 5.05 L45.3 5.55 Q46.6 6.45 47.35 8.05 L48.0 9.75 48.05 9.3 Q48.1 8.7 48.55 8.25 49.0 7.85 49.6 7.8 L55.5 7.4 Q56.1 7.4 56.5 7.75 L57.15 8.6 60.8 20.35 60.05 6.15 M75.35 8.8 Q74.75 7.3 73.6 6.45 72.75 5.8 71.3 5.4 L67.65 4.75 63.75 4.6 61.65 4.6 Q61.2 4.65 60.95 4.95 60.65 5.2 60.7 5.65 L61.65 24.25 Q61.65 24.65 61.95 24.95 L62.65 25.2 67.25 24.7 Q67.65 24.65 67.9 24.4 L68.15 23.7 68.1 20.25 Q69.75 20.05 71.3 19.35 L73.45 17.95 Q76.2 15.75 76.05 12.2 76.0 10.3 75.35 8.8 M68.5 11.6 L68.5 14.2 68.65 14.15 69.05 14.0 Q69.6 13.65 69.6 12.85 69.6 12.2 69.05 11.85 L68.5 11.6 M68.1 10.7 L69.0 10.9 Q70.25 11.45 70.25 12.95 70.25 13.7 69.85 14.15 69.3 14.75 67.7 15.05 L67.7 10.65 68.1 10.7 M56.05 8.2 L55.45 8.0 55.4 8.0 49.6 8.45 Q49.25 8.45 49.0 8.7 L48.7 9.3 46.55 23.5 46.55 23.65 46.55 23.7 Q46.55 24.1 46.85 24.35 L47.5 24.6 51.15 24.25 51.8 23.95 52.15 23.3 52.25 21.4 54.9 21.2 55.3 23.3 55.7 23.85 56.4 24.1 59.9 23.95 60.6 23.6 60.8 22.9 56.4 8.75 56.05 8.2 M44.8 6.05 Q43.9 5.4 42.45 5.05 L38.8 4.6 37.0 4.55 32.8 4.75 Q32.35 4.75 32.1 5.05 31.85 5.35 31.85 5.8 L33.65 24.3 33.95 25.0 34.65 25.25 34.85 25.25 39.3 24.55 39.9 24.2 40.15 23.5 39.95 20.05 Q41.6 19.8 43.05 19.0 L45.2 17.5 Q47.8 15.2 47.55 11.65 47.4 9.75 46.7 8.3 46.0 6.85 44.8 6.05 M45.7 18.15 L43.7 19.6 40.75 20.75 40.9 23.55 Q40.95 24.25 40.55 24.75 L39.75 25.3 41.1 25.15 41.2 25.15 41.5 25.25 41.65 25.45 41.95 26.95 41.85 27.25 41.6 27.4 40.95 27.4 Q39.95 27.45 39.4 27.85 38.95 28.2 39.0 28.75 39.0 29.15 39.3 29.4 L40.25 29.65 40.35 29.65 Q41.15 29.6 41.9 29.15 L42.1 29.1 42.15 29.1 42.1 28.65 Q42.05 27.4 42.85 26.4 43.8 25.2 45.6 25.15 L45.75 25.15 Q46.85 25.15 47.65 25.85 L48.5 26.8 48.5 25.55 48.55 25.35 47.55 25.45 Q46.85 25.45 46.4 25.0 45.9 24.55 45.85 23.85 L45.85 23.8 45.85 23.5 46.9 16.9 45.7 18.15 M41.2 12.6 Q41.15 11.9 40.55 11.55 L40.15 11.4 39.95 11.4 40.1 14.1 40.25 14.05 40.65 13.9 Q41.25 13.5 41.2 12.6 M41.75 12.65 L41.45 13.85 Q40.95 14.5 39.35 14.85 L39.1 10.5 39.55 10.55 40.45 10.75 Q41.75 11.3 41.75 12.65 M52.3 17.9 L52.9 13.45 54.2 17.85 52.4 17.9 52.3 17.9 M55.1 25.35 L53.2 25.4 52.15 28.45 52.05 28.5 51.95 28.45 50.7 25.5 48.85 25.55 48.75 30.95 50.35 30.95 50.35 27.75 50.45 27.7 50.55 27.75 51.65 30.75 52.6 30.7 52.65 30.65 53.55 27.65 53.6 27.6 53.75 27.65 53.9 30.8 53.95 30.85 55.5 30.7 55.5 30.65 55.1 25.35 M47.45 26.1 Q46.7 25.5 45.65 25.5 44.0 25.55 43.15 26.65 42.45 27.5 42.45 28.65 42.5 29.8 43.2 30.55 44.1 31.45 45.75 31.4 47.15 31.35 47.95 30.3 48.6 29.45 48.55 28.45 L48.35 27.35 Q48.05 26.6 47.45 26.1 M46.3 27.9 Q46.0 27.55 45.55 27.55 L45.5 27.55 Q45.05 27.6 44.8 27.95 44.55 28.3 44.55 28.65 L44.8 29.3 Q45.1 29.65 45.55 29.65 L45.6 29.65 Q46.05 29.65 46.35 29.25 L46.55 28.6 46.3 27.9 M46.9 28.55 L46.65 29.45 Q46.25 30.0 45.6 30.0 44.95 30.05 44.55 29.55 44.2 29.1 44.2 28.65 44.2 28.2 44.5 27.75 44.85 27.2 45.5 27.2 46.15 27.2 46.55 27.7 46.9 28.1 46.9 28.55 M41.3 25.5 L41.1 25.5 Q38.95 25.55 37.85 26.5 36.8 27.4 36.85 28.8 36.9 29.95 37.7 30.7 38.65 31.6 40.35 31.5 L41.5 31.35 42.45 30.85 42.45 30.8 42.25 30.15 42.1 29.5 40.35 30.0 Q39.5 30.05 39.05 29.65 38.65 29.35 38.65 28.8 38.6 28.05 39.2 27.6 39.8 27.1 40.95 27.05 L41.6 27.05 41.6 27.0 41.3 25.5 M20.75 8.7 L20.45 9.3 18.4 23.5 18.4 23.65 18.4 23.7 18.7 24.35 19.35 24.6 22.95 24.25 23.5 24.0 23.8 23.4 24.05 21.4 26.7 21.2 27.2 23.35 27.2 23.4 27.55 23.9 Q27.8 24.1 28.15 24.1 L31.7 23.95 32.35 23.6 32.55 22.9 32.55 22.75 28.15 8.75 27.8 8.2 27.25 8.0 27.15 8.0 21.35 8.45 Q21.0 8.45 20.75 8.7 M24.7 13.4 L26.0 17.85 24.15 17.9 24.05 17.9 24.65 13.4 24.7 13.4 M16.15 11.65 L16.2 11.55 16.45 11.1 16.5 10.65 16.1 6.2 15.8 5.55 15.15 5.3 1.65 6.55 Q1.2 6.55 0.95 6.9 0.7 7.2 0.75 7.65 L1.2 11.5 Q1.25 11.9 1.55 12.15 1.8 12.4 2.2 12.4 L2.3 12.4 8.6 11.9 2.3 19.5 Q2.1 19.7 2.05 20.0 L2.05 20.45 2.6 24.45 Q2.65 24.85 2.95 25.1 L3.6 25.35 3.7 25.3 16.75 24.25 Q17.2 24.25 17.5 23.9 L17.7 23.15 17.5 19.2 17.2 18.5 Q16.95 18.25 16.55 18.25 L16.45 18.25 10.1 18.65 16.15 11.65 M2.85 13.05 Q1.75 14.8 1.75 16.6 1.75 17.6 2.1 18.6 L6.95 12.75 2.85 13.05 M35.7 29.95 L36.45 30.1 Q37.0 30.35 37.0 30.8 37.0 31.25 36.45 31.5 L35.65 31.7 35.6 31.7 34.85 31.55 Q34.3 31.3 34.25 30.85 34.25 30.4 34.8 30.15 L35.6 29.95 35.7 29.95 M36.3 30.45 L35.6 30.3 34.95 30.45 Q34.65 30.6 34.65 30.85 34.65 31.1 34.95 31.2 L35.65 31.35 36.3 31.2 36.65 30.8 36.3 30.45" fill="#801421" fill-rule="evenodd" stroke="none"/>
    <path d="M81.45 23.65 L81.6 22.15 82.95 22.1 83.3 23.7 83.9 24.55 Q81.0 26.35 76.85 27.85 70.75 30.0 62.85 31.25 L45.7 32.5 28.6 31.25 Q20.7 30.0 14.6 27.85 11.65 26.8 9.35 25.6 L16.8 24.95 Q17.45 24.9 17.9 24.5 L18.25 25.0 Q18.75 25.45 19.4 25.45 L23.05 25.1 Q23.65 25.05 24.05 24.65 24.5 24.25 24.55 23.65 L24.75 22.15 26.2 22.05 26.55 23.7 Q26.7 24.25 27.15 24.6 27.6 24.95 28.2 24.95 L31.8 24.75 Q32.5 24.7 32.95 24.2 L33.0 24.2 33.0 24.5 Q33.05 25.15 33.55 25.6 34.0 26.05 34.7 26.05 L35.0 26.05 39.4 25.35 Q38.3 25.65 37.6 26.25 36.45 27.2 36.5 28.85 36.5 30.1 37.45 30.95 38.45 31.9 40.15 31.9 L40.35 31.9 41.6 31.7 Q42.3 31.5 42.7 31.1 L42.8 30.75 42.75 30.55 42.95 30.8 Q43.9 31.75 45.55 31.75 L45.75 31.75 Q47.35 31.7 48.25 30.55 L48.4 30.35 48.4 30.9 Q48.4 31.15 48.55 31.25 L48.75 31.3 50.35 31.3 50.6 31.2 50.7 30.95 50.7 29.3 51.0 30.1 51.3 30.85 51.45 31.05 51.65 31.1 52.75 31.05 53.0 30.75 53.45 29.2 53.55 30.8 53.65 31.05 53.85 31.2 53.95 31.2 54.0 31.2 55.55 31.05 55.7 31.0 55.85 30.75 55.85 30.65 55.45 25.35 55.3 25.05 55.05 25.0 53.15 25.05 52.9 25.25 52.85 25.3 52.05 27.7 51.35 26.1 51.05 25.35 50.9 25.2 50.85 25.15 51.25 25.1 Q51.85 25.05 52.35 24.55 52.85 24.1 52.95 23.5 L52.95 23.35 53.0 22.15 54.4 22.1 54.7 23.6 55.3 24.5 Q55.85 24.95 56.45 24.95 L60.05 24.75 61.0 24.4 Q61.0 25.1 61.5 25.55 L62.7 26.0 62.9 26.0 67.4 25.55 Q68.05 25.45 68.5 24.95 68.9 24.5 68.95 23.8 L68.9 21.0 Q70.45 20.7 71.9 19.95 L73.95 18.6 75.55 16.95 74.5 23.5 74.5 23.8 74.5 23.85 Q74.55 24.55 75.05 25.0 75.5 25.45 76.15 25.45 L79.9 25.1 Q80.5 25.05 80.95 24.65 L81.45 23.65 M89.1 19.3 L86.35 10.5 Q89.7 13.4 89.7 16.6 89.7 17.95 89.1 19.3 M80.15 7.7 Q74.8 5.0 67.15 3.3 57.2 1.1 45.7 1.1 35.3 1.1 26.05 2.95 20.85 3.95 16.65 5.45 L16.3 5.0 16.1 4.85 Q21.65 3.05 28.6 1.95 36.75 0.7 45.7 0.7 L62.85 1.95 Q70.75 3.2 76.85 5.35 79.7 6.4 81.95 7.55 L80.15 7.7 M17.15 10.1 L19.85 9.1 19.8 9.3 18.25 20.0 18.2 19.15 Q18.15 18.45 17.7 18.0 17.2 17.55 16.5 17.55 L11.75 17.85 16.65 12.1 16.8 11.9 17.1 11.35 17.2 10.6 17.15 10.1 M25.15 7.55 L26.55 7.2 31.25 6.25 32.65 20.65 28.9 8.6 Q28.75 8.05 28.3 7.75 27.85 7.4 27.3 7.4 L25.15 7.55 M44.45 5.05 L60.05 6.15 60.8 20.35 57.15 8.6 56.5 7.75 Q56.1 7.4 55.5 7.4 L49.6 7.8 Q49.0 7.85 48.55 8.25 48.1 8.7 48.05 9.3 L48.0 9.75 47.35 8.05 Q46.6 6.45 45.3 5.55 L44.45 5.05 M68.5 11.6 L69.05 11.85 Q69.6 12.2 69.6 12.85 69.6 13.65 69.05 14.0 L68.65 14.15 68.5 14.2 68.5 11.6 M41.2 12.6 Q41.25 13.5 40.65 13.9 L40.25 14.05 40.1 14.1 39.95 11.4 40.15 11.4 40.55 11.55 Q41.15 11.9 41.2 12.6 M45.7 18.15 L46.9 16.9 45.85 23.5 45.85 23.8 45.85 23.85 Q45.9 24.55 46.4 25.0 46.85 25.45 47.55 25.45 L48.55 25.35 48.5 25.55 48.5 26.8 47.65 25.85 Q46.85 25.15 45.75 25.15 L45.6 25.15 Q43.8 25.2 42.85 26.4 42.05 27.4 42.1 28.65 L42.15 29.1 42.1 29.1 41.9 29.15 Q41.15 29.6 40.35 29.65 L40.25 29.65 39.3 29.4 Q39.0 29.15 39.0 28.75 38.95 28.2 39.4 27.85 39.95 27.45 40.95 27.4 L41.6 27.4 41.85 27.25 41.95 26.95 41.65 25.45 41.5 25.25 41.2 25.15 41.1 25.15 39.75 25.3 40.55 24.75 Q40.95 24.25 40.9 23.55 L40.75 20.75 43.7 19.6 45.7 18.15 M46.3 27.9 L46.55 28.6 46.35 29.25 Q46.05 29.65 45.6 29.65 L45.55 29.65 Q45.1 29.65 44.8 29.3 L44.55 28.65 Q44.55 28.3 44.8 27.95 45.05 27.6 45.5 27.55 L45.55 27.55 Q46.0 27.55 46.3 27.9 M2.85 13.05 L6.95 12.75 2.1 18.6 Q1.75 17.6 1.75 16.6 1.75 14.8 2.85 13.05 M35.7 29.95 L35.6 29.95 34.8 30.15 Q34.25 30.4 34.25 30.85 34.3 31.3 34.85 31.55 L35.6 31.7 35.65 31.7 36.45 31.5 Q37.0 31.25 37.0 30.8 37.0 30.35 36.45 30.1 L35.7 29.95" fill="url(#gradient0)" fill-rule="evenodd" stroke="none"/>
    <path d="M80.15 7.7 L78.2 7.8 Q77.6 7.85 77.2 8.25 76.75 8.7 76.7 9.3 L76.6 10.15 76.05 8.55 Q75.35 6.95 74.1 6.0 73.15 5.25 71.6 4.8 L67.8 4.15 63.8 3.95 61.7 4.0 Q60.95 4.05 60.45 4.55 60.0 5.05 60.0 5.8 L60.05 6.15 44.45 5.05 Q43.7 4.7 42.75 4.5 L38.9 3.95 37.05 3.95 32.8 4.1 Q32.05 4.15 31.6 4.7 31.15 5.25 31.2 6.0 L31.25 6.25 26.55 7.2 25.15 7.55 21.35 7.8 Q20.75 7.85 20.3 8.25 19.95 8.65 19.85 9.1 L17.15 10.1 16.8 6.15 16.65 5.45 Q20.85 3.95 26.05 2.95 35.3 1.1 45.7 1.1 57.2 1.1 67.15 3.3 74.8 5.0 80.15 7.7" fill="url(#gradient1)" fill-rule="evenodd" stroke="none"/>
    <path d="M16.15 11.65 L10.1 18.65 16.45 18.25 16.55 18.25 Q16.95 18.25 17.2 18.5 L17.5 19.2 17.7 23.15 17.5 23.9 Q17.2 24.25 16.75 24.25 L3.7 25.3 3.6 25.35 2.95 25.1 Q2.65 24.85 2.6 24.45 L2.05 20.45 2.05 20.0 Q2.1 19.7 2.3 19.5 L8.6 11.9 2.3 12.4 2.2 12.4 Q1.8 12.4 1.55 12.15 1.25 11.9 1.2 11.5 L0.75 7.65 Q0.7 7.2 0.95 6.9 1.2 6.55 1.65 6.55 L15.15 5.3 15.8 5.55 16.1 6.2 16.5 10.65 16.45 11.1 16.2 11.55 16.15 11.65 M15.85 10.9 L15.35 6.0 1.4 7.25 1.95 11.7 8.6 11.2 8.9 11.2 9.35 11.45 9.4 11.8 9.25 12.25 2.7 20.1 3.35 24.6 16.7 23.55 17.0 23.2 16.8 18.95 10.0 19.4 Q9.15 19.45 9.1 19.0 L9.2 18.65 9.25 18.5 15.85 10.9" fill="url(#gradient2)" fill-rule="evenodd" stroke="none"/>
    <path d="M44.8 6.05 Q46.0 6.85 46.7 8.3 47.4 9.75 47.55 11.65 47.8 15.2 45.2 17.5 L43.05 19.0 Q41.6 19.8 39.95 20.05 L40.15 23.5 39.9 24.2 39.3 24.55 34.85 25.25 34.65 25.25 33.95 25.0 33.65 24.3 31.85 5.8 Q31.85 5.35 32.1 5.05 32.35 4.75 32.8 4.75 L37.0 4.55 38.8 4.6 42.45 5.05 Q43.9 5.4 44.8 6.05 M46.85 11.8 Q46.75 10.1 46.15 8.8 45.5 7.45 44.45 6.7 42.9 5.6 38.8 5.4 L32.95 5.55 32.6 5.55 34.45 24.65 39.5 23.9 39.3 20.1 39.5 19.55 39.7 19.5 Q41.15 19.3 42.5 18.6 L44.75 17.1 Q47.1 15.0 46.85 11.8 M41.75 12.65 Q41.75 11.3 40.45 10.75 L39.55 10.55 39.1 10.5 39.35 14.85 Q40.95 14.5 41.45 13.85 L41.75 12.65 M42.55 12.7 Q42.6 13.9 41.85 14.6 41.15 15.3 39.45 15.65 L39.1 15.65 Q38.75 15.6 38.7 15.25 L38.45 10.65 38.5 10.2 Q38.7 9.8 39.3 9.85 L40.3 10.0 Q40.85 10.15 41.2 10.35 42.4 11.1 42.55 12.7" fill="url(#gradient3)" fill-rule="evenodd" stroke="none"/>
    <path d="M75.35 8.8 Q76.0 10.3 76.05 12.2 76.2 15.75 73.45 17.95 L71.3 19.35 Q69.75 20.05 68.1 20.25 L68.15 23.7 67.9 24.4 Q67.65 24.65 67.25 24.7 L62.65 25.2 61.95 24.95 Q61.65 24.65 61.65 24.25 L60.7 5.65 Q60.65 5.2 60.95 4.95 61.2 4.65 61.65 4.6 L63.75 4.6 67.65 4.75 71.3 5.4 Q72.75 5.8 73.6 6.45 74.75 7.3 75.35 8.8 M75.4 12.35 Q75.35 10.6 74.8 9.3 74.25 7.9 73.2 7.15 71.7 5.95 67.65 5.55 65.15 5.35 61.85 5.45 L61.45 5.45 62.45 24.6 67.5 24.1 67.45 20.25 Q67.45 19.9 67.7 19.75 L67.9 19.65 Q69.35 19.55 70.7 18.9 71.95 18.35 73.05 17.5 75.5 15.5 75.4 12.35 M68.1 10.7 L67.7 10.65 67.7 15.05 Q69.3 14.75 69.85 14.15 70.25 13.7 70.25 12.95 70.25 11.45 69.0 10.9 L68.1 10.7 M67.9 10.0 Q69.1 10.15 69.8 10.65 71.0 11.4 71.05 13.05 71.05 14.25 70.3 14.9 69.5 15.55 67.8 15.85 L67.45 15.85 Q67.05 15.75 67.05 15.45 L67.05 10.75 67.15 10.35 Q67.35 9.95 67.9 10.0" fill="url(#gradient4)" fill-rule="evenodd" stroke="none"/>
    <path d="M56.05 8.2 L56.4 8.75 60.8 22.9 60.6 23.6 59.9 23.95 56.4 24.1 55.7 23.85 55.3 23.3 54.9 21.2 52.25 21.4 52.15 23.3 51.8 23.95 51.15 24.25 47.5 24.6 46.85 24.35 Q46.55 24.1 46.55 23.7 L46.55 23.65 46.55 23.5 48.7 9.3 49.0 8.7 Q49.25 8.45 49.6 8.45 L55.4 8.0 55.45 8.0 56.05 8.2 M52.3 17.9 L52.0 17.7 52.0 17.4 52.35 13.9 52.45 13.6 52.65 13.45 53.25 13.35 53.6 13.6 53.7 13.75 54.6 17.35 54.5 17.8 54.25 17.85 54.2 17.85 52.9 13.45 52.3 17.9 M55.35 20.65 L55.65 21.1 56.15 23.5 60.2 23.3 55.7 8.85 49.5 9.25 47.25 24.0 51.5 23.6 51.6 21.35 51.7 21.05 Q51.8 20.8 52.05 20.8 L55.1 20.6 55.35 20.65" fill="url(#gradient5)" fill-rule="evenodd" stroke="none"/>
    <path d="M20.75 8.7 Q21.0 8.45 21.35 8.45 L27.15 8.0 27.25 8.0 27.8 8.2 28.15 8.75 32.55 22.75 32.55 22.9 32.35 23.6 31.7 23.95 28.15 24.1 Q27.8 24.1 27.55 23.9 L27.2 23.4 27.2 23.35 26.7 21.2 24.05 21.4 23.8 23.4 23.5 24.0 22.95 24.25 19.35 24.6 18.7 24.35 18.4 23.7 18.4 23.65 18.4 23.5 20.45 9.3 20.75 8.7 M24.7 13.4 L25.0 13.35 25.35 13.6 25.45 13.75 26.35 17.35 Q26.5 17.7 26.25 17.8 L26.05 17.85 26.0 17.85 24.7 13.4 M27.45 8.85 L21.25 9.25 19.15 24.0 23.15 23.65 23.35 21.35 23.45 21.05 Q23.55 20.8 23.8 20.8 L26.85 20.6 27.1 20.65 27.4 21.1 28.0 23.5 32.0 23.3 27.45 8.85 M24.05 17.9 L23.75 17.7 23.75 17.4 24.1 13.9 24.25 13.6 24.45 13.45 24.65 13.4 24.05 17.9" fill="url(#gradient6)" fill-rule="evenodd" stroke="none"/>
    <path d="M84.7 8.2 L85.05 8.75 89.4 22.75 89.45 22.9 89.25 23.6 88.55 23.95 84.9 24.1 84.3 23.9 83.95 23.4 83.95 23.35 83.45 21.2 80.9 21.4 80.7 23.4 80.4 24.0 79.8 24.25 76.1 24.6 75.45 24.35 75.15 23.7 75.15 23.65 75.15 23.5 77.35 9.3 77.65 8.7 Q77.85 8.45 78.2 8.45 L84.05 8.0 84.1 8.0 84.7 8.2 M81.0 17.9 Q80.7 17.95 80.65 17.7 L80.6 17.4 81.0 13.9 81.1 13.6 81.3 13.45 81.6 13.4 81.0 17.9 M81.65 13.4 L81.9 13.35 82.2 13.6 82.3 13.75 83.25 17.35 83.15 17.8 82.95 17.85 81.65 13.4 M83.65 20.6 L83.9 20.65 Q84.15 20.75 84.2 21.1 L84.75 23.5 88.85 23.3 84.35 8.85 78.15 9.25 75.85 24.0 80.0 23.65 80.3 21.05 Q80.45 20.8 80.7 20.8 L83.65 20.6" fill="url(#gradient7)" fill-rule="evenodd" stroke="none"/>
    <path d="M81.6 13.4 L81.3 13.45 81.1 13.6 81.0 13.9 80.6 17.4 80.65 17.7 Q80.7 17.95 81.0 17.9 L81.05 17.9 82.95 17.85 83.15 17.8 83.25 17.35 82.3 13.75 82.2 13.6 81.9 13.35 81.65 13.4 81.6 13.4 M83.65 20.6 L80.7 20.8 Q80.45 20.8 80.3 21.05 L80.0 23.65 75.85 24.0 78.15 9.25 84.35 8.85 88.85 23.3 84.75 23.5 84.2 21.1 Q84.15 20.75 83.9 20.65 L83.65 20.6" fill="url(#gradient8)" fill-rule="evenodd" stroke="none"/>
    <path d="M75.4 12.35 Q75.5 15.5 73.05 17.5 71.95 18.35 70.7 18.9 69.35 19.55 67.9 19.65 L67.7 19.75 Q67.45 19.9 67.45 20.25 L67.5 24.1 62.45 24.6 61.45 5.45 61.85 5.45 Q65.15 5.35 67.65 5.55 71.7 5.95 73.2 7.15 74.25 7.9 74.8 9.3 75.35 10.6 75.4 12.35 M67.9 10.0 Q67.35 9.95 67.15 10.35 L67.05 10.75 67.05 15.45 Q67.05 15.75 67.45 15.85 L67.8 15.85 Q69.5 15.55 70.3 14.9 71.05 14.25 71.05 13.05 71.0 11.4 69.8 10.65 69.1 10.15 67.9 10.0" fill="url(#gradient9)" fill-rule="evenodd" stroke="none"/>
    <path d="M46.85 11.8 Q47.1 15.0 44.75 17.1 L42.5 18.6 Q41.15 19.3 39.7 19.5 L39.5 19.55 39.3 20.1 39.5 23.9 34.45 24.65 32.6 5.55 32.95 5.55 38.8 5.4 Q42.9 5.6 44.45 6.7 45.5 7.45 46.15 8.8 46.75 10.1 46.85 11.8 M42.55 12.7 Q42.4 11.1 41.2 10.35 40.85 10.15 40.3 10.0 L39.3 9.85 Q38.7 9.8 38.5 10.2 L38.45 10.65 38.7 15.25 Q38.75 15.6 39.1 15.65 L39.45 15.65 Q41.15 15.3 41.85 14.6 42.6 13.9 42.55 12.7" fill="url(#gradient10)" fill-rule="evenodd" stroke="none"/>
    <path d="M54.2 17.85 L54.25 17.85 54.5 17.8 54.6 17.35 53.7 13.75 53.6 13.6 53.25 13.35 52.65 13.45 52.45 13.6 52.35 13.9 52.0 17.4 52.0 17.7 52.3 17.9 52.4 17.9 54.2 17.85 M55.35 20.65 L55.1 20.6 52.05 20.8 Q51.8 20.8 51.7 21.05 L51.6 21.35 51.5 23.6 47.25 24.0 49.5 9.25 55.7 8.85 60.2 23.3 56.15 23.5 55.65 21.1 55.35 20.65" fill="url(#gradient11)" fill-rule="evenodd" stroke="none"/>
    <path d="M27.45 8.85 L32.0 23.3 28.0 23.5 27.4 21.1 27.1 20.65 26.85 20.6 23.8 20.8 Q23.55 20.8 23.45 21.05 L23.35 21.35 23.15 23.65 19.15 24.0 21.25 9.25 27.45 8.85 M26.0 17.85 L26.05 17.85 26.25 17.8 Q26.5 17.7 26.35 17.35 L25.45 13.75 25.35 13.6 25.0 13.35 24.7 13.4 24.65 13.4 24.45 13.45 24.25 13.6 24.1 13.9 23.75 17.4 23.75 17.7 24.05 17.9 24.15 17.9 26.0 17.85" fill="url(#gradient12)" fill-rule="evenodd" stroke="none"/>
    <path d="M15.85 10.9 L9.25 18.5 9.2 18.65 9.1 19.0 Q9.15 19.45 10.0 19.4 L16.8 18.95 17.0 23.2 16.7 23.55 3.35 24.6 2.7 20.1 9.25 12.25 9.4 11.8 9.35 11.45 8.9 11.2 8.6 11.2 1.95 11.7 1.4 7.25 15.35 6.0 15.85 10.9" fill="url(#gradient13)" fill-rule="evenodd" stroke="none"/>
    <path d="M55.1 25.35 L55.5 30.65 55.5 30.7 53.95 30.85 53.9 30.8 53.75 27.65 53.6 27.6 53.55 27.65 52.65 30.65 52.6 30.7 51.65 30.75 50.55 27.75 50.45 27.7 50.35 27.75 50.35 30.95 48.75 30.95 48.85 25.55 50.7 25.5 51.95 28.45 52.05 28.5 52.15 28.45 53.2 25.4 55.1 25.35" fill="url(#gradient14)" fill-rule="evenodd" stroke="none"/>
    <path d="M47.45 26.1 Q48.05 26.6 48.35 27.35 L48.55 28.45 Q48.6 29.45 47.95 30.3 47.15 31.35 45.75 31.4 44.1 31.45 43.2 30.55 42.5 29.8 42.45 28.65 42.45 27.5 43.15 26.65 44.0 25.55 45.65 25.5 46.7 25.5 47.45 26.1 M46.9 28.55 Q46.9 28.1 46.55 27.7 46.15 27.2 45.5 27.2 44.85 27.2 44.5 27.75 44.2 28.2 44.2 28.65 44.2 29.1 44.55 29.55 44.95 30.05 45.6 30.0 46.25 30.0 46.65 29.45 L46.9 28.55" fill="url(#gradient15)" fill-rule="evenodd" stroke="none"/>
    <path d="M41.3 25.5 L41.6 27.0 41.6 27.05 40.95 27.05 Q39.8 27.1 39.2 27.6 38.6 28.05 38.65 28.8 38.65 29.35 39.05 29.65 39.5 30.05 40.35 30.0 L42.1 29.5 42.25 30.15 42.45 30.8 42.45 30.85 41.5 31.35 40.35 31.5 Q38.65 31.6 37.7 30.7 36.9 29.95 36.85 28.8 36.8 27.4 37.85 26.5 38.95 25.55 41.1 25.5 L41.3 25.5" fill="url(#gradient16)" fill-rule="evenodd" stroke="none"/>
    <path d="M36.3 30.45 L36.65 30.8 36.3 31.2 35.65 31.35 34.95 31.2 Q34.65 31.1 34.65 30.85 34.65 30.6 34.95 30.45 L35.6 30.3 36.3 30.45" fill="url(#gradient17)" fill-rule="evenodd" stroke="none"/>
  </g>
  <defs>
    <linearGradient gradientTransform="matrix(-1.0E-4, 0.0208, 0.0208, 1.0E-4, 45.7, 17.35)" gradientUnits="userSpaceOnUse" id="gradient0" spreadMethod="pad" x1="-819.2" x2="819.2">
      <stop offset="0.0" stop-color="#e2312d"/>
      <stop offset="0.21176470588235294" stop-color="#b50c33"/>
      <stop offset="0.43529411764705883" stop-color="#971228"/>
      <stop offset="0.6549019607843137" stop-color="#7f1320"/>
      <stop offset="0.7764705882352941" stop-color="#76131e"/>
      <stop offset="0.8" stop-color="#7b131f"/>
      <stop offset="0.8352941176470589" stop-color="#881324"/>
      <stop offset="0.8745098039215686" stop-color="#9d102e"/>
      <stop offset="0.9176470588235294" stop-color="#bb053c"/>
      <stop offset="0.9333333333333333" stop-color="#c80043"/>
    </linearGradient>
    <linearGradient gradientTransform="matrix(-0.0427, -4.0E-4, -4.0E-4, 0.0427, 47.55, 7.35)" gradientUnits="userSpaceOnUse" id="gradient1" spreadMethod="pad" x1="-819.2" x2="819.2">
      <stop offset="0.0" stop-color="#f4bab6"/>
      <stop offset="0.07058823529411765" stop-color="#f7ccc8"/>
      <stop offset="0.17254901960784313" stop-color="#fbe0dd"/>
      <stop offset="0.2784313725490196" stop-color="#fdeeec"/>
      <stop offset="0.38823529411764707" stop-color="#fef5f4"/>
      <stop offset="0.5098039215686274" stop-color="#fef8f7"/>
      <stop offset="0.6392156862745098" stop-color="#fef6f5"/>
      <stop offset="0.7411764705882353" stop-color="#fdefed"/>
      <stop offset="0.8352941176470589" stop-color="#fbe2e0"/>
      <stop offset="0.9215686274509803" stop-color="#f8d1cd"/>
      <stop offset="1.0" stop-color="#f4bab6"/>
    </linearGradient>
    <linearGradient gradientTransform="matrix(0.0, -0.0124, -0.0124, 0.0, 9.25, 13.7)" gradientUnits="userSpaceOnUse" id="gradient2" spreadMethod="pad" x1="-819.2" x2="819.2">
      <stop offset="0.0" stop-color="#fff289"/>
      <stop offset="1.0" stop-color="#f7ac00"/>
    </linearGradient>
    <linearGradient gradientTransform="matrix(0.0, -0.0124, -0.0124, 0.0, 39.7, 13.7)" gradientUnits="userSpaceOnUse" id="gradient3" spreadMethod="pad" x1="-819.2" x2="819.2">
      <stop offset="0.0" stop-color="#fff289"/>
      <stop offset="1.0" stop-color="#f7ac00"/>
    </linearGradient>
    <linearGradient gradientTransform="matrix(0.0, -0.0124, -0.0124, 0.0, 68.35, 13.7)" gradientUnits="userSpaceOnUse" id="gradient4" spreadMethod="pad" x1="-819.2" x2="819.2">
      <stop offset="0.0" stop-color="#fff289"/>
      <stop offset="1.0" stop-color="#f7ac00"/>
    </linearGradient>
    <linearGradient gradientTransform="matrix(0.0, -0.0124, -0.0124, 0.0, 53.65, 13.7)" gradientUnits="userSpaceOnUse" id="gradient5" spreadMethod="pad" x1="-819.2" x2="819.2">
      <stop offset="0.0" stop-color="#fff289"/>
      <stop offset="1.0" stop-color="#f7ac00"/>
    </linearGradient>
    <linearGradient gradientTransform="matrix(0.0, -0.0124, -0.0124, 0.0, 25.5, 13.7)" gradientUnits="userSpaceOnUse" id="gradient6" spreadMethod="pad" x1="-819.2" x2="819.2">
      <stop offset="0.0" stop-color="#fff289"/>
      <stop offset="1.0" stop-color="#f7ac00"/>
    </linearGradient>
    <linearGradient gradientTransform="matrix(0.0, -0.0124, -0.0124, 0.0, 82.3, 13.7)" gradientUnits="userSpaceOnUse" id="gradient7" spreadMethod="pad" x1="-819.2" x2="819.2">
      <stop offset="0.0" stop-color="#fff289"/>
      <stop offset="1.0" stop-color="#f7ac00"/>
    </linearGradient>
    <linearGradient gradientTransform="matrix(0.0, -0.0122, -0.0122, 0.0, 82.35, 15.75)" gradientUnits="userSpaceOnUse" id="gradient8" spreadMethod="pad" x1="-819.2" x2="819.2">
      <stop offset="0.0" stop-color="#f8bb78"/>
      <stop offset="0.058823529411764705" stop-color="#ee7d00"/>
      <stop offset="0.34901960784313724" stop-color="#ffe561"/>
      <stop offset="1.0" stop-color="#fefbee"/>
    </linearGradient>
    <linearGradient gradientTransform="matrix(0.0, -0.0121, -0.0121, 0.0, 68.4, 15.75)" gradientUnits="userSpaceOnUse" id="gradient9" spreadMethod="pad" x1="-819.2" x2="819.2">
      <stop offset="0.0" stop-color="#f8bb78"/>
      <stop offset="0.058823529411764705" stop-color="#ee7d00"/>
      <stop offset="0.34901960784313724" stop-color="#ffe561"/>
      <stop offset="1.0" stop-color="#fefbee"/>
    </linearGradient>
    <linearGradient gradientTransform="matrix(0.0, -0.0121, -0.0121, 0.0, 39.75, 15.75)" gradientUnits="userSpaceOnUse" id="gradient10" spreadMethod="pad" x1="-819.2" x2="819.2">
      <stop offset="0.0" stop-color="#f8bb78"/>
      <stop offset="0.058823529411764705" stop-color="#ee7d00"/>
      <stop offset="0.34901960784313724" stop-color="#ffe561"/>
      <stop offset="1.0" stop-color="#fefbee"/>
    </linearGradient>
    <linearGradient gradientTransform="matrix(0.0, -0.0121, -0.0121, 0.0, 53.75, 15.75)" gradientUnits="userSpaceOnUse" id="gradient11" spreadMethod="pad" x1="-819.2" x2="819.2">
      <stop offset="0.0" stop-color="#f8bb78"/>
      <stop offset="0.058823529411764705" stop-color="#ee7d00"/>
      <stop offset="0.34901960784313724" stop-color="#ffe561"/>
      <stop offset="1.0" stop-color="#fefbee"/>
    </linearGradient>
    <linearGradient gradientTransform="matrix(0.0, -0.0122, -0.0122, 0.0, 25.55, 15.75)" gradientUnits="userSpaceOnUse" id="gradient12" spreadMethod="pad" x1="-819.2" x2="819.2">
      <stop offset="0.0" stop-color="#f8bb78"/>
      <stop offset="0.058823529411764705" stop-color="#ee7d00"/>
      <stop offset="0.34901960784313724" stop-color="#ffe561"/>
      <stop offset="1.0" stop-color="#fefbee"/>
    </linearGradient>
    <linearGradient gradientTransform="matrix(0.0, -0.0121, -0.0121, 0.0, 9.2, 15.65)" gradientUnits="userSpaceOnUse" id="gradient13" spreadMethod="pad" x1="-819.2" x2="819.2">
      <stop offset="0.0" stop-color="#f8bb78"/>
      <stop offset="0.058823529411764705" stop-color="#ee7d00"/>
      <stop offset="0.34901960784313724" stop-color="#ffe561"/>
      <stop offset="1.0" stop-color="#fefbee"/>
    </linearGradient>
    <linearGradient gradientTransform="matrix(0.0, -0.0033, -0.0033, 0.0, 52.15, 28.2)" gradientUnits="userSpaceOnUse" id="gradient14" spreadMethod="pad" x1="-819.2" x2="819.2">
      <stop offset="0.0" stop-color="#ffdc4e"/>
      <stop offset="1.0" stop-color="#fefce8"/>
    </linearGradient>
    <linearGradient gradientTransform="matrix(0.0, -0.0033, -0.0033, 0.0, 45.5, 28.2)" gradientUnits="userSpaceOnUse" id="gradient15" spreadMethod="pad" x1="-819.2" x2="819.2">
      <stop offset="0.0" stop-color="#ffdc4e"/>
      <stop offset="1.0" stop-color="#fefce8"/>
    </linearGradient>
    <linearGradient gradientTransform="matrix(0.0, -0.0033, -0.0033, 0.0, 39.65, 28.2)" gradientUnits="userSpaceOnUse" id="gradient16" spreadMethod="pad" x1="-819.2" x2="819.2">
      <stop offset="0.0" stop-color="#ffdc4e"/>
      <stop offset="1.0" stop-color="#fefce8"/>
    </linearGradient>
    <linearGradient gradientTransform="matrix(0.0, -0.0033, -0.0033, 0.0, 35.65, 28.2)" gradientUnits="userSpaceOnUse" id="gradient17" spreadMethod="pad" x1="-819.2" x2="819.2">
      <stop offset="0.0" stop-color="#ffdc4e"/>
      <stop offset="1.0" stop-color="#fefce8"/>
    </linearGradient>
  </defs>
</svg>
