<?xml version="1.0" encoding="UTF-8" standalone="no"?>
<svg xmlns:ffdec="https://www.free-decompiler.com/flash" xmlns:xlink="http://www.w3.org/1999/xlink" ffdec:objectType="shape" height="33.2px" width="90.4px" xmlns="http://www.w3.org/2000/svg">
  <g transform="matrix(1.0, 0.0, 0.0, 1.0, 0.0, 0.0)">
    <path d="M85.9 9.25 L86.95 10.1 Q90.4 13.2 90.4 16.6 90.4 18.5 89.35 20.3 L90.05 22.55 90.1 22.85 89.75 24.1 Q89.3 24.6 88.55 24.7 L84.85 24.85 84.7 24.85 Q81.6 26.85 77.05 28.5 70.75 30.8 62.65 32.0 L45.65 33.2 28.7 32.0 Q20.6 30.8 14.3 28.5 10.7 27.2 8.05 25.7 L3.55 26.05 Q2.9 26.05 2.4 25.6 1.95 25.2 1.85 24.55 L1.25 20.6 1.25 20.5 Q1.15 19.8 1.5 19.3 0.95 18.0 0.95 16.6 0.95 14.8 1.95 13.1 1.4 13.05 1.0 12.7 0.55 12.25 0.45 11.6 L0.0 7.75 Q-0.1 7.0 0.35 6.45 0.8 5.9 1.55 5.8 L14.4 4.65 Q20.65 2.45 28.7 1.2 L45.65 0.0 62.65 1.2 Q70.75 2.45 77.05 4.7 80.45 5.95 83.0 7.4 L84.05 7.3 Q84.6 7.3 85.05 7.65 L85.65 8.5 85.9 9.25 M84.7 8.2 L84.1 8.0 84.05 8.0 78.2 8.45 Q77.85 8.45 77.65 8.7 L77.35 9.3 75.15 23.5 75.15 23.65 75.15 23.7 75.45 24.35 76.1 24.6 79.8 24.25 80.4 24.0 80.7 23.4 80.9 21.4 83.45 21.2 83.95 23.35 83.95 23.4 84.3 23.9 84.9 24.1 88.55 23.95 89.25 23.6 89.45 22.9 89.4 22.75 85.05 8.75 84.7 8.2 M81.6 13.25 L82.95 17.75 82.8 17.75 81.0 17.8 81.6 13.25 M82.85 22.0 L81.5 22.05 81.35 23.55 80.85 24.55 79.8 25.0 76.05 25.35 Q75.4 25.35 74.95 24.9 74.45 24.45 74.4 23.75 L74.4 23.7 74.4 23.4 75.45 16.85 73.85 18.5 71.8 19.85 68.8 20.9 68.85 23.7 68.4 24.85 Q67.95 25.35 67.3 25.45 L62.8 25.9 62.6 25.95 Q61.9 25.95 61.4 25.45 60.9 25.0 60.9 24.3 60.5 24.6 59.95 24.7 L56.35 24.85 55.2 24.4 Q54.75 24.0 54.6 23.5 L54.3 22.0 52.9 22.05 52.85 23.4 Q52.75 24.0 52.25 24.5 51.75 24.95 51.15 25.0 L47.45 25.35 Q46.75 25.35 46.3 24.9 45.8 24.45 45.75 23.75 L45.75 23.7 45.75 23.4 46.8 16.8 45.6 18.05 Q43.4 20.0 40.65 20.65 L40.8 23.45 Q40.85 24.15 40.45 24.65 40.05 25.15 39.35 25.25 L34.9 25.95 34.6 25.95 Q33.9 25.95 33.45 25.5 32.95 25.1 32.9 24.4 L32.9 24.1 32.85 24.1 Q32.4 24.6 31.7 24.7 L28.1 24.85 Q27.5 24.85 27.05 24.5 26.6 24.15 26.45 23.6 L26.1 22.0 24.65 22.05 24.45 23.55 Q24.4 24.15 23.95 24.55 23.55 24.95 22.95 25.0 L19.3 25.35 Q18.65 25.35 18.15 24.9 L17.9 24.55 16.75 24.95 9.3 25.6 Q11.6 26.8 14.55 27.85 20.65 30.05 28.55 31.25 L45.65 32.5 62.8 31.25 Q70.7 30.05 76.8 27.85 80.95 26.35 83.85 24.5 L83.2 23.6 82.85 22.0 M89.05 19.3 Q89.65 17.95 89.65 16.6 89.65 13.4 86.3 10.55 L89.05 19.3 M59.95 6.15 L59.9 5.7 Q59.9 4.95 60.35 4.45 60.85 3.95 61.6 3.9 L63.7 3.85 67.7 4.05 71.5 4.7 Q73.05 5.15 74.0 5.9 75.25 6.85 75.95 8.5 L76.5 10.1 76.6 9.2 Q76.65 8.6 77.1 8.15 77.5 7.75 78.1 7.7 L79.9 7.6 81.65 7.45 Q79.5 6.35 76.8 5.35 70.7 3.2 62.8 1.95 L45.65 0.7 Q36.7 0.7 28.55 1.95 21.6 3.05 16.05 4.85 L16.25 5.0 16.6 5.45 16.8 6.15 17.1 10.1 17.15 10.6 17.1 11.35 16.8 11.9 16.65 12.15 11.7 17.85 16.5 17.55 Q17.2 17.55 17.65 18.0 18.15 18.45 18.2 19.15 L18.25 19.5 19.7 9.2 19.75 9.15 Q19.8 8.6 20.2 8.2 20.65 7.75 21.25 7.7 L25.7 7.4 27.05 7.3 27.2 7.3 Q27.75 7.3 28.2 7.65 L28.8 8.5 32.55 20.55 31.15 6.3 31.1 5.9 Q31.05 5.15 31.5 4.6 31.95 4.05 32.7 4.0 L36.95 3.85 38.8 3.9 42.65 4.4 44.55 5.05 45.2 5.45 Q46.5 6.35 47.25 7.95 L47.9 9.65 47.95 9.2 Q48.0 8.6 48.45 8.15 48.9 7.75 49.5 7.7 L55.4 7.3 Q56.0 7.3 56.4 7.65 L57.05 8.5 60.7 20.25 59.95 6.15 M75.35 8.8 Q74.75 7.3 73.6 6.45 72.75 5.8 71.3 5.4 L67.65 4.75 63.75 4.6 61.65 4.6 Q61.2 4.65 60.95 4.95 60.65 5.2 60.7 5.65 L61.65 24.25 Q61.65 24.65 61.95 24.95 L62.65 25.2 67.25 24.7 Q67.65 24.65 67.9 24.4 L68.15 23.7 68.1 20.25 Q69.75 20.05 71.3 19.35 L73.45 17.95 Q76.2 15.75 76.05 12.2 76.0 10.3 75.35 8.8 M68.4 11.5 L68.4 14.1 68.95 13.9 Q69.5 13.55 69.5 12.75 69.5 12.1 68.95 11.75 L68.4 11.5 M67.7 10.65 L68.1 10.7 69.0 10.9 Q70.25 11.45 70.25 12.95 70.25 13.7 69.85 14.15 69.3 14.75 67.7 15.05 L67.7 10.65 M56.05 8.2 L55.45 8.0 55.4 8.0 49.6 8.45 Q49.25 8.45 49.0 8.7 L48.7 9.3 46.55 23.5 46.55 23.65 46.55 23.7 Q46.55 24.1 46.85 24.35 L47.5 24.6 51.15 24.25 51.8 23.95 52.15 23.3 52.25 21.4 54.9 21.2 55.3 23.3 55.7 23.85 56.4 24.1 59.9 23.95 60.6 23.6 60.8 22.9 56.4 8.75 56.05 8.2 M44.8 6.05 Q43.9 5.4 42.45 5.05 L38.8 4.6 37.0 4.55 32.8 4.75 Q32.35 4.75 32.1 5.05 31.85 5.35 31.85 5.8 L33.65 24.3 33.95 25.0 34.65 25.25 34.85 25.25 39.3 24.55 39.9 24.2 40.15 23.5 39.95 20.05 Q41.6 19.8 43.05 19.0 L45.2 17.5 Q47.8 15.2 47.55 11.65 47.4 9.75 46.7 8.3 46.0 6.85 44.8 6.05 M41.1 12.5 Q41.05 11.8 40.45 11.5 L40.05 11.35 39.85 11.3 40.0 14.0 40.55 13.8 Q41.15 13.4 41.1 12.5 M41.75 12.65 L41.45 13.85 Q40.95 14.5 39.35 14.85 L39.1 10.5 39.55 10.55 40.45 10.75 Q41.75 11.3 41.75 12.65 M52.35 17.8 L52.9 13.45 54.2 17.75 52.35 17.8 M52.6 29.9 L52.65 30.95 52.5 31.2 52.45 31.25 47.95 31.4 47.9 31.35 47.75 31.15 47.55 25.9 47.65 25.65 47.7 25.6 49.6 25.5 49.65 25.55 49.8 25.8 49.95 29.7 52.45 29.6 52.6 29.9 M52.35 31.0 L52.4 30.95 52.35 29.85 49.8 29.95 49.7 29.9 49.55 25.8 49.5 25.75 47.8 25.85 47.75 25.9 48.0 31.15 52.35 31.0 M47.3 25.9 L47.45 31.25 47.45 31.5 45.5 31.65 45.45 31.55 43.8 28.85 43.85 31.45 43.7 31.6 43.65 31.65 42.0 31.75 41.95 31.75 41.75 31.5 41.75 31.1 41.3 31.45 40.55 31.65 39.8 31.5 39.3 30.9 Q39.3 30.55 39.75 30.3 L40.5 30.15 41.3 30.3 41.75 30.65 41.6 26.1 41.7 25.85 41.75 25.8 43.75 25.75 43.75 25.95 45.3 28.5 45.2 26.0 45.3 25.75 45.35 25.7 47.2 25.65 47.3 25.9 M41.85 26.05 L41.85 26.1 42.0 31.5 42.05 31.5 43.6 31.4 43.65 31.4 43.55 28.3 43.65 28.25 43.75 28.3 45.6 31.4 47.25 31.3 47.1 25.9 45.45 25.95 45.55 29.05 45.45 29.15 45.35 29.1 43.5 26.0 41.85 26.05 M41.2 30.5 L40.5 30.4 39.85 30.55 Q39.55 30.7 39.55 30.9 L39.9 31.3 40.55 31.4 41.2 31.25 41.55 30.85 41.2 30.5 M20.75 8.7 L20.45 9.3 18.4 23.5 18.4 23.65 18.4 23.7 18.7 24.35 19.35 24.6 22.95 24.25 23.5 24.0 23.8 23.4 24.05 21.4 26.7 21.2 27.2 23.35 27.2 23.4 27.55 23.9 Q27.8 24.1 28.15 24.1 L31.7 23.95 32.35 23.6 32.55 22.9 32.55 22.75 28.15 8.75 27.8 8.2 27.25 8.0 27.15 8.0 21.35 8.45 Q21.0 8.45 20.75 8.7 M24.05 17.8 L24.65 13.3 25.95 17.75 24.05 17.8 M16.2 11.55 L16.45 11.1 16.5 10.65 16.1 6.2 15.8 5.55 15.15 5.3 1.65 6.55 Q1.2 6.55 0.95 6.9 0.7 7.2 0.75 7.65 L1.2 11.5 Q1.25 11.9 1.55 12.15 1.8 12.4 2.2 12.4 L2.3 12.4 8.6 11.9 2.3 19.5 Q2.1 19.7 2.05 20.0 L2.05 20.45 2.6 24.45 Q2.65 24.85 2.95 25.1 L3.6 25.35 3.7 25.3 16.75 24.25 Q17.2 24.25 17.5 23.9 L17.7 23.15 17.5 19.2 17.2 18.5 Q16.95 18.25 16.55 18.25 L16.45 18.25 10.1 18.65 16.15 11.65 16.2 11.55 M2.8 13.05 Q1.7 14.75 1.7 16.6 1.7 17.65 2.05 18.65 L6.9 12.75 2.8 13.05" fill="#801421" fill-rule="evenodd" stroke="none"/>
    <path d="M82.85 22.0 L83.2 23.6 83.85 24.5 Q80.95 26.35 76.8 27.85 70.7 30.05 62.8 31.25 L45.65 32.5 28.55 31.25 Q20.65 30.05 14.55 27.85 11.6 26.8 9.3 25.6 L16.75 24.95 17.9 24.55 18.15 24.9 Q18.65 25.35 19.3 25.35 L22.95 25.0 Q23.55 24.95 23.95 24.55 24.4 24.15 24.45 23.55 L24.65 22.05 26.1 22.0 26.45 23.6 Q26.6 24.15 27.05 24.5 27.5 24.85 28.1 24.85 L31.7 24.7 Q32.4 24.6 32.85 24.1 L32.9 24.1 32.9 24.4 Q32.95 25.1 33.45 25.5 33.9 25.95 34.6 25.95 L34.9 25.95 39.35 25.25 Q40.05 25.15 40.45 24.65 40.85 24.15 40.8 23.45 L40.65 20.65 Q43.4 20.0 45.6 18.05 L46.8 16.8 45.75 23.4 45.75 23.7 45.75 23.75 Q45.8 24.45 46.3 24.9 46.75 25.35 47.45 25.35 L51.15 25.0 Q51.75 24.95 52.25 24.5 52.75 24.0 52.85 23.4 L52.9 22.05 54.3 22.0 54.6 23.5 Q54.75 24.0 55.2 24.4 L56.35 24.85 59.95 24.7 Q60.5 24.6 60.9 24.3 60.9 25.0 61.4 25.45 61.9 25.95 62.6 25.95 L62.8 25.9 67.3 25.45 Q67.95 25.35 68.4 24.85 L68.85 23.7 68.8 20.9 71.8 19.85 73.85 18.5 75.45 16.85 74.4 23.4 74.4 23.7 74.4 23.75 Q74.45 24.45 74.95 24.9 75.4 25.35 76.05 25.35 L79.8 25.0 80.85 24.55 81.35 23.55 81.5 22.05 82.85 22.0 M89.05 19.3 L86.3 10.55 Q89.65 13.4 89.65 16.6 89.65 17.95 89.05 19.3 M79.9 7.6 Q74.6 4.95 67.1 3.3 57.15 1.1 45.65 1.1 35.25 1.1 26.0 2.95 20.8 3.95 16.6 5.45 L16.25 5.0 16.05 4.85 Q21.6 3.05 28.55 1.95 36.7 0.7 45.65 0.7 L62.8 1.95 Q70.7 3.2 76.8 5.35 79.5 6.35 81.65 7.45 L79.9 7.6 M17.1 10.1 L19.75 9.15 19.7 9.2 18.25 19.5 18.2 19.15 Q18.15 18.45 17.65 18.0 17.2 17.55 16.5 17.55 L11.7 17.85 16.65 12.15 16.8 11.9 17.1 11.35 17.15 10.6 17.1 10.1 M25.7 7.4 L26.5 7.2 31.15 6.3 32.55 20.55 28.8 8.5 28.2 7.65 Q27.75 7.3 27.2 7.3 L27.05 7.3 25.7 7.4 M44.55 5.05 L59.95 6.15 60.7 20.25 57.05 8.5 56.4 7.65 Q56.0 7.3 55.4 7.3 L49.5 7.7 Q48.9 7.75 48.45 8.15 48.0 8.6 47.95 9.2 L47.9 9.65 47.25 7.95 Q46.5 6.35 45.2 5.45 L44.55 5.05 M68.4 11.5 L68.95 11.75 Q69.5 12.1 69.5 12.75 69.5 13.55 68.95 13.9 L68.4 14.1 68.4 11.5 M41.1 12.5 Q41.15 13.4 40.55 13.8 L40.0 14.0 39.85 11.3 40.05 11.35 40.45 11.5 Q41.05 11.8 41.1 12.5 M52.6 29.9 L52.45 29.6 49.95 29.7 49.8 25.8 49.65 25.55 49.6 25.5 47.7 25.6 47.65 25.65 47.55 25.9 47.75 31.15 47.9 31.35 47.95 31.4 52.45 31.25 52.5 31.2 52.65 30.95 52.6 29.9 M47.3 25.9 L47.2 25.65 45.35 25.7 45.3 25.75 45.2 26.0 45.3 28.5 43.75 25.95 43.75 25.75 41.75 25.8 41.7 25.85 41.6 26.1 41.75 30.65 41.3 30.3 40.5 30.15 39.75 30.3 Q39.3 30.55 39.3 30.9 L39.8 31.5 40.55 31.65 41.3 31.45 41.75 31.1 41.75 31.5 41.95 31.75 42.0 31.75 43.65 31.65 43.7 31.6 43.85 31.45 43.8 28.85 45.45 31.55 45.5 31.65 47.45 31.5 47.45 31.25 47.3 25.9 M2.8 13.05 L6.9 12.75 2.05 18.65 Q1.7 17.65 1.7 16.6 1.7 14.75 2.8 13.05" fill="url(#gradient0)" fill-rule="evenodd" stroke="none"/>
    <path d="M79.9 7.6 L78.1 7.7 Q77.5 7.75 77.1 8.15 76.65 8.6 76.6 9.2 L76.5 10.1 75.95 8.5 Q75.25 6.85 74.0 5.9 73.05 5.15 71.5 4.7 L67.7 4.05 63.7 3.85 61.6 3.9 Q60.85 3.95 60.35 4.45 59.9 4.95 59.9 5.7 L59.95 6.15 44.55 5.05 42.65 4.4 38.8 3.9 36.95 3.85 32.7 4.0 Q31.95 4.05 31.5 4.6 31.05 5.15 31.1 5.9 L31.15 6.3 26.5 7.2 25.7 7.4 21.25 7.7 Q20.65 7.75 20.2 8.2 19.8 8.6 19.75 9.15 L17.1 10.1 16.8 6.15 16.6 5.45 Q20.8 3.95 26.0 2.95 35.25 1.1 45.65 1.1 57.15 1.1 67.1 3.3 74.6 4.95 79.9 7.6" fill="url(#gradient1)" fill-rule="evenodd" stroke="none"/>
    <path d="M41.2 30.5 L41.55 30.85 41.2 31.25 40.55 31.4 39.9 31.3 39.55 30.9 Q39.55 30.7 39.85 30.55 L40.5 30.4 41.2 30.5" fill="url(#gradient2)" fill-rule="evenodd" stroke="none"/>
    <path d="M41.85 26.05 L43.5 26.0 45.35 29.1 45.45 29.15 45.55 29.05 45.45 25.95 47.1 25.9 47.25 31.3 45.6 31.4 43.75 28.3 43.65 28.25 43.55 28.3 43.65 31.4 43.6 31.4 42.05 31.5 42.0 31.5 41.85 26.1 41.85 26.05" fill="url(#gradient3)" fill-rule="evenodd" stroke="none"/>
    <path d="M52.35 31.0 L48.0 31.15 47.75 25.9 47.8 25.85 49.5 25.75 49.55 25.8 49.7 29.9 49.8 29.95 52.35 29.85 52.4 30.95 52.35 31.0" fill="url(#gradient4)" fill-rule="evenodd" stroke="none"/>
    <path d="M16.2 11.55 L16.15 11.65 10.1 18.65 16.45 18.25 16.55 18.25 Q16.95 18.25 17.2 18.5 L17.5 19.2 17.7 23.15 17.5 23.9 Q17.2 24.25 16.75 24.25 L3.7 25.3 3.6 25.35 2.95 25.1 Q2.65 24.85 2.6 24.45 L2.05 20.45 2.05 20.0 Q2.1 19.7 2.3 19.5 L8.6 11.9 2.3 12.4 2.2 12.4 Q1.8 12.4 1.55 12.15 1.25 11.9 1.2 11.5 L0.75 7.65 Q0.7 7.2 0.95 6.9 1.2 6.55 1.65 6.55 L15.15 5.3 15.8 5.55 16.1 6.2 16.5 10.65 16.45 11.1 16.2 11.55 M15.8 10.9 L15.3 6.0 1.4 7.3 1.9 11.7 8.6 11.2 8.85 11.2 Q9.15 11.3 9.3 11.5 L9.4 11.8 9.2 12.25 2.65 20.1 3.3 24.65 16.65 23.55 16.95 23.2 16.75 18.95 9.95 19.4 Q9.1 19.45 9.1 19.0 9.05 18.85 9.15 18.65 L9.25 18.5 15.8 10.9" fill="url(#gradient5)" fill-rule="evenodd" stroke="none"/>
    <path d="M44.8 6.05 Q46.0 6.85 46.7 8.3 47.4 9.75 47.55 11.65 47.8 15.2 45.2 17.5 L43.05 19.0 Q41.6 19.8 39.95 20.05 L40.15 23.5 39.9 24.2 39.3 24.55 34.85 25.25 34.65 25.25 33.95 25.0 33.65 24.3 31.85 5.8 Q31.85 5.35 32.1 5.05 32.35 4.75 32.8 4.75 L37.0 4.55 38.8 4.6 42.45 5.05 Q43.9 5.4 44.8 6.05 M46.75 11.75 Q46.65 10.0 46.05 8.7 45.4 7.35 44.35 6.6 42.75 5.5 38.7 5.3 L32.85 5.45 32.5 5.5 34.35 24.55 39.4 23.8 39.2 20.0 39.4 19.5 39.6 19.4 42.4 18.5 44.65 17.0 Q47.0 14.9 46.75 11.75 M41.75 12.65 Q41.75 11.3 40.45 10.75 L39.55 10.55 39.1 10.5 39.35 14.85 Q40.95 14.5 41.45 13.85 L41.75 12.65 M42.45 12.6 Q42.5 13.8 41.75 14.5 41.05 15.2 39.35 15.55 L39.0 15.55 Q38.65 15.5 38.6 15.2 L38.35 10.55 38.4 10.1 Q38.6 9.7 39.2 9.75 L40.2 9.9 41.1 10.3 Q42.3 11.0 42.45 12.6" fill="url(#gradient6)" fill-rule="evenodd" stroke="none"/>
    <path d="M75.35 8.8 Q76.0 10.3 76.05 12.2 76.2 15.75 73.45 17.95 L71.3 19.35 Q69.75 20.05 68.1 20.25 L68.15 23.7 67.9 24.4 Q67.65 24.65 67.25 24.7 L62.65 25.2 61.95 24.95 Q61.65 24.65 61.65 24.25 L60.7 5.65 Q60.65 5.2 60.95 4.95 61.2 4.65 61.65 4.6 L63.75 4.6 67.65 4.75 71.3 5.4 Q72.75 5.8 73.6 6.45 74.75 7.3 75.35 8.8 M75.3 12.25 Q75.25 10.5 74.7 9.2 74.15 7.8 73.1 7.05 71.6 5.85 67.55 5.5 L61.75 5.35 61.35 5.35 62.35 24.5 67.4 24.0 67.35 20.15 Q67.35 19.8 67.6 19.65 L67.8 19.55 Q69.25 19.45 70.6 18.8 L72.95 17.4 Q75.4 15.4 75.3 12.25 M67.7 10.65 L67.7 15.05 Q69.3 14.75 69.85 14.15 70.25 13.7 70.25 12.95 70.25 11.45 69.0 10.9 L68.1 10.7 67.7 10.65 M66.95 10.7 L67.05 10.25 Q67.25 9.85 67.8 9.9 L68.85 10.15 Q69.35 10.3 69.7 10.55 70.9 11.3 70.95 12.95 70.95 14.15 70.2 14.8 69.4 15.45 67.7 15.75 L67.35 15.75 Q66.95 15.65 66.95 15.35 L66.95 10.7" fill="url(#gradient7)" fill-rule="evenodd" stroke="none"/>
    <path d="M56.05 8.2 L56.4 8.75 60.8 22.9 60.6 23.6 59.9 23.95 56.4 24.1 55.7 23.85 55.3 23.3 54.9 21.2 52.25 21.4 52.15 23.3 51.8 23.95 51.15 24.25 47.5 24.6 46.85 24.35 Q46.55 24.1 46.55 23.7 L46.55 23.65 46.55 23.5 48.7 9.3 49.0 8.7 Q49.25 8.45 49.6 8.45 L55.4 8.0 55.45 8.0 56.05 8.2 M52.35 17.8 L52.3 17.8 Q51.95 17.85 51.9 17.6 L51.9 17.3 52.25 13.85 52.35 13.5 52.55 13.35 53.15 13.25 53.5 13.5 53.6 13.65 54.5 17.25 54.4 17.7 54.2 17.75 52.9 13.45 52.35 17.8 M55.25 20.55 L55.55 21.0 56.05 23.4 60.1 23.25 55.6 8.75 49.4 9.15 47.15 23.9 51.4 23.5 51.5 21.25 51.6 20.95 51.95 20.7 55.0 20.5 55.25 20.55" fill="url(#gradient8)" fill-rule="evenodd" stroke="none"/>
    <path d="M20.75 8.7 Q21.0 8.45 21.35 8.45 L27.15 8.0 27.25 8.0 27.8 8.2 28.15 8.75 32.55 22.75 32.55 22.9 32.35 23.6 31.7 23.95 28.15 24.1 Q27.8 24.1 27.55 23.9 L27.2 23.4 27.2 23.35 26.7 21.2 24.05 21.4 23.8 23.4 23.5 24.0 22.95 24.25 19.35 24.6 18.7 24.35 18.4 23.7 18.4 23.65 18.4 23.5 20.45 9.3 20.75 8.7 M24.05 17.8 Q23.7 17.85 23.65 17.6 L23.65 17.3 24.0 13.85 24.15 13.5 24.35 13.35 24.9 13.25 25.25 13.5 25.35 13.65 26.25 17.25 Q26.4 17.6 26.15 17.7 L25.95 17.75 24.65 13.3 24.05 17.8 M27.35 8.75 L21.15 9.15 19.05 23.9 23.05 23.55 23.25 21.25 23.35 20.95 Q23.45 20.7 23.7 20.7 L26.75 20.5 27.0 20.55 27.3 21.0 27.9 23.4 31.9 23.2 27.35 8.75" fill="url(#gradient9)" fill-rule="evenodd" stroke="none"/>
    <path d="M84.7 8.2 L85.05 8.75 89.4 22.75 89.45 22.9 89.25 23.6 88.55 23.95 84.9 24.1 84.3 23.9 83.95 23.4 83.95 23.35 83.45 21.2 80.9 21.4 80.7 23.4 80.4 24.0 79.8 24.25 76.1 24.6 75.45 24.35 75.15 23.7 75.15 23.65 75.15 23.5 77.35 9.3 77.65 8.7 Q77.85 8.45 78.2 8.45 L84.05 8.0 84.1 8.0 84.7 8.2 M81.6 13.25 L81.8 13.25 82.1 13.5 82.2 13.65 83.15 17.25 83.05 17.7 82.95 17.75 81.6 13.25 81.0 17.8 80.95 17.8 Q80.6 17.85 80.55 17.6 L80.5 17.3 80.9 13.85 81.0 13.5 81.2 13.35 81.6 13.25 M83.55 20.5 L83.8 20.55 84.1 21.0 84.65 23.4 88.75 23.2 84.25 8.75 78.05 9.15 75.75 23.9 79.9 23.55 80.15 21.25 80.2 20.95 Q80.35 20.7 80.6 20.7 L83.55 20.5" fill="url(#gradient10)" fill-rule="evenodd" stroke="none"/>
    <path d="M82.95 17.75 L83.05 17.7 83.15 17.25 82.2 13.65 82.1 13.5 81.8 13.25 81.6 13.25 81.2 13.35 81.0 13.5 80.9 13.85 80.5 17.3 80.55 17.6 Q80.6 17.85 80.95 17.8 L81.0 17.8 82.8 17.75 82.95 17.75 M83.55 20.5 L80.6 20.7 Q80.35 20.7 80.2 20.95 L80.15 21.25 79.9 23.55 75.75 23.9 78.05 9.15 84.25 8.75 88.75 23.2 84.65 23.4 84.1 21.0 83.8 20.55 83.55 20.5" fill="url(#gradient11)" fill-rule="evenodd" stroke="none"/>
    <path d="M75.3 12.25 Q75.4 15.4 72.95 17.4 L70.6 18.8 Q69.25 19.45 67.8 19.55 L67.6 19.65 Q67.35 19.8 67.35 20.15 L67.4 24.0 62.35 24.5 61.35 5.35 61.75 5.35 67.55 5.5 Q71.6 5.85 73.1 7.05 74.15 7.8 74.7 9.2 75.25 10.5 75.3 12.25 M66.95 10.7 L66.95 15.35 Q66.95 15.65 67.35 15.75 L67.7 15.75 Q69.4 15.45 70.2 14.8 70.95 14.15 70.95 12.95 70.9 11.3 69.7 10.55 69.35 10.3 68.85 10.15 L67.8 9.9 Q67.25 9.85 67.05 10.25 L66.95 10.7" fill="url(#gradient12)" fill-rule="evenodd" stroke="none"/>
    <path d="M46.75 11.75 Q47.0 14.9 44.65 17.0 L42.4 18.5 39.6 19.4 39.4 19.5 39.2 20.0 39.4 23.8 34.35 24.55 32.5 5.5 32.85 5.45 38.7 5.3 Q42.75 5.5 44.35 6.6 45.4 7.35 46.05 8.7 46.65 10.0 46.75 11.75 M42.45 12.6 Q42.3 11.0 41.1 10.3 L40.2 9.9 39.2 9.75 Q38.6 9.7 38.4 10.1 L38.35 10.55 38.6 15.2 Q38.65 15.5 39.0 15.55 L39.35 15.55 Q41.05 15.2 41.75 14.5 42.5 13.8 42.45 12.6" fill="url(#gradient13)" fill-rule="evenodd" stroke="none"/>
    <path d="M54.2 17.75 L54.4 17.7 54.5 17.25 53.6 13.65 53.5 13.5 53.15 13.25 52.55 13.35 52.35 13.5 52.25 13.85 51.9 17.3 51.9 17.6 Q51.95 17.85 52.3 17.8 L52.35 17.8 54.2 17.75 M55.25 20.55 L55.0 20.5 51.95 20.7 51.6 20.95 51.5 21.25 51.4 23.5 47.15 23.9 49.4 9.15 55.6 8.75 60.1 23.25 56.05 23.4 55.55 21.0 55.25 20.55" fill="url(#gradient14)" fill-rule="evenodd" stroke="none"/>
    <path d="M27.35 8.75 L31.9 23.2 27.9 23.4 27.3 21.0 27.0 20.55 26.75 20.5 23.7 20.7 Q23.45 20.7 23.35 20.95 L23.25 21.25 23.05 23.55 19.05 23.9 21.15 9.15 27.35 8.75 M25.95 17.75 L26.15 17.7 Q26.4 17.6 26.25 17.25 L25.35 13.65 25.25 13.5 24.9 13.25 24.35 13.35 24.15 13.5 24.0 13.85 23.65 17.3 23.65 17.6 Q23.7 17.85 24.05 17.8 L25.95 17.75" fill="url(#gradient15)" fill-rule="evenodd" stroke="none"/>
    <path d="M15.8 10.9 L9.25 18.5 9.15 18.65 Q9.05 18.85 9.1 19.0 9.1 19.45 9.95 19.4 L16.75 18.95 16.95 23.2 16.65 23.55 3.3 24.65 2.65 20.1 9.2 12.25 9.4 11.8 9.3 11.5 Q9.15 11.3 8.85 11.2 L8.6 11.2 1.9 11.7 1.4 7.3 15.3 6.0 15.8 10.9" fill="url(#gradient16)" fill-rule="evenodd" stroke="none"/>
  </g>
  <defs>
    <linearGradient gradientTransform="matrix(-1.0E-4, 0.0208, 0.0208, 1.0E-4, 45.65, 17.4)" gradientUnits="userSpaceOnUse" id="gradient0" spreadMethod="pad" x1="-819.2" x2="819.2">
      <stop offset="0.0" stop-color="#e2312d"/>
      <stop offset="0.21176470588235294" stop-color="#b50c33"/>
      <stop offset="0.43529411764705883" stop-color="#971228"/>
      <stop offset="0.6549019607843137" stop-color="#7f1320"/>
      <stop offset="0.7764705882352941" stop-color="#76131e"/>
      <stop offset="0.8" stop-color="#7b131f"/>
      <stop offset="0.8352941176470589" stop-color="#881324"/>
      <stop offset="0.8745098039215686" stop-color="#9d102e"/>
      <stop offset="0.9176470588235294" stop-color="#bb053c"/>
      <stop offset="0.9333333333333333" stop-color="#c80043"/>
    </linearGradient>
    <linearGradient gradientTransform="matrix(-0.0427, -4.0E-4, -4.0E-4, 0.0427, 47.5, 7.35)" gradientUnits="userSpaceOnUse" id="gradient1" spreadMethod="pad" x1="-819.2" x2="819.2">
      <stop offset="0.0" stop-color="#f4bab6"/>
      <stop offset="0.07058823529411765" stop-color="#f7ccc8"/>
      <stop offset="0.17254901960784313" stop-color="#fbe0dd"/>
      <stop offset="0.2784313725490196" stop-color="#fdeeec"/>
      <stop offset="0.38823529411764707" stop-color="#fef5f4"/>
      <stop offset="0.5098039215686274" stop-color="#fef8f7"/>
      <stop offset="0.6392156862745098" stop-color="#fef6f5"/>
      <stop offset="0.7411764705882353" stop-color="#fdefed"/>
      <stop offset="0.8352941176470589" stop-color="#fbe2e0"/>
      <stop offset="0.9215686274509803" stop-color="#f8d1cd"/>
      <stop offset="1.0" stop-color="#f4bab6"/>
    </linearGradient>
    <linearGradient gradientTransform="matrix(-1.0E-4, -0.0031, -0.0031, 1.0E-4, 40.4, 27.9)" gradientUnits="userSpaceOnUse" id="gradient2" spreadMethod="pad" x1="-819.2" x2="819.2">
      <stop offset="0.0" stop-color="#ffdc4e"/>
      <stop offset="1.0" stop-color="#fefce8"/>
    </linearGradient>
    <linearGradient gradientTransform="matrix(-1.0E-4, -0.0031, -0.0031, 1.0E-4, 44.5, 27.75)" gradientUnits="userSpaceOnUse" id="gradient3" spreadMethod="pad" x1="-819.2" x2="819.2">
      <stop offset="0.0" stop-color="#ffdc4e"/>
      <stop offset="1.0" stop-color="#fefce8"/>
    </linearGradient>
    <linearGradient gradientTransform="matrix(-1.0E-4, -0.0031, -0.0031, 1.0E-4, 50.05, 27.5)" gradientUnits="userSpaceOnUse" id="gradient4" spreadMethod="pad" x1="-819.2" x2="819.2">
      <stop offset="0.0" stop-color="#ffdc4e"/>
      <stop offset="1.0" stop-color="#fefce8"/>
    </linearGradient>
    <linearGradient gradientTransform="matrix(0.0, -0.0124, -0.0124, 0.0, 9.25, 13.7)" gradientUnits="userSpaceOnUse" id="gradient5" spreadMethod="pad" x1="-819.2" x2="819.2">
      <stop offset="0.0" stop-color="#fff289"/>
      <stop offset="1.0" stop-color="#f7ac00"/>
    </linearGradient>
    <linearGradient gradientTransform="matrix(0.0, -0.0124, -0.0124, 0.0, 39.7, 13.7)" gradientUnits="userSpaceOnUse" id="gradient6" spreadMethod="pad" x1="-819.2" x2="819.2">
      <stop offset="0.0" stop-color="#fff289"/>
      <stop offset="1.0" stop-color="#f7ac00"/>
    </linearGradient>
    <linearGradient gradientTransform="matrix(0.0, -0.0124, -0.0124, 0.0, 68.35, 13.7)" gradientUnits="userSpaceOnUse" id="gradient7" spreadMethod="pad" x1="-819.2" x2="819.2">
      <stop offset="0.0" stop-color="#fff289"/>
      <stop offset="1.0" stop-color="#f7ac00"/>
    </linearGradient>
    <linearGradient gradientTransform="matrix(0.0, -0.0124, -0.0124, 0.0, 53.65, 13.7)" gradientUnits="userSpaceOnUse" id="gradient8" spreadMethod="pad" x1="-819.2" x2="819.2">
      <stop offset="0.0" stop-color="#fff289"/>
      <stop offset="1.0" stop-color="#f7ac00"/>
    </linearGradient>
    <linearGradient gradientTransform="matrix(0.0, -0.0124, -0.0124, 0.0, 25.5, 13.7)" gradientUnits="userSpaceOnUse" id="gradient9" spreadMethod="pad" x1="-819.2" x2="819.2">
      <stop offset="0.0" stop-color="#fff289"/>
      <stop offset="1.0" stop-color="#f7ac00"/>
    </linearGradient>
    <linearGradient gradientTransform="matrix(0.0, -0.0124, -0.0124, 0.0, 82.3, 13.7)" gradientUnits="userSpaceOnUse" id="gradient10" spreadMethod="pad" x1="-819.2" x2="819.2">
      <stop offset="0.0" stop-color="#fff289"/>
      <stop offset="1.0" stop-color="#f7ac00"/>
    </linearGradient>
    <linearGradient gradientTransform="matrix(0.0, -0.0122, -0.0122, 0.0, 82.25, 15.65)" gradientUnits="userSpaceOnUse" id="gradient11" spreadMethod="pad" x1="-819.2" x2="819.2">
      <stop offset="0.0" stop-color="#f8bb78"/>
      <stop offset="0.058823529411764705" stop-color="#ee7d00"/>
      <stop offset="0.34901960784313724" stop-color="#ffe561"/>
      <stop offset="1.0" stop-color="#fefbee"/>
    </linearGradient>
    <linearGradient gradientTransform="matrix(0.0, -0.0121, -0.0121, 0.0, 68.3, 15.65)" gradientUnits="userSpaceOnUse" id="gradient12" spreadMethod="pad" x1="-819.2" x2="819.2">
      <stop offset="0.0" stop-color="#f8bb78"/>
      <stop offset="0.058823529411764705" stop-color="#ee7d00"/>
      <stop offset="0.34901960784313724" stop-color="#ffe561"/>
      <stop offset="1.0" stop-color="#fefbee"/>
    </linearGradient>
    <linearGradient gradientTransform="matrix(0.0, -0.0121, -0.0121, 0.0, 39.65, 15.65)" gradientUnits="userSpaceOnUse" id="gradient13" spreadMethod="pad" x1="-819.2" x2="819.2">
      <stop offset="0.0" stop-color="#f8bb78"/>
      <stop offset="0.058823529411764705" stop-color="#ee7d00"/>
      <stop offset="0.34901960784313724" stop-color="#ffe561"/>
      <stop offset="1.0" stop-color="#fefbee"/>
    </linearGradient>
    <linearGradient gradientTransform="matrix(0.0, -0.0121, -0.0121, 0.0, 53.65, 15.65)" gradientUnits="userSpaceOnUse" id="gradient14" spreadMethod="pad" x1="-819.2" x2="819.2">
      <stop offset="0.0" stop-color="#f8bb78"/>
      <stop offset="0.058823529411764705" stop-color="#ee7d00"/>
      <stop offset="0.34901960784313724" stop-color="#ffe561"/>
      <stop offset="1.0" stop-color="#fefbee"/>
    </linearGradient>
    <linearGradient gradientTransform="matrix(0.0, -0.0122, -0.0122, 0.0, 25.45, 15.65)" gradientUnits="userSpaceOnUse" id="gradient15" spreadMethod="pad" x1="-819.2" x2="819.2">
      <stop offset="0.0" stop-color="#f8bb78"/>
      <stop offset="0.058823529411764705" stop-color="#ee7d00"/>
      <stop offset="0.34901960784313724" stop-color="#ffe561"/>
      <stop offset="1.0" stop-color="#fefbee"/>
    </linearGradient>
    <linearGradient gradientTransform="matrix(0.0, -0.0121, -0.0121, 0.0, 9.15, 15.65)" gradientUnits="userSpaceOnUse" id="gradient16" spreadMethod="pad" x1="-819.2" x2="819.2">
      <stop offset="0.0" stop-color="#f8bb78"/>
      <stop offset="0.058823529411764705" stop-color="#ee7d00"/>
      <stop offset="0.34901960784313724" stop-color="#ffe561"/>
      <stop offset="1.0" stop-color="#fefbee"/>
    </linearGradient>
  </defs>
</svg>
