<?xml version="1.0" encoding="UTF-8" standalone="no"?>
<svg xmlns:ffdec="https://www.free-decompiler.com/flash" xmlns:xlink="http://www.w3.org/1999/xlink" ffdec:objectType="shape" height="30.8px" width="129.5px" xmlns="http://www.w3.org/2000/svg">
  <g transform="matrix(1.0, 0.0, 0.0, 1.0, -303.3, -43.25)">
    <path d="M306.15 44.15 Q311.3 44.15 311.7 48.4 L313.5 48.15 Q312.45 47.1 312.6 44.9 L312.6 43.75 Q313.0 44.05 313.35 44.05 L314.8 43.75 316.6 43.25 Q319.15 43.5 319.45 46.2 L319.15 47.65 319.15 47.75 Q320.2 48.0 320.85 48.65 322.9 46.5 322.9 44.9 322.75 44.05 321.6 43.6 L324.45 43.25 Q328.05 43.5 328.7 45.45 L330.5 45.2 Q334.1 45.3 334.25 48.4 334.1 50.45 332.45 50.45 L329.5 50.7 326.5 50.85 325.85 50.7 325.2 51.25 Q324.4 51.75 323.15 51.75 L321.6 51.65 321.35 51.5 321.35 52.25 324.7 52.0 327.8 51.65 Q333.75 52.0 333.95 56.1 333.75 58.7 330.5 60.75 334.25 60.75 334.25 63.85 334.25 66.7 331.0 66.45 L331.25 68.75 Q331.15 73.8 327.05 73.9 323.15 74.05 322.65 70.45 322.25 69.65 321.5 69.0 L321.2 68.35 Q320.6 73.7 318.15 73.8 315.7 73.8 315.3 70.7 314.4 73.65 312.85 73.8 311.2 73.65 310.15 71.6 309.1 73.3 307.3 73.4 303.95 73.15 303.7 69.0 303.7 68.1 304.35 66.3 305.1 64.15 305.0 63.0 L305.35 63.35 Q306.5 64.4 306.95 64.25 308.4 64.0 310.4 60.25 L310.4 60.4 Q310.25 61.55 310.25 62.95 310.15 64.1 310.55 65.65 L310.9 68.25 310.8 68.9 310.8 69.15 Q311.95 63.9 312.2 54.85 L312.2 54.45 Q310.9 53.95 310.65 51.65 309.6 52.4 308.35 52.4 304.85 52.65 305.25 46.45 305.1 45.25 304.6 44.15 L306.15 44.15 M316.35 54.35 L316.7 55.1 316.6 55.6 318.0 55.35 Q320.85 55.35 321.35 60.0 L321.75 59.6 321.5 60.1 Q321.2 60.5 321.35 60.65 321.35 61.55 322.5 61.55 L323.8 61.45 323.3 60.9 Q322.15 59.25 322.25 58.3 322.15 57.65 322.5 57.05 320.2 56.65 320.2 53.8 L317.9 54.05 316.35 54.05 316.35 54.35 M303.95 53.15 Q310.55 52.9 310.55 57.95 310.25 61.4 307.3 61.55 303.8 61.7 304.1 56.0 304.1 54.95 303.3 53.15 L303.95 53.15 M316.2 63.2 L315.95 66.6 316.2 66.6 Q317.5 66.6 317.5 62.95 L317.5 62.45 Q317.5 61.7 317.1 61.45 L316.85 61.45 316.7 61.3 316.35 61.45 Q316.2 62.3 316.2 63.2 M325.35 56.65 L327.3 58.45 Q328.55 57.7 328.7 57.05 328.7 56.5 327.3 56.5 L327.15 56.5 326.25 56.65 325.35 56.65 M325.35 66.7 L322.75 66.85 Q321.9 66.85 321.35 66.45 L321.2 68.3 321.35 68.25 322.25 68.35 323.4 68.35 Q325.2 68.5 325.35 66.7" fill="#000000" fill-rule="evenodd" stroke="none"/>
    <path d="M348.65 45.05 L347.15 45.3 Q348.95 43.35 351.9 43.35 357.7 43.25 357.7 47.35 L357.7 49.45 358.45 49.3 359.35 49.05 359.35 47.75 359.5 45.95 Q359.4 44.65 358.7 44.05 366.45 44.15 366.45 48.8 366.3 50.45 365.3 51.35 L365.3 52.5 Q365.05 53.95 362.95 54.95 365.7 56.1 365.95 58.7 365.95 60.25 363.6 62.55 L362.85 63.35 362.1 64.25 360.25 65.9 Q361.05 66.95 362.35 66.95 363.6 66.95 365.05 63.6 L365.3 63.1 365.45 62.55 365.55 62.95 365.55 64.25 Q365.7 66.05 366.3 66.85 367.25 68.5 367.25 70.15 367.25 73.9 362.2 73.9 357.75 73.8 355.1 69.65 L352.05 70.3 350.1 70.05 Q349.7 72.35 347.25 72.5 345.2 72.35 343.9 70.45 342.1 72.75 340.3 72.9 337.2 72.6 336.3 67.75 338.6 65.7 340.15 63.2 L339.9 62.7 Q337.6 56.25 336.3 55.85 337.6 54.2 339.4 53.7 336.2 53.3 336.4 47.65 L336.4 47.2 Q337.45 47.65 340.05 46.35 342.75 44.9 344.4 44.9 349.45 45.05 349.55 51.9 L349.55 52.4 349.95 52.4 351.5 51.9 351.35 50.95 351.35 50.2 Q351.35 46.5 349.95 45.3 L348.65 45.05 M342.25 53.15 L340.45 53.8 Q341.35 54.1 341.85 54.85 L343.5 57.15 Q343.7 56.6 344.05 56.0 L344.55 53.8 Q344.4 52.8 343.65 52.65 343.15 52.65 342.25 53.15 M351.9 58.05 Q350.2 58.2 348.9 56.5 348.2 60.4 347.25 63.1 L347.75 63.7 348.4 64.4 349.85 63.85 352.65 62.55 Q352.1 60.1 352.05 58.05 L351.9 58.05 M360.9 55.75 L357.95 56.5 358.2 59.6 Q361.15 57.65 361.3 56.4 361.3 56.0 360.9 55.75" fill="#000000" fill-rule="evenodd" stroke="none"/>
    <path d="M391.6 57.95 L391.7 56.65 Q391.6 54.1 387.85 54.35 L387.6 54.35 387.6 56.9 Q387.45 58.05 387.7 59.35 L388.1 59.35 391.6 59.75 391.6 57.95 M399.6 59.5 Q399.95 67.1 395.45 66.85 393.5 66.95 392.5 65.15 L391.2 65.3 388.1 65.3 388.1 67.45 388.25 69.3 Q388.1 73.9 384.1 74.05 380.1 73.9 380.1 69.4 L380.35 66.05 380.35 65.9 380.5 65.65 378.2 65.65 376.5 65.4 Q375.75 67.1 373.3 67.1 369.95 67.1 369.95 60.0 L370.2 55.6 370.6 51.35 370.45 49.8 370.3 48.65 Q372.55 49.05 373.9 49.8 L376.6 49.7 380.35 49.05 379.6 48.25 Q378.45 47.25 378.6 45.8 L378.85 44.5 379.75 44.65 381.15 44.15 Q382.6 43.25 384.1 43.25 388.25 43.35 388.4 47.1 L388.4 48.5 Q400.1 48.15 399.6 58.95 L399.6 59.5 M376.9 54.85 L377.05 56.9 377.15 59.75 377.15 60.0 380.9 59.75 380.9 58.05 381.05 55.6 381.05 54.85 379.2 54.95 377.8 54.95 377.3 54.95 376.9 54.85" fill="#000000" fill-rule="evenodd" stroke="none"/>
    <path d="M421.25 43.25 Q432.15 42.85 432.55 50.6 L432.8 59.75 432.8 63.6 432.55 70.45 Q432.15 73.9 428.95 73.9 426.5 73.9 425.85 72.5 424.85 73.0 423.3 73.0 L419.95 72.9 411.45 73.15 410.4 73.25 Q409.15 73.15 408.35 72.65 407.3 73.8 406.15 73.8 402.9 73.65 402.9 68.35 L402.9 64.9 403.2 60.1 403.6 51.75 Q403.6 50.5 402.9 48.8 402.55 47.4 402.55 46.35 L402.65 44.75 402.9 43.75 406.8 44.5 412.7 44.05 421.25 43.25 M409.0 49.45 L408.85 51.1 408.85 52.4 Q408.75 55.2 409.0 60.25 L409.05 62.8 Q409.35 61.3 410.9 60.4 410.55 60.9 410.55 61.45 410.55 62.3 412.1 62.3 L412.95 62.3 414.25 62.2 414.25 60.1 413.5 60.25 412.7 60.25 Q409.75 60.4 409.65 56.0 410.0 56.4 411.05 56.25 L414.4 56.0 Q414.15 55.5 414.25 54.7 L412.6 54.7 Q409.35 54.85 409.25 50.7 L416.2 50.35 421.25 49.8 Q425.85 49.7 425.85 52.25 425.85 54.1 423.7 54.2 L420.2 54.45 419.8 54.45 419.8 55.45 421.5 55.45 Q425.85 55.35 425.85 57.95 425.85 59.0 424.95 59.5 425.85 60.0 426.0 60.9 425.85 61.8 425.2 62.3 426.4 62.7 426.5 64.25 426.5 66.45 424.2 66.45 L418.15 66.45 415.15 66.7 412.35 66.85 Q409.5 66.85 409.05 64.3 L409.1 68.1 414.55 67.85 420.7 67.35 421.35 67.35 424.55 67.6 Q426.75 67.45 426.75 64.9 L426.75 62.3 426.5 51.25 Q426.0 48.4 421.75 48.65 L415.3 49.2 409.35 49.45 409.0 49.45 M419.8 59.75 L419.95 61.65 421.75 61.65 Q421.5 61.45 421.35 60.75 L421.25 59.75 419.8 59.75" fill="#000000" fill-rule="evenodd" stroke="none"/>
  </g>
</svg>
