<?xml version="1.0" encoding="UTF-8" standalone="no"?>
<svg xmlns:ffdec="https://www.free-decompiler.com/flash" xmlns:xlink="http://www.w3.org/1999/xlink" ffdec:objectType="shape" height="21.0px" width="150.0px" xmlns="http://www.w3.org/2000/svg">
  <g transform="matrix(1.0, 0.0, 0.0, 1.0, 0.0, 0.0)">
    <path d="M150.0 0.0 L150.0 21.0 0.0 21.0 0.0 0.0 150.0 0.0 M129.0 20.0 L149.0 20.0 149.0 1.0 129.0 1.0 1.0 1.0 1.0 20.0 129.0 20.0" fill="#733324" fill-rule="evenodd" stroke="none"/>
    <path d="M129.0 1.0 L149.0 1.0 149.0 20.0 129.0 20.0 129.0 1.0 M137.65 13.8 L140.35 13.8 144.6 8.55 141.4 8.55 139.0 11.55 136.55 8.55 133.4 8.55 137.65 13.8" fill="url(#gradient0)" fill-rule="evenodd" stroke="none"/>
    <path d="M129.0 1.0 L129.0 20.0 1.0 20.0 1.0 1.0 129.0 1.0 M137.65 13.8 L133.4 8.55 136.55 8.55 139.0 11.55 141.4 8.55 144.6 8.55 140.35 13.8 137.65 13.8" fill="#ffffff" fill-rule="evenodd" stroke="none"/>
  </g>
  <defs>
    <linearGradient gradientTransform="matrix(0.0, 0.0112, -0.0122, 0.0, 139.0, 10.3)" gradientUnits="userSpaceOnUse" id="gradient0" spreadMethod="pad" x1="-819.2" x2="819.2">
      <stop offset="0.0" stop-color="#feb7b7"/>
      <stop offset="0.20392156862745098" stop-color="#feaa85"/>
      <stop offset="0.5725490196078431" stop-color="#fe9e58"/>
      <stop offset="1.0" stop-color="#fed9a3"/>
    </linearGradient>
  </defs>
</svg>
