<?xml version="1.0" encoding="UTF-8" standalone="no"?>
<svg xmlns:ffdec="https://www.free-decompiler.com/flash" xmlns:xlink="http://www.w3.org/1999/xlink" ffdec:objectType="shape" height="20.65px" width="193.0px" xmlns="http://www.w3.org/2000/svg">
  <g transform="matrix(1.0, 0.0, 0.0, 1.0, 83.95, 10.95)">
    <path d="M7.8 -6.5 Q10.75 -8.45 15.65 -8.45 16.2 -8.45 16.25 -8.25 L16.9 -4.45 Q16.95 -4.2 16.6 -4.2 L16.1 -4.25 15.6 -4.25 Q12.95 -4.25 11.35 -3.35 9.45 -2.35 9.45 -0.2 9.45 2.8 12.55 2.8 L13.85 2.65 13.8 0.95 11.7 1.0 11.5 0.95 11.4 0.75 11.5 -1.15 11.75 -1.4 18.2 -1.75 Q18.55 -1.8 18.55 -1.55 L18.8 4.95 18.7 5.15 Q17.9 5.9 16.1 6.35 L13.1 6.7 Q9.25 6.7 6.9 4.85 4.5 2.9 4.5 -0.35 4.5 -4.35 7.8 -6.5 M3.55 -7.6 L3.55 -4.9 3.3 -4.65 -3.2 -4.65 -3.25 -2.35 1.95 -2.35 Q2.25 -2.35 2.25 -2.15 L2.25 0.6 Q2.25 0.85 1.95 0.85 L-3.25 0.85 -3.25 2.95 3.3 2.95 3.55 3.2 3.55 5.9 3.3 6.15 -7.85 6.15 -8.15 5.9 -8.15 -7.6 -7.9 -7.85 3.3 -7.85 3.55 -7.6 M38.85 -6.65 Q41.0 -7.75 43.3 -7.75 L46.9 -7.1 Q48.8 -6.4 49.9 -5.25 L50.0 -5.1 49.9 -4.95 47.15 -2.25 Q47.1 -2.15 46.95 -2.15 L46.8 -2.25 Q44.45 -3.65 42.6 -3.65 41.5 -3.65 41.5 -3.05 41.5 -2.6 43.65 -1.95 46.5 -1.05 47.65 -0.35 49.85 0.9 49.85 2.75 49.85 5.1 47.6 6.2 45.85 7.05 42.9 7.05 41.1 7.05 39.3 6.35 37.45 5.65 36.35 4.55 L36.25 4.35 36.35 4.2 39.05 1.6 39.3 1.55 40.8 2.25 Q42.4 3.0 43.5 3.0 44.75 3.0 44.75 2.3 44.75 1.8 42.6 1.25 39.75 0.55 38.55 -0.15 36.4 -1.4 36.4 -3.5 36.4 -5.35 38.85 -6.65 M28.05 -7.65 Q31.35 -7.65 33.45 -5.15 35.35 -2.9 35.35 0.05 35.35 2.9 33.35 5.0 31.2 7.2 27.9 7.2 24.05 7.2 21.85 5.2 19.7 3.25 19.7 -0.05 19.7 -3.25 21.95 -5.4 24.25 -7.65 28.05 -7.65 M27.6 -3.2 Q26.2 -3.2 25.3 -2.1 24.5 -1.1 24.5 0.15 24.5 1.35 25.3 2.35 26.2 3.45 27.6 3.45 29.0 3.45 29.9 2.35 30.75 1.35 30.75 0.15 30.75 -1.1 29.9 -2.1 29.0 -3.2 27.6 -3.2 M69.6 -4.2 L69.1 -4.25 68.6 -4.25 Q66.0 -4.25 64.4 -3.4 62.45 -2.4 62.45 -0.35 62.45 1.15 63.6 1.95 64.65 2.7 66.4 2.7 68.35 2.7 70.55 1.55 L70.7 1.5 Q71.0 1.5 71.0 1.7 L71.75 5.0 71.7 5.15 Q70.9 5.95 69.15 6.4 L66.2 6.75 Q62.35 6.75 59.95 4.85 57.5 2.95 57.5 -0.35 57.5 -4.35 60.75 -6.5 63.75 -8.45 68.65 -8.45 L69.25 -8.25 69.9 -4.45 Q69.95 -4.2 69.6 -4.2 M78.3 -2.1 Q77.5 -1.1 77.5 0.15 77.5 1.35 78.3 2.35 79.2 3.45 80.6 3.45 82.0 3.45 82.9 2.35 83.75 1.35 83.75 0.15 83.75 -1.1 82.9 -2.1 82.0 -3.2 80.6 -3.2 79.2 -3.2 78.3 -2.1 M74.95 -5.4 Q77.25 -7.65 81.05 -7.65 84.35 -7.65 86.45 -5.15 88.35 -2.9 88.35 0.05 88.35 2.9 86.35 5.0 84.2 7.2 80.9 7.2 77.05 7.2 74.85 5.2 72.7 3.25 72.7 -0.05 72.7 -3.25 74.95 -5.4 M94.8 -7.5 L95.05 -7.35 97.9 0.05 100.8 -7.35 101.05 -7.5 105.65 -7.55 105.9 -7.3 106.55 5.85 106.3 6.1 102.35 6.3 Q102.05 6.3 102.05 6.05 L101.85 -1.7 99.4 5.65 99.15 5.85 96.7 5.85 96.45 5.65 93.95 -1.7 93.8 6.05 Q93.8 6.35 93.45 6.3 L89.55 6.15 89.25 5.9 89.9 -7.3 90.2 -7.55 94.8 -7.5 M52.15 4.2 Q52.95 3.85 53.85 3.85 54.75 3.85 55.6 4.2 56.6 4.6 56.6 5.3 56.6 6.0 55.6 6.4 L53.9 6.7 52.1 6.4 Q51.1 5.95 51.1 5.25 51.1 4.6 52.15 4.2 M-81.3 -3.65 L-81.45 -7.0 -81.15 -7.25 -68.45 -7.25 -68.15 -7.0 -68.15 -3.25 -68.25 -3.1 -75.55 2.75 -68.45 2.75 Q-68.15 2.75 -68.15 3.0 L-68.15 6.55 -68.45 6.75 -81.05 6.65 -81.3 6.4 -81.45 2.85 -81.35 2.7 -74.0 -3.25 -81.05 -3.4 -81.3 -3.65 M-63.5 -7.6 L-56.45 -7.6 Q-56.25 -7.6 -56.2 -7.4 L-52.55 6.65 -52.8 6.85 -57.35 6.8 -57.6 6.6 -58.15 3.95 -61.85 3.95 -62.4 6.25 -62.7 6.45 -67.2 6.45 -67.5 6.25 -67.5 6.15 -63.8 -7.4 Q-63.75 -7.6 -63.5 -7.6 M-43.4 -2.05 Q-43.4 -3.2 -44.3 -3.75 -45.15 -4.25 -46.5 -4.25 L-46.55 -0.05 Q-43.4 -0.3 -43.4 -2.05 M-45.9 -8.05 Q-42.45 -7.65 -40.85 -6.55 -38.9 -5.2 -38.9 -2.45 -38.9 0.15 -41.3 1.7 -43.5 3.1 -46.65 3.2 L-46.7 6.2 -46.95 6.45 -51.5 6.7 -51.8 6.45 -51.9 -8.05 -51.6 -8.3 -45.9 -8.05 M-33.2 -0.4 L-32.9 -0.15 -32.9 0.75 Q-32.9 3.05 -31.2 3.05 -30.1 3.05 -29.7 2.15 -29.45 1.6 -29.45 0.45 L-29.3 -7.05 Q-29.3 -7.3 -29.0 -7.25 L-24.45 -7.1 -24.2 -6.85 -24.4 0.8 Q-24.55 6.75 -31.3 6.75 -38.0 6.75 -38.0 1.0 L-37.95 -0.55 -37.65 -0.8 -33.2 -0.4 M-22.65 -6.75 L-18.1 -6.5 -17.85 -6.25 -18.05 1.15 Q-18.05 3.45 -16.3 3.45 -15.2 3.45 -14.8 2.55 -14.55 2.0 -14.55 0.85 L-14.4 -6.35 Q-14.4 -6.55 -14.15 -6.55 L-9.6 -6.65 -9.35 -6.6 -9.3 -6.45 -9.5 1.2 Q-9.65 7.15 -16.4 7.15 -23.1 7.15 -23.1 1.4 L-22.95 -6.5 -22.65 -6.75 M-58.85 0.75 L-59.9 -4.1 -61.1 0.75 -58.85 0.75" fill="url(#gradient0)" fill-rule="evenodd" stroke="none"/>
    <path d="M7.8 -6.5 Q10.75 -8.45 15.65 -8.45 16.2 -8.45 16.25 -8.25 L16.9 -4.45 Q16.95 -4.2 16.6 -4.2 L16.1 -4.25 15.6 -4.25 Q12.95 -4.25 11.35 -3.35 9.45 -2.35 9.45 -0.2 9.45 2.8 12.55 2.8 L13.85 2.65 13.8 0.95 11.7 1.0 11.5 0.95 11.4 0.75 11.5 -1.15 11.75 -1.4 18.2 -1.75 Q18.55 -1.8 18.55 -1.55 L18.8 4.95 18.7 5.15 Q17.9 5.9 16.1 6.35 L13.1 6.7 Q9.25 6.7 6.9 4.85 4.5 2.9 4.5 -0.35 4.5 -4.35 7.8 -6.5 M3.55 -7.6 L3.55 -4.9 3.3 -4.65 -3.2 -4.65 -3.25 -2.35 1.95 -2.35 Q2.25 -2.35 2.25 -2.15 L2.25 0.6 Q2.25 0.85 1.95 0.85 L-3.25 0.85 -3.25 2.95 3.3 2.95 3.55 3.2 3.55 5.9 3.3 6.15 -7.85 6.15 -8.15 5.9 -8.15 -7.6 -7.9 -7.85 3.3 -7.85 3.55 -7.6 M38.85 -6.65 Q41.0 -7.75 43.3 -7.75 L46.9 -7.1 Q48.8 -6.4 49.9 -5.25 L50.0 -5.1 49.9 -4.95 47.15 -2.25 Q47.1 -2.15 46.95 -2.15 L46.8 -2.25 Q44.45 -3.65 42.6 -3.65 41.5 -3.65 41.5 -3.05 41.5 -2.6 43.65 -1.95 46.5 -1.05 47.65 -0.35 49.85 0.9 49.85 2.75 49.85 5.1 47.6 6.2 45.85 7.05 42.9 7.05 41.1 7.05 39.3 6.35 37.45 5.65 36.35 4.55 L36.25 4.35 36.35 4.2 39.05 1.6 39.3 1.55 40.8 2.25 Q42.4 3.0 43.5 3.0 44.75 3.0 44.75 2.3 44.75 1.8 42.6 1.25 39.75 0.55 38.55 -0.15 36.4 -1.4 36.4 -3.5 36.4 -5.35 38.85 -6.65 M28.05 -7.65 Q31.35 -7.65 33.45 -5.15 35.35 -2.9 35.35 0.05 35.35 2.9 33.35 5.0 31.2 7.2 27.9 7.2 24.05 7.2 21.85 5.2 19.7 3.25 19.7 -0.05 19.7 -3.25 21.95 -5.4 24.25 -7.65 28.05 -7.65 M27.6 -3.2 Q26.2 -3.2 25.3 -2.1 24.5 -1.1 24.5 0.15 24.5 1.35 25.3 2.35 26.2 3.45 27.6 3.45 29.0 3.45 29.9 2.35 30.75 1.35 30.75 0.15 30.75 -1.1 29.9 -2.1 29.0 -3.2 27.6 -3.2 M69.6 -4.2 L69.1 -4.25 68.6 -4.25 Q66.0 -4.25 64.4 -3.4 62.45 -2.4 62.45 -0.35 62.45 1.15 63.6 1.95 64.65 2.7 66.4 2.7 68.35 2.7 70.55 1.55 L70.7 1.5 Q71.0 1.5 71.0 1.7 L71.75 5.0 71.7 5.15 Q70.9 5.95 69.15 6.4 L66.2 6.75 Q62.35 6.75 59.95 4.85 57.5 2.95 57.5 -0.35 57.5 -4.35 60.75 -6.5 63.75 -8.45 68.65 -8.45 L69.25 -8.25 69.9 -4.45 Q69.95 -4.2 69.6 -4.2 M78.3 -2.1 Q77.5 -1.1 77.5 0.15 77.5 1.35 78.3 2.35 79.2 3.45 80.6 3.45 82.0 3.45 82.9 2.35 83.75 1.35 83.75 0.15 83.75 -1.1 82.9 -2.1 82.0 -3.2 80.6 -3.2 79.2 -3.2 78.3 -2.1 M74.95 -5.4 Q77.25 -7.65 81.05 -7.65 84.35 -7.65 86.45 -5.15 88.35 -2.9 88.35 0.05 88.35 2.9 86.35 5.0 84.2 7.2 80.9 7.2 77.05 7.2 74.85 5.2 72.7 3.25 72.7 -0.05 72.7 -3.25 74.95 -5.4 M94.8 -7.5 L95.05 -7.35 97.9 0.05 100.8 -7.35 101.05 -7.5 105.65 -7.55 105.9 -7.3 106.55 5.85 106.3 6.1 102.35 6.3 Q102.05 6.3 102.05 6.05 L101.85 -1.7 99.4 5.65 99.15 5.85 96.7 5.85 96.45 5.65 93.95 -1.7 93.8 6.05 Q93.8 6.35 93.45 6.3 L89.55 6.15 89.25 5.9 89.9 -7.3 90.2 -7.55 94.8 -7.5 M52.15 4.2 Q52.95 3.85 53.85 3.85 54.75 3.85 55.6 4.2 56.6 4.6 56.6 5.3 56.6 6.0 55.6 6.4 L53.9 6.7 52.1 6.4 Q51.1 5.95 51.1 5.25 51.1 4.6 52.15 4.2 M-81.3 -3.65 L-81.45 -7.0 -81.15 -7.25 -68.45 -7.25 -68.15 -7.0 -68.15 -3.25 -68.25 -3.1 -75.55 2.75 -68.45 2.75 Q-68.15 2.75 -68.15 3.0 L-68.15 6.55 -68.45 6.75 -81.05 6.65 -81.3 6.4 -81.45 2.85 -81.35 2.7 -74.0 -3.25 -81.05 -3.4 -81.3 -3.65 M-63.5 -7.6 L-56.45 -7.6 Q-56.25 -7.6 -56.2 -7.4 L-52.55 6.65 -52.8 6.85 -57.35 6.8 -57.6 6.6 -58.15 3.95 -61.85 3.95 -62.4 6.25 -62.7 6.45 -67.2 6.45 -67.5 6.25 -67.5 6.15 -63.8 -7.4 Q-63.75 -7.6 -63.5 -7.6 M-43.4 -2.05 Q-43.4 -3.2 -44.3 -3.75 -45.15 -4.25 -46.5 -4.25 L-46.55 -0.05 Q-43.4 -0.3 -43.4 -2.05 M-45.9 -8.05 Q-42.45 -7.65 -40.85 -6.55 -38.9 -5.2 -38.9 -2.45 -38.9 0.15 -41.3 1.7 -43.5 3.1 -46.65 3.2 L-46.7 6.2 -46.95 6.45 -51.5 6.7 -51.8 6.45 -51.9 -8.05 -51.6 -8.3 -45.9 -8.05 M-33.2 -0.4 L-32.9 -0.15 -32.9 0.75 Q-32.9 3.05 -31.2 3.05 -30.1 3.05 -29.7 2.15 -29.45 1.6 -29.45 0.45 L-29.3 -7.05 Q-29.3 -7.3 -29.0 -7.25 L-24.45 -7.1 -24.2 -6.85 -24.4 0.8 Q-24.55 6.75 -31.3 6.75 -38.0 6.75 -38.0 1.0 L-37.95 -0.55 -37.65 -0.8 -33.2 -0.4 M-22.65 -6.75 L-18.1 -6.5 -17.85 -6.25 -18.05 1.15 Q-18.05 3.45 -16.3 3.45 -15.2 3.45 -14.8 2.55 -14.55 2.0 -14.55 0.85 L-14.4 -6.35 Q-14.4 -6.55 -14.15 -6.55 L-9.6 -6.65 -9.35 -6.6 -9.3 -6.45 -9.5 1.2 Q-9.65 7.15 -16.4 7.15 -23.1 7.15 -23.1 1.4 L-22.95 -6.5 -22.65 -6.75 M-58.85 0.75 L-59.9 -4.1 -61.1 0.75 -58.85 0.75 Z" fill="none" stroke="url(#gradient1)" stroke-linecap="round" stroke-linejoin="round" stroke-width="5.0"/>
    <path d="M1.75 -2.4 L1.75 0.35 Q1.75 0.6 1.45 0.6 L-3.75 0.6 -3.75 2.7 2.8 2.7 3.05 2.95 3.05 5.65 2.8 5.9 -8.35 5.9 -8.65 5.65 -8.65 -7.85 -8.4 -8.1 2.8 -8.1 3.05 -7.85 3.05 -5.15 2.8 -4.9 -3.7 -4.9 -3.75 -2.6 1.45 -2.6 Q1.75 -2.6 1.75 -2.4 M7.3 -6.75 Q10.25 -8.7 15.15 -8.7 L15.75 -8.5 16.4 -4.7 Q16.45 -4.45 16.1 -4.45 L15.6 -4.5 15.1 -4.5 Q12.45 -4.5 10.85 -3.6 8.95 -2.6 8.95 -0.45 8.95 2.55 12.05 2.55 L13.35 2.4 13.3 0.7 11.2 0.75 11.0 0.7 10.9 0.5 11.0 -1.4 11.25 -1.65 17.7 -2.0 Q18.05 -2.05 18.05 -1.8 L18.3 4.7 18.2 4.9 Q17.4 5.65 15.6 6.1 L12.6 6.45 Q8.75 6.45 6.4 4.6 4.0 2.65 4.0 -0.6 4.0 -4.6 7.3 -6.75 M27.55 -7.9 Q30.85 -7.9 32.95 -5.4 34.85 -3.15 34.85 -0.2 34.85 2.65 32.85 4.75 30.7 6.95 27.4 6.95 23.55 6.95 21.35 4.95 19.2 3.0 19.2 -0.3 19.2 -3.5 21.45 -5.65 23.75 -7.9 27.55 -7.9 M29.4 -2.35 Q28.5 -3.45 27.1 -3.45 25.7 -3.45 24.8 -2.35 24.0 -1.35 24.0 -0.1 24.0 1.1 24.8 2.1 25.7 3.2 27.1 3.2 28.5 3.2 29.4 2.1 30.25 1.1 30.25 -0.1 30.25 -1.35 29.4 -2.35 M35.9 -3.75 Q35.9 -5.6 38.35 -6.9 40.5 -8.0 42.8 -8.0 L46.4 -7.35 Q48.3 -6.65 49.4 -5.5 L49.5 -5.35 49.4 -5.2 46.65 -2.5 Q46.6 -2.4 46.45 -2.4 L46.3 -2.5 Q43.95 -3.9 42.1 -3.9 41.0 -3.9 41.0 -3.3 41.0 -2.85 43.15 -2.2 46.0 -1.3 47.15 -0.6 49.35 0.65 49.35 2.5 49.35 4.85 47.1 5.95 45.35 6.8 42.4 6.8 40.6 6.8 38.8 6.1 36.95 5.4 35.85 4.3 L35.75 4.1 35.85 3.95 38.55 1.35 38.8 1.3 40.3 2.0 Q41.9 2.75 43.0 2.75 44.25 2.75 44.25 2.05 44.25 1.55 42.1 1.0 39.25 0.3 38.05 -0.4 35.9 -1.65 35.9 -3.75 M60.25 -6.75 Q63.25 -8.7 68.15 -8.7 68.7 -8.7 68.75 -8.5 L69.4 -4.7 Q69.45 -4.45 69.1 -4.45 L68.6 -4.5 68.1 -4.5 Q65.5 -4.5 63.9 -3.65 61.95 -2.65 61.95 -0.6 61.95 0.9 63.1 1.7 64.15 2.45 65.9 2.45 67.85 2.45 70.05 1.3 L70.2 1.25 Q70.5 1.25 70.5 1.45 L71.25 4.75 71.2 4.9 Q70.4 5.7 68.65 6.15 L65.7 6.5 Q61.85 6.5 59.45 4.6 57.0 2.7 57.0 -0.6 57.0 -4.6 60.25 -6.75 M80.55 -7.9 Q83.85 -7.9 85.95 -5.4 87.85 -3.15 87.85 -0.2 87.85 2.65 85.85 4.75 83.7 6.95 80.4 6.95 76.55 6.95 74.35 4.95 72.2 3.0 72.2 -0.3 72.2 -3.5 74.45 -5.65 76.75 -7.9 80.55 -7.9 M77.0 -0.1 Q77.0 1.1 77.8 2.1 78.7 3.2 80.1 3.2 81.5 3.2 82.4 2.1 83.25 1.1 83.25 -0.1 83.25 -1.35 82.4 -2.35 81.5 -3.45 80.1 -3.45 78.7 -3.45 77.8 -2.35 77.0 -1.35 77.0 -0.1 M94.3 -7.75 L94.55 -7.6 97.4 -0.2 100.3 -7.6 Q100.35 -7.75 100.55 -7.75 L105.15 -7.8 105.4 -7.55 106.05 5.6 105.8 5.85 101.85 6.05 Q101.55 6.05 101.55 5.8 L101.35 -1.95 98.9 5.4 98.65 5.6 96.2 5.6 95.95 5.4 93.45 -1.95 93.3 5.8 Q93.3 6.1 92.95 6.05 L89.05 5.9 88.75 5.65 89.4 -7.55 89.7 -7.8 94.3 -7.75 M55.1 6.15 L53.4 6.45 51.6 6.15 Q50.6 5.7 50.6 5.0 50.6 4.35 51.65 3.95 52.45 3.6 53.35 3.6 54.25 3.6 55.1 3.95 56.1 4.35 56.1 5.05 56.1 5.75 55.1 6.15 M-81.65 -7.5 L-68.95 -7.5 -68.65 -7.25 -68.65 -3.5 -68.75 -3.35 -76.05 2.5 -68.95 2.5 Q-68.65 2.5 -68.65 2.75 L-68.65 6.3 -68.95 6.5 -81.55 6.4 -81.8 6.15 -81.95 2.6 -81.85 2.45 -74.5 -3.5 -81.55 -3.65 -81.8 -3.9 -81.95 -7.25 -81.65 -7.5 M-64.0 -7.85 L-56.95 -7.85 -56.7 -7.65 -53.05 6.4 -53.3 6.6 -57.85 6.55 -58.1 6.35 -58.65 3.7 -62.35 3.7 -62.9 6.0 -63.2 6.2 -67.7 6.2 -68.0 6.0 -68.0 5.9 -64.3 -7.65 Q-64.25 -7.85 -64.0 -7.85 M-52.1 -8.55 L-46.4 -8.3 Q-42.95 -7.9 -41.35 -6.8 -39.4 -5.45 -39.4 -2.7 -39.4 -0.1 -41.8 1.45 -44.0 2.85 -47.15 2.95 L-47.2 5.95 -47.45 6.2 -52.0 6.45 -52.3 6.2 -52.4 -8.3 -52.1 -8.55 M-44.8 -4.0 Q-45.65 -4.5 -47.0 -4.5 L-47.05 -0.3 Q-43.9 -0.55 -43.9 -2.3 -43.9 -3.45 -44.8 -4.0 M-33.7 -0.65 L-33.4 -0.4 -33.4 0.5 Q-33.4 2.8 -31.7 2.8 -30.6 2.8 -30.2 1.9 -29.95 1.35 -29.95 0.2 L-29.8 -7.3 Q-29.8 -7.55 -29.5 -7.5 L-24.95 -7.35 -24.7 -7.1 -24.9 0.55 Q-25.05 6.5 -31.8 6.5 -38.5 6.5 -38.5 0.75 L-38.45 -0.8 -38.15 -1.05 -33.7 -0.65 M-23.15 -7.0 L-18.6 -6.75 -18.35 -6.5 -18.55 0.9 Q-18.55 3.2 -16.8 3.2 -15.7 3.2 -15.3 2.3 -15.05 1.75 -15.05 0.6 L-14.9 -6.6 -14.65 -6.8 -10.1 -6.9 -9.85 -6.85 -9.8 -6.7 -10.0 0.95 Q-10.15 6.9 -16.9 6.9 -23.6 6.9 -23.6 1.15 L-23.45 -6.75 -23.15 -7.0 M-59.35 0.5 L-60.4 -4.35 -61.6 0.5 -59.35 0.5" fill="#ffffff" fill-rule="evenodd" stroke="none"/>
  </g>
  <defs>
    <linearGradient gradientTransform="matrix(0.0, 0.3346, -0.1207, 0.0, 12.45, -89.4)" gradientUnits="userSpaceOnUse" id="gradient0" spreadMethod="pad" x1="-819.2" x2="819.2">
      <stop offset="0.0" stop-color="#ffffff"/>
      <stop offset="1.0" stop-color="#000000"/>
    </linearGradient>
    <linearGradient gradientTransform="matrix(0.0, 0.0115, -0.0136, 0.0, 97.9, -0.65)" gradientUnits="userSpaceOnUse" id="gradient1" spreadMethod="pad" x1="-819.2" x2="819.2">
      <stop offset="0.23529411764705882" stop-color="#efa200"/>
      <stop offset="0.8313725490196079" stop-color="#a31b00"/>
    </linearGradient>
  </defs>
</svg>
