<?xml version="1.0" encoding="UTF-8" standalone="no"?>
<svg xmlns:ffdec="https://www.free-decompiler.com/flash" xmlns:xlink="http://www.w3.org/1999/xlink" ffdec:objectType="shape" height="14.9px" width="22.4px" xmlns="http://www.w3.org/2000/svg">
  <g transform="matrix(1.0, 0.0, 0.0, 1.0, 0.0, 0.0)">
    <path d="M7.35 4.1 L7.4 3.8 Q7.35 3.35 7.05 3.4 L7.05 3.6 7.05 3.65 7.1 4.2 7.1 4.3 7.1 4.35 7.15 4.8 7.15 4.9 7.15 4.95 7.15 5.35 7.15 5.4 6.5 5.25 6.45 5.35 Q6.15 5.9 6.85 5.85 7.0 6.1 6.65 6.35 6.05 6.85 5.75 6.25 L5.75 6.2 5.6 5.85 5.6 5.9 5.6 6.0 5.55 6.0 5.6 6.55 6.8 6.6 7.1 5.75 7.3 6.4 6.35 7.1 6.25 7.1 6.2 7.1 5.85 7.1 5.8 7.1 5.45 6.65 5.5 6.6 5.4 6.2 5.4 6.15 5.3 6.1 5.35 7.0 5.35 7.05 5.75 7.4 5.8 7.4 6.35 7.45 6.35 7.4 Q7.1 7.2 7.45 6.6 L7.45 6.55 7.45 6.0 7.45 5.95 7.45 5.65 8.6 5.45 Q8.6 4.8 8.3 5.35 L8.25 5.35 7.75 5.3 7.6 5.2 7.4 4.85 7.4 4.8 7.4 4.55 7.4 4.5 7.35 4.1 M6.25 3.8 L6.25 3.75 6.1 3.6 6.1 4.0 6.1 4.05 6.1 4.4 6.1 4.45 6.0 4.2 Q6.05 3.5 5.65 3.25 L5.75 3.65 5.75 3.7 5.75 4.35 5.8 4.35 5.8 4.4 Q5.8 4.8 5.55 4.5 L5.55 4.45 5.55 4.1 5.6 4.0 5.55 3.8 Q5.15 3.95 5.1 4.45 L5.0 4.55 4.7 3.95 Q4.65 4.6 4.9 5.0 L4.95 5.0 5.25 4.55 5.25 4.5 5.3 4.55 5.35 4.55 5.8 5.2 5.9 5.5 5.9 5.6 5.9 6.25 5.95 6.25 6.05 6.2 6.05 6.1 6.1 6.1 6.05 5.0 6.05 4.95 6.05 4.85 Q6.2 4.6 6.35 4.75 L6.4 4.8 6.8 4.85 6.85 4.85 Q7.1 4.1 6.75 3.55 6.65 3.5 6.65 3.6 L6.65 4.25 Q6.75 4.8 6.4 4.35 L6.4 4.3 6.25 3.8 M4.95 5.7 L4.95 5.75 5.55 5.4 4.95 5.7 M0.05 0.05 L9.65 0.05 19.25 0.05 22.35 0.05 22.35 9.7 22.35 14.8 12.7 14.8 3.1 14.8 0.05 14.8 0.05 5.15 0.05 0.05 M4.8 6.75 L4.8 6.8 Q4.7 7.3 5.05 7.35 L5.1 7.2 5.0 7.1 Q5.05 6.35 4.8 6.75 M7.1 10.7 L7.05 10.7 6.25 10.7 6.25 10.75 Q6.65 11.1 7.35 11.1 L7.35 11.15 8.0 11.2 8.05 11.2 10.5 11.2 10.55 11.2 12.15 11.25 12.15 11.2 14.3 11.2 14.35 11.2 14.35 11.25 14.3 11.3 Q14.35 11.7 14.8 11.5 L15.0 11.45 15.7 11.6 Q16.15 11.1 15.6 10.85 L15.55 10.8 15.5 10.8 14.55 10.7 14.55 10.65 Q14.5 10.3 14.3 10.55 L14.3 10.7 14.0 10.75 12.0 10.75 11.95 10.75 10.65 10.75 10.6 10.75 9.4 10.7 9.35 10.7 7.1 10.7 M14.55 5.8 L14.5 5.4 14.45 4.3 Q14.55 3.45 14.05 3.3 L14.1 3.95 14.1 4.0 14.15 4.4 14.45 6.6 14.5 6.6 14.55 6.4 14.6 6.4 14.55 5.8 M13.75 4.05 L13.75 4.0 Q13.9 3.3 13.45 3.3 L13.65 5.75 13.65 5.8 13.65 6.5 13.65 6.55 13.65 6.6 12.85 7.35 Q13.65 7.45 13.85 6.65 L13.85 6.6 13.9 6.4 13.9 6.35 13.9 5.9 13.9 5.85 13.85 5.6 13.85 5.55 13.85 5.25 13.85 5.2 13.8 4.65 13.8 4.6 13.8 4.5 13.8 4.45 13.75 4.05 M14.8 4.35 L14.8 4.4 15.2 4.8 15.35 4.3 15.3 4.3 14.8 4.35 M12.9 3.2 L12.95 3.55 13.0 3.65 Q13.25 3.3 12.9 3.2 M12.7 5.35 L12.7 5.25 13.55 6.4 13.5 5.95 12.55 4.25 12.55 4.2 12.65 3.85 12.65 3.8 Q12.55 3.2 12.25 3.3 L12.2 3.3 12.1 3.6 12.1 3.55 Q11.95 3.3 11.65 3.25 11.8 3.95 12.2 4.35 L12.4 4.7 12.4 5.4 12.45 5.4 12.45 5.85 12.5 5.85 12.55 6.45 Q12.6 7.2 12.75 6.45 L12.75 6.4 12.8 6.4 12.75 5.85 12.75 5.8 12.75 5.75 12.7 5.35 M13.25 4.25 L13.3 4.25 Q13.25 4.05 13.05 4.2 L12.95 4.2 13.25 4.3 13.25 4.25 M16.8 3.55 L16.85 3.8 16.9 3.85 Q17.15 3.8 16.8 3.55 M17.55 4.55 L17.55 4.1 Q17.65 3.2 17.1 3.3 L17.45 5.7 17.45 5.8 17.4 6.25 17.4 6.2 16.6 5.0 16.6 4.95 Q16.7 3.85 16.3 3.2 L16.3 3.25 Q16.15 3.8 16.45 4.45 L16.45 4.5 Q16.4 4.8 16.25 4.55 15.95 4.3 16.0 3.75 16.1 3.15 15.65 3.3 L15.65 3.4 15.65 3.45 15.6 3.45 15.55 3.5 15.55 3.45 15.1 3.3 15.8 4.45 15.85 4.45 15.9 5.55 15.9 5.6 15.9 6.0 15.95 6.0 15.95 6.2 15.9 6.3 Q15.5 6.6 15.2 6.1 L15.15 6.15 Q14.75 6.45 14.65 7.05 14.35 7.15 14.35 6.8 L14.15 6.3 14.15 6.35 14.1 6.35 14.15 6.8 Q14.2 7.4 14.75 7.3 L15.2 6.55 15.25 6.5 Q15.7 7.05 16.15 6.5 L16.15 6.45 16.2 6.45 16.15 5.75 16.15 5.7 16.15 5.6 16.15 5.55 16.1 5.15 16.1 5.1 16.1 4.9 16.5 5.3 16.55 5.35 Q16.5 6.05 16.7 6.55 L16.75 6.55 16.85 5.75 16.85 5.8 17.35 6.45 17.35 6.5 16.75 7.35 16.8 7.35 Q17.15 7.3 17.35 7.05 L17.4 7.05 17.6 6.5 17.6 6.45 17.65 6.45 17.6 5.25 17.6 5.2 17.6 5.0 17.6 4.95 17.55 4.55 M15.0 5.4 L15.3 5.4 15.35 5.25 Q15.3 5.1 15.0 5.4 M8.6 3.55 L8.6 3.5 Q8.55 3.0 8.35 3.4 L8.35 3.45 Q8.35 4.0 7.75 4.25 8.4 4.1 8.6 3.55 M9.95 3.8 Q9.75 3.15 9.5 3.95 9.2 4.7 9.0 4.0 L9.0 3.95 8.95 3.55 8.9 3.55 8.85 3.55 8.85 4.35 8.9 4.35 Q9.3 5.05 9.6 4.2 9.7 3.85 9.7 4.1 9.65 4.8 10.25 4.8 L10.3 4.8 Q10.55 4.25 10.9 4.65 L10.95 4.65 11.4 4.5 11.45 4.45 11.2 3.3 11.2 3.25 Q10.9 3.45 11.1 3.85 11.35 4.25 11.1 4.35 L10.75 4.2 10.7 4.1 Q10.75 3.4 10.4 3.3 L10.45 3.45 10.45 3.75 10.45 4.1 10.45 4.2 10.45 4.25 9.95 4.3 9.95 4.25 9.95 3.8 M9.95 5.85 L9.9 5.8 9.55 4.9 9.5 4.9 9.75 6.45 9.75 6.5 Q9.35 7.05 8.6 7.1 L9.35 6.2 9.35 6.1 Q9.4 5.35 8.95 5.0 L8.9 5.0 Q8.95 5.6 9.15 6.0 L9.0 6.15 Q8.75 6.5 8.6 6.25 L8.6 6.2 8.3 6.75 8.25 6.75 7.35 7.35 8.35 7.15 8.35 7.2 8.45 7.2 Q8.55 7.5 9.0 7.45 L9.05 7.4 9.85 6.75 9.9 6.75 Q10.35 7.4 11.2 7.35 L11.25 7.35 10.8 6.8 12.25 6.2 12.25 6.15 Q12.1 5.8 11.55 5.95 L11.5 5.95 10.8 5.95 Q10.9 5.75 11.45 5.65 11.95 5.55 11.85 5.1 L11.85 5.05 Q11.5 4.7 11.15 5.05 L11.1 5.15 11.1 5.25 Q10.55 5.55 10.1 6.0 L10.1 6.1 10.1 6.2 10.05 6.25 10.05 6.2 9.95 5.85 M10.1 3.5 Q10.2 3.85 10.2 3.55 L10.2 3.4 10.1 3.3 10.1 3.45 10.1 3.5 M10.4 5.2 Q11.1 5.1 10.4 5.1 L10.4 5.2 M12.05 7.15 L12.0 7.15 11.85 6.95 11.85 6.9 11.7 6.9 Q11.85 7.55 12.1 7.15 L12.05 7.15 M8.0 6.25 L8.05 6.3 Q8.35 6.1 7.95 5.95 L8.0 6.25" fill="#015209" fill-rule="evenodd" stroke="none"/>
    <path d="M7.05 3.65 L7.05 3.6 7.05 3.4 Q7.35 3.35 7.4 3.8 L7.35 4.1 7.35 4.55 7.4 4.55 7.4 4.8 7.4 4.85 Q7.3 5.2 7.55 5.2 L7.6 5.2 7.75 5.3 8.25 5.35 8.3 5.35 Q8.6 4.8 8.6 5.45 L7.45 5.65 7.45 5.95 7.45 6.0 7.45 6.5 7.45 6.55 7.45 6.6 Q7.1 7.2 6.35 7.4 L6.25 7.4 5.8 7.4 5.75 7.4 5.35 7.05 5.35 7.0 5.35 6.2 5.4 6.2 5.4 6.65 5.45 6.65 5.8 7.1 5.85 7.1 6.25 7.15 6.25 7.1 6.35 7.1 7.3 6.4 7.1 5.75 6.8 6.6 5.6 6.55 5.6 6.5 5.6 6.0 5.6 5.9 5.7 6.25 5.75 6.25 Q6.05 6.85 6.65 6.35 7.0 6.1 6.85 5.85 6.15 5.9 6.45 5.35 L6.5 5.25 7.15 5.4 7.2 5.4 7.15 4.95 7.15 4.9 7.15 4.8 7.15 4.7 7.1 4.35 7.1 4.3 7.1 4.2 7.1 4.1 7.05 3.65" fill="#eff4ef" fill-rule="evenodd" stroke="none"/>
    <path d="M6.1 4.05 L6.1 4.0 6.1 3.6 6.25 3.75 6.25 3.8 6.35 4.35 6.4 4.35 Q6.75 4.8 6.65 4.25 L6.65 3.6 Q6.65 3.5 6.75 3.55 7.1 4.1 6.85 4.85 L6.8 4.85 6.75 4.85 6.4 4.8 6.35 4.75 Q6.2 4.6 6.05 4.85 L6.05 4.95 6.05 5.0 6.05 6.05 6.05 6.1 6.05 6.2 5.95 6.25 5.95 6.2 5.9 5.6 5.9 5.5 5.8 5.2 5.35 4.55 5.35 4.5 Q5.45 4.0 5.25 4.4 L5.25 4.5 5.25 4.55 4.95 5.0 4.9 5.0 Q4.65 4.6 4.7 3.95 L5.0 4.55 5.1 4.45 Q5.15 3.95 5.55 3.8 L5.6 4.0 5.55 4.1 5.5 4.1 5.55 4.5 Q5.8 4.8 5.8 4.4 L5.8 4.35 5.8 4.3 5.75 3.7 5.75 3.65 5.65 3.25 Q6.05 3.5 6.0 4.2 L6.1 4.45 6.15 4.45 6.1 4.05" fill="#eaf1eb" fill-rule="evenodd" stroke="none"/>
    <path d="M6.1 4.05 L6.15 4.45 6.1 4.45 6.1 4.4 6.1 4.05" fill="#5d9164" fill-rule="evenodd" stroke="none"/>
    <path d="M6.4 4.35 L6.35 4.35 6.25 3.8 6.4 4.3 6.4 4.35" fill="#81ab85" fill-rule="evenodd" stroke="none"/>
    <path d="M7.1 4.2 L7.05 3.65 7.1 4.1 7.1 4.2" fill="#8cb28f" fill-rule="evenodd" stroke="none"/>
    <path d="M5.25 4.5 L5.25 4.4 Q5.45 4.0 5.35 4.5 L5.35 4.55 5.3 4.55 5.25 4.5" fill="#5f9364" fill-rule="evenodd" stroke="none"/>
    <path d="M5.55 4.5 L5.5 4.1 5.55 4.1 5.55 4.45 5.55 4.5" fill="#a3c2a6" fill-rule="evenodd" stroke="none"/>
    <path d="M5.75 3.7 L5.8 4.3 5.8 4.35 5.75 4.35 5.75 3.7" fill="#98ba9d" fill-rule="evenodd" stroke="none"/>
    <path d="M4.95 5.7 L5.55 5.4 4.95 5.75 4.95 5.7" fill="#dce7dd" fill-rule="evenodd" stroke="none"/>
    <path d="M5.6 5.9 L5.6 5.85 5.75 6.2 5.75 6.25 5.7 6.25 5.6 5.9" fill="#76a37d" fill-rule="evenodd" stroke="none"/>
    <path d="M5.6 6.55 L5.55 6.0 5.6 6.0 5.6 6.5 5.6 6.55" fill="#a6c5ad" fill-rule="evenodd" stroke="none"/>
    <path d="M7.15 4.8 L7.1 4.35 7.15 4.7 7.15 4.8" fill="#7ca67f" fill-rule="evenodd" stroke="none"/>
    <path d="M6.4 4.8 L6.75 4.85 6.8 4.85 6.4 4.8" fill="#8db293" fill-rule="evenodd" stroke="none"/>
    <path d="M6.05 6.1 L6.05 6.05 6.05 5.0 6.1 6.1 6.05 6.1" fill="#94b79b" fill-rule="evenodd" stroke="none"/>
    <path d="M7.15 5.4 L7.15 5.35 7.15 4.95 7.2 5.4 7.15 5.4" fill="#8fb594" fill-rule="evenodd" stroke="none"/>
    <path d="M0.0 0.0 L9.6 0.0 19.2 0.0 22.4 0.0 22.4 9.65 22.4 14.9 12.75 14.9 3.15 14.9 0.0 14.9 0.0 5.2 0.0 0.0 M0.05 0.05 L0.05 5.15 0.05 14.8 3.1 14.8 12.7 14.8 22.35 14.8 22.35 9.7 22.35 0.05 19.25 0.05 9.65 0.05 0.05 0.05" fill="#c6c6c6" fill-rule="evenodd" stroke="none"/>
    <path d="M5.85 7.1 L6.2 7.1 6.25 7.1 6.25 7.15 5.85 7.1" fill="#689b71" fill-rule="evenodd" stroke="none"/>
    <path d="M6.35 7.4 L6.35 7.45 5.8 7.4 6.25 7.4 6.35 7.4" fill="#7ea782" fill-rule="evenodd" stroke="none"/>
    <path d="M5.9 5.6 L5.95 6.2 5.95 6.25 5.9 6.25 5.9 5.6" fill="#558c5c" fill-rule="evenodd" stroke="none"/>
    <path d="M5.4 6.2 L5.5 6.6 5.45 6.65 5.4 6.65 5.4 6.2" fill="#8db294" fill-rule="evenodd" stroke="none"/>
    <path d="M4.8 6.75 Q5.05 6.35 5.0 7.1 L5.1 7.2 5.05 7.35 Q4.7 7.3 4.8 6.8 L4.8 6.75" fill="#e7efe8" fill-rule="evenodd" stroke="none"/>
    <path d="M5.35 7.0 L5.3 6.1 5.4 6.15 5.4 6.2 5.35 6.2 5.35 7.0" fill="#7da582" fill-rule="evenodd" stroke="none"/>
    <path d="M7.1 10.75 L7.05 10.75 6.25 10.75 6.25 10.7 7.05 10.7 7.1 10.7 7.1 10.75" fill="#99baa1" fill-rule="evenodd" stroke="none"/>
    <path d="M6.25 10.75 L7.05 10.75 7.1 10.75 9.35 10.75 9.4 10.75 10.6 10.75 10.65 10.75 11.95 10.8 12.0 10.8 14.0 10.75 14.3 10.7 14.3 10.55 Q14.5 10.3 14.55 10.65 L14.55 10.7 14.5 10.7 15.5 10.8 15.55 10.8 15.6 10.85 Q16.15 11.1 15.7 11.6 L15.0 11.45 14.8 11.5 Q14.35 11.7 14.3 11.3 L14.35 11.25 14.35 11.2 14.35 11.15 12.15 11.15 12.15 11.2 12.1 11.2 10.55 11.2 10.55 11.15 8.05 11.15 8.0 11.15 7.35 11.15 7.35 11.1 Q6.65 11.1 6.25 10.75 M15.35 11.25 L14.55 11.15 14.55 11.2 15.35 11.3 15.35 11.25" fill="#f8faf8" fill-rule="evenodd" stroke="none"/>
    <path d="M7.1 10.75 L7.1 10.7 9.35 10.7 9.4 10.7 9.4 10.75 9.35 10.75 7.1 10.75" fill="#598f61" fill-rule="evenodd" stroke="none"/>
    <path d="M14.1 4.0 L14.1 3.95 14.05 3.3 Q14.55 3.45 14.45 4.3 L14.5 5.4 14.55 5.8 14.55 6.35 14.55 6.4 14.5 6.6 14.45 6.6 14.15 4.4 14.15 4.35 14.1 4.0" fill="#dce8dd" fill-rule="evenodd" stroke="none"/>
    <path d="M13.65 5.8 L13.65 5.75 13.45 3.3 Q13.9 3.3 13.75 4.0 L13.75 4.05 13.75 4.5 13.8 4.5 13.8 4.6 13.8 4.65 13.8 5.25 13.85 5.25 13.85 5.55 13.85 5.6 13.85 6.55 13.85 6.6 13.85 6.65 Q13.65 7.45 12.85 7.35 L13.65 6.6 13.65 6.55 13.7 6.55 13.65 5.8 M12.25 3.3 Q12.55 3.2 12.65 3.8 L12.65 3.85 12.55 4.2 12.55 4.25 13.5 5.95 13.55 6.4 12.7 5.25 12.7 5.35 12.75 5.8 12.75 5.85 12.75 6.35 12.75 6.4 12.75 6.45 Q12.6 7.2 12.55 6.45 L12.55 6.4 12.5 5.85 12.5 5.8 12.45 5.4 12.45 5.35 12.4 4.7 12.2 4.35 Q11.8 3.95 11.65 3.25 11.95 3.3 12.1 3.55 L12.1 3.6 12.1 3.65 12.05 3.65 Q12.35 4.1 12.25 3.4 L12.25 3.3 M12.25 6.15 L12.25 6.2 10.8 6.8 11.25 7.35 11.2 7.35 Q10.35 7.4 9.9 6.75 L9.85 6.75 9.05 7.4 9.0 7.45 Q8.55 7.5 8.45 7.2 L8.35 7.2 8.35 7.15 7.35 7.35 8.25 6.75 8.3 6.75 8.6 6.2 8.6 6.25 Q8.75 6.5 9.0 6.15 L9.15 6.0 Q8.95 5.6 8.9 5.0 L8.95 5.0 Q9.4 5.35 9.35 6.1 L9.35 6.2 8.6 7.1 Q9.35 7.05 9.75 6.5 L9.75 6.45 9.5 4.9 9.55 4.9 9.9 5.8 9.95 5.85 10.0 6.25 10.05 6.25 10.55 6.9 Q10.6 6.55 10.95 6.35 L10.95 6.3 10.2 6.25 10.15 6.25 10.1 6.2 10.1 6.1 10.1 6.0 Q10.55 5.55 11.1 5.25 L11.1 5.15 11.15 5.05 Q11.5 4.7 11.85 5.05 L11.85 5.1 Q11.95 5.55 11.45 5.65 10.9 5.75 10.8 5.95 L11.5 6.0 11.55 6.0 Q12.0 5.95 12.25 6.15 M11.35 5.2 Q11.8 5.25 11.35 5.15 L11.35 5.2" fill="#edf3ee" fill-rule="evenodd" stroke="none"/>
    <path d="M13.75 4.05 L13.8 4.45 13.8 4.5 13.75 4.5 13.75 4.05" fill="#a8c3ad" fill-rule="evenodd" stroke="none"/>
    <path d="M14.15 4.4 L14.1 4.0 14.15 4.35 14.15 4.4" fill="#77a17b" fill-rule="evenodd" stroke="none"/>
    <path d="M14.8 4.35 L15.3 4.3 15.35 4.3 15.2 4.8 14.8 4.4 14.8 4.35" fill="#d7e5d9" fill-rule="evenodd" stroke="none"/>
    <path d="M12.9 3.2 Q13.25 3.3 13.0 3.65 L12.95 3.55 12.9 3.2" fill="#bed4c0" fill-rule="evenodd" stroke="none"/>
    <path d="M13.25 4.25 L13.25 4.3 12.95 4.2 13.05 4.2 13.2 4.25 13.25 4.25" fill="#cadbcd" fill-rule="evenodd" stroke="none"/>
    <path d="M13.05 4.2 Q13.25 4.05 13.3 4.25 L13.25 4.25 13.2 4.25 13.05 4.2" fill="#e2ece3" fill-rule="evenodd" stroke="none"/>
    <path d="M12.45 5.4 L12.4 5.4 12.4 4.7 12.45 5.35 12.45 5.4" fill="#719f76" fill-rule="evenodd" stroke="none"/>
    <path d="M12.5 5.85 L12.45 5.85 12.45 5.4 12.5 5.8 12.5 5.85" fill="#77a47e" fill-rule="evenodd" stroke="none"/>
    <path d="M12.7 5.35 L12.75 5.75 12.75 5.8 12.7 5.35" fill="#619567" fill-rule="evenodd" stroke="none"/>
    <path d="M13.8 4.65 L13.85 5.2 13.85 5.25 13.8 5.25 13.8 4.65" fill="#9bbb9f" fill-rule="evenodd" stroke="none"/>
    <path d="M13.85 5.6 L13.9 5.85 13.9 5.9 13.9 6.3 13.9 6.35 13.9 6.4 13.85 6.6 13.85 6.55 13.85 5.6" fill="#b3cdb5" fill-rule="evenodd" stroke="none"/>
    <path d="M15.65 3.45 L15.65 3.4 15.65 3.3 Q16.1 3.15 16.0 3.75 15.95 4.3 16.25 4.55 16.4 4.8 16.45 4.5 L16.45 4.45 Q16.15 3.8 16.3 3.25 L16.3 3.2 Q16.7 3.85 16.6 4.95 L16.6 5.0 17.4 6.2 17.4 6.25 17.45 5.8 17.45 5.7 17.1 3.3 Q17.65 3.2 17.55 4.1 L17.55 4.55 17.6 5.0 17.6 5.2 17.6 5.25 17.6 6.4 17.6 6.45 17.6 6.5 17.4 7.05 17.35 7.05 Q17.15 7.3 16.8 7.35 L16.75 7.35 17.35 6.5 17.35 6.45 16.85 5.8 16.85 5.75 16.75 6.55 16.7 6.55 Q16.5 6.05 16.55 5.35 L16.5 5.3 16.1 4.9 16.1 5.1 16.1 5.15 16.15 5.55 16.15 5.6 16.15 5.7 16.15 5.75 16.15 6.4 16.15 6.45 16.15 6.5 Q15.7 7.05 15.25 6.5 L15.2 6.55 14.75 7.3 Q14.2 7.4 14.15 6.8 L14.15 6.75 14.15 6.35 14.15 6.3 14.35 6.8 Q14.35 7.15 14.65 7.05 14.75 6.45 15.15 6.15 L15.2 6.1 Q15.5 6.6 15.9 6.3 L15.95 6.2 15.95 6.0 15.95 5.95 15.9 5.6 15.9 5.55 15.85 4.45 15.8 4.45 15.1 3.3 15.55 3.45 15.55 3.5 Q15.7 4.05 15.65 3.5 L15.65 3.45 M8.9 3.55 L8.95 3.55 9.0 3.95 9.0 4.0 Q9.2 4.7 9.5 3.95 9.75 3.15 9.95 3.8 L9.9 3.8 9.9 4.3 9.95 4.3 10.45 4.25 10.45 4.2 10.5 4.2 10.45 3.75 10.45 3.45 10.4 3.3 Q10.75 3.4 10.7 4.1 L10.75 4.2 11.1 4.35 Q11.35 4.25 11.1 3.85 10.9 3.45 11.2 3.25 L11.2 3.3 11.45 4.45 11.4 4.5 10.95 4.65 10.9 4.65 Q10.55 4.25 10.3 4.8 L10.25 4.8 Q9.65 4.8 9.7 4.1 9.7 3.85 9.6 4.2 9.3 5.05 8.9 4.35 L8.9 4.3 8.9 3.55" fill="#ecf2ed" fill-rule="evenodd" stroke="none"/>
    <path d="M16.8 3.55 Q17.15 3.8 16.9 3.85 L16.85 3.8 16.8 3.55" fill="#d1e0d3" fill-rule="evenodd" stroke="none"/>
    <path d="M15.55 3.5 L15.6 3.45 15.65 3.45 15.65 3.5 Q15.7 4.05 15.55 3.5" fill="#528b58" fill-rule="evenodd" stroke="none"/>
    <path d="M15.0 5.4 Q15.3 5.1 15.35 5.25 L15.3 5.4 15.0 5.4" fill="#dee9df" fill-rule="evenodd" stroke="none"/>
    <path d="M15.95 6.0 L15.9 6.0 15.9 5.6 15.95 5.95 15.95 6.0" fill="#5b8f64" fill-rule="evenodd" stroke="none"/>
    <path d="M8.9 3.55 L8.9 4.3 8.9 4.35 8.85 4.35 8.85 3.55 8.9 3.55" fill="#83ac89" fill-rule="evenodd" stroke="none"/>
    <path d="M8.6 3.55 Q8.4 4.1 7.75 4.25 8.35 4.0 8.35 3.45 L8.35 3.4 Q8.55 3.0 8.6 3.5 L8.6 3.55" fill="#d2e0d4" fill-rule="evenodd" stroke="none"/>
    <path d="M7.35 4.1 L7.4 4.5 7.4 4.55 7.35 4.55 7.35 4.1" fill="#76a17c" fill-rule="evenodd" stroke="none"/>
    <path d="M7.4 4.85 L7.6 5.2 7.55 5.2 Q7.3 5.2 7.4 4.85" fill="#67986c" fill-rule="evenodd" stroke="none"/>
    <path d="M12.1 3.6 L12.2 3.3 12.25 3.3 12.25 3.4 Q12.35 4.1 12.05 3.65 L12.1 3.65 12.1 3.6" fill="#488350" fill-rule="evenodd" stroke="none"/>
    <path d="M10.1 3.5 L10.1 3.45 10.1 3.3 10.2 3.4 10.2 3.55 Q10.2 3.85 10.1 3.5" fill="#dae6dc" fill-rule="evenodd" stroke="none"/>
    <path d="M9.95 4.3 L9.9 4.3 9.9 3.8 9.95 3.8 9.95 4.25 9.95 4.3" fill="#47824f" fill-rule="evenodd" stroke="none"/>
    <path d="M10.45 3.75 L10.5 4.2 10.45 4.2 10.45 4.1 10.45 3.75" fill="#67996e" fill-rule="evenodd" stroke="none"/>
    <path d="M10.4 5.2 L10.4 5.1 Q11.1 5.1 10.4 5.2" fill="#dde9de" fill-rule="evenodd" stroke="none"/>
    <path d="M11.35 5.2 L11.35 5.15 Q11.8 5.25 11.35 5.2" fill="#17621f" fill-rule="evenodd" stroke="none"/>
    <path d="M10.8 5.95 L11.5 5.95 11.55 5.95 11.55 6.0 11.5 6.0 10.8 5.95" fill="#96b999" fill-rule="evenodd" stroke="none"/>
    <path d="M11.55 5.95 Q12.1 5.8 12.25 6.15 12.0 5.95 11.55 6.0 L11.55 5.95" fill="#77a57d" fill-rule="evenodd" stroke="none"/>
    <path d="M12.05 7.15 L12.05 7.2 Q11.8 7.3 11.85 6.95 L12.0 7.15 12.05 7.15" fill="#619569" fill-rule="evenodd" stroke="none"/>
    <path d="M11.85 6.95 Q11.8 7.3 12.05 7.2 L12.05 7.15 12.1 7.15 Q11.85 7.55 11.7 6.9 L11.85 6.9 11.85 6.95" fill="#cfe0d1" fill-rule="evenodd" stroke="none"/>
    <path d="M10.05 6.25 L10.1 6.2 10.15 6.25 10.2 6.25 10.95 6.3 10.95 6.35 Q10.6 6.55 10.55 6.9 L10.05 6.25" fill="#125e1b" fill-rule="evenodd" stroke="none"/>
    <path d="M9.95 5.85 L10.05 6.2 10.05 6.25 10.0 6.25 9.95 5.85" fill="#84ae89" fill-rule="evenodd" stroke="none"/>
    <path d="M7.45 6.0 L7.45 6.55 7.45 6.5 7.45 6.0" fill="#a5c1a8" fill-rule="evenodd" stroke="none"/>
    <path d="M8.0 6.25 L7.95 5.95 Q8.35 6.1 8.05 6.3 L8.0 6.25" fill="#c4d8c7" fill-rule="evenodd" stroke="none"/>
    <path d="M10.6 10.75 L9.4 10.75 9.4 10.7 10.6 10.75" fill="#317339" fill-rule="evenodd" stroke="none"/>
    <path d="M7.35 11.15 L8.0 11.15 8.05 11.15 8.05 11.2 8.0 11.2 7.35 11.15" fill="#548c5b" fill-rule="evenodd" stroke="none"/>
    <path d="M8.05 11.15 L10.55 11.15 10.55 11.2 10.5 11.2 8.05 11.2 8.05 11.15" fill="#9bbc9c" fill-rule="evenodd" stroke="none"/>
    <path d="M12.0 10.8 L11.95 10.8 10.65 10.75 11.95 10.75 12.0 10.75 12.0 10.8" fill="#9bbca3" fill-rule="evenodd" stroke="none"/>
    <path d="M12.15 11.2 L12.15 11.15 14.35 11.15 14.35 11.2 14.3 11.2 12.15 11.2" fill="#95b896" fill-rule="evenodd" stroke="none"/>
    <path d="M10.55 11.2 L12.1 11.2 12.15 11.2 12.15 11.25 10.55 11.2" fill="#307338" fill-rule="evenodd" stroke="none"/>
    <path d="M14.0 10.75 L12.0 10.8 12.0 10.75 14.0 10.75" fill="#699670" fill-rule="evenodd" stroke="none"/>
    <path d="M16.15 5.75 L16.2 6.45 16.15 6.45 16.15 6.4 16.15 5.75" fill="#5a9161" fill-rule="evenodd" stroke="none"/>
    <path d="M14.55 5.8 L14.6 6.4 14.55 6.4 14.55 6.35 14.55 5.8" fill="#558c5d" fill-rule="evenodd" stroke="none"/>
    <path d="M14.15 6.8 L14.1 6.35 14.15 6.35 14.15 6.75 14.15 6.8" fill="#417d49" fill-rule="evenodd" stroke="none"/>
    <path d="M13.9 5.9 L13.9 6.35 13.9 6.3 13.9 5.9" fill="#307238" fill-rule="evenodd" stroke="none"/>
    <path d="M13.65 6.55 L13.65 6.5 13.65 5.8 13.7 6.55 13.65 6.55" fill="#76a27d" fill-rule="evenodd" stroke="none"/>
    <path d="M12.75 5.85 L12.8 6.4 12.75 6.4 12.75 6.35 12.75 5.85" fill="#297331" fill-rule="evenodd" stroke="none"/>
    <path d="M12.55 6.45 L12.5 5.85 12.55 6.4 12.55 6.45" fill="#6e9f74" fill-rule="evenodd" stroke="none"/>
    <path d="M15.5 10.8 L14.5 10.7 14.55 10.7 15.5 10.8" fill="#5c8f63" fill-rule="evenodd" stroke="none"/>
    <path d="M14.55 11.2 L14.55 11.15 15.35 11.25 15.3 11.25 14.55 11.2" fill="#578f5f" fill-rule="evenodd" stroke="none"/>
    <path d="M15.35 11.25 L15.35 11.3 14.55 11.2 15.3 11.25 15.35 11.25" fill="#06560f" fill-rule="evenodd" stroke="none"/>
    <path d="M17.55 4.55 L17.6 4.95 17.6 5.0 17.55 4.55" fill="#91b596" fill-rule="evenodd" stroke="none"/>
    <path d="M17.6 5.25 L17.65 6.45 17.6 6.45 17.6 6.4 17.6 5.25" fill="#7fa782" fill-rule="evenodd" stroke="none"/>
  </g>
</svg>
