<?xml version="1.0" encoding="UTF-8" standalone="no"?>
<svg xmlns:ffdec="https://www.free-decompiler.com/flash" xmlns:xlink="http://www.w3.org/1999/xlink" ffdec:objectType="shape" height="20.35px" width="92.25px" xmlns="http://www.w3.org/2000/svg">
  <g transform="matrix(1.0, 0.0, 0.0, 1.0, 47.25, 12.45)">
    <path d="M-11.05 -4.0 L-5.85 -4.0 Q-5.55 -4.0 -5.55 -3.8 L-5.55 -1.05 Q-5.55 -0.8 -5.85 -0.8 L-11.05 -0.8 -11.05 1.3 -4.5 1.3 Q-4.25 1.3 -4.25 1.55 L-4.25 4.25 -4.5 4.5 -15.65 4.5 -15.95 4.25 -15.95 -9.25 -15.7 -9.5 -4.5 -9.5 -4.25 -9.25 -4.25 -6.55 Q-4.25 -6.3 -4.5 -6.3 L-11.0 -6.3 -11.05 -4.0" fill="#ffffff" fill-rule="evenodd" stroke="none"/>
    <path d="M1.9 -8.95 L1.9 1.3 8.25 1.3 8.55 1.55 8.55 4.25 8.25 4.5 -2.7 4.5 -2.95 4.25 -3.1 -8.85 -2.8 -9.1 1.6 -9.2 1.9 -8.95 M35.85 -8.95 L35.85 1.3 42.2 1.3 Q42.5 1.3 42.5 1.55 L42.5 4.25 Q42.5 4.5 42.2 4.5 L31.25 4.5 31.0 4.25 30.85 -8.85 31.15 -9.1 35.55 -9.2 35.85 -8.95 M10.35 4.75 Q9.35 4.3 9.35 3.6 9.35 2.95 10.4 2.55 11.2 2.2 12.1 2.2 13.0 2.2 13.85 2.55 14.85 2.95 14.85 3.65 14.85 4.35 13.85 4.75 L12.15 5.05 10.35 4.75 M-44.6 -5.15 Q-44.6 -7.0 -42.15 -8.3 -40.0 -9.4 -37.7 -9.4 L-34.1 -8.75 Q-32.2 -8.05 -31.1 -6.9 L-31.0 -6.75 -31.1 -6.6 -33.85 -3.9 Q-33.9 -3.8 -34.05 -3.8 L-34.2 -3.9 Q-36.55 -5.3 -38.4 -5.3 -39.5 -5.3 -39.5 -4.7 -39.5 -4.25 -37.35 -3.6 -34.5 -2.7 -33.35 -2.0 -31.15 -0.75 -31.15 1.1 -31.15 3.45 -33.4 4.55 -35.15 5.4 -38.1 5.4 -39.9 5.4 -41.7 4.7 -43.55 4.0 -44.65 2.9 L-44.75 2.7 -44.65 2.55 -41.95 -0.05 -41.7 -0.1 -40.2 0.6 Q-38.6 1.35 -37.5 1.35 -36.25 1.35 -36.25 0.65 -36.25 0.15 -38.4 -0.4 -41.25 -1.1 -42.45 -1.8 -44.6 -3.05 -44.6 -5.15 M-22.3 -5.4 Q-23.15 -5.9 -24.5 -5.9 L-24.55 -1.7 Q-21.4 -1.95 -21.4 -3.7 -21.4 -4.85 -22.3 -5.4 M-23.9 -9.7 Q-20.45 -9.3 -18.85 -8.2 -16.9 -6.85 -16.9 -4.1 -16.9 -1.5 -19.3 0.05 -21.5 1.45 -24.65 1.55 L-24.7 4.55 -24.95 4.8 -29.5 5.05 -29.8 4.8 -29.9 -9.7 -29.6 -9.95 -23.9 -9.7" fill="url(#gradient0)" fill-rule="evenodd" stroke="none"/>
    <path d="M16.25 -9.0 L20.5 -9.0 20.75 -8.85 25.1 -1.0 25.1 -8.75 Q25.1 -9.05 25.35 -9.0 L29.45 -9.0 29.7 -8.75 29.6 4.6 29.3 4.85 25.2 5.0 24.95 4.85 20.6 -3.05 20.5 4.6 20.25 4.85 16.3 5.0 16.0 4.75 16.0 -8.75 Q16.0 -9.05 16.25 -9.0" fill="url(#gradient1)" fill-rule="evenodd" stroke="none"/>
    <path d="M16.25 -9.0 L20.5 -9.0 20.75 -8.85 25.1 -1.0 25.1 -8.75 Q25.1 -9.05 25.35 -9.0 L29.45 -9.0 29.7 -8.75 29.6 4.6 29.3 4.85 25.2 5.0 24.95 4.85 20.6 -3.05 20.5 4.6 20.25 4.85 16.3 5.0 16.0 4.75 16.0 -8.75 Q16.0 -9.05 16.25 -9.0 M1.9 -8.95 L1.9 1.3 8.25 1.3 8.55 1.55 8.55 4.25 8.25 4.5 -2.7 4.5 -2.95 4.25 -3.1 -8.85 -2.8 -9.1 1.6 -9.2 1.9 -8.95 M35.85 -8.95 L35.85 1.3 42.2 1.3 Q42.5 1.3 42.5 1.55 L42.5 4.25 Q42.5 4.5 42.2 4.5 L31.25 4.5 31.0 4.25 30.85 -8.85 31.15 -9.1 35.55 -9.2 35.85 -8.95 M10.35 4.75 Q9.35 4.3 9.35 3.6 9.35 2.95 10.4 2.55 11.2 2.2 12.1 2.2 13.0 2.2 13.85 2.55 14.85 2.95 14.85 3.65 14.85 4.35 13.85 4.75 L12.15 5.05 10.35 4.75 M-44.6 -5.15 Q-44.6 -7.0 -42.15 -8.3 -40.0 -9.4 -37.7 -9.4 L-34.1 -8.75 Q-32.2 -8.05 -31.1 -6.9 L-31.0 -6.75 -31.1 -6.6 -33.85 -3.9 Q-33.9 -3.8 -34.05 -3.8 L-34.2 -3.9 Q-36.55 -5.3 -38.4 -5.3 -39.5 -5.3 -39.5 -4.7 -39.5 -4.25 -37.35 -3.6 -34.5 -2.7 -33.35 -2.0 -31.15 -0.75 -31.15 1.1 -31.15 3.45 -33.4 4.55 -35.15 5.4 -38.1 5.4 -39.9 5.4 -41.7 4.7 -43.55 4.0 -44.65 2.9 L-44.75 2.7 -44.65 2.55 -41.95 -0.05 -41.7 -0.1 -40.2 0.6 Q-38.6 1.35 -37.5 1.35 -36.25 1.35 -36.25 0.65 -36.25 0.15 -38.4 -0.4 -41.25 -1.1 -42.45 -1.8 -44.6 -3.05 -44.6 -5.15 M-22.3 -5.4 Q-23.15 -5.9 -24.5 -5.9 L-24.55 -1.7 Q-21.4 -1.95 -21.4 -3.7 -21.4 -4.85 -22.3 -5.4 M-23.9 -9.7 Q-20.45 -9.3 -18.85 -8.2 -16.9 -6.85 -16.9 -4.1 -16.9 -1.5 -19.3 0.05 -21.5 1.45 -24.65 1.55 L-24.7 4.55 -24.95 4.8 -29.5 5.05 -29.8 4.8 -29.9 -9.7 -29.6 -9.95 -23.9 -9.7 M-11.05 -4.0 L-5.85 -4.0 Q-5.55 -4.0 -5.55 -3.8 L-5.55 -1.05 Q-5.55 -0.8 -5.85 -0.8 L-11.05 -0.8 -11.05 1.3 -4.5 1.3 Q-4.25 1.3 -4.25 1.55 L-4.25 4.25 -4.5 4.5 -15.65 4.5 -15.95 4.25 -15.95 -9.25 -15.7 -9.5 -4.5 -9.5 -4.25 -9.25 -4.25 -6.55 Q-4.25 -6.3 -4.5 -6.3 L-11.0 -6.3 -11.05 -4.0 Z" fill="none" stroke="url(#gradient2)" stroke-linecap="round" stroke-linejoin="round" stroke-width="5.0"/>
    <path d="M1.65 -8.95 L1.65 1.3 8.0 1.3 8.3 1.55 8.3 4.25 8.0 4.5 -2.95 4.5 -3.2 4.25 -3.35 -8.85 -3.05 -9.1 1.35 -9.2 1.65 -8.95 M16.0 -9.0 L20.25 -9.0 20.5 -8.85 24.85 -1.0 24.85 -8.75 Q24.85 -9.05 25.1 -9.0 L29.2 -9.0 29.45 -8.75 29.35 4.6 29.05 4.85 24.95 5.0 24.7 4.85 20.35 -3.05 20.25 4.6 20.0 4.85 16.05 5.0 15.75 4.75 15.75 -8.75 Q15.75 -9.05 16.0 -9.0 M35.3 -9.2 L35.6 -8.95 35.6 1.3 41.95 1.3 Q42.25 1.3 42.25 1.55 L42.25 4.25 Q42.25 4.5 41.95 4.5 L31.0 4.5 30.75 4.25 30.6 -8.85 30.9 -9.1 35.3 -9.2 M13.6 2.55 Q14.6 2.95 14.6 3.65 14.6 4.35 13.6 4.75 L11.9 5.05 10.1 4.75 Q9.1 4.3 9.1 3.6 9.1 2.95 10.15 2.55 10.95 2.2 11.85 2.2 12.75 2.2 13.6 2.55 M-41.95 -0.1 L-40.45 0.6 Q-38.85 1.35 -37.75 1.35 -36.5 1.35 -36.5 0.65 -36.5 0.15 -38.65 -0.4 -41.5 -1.1 -42.7 -1.8 -44.85 -3.05 -44.85 -5.15 -44.85 -7.0 -42.4 -8.3 -40.25 -9.4 -37.95 -9.4 L-34.35 -8.75 Q-32.45 -8.05 -31.35 -6.9 L-31.25 -6.75 -31.35 -6.6 -34.1 -3.9 Q-34.15 -3.8 -34.3 -3.8 L-34.45 -3.9 Q-36.8 -5.3 -38.65 -5.3 -39.75 -5.3 -39.75 -4.7 -39.75 -4.25 -37.6 -3.6 -34.75 -2.7 -33.6 -2.0 -31.4 -0.75 -31.4 1.1 -31.4 3.45 -33.65 4.55 -35.4 5.4 -38.35 5.4 -40.15 5.4 -41.95 4.7 -43.8 4.0 -44.9 2.9 L-45.0 2.7 -44.9 2.55 -42.2 -0.05 -41.95 -0.1 M-29.85 -9.95 L-24.15 -9.7 Q-20.7 -9.3 -19.1 -8.2 -17.15 -6.85 -17.15 -4.1 -17.15 -1.5 -19.55 0.05 -21.75 1.45 -24.9 1.55 L-24.95 4.55 -25.2 4.8 -29.75 5.05 -30.05 4.8 -30.15 -9.7 -29.85 -9.95 M-21.65 -3.7 Q-21.65 -4.85 -22.55 -5.4 -23.4 -5.9 -24.75 -5.9 L-24.8 -1.7 Q-21.65 -1.95 -21.65 -3.7 M-15.95 -9.5 L-4.75 -9.5 -4.5 -9.25 -4.5 -6.55 Q-4.5 -6.3 -4.75 -6.3 L-11.25 -6.3 -11.3 -4.0 -6.1 -4.0 Q-5.8 -4.0 -5.8 -3.8 L-5.8 -1.05 Q-5.8 -0.8 -6.1 -0.8 L-11.3 -0.8 -11.3 1.3 -4.75 1.3 Q-4.5 1.3 -4.5 1.55 L-4.5 4.25 -4.75 4.5 -15.9 4.5 -16.2 4.25 -16.2 -9.25 -15.95 -9.5" fill="#ffffff" fill-rule="evenodd" stroke="none"/>
  </g>
  <defs>
    <linearGradient gradientTransform="matrix(0.0, 0.3346, -0.1207, 0.0, -1.4, 264.15)" gradientUnits="userSpaceOnUse" id="gradient0" spreadMethod="pad" x1="-819.2" x2="819.2">
      <stop offset="0.0" stop-color="#ffffff"/>
      <stop offset="1.0" stop-color="#000000"/>
    </linearGradient>
    <linearGradient gradientTransform="matrix(0.0, 0.3346, -0.1207, 0.0, -1.4, 264.15)" gradientUnits="userSpaceOnUse" id="gradient1" spreadMethod="pad" x1="-819.2" x2="819.2">
      <stop offset="0.2901960784313726" stop-color="#efa200"/>
      <stop offset="0.7843137254901961" stop-color="#a31b00"/>
    </linearGradient>
    <linearGradient gradientTransform="matrix(0.0, 0.0116, -0.0114, 0.0, 22.85, -2.0)" gradientUnits="userSpaceOnUse" id="gradient2" spreadMethod="pad" x1="-819.2" x2="819.2">
      <stop offset="0.23529411764705882" stop-color="#efa200"/>
      <stop offset="0.8313725490196079" stop-color="#a31b00"/>
    </linearGradient>
  </defs>
</svg>
