<?xml version="1.0" encoding="UTF-8" standalone="no"?>
<svg xmlns:ffdec="https://www.free-decompiler.com/flash" xmlns:xlink="http://www.w3.org/1999/xlink" ffdec:objectType="shape" height="19.6px" width="80.55px" xmlns="http://www.w3.org/2000/svg">
  <g transform="matrix(1.0, 0.0, 0.0, 1.0, 39.3, 7.55)">
    <path d="M12.9 -4.6 L24.1 -4.55 24.4 -4.25 24.35 -1.55 24.05 -1.3 17.6 -1.35 17.55 0.9 22.7 0.95 Q23.0 0.95 23.0 1.2 L22.95 3.9 22.65 4.15 17.45 4.1 17.45 9.15 17.15 9.4 12.8 9.4 12.5 9.15 12.65 -4.35 12.9 -4.6 M-5.35 9.55 Q-8.65 8.55 -9.0 5.0 L-9.0 4.2 -8.85 -3.7 -8.55 -3.95 -4.0 -3.7 -3.75 -3.45 -3.95 3.95 -3.85 5.0 Q-3.5 6.25 -2.2 6.25 -1.1 6.25 -0.7 5.35 L-0.6 5.0 Q-0.45 4.5 -0.45 3.65 L-0.3 -3.55 -0.05 -3.75 4.5 -3.85 4.75 -3.8 4.8 -3.65 4.6 4.0 4.5 5.0 Q4.05 8.55 0.75 9.55 L-5.35 9.55 M25.35 9.55 L25.25 9.35 25.15 -4.55 25.4 -4.75 29.2 -5.05 Q34.2 -5.05 36.25 -3.0 37.2 -2.05 37.55 -0.95 L37.75 0.35 Q37.75 1.7 37.0 2.9 36.25 4.1 34.95 4.9 L38.15 8.5 38.3 8.65 38.65 9.1 38.75 9.25 38.45 9.5 33.55 9.55 30.25 5.8 30.2 9.15 29.95 9.35 26.45 9.55 25.35 9.55 M30.4 -0.95 L30.3 3.05 Q32.9 2.7 32.9 0.95 32.9 0.1 32.1 -0.4 L30.4 -0.95 M33.55 8.55 L33.8 8.65 36.9 8.55 33.55 8.55 M36.9 8.55 L38.15 8.5 36.9 8.55 M26.45 8.55 L25.35 8.55 25.55 8.6 26.45 8.55 M11.4 8.1 Q11.4 8.8 10.4 9.2 L8.7 9.5 6.9 9.2 Q5.9 8.75 5.9 8.05 5.9 7.4 6.95 7.0 7.75 6.65 8.65 6.65 L10.4 7.0 Q11.4 7.4 11.4 8.1 M-21.6 -5.05 L-10.4 -5.05 -10.15 -4.8 -10.15 -2.1 Q-10.15 -1.85 -10.4 -1.85 L-16.9 -1.85 -16.95 0.45 -11.75 0.45 Q-11.45 0.45 -11.45 0.65 L-11.45 3.4 -11.75 3.65 -16.95 3.65 -16.95 5.75 -10.4 5.75 Q-10.15 5.75 -10.15 6.0 L-10.15 8.7 -10.4 8.95 -21.55 8.95 -21.85 8.7 -21.85 -4.8 -21.6 -5.05 M-5.35 8.55 L-2.3 8.95 0.75 8.55 -5.35 8.55" fill="url(#gradient0)" fill-rule="evenodd" stroke="none"/>
    <path d="M36.9 8.55 L33.8 8.65 33.55 8.55 36.9 8.55 M25.35 8.55 L26.45 8.55 25.55 8.6 25.35 8.55 M0.75 8.55 L-2.3 8.95 -5.35 8.55 0.75 8.55" fill="url(#gradient1)" fill-rule="evenodd" stroke="none"/>
    <path d="M12.9 -4.6 L24.1 -4.55 24.4 -4.25 24.35 -1.55 24.05 -1.3 17.6 -1.35 17.55 0.9 22.7 0.95 Q23.0 0.95 23.0 1.2 L22.95 3.9 22.65 4.15 17.45 4.1 17.45 9.15 17.15 9.4 12.8 9.4 12.5 9.15 12.65 -4.35 12.9 -4.6 M-5.35 9.55 Q-8.65 8.55 -9.0 5.0 L-9.0 4.2 -8.85 -3.7 -8.55 -3.95 -4.0 -3.7 -3.75 -3.45 -3.95 3.95 -3.85 5.0 Q-3.5 6.25 -2.2 6.25 -1.1 6.25 -0.7 5.35 L-0.6 5.0 Q-0.45 4.5 -0.45 3.65 L-0.3 -3.55 -0.05 -3.75 4.5 -3.85 4.75 -3.8 4.8 -3.65 4.6 4.0 4.5 5.0 Q4.05 8.55 0.75 9.55 M25.35 9.55 L25.25 9.35 25.15 -4.55 25.4 -4.75 29.2 -5.05 Q34.2 -5.05 36.25 -3.0 37.2 -2.05 37.55 -0.95 L37.75 0.35 Q37.75 1.7 37.0 2.9 36.25 4.1 34.95 4.9 L38.15 8.5 M38.3 8.65 L38.65 9.1 38.75 9.25 38.45 9.5 M33.55 9.55 L30.25 5.8 30.2 9.15 29.95 9.35 26.45 9.55 M30.4 -0.95 L30.3 3.05 Q32.9 2.7 32.9 0.95 32.9 0.1 32.1 -0.4 L30.4 -0.95 M11.4 8.1 Q11.4 8.8 10.4 9.2 L8.7 9.5 6.9 9.2 Q5.9 8.75 5.9 8.05 5.9 7.4 6.95 7.0 7.75 6.65 8.65 6.65 L10.4 7.0 Q11.4 7.4 11.4 8.1 M-21.6 -5.05 L-10.4 -5.05 -10.15 -4.8 -10.15 -2.1 Q-10.15 -1.85 -10.4 -1.85 L-16.9 -1.85 -16.95 0.45 -11.75 0.45 Q-11.45 0.45 -11.45 0.65 L-11.45 3.4 -11.75 3.65 -16.95 3.65 -16.95 5.75 -10.4 5.75 Q-10.15 5.75 -10.15 6.0 L-10.15 8.7 -10.4 8.95 -21.55 8.95 -21.85 8.7 -21.85 -4.8 -21.6 -5.05 M-30.45 9.55 Q-36.05 9.4 -36.75 5.0 L-36.8 3.8 -36.75 2.25 Q-36.75 2.0 -36.45 2.0 L-32.0 2.4 -31.7 2.65 -31.7 3.55 -31.45 5.0 Q-31.05 5.85 -30.0 5.85 -28.95 5.85 -28.55 5.0 L-28.5 4.95 Q-28.25 4.4 -28.25 3.25 L-28.1 -4.25 Q-28.1 -4.5 -27.8 -4.45 L-23.25 -4.3 -23.0 -4.05 -23.2 3.6 Q-23.2 4.35 -23.35 5.0 -24.15 9.4 -29.7 9.55" fill="none" stroke="url(#gradient2)" stroke-linecap="round" stroke-linejoin="round" stroke-width="5.0"/>
    <path d="M38.15 8.5 L38.3 8.65 M33.55 8.55 L33.8 8.65 36.9 8.55 38.15 8.5 M26.45 8.55 L25.55 8.6 25.35 8.55 M0.75 8.55 L-2.3 8.95 -5.35 8.55" fill="none" stroke="url(#gradient3)" stroke-linecap="round" stroke-linejoin="round" stroke-width="5.0"/>
    <path d="M4.3 -3.9 L4.1 3.75 Q3.95 9.7 -2.8 9.7 -9.5 9.7 -9.5 3.95 L-9.35 -3.95 -9.05 -4.2 -4.5 -3.95 -4.25 -3.7 -4.45 3.7 Q-4.45 6.0 -2.7 6.0 -1.6 6.0 -1.2 5.1 -0.95 4.55 -0.95 3.4 L-0.8 -3.8 -0.55 -4.0 4.0 -4.1 4.25 -4.05 4.3 -3.9 M12.4 -4.85 L23.6 -4.8 23.9 -4.5 23.85 -1.8 23.55 -1.55 17.1 -1.6 17.05 0.65 22.2 0.7 Q22.5 0.7 22.5 0.95 L22.45 3.65 22.15 3.9 16.95 3.85 16.95 8.9 16.65 9.15 12.3 9.15 12.0 8.9 12.15 -4.6 12.4 -4.85 M28.7 -5.3 Q33.7 -5.3 35.75 -3.25 37.25 -1.8 37.25 0.1 37.25 1.45 36.5 2.65 35.75 3.85 34.45 4.65 L38.15 8.85 38.25 9.0 Q38.25 9.25 37.95 9.25 L33.3 9.4 33.05 9.3 29.75 5.55 29.7 8.9 29.45 9.1 25.05 9.35 24.75 9.1 24.65 -4.8 24.9 -5.0 28.7 -5.3 M29.9 -1.2 L29.8 2.8 Q32.4 2.45 32.4 0.7 32.4 -0.15 31.6 -0.65 30.9 -1.15 29.9 -1.2 M6.45 6.75 Q7.25 6.4 8.15 6.4 L9.9 6.75 Q10.9 7.15 10.9 7.85 10.9 8.55 9.9 8.95 L8.2 9.25 6.4 8.95 Q5.4 8.5 5.4 7.8 5.4 7.15 6.45 6.75 M-22.1 -5.3 L-10.9 -5.3 -10.65 -5.05 -10.65 -2.35 Q-10.65 -2.1 -10.9 -2.1 L-17.4 -2.1 -17.45 0.2 -12.25 0.2 Q-11.95 0.2 -11.95 0.4 L-11.95 3.15 -12.25 3.4 -17.45 3.4 -17.45 5.5 -10.9 5.5 Q-10.65 5.5 -10.65 5.75 L-10.65 8.45 -10.9 8.7 -22.05 8.7 -22.35 8.45 -22.35 -5.05 -22.1 -5.3 M-28.3 -4.7 L-23.75 -4.55 -23.5 -4.3 -23.7 3.35 Q-23.85 9.3 -30.6 9.3 -37.3 9.3 -37.3 3.55 L-37.25 2.0 Q-37.25 1.75 -36.95 1.75 L-32.5 2.15 Q-32.2 2.2 -32.2 2.4 L-32.2 3.3 Q-32.2 5.6 -30.5 5.6 -29.4 5.6 -29.0 4.7 -28.75 4.15 -28.75 3.0 L-28.6 -4.5 Q-28.6 -4.75 -28.3 -4.7" fill="#ffffff" fill-rule="evenodd" stroke="none"/>
  </g>
  <defs>
    <linearGradient gradientTransform="matrix(0.0, 0.3346, -0.1207, 0.0, 0.85, 209.4)" gradientUnits="userSpaceOnUse" id="gradient0" spreadMethod="pad" x1="-819.2" x2="819.2">
      <stop offset="0.0" stop-color="#ffffff"/>
      <stop offset="1.0" stop-color="#000000"/>
    </linearGradient>
    <linearGradient gradientTransform="matrix(0.0, 0.3346, -0.1207, 0.0, 0.85, 208.4)" gradientUnits="userSpaceOnUse" id="gradient1" spreadMethod="pad" x1="-819.2" x2="819.2">
      <stop offset="0.0" stop-color="#ffffff"/>
      <stop offset="1.0" stop-color="#000000"/>
    </linearGradient>
    <linearGradient gradientTransform="matrix(0.0, 0.0055, -0.0046, 0.0, 31.6, 1.05)" gradientUnits="userSpaceOnUse" id="gradient2" spreadMethod="pad" x1="-819.2" x2="819.2">
      <stop offset="0.23529411764705882" stop-color="#efa200"/>
      <stop offset="0.8313725490196079" stop-color="#a31b00"/>
    </linearGradient>
    <linearGradient gradientTransform="matrix(0.0, 0.0055, -0.0046, 0.0, 31.6, 0.05)" gradientUnits="userSpaceOnUse" id="gradient3" spreadMethod="pad" x1="-819.2" x2="819.2">
      <stop offset="0.23529411764705882" stop-color="#efa200"/>
      <stop offset="0.8313725490196079" stop-color="#a31b00"/>
    </linearGradient>
  </defs>
</svg>
