<?xml version="1.0" encoding="UTF-8" standalone="no"?>
<svg xmlns:ffdec="https://www.free-decompiler.com/flash" xmlns:xlink="http://www.w3.org/1999/xlink" ffdec:objectType="shape" height="20.65px" width="148.7px" xmlns="http://www.w3.org/2000/svg">
  <g transform="matrix(1.0, 0.0, 0.0, 1.0, 59.65, -5.05)">
    <path d="M86.55 21.85 L86.3 22.1 82.35 22.3 Q82.05 22.3 82.05 22.05 L81.85 14.3 79.4 21.65 79.15 21.85 76.7 21.85 76.45 21.65 73.95 14.3 73.8 22.05 Q73.8 22.35 73.45 22.3 L69.55 22.15 69.25 21.9 69.9 8.7 Q69.9 8.45 70.2 8.45 L74.8 8.5 75.05 8.65 77.9 16.05 80.8 8.65 Q80.85 8.5 81.05 8.5 L85.65 8.45 85.9 8.7 86.55 21.85 M66.45 10.85 Q68.35 13.1 68.35 16.05 68.35 18.9 66.35 21.0 64.2 23.2 60.9 23.2 57.05 23.2 54.85 21.2 52.7 19.25 52.7 15.95 52.7 12.75 54.95 10.6 57.25 8.35 61.05 8.35 64.35 8.35 66.45 10.85 M62.9 13.9 Q62.0 12.8 60.6 12.8 59.2 12.8 58.3 13.9 57.5 14.9 57.5 16.15 57.5 17.35 58.3 18.35 59.2 19.45 60.6 19.45 62.0 19.45 62.9 18.35 63.75 17.35 63.75 16.15 63.75 14.9 62.9 13.9 M49.6 11.8 L49.1 11.75 48.6 11.75 Q46.0 11.75 44.4 12.6 42.45 13.6 42.45 15.65 42.45 17.15 43.6 17.95 44.65 18.7 46.4 18.7 48.35 18.7 50.55 17.55 L50.7 17.5 Q51.0 17.5 51.0 17.7 L51.75 21.0 51.7 21.15 Q50.9 21.95 49.15 22.4 L46.2 22.75 Q42.35 22.75 39.95 20.85 37.5 18.95 37.5 15.65 37.5 11.65 40.75 9.5 43.75 7.55 48.65 7.55 49.2 7.55 49.25 7.75 L49.9 11.55 49.6 11.8 M22.65 11.75 L22.2 11.75 22.15 14.05 23.9 14.05 22.15 14.05 22.2 11.75 22.65 11.75 23.9 14.05 25.35 16.65 25.35 14.05 25.35 11.75 28.7 11.75 28.95 11.5 28.95 8.75 28.9 8.65 28.95 8.75 28.95 11.5 28.7 11.75 25.35 11.75 25.35 8.9 Q25.35 8.6 25.6 8.65 L28.9 8.65 29.7 8.65 29.95 8.9 29.85 22.25 29.55 22.5 28.85 22.55 28.7 22.55 28.15 22.55 25.45 22.65 25.25 22.55 25.2 22.5 23.5 19.35 22.35 17.25 20.85 14.6 20.75 22.25 20.7 22.45 20.5 22.5 19.2 22.55 17.55 22.55 17.25 22.3 17.25 8.75 17.3 8.65 17.25 8.75 17.25 22.3 17.55 22.55 19.2 22.55 16.55 22.65 16.25 22.4 16.25 8.9 Q16.25 8.6 16.5 8.65 L17.3 8.65 20.75 8.65 Q20.95 8.65 21.0 8.8 L22.65 11.75 M27.35 17.25 L22.35 17.25 27.35 17.25 M27.35 14.05 L25.35 14.05 27.35 14.05 M28.55 17.25 L28.85 17.0 28.55 17.25 M27.65 17.0 L27.65 14.25 27.65 17.0 M28.95 14.25 Q28.95 14.05 28.65 14.05 28.95 14.05 28.95 14.25 M28.85 22.55 L28.95 22.3 28.95 19.6 28.7 19.35 23.5 19.35 28.7 19.35 28.95 19.6 28.95 22.3 28.85 22.55 M28.15 22.55 L25.25 22.55 28.15 22.55 M32.1 22.4 Q31.1 21.95 31.1 21.25 31.1 20.6 32.15 20.2 L33.85 19.85 Q34.75 19.85 35.6 20.2 36.6 20.6 36.6 21.3 36.6 22.0 35.6 22.4 L33.9 22.7 32.1 22.4 M15.05 8.4 L15.05 11.1 14.8 11.35 8.3 11.35 8.25 13.65 13.45 13.65 Q13.75 13.65 13.75 13.85 L13.75 16.6 Q13.75 16.85 13.45 16.85 L8.25 16.85 8.25 18.95 14.8 18.95 15.05 19.2 15.05 21.9 14.8 22.15 3.65 22.15 3.35 21.9 3.35 8.4 Q3.35 8.15 3.6 8.15 L14.8 8.15 15.05 8.4 M2.2 22.15 L-8.75 22.15 -9.0 21.9 -9.15 8.8 -8.85 8.55 -4.45 8.45 Q-4.15 8.45 -4.15 8.7 L-4.15 18.95 2.2 18.95 Q2.5 18.95 2.5 19.2 L2.5 21.9 2.2 22.15 M-10.55 11.35 L-17.05 11.35 -17.1 13.65 -11.9 13.65 Q-11.6 13.65 -11.6 13.85 L-11.6 16.6 -11.9 16.85 -17.1 16.85 -17.1 18.95 -10.55 18.95 Q-10.3 18.95 -10.3 19.2 L-10.3 21.9 -10.55 22.15 -21.7 22.15 -22.0 21.9 -22.0 8.4 -21.75 8.15 -10.55 8.15 Q-10.3 8.15 -10.3 8.4 L-10.3 11.1 -10.55 11.35 M-27.9 8.55 L-23.45 8.6 Q-23.15 8.6 -23.15 8.85 L-23.55 22.2 Q-23.55 22.45 -23.85 22.45 L-28.1 22.5 -28.3 22.45 -28.4 22.25 -28.15 8.75 -27.9 8.55 M-31.25 9.45 Q-29.3 10.8 -29.3 13.55 -29.3 16.15 -31.7 17.7 -33.9 19.1 -37.05 19.2 L-37.1 22.2 -37.35 22.45 -41.9 22.7 -42.2 22.45 -42.3 7.95 -42.0 7.7 -36.3 7.95 Q-32.85 8.35 -31.25 9.45 M-36.9 11.75 L-36.95 15.95 Q-33.8 15.7 -33.8 13.95 -33.8 12.8 -34.7 12.25 -35.55 11.75 -36.9 11.75 M-43.5 11.05 L-46.25 13.75 -46.45 13.85 -46.6 13.75 Q-48.95 12.35 -50.8 12.35 -51.9 12.35 -51.9 12.95 -51.9 13.4 -49.75 14.05 -46.9 14.95 -45.75 15.65 -43.55 16.9 -43.55 18.75 -43.55 21.1 -45.8 22.2 -47.55 23.05 -50.5 23.05 -52.3 23.05 -54.1 22.35 -55.95 21.65 -57.05 20.55 L-57.15 20.35 -57.05 20.2 -54.35 17.6 -54.1 17.55 -52.6 18.25 Q-51.0 19.0 -49.9 19.0 -48.65 19.0 -48.65 18.3 -48.65 17.8 -50.8 17.25 -53.65 16.55 -54.85 15.85 -57.0 14.6 -57.0 12.5 -57.0 10.65 -54.55 9.35 -52.4 8.25 -50.1 8.25 -48.3 8.25 -46.5 8.9 -44.6 9.6 -43.5 10.75 L-43.4 10.9 -43.5 11.05" fill="url(#gradient0)" fill-rule="evenodd" stroke="none"/>
    <path d="M86.55 21.85 L86.3 22.1 82.35 22.3 Q82.05 22.3 82.05 22.05 L81.85 14.3 79.4 21.65 79.15 21.85 76.7 21.85 76.45 21.65 73.95 14.3 73.8 22.05 Q73.8 22.35 73.45 22.3 L69.55 22.15 69.25 21.9 69.9 8.7 Q69.9 8.45 70.2 8.45 L74.8 8.5 75.05 8.65 77.9 16.05 80.8 8.65 Q80.85 8.5 81.05 8.5 L85.65 8.45 85.9 8.7 86.55 21.85 M66.45 10.85 Q68.35 13.1 68.35 16.05 68.35 18.9 66.35 21.0 64.2 23.2 60.9 23.2 57.05 23.2 54.85 21.2 52.7 19.25 52.7 15.95 52.7 12.75 54.95 10.6 57.25 8.35 61.05 8.35 64.35 8.35 66.45 10.85 M62.9 13.9 Q62.0 12.8 60.6 12.8 59.2 12.8 58.3 13.9 57.5 14.9 57.5 16.15 57.5 17.35 58.3 18.35 59.2 19.45 60.6 19.45 62.0 19.45 62.9 18.35 63.75 17.35 63.75 16.15 63.75 14.9 62.9 13.9 M49.6 11.8 L49.1 11.75 48.6 11.75 Q46.0 11.75 44.4 12.6 42.45 13.6 42.45 15.65 42.45 17.15 43.6 17.95 44.65 18.7 46.4 18.7 48.35 18.7 50.55 17.55 L50.7 17.5 Q51.0 17.5 51.0 17.7 L51.75 21.0 51.7 21.15 Q50.9 21.95 49.15 22.4 L46.2 22.75 Q42.35 22.75 39.95 20.85 37.5 18.95 37.5 15.65 37.5 11.65 40.75 9.5 43.75 7.55 48.65 7.55 49.2 7.55 49.25 7.75 L49.9 11.55 49.6 11.8 M32.1 22.4 Q31.1 21.95 31.1 21.25 31.1 20.6 32.15 20.2 L33.85 19.85 Q34.75 19.85 35.6 20.2 36.6 20.6 36.6 21.3 36.6 22.0 35.6 22.4 L33.9 22.7 32.1 22.4 M15.05 8.4 L15.05 11.1 14.8 11.35 8.3 11.35 8.25 13.65 13.45 13.65 Q13.75 13.65 13.75 13.85 L13.75 16.6 Q13.75 16.85 13.45 16.85 L8.25 16.85 8.25 18.95 14.8 18.95 15.05 19.2 15.05 21.9 14.8 22.15 3.65 22.15 3.35 21.9 3.35 8.4 Q3.35 8.15 3.6 8.15 L14.8 8.15 15.05 8.4 M2.2 22.15 L-8.75 22.15 -9.0 21.9 -9.15 8.8 -8.85 8.55 -4.45 8.45 Q-4.15 8.45 -4.15 8.7 L-4.15 18.95 2.2 18.95 Q2.5 18.95 2.5 19.2 L2.5 21.9 2.2 22.15 M-10.55 11.35 L-17.05 11.35 -17.1 13.65 -11.9 13.65 Q-11.6 13.65 -11.6 13.85 L-11.6 16.6 -11.9 16.85 -17.1 16.85 -17.1 18.95 -10.55 18.95 Q-10.3 18.95 -10.3 19.2 L-10.3 21.9 -10.55 22.15 -21.7 22.15 -22.0 21.9 -22.0 8.4 -21.75 8.15 -10.55 8.15 Q-10.3 8.15 -10.3 8.4 L-10.3 11.1 -10.55 11.35 M-27.9 8.55 L-23.45 8.6 Q-23.15 8.6 -23.15 8.85 L-23.55 22.2 Q-23.55 22.45 -23.85 22.45 L-28.1 22.5 -28.3 22.45 -28.4 22.25 -28.15 8.75 -27.9 8.55 M-31.25 9.45 Q-29.3 10.8 -29.3 13.55 -29.3 16.15 -31.7 17.7 -33.9 19.1 -37.05 19.2 L-37.1 22.2 -37.35 22.45 -41.9 22.7 -42.2 22.45 -42.3 7.95 -42.0 7.7 -36.3 7.95 Q-32.85 8.35 -31.25 9.45 M-36.9 11.75 L-36.95 15.95 Q-33.8 15.7 -33.8 13.95 -33.8 12.8 -34.7 12.25 -35.55 11.75 -36.9 11.75 M-43.5 11.05 L-46.25 13.75 -46.45 13.85 -46.6 13.75 Q-48.95 12.35 -50.8 12.35 -51.9 12.35 -51.9 12.95 -51.9 13.4 -49.75 14.05 -46.9 14.95 -45.75 15.65 -43.55 16.9 -43.55 18.75 -43.55 21.1 -45.8 22.2 -47.55 23.05 -50.5 23.05 -52.3 23.05 -54.1 22.35 -55.95 21.65 -57.05 20.55 L-57.15 20.35 -57.05 20.2 -54.35 17.6 -54.1 17.55 -52.6 18.25 Q-51.0 19.0 -49.9 19.0 -48.65 19.0 -48.65 18.3 -48.65 17.8 -50.8 17.25 -53.65 16.55 -54.85 15.85 -57.0 14.6 -57.0 12.5 -57.0 10.65 -54.55 9.35 -52.4 8.25 -50.1 8.25 -48.3 8.25 -46.5 8.9 -44.6 9.6 -43.5 10.75 L-43.4 10.9 -43.5 11.05" fill="none" stroke="url(#gradient1)" stroke-linecap="round" stroke-linejoin="round" stroke-width="5.0"/>
    <path d="M23.9 14.05 L22.15 14.05 22.2 11.75 22.65 11.75 25.35 11.75 28.7 11.75 28.95 11.5 28.95 8.75 28.9 8.65 28.7 8.55 17.5 8.55 Q17.35 8.55 17.3 8.65 L17.25 8.75 17.25 22.3 17.55 22.55 19.2 22.55 25.25 22.55 28.15 22.55 28.7 22.55 28.85 22.55 28.95 22.3 28.95 19.6 28.7 19.35 23.5 19.35 22.15 19.35 22.15 17.25 22.35 17.25 27.35 17.25 M25.35 14.05 L27.35 14.05 M25.35 14.05 L23.9 14.05 M27.65 14.25 L27.65 17.0" fill="none" stroke="url(#gradient2)" stroke-linecap="round" stroke-linejoin="round" stroke-width="5.0"/>
    <path d="M28.85 17.0 L28.55 17.25" fill="none" stroke="url(#gradient3)" stroke-linecap="round" stroke-linejoin="round" stroke-width="5.0"/>
    <path d="M28.65 14.05 Q28.95 14.05 28.95 14.25" fill="none" stroke="url(#gradient4)" stroke-linecap="round" stroke-linejoin="round" stroke-width="5.0"/>
    <path d="M86.3 21.6 L86.05 21.85 82.1 22.05 Q81.8 22.05 81.8 21.8 L81.6 14.05 79.15 21.4 78.9 21.6 76.45 21.6 76.2 21.4 73.7 14.05 73.55 21.8 Q73.55 22.1 73.2 22.05 L69.3 21.9 69.0 21.65 69.65 8.45 Q69.65 8.2 69.95 8.2 L74.55 8.25 Q74.75 8.25 74.8 8.4 L77.65 15.8 80.55 8.4 80.8 8.25 85.4 8.2 85.65 8.45 86.3 21.6 M66.2 10.6 Q68.1 12.85 68.1 15.8 68.1 18.65 66.1 20.75 63.95 22.95 60.65 22.95 56.8 22.95 54.6 20.95 52.45 19.0 52.45 15.7 52.45 12.5 54.7 10.35 57.0 8.1 60.8 8.1 64.1 8.1 66.2 10.6 M62.65 13.65 Q61.75 12.55 60.35 12.55 58.95 12.55 58.05 13.65 57.25 14.65 57.25 15.9 57.25 17.1 58.05 18.1 58.95 19.2 60.35 19.2 61.75 19.2 62.65 18.1 63.5 17.1 63.5 15.9 63.5 14.65 62.65 13.65 M49.0 7.5 L49.65 11.3 Q49.7 11.55 49.35 11.55 L48.85 11.5 48.35 11.5 Q45.75 11.5 44.15 12.35 42.2 13.35 42.2 15.4 42.2 16.9 43.35 17.7 44.4 18.45 46.15 18.45 48.1 18.45 50.3 17.3 L50.45 17.25 50.75 17.45 51.5 20.75 51.45 20.9 Q50.65 21.7 48.9 22.15 L45.95 22.5 Q42.1 22.5 39.7 20.6 37.25 18.7 37.25 15.4 37.25 11.4 40.5 9.25 43.5 7.3 48.4 7.3 L49.0 7.5 M29.7 8.65 L29.6 22.0 29.3 22.25 25.2 22.4 24.95 22.25 20.6 14.35 20.5 22.0 20.25 22.25 16.3 22.4 16.0 22.15 16.0 8.65 Q16.0 8.35 16.25 8.4 L20.5 8.4 20.75 8.55 25.1 16.4 25.1 8.65 Q25.1 8.35 25.35 8.4 L29.45 8.4 29.7 8.65 M33.6 19.6 Q34.5 19.6 35.35 19.95 36.35 20.35 36.35 21.05 36.35 21.75 35.35 22.15 L33.65 22.45 31.85 22.15 Q30.85 21.7 30.85 21.0 30.85 20.35 31.9 19.95 32.7 19.6 33.6 19.6 M14.8 10.85 L14.55 11.1 8.05 11.1 8.0 13.4 13.2 13.4 Q13.5 13.4 13.5 13.6 L13.5 16.35 13.2 16.6 8.0 16.6 8.0 18.7 14.55 18.7 14.8 18.95 14.8 21.65 14.55 21.9 3.4 21.9 3.1 21.65 3.1 8.15 Q3.1 7.9 3.35 7.9 L14.55 7.9 14.8 8.15 14.8 10.85 M1.95 21.9 L-9.0 21.9 -9.25 21.65 -9.4 8.55 -9.1 8.3 -4.7 8.2 -4.4 8.45 -4.4 18.7 1.95 18.7 Q2.25 18.7 2.25 18.95 L2.25 21.65 Q2.25 21.9 1.95 21.9 M-10.55 8.15 L-10.55 10.85 -10.8 11.1 -17.3 11.1 -17.35 13.4 -12.15 13.4 Q-11.85 13.4 -11.85 13.6 L-11.85 16.35 -12.15 16.6 -17.35 16.6 -17.35 18.7 -10.8 18.7 Q-10.55 18.7 -10.55 18.95 L-10.55 21.65 -10.8 21.9 -21.95 21.9 -22.25 21.65 -22.25 8.15 -22.0 7.9 -10.8 7.9 Q-10.55 7.9 -10.55 8.15 M-28.15 8.3 L-23.7 8.35 Q-23.4 8.35 -23.4 8.6 L-23.8 21.95 Q-23.8 22.2 -24.1 22.2 L-28.35 22.25 -28.55 22.2 -28.65 22.0 -28.4 8.5 Q-28.4 8.3 -28.15 8.3 M-37.15 11.5 L-37.2 15.7 Q-34.05 15.45 -34.05 13.7 -34.05 12.55 -34.95 12.0 -35.8 11.5 -37.15 11.5 M-31.5 9.2 Q-29.55 10.55 -29.55 13.3 -29.55 15.9 -31.95 17.45 -34.15 18.85 -37.3 18.95 L-37.35 21.95 -37.6 22.2 -42.15 22.45 -42.45 22.2 -42.55 7.7 -42.25 7.45 -36.55 7.7 Q-33.1 8.1 -31.5 9.2 M-43.75 10.5 L-43.65 10.65 -43.75 10.8 -46.5 13.5 -46.7 13.6 -46.85 13.5 Q-49.2 12.1 -51.05 12.1 -52.15 12.1 -52.15 12.7 -52.15 13.15 -50.0 13.8 -47.15 14.7 -46.0 15.4 -43.8 16.65 -43.8 18.5 -43.8 20.85 -46.05 21.95 -47.8 22.8 -50.75 22.8 -52.55 22.8 -54.35 22.1 -56.2 21.4 -57.3 20.3 L-57.4 20.1 -57.3 19.95 -54.6 17.35 -54.35 17.3 -52.85 18.0 Q-51.25 18.75 -50.15 18.75 -48.9 18.75 -48.9 18.05 -48.9 17.55 -51.05 17.0 -53.9 16.3 -55.1 15.6 -57.25 14.35 -57.25 12.25 -57.25 10.4 -54.8 9.1 -52.65 8.0 -50.35 8.0 -48.55 8.0 -46.75 8.65 -44.85 9.35 -43.75 10.5" fill="#ffffff" fill-rule="evenodd" stroke="none"/>
  </g>
  <defs>
    <linearGradient gradientTransform="matrix(0.0, 0.3346, -0.1207, 0.0, 14.6, 163.4)" gradientUnits="userSpaceOnUse" id="gradient0" spreadMethod="pad" x1="-819.2" x2="819.2">
      <stop offset="0.0" stop-color="#ffffff"/>
      <stop offset="1.0" stop-color="#000000"/>
    </linearGradient>
    <linearGradient gradientTransform="matrix(0.0, 0.0115, -0.0136, 0.0, 77.9, 15.35)" gradientUnits="userSpaceOnUse" id="gradient1" spreadMethod="pad" x1="-819.2" x2="819.2">
      <stop offset="0.23529411764705882" stop-color="#efa200"/>
      <stop offset="0.8313725490196079" stop-color="#a31b00"/>
    </linearGradient>
    <linearGradient gradientTransform="matrix(0.0, 0.0115, -0.0136, 0.0, 91.8, 15.75)" gradientUnits="userSpaceOnUse" id="gradient2" spreadMethod="pad" x1="-819.2" x2="819.2">
      <stop offset="0.23529411764705882" stop-color="#efa200"/>
      <stop offset="0.8313725490196079" stop-color="#a31b00"/>
    </linearGradient>
    <linearGradient gradientTransform="matrix(0.0, 0.0115, -0.0136, 0.0, 93.0, 15.75)" gradientUnits="userSpaceOnUse" id="gradient3" spreadMethod="pad" x1="-819.2" x2="819.2">
      <stop offset="0.23529411764705882" stop-color="#efa200"/>
      <stop offset="0.8313725490196079" stop-color="#a31b00"/>
    </linearGradient>
    <linearGradient gradientTransform="matrix(0.0, 0.0115, -0.0136, 0.0, 93.1, 15.75)" gradientUnits="userSpaceOnUse" id="gradient4" spreadMethod="pad" x1="-819.2" x2="819.2">
      <stop offset="0.23529411764705882" stop-color="#efa200"/>
      <stop offset="0.8313725490196079" stop-color="#a31b00"/>
    </linearGradient>
  </defs>
</svg>
