<?xml version="1.0" encoding="UTF-8" standalone="no"?>
<svg xmlns:ffdec="https://www.free-decompiler.com/flash" xmlns:xlink="http://www.w3.org/1999/xlink" ffdec:objectType="shape" height="20.65px" width="202.7px" xmlns="http://www.w3.org/2000/svg">
  <g transform="matrix(1.0, 0.0, 0.0, 1.0, 95.95, 6.35)">
    <path d="M13.35 -3.85 L13.95 -3.65 14.6 0.15 14.3 0.4 13.8 0.35 13.3 0.35 Q10.65 0.35 9.05 1.25 7.15 2.25 7.15 4.4 7.15 7.4 10.25 7.4 L11.55 7.25 11.5 5.55 9.4 5.6 9.2 5.55 9.1 5.35 9.2 3.45 Q9.2 3.2 9.45 3.2 L15.9 2.85 Q16.25 2.8 16.25 3.05 L16.5 9.55 16.4 9.75 Q15.6 10.5 13.8 10.95 L10.8 11.3 Q6.95 11.3 4.6 9.45 2.2 7.5 2.2 4.25 2.2 0.25 5.5 -1.9 8.45 -3.85 13.35 -3.85 M31.15 -0.55 Q33.05 1.7 33.05 4.65 33.05 7.5 31.05 9.6 28.9 11.8 25.6 11.8 21.75 11.8 19.55 9.8 17.4 7.85 17.4 4.55 17.4 1.35 19.65 -0.8 21.95 -3.05 25.75 -3.05 29.05 -3.05 31.15 -0.55 M47.6 -0.65 L47.7 -0.5 47.6 -0.35 44.85 2.35 44.65 2.45 44.5 2.35 Q42.15 0.95 40.3 0.95 39.2 0.95 39.2 1.55 39.2 2.0 41.35 2.65 44.2 3.55 45.35 4.25 47.55 5.5 47.55 7.35 47.55 9.7 45.3 10.8 43.55 11.65 40.6 11.65 38.8 11.65 37.0 10.95 35.15 10.25 34.05 9.15 L33.95 8.95 34.05 8.8 36.75 6.2 37.0 6.15 38.5 6.85 Q40.1 7.6 41.2 7.6 42.45 7.6 42.45 6.9 42.45 6.4 40.3 5.85 37.45 5.15 36.25 4.45 34.1 3.2 34.1 1.1 34.1 -0.75 36.55 -2.05 38.7 -3.15 41.0 -3.15 L44.6 -2.5 Q46.5 -1.8 47.6 -0.65 M66.95 -3.65 L67.6 0.15 67.3 0.4 66.8 0.35 66.3 0.35 Q63.7 0.35 62.1 1.2 60.15 2.2 60.15 4.25 60.15 5.75 61.3 6.55 62.35 7.3 64.1 7.3 66.05 7.3 68.25 6.15 L68.4 6.1 Q68.7 6.1 68.7 6.3 L69.45 9.6 69.4 9.75 Q68.6 10.55 66.85 11.0 L63.9 11.35 Q60.05 11.35 57.65 9.45 55.2 7.55 55.2 4.25 55.2 0.25 58.45 -1.9 61.45 -3.85 66.35 -3.85 66.9 -3.85 66.95 -3.65 M78.75 -3.05 Q82.05 -3.05 84.15 -0.55 86.05 1.7 86.05 4.65 86.05 7.5 84.05 9.6 81.9 11.8 78.6 11.8 74.75 11.8 72.55 9.8 70.4 7.85 70.4 4.55 70.4 1.35 72.65 -0.8 74.95 -3.05 78.75 -3.05 M92.5 -2.9 L92.75 -2.75 95.6 4.65 98.5 -2.75 Q98.55 -2.9 98.75 -2.9 L103.35 -2.95 103.6 -2.7 104.25 10.45 104.0 10.7 100.05 10.9 99.75 10.65 99.55 2.9 97.1 10.25 96.85 10.45 94.4 10.45 94.15 10.25 91.65 2.9 91.5 10.65 91.15 10.9 87.25 10.75 86.95 10.5 87.6 -2.7 87.9 -2.95 92.5 -2.9 M78.3 8.05 Q79.7 8.05 80.6 6.95 81.45 5.95 81.45 4.75 81.45 3.5 80.6 2.5 79.7 1.4 78.3 1.4 76.9 1.4 76.0 2.5 75.2 3.5 75.2 4.75 75.2 5.95 76.0 6.95 76.9 8.05 78.3 8.05 M54.3 9.9 Q54.3 10.6 53.3 11.0 L51.6 11.3 49.8 11.0 Q48.8 10.55 48.8 9.85 48.8 9.2 49.85 8.8 L51.55 8.45 53.3 8.8 Q54.3 9.2 54.3 9.9 M25.3 8.05 Q26.7 8.05 27.6 6.95 28.45 5.95 28.45 4.75 28.45 3.5 27.6 2.5 26.7 1.4 25.3 1.4 23.9 1.4 23.0 2.5 22.2 3.5 22.2 4.75 22.2 5.95 23.0 6.95 23.9 8.05 25.3 8.05 M-82.3 -3.85 Q-81.75 -3.85 -81.7 -3.65 L-81.05 0.15 Q-81.0 0.4 -81.35 0.4 L-81.85 0.35 -82.35 0.35 Q-84.95 0.35 -86.55 1.2 -88.5 2.2 -88.5 4.25 -88.5 5.75 -87.35 6.55 -86.3 7.3 -84.55 7.3 -82.6 7.3 -80.4 6.15 L-80.25 6.1 Q-79.95 6.1 -79.95 6.3 L-79.2 9.6 -79.25 9.75 Q-80.05 10.55 -81.8 11.0 L-84.75 11.35 Q-88.6 11.35 -91.0 9.45 -93.45 7.55 -93.45 4.25 -93.45 0.25 -90.2 -1.9 -87.2 -3.85 -82.3 -3.85 M-65.1 -2.85 L-60.65 -2.8 -60.35 -2.55 -60.75 10.8 -61.05 11.05 -65.3 11.1 -65.5 11.05 -65.6 10.85 -65.35 -2.65 -65.1 -2.85 M-73.05 -2.7 L-73.05 7.55 -66.7 7.55 Q-66.4 7.55 -66.4 7.8 L-66.4 10.5 -66.7 10.75 -77.65 10.75 -77.9 10.5 -78.05 -2.6 -77.75 -2.85 -73.35 -2.95 Q-73.05 -2.95 -73.05 -2.7 M-47.7 -3.65 L-47.05 0.15 Q-47.0 0.4 -47.35 0.4 L-47.85 0.35 -48.35 0.35 Q-50.95 0.35 -52.55 1.2 -54.5 2.2 -54.5 4.25 -54.5 5.75 -53.35 6.55 -52.3 7.3 -50.55 7.3 -48.6 7.3 -46.4 6.15 L-46.25 6.1 Q-45.95 6.1 -45.95 6.3 L-45.2 9.6 -45.25 9.75 Q-46.05 10.55 -47.8 11.0 L-50.75 11.35 Q-54.6 11.35 -57.0 9.45 -59.45 7.55 -59.45 4.25 -59.45 0.25 -56.2 -1.9 -53.2 -3.85 -48.3 -3.85 -47.75 -3.85 -47.7 -3.65 M-43.75 -2.7 L-38.85 -2.7 -38.65 -2.65 -38.6 -2.45 -38.65 2.85 -35.0 -2.35 -34.75 -2.45 -29.85 -2.35 -29.6 -2.1 -29.65 -1.95 -34.35 4.0 -30.0 10.7 -30.3 10.95 -35.3 11.1 -35.55 10.95 -38.4 5.85 -38.7 5.9 -38.7 10.2 -39.0 10.45 -43.7 10.7 -43.95 10.45 -44.05 -2.45 -43.75 -2.7 M-19.85 -2.65 L-15.3 -2.5 -15.05 -2.25 -15.25 5.4 Q-15.4 11.35 -22.15 11.35 -28.85 11.35 -28.85 5.6 L-28.8 4.05 -28.5 3.8 -24.05 4.2 Q-23.75 4.25 -23.75 4.45 L-23.75 5.35 Q-23.75 7.65 -22.05 7.65 -20.95 7.65 -20.55 6.75 -20.3 6.2 -20.3 5.05 L-20.15 -2.45 -19.85 -2.65 M-5.8 -3.05 Q-2.5 -3.05 -0.4 -0.55 1.5 1.7 1.5 4.65 1.5 7.5 -0.5 9.6 -2.65 11.8 -5.95 11.8 -9.8 11.8 -12.0 9.8 -14.15 7.85 -14.15 4.55 -14.15 1.35 -11.9 -0.8 -9.6 -3.05 -5.8 -3.05 M-3.95 2.5 Q-4.85 1.4 -6.25 1.4 -7.65 1.4 -8.55 2.5 -9.35 3.5 -9.35 4.75 -9.35 5.95 -8.55 6.95 -7.65 8.05 -6.25 8.05 -4.85 8.05 -3.95 6.95 -3.1 5.95 -3.1 4.75 -3.1 3.5 -3.95 2.5" fill="url(#gradient0)" fill-rule="evenodd" stroke="none"/>
    <path d="M13.35 -3.85 L13.95 -3.65 14.6 0.15 14.3 0.4 13.8 0.35 13.3 0.35 Q10.65 0.35 9.05 1.25 7.15 2.25 7.15 4.4 7.15 7.4 10.25 7.4 L11.55 7.25 11.5 5.55 9.4 5.6 9.2 5.55 9.1 5.35 9.2 3.45 Q9.2 3.2 9.45 3.2 L15.9 2.85 Q16.25 2.8 16.25 3.05 L16.5 9.55 16.4 9.75 Q15.6 10.5 13.8 10.95 L10.8 11.3 Q6.95 11.3 4.6 9.45 2.2 7.5 2.2 4.25 2.2 0.25 5.5 -1.9 8.45 -3.85 13.35 -3.85 M31.15 -0.55 Q33.05 1.7 33.05 4.65 33.05 7.5 31.05 9.6 28.9 11.8 25.6 11.8 21.75 11.8 19.55 9.8 17.4 7.85 17.4 4.55 17.4 1.35 19.65 -0.8 21.95 -3.05 25.75 -3.05 29.05 -3.05 31.15 -0.55 M47.6 -0.65 L47.7 -0.5 47.6 -0.35 44.85 2.35 44.65 2.45 44.5 2.35 Q42.15 0.95 40.3 0.95 39.2 0.95 39.2 1.55 39.2 2.0 41.35 2.65 44.2 3.55 45.35 4.25 47.55 5.5 47.55 7.35 47.55 9.7 45.3 10.8 43.55 11.65 40.6 11.65 38.8 11.65 37.0 10.95 35.15 10.25 34.05 9.15 L33.95 8.95 34.05 8.8 36.75 6.2 37.0 6.15 38.5 6.85 Q40.1 7.6 41.2 7.6 42.45 7.6 42.45 6.9 42.45 6.4 40.3 5.85 37.45 5.15 36.25 4.45 34.1 3.2 34.1 1.1 34.1 -0.75 36.55 -2.05 38.7 -3.15 41.0 -3.15 L44.6 -2.5 Q46.5 -1.8 47.6 -0.65 M66.95 -3.65 L67.6 0.15 67.3 0.4 66.8 0.35 66.3 0.35 Q63.7 0.35 62.1 1.2 60.15 2.2 60.15 4.25 60.15 5.75 61.3 6.55 62.35 7.3 64.1 7.3 66.05 7.3 68.25 6.15 L68.4 6.1 Q68.7 6.1 68.7 6.3 L69.45 9.6 69.4 9.75 Q68.6 10.55 66.85 11.0 L63.9 11.35 Q60.05 11.35 57.65 9.45 55.2 7.55 55.2 4.25 55.2 0.25 58.45 -1.9 61.45 -3.85 66.35 -3.85 66.9 -3.85 66.95 -3.65 M78.75 -3.05 Q82.05 -3.05 84.15 -0.55 86.05 1.7 86.05 4.65 86.05 7.5 84.05 9.6 81.9 11.8 78.6 11.8 74.75 11.8 72.55 9.8 70.4 7.85 70.4 4.55 70.4 1.35 72.65 -0.8 74.95 -3.05 78.75 -3.05 M92.5 -2.9 L92.75 -2.75 95.6 4.65 98.5 -2.75 Q98.55 -2.9 98.75 -2.9 L103.35 -2.95 103.6 -2.7 104.25 10.45 104.0 10.7 100.05 10.9 99.75 10.65 99.55 2.9 97.1 10.25 96.85 10.45 94.4 10.45 94.15 10.25 91.65 2.9 91.5 10.65 91.15 10.9 87.25 10.75 86.95 10.5 87.6 -2.7 87.9 -2.95 92.5 -2.9 M78.3 8.05 Q79.7 8.05 80.6 6.95 81.45 5.95 81.45 4.75 81.45 3.5 80.6 2.5 79.7 1.4 78.3 1.4 76.9 1.4 76.0 2.5 75.2 3.5 75.2 4.75 75.2 5.95 76.0 6.95 76.9 8.05 78.3 8.05 M54.3 9.9 Q54.3 10.6 53.3 11.0 L51.6 11.3 49.8 11.0 Q48.8 10.55 48.8 9.85 48.8 9.2 49.85 8.8 L51.55 8.45 53.3 8.8 Q54.3 9.2 54.3 9.9 M25.3 8.05 Q26.7 8.05 27.6 6.95 28.45 5.95 28.45 4.75 28.45 3.5 27.6 2.5 26.7 1.4 25.3 1.4 23.9 1.4 23.0 2.5 22.2 3.5 22.2 4.75 22.2 5.95 23.0 6.95 23.9 8.05 25.3 8.05 M-82.3 -3.85 Q-81.75 -3.85 -81.7 -3.65 L-81.05 0.15 Q-81.0 0.4 -81.35 0.4 L-81.85 0.35 -82.35 0.35 Q-84.95 0.35 -86.55 1.2 -88.5 2.2 -88.5 4.25 -88.5 5.75 -87.35 6.55 -86.3 7.3 -84.55 7.3 -82.6 7.3 -80.4 6.15 L-80.25 6.1 Q-79.95 6.1 -79.95 6.3 L-79.2 9.6 -79.25 9.75 Q-80.05 10.55 -81.8 11.0 L-84.75 11.35 Q-88.6 11.35 -91.0 9.45 -93.45 7.55 -93.45 4.25 -93.45 0.25 -90.2 -1.9 -87.2 -3.85 -82.3 -3.85 M-65.1 -2.85 L-60.65 -2.8 -60.35 -2.55 -60.75 10.8 -61.05 11.05 -65.3 11.1 -65.5 11.05 -65.6 10.85 -65.35 -2.65 -65.1 -2.85 M-73.05 -2.7 L-73.05 7.55 -66.7 7.55 Q-66.4 7.55 -66.4 7.8 L-66.4 10.5 -66.7 10.75 -77.65 10.75 -77.9 10.5 -78.05 -2.6 -77.75 -2.85 -73.35 -2.95 Q-73.05 -2.95 -73.05 -2.7 M-47.7 -3.65 L-47.05 0.15 Q-47.0 0.4 -47.35 0.4 L-47.85 0.35 -48.35 0.35 Q-50.95 0.35 -52.55 1.2 -54.5 2.2 -54.5 4.25 -54.5 5.75 -53.35 6.55 -52.3 7.3 -50.55 7.3 -48.6 7.3 -46.4 6.15 L-46.25 6.1 Q-45.95 6.1 -45.95 6.3 L-45.2 9.6 -45.25 9.75 Q-46.05 10.55 -47.8 11.0 L-50.75 11.35 Q-54.6 11.35 -57.0 9.45 -59.45 7.55 -59.45 4.25 -59.45 0.25 -56.2 -1.9 -53.2 -3.85 -48.3 -3.85 -47.75 -3.85 -47.7 -3.65 M-43.75 -2.7 L-38.85 -2.7 -38.65 -2.65 -38.6 -2.45 -38.65 2.85 -35.0 -2.35 -34.75 -2.45 -29.85 -2.35 -29.6 -2.1 -29.65 -1.95 -34.35 4.0 -30.0 10.7 -30.3 10.95 -35.3 11.1 -35.55 10.95 -38.4 5.85 -38.7 5.9 -38.7 10.2 -39.0 10.45 -43.7 10.7 -43.95 10.45 -44.05 -2.45 -43.75 -2.7 M-19.85 -2.65 L-15.3 -2.5 -15.05 -2.25 -15.25 5.4 Q-15.4 11.35 -22.15 11.35 -28.85 11.35 -28.85 5.6 L-28.8 4.05 -28.5 3.8 -24.05 4.2 Q-23.75 4.25 -23.75 4.45 L-23.75 5.35 Q-23.75 7.65 -22.05 7.65 -20.95 7.65 -20.55 6.75 -20.3 6.2 -20.3 5.05 L-20.15 -2.45 -19.85 -2.65 M-5.8 -3.05 Q-2.5 -3.05 -0.4 -0.55 1.5 1.7 1.5 4.65 1.5 7.5 -0.5 9.6 -2.65 11.8 -5.95 11.8 -9.8 11.8 -12.0 9.8 -14.15 7.85 -14.15 4.55 -14.15 1.35 -11.9 -0.8 -9.6 -3.05 -5.8 -3.05 M-3.95 2.5 Q-4.85 1.4 -6.25 1.4 -7.65 1.4 -8.55 2.5 -9.35 3.5 -9.35 4.75 -9.35 5.95 -8.55 6.95 -7.65 8.05 -6.25 8.05 -4.85 8.05 -3.95 6.95 -3.1 5.95 -3.1 4.75 -3.1 3.5 -3.95 2.5 Z" fill="none" stroke="url(#gradient1)" stroke-linecap="round" stroke-linejoin="round" stroke-width="5.0"/>
    <path d="M25.25 -3.3 Q28.55 -3.3 30.65 -0.8 32.55 1.45 32.55 4.4 32.55 7.25 30.55 9.35 28.4 11.55 25.1 11.55 21.25 11.55 19.05 9.55 16.9 7.6 16.9 4.3 16.9 1.1 19.15 -1.05 21.45 -3.3 25.25 -3.3 M14.1 -0.1 L13.8 0.15 13.3 0.1 12.8 0.1 Q10.15 0.1 8.55 1.0 6.65 2.0 6.65 4.15 6.65 7.15 9.75 7.15 L11.05 7.0 11.0 5.3 8.9 5.35 8.7 5.3 8.6 5.1 8.7 3.2 Q8.7 2.95 8.95 2.95 L15.4 2.6 Q15.75 2.55 15.75 2.8 L16.0 9.3 15.9 9.5 Q15.1 10.25 13.3 10.7 L10.3 11.05 Q6.45 11.05 4.1 9.2 1.7 7.25 1.7 4.0 1.7 0.0 5.0 -2.15 7.95 -4.1 12.85 -4.1 L13.45 -3.9 14.1 -0.1 M65.85 -4.1 L66.45 -3.9 67.1 -0.1 66.8 0.15 66.3 0.1 65.8 0.1 Q63.2 0.1 61.6 0.95 59.65 1.95 59.65 4.0 59.65 5.5 60.8 6.3 61.85 7.05 63.6 7.05 65.55 7.05 67.75 5.9 L67.9 5.85 Q68.2 5.85 68.2 6.05 L68.95 9.35 68.9 9.5 Q68.1 10.3 66.35 10.75 L63.4 11.1 Q59.55 11.1 57.15 9.2 54.7 7.3 54.7 4.0 54.7 0.0 57.95 -2.15 60.95 -4.1 65.85 -4.1 M47.1 -0.9 L47.2 -0.75 47.1 -0.6 44.35 2.1 44.15 2.2 44.0 2.1 Q41.65 0.7 39.8 0.7 38.7 0.7 38.7 1.3 38.7 1.75 40.85 2.4 43.7 3.3 44.85 4.0 47.05 5.25 47.05 7.1 47.05 9.45 44.8 10.55 43.05 11.4 40.1 11.4 L36.5 10.7 Q34.65 10.0 33.55 8.9 L33.45 8.7 33.55 8.55 36.25 5.95 36.5 5.9 38.0 6.6 Q39.6 7.35 40.7 7.35 41.95 7.35 41.95 6.65 41.95 6.15 39.8 5.6 36.95 4.9 35.75 4.2 33.6 2.95 33.6 0.85 33.6 -1.0 36.05 -2.3 38.2 -3.4 40.5 -3.4 L44.1 -2.75 Q46.0 -2.05 47.1 -0.9 M78.25 -3.3 Q81.55 -3.3 83.65 -0.8 85.55 1.45 85.55 4.4 85.55 7.25 83.55 9.35 81.4 11.55 78.1 11.55 74.25 11.55 72.05 9.55 69.9 7.6 69.9 4.3 69.9 1.1 72.15 -1.05 74.45 -3.3 78.25 -3.3 M92.25 -3.0 L95.1 4.4 98.0 -3.0 98.25 -3.15 102.85 -3.2 103.1 -2.95 103.75 10.2 103.5 10.45 99.55 10.65 99.25 10.4 99.05 2.65 96.6 10.0 96.35 10.2 93.9 10.2 93.65 10.0 91.15 2.65 91.0 10.4 90.65 10.65 86.75 10.5 86.45 10.25 87.1 -2.95 87.4 -3.2 92.0 -3.15 92.25 -3.0 M80.1 2.25 Q79.2 1.15 77.8 1.15 76.4 1.15 75.5 2.25 74.7 3.25 74.7 4.5 74.7 5.7 75.5 6.7 76.4 7.8 77.8 7.8 79.2 7.8 80.1 6.7 80.95 5.7 80.95 4.5 80.95 3.25 80.1 2.25 M53.8 9.65 Q53.8 10.35 52.8 10.75 L51.1 11.05 49.3 10.75 Q48.3 10.3 48.3 9.6 48.3 8.95 49.35 8.55 50.15 8.2 51.05 8.2 L52.8 8.55 Q53.8 8.95 53.8 9.65 M27.1 6.7 Q27.95 5.7 27.95 4.5 27.95 3.25 27.1 2.25 26.2 1.15 24.8 1.15 23.4 1.15 22.5 2.25 21.7 3.25 21.7 4.5 21.7 5.7 22.5 6.7 23.4 7.8 24.8 7.8 26.2 7.8 27.1 6.7 M-81.55 -0.1 Q-81.5 0.15 -81.85 0.15 L-82.35 0.1 -82.85 0.1 Q-85.45 0.1 -87.05 0.95 -89.0 1.95 -89.0 4.0 -89.0 5.5 -87.85 6.3 -86.8 7.05 -85.05 7.05 -83.1 7.05 -80.9 5.9 L-80.75 5.85 Q-80.45 5.85 -80.45 6.05 L-79.7 9.35 -79.75 9.5 Q-80.55 10.3 -82.3 10.75 L-85.25 11.1 Q-89.1 11.1 -91.5 9.2 -93.95 7.3 -93.95 4.0 -93.95 0.0 -90.7 -2.15 -87.7 -4.1 -82.8 -4.1 -82.25 -4.1 -82.2 -3.9 L-81.55 -0.1 M-73.55 -2.95 L-73.55 7.3 -67.2 7.3 Q-66.9 7.3 -66.9 7.55 L-66.9 10.25 -67.2 10.5 -78.15 10.5 -78.4 10.25 -78.55 -2.85 -78.25 -3.1 -73.85 -3.2 Q-73.55 -3.2 -73.55 -2.95 M-65.6 -3.1 L-61.15 -3.05 -60.85 -2.8 -61.25 10.55 -61.55 10.8 -65.8 10.85 -66.0 10.8 -66.1 10.6 -65.85 -2.9 -65.6 -3.1 M-44.25 -2.95 L-39.35 -2.95 -39.15 -2.9 -39.1 -2.7 -39.15 2.6 -35.5 -2.6 -35.25 -2.7 -30.35 -2.6 -30.1 -2.35 -30.15 -2.2 -34.85 3.75 Q-30.5 10.35 -30.5 10.45 L-30.8 10.7 -35.8 10.85 -36.05 10.7 -38.9 5.6 -39.2 5.65 -39.2 9.95 -39.5 10.2 -44.2 10.45 -44.45 10.2 -44.55 -2.7 -44.25 -2.95 M-48.2 -3.9 L-47.55 -0.1 Q-47.5 0.15 -47.85 0.15 L-48.35 0.1 -48.85 0.1 Q-51.45 0.1 -53.05 0.95 -55.0 1.95 -55.0 4.0 -55.0 5.5 -53.85 6.3 -52.8 7.05 -51.05 7.05 -49.1 7.05 -46.9 5.9 L-46.75 5.85 Q-46.45 5.85 -46.45 6.05 L-45.7 9.35 -45.75 9.5 Q-46.55 10.3 -48.3 10.75 L-51.25 11.1 Q-55.1 11.1 -57.5 9.2 -59.95 7.3 -59.95 4.0 -59.95 0.0 -56.7 -2.15 -53.7 -4.1 -48.8 -4.1 -48.25 -4.1 -48.2 -3.9 M-20.35 -2.9 L-15.8 -2.75 -15.55 -2.5 -15.75 5.15 Q-15.9 11.1 -22.65 11.1 -29.35 11.1 -29.35 5.35 L-29.3 3.8 -29.0 3.55 -24.55 3.95 -24.25 4.2 -24.25 5.1 Q-24.25 7.4 -22.55 7.4 -21.45 7.4 -21.05 6.5 -20.8 5.95 -20.8 4.8 L-20.65 -2.7 Q-20.65 -2.95 -20.35 -2.9 M-0.9 -0.8 Q1.0 1.45 1.0 4.4 1.0 7.25 -1.0 9.35 -3.15 11.55 -6.45 11.55 -10.3 11.55 -12.5 9.55 -14.65 7.6 -14.65 4.3 -14.65 1.1 -12.4 -1.05 -10.1 -3.3 -6.3 -3.3 -3.0 -3.3 -0.9 -0.8 M-4.45 2.25 Q-5.35 1.15 -6.75 1.15 -8.15 1.15 -9.05 2.25 -9.85 3.25 -9.85 4.5 -9.85 5.7 -9.05 6.7 -8.15 7.8 -6.75 7.8 -5.35 7.8 -4.45 6.7 -3.6 5.7 -3.6 4.5 -3.6 3.25 -4.45 2.25" fill="#ffffff" fill-rule="evenodd" stroke="none"/>
  </g>
  <defs>
    <linearGradient gradientTransform="matrix(0.0, 0.3346, -0.1207, 0.0, 5.4, -144.0)" gradientUnits="userSpaceOnUse" id="gradient0" spreadMethod="pad" x1="-819.2" x2="819.2">
      <stop offset="0.0" stop-color="#ffffff"/>
      <stop offset="1.0" stop-color="#000000"/>
    </linearGradient>
    <linearGradient gradientTransform="matrix(0.0, 0.0115, -0.0136, 0.0, 95.6, 3.95)" gradientUnits="userSpaceOnUse" id="gradient1" spreadMethod="pad" x1="-819.2" x2="819.2">
      <stop offset="0.23529411764705882" stop-color="#efa200"/>
      <stop offset="0.8313725490196079" stop-color="#a31b00"/>
    </linearGradient>
  </defs>
</svg>
