<?xml version="1.0" encoding="UTF-8" standalone="no"?>
<svg xmlns:ffdec="https://www.free-decompiler.com/flash" xmlns:xlink="http://www.w3.org/1999/xlink" ffdec:objectType="shape" height="23.5px" width="223.2px" xmlns="http://www.w3.org/2000/svg">
  <g transform="matrix(1.0, 0.0, 0.0, 1.0, 96.8, -3.35)">
    <path d="M123.9 5.9 L119.0 5.9 118.85 6.6 111.9 6.6 110.75 11.7 113.95 11.7 113.95 23.9 119.35 23.9 119.35 11.8 122.5 11.8 123.9 5.9 M104.8 11.7 L104.8 23.9 110.2 23.9 110.2 6.6 104.85 6.6 103.6 11.7 104.8 11.7 M103.2 21.5 Q103.15 20.25 102.3 19.5 101.45 18.6 100.3 18.6 L99.15 18.8 98.25 19.45 97.6 20.35 97.35 21.5 97.6 22.65 98.25 23.55 99.15 24.2 100.3 24.35 Q101.45 24.35 102.3 23.55 103.15 22.7 103.2 21.5 M91.2 6.45 L90.45 6.3 90.0 6.3 89.2 6.3 Q86.6 6.3 85.05 7.65 83.35 9.1 83.35 11.65 83.35 14.1 85.2 15.5 86.2 16.25 88.55 17.05 90.4 17.65 90.4 18.3 90.4 19.1 89.25 19.1 L86.9 18.55 84.65 17.6 83.3 22.6 Q86.3 24.25 89.3 24.25 92.25 24.25 94.1 22.75 96.1 21.1 96.1 18.3 96.1 15.85 94.3 14.4 93.25 13.65 91.0 12.85 89.2 12.2 89.2 11.7 89.2 10.9 90.4 10.9 91.1 10.9 92.4 11.4 93.6 11.75 94.4 12.25 L95.95 6.7 91.4 5.85 91.2 6.45 M81.9 6.6 L76.55 6.6 75.3 11.7 76.5 11.7 76.5 23.9 81.9 23.9 81.9 6.6 M74.45 11.8 L75.8 5.9 70.9 5.9 70.8 6.6 63.85 6.6 62.7 11.7 65.85 11.7 65.85 23.9 71.25 23.9 71.25 11.8 74.45 11.8 M48.3 11.25 L49.55 11.25 46.2 23.7 43.3 18.35 Q46.1 16.5 46.15 12.85 46.15 10.1 44.35 8.35 42.6 6.6 39.85 6.6 L32.1 6.6 30.9 11.7 32.1 11.7 32.1 23.9 37.5 23.9 37.5 18.8 39.85 23.9 51.7 23.9 52.4 21.5 57.3 21.5 57.8 23.9 63.5 23.9 58.6 6.6 50.0 6.6 48.3 11.25 M53.5 16.95 L54.9 11.85 56.2 16.95 53.5 16.95 M38.85 11.65 Q40.65 11.65 40.65 13.1 40.65 14.5 38.85 14.5 L37.5 14.5 37.5 11.65 38.85 11.65 M24.65 6.6 L24.3 6.9 Q23.1 6.2 21.4 6.2 18.15 6.2 15.55 8.6 12.5 11.25 12.5 15.05 12.5 19.05 15.2 21.6 17.85 24.2 21.8 24.2 25.5 24.2 28.15 21.4 30.75 18.6 30.8 14.9 L30.8 14.6 30.75 14.2 30.65 13.15 22.55 13.15 21.4 17.65 24.25 17.65 Q23.35 18.85 21.85 18.85 20.2 18.85 19.1 17.95 17.95 16.95 17.95 15.35 17.95 13.75 19.0 12.8 20.0 11.75 21.6 11.8 22.5 11.75 23.65 12.25 L24.55 12.7 28.45 8.6 24.65 6.6 M12.05 5.9 L7.2 5.9 7.0 6.6 -0.2 6.6 -1.4 11.85 -0.2 11.85 -0.2 23.9 10.2 23.9 11.45 18.5 5.2 18.5 5.2 17.4 10.35 17.4 11.6 13.0 5.2 13.0 5.2 12.0 10.65 12.0 12.05 5.9 M-8.05 6.6 L-15.8 6.6 -17.0 11.7 -15.8 11.7 -15.8 23.9 -10.4 23.9 -10.4 18.8 -8.05 23.9 -1.6 23.9 -4.6 18.35 Q-1.8 16.5 -1.75 12.85 L-1.8 11.85 Q-2.1 9.75 -3.55 8.35 -5.3 6.6 -8.05 6.6 M-9.05 14.5 L-10.4 14.5 -10.4 11.65 -9.05 11.65 Q-7.25 11.65 -7.2 13.1 -7.25 14.5 -9.05 14.5 M-29.8 6.6 L-31.5 11.25 -30.3 11.25 -33.65 23.9 -28.1 23.9 -27.4 21.5 -22.5 21.5 -22.0 23.9 -16.3 23.9 -21.2 6.6 -29.8 6.6 M-40.35 6.25 Q-44.2 6.25 -46.75 9.5 -48.95 12.25 -48.9 15.25 -48.95 18.95 -46.2 21.55 -43.5 24.1 -39.7 24.1 -36.15 24.05 -33.75 21.9 L-36.1 16.95 Q-37.8 18.7 -39.55 18.7 L-41.05 18.4 -42.2 17.65 -42.95 16.45 -43.2 14.95 Q-43.25 13.55 -42.15 12.55 -41.0 11.55 -39.55 11.55 -38.8 11.55 -37.7 12.05 -36.75 12.5 -36.05 13.15 L-33.5 7.45 -37.85 5.85 -38.2 6.45 -39.3 6.3 -40.35 6.25 M-26.3 16.95 L-24.95 11.85 -23.6 16.95 -26.3 16.95 M-58.65 6.25 Q-62.85 6.25 -65.65 9.15 -68.1 11.7 -68.1 14.9 -68.15 19.05 -65.4 21.6 -62.7 24.15 -58.55 24.15 -54.5 24.15 -51.8 21.25 -49.5 18.65 -49.5 15.55 -49.5 11.7 -52.15 8.95 -54.75 6.25 -58.65 6.25 M-60.1 18.45 L-61.25 17.7 -62.1 16.6 -62.3 15.15 Q-62.3 13.65 -61.25 12.7 -60.15 11.7 -58.7 11.7 -57.2 11.7 -56.25 12.75 -55.3 13.8 -55.3 15.25 -55.3 15.95 -55.6 16.6 -55.8 17.25 -56.25 17.7 L-57.3 18.4 -58.7 18.7 -60.1 18.45 M-74.65 11.7 L-74.65 23.9 -69.25 23.9 -69.25 6.6 -74.6 6.6 -75.9 11.7 -74.65 11.7 M-76.05 14.2 L-76.1 13.15 -84.2 13.15 -85.35 17.65 -82.55 17.65 Q-83.4 18.85 -84.9 18.85 -86.6 18.85 -87.65 17.95 -88.8 16.95 -88.8 15.35 -88.85 13.75 -87.8 12.8 -86.75 11.75 -85.2 11.8 -84.3 11.75 -83.1 12.25 L-82.2 12.7 -78.35 8.6 -82.15 6.6 -82.5 6.9 Q-83.65 6.2 -85.35 6.2 -88.6 6.2 -91.25 8.6 -94.3 11.25 -94.3 15.05 -94.3 19.05 -91.6 21.6 -88.95 24.2 -84.95 24.2 -81.3 24.2 -78.65 21.4 -76.0 18.6 -76.0 14.9 L-76.0 14.6 -76.05 14.2 Z" fill="none" stroke="#000000" stroke-linecap="round" stroke-linejoin="round" stroke-width="5.0"/>
    <path d="M123.9 5.9 L119.0 5.9 118.85 6.6 111.9 6.6 110.75 11.7 113.95 11.7 113.95 23.9 119.35 23.9 119.35 11.8 122.5 11.8 123.9 5.9 M103.6 11.7 L104.8 11.7 104.8 23.9 110.2 23.9 110.2 6.6 104.85 6.6 103.6 11.7 M103.2 21.5 Q103.15 20.25 102.3 19.5 101.45 18.6 100.3 18.6 L99.15 18.8 98.25 19.45 97.6 20.35 97.35 21.5 97.6 22.65 98.25 23.55 99.15 24.2 100.3 24.35 Q101.45 24.35 102.3 23.55 103.15 22.7 103.2 21.5 M91.2 6.45 L90.45 6.3 90.0 6.3 89.2 6.3 Q86.6 6.3 85.05 7.65 83.35 9.1 83.35 11.65 83.35 14.1 85.2 15.5 86.2 16.25 88.55 17.05 90.4 17.65 90.4 18.3 90.4 19.1 89.25 19.1 L86.9 18.55 84.65 17.6 83.3 22.6 Q86.3 24.25 89.3 24.25 92.25 24.25 94.1 22.75 96.1 21.1 96.1 18.3 96.1 15.85 94.3 14.4 93.25 13.65 91.0 12.85 89.2 12.2 89.2 11.7 89.2 10.9 90.4 10.9 91.1 10.9 92.4 11.4 93.6 11.75 94.4 12.25 L95.95 6.7 91.4 5.85 91.2 6.45 M81.9 6.6 L76.55 6.6 75.3 11.7 76.5 11.7 76.5 23.9 81.9 23.9 81.9 6.6 M74.45 11.8 L75.8 5.9 70.9 5.9 70.8 6.6 63.85 6.6 62.7 11.7 65.85 11.7 65.85 23.9 71.25 23.9 71.25 11.8 74.45 11.8 M48.3 11.25 L49.55 11.25 46.2 23.7 43.3 18.35 Q46.1 16.5 46.15 12.85 46.15 10.1 44.35 8.35 42.6 6.6 39.85 6.6 L32.1 6.6 30.9 11.7 32.1 11.7 32.1 23.9 37.5 23.9 37.5 18.8 39.85 23.9 51.7 23.9 52.4 21.5 57.3 21.5 57.8 23.9 63.5 23.9 58.6 6.6 50.0 6.6 48.3 11.25 M53.5 16.95 L54.9 11.85 56.2 16.95 53.5 16.95 M38.85 11.65 Q40.65 11.65 40.65 13.1 40.65 14.5 38.85 14.5 L37.5 14.5 37.5 11.65 38.85 11.65 M24.65 6.6 L24.3 6.9 Q23.1 6.2 21.4 6.2 18.15 6.2 15.55 8.6 12.5 11.25 12.5 15.05 12.5 19.05 15.2 21.6 17.85 24.2 21.8 24.2 25.5 24.2 28.15 21.4 30.75 18.6 30.8 14.9 L30.8 14.6 30.75 14.2 30.65 13.15 22.55 13.15 21.4 17.65 24.25 17.65 Q23.35 18.85 21.85 18.85 20.2 18.85 19.1 17.95 17.95 16.95 17.95 15.35 17.95 13.75 19.0 12.8 20.0 11.75 21.6 11.8 22.5 11.75 23.65 12.25 L24.55 12.7 28.45 8.6 24.65 6.6 M12.05 5.9 L7.2 5.9 7.0 6.6 -0.2 6.6 -1.4 11.85 -0.2 11.85 -0.2 23.9 10.2 23.9 11.45 18.5 5.2 18.5 5.2 17.4 10.35 17.4 11.6 13.0 5.2 13.0 5.2 12.0 10.65 12.0 12.05 5.9 M-8.05 6.6 L-15.8 6.6 -17.0 11.7 -15.8 11.7 -15.8 23.9 -10.4 23.9 -10.4 18.8 -8.05 23.9 -1.6 23.9 -4.6 18.35 Q-1.8 16.5 -1.75 12.85 L-1.8 11.85 Q-2.1 9.75 -3.55 8.35 -5.3 6.6 -8.05 6.6 M-9.05 14.5 L-10.4 14.5 -10.4 11.65 -9.05 11.65 Q-7.25 11.65 -7.2 13.1 -7.25 14.5 -9.05 14.5 M-29.8 6.6 L-31.5 11.25 -30.3 11.25 -33.65 23.9 -28.1 23.9 -27.4 21.5 -22.5 21.5 -22.0 23.9 -16.3 23.9 -21.2 6.6 -29.8 6.6 M-40.35 6.25 Q-44.2 6.25 -46.75 9.5 -48.95 12.25 -48.9 15.25 -48.95 18.95 -46.2 21.55 -43.5 24.1 -39.7 24.1 -36.15 24.05 -33.75 21.9 L-36.1 16.95 Q-37.8 18.7 -39.55 18.7 L-41.05 18.4 -42.2 17.65 -42.95 16.45 -43.2 14.95 Q-43.25 13.55 -42.15 12.55 -41.0 11.55 -39.55 11.55 -38.8 11.55 -37.7 12.05 -36.75 12.5 -36.05 13.15 L-33.5 7.45 -37.85 5.85 -38.2 6.45 -39.3 6.3 -40.35 6.25 M-26.3 16.95 L-24.95 11.85 -23.6 16.95 -26.3 16.95 M-58.65 6.25 Q-62.85 6.25 -65.65 9.15 -68.1 11.7 -68.1 14.9 -68.15 19.05 -65.4 21.6 -62.7 24.15 -58.55 24.15 -54.5 24.15 -51.8 21.25 -49.5 18.65 -49.5 15.55 -49.5 11.7 -52.15 8.95 -54.75 6.25 -58.65 6.25 M-58.7 18.7 L-60.1 18.45 -61.25 17.7 -62.1 16.6 -62.3 15.15 Q-62.3 13.65 -61.25 12.7 -60.15 11.7 -58.7 11.7 -57.2 11.7 -56.25 12.75 -55.3 13.8 -55.3 15.25 -55.3 15.95 -55.6 16.6 -55.8 17.25 -56.25 17.7 L-57.3 18.4 -58.7 18.7 M-75.9 11.7 L-74.65 11.7 -74.65 23.9 -69.25 23.9 -69.25 6.6 -74.6 6.6 -75.9 11.7 M-76.05 14.2 L-76.1 13.15 -84.2 13.15 -85.35 17.65 -82.55 17.65 Q-83.4 18.85 -84.9 18.85 -86.6 18.85 -87.65 17.95 -88.8 16.95 -88.8 15.35 -88.85 13.75 -87.8 12.8 -86.75 11.75 -85.2 11.8 -84.3 11.75 -83.1 12.25 L-82.2 12.7 -78.35 8.6 -82.15 6.6 -82.5 6.9 Q-83.65 6.2 -85.35 6.2 -88.6 6.2 -91.25 8.6 -94.3 11.25 -94.3 15.05 -94.3 19.05 -91.6 21.6 -88.95 24.2 -84.95 24.2 -81.3 24.2 -78.65 21.4 -76.0 18.6 -76.0 14.9 L-76.0 14.6 -76.05 14.2 Z" fill="none" stroke="#ffffff" stroke-linecap="round" stroke-linejoin="round" stroke-width="3.0"/>
    <path d="M-76.05 14.2 L-76.0 14.6 -76.0 14.9 Q-76.0 18.6 -78.65 21.4 -81.3 24.2 -84.95 24.2 -88.95 24.2 -91.6 21.6 -94.3 19.05 -94.3 15.05 -94.3 11.25 -91.25 8.6 -88.6 6.2 -85.35 6.2 -83.65 6.2 -82.5 6.9 L-82.15 6.6 -78.35 8.6 -82.2 12.7 -83.1 12.25 Q-84.3 11.75 -85.2 11.8 -86.75 11.75 -87.8 12.8 -88.85 13.75 -88.8 15.35 -88.8 16.95 -87.65 17.95 -86.6 18.85 -84.9 18.85 -83.4 18.85 -82.55 17.65 L-85.35 17.65 -84.2 13.15 -76.1 13.15 -76.05 14.2 M-75.9 11.7 L-74.6 6.6 -69.25 6.6 -69.25 23.9 -74.65 23.9 -74.65 11.7 -75.9 11.7 M-60.1 18.45 L-58.7 18.7 -57.3 18.4 -56.25 17.7 Q-55.8 17.25 -55.6 16.6 -55.3 15.95 -55.3 15.25 -55.3 13.8 -56.25 12.75 -57.2 11.7 -58.7 11.7 -60.15 11.7 -61.25 12.7 -62.3 13.65 -62.3 15.15 L-62.1 16.6 -61.25 17.7 -60.1 18.45 M-58.65 6.25 Q-54.75 6.25 -52.15 8.95 -49.5 11.7 -49.5 15.55 -49.5 18.65 -51.8 21.25 -54.5 24.15 -58.55 24.15 -62.7 24.15 -65.4 21.6 -68.15 19.05 -68.1 14.9 -68.1 11.7 -65.65 9.15 -62.85 6.25 -58.65 6.25 M-26.3 16.95 L-23.6 16.95 -24.95 11.85 -26.3 16.95 M-40.35 6.25 L-39.3 6.3 -38.2 6.45 -37.85 5.85 -33.5 7.45 -36.05 13.15 Q-36.75 12.5 -37.7 12.05 -38.8 11.55 -39.55 11.55 -41.0 11.55 -42.15 12.55 -43.25 13.55 -43.2 14.95 L-42.95 16.45 -42.2 17.65 -41.05 18.4 -39.55 18.7 Q-37.8 18.7 -36.1 16.95 L-33.75 21.9 Q-36.15 24.05 -39.7 24.1 -43.5 24.1 -46.2 21.55 -48.95 18.95 -48.9 15.25 -48.95 12.25 -46.75 9.5 -44.2 6.25 -40.35 6.25 M-29.8 6.6 L-21.2 6.6 -16.3 23.9 -22.0 23.9 -22.5 21.5 -27.4 21.5 -28.1 23.9 -33.65 23.9 -30.3 11.25 -31.5 11.25 -29.8 6.6 M-9.05 14.5 Q-7.25 14.5 -7.2 13.1 -7.25 11.65 -9.05 11.65 L-10.4 11.65 -10.4 14.5 -9.05 14.5 M-8.05 6.6 Q-5.3 6.6 -3.55 8.35 -2.1 9.75 -1.8 11.85 L-1.75 12.85 Q-1.8 16.5 -4.6 18.35 L-1.6 23.9 -8.05 23.9 -10.4 18.8 -10.4 23.9 -15.8 23.9 -15.8 11.7 -17.0 11.7 -15.8 6.6 -8.05 6.6 M12.05 5.9 L10.65 12.0 5.2 12.0 5.2 13.0 11.6 13.0 10.35 17.4 5.2 17.4 5.2 18.5 11.45 18.5 10.2 23.9 -0.2 23.9 -0.2 11.85 -1.4 11.85 -0.2 6.6 7.0 6.6 7.2 5.9 12.05 5.9 M24.65 6.6 L28.45 8.6 24.55 12.7 23.65 12.25 Q22.5 11.75 21.6 11.8 20.0 11.75 19.0 12.8 17.95 13.75 17.95 15.35 17.95 16.95 19.1 17.95 20.2 18.85 21.85 18.85 23.35 18.85 24.25 17.65 L21.4 17.65 22.55 13.15 30.65 13.15 30.75 14.2 30.8 14.6 30.8 14.9 Q30.75 18.6 28.15 21.4 25.5 24.2 21.8 24.2 17.85 24.2 15.2 21.6 12.5 19.05 12.5 15.05 12.5 11.25 15.55 8.6 18.15 6.2 21.4 6.2 23.1 6.2 24.3 6.9 L24.65 6.6 M38.85 11.65 L37.5 11.65 37.5 14.5 38.85 14.5 Q40.65 14.5 40.65 13.1 40.65 11.65 38.85 11.65 M53.5 16.95 L56.2 16.95 54.9 11.85 53.5 16.95 M48.3 11.25 L50.0 6.6 58.6 6.6 63.5 23.9 57.8 23.9 57.3 21.5 52.4 21.5 51.7 23.9 39.85 23.9 37.5 18.8 37.5 23.9 32.1 23.9 32.1 11.7 30.9 11.7 32.1 6.6 39.85 6.6 Q42.6 6.6 44.35 8.35 46.15 10.1 46.15 12.85 46.1 16.5 43.3 18.35 L46.2 23.7 49.55 11.25 48.3 11.25 M74.45 11.8 L71.25 11.8 71.25 23.9 65.85 23.9 65.85 11.7 62.7 11.7 63.85 6.6 70.8 6.6 70.9 5.9 75.8 5.9 74.45 11.8 M81.9 6.6 L81.9 23.9 76.5 23.9 76.5 11.7 75.3 11.7 76.55 6.6 81.9 6.6 M91.2 6.45 L91.4 5.85 95.95 6.7 94.4 12.25 Q93.6 11.75 92.4 11.4 91.1 10.9 90.4 10.9 89.2 10.9 89.2 11.7 89.2 12.2 91.0 12.85 93.25 13.65 94.3 14.4 96.1 15.85 96.1 18.3 96.1 21.1 94.1 22.75 92.25 24.25 89.3 24.25 86.3 24.25 83.3 22.6 L84.65 17.6 86.9 18.55 89.25 19.1 Q90.4 19.1 90.4 18.3 90.4 17.65 88.55 17.05 86.2 16.25 85.2 15.5 83.35 14.1 83.35 11.65 83.35 9.1 85.05 7.65 86.6 6.3 89.2 6.3 L90.0 6.3 90.45 6.3 91.2 6.45 M103.2 21.5 Q103.15 22.7 102.3 23.55 101.45 24.35 100.3 24.35 L99.15 24.2 98.25 23.55 97.6 22.65 97.35 21.5 97.6 20.35 98.25 19.45 99.15 18.8 100.3 18.6 Q101.45 18.6 102.3 19.5 103.15 20.25 103.2 21.5 M103.6 11.7 L104.85 6.6 110.2 6.6 110.2 23.9 104.8 23.9 104.8 11.7 103.6 11.7 M123.9 5.9 L122.5 11.8 119.35 11.8 119.35 23.9 113.95 23.9 113.95 11.7 110.75 11.7 111.9 6.6 118.85 6.6 119.0 5.9 123.9 5.9" fill="url(#gradient0)" fill-rule="evenodd" stroke="none"/>
  </g>
  <defs>
    <linearGradient gradientTransform="matrix(0.0, 0.0107, -0.1331, 0.0, 14.8, 15.1)" gradientUnits="userSpaceOnUse" id="gradient0" spreadMethod="pad" x1="-819.2" x2="819.2">
      <stop offset="0.0" stop-color="#ffc234"/>
      <stop offset="0.7215686274509804" stop-color="#ff3930"/>
    </linearGradient>
  </defs>
</svg>
