<?xml version="1.0" encoding="UTF-8" standalone="no"?>
<svg xmlns:ffdec="https://www.free-decompiler.com/flash" xmlns:xlink="http://www.w3.org/1999/xlink" ffdec:objectType="shape" height="20.35px" width="92.3px" xmlns="http://www.w3.org/2000/svg">
  <g transform="matrix(1.0, 0.0, 0.0, 1.0, 44.45, 10.65)">
    <path d="M4.7 -7.15 L4.7 3.1 11.05 3.1 11.35 3.35 11.35 6.05 11.05 6.3 0.1 6.3 -0.15 6.05 -0.3 -7.05 0.0 -7.3 4.4 -7.4 4.7 -7.15 M29.4 -6.95 Q31.3 -6.25 32.4 -5.1 L32.5 -4.95 32.4 -4.8 29.65 -2.1 Q29.6 -2.0 29.45 -2.0 L29.3 -2.1 Q26.95 -3.5 25.1 -3.5 24.0 -3.5 24.0 -2.9 24.0 -2.45 26.15 -1.8 29.0 -0.9 30.15 -0.2 32.35 1.05 32.35 2.9 32.35 5.25 30.1 6.35 28.35 7.2 25.4 7.2 23.6 7.2 21.8 6.5 19.95 5.8 18.85 4.7 L18.75 4.5 18.85 4.35 21.55 1.75 21.8 1.7 23.3 2.4 Q24.9 3.15 26.0 3.15 27.25 3.15 27.25 2.45 27.25 1.95 25.1 1.4 22.25 0.7 21.05 0.0 18.9 -1.25 18.9 -3.35 18.9 -5.2 21.35 -6.5 23.5 -7.6 25.8 -7.6 27.6 -7.6 29.4 -6.95 M38.55 -2.2 L43.75 -2.2 Q44.05 -2.2 44.05 -2.0 L44.05 0.75 43.75 1.0 38.55 1.0 38.55 3.1 45.1 3.1 45.35 3.35 45.35 6.05 45.1 6.3 33.95 6.3 33.65 6.05 33.65 -7.45 33.9 -7.7 45.1 -7.7 45.35 -7.45 45.35 -4.75 45.1 -4.5 38.6 -4.5 38.55 -2.2 M17.65 5.45 Q17.65 6.15 16.65 6.55 L14.95 6.85 13.15 6.55 Q12.15 6.1 12.15 5.4 12.15 4.75 13.2 4.35 L14.9 4.0 16.65 4.35 Q17.65 4.75 17.65 5.45 M-34.9 -7.6 L-31.3 -6.95 Q-29.4 -6.25 -28.3 -5.1 L-28.2 -4.95 -28.3 -4.8 -31.05 -2.1 Q-31.1 -2.0 -31.25 -2.0 L-31.4 -2.1 Q-33.75 -3.5 -35.6 -3.5 -36.7 -3.5 -36.7 -2.9 -36.7 -2.45 -34.55 -1.8 -31.7 -0.9 -30.55 -0.2 -28.35 1.05 -28.35 2.9 -28.35 5.25 -30.6 6.35 -32.35 7.2 -35.3 7.2 -37.1 7.2 -38.9 6.5 -40.75 5.8 -41.85 4.7 L-41.95 4.5 -41.85 4.35 -39.15 1.75 -38.9 1.7 -37.4 2.4 Q-35.8 3.15 -34.7 3.15 -33.45 3.15 -33.45 2.45 -33.45 1.95 -35.6 1.4 -38.45 0.7 -39.65 0.0 -41.8 -1.25 -41.8 -3.35 -41.8 -5.2 -39.35 -6.5 -37.2 -7.6 -34.9 -7.6 M-21.1 -7.9 Q-17.65 -7.5 -16.05 -6.4 -14.1 -5.05 -14.1 -2.3 -14.1 0.3 -16.5 1.85 -18.7 3.25 -21.85 3.35 L-21.9 6.35 -22.15 6.6 -26.7 6.85 -27.0 6.6 -27.1 -7.9 -26.8 -8.15 -21.1 -7.9 M-19.5 -3.6 Q-20.35 -4.1 -21.7 -4.1 L-21.75 0.1 Q-18.6 -0.15 -18.6 -1.9 -18.6 -3.05 -19.5 -3.6 M-12.9 -7.7 L-1.7 -7.7 -1.45 -7.45 -1.45 -4.75 Q-1.45 -4.5 -1.7 -4.5 L-8.2 -4.5 -8.25 -2.2 -3.05 -2.2 Q-2.75 -2.2 -2.75 -2.0 L-2.75 0.75 -3.05 1.0 -8.25 1.0 -8.25 3.1 -1.7 3.1 Q-1.45 3.1 -1.45 3.35 L-1.45 6.05 -1.7 6.3 -12.85 6.3 -13.15 6.05 -13.15 -7.45 -12.9 -7.7" fill="url(#gradient0)" fill-rule="evenodd" stroke="none"/>
    <path d="M4.7 -7.15 L4.7 3.1 11.05 3.1 11.35 3.35 11.35 6.05 11.05 6.3 0.1 6.3 -0.15 6.05 -0.3 -7.05 0.0 -7.3 4.4 -7.4 4.7 -7.15 M29.4 -6.95 Q31.3 -6.25 32.4 -5.1 L32.5 -4.95 32.4 -4.8 29.65 -2.1 Q29.6 -2.0 29.45 -2.0 L29.3 -2.1 Q26.95 -3.5 25.1 -3.5 24.0 -3.5 24.0 -2.9 24.0 -2.45 26.15 -1.8 29.0 -0.9 30.15 -0.2 32.35 1.05 32.35 2.9 32.35 5.25 30.1 6.35 28.35 7.2 25.4 7.2 23.6 7.2 21.8 6.5 19.95 5.8 18.85 4.7 L18.75 4.5 18.85 4.35 21.55 1.75 21.8 1.7 23.3 2.4 Q24.9 3.15 26.0 3.15 27.25 3.15 27.25 2.45 27.25 1.95 25.1 1.4 22.25 0.7 21.05 0.0 18.9 -1.25 18.9 -3.35 18.9 -5.2 21.35 -6.5 23.5 -7.6 25.8 -7.6 27.6 -7.6 29.4 -6.95 M38.55 -2.2 L43.75 -2.2 Q44.05 -2.2 44.05 -2.0 L44.05 0.75 43.75 1.0 38.55 1.0 38.55 3.1 45.1 3.1 45.35 3.35 45.35 6.05 45.1 6.3 33.95 6.3 33.65 6.05 33.65 -7.45 33.9 -7.7 45.1 -7.7 45.35 -7.45 45.35 -4.75 45.1 -4.5 38.6 -4.5 38.55 -2.2 M17.65 5.45 Q17.65 6.15 16.65 6.55 L14.95 6.85 13.15 6.55 Q12.15 6.1 12.15 5.4 12.15 4.75 13.2 4.35 L14.9 4.0 16.65 4.35 Q17.65 4.75 17.65 5.45 M-34.9 -7.6 L-31.3 -6.95 Q-29.4 -6.25 -28.3 -5.1 L-28.2 -4.95 -28.3 -4.8 -31.05 -2.1 Q-31.1 -2.0 -31.25 -2.0 L-31.4 -2.1 Q-33.75 -3.5 -35.6 -3.5 -36.7 -3.5 -36.7 -2.9 -36.7 -2.45 -34.55 -1.8 -31.7 -0.9 -30.55 -0.2 -28.35 1.05 -28.35 2.9 -28.35 5.25 -30.6 6.35 -32.35 7.2 -35.3 7.2 -37.1 7.2 -38.9 6.5 -40.75 5.8 -41.85 4.7 L-41.95 4.5 -41.85 4.35 -39.15 1.75 -38.9 1.7 -37.4 2.4 Q-35.8 3.15 -34.7 3.15 -33.45 3.15 -33.45 2.45 -33.45 1.95 -35.6 1.4 -38.45 0.7 -39.65 0.0 -41.8 -1.25 -41.8 -3.35 -41.8 -5.2 -39.35 -6.5 -37.2 -7.6 -34.9 -7.6 M-21.1 -7.9 Q-17.65 -7.5 -16.05 -6.4 -14.1 -5.05 -14.1 -2.3 -14.1 0.3 -16.5 1.85 -18.7 3.25 -21.85 3.35 L-21.9 6.35 -22.15 6.6 -26.7 6.85 -27.0 6.6 -27.1 -7.9 -26.8 -8.15 -21.1 -7.9 M-19.5 -3.6 Q-20.35 -4.1 -21.7 -4.1 L-21.75 0.1 Q-18.6 -0.15 -18.6 -1.9 -18.6 -3.05 -19.5 -3.6 M-12.9 -7.7 L-1.7 -7.7 -1.45 -7.45 -1.45 -4.75 Q-1.45 -4.5 -1.7 -4.5 L-8.2 -4.5 -8.25 -2.2 -3.05 -2.2 Q-2.75 -2.2 -2.75 -2.0 L-2.75 0.75 -3.05 1.0 -8.25 1.0 -8.25 3.1 -1.7 3.1 Q-1.45 3.1 -1.45 3.35 L-1.45 6.05 -1.7 6.3 -12.85 6.3 -13.15 6.05 -13.15 -7.45 -12.9 -7.7 Z" fill="none" stroke="url(#gradient1)" stroke-linecap="round" stroke-linejoin="round" stroke-width="5.0"/>
    <path d="M4.45 -7.15 L4.45 3.1 10.8 3.1 11.1 3.35 11.1 6.05 10.8 6.3 -0.15 6.3 -0.4 6.05 -0.55 -7.05 -0.25 -7.3 4.15 -7.4 4.45 -7.15 M23.75 -2.9 Q23.75 -2.45 25.9 -1.8 28.75 -0.9 29.9 -0.2 32.1 1.05 32.1 2.9 32.1 5.25 29.85 6.35 28.1 7.2 25.15 7.2 23.35 7.2 21.55 6.5 19.7 5.8 18.6 4.7 L18.5 4.5 18.6 4.35 21.3 1.75 21.55 1.7 23.05 2.4 Q24.65 3.15 25.75 3.15 27.0 3.15 27.0 2.45 27.0 1.95 24.85 1.4 22.0 0.7 20.8 0.0 18.65 -1.25 18.65 -3.35 18.65 -5.2 21.1 -6.5 23.25 -7.6 25.55 -7.6 L29.15 -6.95 Q31.05 -6.25 32.15 -5.1 L32.25 -4.95 32.15 -4.8 29.4 -2.1 29.2 -2.0 29.05 -2.1 Q26.7 -3.5 24.85 -3.5 23.75 -3.5 23.75 -2.9 M33.65 -7.7 L44.85 -7.7 45.1 -7.45 45.1 -4.75 44.85 -4.5 38.35 -4.5 38.3 -2.2 43.5 -2.2 Q43.8 -2.2 43.8 -2.0 L43.8 0.75 43.5 1.0 38.3 1.0 38.3 3.1 44.85 3.1 45.1 3.35 45.1 6.05 44.85 6.3 33.7 6.3 33.4 6.05 33.4 -7.45 33.65 -7.7 M17.4 5.45 Q17.4 6.15 16.4 6.55 L14.7 6.85 12.9 6.55 Q11.9 6.1 11.9 5.4 11.9 4.75 12.95 4.35 13.75 4.0 14.65 4.0 L16.4 4.35 Q17.4 4.75 17.4 5.45 M-36.95 -2.9 Q-36.95 -2.45 -34.8 -1.8 -31.95 -0.9 -30.8 -0.2 -28.6 1.05 -28.6 2.9 -28.6 5.25 -30.85 6.35 -32.6 7.2 -35.55 7.2 -37.35 7.2 -39.15 6.5 -41.0 5.8 -42.1 4.7 L-42.2 4.5 -42.1 4.35 -39.4 1.75 -39.15 1.7 -37.65 2.4 Q-36.05 3.15 -34.95 3.15 -33.7 3.15 -33.7 2.45 -33.7 1.95 -35.85 1.4 -38.7 0.7 -39.9 0.0 -42.05 -1.25 -42.05 -3.35 -42.05 -5.2 -39.6 -6.5 -37.45 -7.6 -35.15 -7.6 L-31.55 -6.95 Q-29.65 -6.25 -28.55 -5.1 L-28.45 -4.95 -28.55 -4.8 -31.3 -2.1 Q-31.35 -2.0 -31.5 -2.0 L-31.65 -2.1 Q-34.0 -3.5 -35.85 -3.5 -36.95 -3.5 -36.95 -2.9 M-27.05 -8.15 L-21.35 -7.9 Q-17.9 -7.5 -16.3 -6.4 -14.35 -5.05 -14.35 -2.3 -14.35 0.3 -16.75 1.85 -18.95 3.25 -22.1 3.35 L-22.15 6.35 -22.4 6.6 -26.95 6.85 Q-27.25 6.85 -27.25 6.6 L-27.35 -7.9 -27.05 -8.15 M-13.15 -7.7 L-1.95 -7.7 -1.7 -7.45 -1.7 -4.75 Q-1.7 -4.5 -1.95 -4.5 L-8.45 -4.5 -8.5 -2.2 -3.3 -2.2 Q-3.0 -2.2 -3.0 -2.0 L-3.0 0.75 -3.3 1.0 -8.5 1.0 -8.5 3.1 -1.95 3.1 Q-1.7 3.1 -1.7 3.35 L-1.7 6.05 -1.95 6.3 -13.1 6.3 -13.4 6.05 -13.4 -7.45 -13.15 -7.7 M-19.75 -3.6 Q-20.6 -4.1 -21.95 -4.1 L-22.0 0.1 Q-18.85 -0.15 -18.85 -1.9 -18.85 -3.05 -19.75 -3.6" fill="#ffffff" fill-rule="evenodd" stroke="none"/>
  </g>
  <defs>
    <linearGradient gradientTransform="matrix(0.0, 0.3346, -0.1207, 0.0, 1.6, 29.15)" gradientUnits="userSpaceOnUse" id="gradient0" spreadMethod="pad" x1="-819.2" x2="819.2">
      <stop offset="0.0" stop-color="#ffffff"/>
      <stop offset="1.0" stop-color="#000000"/>
    </linearGradient>
    <linearGradient gradientTransform="matrix(0.0, 0.0116, -0.0102, 0.0, 39.5, -0.7)" gradientUnits="userSpaceOnUse" id="gradient1" spreadMethod="pad" x1="-819.2" x2="819.2">
      <stop offset="0.23529411764705882" stop-color="#efa200"/>
      <stop offset="0.8313725490196079" stop-color="#a31b00"/>
    </linearGradient>
  </defs>
</svg>
