<?xml version="1.0" encoding="UTF-8" standalone="no"?>
<svg xmlns:ffdec="https://www.free-decompiler.com/flash" xmlns:xlink="http://www.w3.org/1999/xlink" ffdec:objectType="shape" height="20.65px" width="156.4px" xmlns="http://www.w3.org/2000/svg">
  <g transform="matrix(1.0, 0.0, 0.0, 1.0, 79.35, 16.1)">
    <path d="M18.6 -13.4 L19.25 -9.6 18.95 -9.35 18.45 -9.4 17.95 -9.4 Q15.35 -9.4 13.75 -8.55 11.8 -7.55 11.8 -5.5 11.8 -4.0 12.95 -3.2 14.0 -2.45 15.75 -2.45 17.7 -2.45 19.9 -3.6 L20.05 -3.65 Q20.35 -3.65 20.35 -3.45 L21.1 -0.15 21.05 0.0 Q20.25 0.8 18.5 1.25 L15.55 1.6 Q11.7 1.6 9.3 -0.3 6.85 -2.2 6.85 -5.5 6.85 -9.5 10.1 -11.65 13.1 -13.6 18.0 -13.6 L18.6 -13.4 M4.95 -0.95 Q5.95 -0.55 5.95 0.15 5.95 0.85 4.95 1.25 L3.25 1.55 1.45 1.25 Q0.45 0.8 0.45 0.1 0.45 -0.55 1.5 -0.95 L3.2 -1.3 4.95 -0.95 M27.65 -7.25 Q26.85 -6.25 26.85 -5.0 26.85 -3.8 27.65 -2.8 28.55 -1.7 29.95 -1.7 31.35 -1.7 32.25 -2.8 33.1 -3.8 33.1 -5.0 33.1 -6.25 32.25 -7.25 31.35 -8.35 29.95 -8.35 28.55 -8.35 27.65 -7.25 M24.3 -10.55 Q26.6 -12.8 30.4 -12.8 33.7 -12.8 35.8 -10.3 37.7 -8.05 37.7 -5.1 37.7 -2.25 35.7 -0.15 33.55 2.05 30.25 2.05 26.4 2.05 24.2 0.05 22.05 -1.9 22.05 -5.2 22.05 -8.4 24.3 -10.55 M50.45 -11.4 L50.25 -4.0 Q50.25 -1.7 52.0 -1.7 53.1 -1.7 53.5 -2.6 L53.75 -4.3 53.9 -11.5 54.15 -11.7 58.7 -11.8 58.95 -11.75 59.0 -11.6 58.8 -3.95 Q58.65 2.0 51.9 2.0 45.2 2.0 45.2 -3.75 L45.35 -11.65 45.65 -11.9 50.2 -11.65 50.45 -11.4 M43.1 -0.95 Q44.1 -0.55 44.1 0.15 44.1 0.85 43.1 1.25 L41.4 1.55 39.6 1.25 Q38.6 0.8 38.6 0.1 38.6 -0.55 39.65 -0.95 L41.35 -1.3 43.1 -0.95 M60.4 -12.45 L65.3 -12.45 65.5 -12.4 65.55 -12.2 65.5 -6.9 69.15 -12.1 69.4 -12.2 74.3 -12.1 74.55 -11.85 74.5 -11.7 69.8 -5.75 74.15 0.95 73.85 1.2 68.85 1.35 68.6 1.2 65.75 -3.9 65.45 -3.85 65.45 0.45 65.15 0.7 60.45 0.95 60.2 0.7 60.1 -12.2 60.4 -12.45 M-65.55 -12.55 L-61.9 1.5 -62.15 1.7 -66.7 1.65 -66.95 1.45 -67.5 -1.2 -71.2 -1.2 -71.75 1.1 -72.05 1.3 -76.55 1.3 -76.85 1.1 -76.85 1.0 -73.15 -12.55 Q-73.1 -12.75 -72.85 -12.75 L-65.8 -12.75 -65.55 -12.55 M-70.45 -4.4 L-68.2 -4.4 -69.25 -9.25 -70.45 -4.4 M-49.7 -13.4 L-49.05 -9.6 Q-49.0 -9.35 -49.35 -9.35 L-49.85 -9.4 -50.35 -9.4 Q-53.0 -9.4 -54.6 -8.5 -56.5 -7.5 -56.5 -5.35 -56.5 -2.35 -53.4 -2.35 L-52.1 -2.5 -52.15 -4.2 -54.25 -4.15 -54.45 -4.2 -54.55 -4.4 -54.45 -6.3 -54.2 -6.55 -47.75 -6.9 Q-47.4 -6.95 -47.4 -6.7 L-47.15 -0.2 -47.25 0.0 Q-48.05 0.75 -49.85 1.2 L-52.85 1.55 Q-56.7 1.55 -59.05 -0.3 -61.45 -2.25 -61.45 -5.5 -61.45 -9.5 -58.15 -11.65 -55.2 -13.6 -50.3 -13.6 -49.75 -13.6 -49.7 -13.4 M-42.5 -12.75 L-35.45 -12.75 Q-35.25 -12.75 -35.2 -12.55 L-31.55 1.5 -31.8 1.7 -36.35 1.65 -36.6 1.45 -37.15 -1.2 -40.85 -1.2 -41.4 1.1 -41.7 1.3 -46.2 1.3 -46.5 1.1 -46.5 1.0 -42.8 -12.55 Q-42.75 -12.75 -42.5 -12.75 M-25.35 -12.65 L-25.1 -12.5 -22.25 -5.1 -19.35 -12.5 -19.1 -12.65 -14.5 -12.7 -14.25 -12.45 -13.6 0.7 -13.85 0.95 -17.8 1.15 -18.1 0.9 -18.3 -6.85 -20.75 0.5 -21.0 0.7 -23.45 0.7 -23.7 0.5 -26.2 -6.85 -26.35 0.9 Q-26.35 1.2 -26.7 1.15 L-30.6 1.0 -30.9 0.75 -30.25 -12.45 Q-30.25 -12.7 -29.95 -12.7 L-25.35 -12.65 M-38.9 -9.25 L-40.1 -4.4 -37.85 -4.4 -38.9 -9.25 M-0.7 -12.75 L-0.7 -10.05 Q-0.7 -9.8 -0.95 -9.8 L-7.45 -9.8 -7.5 -7.5 -2.3 -7.5 Q-2.0 -7.5 -2.0 -7.3 L-2.0 -4.55 -2.3 -4.3 -7.5 -4.3 -7.5 -2.2 -0.95 -2.2 -0.7 -1.95 -0.7 0.75 -0.95 1.0 -12.1 1.0 -12.4 0.75 -12.4 -12.75 -12.15 -13.0 -0.95 -13.0 -0.7 -12.75 Z" fill="none" stroke="url(#gradient0)" stroke-linecap="round" stroke-linejoin="round" stroke-width="5.0"/>
    <path d="M18.65 -13.4 L19.3 -9.6 19.0 -9.35 18.5 -9.4 18.0 -9.4 Q15.4 -9.4 13.8 -8.55 11.85 -7.55 11.85 -5.5 11.85 -4.0 13.0 -3.2 14.05 -2.45 15.8 -2.45 17.75 -2.45 19.95 -3.6 L20.1 -3.65 Q20.4 -3.65 20.4 -3.45 L21.15 -0.15 21.1 0.0 Q20.3 0.8 18.55 1.25 L15.6 1.6 Q11.75 1.6 9.35 -0.3 6.9 -2.2 6.9 -5.5 6.9 -9.5 10.15 -11.65 13.15 -13.6 18.05 -13.6 18.6 -13.6 18.65 -13.4 M5.0 -0.95 Q6.0 -0.55 6.0 0.15 6.0 0.85 5.0 1.25 L3.3 1.55 1.5 1.25 Q0.5 0.8 0.5 0.1 0.5 -0.55 1.55 -0.95 L3.25 -1.3 5.0 -0.95 M27.7 -7.25 Q26.9 -6.25 26.9 -5.0 26.9 -3.8 27.7 -2.8 28.6 -1.7 30.0 -1.7 31.4 -1.7 32.3 -2.8 33.15 -3.8 33.15 -5.0 33.15 -6.25 32.3 -7.25 31.4 -8.35 30.0 -8.35 28.6 -8.35 27.7 -7.25 M24.35 -10.55 Q26.65 -12.8 30.45 -12.8 33.75 -12.8 35.85 -10.3 37.75 -8.05 37.75 -5.1 37.75 -2.25 35.75 -0.15 33.6 2.05 30.3 2.05 26.45 2.05 24.25 0.05 22.1 -1.9 22.1 -5.2 22.1 -8.4 24.35 -10.55 M43.15 -0.95 Q44.15 -0.55 44.15 0.15 44.15 0.85 43.15 1.25 L41.45 1.55 39.65 1.25 Q38.65 0.8 38.65 0.1 38.65 -0.55 39.7 -0.95 L41.4 -1.3 43.15 -0.95 M45.4 -11.65 L45.7 -11.9 50.25 -11.65 50.5 -11.4 50.3 -4.0 Q50.3 -1.7 52.05 -1.7 53.15 -1.7 53.55 -2.6 L53.8 -4.3 53.95 -11.5 54.2 -11.7 58.75 -11.8 59.0 -11.75 59.05 -11.6 58.85 -3.95 Q58.7 2.0 51.95 2.0 45.25 2.0 45.25 -3.75 L45.4 -11.65 M60.45 -12.45 L65.35 -12.45 65.55 -12.4 65.6 -12.2 65.55 -6.9 69.2 -12.1 69.45 -12.2 74.35 -12.1 74.6 -11.85 74.55 -11.7 69.85 -5.75 74.2 0.95 73.9 1.2 68.9 1.35 Q68.7 1.35 68.65 1.2 L65.8 -3.9 65.5 -3.85 65.5 0.45 65.2 0.7 60.5 0.95 60.25 0.7 60.15 -12.2 60.45 -12.45 M-68.15 -4.4 L-69.2 -9.25 -70.4 -4.4 -68.15 -4.4 M-72.8 -12.75 L-65.75 -12.75 -65.5 -12.55 -61.85 1.5 Q-61.85 1.7 -62.1 1.7 L-66.65 1.65 -66.9 1.45 -67.45 -1.2 -71.15 -1.2 -71.7 1.1 -72.0 1.3 -76.5 1.3 -76.8 1.1 -76.8 1.0 -73.1 -12.55 Q-73.05 -12.75 -72.8 -12.75 M-42.45 -12.75 L-35.4 -12.75 -35.15 -12.55 -31.5 1.5 -31.75 1.7 -36.3 1.65 -36.55 1.45 -37.1 -1.2 -40.8 -1.2 -41.35 1.1 -41.65 1.3 -46.15 1.3 -46.45 1.1 -46.45 1.0 -42.75 -12.55 Q-42.7 -12.75 -42.45 -12.75 M-49.65 -13.4 L-49.0 -9.6 Q-48.95 -9.35 -49.3 -9.35 L-49.8 -9.4 -50.3 -9.4 Q-52.95 -9.4 -54.55 -8.5 -56.45 -7.5 -56.45 -5.35 -56.45 -2.35 -53.35 -2.35 L-52.05 -2.5 -52.1 -4.2 -54.2 -4.15 -54.4 -4.2 -54.5 -4.4 -54.4 -6.3 -54.15 -6.55 -47.7 -6.9 Q-47.35 -6.95 -47.35 -6.7 L-47.1 -0.2 -47.2 0.0 Q-48.0 0.75 -49.8 1.2 L-52.8 1.55 Q-56.65 1.55 -59.0 -0.3 -61.4 -2.25 -61.4 -5.5 -61.4 -9.5 -58.1 -11.65 -55.15 -13.6 -50.25 -13.6 -49.7 -13.6 -49.65 -13.4 M-37.8 -4.4 L-38.85 -9.25 -40.05 -4.4 -37.8 -4.4 M-22.2 -5.1 L-19.3 -12.5 -19.05 -12.65 -14.45 -12.7 -14.2 -12.45 -13.55 0.7 -13.8 0.95 -17.75 1.15 -18.05 0.9 -18.25 -6.85 -20.7 0.5 -20.95 0.7 -23.4 0.7 -23.65 0.5 -26.15 -6.85 -26.3 0.9 Q-26.3 1.2 -26.65 1.15 L-30.55 1.0 -30.85 0.75 -30.2 -12.45 -29.9 -12.7 -25.3 -12.65 -25.05 -12.5 -22.2 -5.1 M-0.65 -12.75 L-0.65 -10.05 Q-0.65 -9.8 -0.9 -9.8 L-7.4 -9.8 -7.45 -7.5 -2.25 -7.5 Q-1.95 -7.5 -1.95 -7.3 L-1.95 -4.55 -2.25 -4.3 -7.45 -4.3 -7.45 -2.2 -0.9 -2.2 -0.65 -1.95 -0.65 0.75 -0.9 1.0 -12.05 1.0 -12.35 0.75 -12.35 -12.75 -12.1 -13.0 -0.9 -13.0 -0.65 -12.75" fill="#ffffff" fill-rule="evenodd" stroke="none"/>
  </g>
  <defs>
    <linearGradient gradientTransform="matrix(0.0, 0.0116, -0.0102, 0.0, -6.55, -6.0)" gradientUnits="userSpaceOnUse" id="gradient0" spreadMethod="pad" x1="-819.2" x2="819.2">
      <stop offset="0.23529411764705882" stop-color="#efa200"/>
      <stop offset="0.8470588235294118" stop-color="#a31b00"/>
    </linearGradient>
  </defs>
</svg>
