<?xml version="1.0" encoding="UTF-8" standalone="no"?>
<svg xmlns:ffdec="https://www.free-decompiler.com/flash" xmlns:xlink="http://www.w3.org/1999/xlink" ffdec:objectType="shape" height="20.6px" width="186.65px" xmlns="http://www.w3.org/2000/svg">
  <g transform="matrix(1.0, 0.0, 0.0, 1.0, 89.6, 9.75)">
    <path d="M1.65 -6.4 L8.7 -6.4 8.95 -6.2 12.6 7.85 12.35 8.05 7.8 8.0 7.55 7.8 7.0 5.15 3.3 5.15 2.75 7.45 2.45 7.65 -2.05 7.65 -2.35 7.45 -2.35 7.35 1.35 -6.2 Q1.4 -6.4 1.65 -6.4 M18.8 -6.3 L19.05 -6.15 21.9 1.25 24.8 -6.15 Q24.85 -6.3 25.05 -6.3 L29.65 -6.35 29.9 -6.1 30.55 7.05 30.3 7.3 26.35 7.5 Q26.05 7.5 26.05 7.25 L25.85 -0.5 23.4 6.85 23.15 7.05 20.7 7.05 20.45 6.85 17.95 -0.5 17.8 7.25 Q17.8 7.55 17.45 7.5 L13.55 7.35 13.25 7.1 13.9 -6.1 14.2 -6.35 18.8 -6.3 M36.65 -1.15 L41.85 -1.15 Q42.15 -1.15 42.15 -0.95 L42.15 1.8 41.85 2.05 36.65 2.05 36.65 4.15 43.2 4.15 43.45 4.4 43.45 7.1 43.2 7.35 32.05 7.35 31.75 7.1 31.75 -6.4 32.0 -6.65 43.2 -6.65 43.45 -6.4 43.45 -3.7 43.2 -3.45 36.7 -3.45 36.65 -1.15 M47.2 -5.45 Q49.35 -6.55 51.65 -6.55 L55.25 -5.9 Q57.15 -5.2 58.25 -4.05 L58.35 -3.9 58.25 -3.75 55.5 -1.05 55.3 -0.95 55.15 -1.05 Q52.8 -2.45 50.95 -2.45 49.85 -2.45 49.85 -1.85 49.85 -1.4 52.0 -0.75 54.85 0.15 56.0 0.85 58.2 2.1 58.2 3.95 58.2 6.3 55.95 7.4 54.2 8.25 51.25 8.25 L47.65 7.55 Q45.8 6.85 44.7 5.75 L44.6 5.55 44.7 5.4 47.4 2.8 47.65 2.75 49.15 3.45 Q50.75 4.2 51.85 4.2 53.1 4.2 53.1 3.5 53.1 3.0 50.95 2.45 48.1 1.75 46.9 1.05 44.75 -0.2 44.75 -2.3 44.75 -4.15 47.2 -5.45 M71.3 -2.55 L71.2 1.45 Q73.8 1.1 73.8 -0.65 73.8 -1.5 73.0 -2.0 72.3 -2.5 71.3 -2.55 M77.15 -4.6 Q78.65 -3.15 78.65 -1.25 78.65 0.1 77.9 1.3 77.15 2.5 75.85 3.3 L79.55 7.5 79.65 7.65 79.35 7.9 74.7 8.05 74.45 7.95 71.15 4.2 71.1 7.55 70.85 7.75 66.45 8.0 66.15 7.75 66.05 -6.15 66.3 -6.35 70.1 -6.65 Q75.1 -6.65 77.15 -4.6 M94.25 -5.45 L94.5 -5.4 94.55 -5.25 94.35 2.4 Q94.2 8.35 87.45 8.35 80.75 8.35 80.75 2.6 L80.9 -5.3 81.2 -5.55 85.75 -5.3 86.0 -5.05 85.8 2.35 Q85.8 4.65 87.55 4.65 88.65 4.65 89.05 3.75 L89.3 2.05 89.45 -5.15 Q89.45 -5.35 89.7 -5.35 L94.25 -5.45 M62.25 7.9 L60.45 7.6 Q59.45 7.15 59.45 6.45 59.45 5.8 60.5 5.4 61.3 5.05 62.2 5.05 L63.95 5.4 Q64.95 5.8 64.95 6.5 64.95 7.2 63.95 7.6 L62.25 7.9 M6.3 1.95 L5.25 -2.9 4.05 1.95 6.3 1.95 M-82.05 -0.7 L-76.9 -0.65 -76.6 -0.4 -76.65 2.3 -76.95 2.55 -82.15 2.5 -82.15 7.55 -82.45 7.8 -86.8 7.8 -87.1 7.55 -86.95 -5.95 -86.7 -6.2 -75.5 -6.15 Q-75.2 -6.15 -75.2 -5.85 L-75.25 -3.15 -75.55 -2.9 -82.0 -2.95 -82.05 -0.7 M-69.75 -6.35 L-69.45 -6.1 -69.45 4.15 -63.1 4.15 Q-62.8 4.15 -62.8 4.4 L-62.8 7.1 Q-62.8 7.35 -63.1 7.35 L-74.05 7.35 -74.3 7.1 -74.45 -6.0 -74.15 -6.25 -69.75 -6.35 M-58.45 -6.4 L-51.4 -6.4 -51.15 -6.2 -47.5 7.85 -47.75 8.05 -52.3 8.0 -52.55 7.8 -53.1 5.15 -56.8 5.15 -57.35 7.45 -57.65 7.65 -62.15 7.65 -62.45 7.45 -62.45 7.35 -58.75 -6.2 Q-58.7 -6.4 -58.45 -6.4 M-44.25 -5.45 Q-42.1 -6.55 -39.8 -6.55 L-36.2 -5.9 Q-34.3 -5.2 -33.2 -4.05 L-33.1 -3.9 -33.2 -3.75 -35.95 -1.05 Q-36.0 -0.95 -36.15 -0.95 L-36.3 -1.05 Q-38.65 -2.45 -40.5 -2.45 -41.6 -2.45 -41.6 -1.85 -41.6 -1.4 -39.45 -0.75 -36.6 0.15 -35.45 0.85 -33.25 2.1 -33.25 3.95 -33.25 6.3 -35.5 7.4 -37.25 8.25 -40.2 8.25 -42.0 8.25 -43.8 7.55 -45.65 6.85 -46.75 5.75 L-46.85 5.55 -46.75 5.4 -44.05 2.8 -43.8 2.75 -42.3 3.45 Q-40.7 4.2 -39.6 4.2 -38.35 4.2 -38.35 3.5 -38.35 3.0 -40.5 2.45 -43.35 1.75 -44.55 1.05 -46.7 -0.2 -46.7 -2.3 -46.7 -4.15 -44.25 -5.45 M-31.7 -6.65 L-27.25 -6.65 -26.95 -6.4 -27.05 -0.55 -23.2 -0.55 -23.2 -6.4 -22.95 -6.65 -18.5 -6.65 Q-18.2 -6.6 -18.25 -6.4 L-18.35 6.95 -18.65 7.2 -22.95 7.35 -23.2 7.1 -23.2 2.65 -27.05 2.65 -27.15 6.95 -27.4 7.2 -31.65 7.35 -31.95 7.1 -31.95 -6.4 -31.7 -6.65 M-5.55 -7.05 L-4.9 -3.25 Q-4.85 -3.0 -5.2 -3.0 L-5.7 -3.05 -6.2 -3.05 Q-8.85 -3.05 -10.45 -2.15 -12.35 -1.15 -12.35 1.0 -12.35 4.0 -9.25 4.0 L-7.95 3.85 -8.0 2.15 -10.1 2.2 -10.3 2.15 -10.4 1.95 -10.3 0.05 -10.05 -0.2 -3.6 -0.55 Q-3.25 -0.6 -3.25 -0.35 L-3.0 6.15 -3.1 6.35 Q-3.9 7.1 -5.7 7.55 L-8.7 7.9 Q-12.55 7.9 -14.9 6.05 -17.3 4.1 -17.3 0.85 -17.3 -3.15 -14.0 -5.3 -11.05 -7.25 -6.15 -7.25 -5.6 -7.25 -5.55 -7.05 M-53.8 1.95 L-54.85 -2.9 -56.05 1.95 -53.8 1.95" fill="url(#gradient0)" fill-rule="evenodd" stroke="none"/>
    <path d="M1.65 -6.4 L8.7 -6.4 8.95 -6.2 12.6 7.85 12.35 8.05 7.8 8.0 7.55 7.8 7.0 5.15 3.3 5.15 2.75 7.45 2.45 7.65 -2.05 7.65 -2.35 7.45 -2.35 7.35 1.35 -6.2 Q1.4 -6.4 1.65 -6.4 M18.8 -6.3 L19.05 -6.15 21.9 1.25 24.8 -6.15 Q24.85 -6.3 25.05 -6.3 L29.65 -6.35 29.9 -6.1 30.55 7.05 30.3 7.3 26.35 7.5 Q26.05 7.5 26.05 7.25 L25.85 -0.5 23.4 6.85 23.15 7.05 20.7 7.05 20.45 6.85 17.95 -0.5 17.8 7.25 Q17.8 7.55 17.45 7.5 L13.55 7.35 13.25 7.1 13.9 -6.1 14.2 -6.35 18.8 -6.3 M36.65 -1.15 L41.85 -1.15 Q42.15 -1.15 42.15 -0.95 L42.15 1.8 41.85 2.05 36.65 2.05 36.65 4.15 43.2 4.15 43.45 4.4 43.45 7.1 43.2 7.35 32.05 7.35 31.75 7.1 31.75 -6.4 32.0 -6.65 43.2 -6.65 43.45 -6.4 43.45 -3.7 43.2 -3.45 36.7 -3.45 36.65 -1.15 M47.2 -5.45 Q49.35 -6.55 51.65 -6.55 L55.25 -5.9 Q57.15 -5.2 58.25 -4.05 L58.35 -3.9 58.25 -3.75 55.5 -1.05 55.3 -0.95 55.15 -1.05 Q52.8 -2.45 50.95 -2.45 49.85 -2.45 49.85 -1.85 49.85 -1.4 52.0 -0.75 54.85 0.15 56.0 0.85 58.2 2.1 58.2 3.95 58.2 6.3 55.95 7.4 54.2 8.25 51.25 8.25 L47.65 7.55 Q45.8 6.85 44.7 5.75 L44.6 5.55 44.7 5.4 47.4 2.8 47.65 2.75 49.15 3.45 Q50.75 4.2 51.85 4.2 53.1 4.2 53.1 3.5 53.1 3.0 50.95 2.45 48.1 1.75 46.9 1.05 44.75 -0.2 44.75 -2.3 44.75 -4.15 47.2 -5.45 M71.3 -2.55 L71.2 1.45 Q73.8 1.1 73.8 -0.65 73.8 -1.5 73.0 -2.0 72.3 -2.5 71.3 -2.55 M77.15 -4.6 Q78.65 -3.15 78.65 -1.25 78.65 0.1 77.9 1.3 77.15 2.5 75.85 3.3 L79.55 7.5 79.65 7.65 79.35 7.9 74.7 8.05 74.45 7.95 71.15 4.2 71.1 7.55 70.85 7.75 66.45 8.0 66.15 7.75 66.05 -6.15 66.3 -6.35 70.1 -6.65 Q75.1 -6.65 77.15 -4.6 M94.25 -5.45 L94.5 -5.4 94.55 -5.25 94.35 2.4 Q94.2 8.35 87.45 8.35 80.75 8.35 80.75 2.6 L80.9 -5.3 81.2 -5.55 85.75 -5.3 86.0 -5.05 85.8 2.35 Q85.8 4.65 87.55 4.65 88.65 4.65 89.05 3.75 L89.3 2.05 89.45 -5.15 Q89.45 -5.35 89.7 -5.35 L94.25 -5.45 M62.25 7.9 L60.45 7.6 Q59.45 7.15 59.45 6.45 59.45 5.8 60.5 5.4 61.3 5.05 62.2 5.05 L63.95 5.4 Q64.95 5.8 64.95 6.5 64.95 7.2 63.95 7.6 L62.25 7.9 M6.3 1.95 L5.25 -2.9 4.05 1.95 6.3 1.95 M-82.05 -0.7 L-76.9 -0.65 -76.6 -0.4 -76.65 2.3 -76.95 2.55 -82.15 2.5 -82.15 7.55 -82.45 7.8 -86.8 7.8 -87.1 7.55 -86.95 -5.95 -86.7 -6.2 -75.5 -6.15 Q-75.2 -6.15 -75.2 -5.85 L-75.25 -3.15 -75.55 -2.9 -82.0 -2.95 -82.05 -0.7 M-69.75 -6.35 L-69.45 -6.1 -69.45 4.15 -63.1 4.15 Q-62.8 4.15 -62.8 4.4 L-62.8 7.1 Q-62.8 7.35 -63.1 7.35 L-74.05 7.35 -74.3 7.1 -74.45 -6.0 -74.15 -6.25 -69.75 -6.35 M-58.45 -6.4 L-51.4 -6.4 -51.15 -6.2 -47.5 7.85 -47.75 8.05 -52.3 8.0 -52.55 7.8 -53.1 5.15 -56.8 5.15 -57.35 7.45 -57.65 7.65 -62.15 7.65 -62.45 7.45 -62.45 7.35 -58.75 -6.2 Q-58.7 -6.4 -58.45 -6.4 M-44.25 -5.45 Q-42.1 -6.55 -39.8 -6.55 L-36.2 -5.9 Q-34.3 -5.2 -33.2 -4.05 L-33.1 -3.9 -33.2 -3.75 -35.95 -1.05 Q-36.0 -0.95 -36.15 -0.95 L-36.3 -1.05 Q-38.65 -2.45 -40.5 -2.45 -41.6 -2.45 -41.6 -1.85 -41.6 -1.4 -39.45 -0.75 -36.6 0.15 -35.45 0.85 -33.25 2.1 -33.25 3.95 -33.25 6.3 -35.5 7.4 -37.25 8.25 -40.2 8.25 -42.0 8.25 -43.8 7.55 -45.65 6.85 -46.75 5.75 L-46.85 5.55 -46.75 5.4 -44.05 2.8 -43.8 2.75 -42.3 3.45 Q-40.7 4.2 -39.6 4.2 -38.35 4.2 -38.35 3.5 -38.35 3.0 -40.5 2.45 -43.35 1.75 -44.55 1.05 -46.7 -0.2 -46.7 -2.3 -46.7 -4.15 -44.25 -5.45 M-31.7 -6.65 L-27.25 -6.65 -26.95 -6.4 -27.05 -0.55 -23.2 -0.55 -23.2 -6.4 -22.95 -6.65 -18.5 -6.65 Q-18.2 -6.6 -18.25 -6.4 L-18.35 6.95 -18.65 7.2 -22.95 7.35 -23.2 7.1 -23.2 2.65 -27.05 2.65 -27.15 6.95 -27.4 7.2 -31.65 7.35 -31.95 7.1 -31.95 -6.4 -31.7 -6.65 M-5.55 -7.05 L-4.9 -3.25 Q-4.85 -3.0 -5.2 -3.0 L-5.7 -3.05 -6.2 -3.05 Q-8.85 -3.05 -10.45 -2.15 -12.35 -1.15 -12.35 1.0 -12.35 4.0 -9.25 4.0 L-7.95 3.85 -8.0 2.15 -10.1 2.2 -10.3 2.15 -10.4 1.95 -10.3 0.05 -10.05 -0.2 -3.6 -0.55 Q-3.25 -0.6 -3.25 -0.35 L-3.0 6.15 -3.1 6.35 Q-3.9 7.1 -5.7 7.55 L-8.7 7.9 Q-12.55 7.9 -14.9 6.05 -17.3 4.1 -17.3 0.85 -17.3 -3.15 -14.0 -5.3 -11.05 -7.25 -6.15 -7.25 -5.6 -7.25 -5.55 -7.05 M-53.8 1.95 L-54.85 -2.9 -56.05 1.95 -53.8 1.95 Z" fill="none" stroke="url(#gradient1)" stroke-linecap="round" stroke-linejoin="round" stroke-width="5.0"/>
    <path d="M1.4 -6.4 L8.45 -6.4 8.7 -6.2 12.35 7.85 12.1 8.05 7.55 8.0 7.3 7.8 6.75 5.15 3.05 5.15 2.5 7.45 2.2 7.65 -2.3 7.65 -2.6 7.45 -2.6 7.35 1.1 -6.2 Q1.15 -6.4 1.4 -6.4 M18.8 -6.15 L21.65 1.25 24.55 -6.15 Q24.6 -6.3 24.8 -6.3 L29.4 -6.35 29.65 -6.1 30.3 7.05 30.05 7.3 26.1 7.5 Q25.8 7.5 25.8 7.25 L25.6 -0.5 23.15 6.85 22.9 7.05 20.45 7.05 20.2 6.85 17.7 -0.5 17.55 7.25 Q17.55 7.55 17.2 7.5 L13.3 7.35 13.0 7.1 13.65 -6.1 13.95 -6.35 18.55 -6.3 18.8 -6.15 M36.4 -1.15 L41.6 -1.15 Q41.9 -1.15 41.9 -0.95 L41.9 1.8 41.6 2.05 36.4 2.05 36.4 4.15 42.95 4.15 43.2 4.4 43.2 7.1 42.95 7.35 31.8 7.35 31.5 7.1 31.5 -6.4 31.75 -6.65 42.95 -6.65 43.2 -6.4 43.2 -3.7 42.95 -3.45 36.45 -3.45 36.4 -1.15 M46.95 -5.45 Q49.1 -6.55 51.4 -6.55 L55.0 -5.9 Q56.9 -5.2 58.0 -4.05 L58.1 -3.9 58.0 -3.75 55.25 -1.05 Q55.2 -0.95 55.05 -0.95 L54.9 -1.05 Q52.55 -2.45 50.7 -2.45 49.6 -2.45 49.6 -1.85 49.6 -1.4 51.75 -0.75 54.6 0.15 55.75 0.85 57.95 2.1 57.95 3.95 57.95 6.3 55.7 7.4 53.95 8.25 51.0 8.25 49.2 8.25 47.4 7.55 45.55 6.85 44.45 5.75 L44.35 5.55 44.45 5.4 47.15 2.8 47.4 2.75 48.9 3.45 Q50.5 4.2 51.6 4.2 52.85 4.2 52.85 3.5 52.85 3.0 50.7 2.45 47.85 1.75 46.65 1.05 44.5 -0.2 44.5 -2.3 44.5 -4.15 46.95 -5.45 M78.4 -1.25 Q78.4 0.1 77.65 1.3 76.9 2.5 75.6 3.3 L79.3 7.5 79.4 7.65 79.1 7.9 74.45 8.05 74.2 7.95 70.9 4.2 70.85 7.55 70.6 7.75 66.2 8.0 65.9 7.75 65.8 -6.15 Q65.8 -6.3 66.05 -6.35 L69.85 -6.65 Q74.85 -6.65 76.9 -4.6 78.4 -3.15 78.4 -1.25 M80.95 -5.55 L85.5 -5.3 85.75 -5.05 85.55 2.35 Q85.55 4.65 87.3 4.65 88.4 4.65 88.8 3.75 L89.05 2.05 89.2 -5.15 Q89.2 -5.35 89.45 -5.35 L94.0 -5.45 94.25 -5.4 94.3 -5.25 94.1 2.4 Q93.95 8.35 87.2 8.35 80.5 8.35 80.5 2.6 L80.65 -5.3 80.95 -5.55 M72.75 -2.0 L71.05 -2.55 70.95 1.45 Q73.55 1.1 73.55 -0.65 73.55 -1.5 72.75 -2.0 M64.7 6.5 Q64.7 7.2 63.7 7.6 L62.0 7.9 60.2 7.6 Q59.2 7.15 59.2 6.45 59.2 5.8 60.25 5.4 61.05 5.05 61.95 5.05 L63.7 5.4 Q64.7 5.8 64.7 6.5 M6.05 1.95 L5.0 -2.9 3.8 1.95 6.05 1.95 M-82.3 -0.7 L-77.15 -0.65 -76.85 -0.4 -76.9 2.3 -77.2 2.55 -82.4 2.5 -82.4 7.55 -82.7 7.8 -87.05 7.8 -87.35 7.55 -87.2 -5.95 -86.95 -6.2 -75.75 -6.15 Q-75.45 -6.15 -75.45 -5.85 L-75.5 -3.15 -75.8 -2.9 -82.25 -2.95 -82.3 -0.7 M-74.4 -6.25 L-70.0 -6.35 -69.7 -6.1 -69.7 4.15 -63.35 4.15 Q-63.05 4.15 -63.05 4.4 L-63.05 7.1 Q-63.05 7.35 -63.35 7.35 L-74.3 7.35 -74.55 7.1 -74.7 -6.0 -74.4 -6.25 M-58.7 -6.4 L-51.65 -6.4 Q-51.45 -6.4 -51.4 -6.2 L-47.75 7.85 -48.0 8.05 -52.55 8.0 -52.8 7.8 -53.35 5.15 -57.05 5.15 -57.6 7.45 -57.9 7.65 -62.4 7.65 -62.7 7.45 -62.7 7.35 -59.0 -6.2 Q-58.95 -6.4 -58.7 -6.4 M-44.5 -5.45 Q-42.35 -6.55 -40.05 -6.55 -38.25 -6.55 -36.45 -5.9 -34.55 -5.2 -33.45 -4.05 L-33.35 -3.9 -33.45 -3.75 -36.2 -1.05 Q-36.25 -0.95 -36.4 -0.95 L-36.55 -1.05 Q-38.9 -2.45 -40.75 -2.45 -41.85 -2.45 -41.85 -1.85 -41.85 -1.4 -39.7 -0.75 -36.85 0.15 -35.7 0.85 -33.5 2.1 -33.5 3.95 -33.5 6.3 -35.75 7.4 -37.5 8.25 -40.45 8.25 -42.25 8.25 -44.05 7.55 -45.9 6.85 -47.0 5.75 L-47.1 5.55 -47.0 5.4 -44.3 2.8 -44.05 2.75 -42.55 3.45 Q-40.95 4.2 -39.85 4.2 -38.6 4.2 -38.6 3.5 -38.6 3.0 -40.75 2.45 -43.6 1.75 -44.8 1.05 -46.95 -0.2 -46.95 -2.3 -46.95 -4.15 -44.5 -5.45 M-31.95 -6.65 L-27.5 -6.65 -27.2 -6.4 -27.3 -0.55 -23.45 -0.55 -23.45 -6.4 -23.2 -6.65 -18.75 -6.65 Q-18.45 -6.6 -18.5 -6.4 L-18.6 6.95 -18.9 7.2 -23.2 7.35 -23.45 7.1 -23.45 2.65 -27.3 2.65 -27.4 6.95 -27.65 7.2 -31.9 7.35 -32.2 7.1 -32.2 -6.4 -31.95 -6.65 M-3.5 -0.35 L-3.25 6.15 -3.35 6.35 Q-4.15 7.1 -5.95 7.55 L-8.95 7.9 Q-12.8 7.9 -15.15 6.05 -17.55 4.1 -17.55 0.85 -17.55 -3.15 -14.25 -5.3 -11.3 -7.25 -6.4 -7.25 -5.85 -7.25 -5.8 -7.05 L-5.15 -3.25 Q-5.1 -3.0 -5.45 -3.0 L-5.95 -3.05 -6.45 -3.05 Q-9.1 -3.05 -10.7 -2.15 -12.6 -1.15 -12.6 1.0 -12.6 4.0 -9.5 4.0 L-8.2 3.85 -8.25 2.15 -10.35 2.2 -10.55 2.15 -10.65 1.95 -10.55 0.05 -10.3 -0.2 -3.85 -0.55 Q-3.5 -0.6 -3.5 -0.35 M-54.05 1.95 L-55.1 -2.9 -56.3 1.95 -54.05 1.95" fill="#ffffff" fill-rule="evenodd" stroke="none"/>
  </g>
  <defs>
    <linearGradient gradientTransform="matrix(0.0, 0.3346, -0.1207, 0.0, 3.6, -265.8)" gradientUnits="userSpaceOnUse" id="gradient0" spreadMethod="pad" x1="-819.2" x2="819.2">
      <stop offset="0.0" stop-color="#ffffff"/>
      <stop offset="1.0" stop-color="#000000"/>
    </linearGradient>
    <linearGradient gradientTransform="matrix(0.0, 0.012, -0.0114, 0.0, 72.85, 0.7)" gradientUnits="userSpaceOnUse" id="gradient1" spreadMethod="pad" x1="-819.2" x2="819.2">
      <stop offset="0.23529411764705882" stop-color="#efa200"/>
      <stop offset="0.8313725490196079" stop-color="#a31b00"/>
    </linearGradient>
  </defs>
</svg>
