<?xml version="1.0" encoding="UTF-8" standalone="no"?>
<svg xmlns:ffdec="https://www.free-decompiler.com/flash" xmlns:xlink="http://www.w3.org/1999/xlink" ffdec:objectType="shape" height="20.65px" width="131.75px" xmlns="http://www.w3.org/2000/svg">
  <g transform="matrix(1.0, 0.0, 0.0, 1.0, 60.25, 12.0)">
    <path d="M1.7 -0.45 Q1.7 -0.2 1.4 -0.2 L-3.8 -0.2 -3.8 1.9 2.75 1.9 3.0 2.15 3.0 4.85 2.75 5.1 -8.4 5.1 -8.7 4.85 -8.7 -8.65 -8.45 -8.9 2.75 -8.9 3.0 -8.65 3.0 -5.95 2.75 -5.7 -3.75 -5.7 -3.8 -3.4 1.4 -3.4 Q1.7 -3.4 1.7 -3.2 L1.7 -0.45 M15.5 -1.4 Q15.5 0.1 16.65 0.9 17.7 1.65 19.45 1.65 21.4 1.65 23.6 0.5 L23.75 0.45 24.05 0.65 24.8 3.95 24.75 4.1 Q23.95 4.9 22.2 5.35 L19.25 5.7 Q15.4 5.7 13.0 3.8 10.55 1.9 10.55 -1.4 10.55 -5.4 13.8 -7.55 16.8 -9.5 21.7 -9.5 L22.3 -9.3 22.95 -5.5 Q23.0 -5.25 22.65 -5.25 L22.15 -5.3 21.65 -5.3 Q19.05 -5.3 17.45 -4.45 15.5 -3.45 15.5 -1.4 M28.0 -6.45 Q30.3 -8.7 34.1 -8.7 37.4 -8.7 39.5 -6.2 41.4 -3.95 41.4 -1.0 41.4 1.85 39.4 3.95 37.25 6.15 33.95 6.15 30.1 6.15 27.9 4.15 25.75 2.2 25.75 -1.1 25.75 -4.3 28.0 -6.45 M30.55 -0.9 Q30.55 0.3 31.35 1.3 32.25 2.4 33.65 2.4 35.05 2.4 35.95 1.3 36.8 0.3 36.8 -0.9 36.8 -2.15 35.95 -3.15 35.05 -4.25 33.65 -4.25 32.25 -4.25 31.35 -3.15 30.55 -2.15 30.55 -0.9 M53.85 -8.45 L54.15 -8.2 53.75 5.15 53.45 5.4 49.2 5.45 49.0 5.4 48.9 5.2 49.15 -8.3 49.4 -8.5 53.85 -8.45 M59.8 -8.4 L60.05 -8.25 64.4 -0.4 64.4 -8.15 Q64.4 -8.45 64.65 -8.4 L68.75 -8.4 69.0 -8.15 68.9 5.2 68.6 5.45 64.5 5.6 64.25 5.45 59.9 -2.45 59.8 5.2 59.55 5.45 55.6 5.6 Q55.3 5.6 55.3 5.35 L55.3 -8.15 Q55.3 -8.45 55.55 -8.4 L59.8 -8.4 M47.8 4.25 Q47.8 4.95 46.8 5.35 L45.1 5.65 43.3 5.35 Q42.3 4.9 42.3 4.2 42.3 3.55 43.35 3.15 44.15 2.8 45.05 2.8 L46.8 3.15 Q47.8 3.55 47.8 4.25 M9.65 4.25 Q9.65 4.95 8.65 5.35 L6.95 5.65 5.15 5.35 Q4.15 4.9 4.15 4.2 4.15 3.55 5.2 3.15 L6.9 2.8 8.65 3.15 Q9.65 3.55 9.65 4.25 M-54.45 -7.55 Q-51.5 -9.5 -46.6 -9.5 -46.05 -9.5 -46.0 -9.3 L-45.35 -5.5 Q-45.3 -5.25 -45.65 -5.25 L-46.15 -5.3 -46.65 -5.3 Q-49.3 -5.3 -50.9 -4.4 -52.8 -3.4 -52.8 -1.25 -52.8 1.75 -49.7 1.75 L-48.4 1.6 -48.45 -0.1 -50.55 -0.05 -50.75 -0.1 -50.85 -0.3 -50.75 -2.2 -50.5 -2.45 -44.05 -2.8 Q-43.7 -2.85 -43.7 -2.6 L-43.45 3.9 -43.55 4.1 Q-44.35 4.85 -46.15 5.3 L-49.15 5.65 Q-53.0 5.65 -55.35 3.8 -57.75 1.85 -57.75 -1.4 -57.75 -5.4 -54.45 -7.55 M-31.75 -8.65 L-31.5 -8.45 -27.85 5.6 Q-27.85 5.8 -28.1 5.8 L-32.65 5.75 -32.9 5.55 -33.45 2.9 -37.15 2.9 -37.7 5.2 -38.0 5.4 -42.5 5.4 -42.8 5.2 -42.8 5.1 -39.1 -8.45 Q-39.05 -8.65 -38.8 -8.65 L-31.75 -8.65 M-36.4 -0.3 L-34.15 -0.3 -35.2 -5.15 -36.4 -0.3 M-21.4 -8.4 L-18.55 -1.0 -15.65 -8.4 -15.4 -8.55 -10.8 -8.6 -10.55 -8.35 -9.9 4.8 -10.15 5.05 -14.1 5.25 -14.4 5.0 -14.6 -2.75 -17.05 4.6 -17.3 4.8 -19.75 4.8 -20.0 4.6 -22.5 -2.75 -22.65 5.0 Q-22.65 5.3 -23.0 5.25 L-26.9 5.1 -27.2 4.85 -26.55 -8.35 -26.25 -8.6 -21.65 -8.55 Q-21.45 -8.55 -21.4 -8.4" fill="url(#gradient0)" fill-rule="evenodd" stroke="none"/>
    <path d="M1.7 -0.45 Q1.7 -0.2 1.4 -0.2 L-3.8 -0.2 -3.8 1.9 2.75 1.9 3.0 2.15 3.0 4.85 2.75 5.1 -8.4 5.1 -8.7 4.85 -8.7 -8.65 -8.45 -8.9 2.75 -8.9 3.0 -8.65 3.0 -5.95 2.75 -5.7 -3.75 -5.7 -3.8 -3.4 1.4 -3.4 Q1.7 -3.4 1.7 -3.2 L1.7 -0.45 M15.5 -1.4 Q15.5 0.1 16.65 0.9 17.7 1.65 19.45 1.65 21.4 1.65 23.6 0.5 L23.75 0.45 24.05 0.65 24.8 3.95 24.75 4.1 Q23.95 4.9 22.2 5.35 L19.25 5.7 Q15.4 5.7 13.0 3.8 10.55 1.9 10.55 -1.4 10.55 -5.4 13.8 -7.55 16.8 -9.5 21.7 -9.5 L22.3 -9.3 22.95 -5.5 Q23.0 -5.25 22.65 -5.25 L22.15 -5.3 21.65 -5.3 Q19.05 -5.3 17.45 -4.45 15.5 -3.45 15.5 -1.4 M28.0 -6.45 Q30.3 -8.7 34.1 -8.7 37.4 -8.7 39.5 -6.2 41.4 -3.95 41.4 -1.0 41.4 1.85 39.4 3.95 37.25 6.15 33.95 6.15 30.1 6.15 27.9 4.15 25.75 2.2 25.75 -1.1 25.75 -4.3 28.0 -6.45 M30.55 -0.9 Q30.55 0.3 31.35 1.3 32.25 2.4 33.65 2.4 35.05 2.4 35.95 1.3 36.8 0.3 36.8 -0.9 36.8 -2.15 35.95 -3.15 35.05 -4.25 33.65 -4.25 32.25 -4.25 31.35 -3.15 30.55 -2.15 30.55 -0.9 M53.85 -8.45 L54.15 -8.2 53.75 5.15 53.45 5.4 49.2 5.45 49.0 5.4 48.9 5.2 49.15 -8.3 49.4 -8.5 53.85 -8.45 M59.8 -8.4 L60.05 -8.25 64.4 -0.4 64.4 -8.15 Q64.4 -8.45 64.65 -8.4 L68.75 -8.4 69.0 -8.15 68.9 5.2 68.6 5.45 64.5 5.6 64.25 5.45 59.9 -2.45 59.8 5.2 59.55 5.45 55.6 5.6 Q55.3 5.6 55.3 5.35 L55.3 -8.15 Q55.3 -8.45 55.55 -8.4 L59.8 -8.4 M47.8 4.25 Q47.8 4.95 46.8 5.35 L45.1 5.65 43.3 5.35 Q42.3 4.9 42.3 4.2 42.3 3.55 43.35 3.15 44.15 2.8 45.05 2.8 L46.8 3.15 Q47.8 3.55 47.8 4.25 M9.65 4.25 Q9.65 4.95 8.65 5.35 L6.95 5.65 5.15 5.35 Q4.15 4.9 4.15 4.2 4.15 3.55 5.2 3.15 L6.9 2.8 8.65 3.15 Q9.65 3.55 9.65 4.25 M-54.45 -7.55 Q-51.5 -9.5 -46.6 -9.5 -46.05 -9.5 -46.0 -9.3 L-45.35 -5.5 Q-45.3 -5.25 -45.65 -5.25 L-46.15 -5.3 -46.65 -5.3 Q-49.3 -5.3 -50.9 -4.4 -52.8 -3.4 -52.8 -1.25 -52.8 1.75 -49.7 1.75 L-48.4 1.6 -48.45 -0.1 -50.55 -0.05 -50.75 -0.1 -50.85 -0.3 -50.75 -2.2 -50.5 -2.45 -44.05 -2.8 Q-43.7 -2.85 -43.7 -2.6 L-43.45 3.9 -43.55 4.1 Q-44.35 4.85 -46.15 5.3 L-49.15 5.65 Q-53.0 5.65 -55.35 3.8 -57.75 1.85 -57.75 -1.4 -57.75 -5.4 -54.45 -7.55 M-31.75 -8.65 L-31.5 -8.45 -27.85 5.6 Q-27.85 5.8 -28.1 5.8 L-32.65 5.75 -32.9 5.55 -33.45 2.9 -37.15 2.9 -37.7 5.2 -38.0 5.4 -42.5 5.4 -42.8 5.2 -42.8 5.1 -39.1 -8.45 Q-39.05 -8.65 -38.8 -8.65 L-31.75 -8.65 M-36.4 -0.3 L-34.15 -0.3 -35.2 -5.15 -36.4 -0.3 M-21.4 -8.4 L-18.55 -1.0 -15.65 -8.4 -15.4 -8.55 -10.8 -8.6 -10.55 -8.35 -9.9 4.8 -10.15 5.05 -14.1 5.25 -14.4 5.0 -14.6 -2.75 -17.05 4.6 -17.3 4.8 -19.75 4.8 -20.0 4.6 -22.5 -2.75 -22.65 5.0 Q-22.65 5.3 -23.0 5.25 L-26.9 5.1 -27.2 4.85 -26.55 -8.35 -26.25 -8.6 -21.65 -8.55 Q-21.45 -8.55 -21.4 -8.4 Z" fill="none" stroke="url(#gradient1)" stroke-linecap="round" stroke-linejoin="round" stroke-width="5.0"/>
    <path d="M1.45 -0.45 L1.15 -0.2 -4.05 -0.2 -4.05 1.9 2.5 1.9 2.75 2.15 2.75 4.85 2.5 5.1 -8.65 5.1 -8.95 4.85 -8.95 -8.65 -8.7 -8.9 2.5 -8.9 2.75 -8.65 2.75 -5.95 2.5 -5.7 -4.0 -5.7 -4.05 -3.4 1.15 -3.4 Q1.45 -3.4 1.45 -3.2 L1.45 -0.45 M15.25 -1.4 Q15.25 0.1 16.4 0.9 17.45 1.65 19.2 1.65 21.15 1.65 23.35 0.5 L23.5 0.45 Q23.8 0.45 23.8 0.65 L24.55 3.95 24.5 4.1 Q23.7 4.9 21.95 5.35 L19.0 5.7 Q15.15 5.7 12.75 3.8 10.3 1.9 10.3 -1.4 10.3 -5.4 13.55 -7.55 16.55 -9.5 21.45 -9.5 L22.05 -9.3 22.7 -5.5 Q22.75 -5.25 22.4 -5.25 L21.9 -5.3 21.4 -5.3 Q18.8 -5.3 17.2 -4.45 15.25 -3.45 15.25 -1.4 M27.75 -6.45 Q30.05 -8.7 33.85 -8.7 37.15 -8.7 39.25 -6.2 41.15 -3.95 41.15 -1.0 41.15 1.85 39.15 3.95 37.0 6.15 33.7 6.15 29.85 6.15 27.65 4.15 25.5 2.2 25.5 -1.1 25.5 -4.3 27.75 -6.45 M35.7 -3.15 Q34.8 -4.25 33.4 -4.25 32.0 -4.25 31.1 -3.15 30.3 -2.15 30.3 -0.9 30.3 0.3 31.1 1.3 32.0 2.4 33.4 2.4 34.8 2.4 35.7 1.3 36.55 0.3 36.55 -0.9 36.55 -2.15 35.7 -3.15 M49.15 -8.5 L53.6 -8.45 53.9 -8.2 53.5 5.15 53.2 5.4 48.95 5.45 48.75 5.4 48.65 5.2 48.9 -8.3 49.15 -8.5 M59.8 -8.25 L64.15 -0.4 64.15 -8.15 Q64.15 -8.45 64.4 -8.4 L68.5 -8.4 68.75 -8.15 68.65 5.2 68.35 5.45 64.25 5.6 64.0 5.45 59.65 -2.45 59.55 5.2 59.3 5.45 55.35 5.6 Q55.05 5.6 55.05 5.35 L55.05 -8.15 Q55.05 -8.45 55.3 -8.4 L59.55 -8.4 59.8 -8.25 M47.55 4.25 Q47.55 4.95 46.55 5.35 L44.85 5.65 43.05 5.35 Q42.05 4.9 42.05 4.2 42.05 3.55 43.1 3.15 43.9 2.8 44.8 2.8 L46.55 3.15 Q47.55 3.55 47.55 4.25 M6.7 5.65 L4.9 5.35 Q3.9 4.9 3.9 4.2 3.9 3.55 4.95 3.15 5.75 2.8 6.65 2.8 L8.4 3.15 Q9.4 3.55 9.4 4.25 9.4 4.95 8.4 5.35 L6.7 5.65 M-54.7 -7.55 Q-51.75 -9.5 -46.85 -9.5 -46.3 -9.5 -46.25 -9.3 L-45.6 -5.5 Q-45.55 -5.25 -45.9 -5.25 L-46.4 -5.3 -46.9 -5.3 Q-49.55 -5.3 -51.15 -4.4 -53.05 -3.4 -53.05 -1.25 -53.05 1.75 -49.95 1.75 L-48.65 1.6 -48.7 -0.1 -50.8 -0.05 -51.0 -0.1 -51.1 -0.3 -51.0 -2.2 -50.75 -2.45 -44.3 -2.8 Q-43.95 -2.85 -43.95 -2.6 L-43.7 3.9 -43.8 4.1 Q-44.6 4.85 -46.4 5.3 L-49.4 5.65 Q-53.25 5.65 -55.6 3.8 -58.0 1.85 -58.0 -1.4 -58.0 -5.4 -54.7 -7.55 M-39.05 -8.65 L-32.0 -8.65 -31.75 -8.45 -28.1 5.6 -28.35 5.8 -32.9 5.75 -33.15 5.55 -33.7 2.9 -37.4 2.9 -37.95 5.2 -38.25 5.4 -42.75 5.4 -43.05 5.2 -43.05 5.1 -39.35 -8.45 -39.05 -8.65 M-34.4 -0.3 L-35.45 -5.15 -36.65 -0.3 -34.4 -0.3 M-21.65 -8.4 L-18.8 -1.0 -15.9 -8.4 -15.65 -8.55 -11.05 -8.6 -10.8 -8.35 -10.15 4.8 -10.4 5.05 -14.35 5.25 -14.65 5.0 -14.85 -2.75 -17.3 4.6 -17.55 4.8 -20.0 4.8 -20.25 4.6 -22.75 -2.75 -22.9 5.0 Q-22.9 5.3 -23.25 5.25 L-27.15 5.1 -27.45 4.85 -26.8 -8.35 -26.5 -8.6 -21.9 -8.55 Q-21.7 -8.55 -21.65 -8.4" fill="#ffffff" fill-rule="evenodd" stroke="none"/>
  </g>
  <defs>
    <linearGradient gradientTransform="matrix(0.0, 0.3346, -0.1207, 0.0, 5.6, 87.15)" gradientUnits="userSpaceOnUse" id="gradient0" spreadMethod="pad" x1="-819.2" x2="819.2">
      <stop offset="0.0" stop-color="#ffffff"/>
      <stop offset="1.0" stop-color="#000000"/>
    </linearGradient>
    <linearGradient gradientTransform="matrix(0.0, 0.0116, -0.0114, 0.0, 62.15, -1.4)" gradientUnits="userSpaceOnUse" id="gradient1" spreadMethod="pad" x1="-819.2" x2="819.2">
      <stop offset="0.23529411764705882" stop-color="#efa200"/>
      <stop offset="0.8313725490196079" stop-color="#a31b00"/>
    </linearGradient>
  </defs>
</svg>
