<?xml version="1.0" encoding="UTF-8" standalone="no"?>
<svg xmlns:ffdec="https://www.free-decompiler.com/flash" xmlns:xlink="http://www.w3.org/1999/xlink" ffdec:objectType="shape" height="20.6px" width="137.4px" xmlns="http://www.w3.org/2000/svg">
  <g transform="matrix(1.0, 0.0, 0.0, 1.0, 59.75, 8.8)">
    <path d="M7.15 -5.7 L18.6 -5.7 18.65 -5.6 18.65 -2.8 18.6 -2.75 11.95 -2.75 11.7 -2.6 11.7 -0.25 11.95 -0.1 17.2 -0.1 17.25 0.0 17.25 2.8 17.2 2.85 11.9 2.85 11.7 3.05 11.65 5.2 Q11.65 5.35 11.9 5.35 L18.6 5.35 18.65 5.45 18.65 8.25 18.6 8.3 7.2 8.3 7.1 -5.6 7.15 -5.7 M5.15 -5.3 L5.75 8.15 5.7 8.2 1.75 8.45 1.65 8.35 1.5 0.4 Q1.5 0.25 1.2 0.25 1.0 0.25 0.95 0.35 L-1.55 7.9 -1.6 7.95 -4.05 7.95 -6.65 0.35 -6.9 0.25 Q-7.15 0.25 -7.15 0.4 L-7.35 8.45 -11.35 8.3 -11.45 8.2 -10.75 -5.3 -10.7 -5.4 -6.05 -5.4 -3.05 2.2 -2.85 2.35 -2.6 2.2 0.3 -5.35 0.4 -5.4 5.05 -5.4 5.15 -5.3 M37.0 -2.35 Q34.1 -2.35 32.5 -1.15 31.0 0.0 31.0 1.85 31.0 3.3 32.0 4.15 33.1 5.1 35.25 5.1 37.5 5.1 39.7 3.9 L40.1 5.55 40.45 7.3 40.45 7.35 Q39.6 8.15 38.05 8.55 L35.05 8.95 Q30.75 8.95 28.4 6.65 26.45 4.7 26.45 1.8 26.45 -1.85 29.1 -4.0 32.0 -6.3 37.55 -6.3 L37.75 -6.3 37.95 -6.25 38.6 -2.35 38.6 -2.3 38.55 -2.3 37.8 -2.3 37.0 -2.35 M49.35 -1.35 Q47.65 -1.35 46.7 -0.05 45.9 1.0 45.9 2.2 45.9 3.4 46.7 4.45 47.65 5.75 49.35 5.75 51.0 5.75 51.95 4.45 52.75 3.4 52.75 2.2 52.75 1.0 51.95 -0.05 51.0 -1.35 49.35 -1.35 M49.75 -5.6 Q52.4 -5.6 54.3 -3.95 55.8 -2.65 56.5 -0.7 56.95 0.6 56.95 2.1 56.95 4.65 55.3 6.7 53.2 9.3 49.6 9.3 45.35 9.3 43.25 6.9 41.5 4.95 41.5 2.05 41.5 -0.8 43.35 -3.0 45.6 -5.6 49.75 -5.6 M70.35 0.35 L67.85 7.9 67.8 7.95 65.35 7.95 62.75 0.35 62.5 0.25 62.25 0.4 62.05 8.45 58.05 8.3 57.95 8.2 58.65 -5.3 58.7 -5.4 63.35 -5.4 66.35 2.2 66.55 2.35 66.8 2.2 69.7 -5.35 69.8 -5.4 74.45 -5.4 74.55 -5.3 75.15 8.15 75.1 8.2 71.15 8.45 71.05 8.35 70.9 0.4 M22.45 8.3 L20.75 7.95 Q19.9 7.55 19.9 6.95 19.9 6.4 20.75 6.05 L22.45 5.7 Q23.4 5.7 24.15 6.05 25.0 6.45 25.0 7.0 25.0 7.6 24.15 7.95 L22.45 8.3 M-46.15 -5.45 L-42.4 8.9 -42.5 8.95 -47.1 8.9 -47.65 6.15 Q-47.7 6.0 -47.9 6.0 L-51.7 6.0 Q-51.95 6.0 -52.0 6.15 L-52.55 8.55 -57.2 8.55 -57.2 8.45 -53.4 -5.5 -46.2 -5.5 -46.15 -5.45 M-49.7 -2.25 L-49.9 -2.15 -51.15 2.9 Q-51.15 3.05 -50.95 3.05 L-48.6 3.05 -48.4 2.9 -48.4 2.85 -49.45 -2.15 -49.7 -2.25 M-30.45 -6.3 L-30.25 -6.2 -29.6 -2.35 -29.6 -2.3 -29.65 -2.25 -31.05 -2.35 Q-34.0 -2.35 -35.65 -1.1 -37.25 0.05 -37.25 1.95 -37.25 3.3 -36.6 4.15 -35.7 5.25 -33.8 5.25 -32.2 5.25 -32.2 4.9 L-32.3 3.15 -32.55 3.05 -34.65 3.05 -34.7 2.95 -34.6 0.9 -28.0 0.55 -27.95 0.6 -27.7 7.35 Q-28.5 8.05 -30.15 8.5 L-33.2 8.85 Q-37.5 8.85 -39.8 6.6 -41.75 4.7 -41.75 1.8 -41.75 -1.7 -39.05 -3.7 -36.35 -5.7 -30.65 -6.25 L-30.45 -6.3 M-19.45 -2.25 L-19.65 -2.15 -20.9 2.9 -20.7 3.05 -18.35 3.05 -18.15 2.9 -18.15 2.85 -19.2 -2.15 -19.45 -2.25 M-15.9 -5.45 L-12.15 8.9 -12.25 8.95 -16.85 8.9 -17.4 6.15 -17.65 6.0 -21.45 6.0 Q-21.7 6.0 -21.75 6.15 L-22.3 8.55 -26.95 8.55 -26.95 8.45 -23.15 -5.5 -15.95 -5.5 -15.9 -5.45 Z" fill="none" stroke="url(#gradient0)" stroke-linecap="round" stroke-linejoin="round" stroke-width="5.0"/>
    <path d="M5.45 -5.15 L6.1 8.0 5.85 8.25 1.9 8.45 1.6 8.2 1.4 0.45 -1.05 7.8 -1.3 8.0 -3.75 8.0 -4.0 7.8 -6.5 0.45 -6.65 8.2 Q-6.65 8.5 -7.0 8.45 L-10.9 8.3 -11.2 8.05 -10.55 -5.15 -10.25 -5.4 -5.65 -5.35 -5.4 -5.2 -2.55 2.2 0.35 -5.2 0.6 -5.35 5.2 -5.4 5.45 -5.15 M7.55 -5.7 L18.75 -5.7 19.0 -5.45 19.0 -2.75 18.75 -2.5 12.25 -2.5 12.2 -0.2 17.4 -0.2 Q17.7 -0.2 17.7 0.0 L17.7 2.75 17.4 3.0 12.2 3.0 12.2 5.1 18.75 5.1 19.0 5.35 19.0 8.05 18.75 8.3 7.6 8.3 Q7.3 8.3 7.3 8.05 L7.3 -5.45 7.55 -5.7 M37.7 -6.3 Q38.25 -6.3 38.3 -6.1 L38.95 -2.3 Q39.0 -2.05 38.65 -2.05 L38.15 -2.1 37.65 -2.1 Q35.05 -2.1 33.45 -1.25 31.5 -0.25 31.5 1.8 31.5 3.3 32.65 4.1 33.7 4.85 35.45 4.85 37.4 4.85 39.6 3.7 L39.75 3.65 Q40.05 3.65 40.05 3.85 L40.8 7.15 40.75 7.3 Q39.95 8.1 38.2 8.55 L35.25 8.9 Q31.4 8.9 29.0 7.0 26.55 5.1 26.55 1.8 26.55 -2.2 29.8 -4.35 32.8 -6.3 37.7 -6.3 M70.1 -5.35 L74.7 -5.4 74.95 -5.15 75.6 8.0 75.35 8.25 71.4 8.45 71.1 8.2 70.9 0.45 68.45 7.8 68.2 8.0 65.75 8.0 65.5 7.8 63.0 0.45 62.85 8.2 62.5 8.45 58.6 8.3 Q58.3 8.3 58.3 8.05 L58.95 -5.15 59.25 -5.4 63.85 -5.35 64.1 -5.2 66.95 2.2 69.85 -5.2 Q69.9 -5.35 70.1 -5.35 M50.1 -5.5 Q53.4 -5.5 55.5 -3.0 57.4 -0.75 57.4 2.2 57.4 5.05 55.4 7.15 53.25 9.35 49.95 9.35 46.1 9.35 43.9 7.35 41.75 5.4 41.75 2.1 41.75 -1.1 44.0 -3.25 46.3 -5.5 50.1 -5.5 M51.95 0.05 Q51.05 -1.05 49.65 -1.05 48.25 -1.05 47.35 0.05 46.55 1.05 46.55 2.3 46.55 3.5 47.35 4.5 48.25 5.6 49.65 5.6 51.05 5.6 51.95 4.5 52.8 3.5 52.8 2.3 52.8 1.05 51.95 0.05 M22.9 6.0 L24.65 6.35 Q25.65 6.75 25.65 7.45 25.65 8.15 24.65 8.55 L22.95 8.85 21.15 8.55 Q20.15 8.1 20.15 7.4 20.15 6.75 21.2 6.35 L22.9 6.0 M-46.1 -5.45 Q-45.9 -5.45 -45.85 -5.25 L-42.2 8.8 -42.45 9.0 -47.0 8.95 -47.25 8.75 -47.8 6.1 -51.5 6.1 -52.05 8.4 -52.35 8.6 -56.85 8.6 -57.15 8.4 -57.15 8.3 -53.45 -5.25 -53.15 -5.45 -46.1 -5.45 M-34.9 -1.2 Q-36.8 -0.2 -36.8 1.95 -36.8 4.95 -33.7 4.95 L-32.4 4.8 -32.45 3.1 -34.55 3.15 -34.75 3.1 -34.85 2.9 -34.75 1.0 -34.5 0.75 -28.05 0.4 Q-27.7 0.35 -27.7 0.6 L-27.45 7.1 -27.55 7.3 Q-28.35 8.05 -30.15 8.5 L-33.15 8.85 Q-37.0 8.85 -39.35 7.0 -41.75 5.05 -41.75 1.8 -41.75 -2.2 -38.45 -4.35 -35.5 -6.3 -30.6 -6.3 -30.05 -6.3 -30.0 -6.1 L-29.35 -2.3 Q-29.3 -2.05 -29.65 -2.05 L-30.15 -2.1 -30.65 -2.1 Q-33.3 -2.1 -34.9 -1.2 M-22.8 -5.45 L-15.75 -5.45 -15.5 -5.25 -11.85 8.8 Q-11.85 9.0 -12.1 9.0 L-16.65 8.95 -16.9 8.75 -17.45 6.1 -21.15 6.1 -21.7 8.4 -22.0 8.6 -26.5 8.6 -26.8 8.4 -26.8 8.3 -23.1 -5.25 Q-23.05 -5.45 -22.8 -5.45 M-18.15 2.9 L-19.2 -1.95 -20.4 2.9 -18.15 2.9 M-48.5 2.9 L-49.55 -1.95 -50.75 2.9 -48.5 2.9" fill="#ffffff" fill-rule="evenodd" stroke="none"/>
  </g>
  <defs>
    <linearGradient gradientTransform="matrix(0.0, 0.0126, -0.0838, 0.0, 9.0, 1.5)" gradientUnits="userSpaceOnUse" id="gradient0" spreadMethod="pad" x1="-819.2" x2="819.2">
      <stop offset="0.23529411764705882" stop-color="#efa200"/>
      <stop offset="0.8392156862745098" stop-color="#a31b00"/>
    </linearGradient>
  </defs>
</svg>
