<?xml version="1.0" encoding="UTF-8" standalone="no"?>
<svg xmlns:ffdec="https://www.free-decompiler.com/flash" xmlns:xlink="http://www.w3.org/1999/xlink" ffdec:objectType="shape" height="20.7px" width="146.4px" xmlns="http://www.w3.org/2000/svg">
  <g transform="matrix(1.0, 0.0, 0.0, 1.0, 75.45, 9.45)">
    <path d="M2.7 -3.6 L2.6 -3.45 -0.15 -0.75 Q-0.2 -0.65 -0.35 -0.65 L-0.5 -0.75 Q-2.85 -2.15 -4.7 -2.15 -5.8 -2.15 -5.8 -1.55 -5.8 -1.1 -3.65 -0.45 -0.8 0.45 0.35 1.15 2.55 2.4 2.55 4.25 2.55 6.6 0.3 7.7 -1.45 8.55 -4.4 8.55 -6.2 8.55 -8.0 7.85 -9.85 7.15 -10.95 6.05 L-11.05 5.85 -10.95 5.7 -8.25 3.1 -8.0 3.05 -6.5 3.75 Q-4.9 4.5 -3.8 4.5 -2.55 4.5 -2.55 3.8 -2.55 3.3 -4.7 2.75 -7.55 2.05 -8.75 1.35 -10.9 0.1 -10.9 -2.0 -10.9 -3.85 -8.45 -5.15 -6.3 -6.25 -4.0 -6.25 L-0.4 -5.6 Q1.5 -4.9 2.6 -3.75 L2.7 -3.6 M17.1 -1.9 Q15.15 -0.9 15.15 1.15 15.15 2.65 16.3 3.45 17.35 4.2 19.1 4.2 21.05 4.2 23.25 3.05 L23.4 3.0 Q23.7 3.0 23.7 3.2 L24.45 6.5 24.4 6.65 Q23.6 7.45 21.85 7.9 L18.9 8.25 Q15.05 8.25 12.65 6.35 10.2 4.45 10.2 1.15 10.2 -2.85 13.45 -5.0 16.05 -6.7 20.1 -6.9 L21.35 -6.95 Q21.9 -6.95 21.95 -6.75 L22.6 -2.95 22.3 -2.7 21.8 -2.75 21.3 -2.75 20.1 -2.7 Q18.3 -2.55 17.1 -1.9 M33.3 -1.7 Q31.9 -1.7 31.0 -0.6 30.2 0.4 30.2 1.65 30.2 2.85 31.0 3.85 31.9 4.95 33.3 4.95 34.7 4.95 35.6 3.85 36.45 2.85 36.45 1.65 36.45 0.4 35.6 -0.6 34.7 -1.7 33.3 -1.7 M39.15 -3.65 Q41.05 -1.4 41.05 1.55 41.05 4.4 39.05 6.5 36.9 8.7 33.6 8.7 29.75 8.7 27.55 6.7 25.4 4.75 25.4 1.45 25.4 -1.75 27.65 -3.9 29.95 -6.15 33.75 -6.15 37.05 -6.15 39.15 -3.65 M53.5 -5.9 L53.8 -5.65 53.4 7.7 53.1 7.95 48.85 8.0 48.65 7.95 48.55 7.75 48.8 -5.75 Q48.8 -5.95 49.05 -5.95 L53.5 -5.9 M64.05 -4.95 Q68.45 -3.0 68.45 1.15 68.45 5.35 64.05 7.25 60.7 8.75 55.25 8.75 L54.95 8.5 54.95 -6.2 55.2 -6.45 Q60.65 -6.45 64.05 -4.95 M60.25 -2.2 L60.25 4.5 Q61.65 4.5 62.5 3.4 63.3 2.4 63.3 1.15 63.3 -0.1 62.5 -1.1 61.65 -2.2 60.25 -2.2 M44.7 5.35 L46.45 5.7 Q47.45 6.1 47.45 6.8 47.45 7.5 46.45 7.9 L44.75 8.2 42.95 7.9 Q41.95 7.45 41.95 6.75 41.95 6.1 43.0 5.7 43.8 5.35 44.7 5.35 M8.3 5.7 Q9.3 6.1 9.3 6.8 9.3 7.5 8.3 7.9 L6.6 8.2 4.8 7.9 Q3.8 7.45 3.8 6.75 3.8 6.1 4.85 5.7 5.65 5.35 6.55 5.35 L8.3 5.7 M-61.85 -2.75 Q-64.5 -2.75 -66.1 -1.85 -68.0 -0.85 -68.0 1.3 -68.0 4.3 -64.9 4.3 L-63.6 4.15 -63.65 2.45 -65.75 2.5 -65.95 2.45 -66.05 2.25 -65.95 0.35 -65.7 0.1 -59.25 -0.25 Q-58.9 -0.3 -58.9 -0.05 L-58.65 6.45 -58.75 6.65 Q-59.55 7.4 -61.35 7.85 L-64.35 8.2 Q-68.2 8.2 -70.55 6.35 -72.95 4.4 -72.95 1.15 -72.95 -2.85 -69.65 -5.0 -66.7 -6.95 -61.8 -6.95 -61.25 -6.95 -61.2 -6.75 L-60.55 -2.95 Q-60.5 -2.7 -60.85 -2.7 L-61.35 -2.75 -61.85 -2.75 M-54.0 -6.1 L-46.95 -6.1 -46.7 -5.9 -43.05 8.15 -43.3 8.35 -47.85 8.3 -48.1 8.1 -48.65 5.45 -52.35 5.45 -52.9 7.75 -53.2 7.95 -57.7 7.95 -58.0 7.75 -58.0 7.65 -54.3 -5.9 Q-54.25 -6.1 -54.0 -6.1 M-41.45 -6.05 L-36.85 -6.0 -36.6 -5.85 -33.75 1.55 -30.85 -5.85 -30.6 -6.0 -26.0 -6.05 -25.75 -5.8 -25.1 7.35 -25.35 7.6 -29.3 7.8 -29.6 7.55 -29.8 -0.2 -32.25 7.15 -32.5 7.35 -34.95 7.35 -35.2 7.15 -37.7 -0.2 -37.85 7.55 Q-37.85 7.85 -38.2 7.8 L-42.1 7.65 -42.4 7.4 -41.75 -5.8 -41.45 -6.05 M-23.65 -6.35 L-12.45 -6.35 -12.2 -6.1 -12.2 -3.4 Q-12.2 -3.15 -12.45 -3.15 L-18.95 -3.15 -19.0 -0.85 -13.8 -0.85 Q-13.5 -0.85 -13.5 -0.65 L-13.5 2.1 -13.8 2.35 -19.0 2.35 -19.0 4.45 -12.45 4.45 Q-12.2 4.45 -12.2 4.7 L-12.2 7.4 -12.45 7.65 -23.6 7.65 -23.9 7.4 -23.9 -6.1 -23.65 -6.35 M-49.35 2.25 L-50.4 -2.6 -51.6 2.25 -49.35 2.25" fill="url(#gradient0)" fill-rule="evenodd" stroke="none"/>
    <path d="M2.7 -3.6 L2.6 -3.45 -0.15 -0.75 Q-0.2 -0.65 -0.35 -0.65 L-0.5 -0.75 Q-2.85 -2.15 -4.7 -2.15 -5.8 -2.15 -5.8 -1.55 -5.8 -1.1 -3.65 -0.45 -0.8 0.45 0.35 1.15 2.55 2.4 2.55 4.25 2.55 6.6 0.3 7.7 -1.45 8.55 -4.4 8.55 -6.2 8.55 -8.0 7.85 -9.85 7.15 -10.95 6.05 L-11.05 5.85 -10.95 5.7 -8.25 3.1 -8.0 3.05 -6.5 3.75 Q-4.9 4.5 -3.8 4.5 -2.55 4.5 -2.55 3.8 -2.55 3.3 -4.7 2.75 -7.55 2.05 -8.75 1.35 -10.9 0.1 -10.9 -2.0 -10.9 -3.85 -8.45 -5.15 -6.3 -6.25 -4.0 -6.25 L-0.4 -5.6 Q1.5 -4.9 2.6 -3.75 L2.7 -3.6 M17.1 -1.9 Q15.15 -0.9 15.15 1.15 15.15 2.65 16.3 3.45 17.35 4.2 19.1 4.2 21.05 4.2 23.25 3.05 L23.4 3.0 Q23.7 3.0 23.7 3.2 L24.45 6.5 24.4 6.65 Q23.6 7.45 21.85 7.9 L18.9 8.25 Q15.05 8.25 12.65 6.35 10.2 4.45 10.2 1.15 10.2 -2.85 13.45 -5.0 16.05 -6.7 20.1 -6.9 L21.35 -6.95 Q21.9 -6.95 21.95 -6.75 L22.6 -2.95 22.3 -2.7 21.8 -2.75 21.3 -2.75 20.1 -2.7 Q18.3 -2.55 17.1 -1.9 M33.3 -1.7 Q31.9 -1.7 31.0 -0.6 30.2 0.4 30.2 1.65 30.2 2.85 31.0 3.85 31.9 4.95 33.3 4.95 34.7 4.95 35.6 3.85 36.45 2.85 36.45 1.65 36.45 0.4 35.6 -0.6 34.7 -1.7 33.3 -1.7 M39.15 -3.65 Q41.05 -1.4 41.05 1.55 41.05 4.4 39.05 6.5 36.9 8.7 33.6 8.7 29.75 8.7 27.55 6.7 25.4 4.75 25.4 1.45 25.4 -1.75 27.65 -3.9 29.95 -6.15 33.75 -6.15 37.05 -6.15 39.15 -3.65 M53.5 -5.9 L53.8 -5.65 53.4 7.7 53.1 7.95 48.85 8.0 48.65 7.95 48.55 7.75 48.8 -5.75 Q48.8 -5.95 49.05 -5.95 L53.5 -5.9 M64.05 -4.95 Q68.45 -3.0 68.45 1.15 68.45 5.35 64.05 7.25 60.7 8.75 55.25 8.75 L54.95 8.5 54.95 -6.2 55.2 -6.45 Q60.65 -6.45 64.05 -4.95 M60.25 -2.2 L60.25 4.5 Q61.65 4.5 62.5 3.4 63.3 2.4 63.3 1.15 63.3 -0.1 62.5 -1.1 61.65 -2.2 60.25 -2.2 M44.7 5.35 L46.45 5.7 Q47.45 6.1 47.45 6.8 47.45 7.5 46.45 7.9 L44.75 8.2 42.95 7.9 Q41.95 7.45 41.95 6.75 41.95 6.1 43.0 5.7 43.8 5.35 44.7 5.35 M8.3 5.7 Q9.3 6.1 9.3 6.8 9.3 7.5 8.3 7.9 L6.6 8.2 4.8 7.9 Q3.8 7.45 3.8 6.75 3.8 6.1 4.85 5.7 5.65 5.35 6.55 5.35 L8.3 5.7 M-61.85 -2.75 Q-64.5 -2.75 -66.1 -1.85 -68.0 -0.85 -68.0 1.3 -68.0 4.3 -64.9 4.3 L-63.6 4.15 -63.65 2.45 -65.75 2.5 -65.95 2.45 -66.05 2.25 -65.95 0.35 -65.7 0.1 -59.25 -0.25 Q-58.9 -0.3 -58.9 -0.05 L-58.65 6.45 -58.75 6.65 Q-59.55 7.4 -61.35 7.85 L-64.35 8.2 Q-68.2 8.2 -70.55 6.35 -72.95 4.4 -72.95 1.15 -72.95 -2.85 -69.65 -5.0 -66.7 -6.95 -61.8 -6.95 -61.25 -6.95 -61.2 -6.75 L-60.55 -2.95 Q-60.5 -2.7 -60.85 -2.7 L-61.35 -2.75 -61.85 -2.75 M-54.0 -6.1 L-46.95 -6.1 -46.7 -5.9 -43.05 8.15 -43.3 8.35 -47.85 8.3 -48.1 8.1 -48.65 5.45 -52.35 5.45 -52.9 7.75 -53.2 7.95 -57.7 7.95 -58.0 7.75 -58.0 7.65 -54.3 -5.9 Q-54.25 -6.1 -54.0 -6.1 M-41.45 -6.05 L-36.85 -6.0 -36.6 -5.85 -33.75 1.55 -30.85 -5.85 -30.6 -6.0 -26.0 -6.05 -25.75 -5.8 -25.1 7.35 -25.35 7.6 -29.3 7.8 -29.6 7.55 -29.8 -0.2 -32.25 7.15 -32.5 7.35 -34.95 7.35 -35.2 7.15 -37.7 -0.2 -37.85 7.55 Q-37.85 7.85 -38.2 7.8 L-42.1 7.65 -42.4 7.4 -41.75 -5.8 -41.45 -6.05 M-23.65 -6.35 L-12.45 -6.35 -12.2 -6.1 -12.2 -3.4 Q-12.2 -3.15 -12.45 -3.15 L-18.95 -3.15 -19.0 -0.85 -13.8 -0.85 Q-13.5 -0.85 -13.5 -0.65 L-13.5 2.1 -13.8 2.35 -19.0 2.35 -19.0 4.45 -12.45 4.45 Q-12.2 4.45 -12.2 4.7 L-12.2 7.4 -12.45 7.65 -23.6 7.65 -23.9 7.4 -23.9 -6.1 -23.65 -6.35 M-49.35 2.25 L-50.4 -2.6 -51.6 2.25 -49.35 2.25 Z" fill="none" stroke="url(#gradient1)" stroke-linecap="round" stroke-linejoin="round" stroke-width="5.0"/>
    <path d="M2.35 -3.95 L-0.4 -1.25 Q-0.45 -1.15 -0.6 -1.15 L-0.75 -1.25 Q-3.1 -2.65 -4.95 -2.65 -6.05 -2.65 -6.05 -2.05 -6.05 -1.6 -3.9 -0.95 -1.05 -0.05 0.1 0.65 2.3 1.9 2.3 3.75 2.3 6.1 0.05 7.2 -1.7 8.05 -4.65 8.05 -6.45 8.05 -8.25 7.35 -10.1 6.65 -11.2 5.55 L-11.3 5.35 -11.2 5.2 -8.5 2.6 -8.25 2.55 -6.75 3.25 Q-5.15 4.0 -4.05 4.0 -2.8 4.0 -2.8 3.3 -2.8 2.8 -4.95 2.25 -7.8 1.55 -9.0 0.85 -11.15 -0.4 -11.15 -2.5 -11.15 -4.35 -8.7 -5.65 -6.55 -6.75 -4.25 -6.75 L-0.65 -6.1 Q1.25 -5.4 2.35 -4.25 L2.45 -4.1 2.35 -3.95 M21.55 -3.25 L21.05 -3.25 Q18.45 -3.25 16.85 -2.4 14.9 -1.4 14.9 0.65 14.9 2.15 16.05 2.95 17.1 3.7 18.85 3.7 20.8 3.7 23.0 2.55 L23.15 2.5 23.45 2.7 24.2 6.0 24.15 6.15 Q23.35 6.95 21.6 7.4 L18.65 7.75 Q14.8 7.75 12.4 5.85 9.95 3.95 9.95 0.65 9.95 -3.35 13.2 -5.5 16.2 -7.45 21.1 -7.45 L21.7 -7.25 22.35 -3.45 Q22.4 -3.2 22.05 -3.2 L21.55 -3.25 M30.75 -1.1 Q29.95 -0.1 29.95 1.15 29.95 2.35 30.75 3.35 31.65 4.45 33.05 4.45 34.45 4.45 35.35 3.35 36.2 2.35 36.2 1.15 36.2 -0.1 35.35 -1.1 34.45 -2.2 33.05 -2.2 31.65 -2.2 30.75 -1.1 M38.9 -4.15 Q40.8 -1.9 40.8 1.05 40.8 3.9 38.8 6.0 36.65 8.2 33.35 8.2 29.5 8.2 27.3 6.2 25.15 4.25 25.15 0.95 25.15 -2.25 27.4 -4.4 29.7 -6.65 33.5 -6.65 36.8 -6.65 38.9 -4.15 M63.8 -5.45 Q68.2 -3.5 68.2 0.65 68.2 4.85 63.8 6.75 60.45 8.25 55.0 8.25 L54.7 8.0 54.7 -6.7 54.95 -6.95 Q60.4 -6.95 63.8 -5.45 M48.8 -6.45 L53.25 -6.4 53.55 -6.15 53.15 7.2 52.85 7.45 48.6 7.5 48.4 7.45 48.3 7.25 48.55 -6.25 48.8 -6.45 M60.0 -2.7 L60.0 4.0 Q61.4 4.0 62.25 2.9 63.05 1.9 63.05 0.65 63.05 -0.6 62.25 -1.6 61.4 -2.7 60.0 -2.7 M44.45 4.85 L46.2 5.2 Q47.2 5.6 47.2 6.3 47.2 7.0 46.2 7.4 L44.5 7.7 42.7 7.4 Q41.7 6.95 41.7 6.25 41.7 5.6 42.75 5.2 43.55 4.85 44.45 4.85 M8.05 5.2 Q9.05 5.6 9.05 6.3 9.05 7.0 8.05 7.4 L6.35 7.7 4.55 7.4 Q3.55 6.95 3.55 6.25 3.55 5.6 4.6 5.2 5.4 4.85 6.3 4.85 L8.05 5.2 M-62.1 -3.25 Q-64.75 -3.25 -66.35 -2.35 -68.25 -1.35 -68.25 0.8 -68.25 3.8 -65.15 3.8 L-63.85 3.65 -63.9 1.95 -66.0 2.0 -66.2 1.95 -66.3 1.75 -66.2 -0.15 -65.95 -0.4 -59.5 -0.75 Q-59.15 -0.8 -59.15 -0.55 L-58.9 5.95 -59.0 6.15 Q-59.8 6.9 -61.6 7.35 L-64.6 7.7 Q-68.45 7.7 -70.8 5.85 -73.2 3.9 -73.2 0.65 -73.2 -3.35 -69.9 -5.5 -66.95 -7.45 -62.05 -7.45 -61.5 -7.45 -61.45 -7.25 L-60.8 -3.45 Q-60.75 -3.2 -61.1 -3.2 L-61.6 -3.25 -62.1 -3.25 M-41.7 -6.55 L-37.1 -6.5 Q-36.9 -6.5 -36.85 -6.35 L-34.0 1.05 -31.1 -6.35 -30.85 -6.5 -26.25 -6.55 -26.0 -6.3 -25.35 6.85 -25.6 7.1 -29.55 7.3 -29.85 7.05 -30.05 -0.7 -32.5 6.65 -32.75 6.85 -35.2 6.85 -35.45 6.65 -37.95 -0.7 -38.1 7.05 Q-38.1 7.35 -38.45 7.3 L-42.35 7.15 -42.65 6.9 -42.0 -6.3 -41.7 -6.55 M-47.2 -6.6 L-46.95 -6.4 -43.3 7.65 -43.55 7.85 -48.1 7.8 -48.35 7.6 -48.9 4.95 -52.6 4.95 -53.15 7.25 -53.45 7.45 -57.95 7.45 -58.25 7.25 -58.25 7.15 -54.55 -6.4 Q-54.5 -6.6 -54.25 -6.6 L-47.2 -6.6 M-23.9 -6.85 L-12.7 -6.85 -12.45 -6.6 -12.45 -3.9 Q-12.45 -3.65 -12.7 -3.65 L-19.2 -3.65 -19.25 -1.35 -14.05 -1.35 Q-13.75 -1.35 -13.75 -1.15 L-13.75 1.6 -14.05 1.85 -19.25 1.85 -19.25 3.95 -12.7 3.95 Q-12.45 3.95 -12.45 4.2 L-12.45 6.9 -12.7 7.15 -23.85 7.15 -24.15 6.9 -24.15 -6.6 -23.9 -6.85 M-49.6 1.75 L-50.65 -3.1 -51.85 1.75 -49.6 1.75" fill="#ffffff" fill-rule="evenodd" stroke="none"/>
  </g>
  <defs>
    <linearGradient gradientTransform="matrix(0.0, 0.3346, -0.1207, 0.0, -2.4, -206.3)" gradientUnits="userSpaceOnUse" id="gradient0" spreadMethod="pad" x1="-819.2" x2="819.2">
      <stop offset="0.0" stop-color="#ffffff"/>
      <stop offset="1.0" stop-color="#000000"/>
    </linearGradient>
    <linearGradient gradientTransform="matrix(0.0, 0.0071, -0.0049, 0.0, 61.8, 1.15)" gradientUnits="userSpaceOnUse" id="gradient1" spreadMethod="pad" x1="-819.2" x2="819.2">
      <stop offset="0.23529411764705882" stop-color="#efa200"/>
      <stop offset="0.8313725490196079" stop-color="#a31b00"/>
    </linearGradient>
  </defs>
</svg>
