<?xml version="1.0" encoding="UTF-8" standalone="no"?>
<svg xmlns:ffdec="https://www.free-decompiler.com/flash" xmlns:xlink="http://www.w3.org/1999/xlink" ffdec:objectType="shape" height="22.8px" width="102.85px" xmlns="http://www.w3.org/2000/svg">
  <g transform="matrix(1.0, 0.0, 0.0, 1.0, 51.95, 10.6)">
    <path d="M-38.05 -8.05 L-37.4 -3.7 Q-37.35 -3.4 -37.7 -3.4 L-38.2 -3.4 -38.7 -3.45 Q-41.3 -3.45 -42.85 -2.4 -44.75 -1.2 -44.75 1.25 -44.75 4.75 -41.7 4.75 L-40.4 4.6 -40.45 2.6 -42.5 2.65 -42.7 2.6 -42.8 2.35 -42.75 0.15 -42.5 -0.15 -36.1 -0.55 Q-35.85 -0.6 -35.8 -0.3 L-35.55 7.25 -35.6 7.45 Q-36.45 8.35 -38.2 8.85 L-41.1 9.25 Q-44.9 9.25 -47.2 7.1 -49.6 4.85 -49.6 1.05 -49.6 -3.55 -46.4 -6.05 -43.45 -8.3 -38.65 -8.3 -38.05 -8.3 -38.05 -8.05" fill="#ffffff" fill-rule="evenodd" stroke="none"/>
    <path d="M-29.35 -6.8 L-29.7 8.7 -30.0 8.95 -34.15 9.05 -34.4 8.95 -34.45 8.75 -34.25 -6.9 -33.95 -7.15 -29.6 -7.1 -29.35 -6.8" fill="#ffffff" fill-rule="evenodd" stroke="none"/>
    <path d="M-18.4 -0.95 Q-19.3 -2.2 -20.65 -2.2 -22.05 -2.2 -22.9 -0.95 -23.7 0.2 -23.7 1.65 -23.7 3.1 -22.9 4.2 -22.05 5.5 -20.65 5.5 -19.3 5.5 -18.4 4.2 -17.6 3.1 -17.6 1.65 -17.6 0.2 -18.4 -0.95 M-13.05 1.55 Q-13.05 4.85 -15.05 7.25 -17.15 9.85 -20.4 9.85 -24.2 9.85 -26.35 7.5 -28.45 5.25 -28.45 1.45 -28.45 -2.3 -26.25 -4.8 -23.95 -7.4 -20.25 -7.4 -16.95 -7.4 -14.9 -4.5 -13.05 -1.9 -13.05 1.55" fill="#ffffff" fill-rule="evenodd" stroke="none"/>
    <path d="M-0.85 -8.05 L-0.2 -3.7 Q-0.15 -3.4 -0.5 -3.4 L-1.0 -3.4 -1.5 -3.45 Q-4.05 -3.45 -5.65 -2.45 -7.55 -1.3 -7.55 1.1 -7.55 2.85 -6.45 3.75 -5.4 4.65 -3.65 4.65 -1.7 4.65 0.45 3.3 0.55 3.2 0.6 3.2 L0.85 3.45 1.6 7.25 1.55 7.45 Q0.75 8.4 -0.95 8.9 L-3.85 9.3 Q-7.6 9.3 -9.95 7.15 -12.4 4.85 -12.4 1.05 -12.4 -3.55 -9.2 -6.05 -6.25 -8.3 -1.45 -8.3 -0.85 -8.3 -0.85 -8.05" fill="#ffffff" fill-rule="evenodd" stroke="none"/>
    <path d="M16.2 -7.3 L16.1 8.2 15.8 8.45 11.6 8.6 Q11.35 8.65 11.35 8.35 L11.35 3.2 7.55 3.2 7.5 8.2 7.25 8.45 3.05 8.6 Q2.75 8.65 2.75 8.35 L2.75 -7.35 3.0 -7.6 7.4 -7.6 7.65 -7.3 7.6 -0.5 11.35 -0.5 11.35 -7.35 11.6 -7.6 15.95 -7.6 16.2 -7.3" fill="#ffffff" fill-rule="evenodd" stroke="none"/>
    <path d="M22.45 -6.8 L22.1 8.7 21.8 8.95 17.6 9.05 17.4 8.95 17.35 8.75 17.55 -6.9 17.8 -7.15 22.2 -7.1 22.45 -6.8" fill="#ffffff" fill-rule="evenodd" stroke="none"/>
    <path d="M27.95 8.9 L26.3 9.25 24.55 8.9 Q23.55 8.4 23.55 7.6 23.55 6.8 24.55 6.35 25.35 6.0 26.25 6.0 L27.95 6.35 Q28.95 6.85 28.95 7.65 28.95 8.45 27.95 8.9" fill="#ffffff" fill-rule="evenodd" stroke="none"/>
    <path d="M30.55 -7.15 L34.9 -7.1 35.2 -6.8 34.8 8.7 34.5 8.95 30.35 9.05 30.15 8.95 30.05 8.75 30.25 -6.9 30.55 -7.15" fill="#ffffff" fill-rule="evenodd" stroke="none"/>
    <path d="M48.55 -6.15 L48.55 -2.95 48.25 -2.7 44.85 -2.7 44.95 9.1 44.7 9.35 40.35 9.45 Q40.05 9.45 40.05 9.15 L40.05 -2.7 36.2 -2.7 Q35.95 -2.7 35.95 -2.95 L35.95 -6.15 36.2 -6.4 48.25 -6.4 48.55 -6.15" fill="#ffffff" fill-rule="evenodd" stroke="none"/>
    <path d="M-36.55 -9.9 Q-35.85 -9.2 -35.7 -8.4 L-35.1 -4.0 Q-35.0 -3.35 -35.2 -2.75 -33.65 -2.15 -33.5 -0.4 L-33.2 7.25 Q-33.2 8.15 -33.75 8.85 L-33.9 9.05 Q-35.2 10.4 -37.55 11.1 L-41.1 11.6 Q-45.8 11.55 -48.8 8.8 -51.9 5.9 -51.95 1.05 -51.9 -4.7 -47.8 -7.9 -44.25 -10.6 -38.65 -10.6 -37.2 -10.55 -36.55 -9.9" fill="#6b2416" fill-rule="evenodd" stroke="none"/>
    <path d="M-27.7 -8.65 Q-27.0 -7.9 -27.0 -6.8 L-27.4 8.75 Q-27.45 9.85 -28.15 10.55 -28.8 11.25 -29.9 11.3 L-34.15 11.35 Q-35.25 11.35 -36.05 10.6 -36.75 9.85 -36.8 8.75 L-36.55 -6.9 Q-36.55 -8.05 -35.85 -8.75 -35.1 -9.45 -33.95 -9.5 L-29.55 -9.45 Q-28.4 -9.35 -27.7 -8.65" fill="#6b2416" fill-rule="evenodd" stroke="none"/>
    <path d="M-10.75 1.55 Q-10.75 5.7 -13.25 8.75 -16.05 12.15 -20.4 12.2 -25.2 12.2 -28.05 9.1 -30.75 6.15 -30.8 1.45 -30.75 -3.2 -28.0 -6.35 -25.0 -9.7 -20.25 -9.7 -15.8 -9.7 -13.0 -5.85 -10.75 -2.65 -10.75 1.55 M-21.0 0.4 Q-21.35 0.95 -21.35 1.65 -21.35 2.35 -21.0 2.9 L-20.65 3.15 -20.3 2.9 Q-19.95 2.35 -19.95 1.65 -19.95 0.95 -20.3 0.4 L-20.65 0.15 -21.0 0.4" fill="#6b2416" fill-rule="evenodd" stroke="none"/>
    <path d="M2.1 -4.0 Q2.3 -2.85 1.55 -1.95 0.75 -1.05 -0.5 -1.05 L-1.15 -1.1 -1.5 -1.1 Q-3.4 -1.1 -4.4 -0.45 -5.25 0.0 -5.2 1.1 -5.15 2.0 -4.95 2.0 L-3.65 2.3 Q-2.4 2.3 -0.8 1.3 L0.6 0.9 Q1.55 0.9 2.25 1.5 2.95 2.05 3.15 3.0 L3.95 7.05 3.95 7.3 Q3.95 8.15 3.4 8.85 L3.3 9.0 Q2.05 10.45 -0.3 11.15 L-3.85 11.65 Q-8.5 11.65 -11.55 8.85 -14.75 5.9 -14.75 1.05 -14.75 -4.7 -10.6 -7.9 -7.05 -10.6 -1.45 -10.6 -0.05 -10.55 0.65 -9.9 1.35 -9.2 1.45 -8.4 L2.1 -4.0" fill="#6b2416" fill-rule="evenodd" stroke="none"/>
    <path d="M17.85 -9.1 Q18.55 -8.4 18.55 -7.3 L18.4 8.2 Q18.4 9.3 17.7 10.0 17.0 10.75 15.9 10.8 L11.6 10.95 Q10.05 10.9 9.35 9.7 8.65 10.7 7.35 10.8 L3.05 10.95 Q1.9 10.95 1.15 10.2 0.4 9.45 0.4 8.35 L0.4 -7.3 Q0.45 -8.45 1.15 -9.2 1.85 -9.9 3.0 -9.95 L7.45 -9.9 Q8.8 -9.75 9.25 -9.1 L9.5 -8.85 Q10.2 -9.9 11.6 -9.95 L16.0 -9.9 16.05 -9.9 Q17.15 -9.85 17.85 -9.1" fill="#6b2416" fill-rule="evenodd" stroke="none"/>
    <path d="M24.1 -8.65 Q24.75 -7.9 24.8 -6.8 L24.4 8.75 Q24.35 9.85 23.65 10.55 22.95 11.25 21.9 11.3 L17.6 11.35 Q16.55 11.35 15.75 10.6 15.0 9.85 15.0 8.75 L15.2 -6.9 Q15.25 -8.05 15.95 -8.75 16.7 -9.45 17.8 -9.5 L22.25 -9.45 Q23.4 -9.35 24.1 -8.65" fill="#6b2416" fill-rule="evenodd" stroke="none"/>
    <path d="M21.25 7.6 Q21.2 6.9 21.65 5.95 22.1 4.95 23.6 4.25 24.85 3.65 26.25 3.65 27.65 3.65 28.95 4.25 30.4 5.05 30.9 6.0 31.3 6.95 31.3 7.65 31.3 8.35 30.9 9.3 30.45 10.25 28.95 11.0 27.7 11.6 26.3 11.6 24.85 11.6 23.55 11.0 22.1 10.25 21.65 9.25 21.2 8.25 21.25 7.6" fill="#6b2416" fill-rule="evenodd" stroke="none"/>
    <path d="M37.5 -6.8 L37.15 8.75 Q37.05 9.85 36.4 10.55 35.7 11.25 34.6 11.3 L30.35 11.35 Q29.25 11.35 28.5 10.6 27.75 9.85 27.7 8.75 L27.95 -6.9 Q27.95 -8.05 28.7 -8.75 29.4 -9.45 30.55 -9.5 L35.0 -9.45 Q36.1 -9.35 36.8 -8.65 37.5 -7.9 37.5 -6.8" fill="#6b2416" fill-rule="evenodd" stroke="none"/>
    <path d="M50.15 -8.0 Q50.85 -7.25 50.9 -6.15 L50.9 -2.95 Q50.85 -1.85 50.15 -1.1 49.4 -0.4 48.25 -0.35 L47.2 -0.35 47.3 9.05 Q47.25 10.15 46.55 10.9 45.85 11.6 44.8 11.7 L40.35 11.8 Q39.2 11.75 38.5 11.05 37.75 10.3 37.75 9.15 L37.75 -0.35 36.2 -0.35 Q35.1 -0.4 34.35 -1.1 33.65 -1.85 33.6 -2.95 L33.6 -6.15 Q33.65 -7.25 34.35 -8.0 35.1 -8.7 36.2 -8.75 L48.25 -8.75 Q49.4 -8.7 50.15 -8.0" fill="#6b2416" fill-rule="evenodd" stroke="none"/>
    <path d="M-36.7 -9.3 L-36.25 -8.3 -35.6 -3.95 Q-35.5 -3.05 -36.05 -2.35 -35.2 -2.3 -34.65 -1.75 -34.05 -1.2 -34.0 -0.35 L-33.75 7.25 Q-33.75 7.95 -34.2 8.55 L-34.25 8.6 -34.3 8.65 Q-35.45 9.95 -37.7 10.55 L-41.1 11.05 Q-45.6 11.05 -48.45 8.4 -51.4 5.65 -51.4 1.05 -51.4 -4.45 -47.45 -7.45 -44.05 -10.05 -38.65 -10.05 -37.15 -10.0 -36.7 -9.3" fill="url(#gradient0)" fill-rule="evenodd" stroke="none"/>
    <path d="M-28.1 -8.25 Q-27.55 -7.7 -27.55 -6.8 L-27.9 8.75 Q-27.95 9.6 -28.5 10.15 -29.05 10.7 -29.9 10.75 L-34.15 10.85 Q-35.05 10.8 -35.65 10.25 -36.25 9.6 -36.25 8.75 L-36.05 -6.9 Q-36.0 -7.8 -35.45 -8.35 -34.85 -8.95 -33.95 -8.95 L-29.55 -8.9 Q-28.65 -8.85 -28.1 -8.25" fill="url(#gradient1)" fill-rule="evenodd" stroke="none"/>
    <path d="M-11.25 1.55 Q-11.25 5.5 -13.65 8.4 -16.3 11.6 -20.4 11.65 -24.95 11.65 -27.65 8.75 -30.25 5.95 -30.25 1.45 -30.25 -2.95 -27.6 -5.95 -24.75 -9.15 -20.25 -9.2 -16.05 -9.15 -13.45 -5.55 -11.25 -2.45 -11.25 1.55 M-21.45 0.1 Q-21.9 0.75 -21.9 1.65 -21.9 2.55 -21.45 3.2 -21.0 3.8 -20.65 3.7 L-19.85 3.2 Q-19.4 2.5 -19.4 1.65 -19.4 0.8 -19.85 0.1 L-20.65 -0.4 Q-21.0 -0.5 -21.45 0.1" fill="url(#gradient2)" fill-rule="evenodd" stroke="none"/>
    <path d="M0.5 -9.3 L0.95 -8.3 1.6 -3.95 Q1.7 -3.0 1.15 -2.3 0.5 -1.6 -0.5 -1.6 L-1.1 -1.6 -1.5 -1.65 Q-3.55 -1.65 -4.7 -0.95 -5.75 -0.3 -5.75 1.1 -5.7 2.2 -5.3 2.4 -4.75 2.85 -3.65 2.85 -2.25 2.85 -0.5 1.8 L-0.5 1.75 Q0.05 1.45 0.6 1.45 2.2 1.55 2.65 3.1 L3.4 7.1 3.4 7.3 Q3.4 8.0 3.0 8.55 L2.9 8.65 Q1.75 9.95 -0.45 10.6 L-3.85 11.1 Q-8.3 11.1 -11.2 8.45 -14.2 5.65 -14.2 1.05 -14.2 -4.45 -10.3 -7.45 -6.85 -10.05 -1.45 -10.05 0.0 -10.0 0.5 -9.3" fill="url(#gradient3)" fill-rule="evenodd" stroke="none"/>
    <path d="M17.45 -8.75 Q18.0 -8.2 18.0 -7.3 L17.9 8.2 Q17.85 9.05 17.3 9.65 16.75 10.2 15.85 10.25 L11.6 10.4 Q10.7 10.4 10.15 9.85 9.55 9.25 9.55 8.35 L9.55 8.1 9.3 8.1 9.3 8.2 Q9.25 9.05 8.7 9.65 8.15 10.2 7.3 10.25 L3.0 10.4 Q2.15 10.4 1.55 9.85 0.95 9.2 0.95 8.35 L0.95 -7.3 Q0.95 -8.2 1.55 -8.8 2.1 -9.35 3.0 -9.4 L7.4 -9.35 7.45 -9.35 Q8.5 -9.25 8.9 -8.75 9.45 -8.15 9.45 -7.3 L9.55 -7.3 Q9.55 -8.2 10.15 -8.8 10.7 -9.35 11.6 -9.4 L16.0 -9.35 Q16.9 -9.3 17.45 -8.75" fill="url(#gradient4)" fill-rule="evenodd" stroke="none"/>
    <path d="M23.7 -8.25 Q24.25 -7.7 24.25 -6.8 L23.9 8.75 Q23.85 9.6 23.3 10.15 22.75 10.7 21.9 10.75 L17.6 10.85 Q16.75 10.8 16.15 10.25 15.55 9.6 15.55 8.75 L15.75 -6.9 Q15.8 -7.8 16.35 -8.35 16.9 -8.95 17.8 -8.95 L22.25 -8.9 Q23.15 -8.85 23.7 -8.25" fill="url(#gradient5)" fill-rule="evenodd" stroke="none"/>
    <path d="M21.8 7.6 Q21.75 7.0 22.15 6.2 22.55 5.35 23.85 4.7 25.0 4.2 26.25 4.2 27.55 4.2 28.7 4.75 30.0 5.4 30.4 6.25 L30.75 7.65 30.4 9.05 Q30.0 9.85 28.75 10.55 L26.3 11.05 Q24.95 11.05 23.8 10.5 22.5 9.85 22.15 9.0 21.75 8.15 21.8 7.6" fill="url(#gradient6)" fill-rule="evenodd" stroke="none"/>
    <path d="M36.95 -6.8 L36.6 8.75 Q36.55 9.6 36.0 10.15 35.45 10.7 34.6 10.75 L30.35 10.85 Q29.45 10.8 28.85 10.25 28.25 9.6 28.25 8.75 L28.5 -6.9 Q28.5 -7.8 29.05 -8.35 29.65 -8.95 30.55 -8.95 L34.95 -8.9 Q35.85 -8.85 36.4 -8.25 36.95 -7.7 36.95 -6.8" fill="url(#gradient7)" fill-rule="evenodd" stroke="none"/>
    <path d="M49.75 -7.6 Q50.3 -7.0 50.35 -6.15 L50.35 -2.95 Q50.3 -2.05 49.75 -1.5 49.15 -0.9 48.25 -0.9 L46.65 -0.9 46.75 9.05 Q46.75 9.95 46.15 10.55 45.6 11.1 44.75 11.15 L40.35 11.25 Q39.45 11.25 38.85 10.65 38.3 10.1 38.25 9.15 L38.25 -0.9 36.2 -0.9 Q35.3 -0.9 34.75 -1.5 34.15 -2.05 34.15 -2.95 L34.15 -6.15 Q34.15 -7.05 34.75 -7.6 35.3 -8.15 36.2 -8.2 L48.25 -8.2 Q49.15 -8.15 49.75 -7.6" fill="url(#gradient8)" fill-rule="evenodd" stroke="none"/>
    <path d="M-38.15 -8.5 L-37.75 -8.1 -37.1 -3.7 Q-37.1 -3.4 -37.25 -3.3 -37.35 -3.1 -37.7 -3.1 L-38.2 -3.15 -38.7 -3.15 Q-41.2 -3.15 -42.7 -2.2 -44.45 -1.05 -44.45 1.25 -44.5 4.5 -41.7 4.5 L-40.7 4.4 -40.7 2.9 -41.6 2.9 -42.5 2.95 -42.9 2.75 -43.05 2.35 -43.0 0.1 Q-43.0 -0.35 -42.5 -0.4 L-36.1 -0.8 -36.05 -0.85 Q-35.6 -0.8 -35.55 -0.3 L-35.3 7.2 -35.4 7.6 Q-36.3 8.55 -38.1 9.1 L-41.1 9.5 Q-45.0 9.5 -47.4 7.3 -49.85 5.0 -49.85 1.05 -49.85 -3.7 -46.55 -6.25 -43.55 -8.55 -38.65 -8.55 L-38.15 -8.5" fill="#e7680d" fill-rule="evenodd" stroke="none"/>
    <path d="M-29.05 -6.8 L-29.45 8.7 Q-29.45 9.2 -30.0 9.25 L-34.15 9.3 -34.55 9.15 -34.75 8.75 -34.5 -6.9 Q-34.5 -7.4 -33.95 -7.45 L-29.6 -7.35 Q-29.1 -7.35 -29.05 -6.8" fill="#e7680d" fill-rule="evenodd" stroke="none"/>
    <path d="M-18.6 -0.75 Q-19.4 -1.95 -20.65 -1.9 -21.9 -1.95 -22.7 -0.75 -23.4 0.3 -23.45 1.65 -23.4 3.0 -22.7 4.05 -21.9 5.25 -20.65 5.25 -19.4 5.25 -18.6 4.05 -17.9 3.0 -17.9 1.65 -17.9 0.3 -18.6 -0.75 M-12.8 1.55 Q-12.8 4.95 -14.85 7.45 -17.0 10.1 -20.4 10.15 -24.3 10.1 -26.55 7.7 -28.7 5.35 -28.7 1.45 -28.7 -2.4 -26.45 -4.95 -24.05 -7.65 -20.25 -7.65 -16.85 -7.65 -14.7 -4.65 -12.8 -1.95 -12.8 1.55" fill="#e7680d" fill-rule="evenodd" stroke="none"/>
    <path d="M-0.95 -8.5 L-0.55 -8.1 0.1 -3.7 -0.05 -3.3 -0.5 -3.1 -1.0 -3.15 -1.5 -3.15 Q-3.95 -3.15 -5.5 -2.25 -7.25 -1.15 -7.25 1.1 -7.25 2.7 -6.25 3.55 -5.3 4.35 -3.65 4.35 -1.8 4.35 0.3 3.05 L0.6 2.95 Q1.05 2.95 1.15 3.4 L1.9 7.25 1.75 7.6 1.75 7.65 Q0.9 8.6 -0.85 9.15 L-3.85 9.6 Q-7.7 9.6 -10.15 7.35 -12.65 5.0 -12.65 1.05 -12.65 -3.7 -9.35 -6.25 -6.35 -8.55 -1.45 -8.55 L-0.95 -8.5" fill="#e7680d" fill-rule="evenodd" stroke="none"/>
    <path d="M16.5 -7.3 L16.35 8.2 Q16.35 8.7 15.8 8.75 L11.6 8.9 Q11.1 8.85 11.05 8.35 L11.05 3.45 7.8 3.45 7.75 8.2 Q7.75 8.7 7.25 8.75 L3.0 8.9 Q2.75 8.9 2.6 8.75 L2.45 8.35 2.45 -7.3 Q2.5 -7.85 3.0 -7.85 L7.4 -7.85 7.8 -7.7 7.9 -7.3 7.85 -0.8 11.05 -0.8 11.05 -7.3 Q11.1 -7.85 11.6 -7.85 L15.95 -7.85 Q16.5 -7.8 16.5 -7.3" fill="#e7680d" fill-rule="evenodd" stroke="none"/>
    <path d="M22.75 -6.8 L22.35 8.7 21.8 9.25 17.6 9.3 17.2 9.15 17.05 8.75 17.3 -6.9 Q17.3 -7.4 17.8 -7.45 L22.2 -7.35 Q22.7 -7.35 22.75 -6.8" fill="#e7680d" fill-rule="evenodd" stroke="none"/>
    <path d="M29.2 7.65 Q29.2 8.6 28.1 9.15 L26.3 9.55 24.45 9.15 Q23.3 8.6 23.3 7.6 23.3 6.65 24.45 6.1 25.3 5.7 26.25 5.7 27.2 5.7 28.05 6.15 29.2 6.65 29.2 7.65" fill="#e7680d" fill-rule="evenodd" stroke="none"/>
    <path d="M30.55 -7.45 L34.9 -7.35 Q35.45 -7.35 35.45 -6.8 L35.05 8.7 Q35.05 9.2 34.55 9.25 L30.35 9.3 29.95 9.15 29.8 8.75 30.0 -6.9 Q30.0 -7.4 30.55 -7.45" fill="#e7680d" fill-rule="evenodd" stroke="none"/>
    <path d="M48.8 -6.15 L48.8 -2.95 Q48.8 -2.45 48.25 -2.4 L45.15 -2.4 45.2 9.1 Q45.2 9.6 44.7 9.65 L40.35 9.7 Q39.8 9.7 39.8 9.15 L39.8 -2.4 36.2 -2.4 Q35.7 -2.45 35.65 -2.95 L35.65 -6.15 Q35.7 -6.65 36.2 -6.65 L48.25 -6.65 Q48.8 -6.65 48.8 -6.15" fill="#e7680d" fill-rule="evenodd" stroke="none"/>
    <path d="M-38.05 -8.05 L-37.4 -3.7 Q-37.35 -3.4 -37.7 -3.4 L-38.2 -3.4 -38.7 -3.45 Q-41.3 -3.45 -42.85 -2.4 -44.75 -1.2 -44.75 1.25 -44.75 4.75 -41.7 4.75 L-40.4 4.6 -40.45 2.6 -42.5 2.65 -42.7 2.6 -42.8 2.35 -42.75 0.15 -42.5 -0.15 -36.1 -0.55 Q-35.85 -0.6 -35.8 -0.3 L-35.55 7.25 -35.6 7.45 Q-36.45 8.35 -38.2 8.85 L-41.1 9.25 Q-44.9 9.25 -47.2 7.1 -49.6 4.85 -49.6 1.05 -49.6 -3.55 -46.4 -6.05 -43.45 -8.3 -38.65 -8.3 -38.05 -8.3 -38.05 -8.05" fill="#ffffff" fill-rule="evenodd" stroke="none"/>
    <path d="M-29.35 -6.8 L-29.7 8.7 -30.0 8.95 -34.15 9.05 -34.4 8.95 -34.45 8.75 -34.25 -6.9 -33.95 -7.15 -29.6 -7.1 -29.35 -6.8" fill="#ffffff" fill-rule="evenodd" stroke="none"/>
    <path d="M-18.4 -0.95 Q-19.3 -2.2 -20.65 -2.2 -22.05 -2.2 -22.9 -0.95 -23.7 0.2 -23.7 1.65 -23.7 3.1 -22.9 4.2 -22.05 5.5 -20.65 5.5 -19.3 5.5 -18.4 4.2 -17.6 3.1 -17.6 1.65 -17.6 0.2 -18.4 -0.95 M-13.05 1.55 Q-13.05 4.85 -15.05 7.25 -17.15 9.85 -20.4 9.85 -24.2 9.85 -26.35 7.55 -28.45 5.25 -28.45 1.45 -28.45 -2.3 -26.25 -4.8 -23.95 -7.4 -20.25 -7.4 -16.95 -7.4 -14.9 -4.5 -13.05 -1.9 -13.05 1.55" fill="#ffffff" fill-rule="evenodd" stroke="none"/>
    <path d="M-0.85 -8.05 L-0.2 -3.7 Q-0.15 -3.4 -0.5 -3.4 L-1.0 -3.4 -1.5 -3.45 Q-4.05 -3.45 -5.65 -2.45 -7.55 -1.3 -7.55 1.1 -7.55 2.85 -6.45 3.75 -5.4 4.65 -3.65 4.65 -1.7 4.65 0.45 3.3 0.55 3.2 0.6 3.2 L0.85 3.45 1.6 7.25 1.55 7.45 Q0.75 8.4 -0.95 8.9 L-3.85 9.3 Q-7.6 9.3 -9.95 7.15 -12.4 4.85 -12.4 1.05 -12.4 -3.55 -9.2 -6.05 -6.25 -8.3 -1.45 -8.3 -0.85 -8.3 -0.85 -8.05" fill="#ffffff" fill-rule="evenodd" stroke="none"/>
    <path d="M16.2 -7.3 L16.1 8.2 15.8 8.45 11.6 8.65 11.35 8.35 11.35 3.2 7.55 3.2 7.5 8.2 7.25 8.45 3.05 8.65 Q2.75 8.65 2.75 8.35 L2.75 -7.3 Q2.75 -7.6 3.0 -7.6 L7.4 -7.6 7.65 -7.3 7.6 -0.5 11.35 -0.5 11.35 -7.3 11.6 -7.6 15.95 -7.6 16.2 -7.3" fill="#ffffff" fill-rule="evenodd" stroke="none"/>
    <path d="M22.45 -6.8 L22.1 8.7 21.8 8.95 17.6 9.05 17.4 8.95 17.35 8.75 17.55 -6.9 17.8 -7.15 22.2 -7.1 22.45 -6.8" fill="#ffffff" fill-rule="evenodd" stroke="none"/>
    <path d="M27.95 8.9 L26.3 9.25 24.55 8.9 Q23.55 8.4 23.55 7.6 23.55 6.8 24.55 6.35 25.35 6.0 26.25 6.0 L27.95 6.35 Q28.95 6.85 28.95 7.65 28.95 8.45 27.95 8.9" fill="#ffffff" fill-rule="evenodd" stroke="none"/>
    <path d="M30.55 -7.15 L34.9 -7.1 35.2 -6.8 34.8 8.7 34.5 8.95 30.35 9.05 30.15 8.95 30.05 8.75 30.25 -6.9 30.55 -7.15" fill="#ffffff" fill-rule="evenodd" stroke="none"/>
    <path d="M48.55 -6.15 L48.55 -2.95 48.25 -2.7 44.85 -2.7 44.95 9.1 44.7 9.35 40.35 9.45 Q40.05 9.45 40.05 9.15 L40.05 -2.7 36.2 -2.7 Q35.95 -2.7 35.95 -2.95 L35.95 -6.15 36.2 -6.4 48.25 -6.4 48.55 -6.15" fill="#ffffff" fill-rule="evenodd" stroke="none"/>
  </g>
  <defs>
    <linearGradient color-interpolation="linearRGB" gradientTransform="matrix(0.0, 0.0137, -0.0137, 0.0, -42.6, 0.5)" gradientUnits="userSpaceOnUse" id="gradient0" spreadMethod="reflect" x1="-819.2" x2="819.2">
      <stop offset="0.0" stop-color="#f5b100"/>
      <stop offset="0.5686274509803921" stop-color="#db2e19"/>
      <stop offset="1.0" stop-color="#b91c1d"/>
    </linearGradient>
    <linearGradient color-interpolation="linearRGB" gradientTransform="matrix(0.0, 0.0137, -0.0137, 0.0, -31.9, 0.5)" gradientUnits="userSpaceOnUse" id="gradient1" spreadMethod="reflect" x1="-819.2" x2="819.2">
      <stop offset="0.0" stop-color="#f5b100"/>
      <stop offset="0.5686274509803921" stop-color="#db2e19"/>
      <stop offset="1.0" stop-color="#b91c1d"/>
    </linearGradient>
    <linearGradient color-interpolation="linearRGB" gradientTransform="matrix(0.0, 0.0137, -0.0137, 0.0, -20.75, 0.5)" gradientUnits="userSpaceOnUse" id="gradient2" spreadMethod="reflect" x1="-819.2" x2="819.2">
      <stop offset="0.0" stop-color="#f5b100"/>
      <stop offset="0.5686274509803921" stop-color="#db2e19"/>
      <stop offset="1.0" stop-color="#b91c1d"/>
    </linearGradient>
    <linearGradient color-interpolation="linearRGB" gradientTransform="matrix(0.0, 0.0137, -0.0137, 0.0, -5.4, 0.5)" gradientUnits="userSpaceOnUse" id="gradient3" spreadMethod="reflect" x1="-819.2" x2="819.2">
      <stop offset="0.0" stop-color="#f5b100"/>
      <stop offset="0.5686274509803921" stop-color="#db2e19"/>
      <stop offset="1.0" stop-color="#b91c1d"/>
    </linearGradient>
    <linearGradient color-interpolation="linearRGB" gradientTransform="matrix(0.0, 0.0137, -0.0137, 0.0, 9.5, 0.5)" gradientUnits="userSpaceOnUse" id="gradient4" spreadMethod="reflect" x1="-819.2" x2="819.2">
      <stop offset="0.0" stop-color="#f5b100"/>
      <stop offset="0.5686274509803921" stop-color="#db2e19"/>
      <stop offset="1.0" stop-color="#b91c1d"/>
    </linearGradient>
    <linearGradient color-interpolation="linearRGB" gradientTransform="matrix(0.0, 0.0137, -0.0137, 0.0, 19.9, 0.5)" gradientUnits="userSpaceOnUse" id="gradient5" spreadMethod="reflect" x1="-819.2" x2="819.2">
      <stop offset="0.0" stop-color="#f5b100"/>
      <stop offset="0.5686274509803921" stop-color="#db2e19"/>
      <stop offset="1.0" stop-color="#b91c1d"/>
    </linearGradient>
    <linearGradient color-interpolation="linearRGB" gradientTransform="matrix(0.0, 0.0137, -0.0137, 0.0, 26.25, 0.5)" gradientUnits="userSpaceOnUse" id="gradient6" spreadMethod="reflect" x1="-819.2" x2="819.2">
      <stop offset="0.0" stop-color="#f5b100"/>
      <stop offset="0.5686274509803921" stop-color="#db2e19"/>
      <stop offset="1.0" stop-color="#b91c1d"/>
    </linearGradient>
    <linearGradient color-interpolation="linearRGB" gradientTransform="matrix(0.0, 0.0137, -0.0137, 0.0, 32.6, 0.5)" gradientUnits="userSpaceOnUse" id="gradient7" spreadMethod="reflect" x1="-819.2" x2="819.2">
      <stop offset="0.0" stop-color="#f5b100"/>
      <stop offset="0.5686274509803921" stop-color="#db2e19"/>
      <stop offset="1.0" stop-color="#b91c1d"/>
    </linearGradient>
    <linearGradient color-interpolation="linearRGB" gradientTransform="matrix(0.0, 0.0137, -0.0137, 0.0, 42.25, 0.5)" gradientUnits="userSpaceOnUse" id="gradient8" spreadMethod="reflect" x1="-819.2" x2="819.2">
      <stop offset="0.0" stop-color="#f5b100"/>
      <stop offset="0.5686274509803921" stop-color="#db2e19"/>
      <stop offset="1.0" stop-color="#b91c1d"/>
    </linearGradient>
  </defs>
</svg>
