<?xml version="1.0" encoding="UTF-8" standalone="no"?>
<svg xmlns:ffdec="https://www.free-decompiler.com/flash" xmlns:xlink="http://www.w3.org/1999/xlink" ffdec:objectType="shape" height="23.2px" width="135.15px" xmlns="http://www.w3.org/2000/svg">
  <g transform="matrix(1.0, 0.0, 0.0, 1.0, 50.55, -3.85)">
    <path d="M73.05 11.95 L73.05 24.05 80.85 24.05 82.1 18.65 78.45 18.65 78.45 6.75 73.05 6.75 71.85 11.95 73.05 11.95 M65.35 12.05 Q65.9 12.05 66.15 12.5 L66.45 13.5 66.15 14.65 Q65.8 15.2 65.2 15.2 L64.15 15.2 64.15 12.05 65.35 12.05 M65.15 6.75 L58.75 6.75 57.55 11.9 58.75 11.9 58.75 24.05 64.15 24.05 64.15 20.3 65.8 20.3 Q68.4 20.3 70.2 18.2 71.8 16.2 71.8 13.6 71.8 10.55 70.0 8.65 68.2 6.75 65.15 6.75 M41.85 6.75 L35.75 6.75 40.95 16.25 40.95 24.05 46.3 24.05 46.3 16.25 51.3 6.75 45.35 6.75 43.55 10.5 41.85 6.75 M52.15 19.6 L51.55 20.5 Q51.3 21.05 51.3 21.65 L51.55 22.8 52.15 23.7 53.05 24.3 54.2 24.55 Q55.35 24.55 56.25 23.7 57.1 22.85 57.1 21.65 57.1 20.45 56.25 19.6 55.4 18.75 54.2 18.75 L53.05 18.95 Q52.55 19.2 52.15 19.6 M21.95 11.85 L21.95 24.05 27.35 24.05 27.35 18.95 29.7 24.05 36.15 24.05 33.15 18.45 Q36.0 16.6 36.0 13.0 36.0 10.25 34.2 8.5 32.45 6.75 29.7 6.75 L21.95 6.75 20.75 11.85 21.95 11.85 M28.65 11.8 Q30.5 11.8 30.5 13.25 30.5 14.65 28.65 14.65 L27.35 14.65 27.35 11.8 28.65 11.8 M20.6 14.7 L20.6 14.35 20.5 13.3 12.45 13.3 11.25 17.8 14.05 17.8 Q13.2 19.0 11.7 19.0 10.0 19.0 8.95 18.1 7.8 17.1 7.8 15.5 7.8 13.95 8.85 12.95 9.85 11.9 11.4 11.9 L13.45 12.4 14.4 12.85 18.25 8.75 14.5 6.75 14.15 7.05 Q12.95 6.35 11.25 6.35 8.05 6.35 5.35 8.75 2.35 11.4 2.35 15.2 2.35 19.2 5.0 21.8 7.7 24.35 11.65 24.35 15.35 24.35 18.0 21.55 20.6 18.75 20.6 15.05 L20.6 14.7 M1.15 6.75 L-4.15 6.75 -5.4 11.85 -4.2 11.85 -4.2 24.05 1.15 24.05 1.15 6.75 M-15.4 16.35 L-10.5 24.05 -6.15 24.05 -6.15 6.75 -11.55 6.75 -11.55 12.65 -15.35 6.75 -20.8 6.75 -22.0 11.4 -20.8 11.4 -20.8 24.05 -15.4 24.05 -15.4 16.35 M-28.1 11.85 L-28.1 24.05 -22.75 24.05 -22.75 6.75 -28.05 6.75 -29.3 11.85 -28.1 11.85 M-38.25 10.4 L-41.4 6.75 -46.85 6.75 -48.05 12.05 -46.85 12.05 -46.85 24.05 -41.45 24.05 -41.45 14.7 -38.2 18.15 -35.1 14.4 -35.1 24.05 -30.05 24.05 -30.05 6.75 -35.4 6.75 -38.25 10.4 Z" fill="none" stroke="#000000" stroke-linecap="round" stroke-linejoin="round" stroke-width="5.0"/>
    <path d="M73.05 11.95 L73.05 24.05 80.85 24.05 82.1 18.65 78.45 18.65 78.45 6.75 73.05 6.75 71.85 11.95 73.05 11.95 M65.35 12.05 Q65.9 12.05 66.15 12.5 L66.45 13.5 66.15 14.65 Q65.8 15.2 65.2 15.2 L64.15 15.2 64.15 12.05 65.35 12.05 M65.15 6.75 L58.75 6.75 57.55 11.9 58.75 11.9 58.75 24.05 64.15 24.05 64.15 20.3 65.8 20.3 Q68.4 20.3 70.2 18.2 71.8 16.2 71.8 13.6 71.8 10.55 70.0 8.65 68.2 6.75 65.15 6.75 M41.85 6.75 L35.75 6.75 40.95 16.25 40.95 24.05 46.3 24.05 46.3 16.25 51.3 6.75 45.35 6.75 43.55 10.5 41.85 6.75 M52.15 19.6 L51.55 20.5 Q51.3 21.05 51.3 21.65 L51.55 22.8 52.15 23.7 53.05 24.3 54.2 24.55 Q55.35 24.55 56.25 23.7 57.1 22.85 57.1 21.65 57.1 20.45 56.25 19.6 55.4 18.75 54.2 18.75 L53.05 18.95 Q52.55 19.2 52.15 19.6 M21.95 11.85 L21.95 24.05 27.35 24.05 27.35 18.95 29.7 24.05 36.15 24.05 33.15 18.45 Q36.0 16.6 36.0 13.0 36.0 10.25 34.2 8.5 32.45 6.75 29.7 6.75 L21.95 6.75 20.75 11.85 21.95 11.85 M28.65 11.8 Q30.5 11.8 30.5 13.25 30.5 14.65 28.65 14.65 L27.35 14.65 27.35 11.8 28.65 11.8 M20.6 14.7 L20.6 14.35 20.5 13.3 12.45 13.3 11.25 17.8 14.05 17.8 Q13.2 19.0 11.7 19.0 10.0 19.0 8.95 18.1 7.8 17.1 7.8 15.5 7.8 13.95 8.85 12.95 9.85 11.9 11.4 11.9 L13.45 12.4 14.4 12.85 18.25 8.75 14.5 6.75 14.15 7.05 Q12.95 6.35 11.25 6.35 8.05 6.35 5.35 8.75 2.35 11.4 2.35 15.2 2.35 19.2 5.0 21.8 7.7 24.35 11.65 24.35 15.35 24.35 18.0 21.55 20.6 18.75 20.6 15.05 L20.6 14.7 M1.15 6.75 L-4.15 6.75 -5.4 11.85 -4.2 11.85 -4.2 24.05 1.15 24.05 1.15 6.75 M-15.4 16.35 L-10.5 24.05 -6.15 24.05 -6.15 6.75 -11.55 6.75 -11.55 12.65 -15.35 6.75 -20.8 6.75 -22.0 11.4 -20.8 11.4 -20.8 24.05 -15.4 24.05 -15.4 16.35 M-28.1 11.85 L-28.1 24.05 -22.75 24.05 -22.75 6.75 -28.05 6.75 -29.3 11.85 -28.1 11.85 M-38.25 10.4 L-41.4 6.75 -46.85 6.75 -48.05 12.05 -46.85 12.05 -46.85 24.05 -41.45 24.05 -41.45 14.7 -38.2 18.15 -35.1 14.4 -35.1 24.05 -30.05 24.05 -30.05 6.75 -35.4 6.75 -38.25 10.4 Z" fill="none" stroke="#ffffff" stroke-linecap="round" stroke-linejoin="round" stroke-width="3.0"/>
    <path d="M-38.25 10.4 L-35.4 6.75 -30.05 6.75 -30.05 24.05 -35.1 24.05 -35.1 14.4 -38.2 18.15 -41.45 14.7 -41.45 24.05 -46.85 24.05 -46.85 12.05 -48.05 12.05 -46.85 6.75 -41.4 6.75 -38.25 10.4 M-29.3 11.85 L-28.05 6.75 -22.75 6.75 -22.75 24.05 -28.1 24.05 -28.1 11.85 -29.3 11.85 M-15.4 16.35 L-15.4 24.05 -20.8 24.05 -20.8 11.4 -22.0 11.4 -20.8 6.75 -15.35 6.75 -11.55 12.65 -11.55 6.75 -6.15 6.75 -6.15 24.05 -10.5 24.05 -15.4 16.35 M1.15 6.75 L1.15 24.05 -4.2 24.05 -4.2 11.85 -5.4 11.85 -4.15 6.75 1.15 6.75 M20.6 14.7 L20.6 15.05 Q20.6 18.75 18.0 21.55 15.35 24.35 11.65 24.35 7.7 24.35 5.0 21.8 2.35 19.2 2.35 15.2 2.35 11.4 5.35 8.75 8.05 6.35 11.25 6.35 12.95 6.35 14.15 7.05 L14.5 6.75 18.25 8.75 14.4 12.85 13.45 12.4 11.4 11.9 Q9.85 11.9 8.85 12.95 7.8 13.95 7.8 15.5 7.8 17.1 8.95 18.1 10.0 19.0 11.7 19.0 13.2 19.0 14.05 17.8 L11.25 17.8 12.45 13.3 20.5 13.3 20.6 14.35 20.6 14.7 M28.65 11.8 L27.35 11.8 27.35 14.65 28.65 14.65 Q30.5 14.65 30.5 13.25 30.5 11.8 28.65 11.8 M21.95 11.85 L20.75 11.85 21.95 6.75 29.7 6.75 Q32.45 6.75 34.2 8.5 36.0 10.25 36.0 13.0 36.0 16.6 33.15 18.45 L36.15 24.05 29.7 24.05 27.35 18.95 27.35 24.05 21.95 24.05 21.95 11.85 M52.15 19.6 Q52.55 19.2 53.05 18.95 L54.2 18.75 Q55.4 18.75 56.25 19.6 57.1 20.45 57.1 21.65 57.1 22.85 56.25 23.7 55.35 24.55 54.2 24.55 L53.05 24.3 52.15 23.7 51.55 22.8 51.3 21.65 Q51.3 21.05 51.55 20.5 L52.15 19.6 M41.85 6.75 L43.55 10.5 45.35 6.75 51.3 6.75 46.3 16.25 46.3 24.05 40.95 24.05 40.95 16.25 35.75 6.75 41.85 6.75 M65.15 6.75 Q68.2 6.75 70.0 8.65 71.8 10.55 71.8 13.6 71.8 16.2 70.2 18.2 68.4 20.3 65.8 20.3 L64.15 20.3 64.15 24.05 58.75 24.05 58.75 11.9 57.55 11.9 58.75 6.75 65.15 6.75 M65.35 12.05 L64.15 12.05 64.15 15.2 65.2 15.2 Q65.8 15.2 66.15 14.65 L66.45 13.5 66.15 12.5 Q65.9 12.05 65.35 12.05 M73.05 11.95 L71.85 11.95 73.05 6.75 78.45 6.75 78.45 18.65 82.1 18.65 80.85 24.05 73.05 24.05 73.05 11.95" fill="url(#gradient0)" fill-rule="evenodd" stroke="none"/>
  </g>
  <defs>
    <linearGradient gradientTransform="matrix(0.0, 0.0104, -0.0794, 0.0, 17.05, 16.25)" gradientUnits="userSpaceOnUse" id="gradient0" spreadMethod="pad" x1="-819.2" x2="819.2">
      <stop offset="0.0" stop-color="#ffc234"/>
      <stop offset="0.7215686274509804" stop-color="#ff3930"/>
    </linearGradient>
  </defs>
</svg>
