<?xml version="1.0" encoding="UTF-8" standalone="no"?>
<svg xmlns:ffdec="https://www.free-decompiler.com/flash" xmlns:xlink="http://www.w3.org/1999/xlink" ffdec:objectType="shape" height="23.55px" width="161.95px" xmlns="http://www.w3.org/2000/svg">
  <g transform="matrix(1.0, 0.0, 0.0, 1.0, 66.25, 10.7)">
    <path d="M0.2 -2.35 L1.4 -2.35 1.4 4.05 Q1.4 6.3 2.95 8.05 4.8 10.15 8.25 10.15 11.45 10.15 13.45 8.55 15.6 6.85 15.6 3.7 L15.6 -7.45 10.2 -7.45 10.2 3.05 Q10.2 4.75 8.4 4.75 L7.25 4.4 Q6.8 4.0 6.8 3.35 L6.8 -7.45 1.4 -7.45 0.2 -2.35 M17.5 -2.8 L17.5 9.85 22.9 9.85 22.9 2.15 27.8 9.85 32.15 9.85 32.15 -7.45 26.75 -7.45 26.75 -1.55 22.95 -7.45 17.5 -7.45 16.3 -2.8 17.5 -2.8 M42.6 -4.6 Q40.4 -1.85 40.4 1.15 40.4 4.9 43.1 7.5 45.8 10.05 49.6 10.05 53.15 10.05 55.6 7.85 L53.2 2.9 Q51.45 4.6 49.75 4.6 L48.3 4.35 47.1 3.55 46.35 2.4 Q46.05 1.7 46.05 0.9 46.05 -0.55 47.2 -1.5 48.35 -2.5 49.75 -2.5 L51.6 -2.0 53.25 -0.9 55.8 -6.55 51.45 -8.2 51.1 -7.65 49.95 -7.75 48.95 -7.8 Q45.1 -7.8 42.6 -4.6 M75.2 -2.15 L76.4 -2.15 76.4 9.85 81.8 9.85 81.8 0.5 85.05 3.95 88.15 0.2 88.15 9.85 93.2 9.85 93.2 -7.45 87.85 -7.45 85.0 -3.8 81.85 -7.45 76.4 -7.45 75.2 -2.15 M65.85 -2.3 Q67.35 -2.3 68.3 -1.3 69.25 -0.25 69.25 1.2 L69.0 2.55 68.3 3.6 Q67.85 4.1 67.2 4.35 L65.85 4.6 64.4 4.35 63.25 3.65 62.5 2.5 Q62.25 1.9 62.25 1.1 62.25 -0.4 63.3 -1.35 64.4 -2.3 65.85 -2.3 M65.9 -7.8 Q61.7 -7.8 58.95 -4.9 56.45 -2.35 56.45 0.85 56.45 5.0 59.1 7.55 61.8 10.1 65.95 10.1 70.05 10.1 72.75 7.2 75.1 4.65 75.1 1.5 75.1 -2.35 72.45 -5.05 69.8 -7.8 65.9 -7.8 M36.6 4.55 L35.45 4.75 34.55 5.4 33.95 6.3 Q33.7 6.85 33.7 7.45 L33.95 8.6 34.55 9.5 35.45 10.1 36.6 10.35 Q37.75 10.35 38.65 9.5 39.5 8.65 39.5 7.45 39.5 6.25 38.65 5.4 37.8 4.55 36.6 4.55 M-59.9 -7.45 L-61.6 -2.8 -60.35 -2.8 -63.75 9.85 -58.2 9.85 -57.5 7.45 -52.6 7.45 -52.1 9.85 -46.4 9.85 -51.3 -7.45 -59.9 -7.45 M-46.3 -2.4 Q-46.3 0.05 -44.45 1.45 -43.45 2.2 -41.1 3.0 -39.25 3.6 -39.25 4.2 -39.25 5.0 -40.4 5.0 L-42.75 4.5 -45.0 3.5 -46.35 8.5 Q-43.35 10.2 -40.35 10.2 -37.45 10.2 -35.55 8.7 -33.55 7.05 -33.55 4.25 -33.55 1.8 -35.35 0.35 -36.35 -0.4 -38.65 -1.2 -40.5 -1.8 -40.5 -2.3 -40.5 -3.1 -39.25 -3.1 L-37.25 -2.65 -35.3 -1.85 -33.75 -7.3 -38.3 -8.2 -38.45 -7.65 -39.2 -7.75 -39.65 -7.75 -40.45 -7.75 Q-43.05 -7.75 -44.65 -6.4 -46.3 -4.95 -46.3 -2.4 M-20.85 -1.3 Q-19.9 -0.25 -19.9 1.2 L-20.15 2.55 -20.85 3.6 -21.95 4.35 -23.3 4.6 -24.75 4.35 Q-25.4 4.1 -25.9 3.65 L-26.65 2.5 -26.9 1.1 Q-26.9 -0.4 -25.85 -1.35 -24.75 -2.3 -23.3 -2.3 -21.8 -2.3 -20.85 -1.3 M-30.2 -4.9 Q-32.7 -2.35 -32.7 0.85 -32.7 5.0 -30.05 7.55 -27.35 10.1 -23.2 10.1 -19.1 10.1 -16.4 7.2 -14.05 4.65 -14.05 1.5 -14.05 -2.35 -16.7 -5.05 -19.35 -7.8 -23.25 -7.8 -27.45 -7.8 -30.2 -4.9 M-14.5 -7.45 L-9.3 2.05 -9.3 9.85 -3.95 9.85 -3.95 2.05 1.05 -7.45 -4.9 -7.45 -6.7 -3.7 -8.4 -7.45 -14.5 -7.45 M-56.4 2.9 L-55.05 -2.25 -53.7 2.9 -56.4 2.9 Z" fill="none" stroke="#000000" stroke-linecap="round" stroke-linejoin="round" stroke-width="5.0"/>
    <path d="M0.2 -2.35 L1.4 -2.35 1.4 4.05 Q1.4 6.3 2.95 8.05 4.8 10.15 8.25 10.15 11.45 10.15 13.45 8.55 15.6 6.85 15.6 3.7 L15.6 -7.45 10.2 -7.45 10.2 3.05 Q10.2 4.75 8.4 4.75 L7.25 4.4 Q6.8 4.0 6.8 3.35 L6.8 -7.45 1.4 -7.45 0.2 -2.35 M17.5 -2.8 L17.5 9.85 22.9 9.85 22.9 2.15 27.8 9.85 32.15 9.85 32.15 -7.45 26.75 -7.45 26.75 -1.55 22.95 -7.45 17.5 -7.45 16.3 -2.8 17.5 -2.8 M42.6 -4.6 Q40.4 -1.85 40.4 1.15 40.4 4.9 43.1 7.5 45.8 10.05 49.6 10.05 53.15 10.05 55.6 7.85 L53.2 2.9 Q51.45 4.6 49.75 4.6 L48.3 4.35 47.1 3.55 46.35 2.4 Q46.05 1.7 46.05 0.9 46.05 -0.55 47.2 -1.5 48.35 -2.5 49.75 -2.5 L51.6 -2.0 53.25 -0.9 55.8 -6.55 51.45 -8.2 51.1 -7.65 49.95 -7.75 48.95 -7.8 Q45.1 -7.8 42.6 -4.6 M75.2 -2.15 L76.4 -2.15 76.4 9.85 81.8 9.85 81.8 0.5 85.05 3.95 88.15 0.2 88.15 9.85 93.2 9.85 93.2 -7.45 87.85 -7.45 85.0 -3.8 81.85 -7.45 76.4 -7.45 75.2 -2.15 M65.85 -2.3 Q67.35 -2.3 68.3 -1.3 69.25 -0.25 69.25 1.2 L69.0 2.55 68.3 3.6 Q67.85 4.1 67.2 4.35 L65.85 4.6 64.4 4.35 63.25 3.65 62.5 2.5 Q62.25 1.9 62.25 1.1 62.25 -0.4 63.3 -1.35 64.4 -2.3 65.85 -2.3 M65.9 -7.8 Q61.7 -7.8 58.95 -4.9 56.45 -2.35 56.45 0.85 56.45 5.0 59.1 7.55 61.8 10.1 65.95 10.1 70.05 10.1 72.75 7.2 75.1 4.65 75.1 1.5 75.1 -2.35 72.45 -5.05 69.8 -7.8 65.9 -7.8 M36.6 4.55 L35.45 4.75 34.55 5.4 33.95 6.3 Q33.7 6.85 33.7 7.45 L33.95 8.6 34.55 9.5 35.45 10.1 36.6 10.35 Q37.75 10.35 38.65 9.5 39.5 8.65 39.5 7.45 39.5 6.25 38.65 5.4 37.8 4.55 36.6 4.55 M-59.9 -7.45 L-61.6 -2.8 -60.35 -2.8 -63.75 9.85 -58.2 9.85 -57.5 7.45 -52.6 7.45 -52.1 9.85 -46.4 9.85 -51.3 -7.45 -59.9 -7.45 M-46.3 -2.4 Q-46.3 0.05 -44.45 1.45 -43.45 2.2 -41.1 3.0 -39.25 3.6 -39.25 4.2 -39.25 5.0 -40.4 5.0 L-42.75 4.5 -45.0 3.5 -46.35 8.5 Q-43.35 10.2 -40.35 10.2 -37.45 10.2 -35.55 8.7 -33.55 7.05 -33.55 4.25 -33.55 1.8 -35.35 0.35 -36.35 -0.4 -38.65 -1.2 -40.5 -1.8 -40.5 -2.3 -40.5 -3.1 -39.25 -3.1 L-37.25 -2.65 -35.3 -1.85 -33.75 -7.3 -38.3 -8.2 -38.45 -7.65 -39.2 -7.75 -39.65 -7.75 -40.45 -7.75 Q-43.05 -7.75 -44.65 -6.4 -46.3 -4.95 -46.3 -2.4 M-20.85 -1.3 Q-19.9 -0.25 -19.9 1.2 L-20.15 2.55 -20.85 3.6 -21.95 4.35 -23.3 4.6 -24.75 4.35 Q-25.4 4.1 -25.9 3.65 L-26.65 2.5 -26.9 1.1 Q-26.9 -0.4 -25.85 -1.35 -24.75 -2.3 -23.3 -2.3 -21.8 -2.3 -20.85 -1.3 M-30.2 -4.9 Q-32.7 -2.35 -32.7 0.85 -32.7 5.0 -30.05 7.55 -27.35 10.1 -23.2 10.1 -19.1 10.1 -16.4 7.2 -14.05 4.65 -14.05 1.5 -14.05 -2.35 -16.7 -5.05 -19.35 -7.8 -23.25 -7.8 -27.45 -7.8 -30.2 -4.9 M-14.5 -7.45 L-9.3 2.05 -9.3 9.85 -3.95 9.85 -3.95 2.05 1.05 -7.45 -4.9 -7.45 -6.7 -3.7 -8.4 -7.45 -14.5 -7.45 M-56.4 2.9 L-55.05 -2.25 -53.7 2.9 -56.4 2.9 Z" fill="none" stroke="#ffffff" stroke-linecap="round" stroke-linejoin="round" stroke-width="3.0"/>
    <path d="M-56.4 2.9 L-53.7 2.9 -55.05 -2.25 -56.4 2.9 M-14.5 -7.45 L-8.4 -7.45 -6.7 -3.7 -4.9 -7.45 1.05 -7.45 -3.95 2.05 -3.95 9.85 -9.3 9.85 -9.3 2.05 -14.5 -7.45 M-30.2 -4.9 Q-27.45 -7.8 -23.25 -7.8 -19.35 -7.8 -16.7 -5.05 -14.05 -2.35 -14.05 1.5 -14.05 4.65 -16.4 7.2 -19.1 10.1 -23.2 10.1 -27.35 10.1 -30.05 7.55 -32.7 5.0 -32.7 0.85 -32.7 -2.35 -30.2 -4.9 M-20.85 -1.3 Q-21.8 -2.3 -23.3 -2.3 -24.75 -2.3 -25.85 -1.35 -26.9 -0.4 -26.9 1.1 L-26.65 2.5 -25.9 3.65 Q-25.4 4.1 -24.75 4.35 L-23.3 4.6 -21.95 4.35 -20.85 3.6 -20.15 2.55 -19.9 1.2 Q-19.9 -0.25 -20.85 -1.3 M-46.3 -2.4 Q-46.3 -4.95 -44.65 -6.4 -43.05 -7.75 -40.45 -7.75 L-39.65 -7.75 -39.2 -7.75 -38.45 -7.65 -38.3 -8.2 -33.75 -7.3 -35.3 -1.85 -37.25 -2.65 -39.25 -3.1 Q-40.5 -3.1 -40.5 -2.3 -40.5 -1.8 -38.65 -1.2 -36.35 -0.4 -35.35 0.35 -33.55 1.8 -33.55 4.25 -33.55 7.05 -35.55 8.7 -37.45 10.2 -40.35 10.2 -43.35 10.2 -46.35 8.5 L-45.0 3.5 -42.75 4.5 -40.4 5.0 Q-39.25 5.0 -39.25 4.2 -39.25 3.6 -41.1 3.0 -43.45 2.2 -44.45 1.45 -46.3 0.05 -46.3 -2.4 M-59.9 -7.45 L-51.3 -7.45 -46.4 9.85 -52.1 9.85 -52.6 7.45 -57.5 7.45 -58.2 9.85 -63.75 9.85 -60.35 -2.8 -61.6 -2.8 -59.9 -7.45 M36.6 4.55 Q37.8 4.55 38.65 5.4 39.5 6.25 39.5 7.45 39.5 8.65 38.65 9.5 37.75 10.35 36.6 10.35 L35.45 10.1 34.55 9.5 33.95 8.6 33.7 7.45 Q33.7 6.85 33.95 6.3 L34.55 5.4 35.45 4.75 36.6 4.55 M65.9 -7.8 Q69.8 -7.8 72.45 -5.05 75.1 -2.35 75.1 1.5 75.1 4.65 72.75 7.2 70.05 10.1 65.95 10.1 61.8 10.1 59.1 7.55 56.45 5.0 56.45 0.85 56.45 -2.35 58.95 -4.9 61.7 -7.8 65.9 -7.8 M65.85 -2.3 Q64.4 -2.3 63.3 -1.35 62.25 -0.4 62.25 1.1 62.25 1.9 62.5 2.5 L63.25 3.65 64.4 4.35 65.85 4.6 67.2 4.35 Q67.85 4.1 68.3 3.6 L69.0 2.55 69.25 1.2 Q69.25 -0.25 68.3 -1.3 67.35 -2.3 65.85 -2.3 M75.2 -2.15 L76.4 -7.45 81.85 -7.45 85.0 -3.8 87.85 -7.45 93.2 -7.45 93.2 9.85 88.15 9.85 88.15 0.2 85.05 3.95 81.8 0.5 81.8 9.85 76.4 9.85 76.4 -2.15 75.2 -2.15 M42.6 -4.6 Q45.1 -7.8 48.95 -7.8 L49.95 -7.75 51.1 -7.65 51.45 -8.2 55.8 -6.55 53.25 -0.9 51.6 -2.0 49.75 -2.5 Q48.35 -2.5 47.2 -1.5 46.05 -0.55 46.05 0.9 46.05 1.7 46.35 2.4 L47.1 3.55 48.3 4.35 49.75 4.6 Q51.45 4.6 53.2 2.9 L55.6 7.85 Q53.15 10.05 49.6 10.05 45.8 10.05 43.1 7.5 40.4 4.9 40.4 1.15 40.4 -1.85 42.6 -4.6 M17.5 -2.8 L16.3 -2.8 17.5 -7.45 22.95 -7.45 26.75 -1.55 26.75 -7.45 32.15 -7.45 32.15 9.85 27.8 9.85 22.9 2.15 22.9 9.85 17.5 9.85 17.5 -2.8 M0.2 -2.35 L1.4 -7.45 6.8 -7.45 6.8 3.35 Q6.8 4.0 7.25 4.4 L8.4 4.75 Q10.2 4.75 10.2 3.05 L10.2 -7.45 15.6 -7.45 15.6 3.7 Q15.6 6.85 13.45 8.55 11.45 10.15 8.25 10.15 4.8 10.15 2.95 8.05 1.4 6.3 1.4 4.05 L1.4 -2.35 0.2 -2.35" fill="url(#gradient0)" fill-rule="evenodd" stroke="none"/>
  </g>
  <defs>
    <linearGradient gradientTransform="matrix(0.0, 0.0079, -0.0958, 0.0, 14.75, -0.75)" gradientUnits="userSpaceOnUse" id="gradient0" spreadMethod="pad" x1="-819.2" x2="819.2">
      <stop offset="0.0" stop-color="#ffc234"/>
      <stop offset="0.7215686274509804" stop-color="#ff3930"/>
    </linearGradient>
  </defs>
</svg>
