<?xml version="1.0" encoding="UTF-8" standalone="no"?>
<svg xmlns:ffdec="https://www.free-decompiler.com/flash" xmlns:xlink="http://www.w3.org/1999/xlink" ffdec:objectType="shape" height="23.55px" width="173.8px" xmlns="http://www.w3.org/2000/svg">
  <g transform="matrix(1.0, 0.0, 0.0, 1.0, 74.95, 10.7)">
    <path d="M13.2 -2.0 L14.85 -0.9 17.4 -6.55 13.05 -8.2 12.7 -7.65 11.55 -7.75 10.55 -7.8 Q6.7 -7.8 4.2 -4.6 2.0 -1.85 2.0 1.15 2.0 4.9 4.7 7.5 7.4 10.05 11.2 10.05 14.75 10.05 17.2 7.85 L14.8 2.9 Q13.05 4.6 11.35 4.6 L9.9 4.35 8.7 3.55 Q8.2 3.05 7.95 2.4 7.65 1.7 7.65 0.9 7.65 -0.55 8.8 -1.5 9.95 -2.5 11.35 -2.5 L13.2 -2.0 M27.45 -2.3 Q28.95 -2.3 29.9 -1.3 30.85 -0.25 30.85 1.2 L30.6 2.55 29.9 3.6 28.8 4.35 27.45 4.6 26.0 4.35 Q25.35 4.1 24.85 3.65 L24.1 2.5 Q23.85 1.9 23.85 1.1 23.85 -0.4 24.9 -1.35 26.0 -2.3 27.45 -2.3 M20.55 -4.9 Q18.05 -2.35 18.05 0.85 18.05 5.0 20.7 7.55 23.4 10.1 27.55 10.1 31.65 10.1 34.35 7.2 36.7 4.65 36.7 1.5 36.7 -2.35 34.05 -5.05 31.4 -7.8 27.5 -7.8 23.3 -7.8 20.55 -4.9 M36.8 -2.15 L38.0 -2.15 38.0 9.85 43.4 9.85 43.4 0.5 46.65 3.95 49.75 0.2 49.75 9.85 54.8 9.85 54.8 -7.45 49.45 -7.45 46.6 -3.8 43.45 -7.45 38.0 -7.45 36.8 -2.15 M63.8 -7.45 L62.6 -2.15 63.8 -2.15 63.8 9.85 69.2 9.85 69.2 0.5 72.45 3.95 75.55 0.2 75.55 9.85 80.6 9.85 80.6 -7.45 75.25 -7.45 72.4 -3.8 69.25 -7.45 63.8 -7.45 M88.6 -3.7 L86.9 -7.45 80.8 -7.45 86.0 2.05 86.0 9.85 91.35 9.85 91.35 2.05 96.35 -7.45 90.4 -7.45 88.6 -3.7 M61.35 5.4 Q60.5 4.55 59.3 4.55 L58.15 4.75 Q57.65 5.0 57.25 5.4 L56.65 6.3 56.4 7.45 56.65 8.6 57.25 9.5 58.15 10.1 59.3 10.35 Q60.45 10.35 61.35 9.5 62.2 8.65 62.2 7.45 62.2 6.25 61.35 5.4 M0.3 5.4 Q-0.55 4.55 -1.75 4.55 L-2.9 4.75 Q-3.4 5.0 -3.8 5.4 L-4.4 6.3 -4.65 7.45 -4.4 8.6 -3.8 9.5 -2.9 10.1 -1.75 10.35 Q-0.6 10.35 0.3 9.5 1.15 8.65 1.15 7.45 1.15 6.25 0.3 5.4 M-69.45 -5.45 Q-72.45 -2.8 -72.45 1.0 -72.45 5.0 -69.8 7.6 -67.1 10.15 -63.15 10.15 -59.45 10.15 -56.8 7.35 -54.2 4.55 -54.2 0.85 L-54.2 0.5 -54.2 0.15 -54.3 -0.9 -62.35 -0.9 -63.55 3.6 -60.75 3.6 Q-61.6 4.8 -63.1 4.8 -64.8 4.8 -65.85 3.9 -67.0 2.9 -67.0 1.3 -67.0 -0.25 -65.95 -1.25 -64.95 -2.3 -63.4 -2.3 L-61.35 -1.8 -60.4 -1.35 -56.55 -5.45 -60.3 -7.45 -60.65 -7.15 Q-61.85 -7.85 -63.55 -7.85 -66.75 -7.85 -69.45 -5.45 M-51.0 -2.8 L-54.4 9.85 -48.85 9.85 -48.15 7.45 -43.25 7.45 -42.75 9.85 -37.05 9.85 -41.95 -7.45 -50.55 -7.45 -52.25 -2.8 -51.0 -2.8 M-27.9 -3.8 L-31.05 -7.45 -36.5 -7.45 -37.7 -2.15 -36.5 -2.15 -36.5 9.85 -31.1 9.85 -31.1 0.5 -27.85 3.95 -24.75 0.2 -24.75 9.85 -19.7 9.85 -19.7 -7.45 -25.05 -7.45 -27.9 -3.8 M-17.75 -2.2 L-17.75 9.85 -7.4 9.85 -6.1 4.45 -12.35 4.45 -12.35 3.35 -7.15 3.35 -6.0 -1.1 -12.35 -1.1 -12.35 -2.05 -6.9 -2.05 -5.5 -8.15 -10.35 -8.15 -10.55 -7.45 -17.75 -7.45 -18.95 -2.2 -17.75 -2.2 M-47.05 2.9 L-45.7 -2.25 -44.35 2.9 -47.05 2.9 Z" fill="none" stroke="#000000" stroke-linecap="round" stroke-linejoin="round" stroke-width="5.0"/>
    <path d="M13.2 -2.0 L14.85 -0.9 17.4 -6.55 13.05 -8.2 12.7 -7.65 11.55 -7.75 10.55 -7.8 Q6.7 -7.8 4.2 -4.6 2.0 -1.85 2.0 1.15 2.0 4.9 4.7 7.5 7.4 10.05 11.2 10.05 14.75 10.05 17.2 7.85 L14.8 2.9 Q13.05 4.6 11.35 4.6 L9.9 4.35 8.7 3.55 Q8.2 3.05 7.95 2.4 7.65 1.7 7.65 0.9 7.65 -0.55 8.8 -1.5 9.95 -2.5 11.35 -2.5 L13.2 -2.0 M20.55 -4.9 Q18.05 -2.35 18.05 0.85 18.05 5.0 20.7 7.55 23.4 10.1 27.55 10.1 31.65 10.1 34.35 7.2 36.7 4.65 36.7 1.5 36.7 -2.35 34.05 -5.05 31.4 -7.8 27.5 -7.8 23.3 -7.8 20.55 -4.9 M27.45 -2.3 Q28.95 -2.3 29.9 -1.3 30.85 -0.25 30.85 1.2 L30.6 2.55 29.9 3.6 28.8 4.35 27.45 4.6 26.0 4.35 Q25.35 4.1 24.85 3.65 L24.1 2.5 Q23.85 1.9 23.85 1.1 23.85 -0.4 24.9 -1.35 26.0 -2.3 27.45 -2.3 M36.8 -2.15 L38.0 -2.15 38.0 9.85 43.4 9.85 43.4 0.5 46.65 3.95 49.75 0.2 49.75 9.85 54.8 9.85 54.8 -7.45 49.45 -7.45 46.6 -3.8 43.45 -7.45 38.0 -7.45 36.8 -2.15 M69.25 -7.45 L63.8 -7.45 62.6 -2.15 63.8 -2.15 63.8 9.85 69.2 9.85 69.2 0.5 72.45 3.95 75.55 0.2 75.55 9.85 80.6 9.85 80.6 -7.45 75.25 -7.45 72.4 -3.8 69.25 -7.45 M88.6 -3.7 L86.9 -7.45 80.8 -7.45 86.0 2.05 86.0 9.85 91.35 9.85 91.35 2.05 96.35 -7.45 90.4 -7.45 88.6 -3.7 M61.35 5.4 Q60.5 4.55 59.3 4.55 L58.15 4.75 Q57.65 5.0 57.25 5.4 L56.65 6.3 56.4 7.45 56.65 8.6 57.25 9.5 58.15 10.1 59.3 10.35 Q60.45 10.35 61.35 9.5 62.2 8.65 62.2 7.45 62.2 6.25 61.35 5.4 M0.3 5.4 Q-0.55 4.55 -1.75 4.55 L-2.9 4.75 Q-3.4 5.0 -3.8 5.4 L-4.4 6.3 -4.65 7.45 -4.4 8.6 -3.8 9.5 -2.9 10.1 -1.75 10.35 Q-0.6 10.35 0.3 9.5 1.15 8.65 1.15 7.45 1.15 6.25 0.3 5.4 M-69.45 -5.45 Q-72.45 -2.8 -72.45 1.0 -72.45 5.0 -69.8 7.6 -67.1 10.15 -63.15 10.15 -59.45 10.15 -56.8 7.35 -54.2 4.55 -54.2 0.85 L-54.2 0.5 -54.2 0.15 -54.3 -0.9 -62.35 -0.9 -63.55 3.6 -60.75 3.6 Q-61.6 4.8 -63.1 4.8 -64.8 4.8 -65.85 3.9 -67.0 2.9 -67.0 1.3 -67.0 -0.25 -65.95 -1.25 -64.95 -2.3 -63.4 -2.3 L-61.35 -1.8 -60.4 -1.35 -56.55 -5.45 -60.3 -7.45 -60.65 -7.15 Q-61.85 -7.85 -63.55 -7.85 -66.75 -7.85 -69.45 -5.45 M-51.0 -2.8 L-54.4 9.85 -48.85 9.85 -48.15 7.45 -43.25 7.45 -42.75 9.85 -37.05 9.85 -41.95 -7.45 -50.55 -7.45 -52.25 -2.8 -51.0 -2.8 M-27.9 -3.8 L-31.05 -7.45 -36.5 -7.45 -37.7 -2.15 -36.5 -2.15 -36.5 9.85 -31.1 9.85 -31.1 0.5 -27.85 3.95 -24.75 0.2 -24.75 9.85 -19.7 9.85 -19.7 -7.45 -25.05 -7.45 -27.9 -3.8 M-17.75 -2.2 L-17.75 9.85 -7.4 9.85 -6.1 4.45 -12.35 4.45 -12.35 3.35 -7.15 3.35 -6.0 -1.1 -12.35 -1.1 -12.35 -2.05 -6.9 -2.05 -5.5 -8.15 -10.35 -8.15 -10.55 -7.45 -17.75 -7.45 -18.95 -2.2 -17.75 -2.2 M-47.05 2.9 L-45.7 -2.25 -44.35 2.9 -47.05 2.9 Z" fill="none" stroke="#ffffff" stroke-linecap="round" stroke-linejoin="round" stroke-width="3.0"/>
    <path d="M-47.05 2.9 L-44.35 2.9 -45.7 -2.25 -47.05 2.9 M-17.75 -2.2 L-18.95 -2.2 -17.75 -7.45 -10.55 -7.45 -10.35 -8.15 -5.5 -8.15 -6.9 -2.05 -12.35 -2.05 -12.35 -1.1 -6.0 -1.1 -7.15 3.35 -12.35 3.35 -12.35 4.45 -6.1 4.45 -7.4 9.85 -17.75 9.85 -17.75 -2.2 M-27.9 -3.8 L-25.05 -7.45 -19.7 -7.45 -19.7 9.85 -24.75 9.85 -24.75 0.2 -27.85 3.95 -31.1 0.5 -31.1 9.85 -36.5 9.85 -36.5 -2.15 -37.7 -2.15 -36.5 -7.45 -31.05 -7.45 -27.9 -3.8 M-50.55 -7.45 L-41.95 -7.45 -37.05 9.85 -42.75 9.85 -43.25 7.45 -48.15 7.45 -48.85 9.85 -54.4 9.85 -51.0 -2.8 -52.25 -2.8 -50.55 -7.45 M-69.45 -5.45 Q-66.75 -7.85 -63.55 -7.85 -61.85 -7.85 -60.65 -7.15 L-60.3 -7.45 -56.55 -5.45 -60.4 -1.35 -61.35 -1.8 -63.4 -2.3 Q-64.95 -2.3 -65.95 -1.25 -67.0 -0.25 -67.0 1.3 -67.0 2.9 -65.85 3.9 -64.8 4.8 -63.1 4.8 -61.6 4.8 -60.75 3.6 L-63.55 3.6 -62.35 -0.9 -54.3 -0.9 -54.2 0.15 -54.2 0.5 -54.2 0.85 Q-54.2 4.55 -56.8 7.35 -59.45 10.15 -63.15 10.15 -67.1 10.15 -69.8 7.6 -72.45 5.0 -72.45 1.0 -72.45 -2.8 -69.45 -5.45 M1.15 7.45 Q1.15 8.65 0.3 9.5 -0.6 10.35 -1.75 10.35 L-2.9 10.1 -3.8 9.5 -4.4 8.6 -4.65 7.45 -4.4 6.3 -3.8 5.4 Q-3.4 5.0 -2.9 4.75 L-1.75 4.55 Q-0.55 4.55 0.3 5.4 1.15 6.25 1.15 7.45 M62.2 7.45 Q62.2 8.65 61.35 9.5 60.45 10.35 59.3 10.35 L58.15 10.1 57.25 9.5 56.65 8.6 56.4 7.45 56.65 6.3 57.25 5.4 Q57.65 5.0 58.15 4.75 L59.3 4.55 Q60.5 4.55 61.35 5.4 62.2 6.25 62.2 7.45 M88.6 -3.7 L90.4 -7.45 96.35 -7.45 91.35 2.05 91.35 9.85 86.0 9.85 86.0 2.05 80.8 -7.45 86.9 -7.45 88.6 -3.7 M63.8 -7.45 L69.25 -7.45 72.4 -3.8 75.25 -7.45 80.6 -7.45 80.6 9.85 75.55 9.85 75.55 0.2 72.45 3.95 69.2 0.5 69.2 9.85 63.8 9.85 63.8 -2.15 62.6 -2.15 63.8 -7.45 M36.8 -2.15 L38.0 -7.45 43.45 -7.45 46.6 -3.8 49.45 -7.45 54.8 -7.45 54.8 9.85 49.75 9.85 49.75 0.2 46.65 3.95 43.4 0.5 43.4 9.85 38.0 9.85 38.0 -2.15 36.8 -2.15 M20.55 -4.9 Q23.3 -7.8 27.5 -7.8 31.4 -7.8 34.05 -5.05 36.7 -2.35 36.7 1.5 36.7 4.65 34.35 7.2 31.65 10.1 27.55 10.1 23.4 10.1 20.7 7.55 18.05 5.0 18.05 0.85 18.05 -2.35 20.55 -4.9 M27.45 -2.3 Q26.0 -2.3 24.9 -1.35 23.85 -0.4 23.85 1.1 23.85 1.9 24.1 2.5 L24.85 3.65 Q25.35 4.1 26.0 4.35 L27.45 4.6 28.8 4.35 29.9 3.6 30.6 2.55 30.85 1.2 Q30.85 -0.25 29.9 -1.3 28.95 -2.3 27.45 -2.3 M13.2 -2.0 L11.35 -2.5 Q9.95 -2.5 8.8 -1.5 7.65 -0.55 7.65 0.9 7.65 1.7 7.95 2.4 8.2 3.05 8.7 3.55 L9.9 4.35 11.35 4.6 Q13.05 4.6 14.8 2.9 L17.2 7.85 Q14.75 10.05 11.2 10.05 7.4 10.05 4.7 7.5 2.0 4.9 2.0 1.15 2.0 -1.85 4.2 -4.6 6.7 -7.8 10.55 -7.8 L11.55 -7.75 12.7 -7.65 13.05 -8.2 17.4 -6.55 14.85 -0.9 13.2 -2.0" fill="url(#gradient0)" fill-rule="evenodd" stroke="none"/>
  </g>
  <defs>
    <linearGradient gradientTransform="matrix(0.0, 0.007, -0.103, 0.0, 11.95, -0.75)" gradientUnits="userSpaceOnUse" id="gradient0" spreadMethod="pad" x1="-819.2" x2="819.2">
      <stop offset="0.0" stop-color="#ffc234"/>
      <stop offset="0.7215686274509804" stop-color="#ff3930"/>
    </linearGradient>
  </defs>
</svg>
