<?xml version="1.0" encoding="UTF-8" standalone="no"?>
<svg xmlns:ffdec="https://www.free-decompiler.com/flash" xmlns:xlink="http://www.w3.org/1999/xlink" ffdec:objectType="shape" height="42.1px" width="298.2px" xmlns="http://www.w3.org/2000/svg">
  <g transform="matrix(1.0, 0.0, 0.0, 1.0, 0.0, 0.0)">
    <path d="M196.4 12.45 Q197.95 14.1 197.95 16.6 197.95 19.2 195.8 21.4 193.7 23.6 190.3 24.55 190.9 28.4 193.95 28.4 195.3 28.4 196.75 27.6 198.2 26.75 199.1 25.5 199.45 26.15 199.45 27.1 199.45 29.25 197.45 30.9 195.4 32.55 192.7 32.55 189.1 32.55 186.8 29.55 184.5 26.6 184.5 21.95 184.5 17.3 186.85 14.05 189.15 10.8 192.45 10.8 194.8 10.8 196.4 12.45 M189.55 19.5 L189.75 21.15 Q193.75 20.05 193.75 17.15 193.75 15.25 192.15 15.25 191.1 15.25 190.3 16.5 189.55 17.75 189.55 19.5 M208.95 11.3 Q212.0 11.3 214.05 12.35 216.05 13.35 216.05 14.95 216.05 15.7 215.1 16.8 L214.3 17.7 Q213.65 16.5 212.15 15.75 210.7 14.95 209.25 14.95 207.0 14.95 207.0 16.55 L207.25 17.25 Q207.75 17.95 211.75 20.45 214.0 21.85 215.0 23.1 216.25 24.65 216.25 26.7 216.25 29.55 214.25 31.25 212.25 33.0 208.95 33.0 205.25 33.0 201.9 30.85 L200.4 29.95 200.3 29.9 200.4 29.8 201.65 28.35 Q202.55 27.35 203.6 27.35 L204.5 27.55 205.8 28.2 Q207.1 28.8 208.5 28.8 209.4 28.8 210.0 28.3 210.6 27.75 210.6 26.95 210.6 26.05 209.65 25.25 L207.95 24.1 205.1 22.25 Q201.5 19.95 201.5 16.85 201.5 14.45 203.6 12.85 205.7 11.3 208.95 11.3 M241.75 12.35 Q243.3 13.75 243.3 15.75 243.3 17.2 242.55 18.15 241.7 19.1 240.5 19.1 L239.65 18.95 239.7 18.6 Q239.7 17.45 239.05 16.65 238.3 15.8 237.4 15.8 235.85 15.8 234.8 17.7 233.8 19.55 233.8 22.3 233.8 25.15 234.9 26.8 236.0 28.4 237.9 28.4 239.5 28.4 241.1 27.45 242.7 26.45 243.35 25.05 244.05 25.7 244.05 26.8 244.05 29.3 242.05 30.95 240.0 32.65 237.05 32.65 233.1 32.65 230.9 30.0 228.65 27.4 228.65 22.8 228.65 17.8 231.3 14.4 233.95 11.0 237.8 11.0 240.15 11.0 241.75 12.35 M261.0 14.2 Q263.55 17.3 263.55 22.1 263.55 26.9 261.2 29.8 258.8 32.7 254.85 32.7 250.95 32.7 248.45 29.8 245.9 26.85 245.9 22.3 245.9 19.75 246.95 17.4 248.0 15.05 249.5 14.3 L249.1 13.2 Q249.85 12.35 251.45 11.7 253.1 11.05 254.55 11.05 258.45 11.05 261.0 14.2 M252.4 26.5 Q253.55 28.45 255.3 28.45 258.6 28.45 258.6 22.95 258.6 19.9 257.45 17.85 256.3 15.75 254.65 15.75 253.1 15.75 252.2 17.3 251.3 18.8 251.3 21.35 251.3 24.55 252.4 26.5 M267.6 13.1 L267.8 13.05 269.55 11.85 Q271.1 10.7 272.45 10.7 273.9 10.7 273.9 12.5 L273.7 15.0 Q273.4 17.6 273.4 19.1 L273.4 19.3 Q276.7 13.7 280.2 13.7 282.85 13.7 283.65 17.75 L283.7 18.0 Q284.4 16.55 286.35 14.55 287.85 13.05 290.2 13.05 294.15 13.05 294.15 18.55 L294.05 22.0 294.05 24.45 294.15 26.75 Q294.4 28.5 295.95 28.5 297.25 28.5 298.15 27.5 L298.2 27.8 Q298.2 29.7 296.8 31.05 295.35 32.4 293.3 32.4 288.6 32.4 288.6 25.4 L288.85 19.95 Q288.85 18.6 288.05 18.6 287.35 18.6 286.45 19.7 285.2 21.3 284.65 23.35 L284.15 26.0 283.95 28.1 284.0 29.25 Q284.0 30.3 283.3 30.7 L281.8 31.4 279.85 31.95 Q278.7 31.95 278.7 30.55 L278.85 28.2 279.2 22.0 Q279.2 19.4 278.2 19.4 277.35 19.4 276.35 20.9 273.5 24.95 273.5 28.6 L273.6 29.35 273.65 30.1 Q273.65 30.55 273.1 31.15 271.75 32.55 270.55 32.55 269.5 32.55 268.85 31.35 268.15 30.1 268.15 28.3 L268.3 25.25 268.45 20.4 Q268.45 16.6 268.1 14.6 L267.6 13.1 M227.15 29.1 Q227.15 30.6 225.8 31.6 224.45 32.6 222.45 32.6 221.1 32.6 220.25 31.95 219.45 31.25 219.45 30.15 219.45 28.8 220.85 27.75 222.3 26.7 224.15 26.7 225.5 26.7 226.35 27.35 227.15 28.0 227.15 29.1 M183.75 27.8 Q183.75 29.7 182.35 31.05 180.9 32.4 178.85 32.4 174.15 32.4 174.15 25.4 L174.4 19.95 Q174.4 18.6 173.6 18.6 172.9 18.6 172.0 19.7 170.75 21.3 170.2 23.35 L169.7 26.0 169.5 28.1 169.55 29.25 Q169.55 30.3 168.85 30.7 L167.35 31.4 165.4 31.95 Q164.25 31.95 164.25 30.55 L164.4 28.2 164.75 22.0 Q164.75 19.4 163.75 19.4 162.9 19.4 161.9 20.9 159.05 24.95 159.05 28.6 L159.15 29.35 159.2 30.1 158.65 31.15 Q157.3 32.55 156.1 32.55 155.05 32.55 154.4 31.35 153.7 30.1 153.7 28.3 L153.85 25.25 154.0 20.4 Q154.0 16.6 153.65 14.6 L153.15 13.1 153.35 13.05 155.1 11.85 Q156.65 10.7 158.0 10.7 159.45 10.7 159.45 12.5 L159.25 15.0 Q158.95 17.6 158.95 19.1 L158.95 19.3 Q162.25 13.7 165.75 13.7 168.4 13.7 169.2 17.75 L169.25 18.0 Q169.95 16.55 171.9 14.55 173.4 13.05 175.75 13.05 179.7 13.05 179.7 18.55 L179.6 22.0 179.6 24.45 179.7 26.75 Q179.95 28.5 181.5 28.5 182.8 28.5 183.7 27.5 L183.75 27.8 M24.65 18.7 L24.45 20.3 Q23.9 21.9 21.9 22.1 L21.9 24.15 22.1 27.9 22.15 28.65 Q22.15 29.65 21.5 29.95 L18.55 31.5 Q16.25 32.85 12.85 32.85 7.1 32.85 3.55 28.6 0.0 24.35 0.0 17.5 0.0 10.65 4.25 6.1 8.05 2.0 13.8 2.0 16.85 2.0 18.9 3.3 21.0 4.6 21.0 6.45 21.0 9.2 18.5 10.2 17.9 8.85 16.3 7.85 14.75 6.9 13.05 6.9 9.85 6.9 8.0 9.65 6.1 12.45 6.1 17.1 6.1 21.9 8.2 25.1 10.25 28.3 13.4 28.3 14.8 28.3 15.6 27.6 16.4 26.85 16.4 24.2 L16.3 22.8 16.3 22.55 Q13.7 22.7 12.55 23.55 L12.55 23.2 Q12.55 20.0 13.75 18.95 14.95 17.9 18.65 17.8 L22.05 17.5 Q23.1 17.3 24.4 16.55 L24.65 18.7 M29.7 15.0 Q32.5 11.3 36.05 11.3 39.7 11.3 41.0 14.8 41.7 16.65 41.7 17.5 41.7 18.1 41.3 18.6 L42.1 18.5 Q43.05 18.5 43.05 19.15 L42.95 19.95 42.6 21.3 Q42.2 22.85 42.2 24.7 42.2 28.25 44.35 28.25 45.3 28.25 45.85 27.5 L46.05 28.45 Q46.05 30.1 45.05 31.25 44.0 32.35 42.5 32.35 39.5 32.35 38.55 28.9 36.75 32.25 33.4 32.25 30.65 32.25 28.8 29.65 26.9 27.05 26.9 23.25 26.9 18.6 29.7 15.0 M37.25 17.8 Q37.25 16.85 36.75 16.2 36.2 15.5 35.45 15.5 33.95 15.5 32.8 17.85 31.65 20.15 31.65 23.15 31.65 25.35 32.35 26.65 33.05 27.9 34.25 27.9 36.6 27.9 37.4 22.5 L37.75 20.4 Q37.85 20.0 38.1 19.75 37.25 19.6 37.25 18.75 L37.25 17.8 M53.45 12.5 L53.25 15.0 Q52.95 17.6 52.95 19.1 L52.95 19.3 Q56.25 13.7 59.75 13.7 62.4 13.7 63.2 17.75 L63.25 18.0 Q63.95 16.55 65.9 14.55 67.4 13.05 69.75 13.05 73.7 13.05 73.7 18.55 L73.6 22.0 73.6 24.45 73.7 26.75 Q73.95 28.5 75.5 28.5 76.8 28.5 77.7 27.5 L77.75 27.8 Q77.75 29.7 76.35 31.05 74.9 32.4 72.85 32.4 68.15 32.4 68.15 25.4 L68.4 19.95 Q68.4 18.6 67.6 18.6 66.9 18.6 66.0 19.7 64.75 21.3 64.2 23.35 L63.7 26.0 63.5 28.1 63.55 29.25 Q63.55 30.3 62.85 30.7 L61.35 31.4 59.4 31.95 Q58.25 31.95 58.25 30.55 L58.4 28.2 58.75 22.0 Q58.75 19.4 57.75 19.4 56.9 19.4 55.9 20.9 53.05 24.95 53.05 28.6 L53.15 29.35 53.2 30.1 52.65 31.15 Q51.3 32.55 50.1 32.55 49.05 32.55 48.4 31.35 47.7 30.1 47.7 28.3 L47.85 25.25 48.0 20.4 Q48.0 16.6 47.65 14.6 L47.15 13.1 47.35 13.05 49.1 11.85 Q50.65 10.7 52.0 10.7 53.45 10.7 53.45 12.5 M90.4 12.45 Q91.95 14.1 91.95 16.6 91.95 19.2 89.8 21.4 87.7 23.6 84.3 24.55 84.9 28.4 87.95 28.4 89.3 28.4 90.75 27.6 92.2 26.75 93.1 25.5 93.45 26.15 93.45 27.1 93.45 29.25 91.45 30.9 89.4 32.55 86.7 32.55 83.1 32.55 80.8 29.55 78.5 26.6 78.5 21.95 78.5 17.3 80.85 14.05 83.15 10.8 86.45 10.8 88.8 10.8 90.4 12.45 M83.75 21.15 Q87.75 20.05 87.75 17.15 87.75 15.25 86.15 15.25 85.1 15.25 84.3 16.5 83.55 17.75 83.55 19.5 L83.75 21.15 M95.5 16.85 Q95.5 14.45 97.6 12.85 99.7 11.3 102.95 11.3 106.0 11.3 108.05 12.35 110.05 13.35 110.05 14.95 110.05 15.7 109.1 16.8 L108.3 17.7 Q107.65 16.5 106.15 15.75 104.7 14.95 103.25 14.95 101.0 14.95 101.0 16.55 L101.25 17.25 Q101.75 17.95 105.75 20.45 108.0 21.85 109.0 23.1 110.25 24.65 110.25 26.7 110.25 29.55 108.25 31.25 106.25 33.0 102.95 33.0 99.25 33.0 95.9 30.85 L94.4 29.95 94.3 29.9 94.4 29.8 95.65 28.35 Q96.55 27.35 97.6 27.35 L98.5 27.55 99.8 28.2 Q101.1 28.8 102.5 28.8 103.4 28.8 104.0 28.3 104.6 27.75 104.6 26.95 104.6 26.05 103.65 25.25 L101.95 24.1 99.1 22.25 Q95.5 19.95 95.5 16.85 M118.0 23.15 Q118.0 27.85 120.6 27.85 123.25 27.85 123.85 22.35 124.05 20.15 124.55 19.75 L124.15 19.6 Q123.75 19.35 123.75 18.05 123.75 17.0 123.25 16.35 122.8 15.7 122.1 15.7 120.45 15.7 119.25 17.9 118.0 20.15 118.0 23.15 M115.95 14.8 Q118.7 11.05 122.35 11.05 124.25 11.05 125.45 12.05 126.45 12.85 127.3 14.5 128.1 16.1 128.1 17.3 L127.75 18.65 127.9 18.6 128.7 18.55 Q129.55 18.55 129.55 19.35 L129.1 21.2 128.75 23.0 Q128.5 25.2 128.5 28.0 L128.5 28.6 128.5 30.55 128.55 32.0 128.55 33.25 128.4 36.9 Q128.1 38.95 127.05 40.25 125.6 42.1 122.5 42.1 119.2 42.1 117.2 39.8 L116.25 38.65 115.95 38.45 117.6 37.45 Q118.5 36.95 119.15 36.95 L120.8 37.35 121.85 37.55 Q123.85 37.55 123.85 33.5 L123.85 32.3 123.85 30.9 123.85 30.45 Q121.75 32.3 119.25 32.3 116.65 32.3 114.9 29.8 113.15 27.25 113.15 23.5 113.15 18.5 115.95 14.8 M135.7 15.0 Q138.5 11.3 142.05 11.3 145.7 11.3 147.0 14.8 147.7 16.65 147.7 17.5 147.7 18.1 147.3 18.6 L148.1 18.5 Q149.05 18.5 149.05 19.15 L148.95 19.95 148.6 21.3 Q148.2 22.85 148.2 24.7 148.2 28.25 150.35 28.25 151.3 28.25 151.85 27.5 L152.05 28.45 Q152.05 30.1 151.05 31.25 150.0 32.35 148.5 32.35 145.5 32.35 144.55 28.9 142.75 32.25 139.4 32.25 136.65 32.25 134.8 29.65 132.9 27.05 132.9 23.25 132.9 18.6 135.7 15.0 M138.35 26.65 Q139.05 27.9 140.25 27.9 142.6 27.9 143.4 22.5 L143.75 20.4 Q143.85 20.0 144.1 19.75 143.25 19.6 143.25 18.75 L143.25 17.8 Q143.25 16.85 142.75 16.2 142.2 15.5 141.45 15.5 139.95 15.5 138.8 17.85 137.65 20.15 137.65 23.15 137.65 25.35 138.35 26.65" fill="#86111a" fill-rule="evenodd" stroke="none"/>
    <path d="M197.95 14.6 Q197.95 17.2 195.8 19.4 193.7 21.6 190.3 22.55 190.9 26.4 193.95 26.4 195.3 26.4 196.75 25.6 198.2 24.75 199.1 23.5 199.45 24.15 199.45 25.1 199.45 27.25 197.45 28.9 195.4 30.55 192.7 30.55 189.1 30.55 186.8 27.55 184.5 24.6 184.5 19.95 184.5 15.3 186.85 12.05 189.15 8.8 192.45 8.8 194.8 8.8 196.4 10.45 197.95 12.1 197.95 14.6 M189.75 19.15 Q193.75 18.05 193.75 15.15 193.75 13.25 192.15 13.25 191.1 13.25 190.3 14.5 189.55 15.75 189.55 17.5 L189.75 19.15" fill="url(#gradient0)" fill-rule="evenodd" stroke="none"/>
    <path d="M183.75 25.8 Q183.75 27.7 182.35 29.05 180.9 30.4 178.85 30.4 174.15 30.4 174.15 23.4 L174.4 17.95 Q174.4 16.6 173.6 16.6 172.9 16.6 172.0 17.7 170.75 19.3 170.2 21.35 L169.7 24.0 169.5 26.1 169.55 27.25 Q169.55 28.3 168.85 28.7 L167.35 29.4 165.4 29.95 Q164.25 29.95 164.25 28.55 L164.4 26.2 164.75 20.0 Q164.75 17.4 163.75 17.4 162.9 17.4 161.9 18.9 159.05 22.95 159.05 26.6 L159.15 27.35 159.2 28.1 158.65 29.15 Q157.3 30.55 156.1 30.55 155.05 30.55 154.4 29.35 153.7 28.1 153.7 26.3 L153.85 23.25 154.0 18.4 Q154.0 14.6 153.65 12.6 L153.15 11.1 153.35 11.05 155.1 9.85 Q156.65 8.7 158.0 8.7 159.45 8.7 159.45 10.5 L159.25 13.0 Q158.95 15.6 158.95 17.1 L158.95 17.3 Q162.25 11.7 165.75 11.7 168.4 11.7 169.2 15.75 L169.25 16.0 Q169.95 14.55 171.9 12.55 173.4 11.05 175.75 11.05 179.7 11.05 179.7 16.55 L179.6 20.0 179.6 22.45 179.7 24.75 Q179.95 26.5 181.5 26.5 182.8 26.5 183.7 25.5 L183.75 25.8" fill="url(#gradient1)" fill-rule="evenodd" stroke="none"/>
    <path d="M216.05 12.95 Q216.05 13.7 215.1 14.8 L214.3 15.7 Q213.65 14.5 212.15 13.75 210.7 12.95 209.25 12.95 207.0 12.95 207.0 14.55 L207.25 15.25 Q207.75 15.95 211.75 18.45 214.0 19.85 215.0 21.1 216.25 22.65 216.25 24.7 216.25 27.55 214.25 29.25 212.25 31.0 208.95 31.0 205.25 31.0 201.9 28.85 L200.4 27.95 200.3 27.9 200.4 27.8 201.65 26.35 Q202.55 25.35 203.6 25.35 L204.5 25.55 205.8 26.2 Q207.1 26.8 208.5 26.8 209.4 26.8 210.0 26.3 210.6 25.75 210.6 24.95 210.6 24.05 209.65 23.25 L207.95 22.1 205.1 20.25 Q201.5 17.95 201.5 14.85 201.5 12.45 203.6 10.85 205.7 9.3 208.95 9.3 212.0 9.3 214.05 10.35 216.05 11.35 216.05 12.95" fill="url(#gradient2)" fill-rule="evenodd" stroke="none"/>
    <path d="M237.4 13.8 Q235.85 13.8 234.8 15.7 233.8 17.55 233.8 20.3 233.8 23.15 234.9 24.8 236.0 26.4 237.9 26.4 239.5 26.4 241.1 25.45 242.7 24.45 243.35 23.05 244.05 23.7 244.05 24.8 244.05 27.3 242.05 28.95 240.0 30.65 237.05 30.65 233.1 30.65 230.9 28.0 228.65 25.4 228.65 20.8 228.65 15.8 231.3 12.4 233.95 9.0 237.8 9.0 240.15 9.0 241.75 10.35 243.3 11.75 243.3 13.75 243.3 15.2 242.55 16.15 241.7 17.1 240.5 17.1 L239.65 16.95 239.7 16.6 Q239.7 15.45 239.05 14.65 238.3 13.8 237.4 13.8" fill="url(#gradient3)" fill-rule="evenodd" stroke="none"/>
    <path d="M226.35 25.35 Q227.15 26.0 227.15 27.1 227.15 28.6 225.8 29.6 224.45 30.6 222.45 30.6 221.1 30.6 220.25 29.95 219.45 29.25 219.45 28.15 219.45 26.8 220.85 25.75 222.3 24.7 224.15 24.7 225.5 24.7 226.35 25.35" fill="url(#gradient4)" fill-rule="evenodd" stroke="none"/>
    <path d="M261.0 12.2 Q263.55 15.3 263.55 20.1 263.55 24.9 261.2 27.8 258.8 30.7 254.85 30.7 250.95 30.7 248.45 27.8 245.9 24.85 245.9 20.3 245.9 17.75 246.95 15.4 248.0 13.05 249.5 12.3 L249.1 11.2 Q249.85 10.35 251.45 9.7 253.1 9.05 254.55 9.05 258.45 9.05 261.0 12.2 M252.4 24.5 Q253.55 26.45 255.3 26.45 258.6 26.45 258.6 20.95 258.6 17.9 257.45 15.85 256.3 13.75 254.65 13.75 253.1 13.75 252.2 15.3 251.3 16.8 251.3 19.35 251.3 22.55 252.4 24.5" fill="url(#gradient5)" fill-rule="evenodd" stroke="none"/>
    <path d="M273.7 13.0 Q273.4 15.6 273.4 17.1 L273.4 17.3 Q276.7 11.7 280.2 11.7 282.85 11.7 283.65 15.75 L283.7 16.0 Q284.4 14.55 286.35 12.55 287.85 11.05 290.2 11.05 294.15 11.05 294.15 16.55 L294.05 20.0 294.05 22.45 294.15 24.75 Q294.4 26.5 295.95 26.5 297.25 26.5 298.15 25.5 L298.2 25.8 Q298.2 27.7 296.8 29.05 295.35 30.4 293.3 30.4 288.6 30.4 288.6 23.4 L288.85 17.95 Q288.85 16.6 288.05 16.6 287.35 16.6 286.45 17.7 285.2 19.3 284.65 21.35 L284.15 24.0 283.95 26.1 284.0 27.25 Q284.0 28.3 283.3 28.7 L281.8 29.4 279.85 29.95 Q278.7 29.95 278.7 28.55 L278.85 26.2 279.2 20.0 Q279.2 17.4 278.2 17.4 277.35 17.4 276.35 18.9 273.5 22.95 273.5 26.6 L273.6 27.35 273.65 28.1 Q273.65 28.55 273.1 29.15 271.75 30.55 270.55 30.55 269.5 30.55 268.85 29.35 268.15 28.1 268.15 26.3 L268.3 23.25 268.45 18.4 Q268.45 14.6 268.1 12.6 L267.6 11.1 267.8 11.05 269.55 9.85 Q271.1 8.7 272.45 8.7 273.9 8.7 273.9 10.5 L273.7 13.0" fill="url(#gradient6)" fill-rule="evenodd" stroke="none"/>
    <path d="M35.45 13.5 Q33.95 13.5 32.8 15.85 31.65 18.15 31.65 21.15 31.65 23.35 32.35 24.65 33.05 25.9 34.25 25.9 36.6 25.9 37.4 20.5 L37.75 18.4 Q37.85 18.0 38.1 17.75 37.25 17.6 37.25 16.75 L37.25 15.8 Q37.25 14.85 36.75 14.2 36.2 13.5 35.45 13.5 M36.05 9.3 Q39.7 9.3 41.0 12.8 41.7 14.65 41.7 15.5 41.7 16.1 41.3 16.6 L42.1 16.5 Q43.05 16.5 43.05 17.15 L42.95 17.95 42.6 19.3 Q42.2 20.85 42.2 22.7 42.2 26.25 44.35 26.25 45.3 26.25 45.85 25.5 L46.05 26.45 Q46.05 28.1 45.05 29.25 44.0 30.35 42.5 30.35 39.5 30.35 38.55 26.9 36.75 30.25 33.4 30.25 30.65 30.25 28.8 27.65 26.9 25.05 26.9 21.25 26.9 16.6 29.7 13.0 32.5 9.3 36.05 9.3" fill="url(#gradient7)" fill-rule="evenodd" stroke="none"/>
    <path d="M22.1 25.9 L22.15 26.65 Q22.15 27.65 21.5 27.95 L18.55 29.5 Q16.25 30.85 12.85 30.85 7.1 30.85 3.55 26.6 0.0 22.35 0.0 15.5 0.0 8.65 4.25 4.1 8.05 0.0 13.8 0.0 16.85 0.0 18.9 1.3 21.0 2.6 21.0 4.45 21.0 7.2 18.5 8.2 17.9 6.85 16.3 5.85 14.75 4.9 13.05 4.9 9.85 4.9 8.0 7.65 6.1 10.45 6.1 15.1 6.1 19.9 8.2 23.1 10.25 26.3 13.4 26.3 14.8 26.3 15.6 25.6 16.4 24.85 16.4 22.2 L16.3 20.8 16.3 20.55 Q13.7 20.7 12.55 21.55 L12.55 21.2 Q12.55 18.0 13.75 16.95 14.95 15.9 18.65 15.8 L22.05 15.5 Q23.1 15.3 24.4 14.55 L24.65 16.7 24.45 18.3 Q23.9 19.9 21.9 20.1 L21.9 22.15 22.1 25.9" fill="url(#gradient8)" fill-rule="evenodd" stroke="none"/>
    <path d="M53.45 10.5 L53.25 13.0 Q52.95 15.6 52.95 17.1 L52.95 17.3 Q56.25 11.7 59.75 11.7 62.4 11.7 63.2 15.75 L63.25 16.0 Q63.95 14.55 65.9 12.55 67.4 11.05 69.75 11.05 73.7 11.05 73.7 16.55 L73.6 20.0 73.6 22.45 73.7 24.75 Q73.95 26.5 75.5 26.5 76.8 26.5 77.7 25.5 L77.75 25.8 Q77.75 27.7 76.35 29.05 74.9 30.4 72.85 30.4 68.15 30.4 68.15 23.4 L68.4 17.95 Q68.4 16.6 67.6 16.6 66.9 16.6 66.0 17.7 64.75 19.3 64.2 21.35 L63.7 24.0 63.5 26.1 63.55 27.25 Q63.55 28.3 62.85 28.7 L61.35 29.4 59.4 29.95 Q58.25 29.95 58.25 28.55 L58.4 26.2 58.75 20.0 Q58.75 17.4 57.75 17.4 56.9 17.4 55.9 18.9 53.05 22.95 53.05 26.6 L53.15 27.35 53.2 28.1 52.65 29.15 Q51.3 30.55 50.1 30.55 49.05 30.55 48.4 29.35 47.7 28.1 47.7 26.3 L47.85 23.25 48.0 18.4 Q48.0 14.6 47.65 12.6 L47.15 11.1 47.35 11.05 49.1 9.85 Q50.65 8.7 52.0 8.7 53.45 8.7 53.45 10.5" fill="url(#gradient9)" fill-rule="evenodd" stroke="none"/>
    <path d="M84.3 14.5 Q83.55 15.75 83.55 17.5 L83.75 19.15 Q87.75 18.05 87.75 15.15 87.75 13.25 86.15 13.25 85.1 13.25 84.3 14.5 M86.45 8.8 Q88.8 8.8 90.4 10.45 91.95 12.1 91.95 14.6 91.95 17.2 89.8 19.4 87.7 21.6 84.3 22.55 84.9 26.4 87.95 26.4 89.3 26.4 90.75 25.6 92.2 24.75 93.1 23.5 93.45 24.15 93.45 25.1 93.45 27.25 91.45 28.9 89.4 30.55 86.7 30.55 83.1 30.55 80.8 27.55 78.5 24.6 78.5 19.95 78.5 15.3 80.85 12.05 83.15 8.8 86.45 8.8" fill="url(#gradient10)" fill-rule="evenodd" stroke="none"/>
    <path d="M97.6 25.35 L98.5 25.55 99.8 26.2 Q101.1 26.8 102.5 26.8 103.4 26.8 104.0 26.3 104.6 25.75 104.6 24.95 104.6 24.05 103.65 23.25 L101.95 22.1 99.1 20.25 Q95.5 17.95 95.5 14.85 95.5 12.45 97.6 10.85 99.7 9.3 102.95 9.3 106.0 9.3 108.05 10.35 110.05 11.35 110.05 12.95 110.05 13.7 109.1 14.8 L108.3 15.7 Q107.65 14.5 106.15 13.75 104.7 12.95 103.25 12.95 101.0 12.95 101.0 14.55 L101.25 15.25 Q101.75 15.95 105.75 18.45 108.0 19.85 109.0 21.1 110.25 22.65 110.25 24.7 110.25 27.55 108.25 29.25 106.25 31.0 102.95 31.0 99.25 31.0 95.9 28.85 L94.4 27.95 94.3 27.9 94.4 27.8 95.65 26.35 Q96.55 25.35 97.6 25.35" fill="url(#gradient11)" fill-rule="evenodd" stroke="none"/>
    <path d="M120.6 25.85 Q123.25 25.85 123.85 20.35 124.05 18.15 124.55 17.75 L124.15 17.6 Q123.75 17.35 123.75 16.05 123.75 15.0 123.25 14.35 122.8 13.7 122.1 13.7 120.45 13.7 119.25 15.9 118.0 18.15 118.0 21.15 118.0 25.85 120.6 25.85 M115.95 12.8 Q118.7 9.05 122.35 9.05 124.25 9.05 125.45 10.05 126.45 10.85 127.3 12.5 128.1 14.1 128.1 15.3 L127.75 16.65 127.9 16.6 128.7 16.55 Q129.55 16.55 129.55 17.35 L129.1 19.2 128.75 21.0 Q128.5 23.2 128.5 26.0 L128.5 26.6 128.5 28.55 128.55 30.0 128.55 31.25 128.4 34.9 Q128.1 36.95 127.05 38.25 125.6 40.1 122.5 40.1 119.2 40.1 117.2 37.8 L116.25 36.65 115.95 36.45 117.6 35.45 Q118.5 34.95 119.15 34.95 L120.8 35.35 121.85 35.55 Q123.85 35.55 123.85 31.5 L123.85 30.3 123.85 28.9 123.85 28.45 Q121.75 30.3 119.25 30.3 116.65 30.3 114.9 27.8 113.15 25.25 113.15 21.5 113.15 16.5 115.95 12.8" fill="url(#gradient12)" fill-rule="evenodd" stroke="none"/>
    <path d="M140.25 25.9 Q142.6 25.9 143.4 20.5 L143.75 18.4 Q143.85 18.0 144.1 17.75 143.25 17.6 143.25 16.75 L143.25 15.8 Q143.25 14.85 142.75 14.2 142.2 13.5 141.45 13.5 139.95 13.5 138.8 15.85 137.65 18.15 137.65 21.15 137.65 23.35 138.35 24.65 139.05 25.9 140.25 25.9 M135.7 13.0 Q138.5 9.3 142.05 9.3 145.7 9.3 147.0 12.8 147.7 14.65 147.7 15.5 147.7 16.1 147.3 16.6 L148.1 16.5 Q149.05 16.5 149.05 17.15 L148.95 17.95 148.6 19.3 Q148.2 20.85 148.2 22.7 148.2 26.25 150.35 26.25 151.3 26.25 151.85 25.5 L152.05 26.45 Q152.05 28.1 151.05 29.25 150.0 30.35 148.5 30.35 145.5 30.35 144.55 26.9 142.75 30.25 139.4 30.25 136.65 30.25 134.8 27.65 132.9 25.05 132.9 21.25 132.9 16.6 135.7 13.0" fill="url(#gradient13)" fill-rule="evenodd" stroke="none"/>
  </g>
  <defs>
    <linearGradient gradientTransform="matrix(0.0, 0.0115, -0.0133, 0.0, 191.95, 19.65)" gradientUnits="userSpaceOnUse" id="gradient0" spreadMethod="pad" x1="-819.2" x2="819.2">
      <stop offset="0.5215686274509804" stop-color="#ffffff"/>
      <stop offset="1.0" stop-color="#d8e4e4"/>
    </linearGradient>
    <linearGradient gradientTransform="matrix(0.0, 0.0116, -0.0133, 0.0, 168.45, 19.6)" gradientUnits="userSpaceOnUse" id="gradient1" spreadMethod="pad" x1="-819.2" x2="819.2">
      <stop offset="0.5215686274509804" stop-color="#ffffff"/>
      <stop offset="1.0" stop-color="#d8e4e4"/>
    </linearGradient>
    <linearGradient gradientTransform="matrix(0.0, 0.0097, -0.0132, 0.0, 208.25, 20.15)" gradientUnits="userSpaceOnUse" id="gradient2" spreadMethod="pad" x1="-819.2" x2="819.2">
      <stop offset="0.5215686274509804" stop-color="#ffffff"/>
      <stop offset="1.0" stop-color="#d8e4e4"/>
    </linearGradient>
    <linearGradient gradientTransform="matrix(0.0, 0.0174, -0.0132, 0.0, 236.4, 19.85)" gradientUnits="userSpaceOnUse" id="gradient3" spreadMethod="pad" x1="-819.2" x2="819.2">
      <stop offset="0.5215686274509804" stop-color="#ffffff"/>
      <stop offset="1.0" stop-color="#d8e4e4"/>
    </linearGradient>
    <linearGradient gradientTransform="matrix(0.0047, 0.0, 0.0, 0.0036, 223.3, 27.65)" gradientUnits="userSpaceOnUse" id="gradient4" spreadMethod="pad" x1="-819.2" x2="819.2">
      <stop offset="0.5215686274509804" stop-color="#ffffff"/>
      <stop offset="1.0" stop-color="#d8e4e4"/>
    </linearGradient>
    <linearGradient gradientTransform="matrix(0.0, 0.0174, -0.0132, 0.0, 254.7, 19.85)" gradientUnits="userSpaceOnUse" id="gradient5" spreadMethod="pad" x1="-819.2" x2="819.2">
      <stop offset="0.5215686274509804" stop-color="#ffffff"/>
      <stop offset="1.0" stop-color="#d8e4e4"/>
    </linearGradient>
    <linearGradient gradientTransform="matrix(0.0, 0.0116, -0.0133, 0.0, 282.9, 19.6)" gradientUnits="userSpaceOnUse" id="gradient6" spreadMethod="pad" x1="-819.2" x2="819.2">
      <stop offset="0.5215686274509804" stop-color="#ffffff"/>
      <stop offset="1.0" stop-color="#d8e4e4"/>
    </linearGradient>
    <linearGradient gradientTransform="matrix(0.0, 0.0117, -0.0128, 0.0, 36.5, 19.85)" gradientUnits="userSpaceOnUse" id="gradient7" spreadMethod="pad" x1="-819.2" x2="819.2">
      <stop offset="0.5215686274509804" stop-color="#ffffff"/>
      <stop offset="1.0" stop-color="#d8e4e4"/>
    </linearGradient>
    <linearGradient gradientTransform="matrix(0.0, 0.0228, -0.0188, 0.0, 12.3, 15.4)" gradientUnits="userSpaceOnUse" id="gradient8" spreadMethod="pad" x1="-819.2" x2="819.2">
      <stop offset="0.5215686274509804" stop-color="#ffffff"/>
      <stop offset="1.0" stop-color="#d8e4e4"/>
    </linearGradient>
    <linearGradient gradientTransform="matrix(0.0, 0.0116, -0.0133, 0.0, 62.45, 19.6)" gradientUnits="userSpaceOnUse" id="gradient9" spreadMethod="pad" x1="-819.2" x2="819.2">
      <stop offset="0.5215686274509804" stop-color="#ffffff"/>
      <stop offset="1.0" stop-color="#d8e4e4"/>
    </linearGradient>
    <linearGradient gradientTransform="matrix(0.0, 0.0115, -0.0133, 0.0, 85.95, 19.65)" gradientUnits="userSpaceOnUse" id="gradient10" spreadMethod="pad" x1="-819.2" x2="819.2">
      <stop offset="0.5215686274509804" stop-color="#ffffff"/>
      <stop offset="1.0" stop-color="#d8e4e4"/>
    </linearGradient>
    <linearGradient gradientTransform="matrix(0.0, 0.017, -0.0132, 0.0, 102.25, 20.15)" gradientUnits="userSpaceOnUse" id="gradient11" spreadMethod="pad" x1="-819.2" x2="819.2">
      <stop offset="0.5215686274509804" stop-color="#ffffff"/>
      <stop offset="1.0" stop-color="#d8e4e4"/>
    </linearGradient>
    <linearGradient gradientTransform="matrix(0.0, 0.0177, -0.019, 0.0, 121.4, 24.6)" gradientUnits="userSpaceOnUse" id="gradient12" spreadMethod="pad" x1="-819.2" x2="819.2">
      <stop offset="0.5215686274509804" stop-color="#ffffff"/>
      <stop offset="1.0" stop-color="#d8e4e4"/>
    </linearGradient>
    <linearGradient gradientTransform="matrix(0.0, 0.0117, -0.0128, 0.0, 142.5, 19.85)" gradientUnits="userSpaceOnUse" id="gradient13" spreadMethod="pad" x1="-819.2" x2="819.2">
      <stop offset="0.5215686274509804" stop-color="#ffffff"/>
      <stop offset="1.0" stop-color="#d8e4e4"/>
    </linearGradient>
  </defs>
</svg>
