<?xml version="1.0" encoding="UTF-8" standalone="no"?>
<svg xmlns:ffdec="https://www.free-decompiler.com/flash" xmlns:xlink="http://www.w3.org/1999/xlink" ffdec:objectType="shape" height="41.95px" width="205.45px" xmlns="http://www.w3.org/2000/svg">
  <g transform="matrix(1.0, 0.0, 0.0, 1.0, 0.0, 0.0)">
    <path d="M202.9 3.45 L202.95 4.25 202.55 7.85 201.3 17.15 200.9 22.05 200.85 21.1 201.3 15.15 202.55 5.85 202.9 3.45 M205.35 27.4 L205.45 28.15 Q205.45 30.1 204.3 31.25 203.1 32.4 201.05 32.4 198.05 32.4 196.7 30.2 195.7 28.5 195.7 25.0 L195.75 24.2 Q195.9 26.8 196.7 28.2 198.05 30.4 201.05 30.4 203.1 30.4 204.3 29.25 205.05 28.5 205.35 27.4 M196.85 6.25 L196.35 4.55 196.6 4.45 196.85 4.3 196.85 5.0 196.85 6.25 M194.75 27.3 L194.85 28.25 Q194.85 29.9 193.6 31.25 192.35 32.55 190.7 32.55 188.25 32.55 186.7 29.85 185.55 27.8 185.45 22.55 185.35 18.75 184.5 18.75 183.85 18.75 182.75 20.25 181.65 21.75 180.85 23.6 179.9 25.9 179.7 28.0 L179.65 27.0 Q179.65 24.45 180.85 21.6 181.65 19.75 182.75 18.25 183.85 16.75 184.5 16.75 185.35 16.75 185.45 20.55 185.55 25.8 186.7 27.85 188.25 30.55 190.7 30.55 192.35 30.55 193.6 29.25 194.45 28.35 194.75 27.3 M179.65 29.4 Q179.7 30.65 180.05 31.1 178.65 32.2 176.75 32.2 175.4 32.2 174.85 31.2 173.9 29.35 173.9 23.0 L173.9 22.35 Q174.0 27.55 174.85 29.2 175.4 30.2 176.75 30.2 178.4 30.2 179.65 29.4 M174.1 14.05 L173.75 12.7 174.0 12.65 174.15 12.6 174.15 12.95 174.1 14.05 M179.85 11.4 L180.05 12.1 179.75 13.8 Q179.25 15.95 179.1 17.95 L179.05 17.6 Q179.05 14.85 179.75 11.8 L179.85 11.4 M164.15 29.05 L164.75 29.85 Q165.6 30.5 166.95 30.5 168.95 30.5 170.3 29.5 L171.5 28.05 171.65 29.0 Q171.65 30.5 170.3 31.5 168.95 32.5 166.95 32.5 165.6 32.5 164.75 31.85 163.95 31.15 163.95 30.05 L164.15 29.05 M160.3 13.75 L160.55 14.85 Q160.55 15.6 159.6 16.7 L158.8 17.6 Q158.15 16.4 156.65 15.65 155.2 14.85 153.75 14.85 152.5 14.85 151.95 15.35 L151.75 15.15 151.5 14.45 Q151.5 12.85 153.75 12.85 155.2 12.85 156.65 13.65 158.15 14.4 158.8 15.6 L159.6 14.7 160.3 13.75 M160.7 25.65 L160.75 26.6 Q160.75 29.45 158.75 31.15 156.75 32.9 153.45 32.9 149.75 32.9 146.4 30.75 L144.9 29.85 144.8 29.8 145.95 28.5 146.4 28.75 Q149.75 30.9 153.45 30.9 156.75 30.9 158.75 29.15 160.35 27.75 160.7 25.65 M154.8 25.9 L154.15 25.15 152.45 24.0 149.6 22.15 Q146.0 19.85 146.0 16.75 L146.1 15.75 Q146.6 18.25 149.6 20.15 L152.45 22.0 154.15 23.15 Q155.1 23.95 155.1 24.85 L154.8 25.9 M142.4 15.45 L142.45 16.5 Q142.45 19.1 140.3 21.3 138.35 23.35 135.35 24.3 L134.8 22.45 Q138.2 21.5 140.3 19.3 142.05 17.5 142.4 15.45 M143.85 26.0 L143.95 27.0 Q143.95 29.15 141.95 30.8 139.9 32.45 137.2 32.45 133.6 32.45 131.3 29.45 129.0 26.5 129.0 21.85 L129.05 20.85 Q129.25 24.8 131.3 27.45 133.6 30.45 137.2 30.45 139.9 30.45 141.95 28.8 143.45 27.55 143.85 26.0 M125.6 13.4 L125.65 14.15 125.5 16.2 125.4 19.45 125.25 24.15 125.25 23.2 125.4 17.45 125.5 14.2 125.6 13.4 M125.35 33.25 L125.35 34.45 Q125.35 38.35 124.1 39.95 122.5 41.95 119.0 41.95 116.05 41.95 113.55 39.7 L112.65 38.9 112.45 38.75 112.7 38.65 113.75 37.85 Q116.15 39.95 119.0 39.95 122.5 39.95 124.1 37.95 125.2 36.5 125.35 33.25 M120.4 25.1 L120.2 21.3 Q119.95 16.75 119.1 14.7 L119.45 14.6 119.65 14.5 120.2 19.3 120.4 25.1 M126.25 4.8 L126.4 5.8 Q126.4 7.35 124.85 8.6 123.2 9.9 121.25 9.9 120.15 9.9 119.5 9.35 118.8 8.75 118.8 7.8 L118.8 7.65 119.0 6.7 119.5 7.35 Q120.15 7.9 121.25 7.9 123.2 7.9 124.85 6.6 125.9 5.75 126.25 4.8 M134.15 18.35 L134.05 17.4 Q134.05 15.65 134.8 14.4 135.6 13.15 136.65 13.15 138.25 13.15 138.25 15.05 L138.1 16.1 Q137.75 15.15 136.65 15.15 135.6 15.15 134.8 16.4 134.3 17.25 134.15 18.35 M112.3 8.95 L112.15 8.95 Q112.2 6.3 113.05 3.5 L113.1 3.4 Q113.4 3.6 113.4 4.1 L113.05 5.5 Q112.5 7.25 112.3 8.95 M101.9 12.5 Q102.6 13.05 104.5 13.05 L105.35 13.05 106.55 13.0 106.7 13.0 106.65 13.15 106.5 15.0 105.35 15.05 104.5 15.05 Q101.45 15.05 101.45 13.6 L101.65 12.8 101.9 12.5 M106.25 21.85 Q106.35 25.6 107.4 27.5 108.95 30.15 112.3 30.15 114.6 30.15 116.15 28.6 117.1 27.65 117.5 26.45 L117.7 26.2 117.75 26.7 Q117.75 29.0 116.15 30.6 114.6 32.15 112.3 32.15 108.95 32.15 107.4 29.5 106.25 27.45 106.25 23.15 L106.25 22.6 106.25 21.85 M111.35 20.9 L111.3 19.7 111.45 16.95 111.65 13.1 111.65 12.9 111.8 12.9 112.7 12.9 114.65 12.6 Q115.85 12.2 116.5 11.45 L117.4 12.1 117.3 12.15 116.7 13.15 Q116.05 14.15 114.65 14.6 L112.7 14.9 111.8 14.9 111.65 14.9 111.65 15.1 111.45 18.95 111.35 20.9 M99.9 15.45 L99.95 16.5 Q99.95 19.1 97.8 21.3 95.85 23.35 92.85 24.3 L92.3 22.45 Q95.7 21.5 97.8 19.3 99.55 17.5 99.9 15.45 M101.35 26.0 L101.45 27.0 Q101.45 29.15 99.45 30.8 97.4 32.45 94.7 32.45 91.1 32.45 88.8 29.45 86.5 26.5 86.5 21.85 L86.55 20.85 Q86.75 24.8 88.8 27.45 91.1 30.45 94.7 30.45 97.4 30.45 99.45 28.8 100.95 27.55 101.35 26.0 M83.1 3.45 L83.15 4.25 82.75 7.85 81.5 17.15 81.1 22.05 81.05 21.1 81.5 15.15 82.75 5.85 83.1 3.45 M85.55 27.4 L85.65 28.15 Q85.65 30.1 84.5 31.25 83.3 32.4 81.25 32.4 78.25 32.4 76.9 30.2 75.9 28.5 75.9 25.0 L75.95 24.2 Q76.1 26.8 76.9 28.2 78.25 30.4 81.25 30.4 83.3 30.4 84.5 29.25 85.25 28.5 85.55 27.4 M77.05 6.25 L76.55 4.55 76.8 4.45 77.05 4.3 77.05 5.0 77.05 6.25 M91.65 18.35 L91.55 17.4 Q91.55 15.65 92.3 14.4 93.1 13.15 94.15 13.15 95.75 13.15 95.75 15.05 L95.6 16.1 Q95.25 15.15 94.15 15.15 93.1 15.15 92.3 16.4 91.8 17.25 91.65 18.35 M69.65 22.05 L69.6 21.1 70.05 15.15 71.3 5.85 71.65 3.45 71.7 4.25 71.3 7.85 70.05 17.15 69.65 22.05 M65.6 4.3 L65.6 5.0 65.6 6.25 65.1 4.55 65.35 4.45 65.6 4.3 M64.5 24.2 Q64.65 26.8 65.45 28.2 66.8 30.4 69.8 30.4 71.85 30.4 73.05 29.25 73.8 28.5 74.1 27.4 L74.2 28.15 Q74.2 30.1 73.05 31.25 71.85 32.4 69.8 32.4 66.8 32.4 65.45 30.2 64.45 28.5 64.45 25.0 L64.5 24.2 M60.35 15.45 L60.4 16.5 Q60.4 19.1 58.25 21.3 56.3 23.35 53.3 24.3 52.9 23.5 52.75 22.45 56.15 21.5 58.25 19.3 60.0 17.5 60.35 15.45 M61.8 26.0 L61.9 27.0 Q61.9 29.15 59.9 30.8 57.85 32.45 55.15 32.45 51.55 32.45 49.25 29.45 46.95 26.5 46.95 21.85 L47.0 20.85 Q47.2 24.8 49.25 27.45 51.55 30.45 55.15 30.45 57.85 30.45 59.9 28.8 61.4 27.55 61.8 26.0 M43.55 19.6 L43.55 20.55 Q43.55 25.8 41.25 29.2 38.9 32.55 35.3 32.55 33.35 32.55 31.25 31.15 L31.2 30.9 31.2 29.4 31.2 29.15 Q33.35 30.55 35.3 30.55 38.9 30.55 41.25 27.2 43.3 24.15 43.55 19.6 M31.9 37.6 L32.1 38.7 Q32.1 39.8 30.95 40.65 29.85 41.5 28.35 41.5 26.9 41.5 26.5 40.15 26.1 39.0 26.1 34.6 L26.1 34.15 Q26.2 37.2 26.5 38.15 26.9 39.5 28.35 39.5 29.85 39.5 30.95 38.65 L31.9 37.6 M26.65 19.05 Q26.5 14.45 25.25 13.35 L26.1 12.9 Q26.65 14.65 26.65 18.1 L26.65 19.05 M52.1 18.35 L52.0 17.4 Q52.0 15.65 52.75 14.4 53.55 13.15 54.6 13.15 56.2 13.15 56.2 15.05 L56.05 16.1 Q55.7 15.15 54.6 15.15 53.55 15.15 52.75 16.4 52.25 17.25 52.1 18.35 M8.65 8.15 L8.45 7.1 Q8.45 6.05 9.3 5.35 10.15 4.65 11.45 4.65 13.4 4.65 15.5 5.9 17.6 7.15 18.55 8.9 L18.7 8.75 20.65 7.05 21.1 6.35 21.25 7.35 Q21.25 8.3 20.65 9.05 L18.7 10.75 18.55 10.9 Q17.6 9.15 15.5 7.9 13.4 6.65 11.45 6.65 10.15 6.65 9.3 7.35 8.85 7.7 8.65 8.15 M2.6 8.55 Q3.05 11.95 7.15 14.7 L11.15 17.2 Q14.55 19.15 15.5 20.05 16.6 21.15 16.6 22.75 L16.5 23.75 Q16.25 22.8 15.5 22.05 14.55 21.15 11.15 19.2 L7.15 16.7 Q2.5 13.6 2.5 9.55 L2.6 8.55 M1.2 25.75 L2.2 26.75 Q6.25 30.7 12.3 30.7 16.8 30.7 19.55 28.3 21.95 26.2 22.25 23.05 L22.3 24.0 Q22.3 27.9 19.55 30.3 16.8 32.7 12.3 32.7 6.25 32.7 2.2 28.75 L0.3 26.85 0.0 26.65 1.2 25.75 M31.4 24.35 L31.4 22.85 Q31.4 18.9 32.65 16.2 33.9 13.45 35.7 13.45 38.5 13.45 38.5 19.35 L38.5 20.3 Q38.25 15.45 35.7 15.45 33.9 15.45 32.65 18.2 31.5 20.75 31.4 24.35" fill="#86111a" fill-rule="evenodd" stroke="none"/>
    <path d="M196.85 4.3 L196.35 2.55 196.6 2.45 198.4 1.1 Q199.9 0.0 201.2 0.0 202.95 0.0 202.95 2.25 L202.9 3.45 202.55 5.85 201.3 15.15 200.85 21.1 200.9 22.05 Q201.15 25.7 203.7 25.7 L205.25 25.25 205.45 26.15 205.35 27.4 Q205.05 28.5 204.3 29.25 203.1 30.4 201.05 30.4 198.05 30.4 196.7 28.2 195.9 26.8 195.75 24.2 L195.7 23.0 195.75 21.75 196.35 12.65 196.85 6.25 196.85 5.0 196.85 4.3" fill="url(#gradient0)" fill-rule="evenodd" stroke="none"/>
    <path d="M179.1 17.95 L179.2 17.8 Q180.65 14.9 182.45 12.85 184.6 10.45 186.55 10.45 188.45 10.45 189.35 11.8 190.55 13.6 190.55 18.45 L190.6 22.55 Q190.65 26.5 192.55 26.5 193.6 26.5 194.7 25.25 L194.85 26.25 194.75 27.3 Q194.45 28.35 193.6 29.25 192.35 30.55 190.7 30.55 188.25 30.55 186.7 27.85 185.55 25.8 185.45 20.55 185.35 16.75 184.5 16.75 183.85 16.75 182.75 18.25 181.65 19.75 180.85 21.6 179.65 24.45 179.65 27.0 L179.7 28.0 Q179.8 28.75 180.05 29.1 L179.65 29.4 Q178.4 30.2 176.75 30.2 175.4 30.2 174.85 29.2 174.0 27.55 173.9 22.35 L173.9 21.0 174.05 15.5 174.1 14.05 174.15 12.95 174.15 12.6 Q174.1 11.35 173.75 10.7 L174.0 10.65 176.35 9.4 Q177.45 8.85 178.3 8.85 180.05 8.85 180.05 10.1 L179.85 11.4 179.75 11.8 Q179.05 14.85 179.05 17.6 L179.1 17.95" fill="url(#gradient1)" fill-rule="evenodd" stroke="none"/>
    <path d="M171.5 28.05 L170.3 29.5 Q168.95 30.5 166.95 30.5 165.6 30.5 164.75 29.85 L164.15 29.05 163.95 28.05 Q163.95 26.7 165.35 25.65 166.8 24.6 168.65 24.6 170.0 24.6 170.85 25.25 171.65 25.9 171.65 27.0 L171.5 28.05" fill="url(#gradient2)" fill-rule="evenodd" stroke="none"/>
    <path d="M146.1 15.75 L146.0 14.75 Q146.0 12.35 148.1 10.75 150.2 9.2 153.45 9.2 156.5 9.2 158.55 10.25 160.55 11.25 160.55 12.85 L160.3 13.75 159.6 14.7 158.8 15.6 Q158.15 14.4 156.65 13.65 155.2 12.85 153.75 12.85 151.5 12.85 151.5 14.45 L151.75 15.15 151.95 15.35 Q152.75 16.15 156.25 18.35 158.5 19.75 159.5 21.0 160.75 22.55 160.75 24.6 L160.7 25.65 Q160.35 27.75 158.75 29.15 156.75 30.9 153.45 30.9 149.75 30.9 146.4 28.75 L145.95 28.5 144.9 27.85 144.8 27.8 144.9 27.7 146.15 26.25 Q147.05 25.25 148.1 25.25 L149.0 25.45 150.3 26.1 Q151.6 26.7 153.0 26.7 153.9 26.7 154.5 26.2 L154.8 25.9 155.1 24.85 Q155.1 23.95 154.15 23.15 L152.45 22.0 149.6 20.15 Q146.6 18.25 146.1 15.75" fill="url(#gradient3)" fill-rule="evenodd" stroke="none"/>
    <path d="M129.05 20.85 L129.0 19.85 Q129.0 15.2 131.35 11.95 133.65 8.7 136.95 8.7 139.3 8.7 140.9 10.35 142.45 12.0 142.45 14.5 L142.4 15.45 Q142.05 17.5 140.3 19.3 138.2 21.5 134.8 22.45 L135.35 24.3 Q136.25 26.3 138.45 26.3 139.8 26.3 141.25 25.5 142.7 24.65 143.6 23.4 143.95 24.05 143.95 25.0 L143.85 26.0 Q143.45 27.55 141.95 28.8 139.9 30.45 137.2 30.45 133.6 30.45 131.3 27.45 129.25 24.8 129.05 20.85 M138.1 16.1 L138.25 15.05 Q138.25 13.15 136.65 13.15 135.6 13.15 134.8 14.4 134.05 15.65 134.05 17.4 L134.15 18.35 134.25 19.05 Q137.5 18.15 138.1 16.1" fill="url(#gradient4)" fill-rule="evenodd" stroke="none"/>
    <path d="M119.0 6.7 L118.8 5.8 118.8 5.65 Q118.8 3.9 121.05 2.35 122.45 1.45 123.8 1.45 126.4 1.45 126.4 3.8 L126.25 4.8 Q125.9 5.75 124.85 6.6 123.2 7.9 121.25 7.9 120.15 7.9 119.5 7.35 L119.0 6.7" fill="url(#gradient5)" fill-rule="evenodd" stroke="none"/>
    <path d="M119.65 14.5 L119.1 12.7 119.45 12.6 121.65 11.3 Q123.35 10.35 124.3 10.35 125.65 10.35 125.65 12.15 L125.6 13.4 125.5 14.2 125.4 17.45 125.25 23.2 125.25 24.15 125.35 32.45 125.35 33.25 Q125.2 36.5 124.1 37.95 122.5 39.95 119.0 39.95 116.15 39.95 113.75 37.85 L113.55 37.7 112.65 36.9 112.45 36.75 112.7 36.65 114.0 35.65 Q115.0 34.9 115.6 34.9 L116.6 35.15 117.2 35.5 118.5 35.8 Q119.45 35.8 119.9 34.9 120.35 34.05 120.45 30.5 L120.4 25.1 120.2 19.3 119.65 14.5" fill="url(#gradient6)" fill-rule="evenodd" stroke="none"/>
    <path d="M113.1 3.4 L113.05 3.5 Q112.2 6.3 112.15 8.95 L112.3 8.95 114.55 9.05 Q116.5 9.05 117.4 10.1 L117.3 10.15 116.7 11.15 116.5 11.45 Q115.85 12.2 114.65 12.6 L112.7 12.9 111.8 12.9 111.65 12.9 111.65 13.1 111.45 16.95 111.3 19.7 111.35 20.9 Q111.45 23.65 112.3 24.7 113.2 25.8 114.6 25.8 116.4 25.8 117.7 24.2 L117.75 24.7 117.5 26.45 Q117.1 27.65 116.15 28.6 114.6 30.15 112.3 30.15 108.95 30.15 107.4 27.5 106.35 25.6 106.25 21.85 L106.25 21.15 106.25 20.6 106.5 15.0 106.65 13.15 106.7 13.0 106.55 13.0 105.35 13.05 104.5 13.05 Q102.6 13.05 101.9 12.5 101.45 12.15 101.45 11.6 L101.65 10.8 103.4 8.6 103.5 8.5 104.05 8.9 105.75 9.15 106.25 9.1 107.0 9.05 107.15 9.05 107.25 6.55 107.4 4.85 107.45 3.9 Q107.55 3.05 108.1 2.65 L109.7 1.9 112.65 1.3 Q113.4 1.3 113.4 2.1 L113.1 3.4" fill="url(#gradient7)" fill-rule="evenodd" stroke="none"/>
    <path d="M86.55 20.85 L86.5 19.85 Q86.5 15.2 88.85 11.95 91.15 8.7 94.45 8.7 96.8 8.7 98.4 10.35 99.95 12.0 99.95 14.5 L99.9 15.45 Q99.55 17.5 97.8 19.3 95.7 21.5 92.3 22.45 L92.85 24.3 Q93.75 26.3 95.95 26.3 97.3 26.3 98.75 25.5 100.2 24.65 101.1 23.4 101.45 24.05 101.45 25.0 L101.35 26.0 Q100.95 27.55 99.45 28.8 97.4 30.45 94.7 30.45 91.1 30.45 88.8 27.45 86.75 24.8 86.55 20.85 M95.6 16.1 L95.75 15.05 Q95.75 13.15 94.15 13.15 93.1 13.15 92.3 14.4 91.55 15.65 91.55 17.4 L91.65 18.35 91.75 19.05 Q95.0 18.15 95.6 16.1" fill="url(#gradient8)" fill-rule="evenodd" stroke="none"/>
    <path d="M83.1 3.45 L82.75 5.85 81.5 15.15 81.05 21.1 81.1 22.05 Q81.35 25.7 83.9 25.7 L85.45 25.25 85.65 26.15 85.55 27.4 Q85.25 28.5 84.5 29.25 83.3 30.4 81.25 30.4 78.25 30.4 76.9 28.2 76.1 26.8 75.95 24.2 L75.9 23.0 75.95 21.75 76.55 12.65 77.05 6.25 77.05 5.0 77.05 4.3 76.55 2.55 76.8 2.45 78.6 1.1 Q80.1 0.0 81.4 0.0 83.15 0.0 83.15 2.25 L83.1 3.45" fill="url(#gradient9)" fill-rule="evenodd" stroke="none"/>
    <path d="M71.65 3.45 L71.3 5.85 70.05 15.15 69.6 21.1 69.65 22.05 Q69.9 25.7 72.45 25.7 L74.0 25.25 74.2 26.15 74.1 27.4 Q73.8 28.5 73.05 29.25 71.85 30.4 69.8 30.4 66.8 30.4 65.45 28.2 64.65 26.8 64.5 24.2 L64.45 23.0 64.5 21.75 65.1 12.65 65.6 6.25 65.6 5.0 65.6 4.3 65.1 2.55 65.35 2.45 67.15 1.1 Q68.65 0.0 69.95 0.0 71.7 0.0 71.7 2.25 L71.65 3.45" fill="url(#gradient10)" fill-rule="evenodd" stroke="none"/>
    <path d="M47.0 20.85 L46.95 19.85 Q46.95 15.2 49.3 11.95 51.6 8.7 54.9 8.7 57.25 8.7 58.85 10.35 60.4 12.0 60.4 14.5 L60.35 15.45 Q60.0 17.5 58.25 19.3 56.15 21.5 52.75 22.45 52.9 23.5 53.3 24.3 54.2 26.3 56.4 26.3 57.75 26.3 59.2 25.5 60.65 24.65 61.55 23.4 61.9 24.05 61.9 25.0 L61.8 26.0 Q61.4 27.55 59.9 28.8 57.85 30.45 55.15 30.45 51.55 30.45 49.25 27.45 47.2 24.8 47.0 20.85 M56.05 16.1 L56.2 15.05 Q56.2 13.15 54.6 13.15 53.55 13.15 52.75 14.4 52.0 15.65 52.0 17.4 L52.1 18.35 52.2 19.05 Q55.45 18.15 56.05 16.1" fill="url(#gradient11)" fill-rule="evenodd" stroke="none"/>
    <path d="M26.1 12.9 Q25.8 11.8 25.25 11.35 L27.3 10.1 Q29.15 8.85 30.1 8.85 L30.9 9.05 Q31.45 9.4 31.45 10.95 L31.5 12.5 Q32.4 10.85 33.9 9.85 35.4 8.85 37.0 8.85 39.95 8.85 41.75 11.5 43.55 14.2 43.55 18.55 L43.55 19.6 Q43.3 24.15 41.25 27.2 38.9 30.55 35.3 30.55 33.35 30.55 31.2 29.15 L31.2 29.4 31.2 30.9 31.25 31.15 31.35 32.85 31.85 35.45 32.1 36.7 31.9 37.6 30.95 38.65 Q29.85 39.5 28.35 39.5 26.9 39.5 26.5 38.15 26.2 37.2 26.1 34.15 L26.1 33.15 26.1 32.6 Q26.1 29.75 26.4 24.7 L26.65 19.05 26.65 18.1 Q26.65 14.65 26.1 12.9 M38.5 20.3 L38.5 19.35 Q38.5 13.45 35.7 13.45 33.9 13.45 32.65 16.2 31.4 18.9 31.4 22.85 L31.4 24.35 Q32.95 26.35 34.65 26.35 36.35 26.35 37.4 24.4 38.35 22.75 38.5 20.3" fill="url(#gradient12)" fill-rule="evenodd" stroke="none"/>
    <path d="M21.1 6.35 L20.65 7.05 18.7 8.75 18.55 8.9 Q17.6 7.15 15.5 5.9 13.4 4.65 11.45 4.65 10.15 4.65 9.3 5.35 8.45 6.05 8.45 7.1 L8.65 8.15 8.95 8.6 Q9.8 9.7 14.35 12.35 L18.85 15.2 Q22.3 17.75 22.3 22.0 L22.25 23.05 Q21.95 26.2 19.55 28.3 16.8 30.7 12.3 30.7 6.25 30.7 2.2 26.75 L1.2 25.75 0.3 24.85 0.0 24.65 1.3 23.6 Q2.9 22.2 3.8 22.2 4.6 22.2 6.1 23.6 9.05 26.25 12.45 26.25 14.35 26.25 15.5 25.3 L16.5 23.75 16.6 22.75 Q16.6 21.15 15.5 20.05 14.55 19.15 11.15 17.2 L7.15 14.7 Q3.05 11.95 2.6 8.55 L2.5 7.55 Q2.5 4.25 5.1 2.2 7.7 0.1 11.8 0.1 15.5 0.1 18.35 1.75 21.25 3.3 21.25 5.35 L21.1 6.35" fill="url(#gradient13)" fill-rule="evenodd" stroke="none"/>
  </g>
  <defs>
    <linearGradient gradientTransform="matrix(0.0, 0.006, -0.0186, -1.0E-4, 200.55, 15.25)" gradientUnits="userSpaceOnUse" id="gradient0" spreadMethod="pad" x1="-819.2" x2="819.2">
      <stop offset="0.34901960784313724" stop-color="#ffffff"/>
      <stop offset="0.5725490196078431" stop-color="#d8e4e4"/>
    </linearGradient>
    <linearGradient gradientTransform="matrix(0.0, 0.0129, -0.0132, 0.0, 184.3, 19.7)" gradientUnits="userSpaceOnUse" id="gradient1" spreadMethod="pad" x1="-819.2" x2="819.2">
      <stop offset="0.34901960784313724" stop-color="#ffffff"/>
      <stop offset="0.5725490196078431" stop-color="#d8e4e4"/>
    </linearGradient>
    <linearGradient gradientTransform="matrix(0.0, 0.0047, -0.0036, 0.0, 167.8, 27.55)" gradientUnits="userSpaceOnUse" id="gradient2" spreadMethod="pad" x1="-819.2" x2="819.2">
      <stop offset="0.34901960784313724" stop-color="#ffffff"/>
      <stop offset="0.5725490196078431" stop-color="#d8e4e4"/>
    </linearGradient>
    <linearGradient gradientTransform="matrix(0.0, 0.0097, -0.0132, 0.0, 152.75, 20.05)" gradientUnits="userSpaceOnUse" id="gradient3" spreadMethod="pad" x1="-819.2" x2="819.2">
      <stop offset="0.34901960784313724" stop-color="#ffffff"/>
      <stop offset="0.5725490196078431" stop-color="#d8e4e4"/>
    </linearGradient>
    <linearGradient gradientTransform="matrix(0.0, 0.0091, -0.0133, 0.0, 136.5, 19.6)" gradientUnits="userSpaceOnUse" id="gradient4" spreadMethod="pad" x1="-819.2" x2="819.2">
      <stop offset="0.34901960784313724" stop-color="#ffffff"/>
      <stop offset="0.5725490196078431" stop-color="#d8e4e4"/>
    </linearGradient>
    <linearGradient gradientTransform="matrix(0.0, 0.0046, -0.0039, 0.0, 122.6, 4.65)" gradientUnits="userSpaceOnUse" id="gradient5" spreadMethod="pad" x1="-819.2" x2="819.2">
      <stop offset="0.34901960784313724" stop-color="#ffffff"/>
      <stop offset="0.5725490196078431" stop-color="#d8e4e4"/>
    </linearGradient>
    <linearGradient gradientTransform="matrix(0.0, 0.0081, -0.0181, 0.0, 119.05, 25.15)" gradientUnits="userSpaceOnUse" id="gradient6" spreadMethod="pad" x1="-819.2" x2="819.2">
      <stop offset="0.34901960784313724" stop-color="#ffffff"/>
      <stop offset="0.5725490196078431" stop-color="#d8e4e4"/>
    </linearGradient>
    <linearGradient gradientTransform="matrix(0.0, 0.0099, -0.0176, 0.0, 109.6, 15.7)" gradientUnits="userSpaceOnUse" id="gradient7" spreadMethod="pad" x1="-819.2" x2="819.2">
      <stop offset="0.34901960784313724" stop-color="#ffffff"/>
      <stop offset="0.5725490196078431" stop-color="#d8e4e4"/>
    </linearGradient>
    <linearGradient gradientTransform="matrix(0.0, 0.0091, -0.0133, 0.0, 94.0, 19.6)" gradientUnits="userSpaceOnUse" id="gradient8" spreadMethod="pad" x1="-819.2" x2="819.2">
      <stop offset="0.34901960784313724" stop-color="#ffffff"/>
      <stop offset="0.5725490196078431" stop-color="#d8e4e4"/>
    </linearGradient>
    <linearGradient gradientTransform="matrix(0.0, 0.006, -0.0186, 0.0, 80.75, 15.2)" gradientUnits="userSpaceOnUse" id="gradient9" spreadMethod="pad" x1="-819.2" x2="819.2">
      <stop offset="0.34901960784313724" stop-color="#ffffff"/>
      <stop offset="0.5725490196078431" stop-color="#d8e4e4"/>
    </linearGradient>
    <linearGradient gradientTransform="matrix(0.0, 0.006, -0.0186, 0.0, 69.3, 15.2)" gradientUnits="userSpaceOnUse" id="gradient10" spreadMethod="pad" x1="-819.2" x2="819.2">
      <stop offset="0.34901960784313724" stop-color="#ffffff"/>
      <stop offset="0.5725490196078431" stop-color="#d8e4e4"/>
    </linearGradient>
    <linearGradient gradientTransform="matrix(0.0, 0.0091, -0.0133, 0.0, 54.45, 19.6)" gradientUnits="userSpaceOnUse" id="gradient11" spreadMethod="pad" x1="-819.2" x2="819.2">
      <stop offset="0.34901960784313724" stop-color="#ffffff"/>
      <stop offset="0.5725490196078431" stop-color="#d8e4e4"/>
    </linearGradient>
    <linearGradient gradientTransform="matrix(0.0, 0.0112, -0.0187, 0.0, 34.45, 24.2)" gradientUnits="userSpaceOnUse" id="gradient12" spreadMethod="pad" x1="-819.2" x2="819.2">
      <stop offset="0.34901960784313724" stop-color="#ffffff"/>
      <stop offset="0.5725490196078431" stop-color="#d8e4e4"/>
    </linearGradient>
    <linearGradient gradientTransform="matrix(0.0, 0.0136, -0.0187, 0.0, 11.15, 15.4)" gradientUnits="userSpaceOnUse" id="gradient13" spreadMethod="pad" x1="-819.2" x2="819.2">
      <stop offset="0.34901960784313724" stop-color="#ffffff"/>
      <stop offset="0.5725490196078431" stop-color="#d8e4e4"/>
    </linearGradient>
  </defs>
</svg>
