<?xml version="1.0" encoding="UTF-8" standalone="no"?>
<svg xmlns:ffdec="https://www.free-decompiler.com/flash" xmlns:xlink="http://www.w3.org/1999/xlink" ffdec:objectType="shape" height="43.25px" width="118.0px" xmlns="http://www.w3.org/2000/svg">
  <g transform="matrix(1.0, 0.0, 0.0, 1.0, 0.0, 0.0)">
    <path d="M100.0 14.45 Q101.15 15.05 101.7 16.35 L101.45 16.35 96.05 16.9 95.9 16.9 95.85 15.05 95.8 14.9 96.05 14.9 100.0 14.45 M96.1 30.9 Q96.1 37.35 95.4 39.5 94.85 41.2 93.25 42.25 91.7 43.25 89.6 43.25 L87.9 43.05 Q86.45 42.7 84.7 41.0 L83.65 40.0 84.75 39.2 84.85 39.15 Q86.5 40.7 87.9 41.05 L89.6 41.25 Q91.7 41.25 93.25 40.25 94.85 39.2 95.4 37.5 96.0 35.7 96.1 30.9 M91.0 28.9 L90.95 27.5 90.65 16.9 89.15 16.95 87.5 16.9 Q86.4 16.75 86.4 15.95 86.4 15.4 87.05 14.8 L87.5 14.9 89.15 14.95 90.65 14.9 90.95 25.5 91.0 27.75 91.0 28.9 M90.5 11.85 L90.5 11.8 90.55 10.65 90.55 11.65 90.55 11.85 90.5 11.85 M103.4 5.4 L103.55 6.55 103.25 7.65 Q102.65 9.05 100.3 9.45 L100.05 9.5 100.15 9.05 Q100.15 8.0 99.5 7.25 98.85 6.45 98.0 6.45 96.85 6.45 96.25 7.75 95.8 8.65 95.75 11.2 L95.75 10.0 Q95.75 6.8 96.25 5.75 96.85 4.45 98.0 4.45 98.85 4.45 99.5 5.25 100.15 6.0 100.15 7.05 L100.05 7.5 100.3 7.45 Q102.65 7.05 103.25 5.65 L103.4 5.4 M80.2 30.3 L80.8 31.1 Q81.65 31.75 83.0 31.75 85.0 31.75 86.35 30.75 L87.55 29.3 87.7 30.25 Q87.7 31.75 86.35 32.75 85.0 33.75 83.0 33.75 81.65 33.75 80.8 33.1 80.0 32.4 80.0 31.3 L80.2 30.3 M75.15 14.3 L75.35 14.65 75.95 16.1 76.1 16.4 75.1 16.3 Q73.0 16.3 71.4 18.7 70.3 20.3 69.75 21.5 L69.35 20.75 69.35 20.6 Q69.75 19.05 71.4 16.7 73.0 14.3 75.1 14.3 L75.15 14.3 M76.7 28.65 L76.8 29.55 Q76.8 31.2 75.65 32.45 74.5 33.65 72.95 33.65 71.2 33.65 69.7 32.05 67.2 29.3 66.35 27.3 L66.2 27.6 Q64.7 30.6 63.4 32.0 62.0 33.5 60.5 33.5 59.4 33.5 58.6 32.55 57.8 31.55 57.8 30.25 L57.95 29.25 Q58.1 29.95 58.6 30.55 59.4 31.5 60.5 31.5 62.0 31.5 63.4 30.0 64.7 28.6 66.2 25.6 L66.35 25.3 Q67.2 27.3 69.7 30.05 71.2 31.65 72.95 31.65 74.5 31.65 75.65 30.45 L76.7 28.65 M63.7 22.8 L63.45 22.4 62.45 20.55 Q60.85 17.6 59.4 16.5 58.85 16.05 57.9 16.05 L58.1 15.8 59.4 14.5 Q60.85 15.6 62.45 18.55 L63.45 20.4 64.15 21.55 64.2 21.7 63.7 22.8 M44.9 13.6 L44.95 14.4 44.7 16.9 44.4 19.95 44.3 20.9 44.15 23.7 44.1 22.9 44.3 18.9 44.4 17.95 44.7 14.9 44.9 13.6 M49.4 18.2 L49.35 17.55 49.25 16.5 49.1 16.15 49.35 16.0 49.4 16.0 49.4 17.05 49.4 18.2 M55.3 14.25 L55.45 14.95 55.05 17.4 Q54.4 20.9 54.3 23.9 L54.25 23.05 Q54.25 19.6 55.05 15.4 L55.3 14.25 M57.15 28.9 L57.15 28.85 57.25 29.75 Q57.25 31.3 56.35 32.3 55.4 33.3 53.95 33.3 51.25 33.3 50.0 29.75 47.3 33.4 44.15 33.4 41.8 33.4 40.4 31.75 38.95 30.1 38.95 27.45 L39.0 26.2 Q39.15 28.35 40.4 29.75 41.8 31.4 44.15 31.4 47.3 31.4 50.0 27.75 51.25 31.3 53.95 31.3 55.4 31.3 56.35 30.3 L57.15 28.9 M39.35 18.75 Q39.25 16.9 38.75 15.4 L38.65 15.25 39.1 14.75 39.35 17.7 39.35 18.75 M30.5 17.35 Q30.15 16.4 29.05 16.4 28.0 16.4 27.2 17.65 26.7 18.5 26.55 19.6 L26.45 18.65 Q26.45 16.9 27.2 15.65 28.0 14.4 29.05 14.4 30.65 14.4 30.65 16.3 L30.5 17.35 M34.8 16.7 L34.85 17.75 Q34.85 20.35 32.7 22.55 30.75 24.6 27.75 25.55 27.35 24.75 27.2 23.7 30.6 22.75 32.7 20.55 34.45 18.75 34.8 16.7 M36.25 27.25 L36.35 28.25 Q36.35 30.4 34.35 32.05 32.3 33.7 29.6 33.7 26.0 33.7 23.7 30.7 21.4 27.75 21.4 23.1 L21.45 22.1 Q21.65 26.05 23.7 28.7 26.0 31.7 29.6 31.7 32.3 31.7 34.35 30.05 35.85 28.8 36.25 27.25 M17.35 4.45 L17.35 4.8 17.25 9.35 17.15 12.6 17.15 11.9 17.25 7.35 17.35 4.45 M17.45 24.65 L17.45 26.05 Q17.45 28.9 16.3 30.7 15.4 32.1 13.5 33.0 11.55 33.85 9.4 33.85 4.4 33.85 1.25 30.45 L0.2 29.45 0.0 29.4 1.45 28.65 Q4.55 31.85 9.4 31.85 11.55 31.85 13.5 31.0 15.4 30.1 16.3 28.7 17.35 27.1 17.45 24.65 M12.15 17.8 L11.8 9.7 Q11.55 6.5 11.1 5.0 L11.5 5.0 11.8 7.7 12.15 17.8" fill="#86111a" fill-rule="evenodd" stroke="none"/>
    <path d="M95.75 11.2 L95.75 11.95 95.95 11.95 96.65 11.9 97.2 11.85 Q100.65 11.85 101.7 14.35 L101.45 14.35 100.0 14.45 96.05 14.9 95.8 14.9 95.85 15.05 95.9 16.9 95.9 17.75 96.05 24.2 96.1 28.15 96.1 28.9 96.1 29.65 96.1 30.9 Q96.0 35.7 95.4 37.5 94.85 39.2 93.25 40.25 91.7 41.25 89.6 41.25 L87.9 41.05 Q86.5 40.7 84.85 39.15 L84.7 39.0 83.65 38.0 84.75 37.2 Q86.0 36.25 86.65 36.25 L87.35 36.45 88.15 36.85 89.3 37.25 Q90.55 37.25 90.75 35.65 L90.85 34.45 91.0 28.9 91.0 27.75 90.95 25.5 90.65 14.9 89.15 14.95 87.5 14.9 87.05 14.8 Q86.4 14.55 86.4 13.95 86.4 13.25 87.4 12.45 L88.3 11.6 89.8 11.9 90.5 11.85 90.55 11.85 90.55 11.65 90.55 10.65 90.55 10.6 90.55 10.5 90.5 9.8 Q90.5 5.3 92.15 3.0 94.25 0.0 98.1 0.0 100.4 0.0 101.95 1.3 103.55 2.65 103.55 4.55 L103.4 5.4 103.25 5.65 Q102.65 7.05 100.3 7.45 L100.05 7.5 100.15 7.05 Q100.15 6.0 99.5 5.25 98.85 4.45 98.0 4.45 96.85 4.45 96.25 5.75 95.75 6.8 95.75 10.0 L95.75 11.2" fill="url(#gradient0)" fill-rule="evenodd" stroke="none"/>
    <path d="M80.2 30.3 L80.0 29.3 Q80.0 27.95 81.4 26.9 82.85 25.85 84.7 25.85 86.05 25.85 86.9 26.5 87.7 27.15 87.7 28.25 L87.55 29.3 86.35 30.75 Q85.0 31.75 83.0 31.75 81.65 31.75 80.8 31.1 L80.2 30.3" fill="url(#gradient1)" fill-rule="evenodd" stroke="none"/>
    <path d="M59.4 14.5 Q58.8 14.05 57.9 14.05 L58.1 13.8 Q60.3 11.15 62.3 11.15 63.25 11.15 64.35 12.1 64.95 12.65 66.95 16.6 L67.15 17.05 Q68.2 14.25 69.75 12.65 71.3 11.05 72.95 11.05 73.8 11.05 74.45 11.6 L75.35 12.65 75.95 14.1 76.1 14.4 75.15 14.3 75.1 14.3 Q73.0 14.3 71.4 16.7 69.75 19.05 69.35 20.6 L69.35 20.75 69.75 21.5 Q70.75 23.25 72.25 25.2 73.7 27.2 75.05 27.2 75.9 27.2 76.65 26.6 L76.8 27.55 76.7 28.65 75.65 30.45 Q74.5 31.65 72.95 31.65 71.2 31.65 69.7 30.05 67.2 27.3 66.35 25.3 L66.2 25.6 Q64.7 28.6 63.4 30.0 62.0 31.5 60.5 31.5 59.4 31.5 58.6 30.55 58.1 29.95 57.95 29.25 L57.8 28.25 57.95 27.15 Q58.55 27.6 59.0 27.6 60.35 27.6 61.55 26.15 L63.7 22.8 64.2 21.7 64.15 21.55 63.45 20.4 62.45 18.55 Q60.85 15.6 59.4 14.5" fill="url(#gradient2)" fill-rule="evenodd" stroke="none"/>
    <path d="M39.1 14.75 L38.75 13.4 38.65 13.25 Q38.65 12.9 39.8 12.4 L41.65 11.2 Q42.7 10.4 43.5 10.4 44.95 10.4 44.95 12.4 L44.9 13.6 44.7 14.9 44.4 17.95 44.3 18.9 44.1 22.9 44.15 23.7 Q44.3 26.45 45.75 26.45 47.2 26.45 48.3 23.6 49.2 21.2 49.4 18.2 L49.4 17.05 49.4 16.0 49.35 15.55 49.25 14.5 49.1 14.15 49.35 14.0 49.65 13.85 51.8 12.6 Q53.1 11.75 54.25 11.75 55.45 11.75 55.45 12.95 L55.3 14.25 55.05 15.4 Q54.25 19.6 54.25 23.05 L54.3 23.9 Q54.45 27.1 56.1 27.1 L57.15 26.85 57.25 27.75 57.15 28.9 56.35 30.3 Q55.4 31.3 53.95 31.3 51.25 31.3 50.0 27.75 47.3 31.4 44.15 31.4 41.8 31.4 40.4 29.75 39.15 28.35 39.0 26.2 L38.95 25.45 39.1 22.45 39.35 18.75 39.35 17.7 39.1 14.75" fill="url(#gradient3)" fill-rule="evenodd" stroke="none"/>
    <path d="M26.55 19.6 L26.65 20.3 Q29.9 19.4 30.5 17.35 L30.65 16.3 Q30.65 14.4 29.05 14.4 28.0 14.4 27.2 15.65 26.45 16.9 26.45 18.65 L26.55 19.6 M21.45 22.1 L21.4 21.1 Q21.4 16.45 23.75 13.2 26.05 9.95 29.35 9.95 31.7 9.95 33.3 11.6 34.85 13.25 34.85 15.75 L34.8 16.7 Q34.45 18.75 32.7 20.55 30.6 22.75 27.2 23.7 27.35 24.75 27.75 25.55 28.65 27.55 30.85 27.55 32.2 27.55 33.65 26.75 35.1 25.9 36.0 24.65 36.35 25.3 36.35 26.25 L36.25 27.25 Q35.85 28.8 34.35 30.05 32.3 31.7 29.6 31.7 26.0 31.7 23.7 28.7 21.65 26.05 21.45 22.1" fill="url(#gradient4)" fill-rule="evenodd" stroke="none"/>
    <path d="M11.5 5.0 L11.1 3.0 13.75 2.4 15.05 1.8 16.35 1.5 Q17.35 1.5 17.35 2.8 L17.35 4.45 17.25 7.35 17.15 11.9 17.15 12.6 17.15 13.25 17.15 13.9 17.2 15.6 17.35 19.85 17.45 24.05 17.45 24.65 Q17.35 27.1 16.3 28.7 15.4 30.1 13.5 31.0 11.55 31.85 9.4 31.85 4.55 31.85 1.45 28.65 L1.25 28.45 0.2 27.45 0.0 27.4 1.65 26.5 Q2.95 25.6 4.0 25.6 4.75 25.6 6.05 26.35 7.7 27.3 9.1 27.3 10.75 27.3 11.4 26.15 12.1 25.0 12.15 22.2 L12.15 19.8 12.15 18.1 12.15 17.8 11.8 7.7 11.5 5.0" fill="url(#gradient5)" fill-rule="evenodd" stroke="none"/>
    <path d="M109.15 14.5 Q110.2 13.0 111.7 12.0 113.25 10.95 114.55 10.95 116.0 10.95 117.0 12.0 118.0 13.05 118.0 14.6 L117.85 15.5 117.25 16.55 Q116.45 17.5 115.3 17.85 L114.65 16.6 Q114.05 16.05 113.25 16.05 111.95 16.05 110.8 17.95 108.75 21.4 108.75 24.45 L108.8 25.5 109.15 27.45 Q109.55 28.9 110.15 29.2 L109.4 30.25 Q108.2 31.55 106.45 31.55 103.85 31.55 103.5 28.5 L103.45 27.45 103.75 22.25 103.9 19.75 103.9 19.0 Q103.9 15.9 103.6 14.15 L103.1 12.5 104.5 11.5 Q106.5 10.0 107.9 10.0 109.2 10.0 109.2 11.45 L109.15 12.9 109.05 14.65 109.15 14.5" fill="url(#gradient6)" fill-rule="evenodd" stroke="none"/>
    <path d="M117.85 15.5 L118.0 16.6 Q118.0 17.65 117.25 18.55 116.45 19.5 115.3 19.85 L114.65 18.6 Q114.05 18.05 113.25 18.05 111.95 18.05 110.8 19.95 109.05 22.85 108.8 25.5 L108.75 24.45 Q108.75 21.4 110.8 17.95 111.95 16.05 113.25 16.05 114.05 16.05 114.65 16.6 L115.3 17.85 Q116.45 17.5 117.25 16.55 L117.85 15.5 M109.4 30.25 L110.15 31.2 Q108.75 33.55 106.45 33.55 103.45 33.55 103.45 29.45 L103.5 28.5 Q103.85 31.55 106.45 31.55 108.2 31.55 109.4 30.25 M103.9 19.75 Q103.8 15.8 103.1 14.5 L103.6 14.15 Q103.9 15.9 103.9 19.0 L103.9 19.75 M109.15 12.9 L109.2 13.45 109.15 14.5 109.05 14.65 109.15 12.9" fill="#86111a" fill-rule="evenodd" stroke="none"/>
  </g>
  <defs>
    <linearGradient gradientTransform="matrix(0.0, 0.0121, -0.0252, 0.0, 93.65, 20.65)" gradientUnits="userSpaceOnUse" id="gradient0" spreadMethod="pad" x1="-819.2" x2="819.2">
      <stop offset="0.3607843137254902" stop-color="#ffffff"/>
      <stop offset="0.5725490196078431" stop-color="#d8e4e4"/>
    </linearGradient>
    <linearGradient gradientTransform="matrix(0.0, 0.0047, -0.0036, 0.0, 83.85, 28.8)" gradientUnits="userSpaceOnUse" id="gradient1" spreadMethod="pad" x1="-819.2" x2="819.2">
      <stop offset="0.3607843137254902" stop-color="#ffffff"/>
      <stop offset="0.5725490196078431" stop-color="#d8e4e4"/>
    </linearGradient>
    <linearGradient gradientTransform="matrix(0.0, 0.0116, -0.0126, 0.0, 67.3, 21.35)" gradientUnits="userSpaceOnUse" id="gradient2" spreadMethod="pad" x1="-819.2" x2="819.2">
      <stop offset="0.3607843137254902" stop-color="#ffffff"/>
      <stop offset="0.5725490196078431" stop-color="#d8e4e4"/>
    </linearGradient>
    <linearGradient gradientTransform="matrix(0.0, 0.0114, -0.0128, 0.0, 47.95, 20.9)" gradientUnits="userSpaceOnUse" id="gradient3" spreadMethod="pad" x1="-819.2" x2="819.2">
      <stop offset="0.3607843137254902" stop-color="#ffffff"/>
      <stop offset="0.5725490196078431" stop-color="#d8e4e4"/>
    </linearGradient>
    <linearGradient gradientTransform="matrix(0.0, 0.0091, -0.0133, 0.0, 28.9, 20.85)" gradientUnits="userSpaceOnUse" id="gradient4" spreadMethod="pad" x1="-819.2" x2="819.2">
      <stop offset="0.3607843137254902" stop-color="#ffffff"/>
      <stop offset="0.5725490196078431" stop-color="#d8e4e4"/>
    </linearGradient>
    <linearGradient gradientTransform="matrix(0.0, 0.0116, -0.0185, 0.0, 8.75, 16.7)" gradientUnits="userSpaceOnUse" id="gradient5" spreadMethod="pad" x1="-819.2" x2="819.2">
      <stop offset="0.3607843137254902" stop-color="#ffffff"/>
      <stop offset="0.5725490196078431" stop-color="#d8e4e4"/>
    </linearGradient>
    <linearGradient gradientTransform="matrix(0.0, 0.0091, -0.0132, 0.0, 110.55, 20.75)" gradientUnits="userSpaceOnUse" id="gradient6" spreadMethod="pad" x1="-819.2" x2="819.2">
      <stop offset="0.3607843137254902" stop-color="#ffffff"/>
      <stop offset="0.5725490196078431" stop-color="#d8e4e4"/>
    </linearGradient>
  </defs>
</svg>
