<?xml version="1.0" encoding="UTF-8" standalone="no"?>
<svg xmlns:ffdec="https://www.free-decompiler.com/flash" xmlns:xlink="http://www.w3.org/1999/xlink" ffdec:objectType="shape" height="41.5px" width="254.2px" xmlns="http://www.w3.org/2000/svg">
  <g transform="matrix(1.0, 0.0, 0.0, 1.0, 0.0, 0.0)">
    <path d="M235.65 6.8 L235.25 11.5 234.85 21.65 Q234.85 25.85 235.35 27.1 235.85 28.4 237.25 28.4 L238.4 28.1 238.4 28.5 Q238.4 32.15 234.85 32.15 231.7 32.15 230.9 29.1 228.7 32.35 225.15 32.35 222.15 32.35 220.45 29.95 218.75 27.55 218.75 23.45 218.75 18.2 221.1 14.55 223.5 10.85 226.85 10.85 228.9 10.85 230.25 12.35 L230.25 11.95 230.25 10.4 230.3 8.65 Q230.3 4.25 229.75 3.45 230.6 3.4 231.9 2.85 234.1 2.0 234.8 2.0 236.1 2.0 236.1 3.3 L236.0 4.0 235.85 5.2 235.65 6.8 M254.2 27.0 Q254.2 29.15 252.2 30.8 250.15 32.45 247.45 32.45 243.85 32.45 241.55 29.45 239.25 26.5 239.25 21.85 239.25 17.2 241.6 13.95 243.9 10.7 247.2 10.7 249.55 10.7 251.15 12.35 252.7 14.0 252.7 16.5 252.7 19.1 250.55 21.3 248.45 23.5 245.05 24.45 245.65 28.3 248.7 28.3 250.05 28.3 251.5 27.5 252.95 26.65 253.85 25.4 254.2 26.05 254.2 27.0 M248.5 17.05 Q248.5 15.15 246.9 15.15 245.85 15.15 245.05 16.4 244.3 17.65 244.3 19.4 L244.5 21.05 Q248.5 19.95 248.5 17.05 M11.1 3.75 L13.75 3.15 15.05 2.55 16.35 2.25 Q17.35 2.25 17.35 3.55 L17.25 8.1 17.15 12.65 17.35 20.6 17.45 24.8 Q17.45 27.65 16.3 29.45 15.4 30.85 13.5 31.75 11.55 32.6 9.4 32.6 4.4 32.6 1.25 29.2 L0.2 28.2 0.0 28.15 1.65 27.25 Q2.95 26.35 4.0 26.35 4.75 26.35 6.05 27.1 7.7 28.05 9.1 28.05 10.75 28.05 11.4 26.9 12.1 25.75 12.15 22.95 L12.15 18.55 11.8 8.45 Q11.55 5.25 11.1 3.75 M47.95 5.5 Q47.1 8.3 47.05 10.95 L49.45 11.05 Q51.4 11.05 52.3 12.1 L52.2 12.15 51.6 13.15 Q50.95 14.15 49.55 14.6 L47.6 14.9 46.7 14.9 46.55 14.9 46.55 15.1 46.35 18.95 46.2 21.7 Q46.2 25.45 47.2 26.7 48.1 27.8 49.5 27.8 51.3 27.8 52.6 26.2 L52.65 26.7 Q52.65 29.0 51.05 30.6 49.5 32.15 47.2 32.15 43.85 32.15 42.3 29.5 41.15 27.45 41.15 23.15 L41.15 22.6 41.55 15.15 41.6 15.0 41.45 15.0 40.25 15.05 39.4 15.05 Q36.35 15.05 36.35 13.6 L36.55 12.8 38.3 10.6 38.4 10.5 38.95 10.9 40.65 11.15 41.15 11.1 41.9 11.05 42.05 11.05 42.15 8.55 42.3 6.85 42.35 5.9 Q42.45 5.05 43.0 4.65 43.7 4.2 44.6 3.9 L47.55 3.3 Q48.3 3.3 48.3 4.1 L47.95 5.5 M59.25 16.4 Q56.4 16.4 55.25 15.75 54.15 15.1 54.15 13.4 54.15 12.6 54.55 11.7 56.45 12.45 63.1 12.45 L70.15 11.85 70.35 13.85 Q70.35 14.8 70.0 15.45 L67.75 18.5 65.15 21.85 60.8 28.0 60.6 28.2 63.4 28.4 Q68.75 28.4 71.05 27.25 L71.25 28.7 Q71.25 31.0 69.5 31.85 67.85 32.6 62.15 32.6 L56.6 32.4 Q53.55 32.15 53.55 30.55 53.55 29.65 56.05 26.15 L63.3 16.3 59.25 16.4 M29.05 15.15 Q28.0 15.15 27.2 16.4 26.45 17.65 26.45 19.4 L26.65 21.05 Q30.65 19.95 30.65 17.05 30.65 15.15 29.05 15.15 M33.3 12.35 Q34.85 14.0 34.85 16.5 34.85 19.1 32.7 21.3 30.6 23.5 27.2 24.45 27.8 28.3 30.85 28.3 32.2 28.3 33.65 27.5 35.1 26.65 36.0 25.4 36.35 26.05 36.35 27.0 36.35 29.15 34.35 30.8 32.3 32.45 29.6 32.45 26.0 32.45 23.7 29.45 21.4 26.5 21.4 21.85 21.4 17.2 23.75 13.95 26.05 10.7 29.35 10.7 31.7 10.7 33.3 12.35 M163.15 7.85 L161.9 17.15 161.45 23.1 Q161.45 27.7 164.3 27.7 L165.85 27.25 166.05 28.15 Q166.05 30.1 164.9 31.25 163.7 32.4 161.65 32.4 158.65 32.4 157.3 30.2 156.3 28.5 156.3 25.0 L156.35 23.75 156.95 14.65 157.45 7.0 Q157.45 5.55 156.95 4.55 L157.2 4.45 159.0 3.1 Q160.5 2.0 161.8 2.0 163.55 2.0 163.55 4.25 L163.15 7.85 M82.3 5.5 Q81.45 8.3 81.4 10.95 L83.8 11.05 Q85.75 11.05 86.65 12.1 L86.55 12.15 85.95 13.15 Q85.3 14.15 83.9 14.6 L81.95 14.9 81.05 14.9 80.9 14.9 80.9 15.1 80.7 18.95 80.55 21.7 Q80.55 25.45 81.55 26.7 82.45 27.8 83.85 27.8 85.65 27.8 86.95 26.2 L87.0 26.7 Q87.0 29.0 85.4 30.6 83.85 32.15 81.55 32.15 78.2 32.15 76.65 29.5 75.5 27.45 75.5 23.15 L75.5 22.6 75.9 15.15 75.95 15.0 75.8 15.0 74.6 15.05 73.75 15.05 Q70.7 15.05 70.7 13.6 L70.9 12.8 72.65 10.6 72.75 10.5 73.3 10.9 75.0 11.15 75.5 11.1 76.25 11.05 76.4 11.05 76.5 8.55 76.65 6.85 76.7 5.9 Q76.8 5.05 77.35 4.65 78.05 4.2 78.95 3.9 L81.9 3.3 Q82.65 3.3 82.65 4.1 L82.3 5.5 M136.15 5.85 Q136.15 7.45 134.6 8.65 132.9 9.95 130.95 9.95 129.95 9.95 129.25 9.35 128.55 8.75 128.55 7.85 L128.55 7.65 Q128.55 5.9 130.85 4.35 132.25 3.45 133.55 3.45 136.15 3.45 136.15 5.85 M146.75 10.7 Q149.1 10.7 150.7 12.35 152.25 14.0 152.25 16.5 152.25 19.1 150.1 21.3 148.0 23.5 144.6 24.45 145.2 28.3 148.25 28.3 149.6 28.3 151.05 27.5 152.5 26.65 153.4 25.4 153.75 26.05 153.75 27.0 153.75 29.15 151.75 30.8 149.7 32.45 147.0 32.45 143.4 32.45 141.1 29.45 138.8 26.5 138.8 21.85 138.8 17.2 141.15 13.95 143.45 10.7 146.75 10.7 M148.05 17.05 Q148.05 15.15 146.45 15.15 145.4 15.15 144.6 16.4 143.85 17.65 143.85 19.4 L144.05 21.05 Q148.05 19.95 148.05 17.05 M133.8 12.35 Q135.15 12.35 135.15 13.8 L134.95 16.2 134.6 19.4 134.45 23.35 Q134.45 28.9 135.85 30.65 L134.2 31.55 Q133.25 32.1 131.9 32.1 129.35 32.1 129.35 28.3 L129.45 24.95 129.5 20.85 Q129.5 15.7 128.7 14.75 L128.95 14.7 131.25 13.3 Q132.6 12.35 133.8 12.35 M124.75 20.55 Q124.75 25.8 122.45 29.2 120.1 32.55 116.5 32.55 114.55 32.55 112.4 31.15 L112.4 31.4 112.4 32.9 112.55 34.85 113.05 37.45 113.3 38.7 Q113.3 39.8 112.15 40.65 111.05 41.5 109.55 41.5 108.1 41.5 107.7 40.15 107.3 39.0 107.3 34.6 107.3 31.75 107.6 26.7 L107.85 20.1 Q107.85 14.55 106.45 13.35 L108.5 12.1 Q110.35 10.85 111.3 10.85 L112.1 11.05 Q112.65 11.4 112.65 12.95 L112.7 14.5 Q113.6 12.85 115.1 11.85 116.6 10.85 118.2 10.85 121.15 10.85 122.95 13.5 124.75 16.2 124.75 20.55 M113.85 18.2 Q112.6 20.9 112.6 24.85 L112.6 26.35 Q114.15 28.35 115.85 28.35 117.55 28.35 118.6 26.4 119.7 24.45 119.7 21.35 119.7 15.45 116.9 15.45 115.1 15.45 113.85 18.2 M101.3 17.6 Q100.65 16.4 99.15 15.65 97.7 14.85 96.25 14.85 94.0 14.85 94.0 16.45 L94.25 17.15 Q94.75 17.85 98.75 20.35 101.0 21.75 102.0 23.0 103.25 24.55 103.25 26.6 103.25 29.45 101.25 31.15 99.25 32.9 95.95 32.9 92.25 32.9 88.9 30.75 L87.4 29.85 87.3 29.8 87.4 29.7 88.65 28.25 Q89.55 27.25 90.6 27.25 L91.5 27.45 92.8 28.1 Q94.1 28.7 95.5 28.7 96.4 28.7 97.0 28.2 97.6 27.65 97.6 26.85 97.6 25.95 96.65 25.15 L94.95 24.0 92.1 22.15 Q88.5 19.85 88.5 16.75 88.5 14.35 90.6 12.75 92.7 11.2 95.95 11.2 99.0 11.2 101.05 12.25 103.05 13.25 103.05 14.85 103.05 15.6 102.1 16.7 L101.3 17.6 M230.05 17.05 L230.05 16.9 Q229.0 15.5 227.55 15.5 225.95 15.5 224.9 17.6 223.85 19.7 223.85 23.0 223.85 28.0 226.55 28.0 230.1 28.0 230.1 19.3 L230.1 18.25 230.05 17.05 M216.95 29.0 Q216.95 30.5 215.6 31.5 214.25 32.5 212.25 32.5 210.9 32.5 210.05 31.85 209.25 31.15 209.25 30.05 209.25 28.7 210.65 27.65 212.1 26.6 213.95 26.6 215.3 26.6 216.15 27.25 216.95 27.9 216.95 29.0 M193.45 20.25 Q192.35 21.75 191.55 23.6 190.35 26.45 190.35 29.0 190.35 30.6 190.75 31.1 189.35 32.2 187.45 32.2 186.1 32.2 185.55 31.2 184.6 29.35 184.6 23.0 L184.75 17.5 184.85 14.95 Q184.85 13.45 184.45 12.7 L184.7 12.65 187.05 11.4 Q188.15 10.85 189.0 10.85 190.75 10.85 190.75 12.1 L190.45 13.8 Q189.75 16.85 189.75 19.6 L189.8 19.95 189.9 19.8 Q191.35 16.9 193.15 14.85 195.3 12.45 197.25 12.45 199.15 12.45 200.05 13.8 201.25 15.6 201.25 20.45 L201.3 24.55 Q201.35 28.5 203.25 28.5 204.3 28.5 205.4 27.25 L205.55 28.25 Q205.55 29.9 204.3 31.25 203.05 32.55 201.4 32.55 198.95 32.55 197.4 29.85 196.25 27.8 196.15 22.55 196.05 18.75 195.2 18.75 194.55 18.75 193.45 20.25 M178.2 21.3 Q176.1 23.5 172.7 24.45 173.3 28.3 176.35 28.3 177.7 28.3 179.15 27.5 180.6 26.65 181.5 25.4 181.85 26.05 181.85 27.0 181.85 29.15 179.85 30.8 177.8 32.45 175.1 32.45 171.5 32.45 169.2 29.45 166.9 26.5 166.9 21.85 166.9 17.2 169.25 13.95 171.55 10.7 174.85 10.7 177.2 10.7 178.8 12.35 180.35 14.0 180.35 16.5 180.35 19.1 178.2 21.3 M176.15 17.05 Q176.15 15.15 174.55 15.15 173.5 15.15 172.7 16.4 171.95 17.65 171.95 19.4 L172.15 21.05 Q176.15 19.95 176.15 17.05" fill="#86111a" fill-rule="evenodd" stroke="none"/>
    <path d="M235.65 4.8 L235.25 9.5 234.85 19.65 Q234.85 23.85 235.35 25.1 235.85 26.4 237.25 26.4 L238.4 26.1 238.4 26.5 Q238.4 30.15 234.85 30.15 231.7 30.15 230.9 27.1 228.7 30.35 225.15 30.35 222.15 30.35 220.45 27.95 218.75 25.55 218.75 21.45 218.75 16.2 221.1 12.55 223.5 8.85 226.85 8.85 228.9 8.85 230.25 10.35 L230.25 9.95 230.25 8.4 230.3 6.65 Q230.3 2.25 229.75 1.45 230.6 1.4 231.9 0.85 234.1 0.0 234.8 0.0 236.1 0.0 236.1 1.3 L236.0 2.0 235.85 3.2 235.65 4.8 M223.85 21.0 Q223.85 26.0 226.55 26.0 230.1 26.0 230.1 17.3 L230.1 16.25 230.05 15.05 230.05 14.9 Q229.0 13.5 227.55 13.5 225.95 13.5 224.9 15.6 223.85 17.7 223.85 21.0" fill="url(#gradient0)" fill-rule="evenodd" stroke="none"/>
    <path d="M254.2 25.0 Q254.2 27.15 252.2 28.8 250.15 30.45 247.45 30.45 243.85 30.45 241.55 27.45 239.25 24.5 239.25 19.85 239.25 15.2 241.6 11.95 243.9 8.7 247.2 8.7 249.55 8.7 251.15 10.35 252.7 12.0 252.7 14.5 252.7 17.1 250.55 19.3 248.45 21.5 245.05 22.45 245.65 26.3 248.7 26.3 250.05 26.3 251.5 25.5 252.95 24.65 253.85 23.4 254.2 24.05 254.2 25.0 M248.5 15.05 Q248.5 13.15 246.9 13.15 245.85 13.15 245.05 14.4 244.3 15.65 244.3 17.4 L244.5 19.05 Q248.5 17.95 248.5 15.05" fill="url(#gradient1)" fill-rule="evenodd" stroke="none"/>
    <path d="M11.1 1.75 L13.75 1.15 15.05 0.55 16.35 0.25 Q17.35 0.25 17.35 1.55 L17.25 6.1 17.15 10.65 17.35 18.6 17.45 22.8 Q17.45 25.65 16.3 27.45 15.4 28.85 13.5 29.75 11.55 30.6 9.4 30.6 4.4 30.6 1.25 27.2 L0.2 26.2 0.0 26.15 1.65 25.25 Q2.95 24.35 4.0 24.35 4.75 24.35 6.05 25.1 7.7 26.05 9.1 26.05 10.75 26.05 11.4 24.9 12.1 23.75 12.15 20.95 L12.15 16.55 11.8 6.45 Q11.55 3.25 11.1 1.75" fill="url(#gradient2)" fill-rule="evenodd" stroke="none"/>
    <path d="M38.4 8.5 L38.95 8.9 40.65 9.15 41.15 9.1 41.9 9.05 42.05 9.05 42.15 6.55 42.3 4.85 42.35 3.9 Q42.45 3.05 43.0 2.65 43.7 2.2 44.6 1.9 L47.55 1.3 Q48.3 1.3 48.3 2.1 L47.95 3.5 Q47.1 6.3 47.05 8.95 L49.45 9.05 Q51.4 9.05 52.3 10.1 L52.2 10.15 51.6 11.15 Q50.95 12.15 49.55 12.6 L47.6 12.9 46.7 12.9 46.55 12.9 46.55 13.1 46.35 16.95 46.2 19.7 Q46.2 23.45 47.2 24.7 48.1 25.8 49.5 25.8 51.3 25.8 52.6 24.2 L52.65 24.7 Q52.65 27.0 51.05 28.6 49.5 30.15 47.2 30.15 43.85 30.15 42.3 27.5 41.15 25.45 41.15 21.15 L41.15 20.6 41.55 13.15 41.6 13.0 41.45 13.0 40.25 13.05 39.4 13.05 Q36.35 13.05 36.35 11.6 L36.55 10.8 38.3 8.6 38.4 8.5" fill="url(#gradient3)" fill-rule="evenodd" stroke="none"/>
    <path d="M65.15 19.85 L60.8 26.0 60.6 26.2 63.4 26.4 Q68.75 26.4 71.05 25.25 L71.25 26.7 Q71.25 29.0 69.5 29.85 67.85 30.6 62.15 30.6 L56.6 30.4 Q53.55 30.15 53.55 28.55 53.55 27.65 56.05 24.15 L63.3 14.3 59.25 14.4 Q56.4 14.4 55.25 13.75 54.15 13.1 54.15 11.4 54.15 10.6 54.55 9.7 56.45 10.45 63.1 10.45 L70.15 9.85 70.35 11.85 Q70.35 12.8 70.0 13.45 L67.75 16.5 65.15 19.85" fill="url(#gradient4)" fill-rule="evenodd" stroke="none"/>
    <path d="M29.05 13.15 Q28.0 13.15 27.2 14.4 26.45 15.65 26.45 17.4 L26.65 19.05 Q30.65 17.95 30.65 15.05 30.65 13.15 29.05 13.15 M34.85 14.5 Q34.85 17.1 32.7 19.3 30.6 21.5 27.2 22.45 27.8 26.3 30.85 26.3 32.2 26.3 33.65 25.5 35.1 24.65 36.0 23.4 36.35 24.05 36.35 25.0 36.35 27.15 34.35 28.8 32.3 30.45 29.6 30.45 26.0 30.45 23.7 27.45 21.4 24.5 21.4 19.85 21.4 15.2 23.75 11.95 26.05 8.7 29.35 8.7 31.7 8.7 33.3 10.35 34.85 12.0 34.85 14.5" fill="url(#gradient5)" fill-rule="evenodd" stroke="none"/>
    <path d="M163.15 5.85 L161.9 15.15 161.45 21.1 Q161.45 25.7 164.3 25.7 L165.85 25.25 166.05 26.15 Q166.05 28.1 164.9 29.25 163.7 30.4 161.65 30.4 158.65 30.4 157.3 28.2 156.3 26.5 156.3 23.0 L156.35 21.75 156.95 12.65 157.45 5.0 Q157.45 3.55 156.95 2.55 L157.2 2.45 159.0 1.1 Q160.5 0.0 161.8 0.0 163.55 0.0 163.55 2.25 L163.15 5.85" fill="url(#gradient6)" fill-rule="evenodd" stroke="none"/>
    <path d="M78.95 1.9 L81.9 1.3 Q82.65 1.3 82.65 2.1 L82.3 3.5 Q81.45 6.3 81.4 8.95 L83.8 9.05 Q85.75 9.05 86.65 10.1 L86.55 10.15 85.95 11.15 Q85.3 12.15 83.9 12.6 L81.95 12.9 81.05 12.9 80.9 12.9 80.9 13.1 80.7 16.95 80.55 19.7 Q80.55 23.45 81.55 24.7 82.45 25.8 83.85 25.8 85.65 25.8 86.95 24.2 L87.0 24.7 Q87.0 27.0 85.4 28.6 83.85 30.15 81.55 30.15 78.2 30.15 76.65 27.5 75.5 25.45 75.5 21.15 L75.5 20.6 75.9 13.15 75.95 13.0 75.8 13.0 74.6 13.05 73.75 13.05 Q70.7 13.05 70.7 11.6 L70.9 10.8 72.65 8.6 72.75 8.5 73.3 8.9 75.0 9.15 75.5 9.1 76.25 9.05 76.4 9.05 76.5 6.55 76.65 4.85 76.7 3.9 Q76.8 3.05 77.35 2.65 78.05 2.2 78.95 1.9" fill="url(#gradient7)" fill-rule="evenodd" stroke="none"/>
    <path d="M136.15 3.85 Q136.15 5.45 134.6 6.65 132.9 7.95 130.95 7.95 129.95 7.95 129.25 7.35 128.55 6.75 128.55 5.85 L128.55 5.65 Q128.55 3.9 130.85 2.35 132.25 1.45 133.55 1.45 136.15 1.45 136.15 3.85" fill="url(#gradient8)" fill-rule="evenodd" stroke="none"/>
    <path d="M148.05 15.05 Q148.05 13.15 146.45 13.15 145.4 13.15 144.6 14.4 143.85 15.65 143.85 17.4 L144.05 19.05 Q148.05 17.95 148.05 15.05 M148.25 26.3 Q149.6 26.3 151.05 25.5 152.5 24.65 153.4 23.4 153.75 24.05 153.75 25.0 153.75 27.15 151.75 28.8 149.7 30.45 147.0 30.45 143.4 30.45 141.1 27.45 138.8 24.5 138.8 19.85 138.8 15.2 141.15 11.95 143.45 8.7 146.75 8.7 149.1 8.7 150.7 10.35 152.25 12.0 152.25 14.5 152.25 17.1 150.1 19.3 148.0 21.5 144.6 22.45 145.2 26.3 148.25 26.3" fill="url(#gradient9)" fill-rule="evenodd" stroke="none"/>
    <path d="M133.8 10.35 Q135.15 10.35 135.15 11.8 L134.95 14.2 134.6 17.4 134.45 21.35 Q134.45 26.9 135.85 28.65 L134.2 29.55 Q133.25 30.1 131.9 30.1 129.35 30.1 129.35 26.3 L129.45 22.95 129.5 18.85 Q129.5 13.7 128.7 12.75 L128.95 12.7 131.25 11.3 Q132.6 10.35 133.8 10.35" fill="url(#gradient10)" fill-rule="evenodd" stroke="none"/>
    <path d="M124.75 18.55 Q124.75 23.8 122.45 27.2 120.1 30.55 116.5 30.55 114.55 30.55 112.4 29.15 L112.4 29.4 112.4 30.9 112.55 32.85 113.05 35.45 113.3 36.7 Q113.3 37.8 112.15 38.65 111.05 39.5 109.55 39.5 108.1 39.5 107.7 38.15 107.3 37.0 107.3 32.6 107.3 29.75 107.6 24.7 L107.85 18.1 Q107.85 12.55 106.45 11.35 L108.5 10.1 Q110.35 8.85 111.3 8.85 L112.1 9.05 Q112.65 9.4 112.65 10.95 L112.7 12.5 Q113.6 10.85 115.1 9.85 116.6 8.85 118.2 8.85 121.15 8.85 122.95 11.5 124.75 14.2 124.75 18.55 M113.85 16.2 Q112.6 18.9 112.6 22.85 L112.6 24.35 Q114.15 26.35 115.85 26.35 117.55 26.35 118.6 24.4 119.7 22.45 119.7 19.35 119.7 13.45 116.9 13.45 115.1 13.45 113.85 16.2" fill="url(#gradient11)" fill-rule="evenodd" stroke="none"/>
    <path d="M101.3 15.6 Q100.65 14.4 99.15 13.65 97.7 12.85 96.25 12.85 94.0 12.85 94.0 14.45 L94.25 15.15 Q94.75 15.85 98.75 18.35 101.0 19.75 102.0 21.0 103.25 22.55 103.25 24.6 103.25 27.45 101.25 29.15 99.25 30.9 95.95 30.9 92.25 30.9 88.9 28.75 L87.4 27.85 87.3 27.8 87.4 27.7 88.65 26.25 Q89.55 25.25 90.6 25.25 L91.5 25.45 92.8 26.1 Q94.1 26.7 95.5 26.7 96.4 26.7 97.0 26.2 97.6 25.65 97.6 24.85 97.6 23.95 96.65 23.15 L94.95 22.0 92.1 20.15 Q88.5 17.85 88.5 14.75 88.5 12.35 90.6 10.75 92.7 9.2 95.95 9.2 99.0 9.2 101.05 10.25 103.05 11.25 103.05 12.85 103.05 13.6 102.1 14.7 L101.3 15.6" fill="url(#gradient12)" fill-rule="evenodd" stroke="none"/>
    <path d="M216.95 27.0 Q216.95 28.5 215.6 29.5 214.25 30.5 212.25 30.5 210.9 30.5 210.05 29.85 209.25 29.15 209.25 28.05 209.25 26.7 210.65 25.65 212.1 24.6 213.95 24.6 215.3 24.6 216.15 25.25 216.95 25.9 216.95 27.0" fill="url(#gradient13)" fill-rule="evenodd" stroke="none"/>
    <path d="M195.2 16.75 Q194.55 16.75 193.45 18.25 192.35 19.75 191.55 21.6 190.35 24.45 190.35 27.0 190.35 28.6 190.75 29.1 189.35 30.2 187.45 30.2 186.1 30.2 185.55 29.2 184.6 27.35 184.6 21.0 L184.75 15.5 184.85 12.95 Q184.85 11.45 184.45 10.7 L184.7 10.65 187.05 9.4 Q188.15 8.85 189.0 8.85 190.75 8.85 190.75 10.1 L190.45 11.8 Q189.75 14.85 189.75 17.6 L189.8 17.95 189.9 17.8 Q191.35 14.9 193.15 12.85 195.3 10.45 197.25 10.45 199.15 10.45 200.05 11.8 201.25 13.6 201.25 18.45 L201.3 22.55 Q201.35 26.5 203.25 26.5 204.3 26.5 205.4 25.25 L205.55 26.25 Q205.55 27.9 204.3 29.25 203.05 30.55 201.4 30.55 198.95 30.55 197.4 27.85 196.25 25.8 196.15 20.55 196.05 16.75 195.2 16.75" fill="url(#gradient14)" fill-rule="evenodd" stroke="none"/>
    <path d="M178.2 19.3 Q176.1 21.5 172.7 22.45 173.3 26.3 176.35 26.3 177.7 26.3 179.15 25.5 180.6 24.65 181.5 23.4 181.85 24.05 181.85 25.0 181.85 27.15 179.85 28.8 177.8 30.45 175.1 30.45 171.5 30.45 169.2 27.45 166.9 24.5 166.9 19.85 166.9 15.2 169.25 11.95 171.55 8.7 174.85 8.7 177.2 8.7 178.8 10.35 180.35 12.0 180.35 14.5 180.35 17.1 178.2 19.3 M176.15 15.05 Q176.15 13.15 174.55 13.15 173.5 13.15 172.7 14.4 171.95 15.65 171.95 17.4 L172.15 19.05 Q176.15 17.95 176.15 15.05" fill="url(#gradient15)" fill-rule="evenodd" stroke="none"/>
  </g>
  <defs>
    <linearGradient gradientTransform="matrix(0.0, 0.0146, -0.0185, 0.0, 228.6, 15.2)" gradientUnits="userSpaceOnUse" id="gradient0" spreadMethod="pad" x1="-819.2" x2="819.2">
      <stop offset="0.3607843137254902" stop-color="#ffffff"/>
      <stop offset="0.5725490196078431" stop-color="#d8e4e4"/>
    </linearGradient>
    <linearGradient gradientTransform="matrix(0.0, 0.0091, -0.0133, 0.0, 246.8, 19.75)" gradientUnits="userSpaceOnUse" id="gradient1" spreadMethod="pad" x1="-819.2" x2="819.2">
      <stop offset="0.3607843137254902" stop-color="#ffffff"/>
      <stop offset="0.5725490196078431" stop-color="#d8e4e4"/>
    </linearGradient>
    <linearGradient gradientTransform="matrix(0.0, 0.0193, -0.0185, 0.0, 8.7, 16.15)" gradientUnits="userSpaceOnUse" id="gradient2" spreadMethod="pad" x1="-819.2" x2="819.2">
      <stop offset="0.3607843137254902" stop-color="#ffffff"/>
      <stop offset="0.5725490196078431" stop-color="#d8e4e4"/>
    </linearGradient>
    <linearGradient gradientTransform="matrix(0.0, 0.0198, -0.0176, 0.0, 44.55, 15.75)" gradientUnits="userSpaceOnUse" id="gradient3" spreadMethod="pad" x1="-819.2" x2="819.2">
      <stop offset="0.3607843137254902" stop-color="#ffffff"/>
      <stop offset="0.5725490196078431" stop-color="#d8e4e4"/>
    </linearGradient>
    <linearGradient gradientTransform="matrix(0.0, 0.0145, -0.0128, 0.0, 62.4, 20.15)" gradientUnits="userSpaceOnUse" id="gradient4" spreadMethod="pad" x1="-819.2" x2="819.2">
      <stop offset="0.3607843137254902" stop-color="#ffffff"/>
      <stop offset="0.5725490196078431" stop-color="#d8e4e4"/>
    </linearGradient>
    <linearGradient gradientTransform="matrix(0.0, 0.0151, -0.0133, 0.0, 28.9, 19.6)" gradientUnits="userSpaceOnUse" id="gradient5" spreadMethod="pad" x1="-819.2" x2="819.2">
      <stop offset="0.3607843137254902" stop-color="#ffffff"/>
      <stop offset="0.5725490196078431" stop-color="#d8e4e4"/>
    </linearGradient>
    <linearGradient gradientTransform="matrix(0.0, 0.0205, -0.0186, 0.0, 161.15, 15.2)" gradientUnits="userSpaceOnUse" id="gradient6" spreadMethod="pad" x1="-819.2" x2="819.2">
      <stop offset="0.3607843137254902" stop-color="#ffffff"/>
      <stop offset="0.5725490196078431" stop-color="#d8e4e4"/>
    </linearGradient>
    <linearGradient gradientTransform="matrix(0.0, 0.0147, -0.0176, 0.0, 78.9, 15.95)" gradientUnits="userSpaceOnUse" id="gradient7" spreadMethod="pad" x1="-819.2" x2="819.2">
      <stop offset="0.3607843137254902" stop-color="#ffffff"/>
      <stop offset="0.5725490196078431" stop-color="#d8e4e4"/>
    </linearGradient>
    <linearGradient gradientTransform="matrix(0.0046, 0.0, 0.0, 0.004, 132.35, 4.7)" gradientUnits="userSpaceOnUse" id="gradient8" spreadMethod="pad" x1="-819.2" x2="819.2">
      <stop offset="0.3607843137254902" stop-color="#ffffff"/>
      <stop offset="0.5725490196078431" stop-color="#d8e4e4"/>
    </linearGradient>
    <linearGradient gradientTransform="matrix(0.0, 0.0091, -0.0133, 0.0, 146.3, 19.6)" gradientUnits="userSpaceOnUse" id="gradient9" spreadMethod="pad" x1="-819.2" x2="819.2">
      <stop offset="0.3607843137254902" stop-color="#ffffff"/>
      <stop offset="0.5725490196078431" stop-color="#d8e4e4"/>
    </linearGradient>
    <linearGradient gradientTransform="matrix(0.0, 0.0085, -0.0121, 0.0, 132.25, 20.2)" gradientUnits="userSpaceOnUse" id="gradient10" spreadMethod="pad" x1="-819.2" x2="819.2">
      <stop offset="0.3607843137254902" stop-color="#ffffff"/>
      <stop offset="0.5725490196078431" stop-color="#d8e4e4"/>
    </linearGradient>
    <linearGradient gradientTransform="matrix(0.0, 0.0112, -0.0187, 0.0, 115.65, 24.2)" gradientUnits="userSpaceOnUse" id="gradient11" spreadMethod="pad" x1="-819.2" x2="819.2">
      <stop offset="0.3607843137254902" stop-color="#ffffff"/>
      <stop offset="0.5725490196078431" stop-color="#d8e4e4"/>
    </linearGradient>
    <linearGradient gradientTransform="matrix(0.0, 0.0097, -0.0132, 0.0, 95.25, 20.05)" gradientUnits="userSpaceOnUse" id="gradient12" spreadMethod="pad" x1="-819.2" x2="819.2">
      <stop offset="0.3607843137254902" stop-color="#ffffff"/>
      <stop offset="0.5725490196078431" stop-color="#d8e4e4"/>
    </linearGradient>
    <linearGradient gradientTransform="matrix(0.0, 0.0047, -0.0036, 0.0, 213.1, 27.55)" gradientUnits="userSpaceOnUse" id="gradient13" spreadMethod="pad" x1="-819.2" x2="819.2">
      <stop offset="0.3607843137254902" stop-color="#ffffff"/>
      <stop offset="0.5725490196078431" stop-color="#d8e4e4"/>
    </linearGradient>
    <linearGradient gradientTransform="matrix(0.0, 0.0129, -0.0132, 0.0, 195.0, 19.7)" gradientUnits="userSpaceOnUse" id="gradient14" spreadMethod="pad" x1="-819.2" x2="819.2">
      <stop offset="0.3607843137254902" stop-color="#ffffff"/>
      <stop offset="0.5725490196078431" stop-color="#d8e4e4"/>
    </linearGradient>
    <linearGradient gradientTransform="matrix(0.0, 0.0091, -0.0133, 0.0, 174.4, 19.6)" gradientUnits="userSpaceOnUse" id="gradient15" spreadMethod="pad" x1="-819.2" x2="819.2">
      <stop offset="0.3607843137254902" stop-color="#ffffff"/>
      <stop offset="0.5725490196078431" stop-color="#d8e4e4"/>
    </linearGradient>
  </defs>
</svg>
