<?xml version="1.0" encoding="UTF-8" standalone="no"?>
<svg xmlns:ffdec="https://www.free-decompiler.com/flash" xmlns:xlink="http://www.w3.org/1999/xlink" ffdec:objectType="shape" height="42.0px" width="105.95px" xmlns="http://www.w3.org/2000/svg">
  <g transform="matrix(1.0, 0.0, 0.0, 1.0, 0.0, 0.0)">
    <path d="M45.75 12.7 Q47.2 11.5 48.5 11.5 50.0 11.5 50.0 13.3 L49.65 16.5 49.25 19.35 Q49.0 21.25 49.0 23.55 49.0 27.2 51.0 27.2 52.5 27.2 53.7 24.9 54.85 22.6 54.9 19.5 L54.95 16.75 Q54.95 14.75 54.4 13.95 L54.6 13.9 56.95 12.65 Q58.35 11.85 59.35 11.85 60.55 11.85 60.55 13.2 L60.4 14.85 60.15 16.75 59.95 22.3 60.15 26.7 60.55 33.6 Q60.55 42.0 53.55 42.0 48.95 42.0 48.55 38.75 L48.45 37.75 48.4 37.7 48.35 37.65 Q49.3 36.95 50.55 36.95 L51.5 37.0 52.8 37.25 53.25 37.25 Q54.6 37.25 55.1 36.35 55.6 35.4 55.6 33.0 L55.35 28.2 55.35 27.9 Q53.05 32.0 49.8 32.0 47.6 32.0 46.5 30.8 45.65 29.9 45.05 27.6 44.4 25.3 44.4 23.3 L44.65 17.6 Q44.65 14.95 43.65 14.4 L45.75 12.7 M38.75 11.8 Q40.2 11.8 41.2 12.85 42.2 13.9 42.2 15.45 42.2 16.5 41.45 17.4 40.65 18.35 39.5 18.7 39.4 17.95 38.85 17.45 38.25 16.9 37.45 16.9 36.15 16.9 35.0 18.8 32.95 22.25 32.95 25.3 32.95 26.85 33.35 28.3 33.75 29.75 34.35 30.05 32.95 32.4 30.65 32.4 27.65 32.4 27.65 28.3 L27.95 23.1 28.1 19.85 Q28.1 14.85 27.3 13.35 L28.7 12.35 Q30.7 10.85 32.1 10.85 33.4 10.85 33.4 12.3 L33.25 15.5 Q34.35 13.9 35.9 12.85 37.45 11.8 38.75 11.8 M21.0 6.45 Q21.0 9.2 18.5 10.2 17.9 8.85 16.3 7.85 14.75 6.9 13.05 6.9 9.85 6.9 8.0 9.65 6.1 12.45 6.1 17.1 6.1 21.9 8.2 25.1 10.25 28.3 13.4 28.3 14.8 28.3 15.6 27.6 16.4 26.85 16.4 24.2 L16.3 22.8 16.3 22.55 Q13.7 22.7 12.55 23.55 L12.55 23.2 Q12.55 20.0 13.75 18.95 14.95 17.9 18.65 17.8 L22.05 17.5 Q23.1 17.3 24.4 16.55 L24.65 18.7 24.45 20.3 Q23.9 21.9 21.9 22.1 L21.9 24.15 22.1 27.9 22.15 28.65 Q22.15 29.65 21.5 29.95 L18.55 31.5 Q16.25 32.85 12.85 32.85 7.1 32.85 3.55 28.6 0.0 24.35 0.0 17.5 0.0 10.65 4.25 6.1 8.05 2.0 13.8 2.0 16.85 2.0 18.9 3.3 21.0 4.6 21.0 6.45 M90.35 13.6 Q92.15 16.3 92.15 20.65 92.15 25.9 89.85 29.3 87.5 32.65 83.9 32.65 81.95 32.65 79.8 31.25 L79.8 31.5 79.8 33.0 79.95 34.95 80.45 37.55 80.7 38.8 Q80.7 39.9 79.55 40.75 78.45 41.6 76.95 41.6 75.5 41.6 75.1 40.25 74.7 39.1 74.7 34.7 74.7 31.85 75.0 26.8 L75.25 20.2 Q75.25 14.65 73.85 13.45 L75.9 12.2 Q77.75 10.95 78.7 10.95 L79.5 11.15 Q80.05 11.5 80.05 13.05 L80.1 14.6 Q81.0 12.95 82.5 11.95 84.0 10.95 85.6 10.95 88.55 10.95 90.35 13.6 M71.55 27.35 Q72.35 28.0 72.35 29.1 72.35 30.6 71.0 31.6 69.65 32.6 67.65 32.6 66.3 32.6 65.45 31.95 64.65 31.25 64.65 30.15 64.65 28.8 66.05 27.75 67.5 26.7 69.35 26.7 70.7 26.7 71.55 27.35 M87.1 21.45 Q87.1 15.55 84.3 15.55 82.5 15.55 81.25 18.3 80.0 21.0 80.0 24.95 L80.0 26.45 Q81.55 28.45 83.25 28.45 84.95 28.45 86.0 26.5 87.1 24.55 87.1 21.45 M103.05 7.95 L101.8 17.25 101.35 23.2 Q101.35 27.8 104.2 27.8 105.1 27.8 105.75 27.35 L105.95 28.25 Q105.95 30.2 104.8 31.35 103.6 32.5 101.55 32.5 98.55 32.5 97.2 30.3 96.2 28.6 96.2 25.1 L96.25 23.85 96.85 14.75 97.35 7.1 Q97.35 5.65 96.85 4.65 L97.1 4.55 98.9 3.2 Q100.4 2.1 101.7 2.1 103.45 2.1 103.45 4.35 L103.05 7.95" fill="#86111a" fill-rule="evenodd" stroke="none"/>
    <path d="M37.45 14.9 Q36.15 14.9 35.0 16.8 32.95 20.25 32.95 23.3 32.95 24.85 33.35 26.3 33.75 27.75 34.35 28.05 32.95 30.4 30.65 30.4 27.65 30.4 27.65 26.3 L27.95 21.1 28.1 17.85 Q28.1 12.85 27.3 11.35 L28.7 10.35 Q30.7 8.85 32.1 8.85 33.4 8.85 33.4 10.3 L33.25 13.5 Q34.35 11.9 35.9 10.85 37.45 9.8 38.75 9.8 40.2 9.8 41.2 10.85 42.2 11.9 42.2 13.45 42.2 14.5 41.45 15.4 40.65 16.35 39.5 16.7 39.4 15.95 38.85 15.45 38.25 14.9 37.45 14.9" fill="url(#gradient0)" fill-rule="evenodd" stroke="none"/>
    <path d="M24.4 14.55 L24.65 16.7 24.45 18.3 Q23.9 19.9 21.9 20.1 L21.9 22.15 22.1 25.9 22.15 26.65 Q22.15 27.65 21.5 27.95 L18.55 29.5 Q16.25 30.85 12.85 30.85 7.1 30.85 3.55 26.6 0.0 22.35 0.0 15.5 0.0 8.65 4.25 4.1 8.05 0.0 13.8 0.0 16.85 0.0 18.9 1.3 21.0 2.6 21.0 4.45 21.0 7.2 18.5 8.2 17.9 6.85 16.3 5.85 14.75 4.9 13.05 4.9 9.85 4.9 8.0 7.65 6.1 10.45 6.1 15.1 6.1 19.9 8.2 23.1 10.25 26.3 13.4 26.3 14.8 26.3 15.6 25.6 16.4 24.85 16.4 22.2 L16.3 20.8 16.3 20.55 Q13.7 20.7 12.55 21.55 L12.55 21.2 Q12.55 18.0 13.75 16.95 14.95 15.9 18.65 15.8 L22.05 15.5 Q23.1 15.3 24.4 14.55" fill="url(#gradient1)" fill-rule="evenodd" stroke="none"/>
    <path d="M79.5 9.15 Q80.05 9.5 80.05 11.05 L80.1 12.6 Q81.0 10.95 82.5 9.95 84.0 8.95 85.6 8.95 88.55 8.95 90.35 11.6 92.15 14.3 92.15 18.65 92.15 23.9 89.85 27.3 87.5 30.65 83.9 30.65 81.95 30.65 79.8 29.25 L79.8 29.5 79.8 31.0 79.95 32.95 80.45 35.55 80.7 36.8 Q80.7 37.9 79.55 38.75 78.45 39.6 76.95 39.6 75.5 39.6 75.1 38.25 74.7 37.1 74.7 32.7 74.7 29.85 75.0 24.8 L75.25 18.2 Q75.25 12.65 73.85 11.45 L75.9 10.2 Q77.75 8.95 78.7 8.95 L79.5 9.15 M80.0 24.45 Q81.55 26.45 83.25 26.45 84.95 26.45 86.0 24.5 87.1 22.55 87.1 19.45 87.1 13.55 84.3 13.55 82.5 13.55 81.25 16.3 80.0 19.0 80.0 22.95 L80.0 24.45" fill="url(#gradient2)" fill-rule="evenodd" stroke="none"/>
    <path d="M69.35 24.7 Q70.7 24.7 71.55 25.35 72.35 26.0 72.35 27.1 72.35 28.6 71.0 29.6 69.65 30.6 67.65 30.6 66.3 30.6 65.45 29.95 64.65 29.25 64.65 28.15 64.65 26.8 66.05 25.75 67.5 24.7 69.35 24.7" fill="url(#gradient3)" fill-rule="evenodd" stroke="none"/>
    <path d="M103.05 5.95 L101.8 15.25 101.35 21.2 Q101.35 25.8 104.2 25.8 105.1 25.8 105.75 25.35 L105.95 26.25 Q105.95 28.2 104.8 29.35 103.6 30.5 101.55 30.5 98.55 30.5 97.2 28.3 96.2 26.6 96.2 23.1 L96.25 21.85 96.85 12.75 97.35 5.1 Q97.35 3.65 96.85 2.65 L97.1 2.55 98.9 1.2 Q100.4 0.1 101.7 0.1 103.45 0.1 103.45 2.35 L103.05 5.95" fill="url(#gradient4)" fill-rule="evenodd" stroke="none"/>
    <path d="M60.15 14.75 L59.95 20.3 60.15 24.7 60.55 31.6 Q60.55 40.0 53.55 40.0 48.95 40.0 48.55 36.75 L48.45 35.75 48.4 35.7 48.35 35.65 Q49.3 34.95 50.55 34.95 L51.5 35.0 52.8 35.25 53.25 35.25 Q54.6 35.25 55.1 34.35 55.6 33.4 55.6 31.0 L55.35 26.2 55.35 25.9 Q53.05 30.0 49.8 30.0 47.6 30.0 46.5 28.8 45.65 27.9 45.05 25.6 44.4 23.3 44.4 21.3 L44.65 15.6 Q44.65 12.95 43.65 12.4 L45.75 10.7 Q47.2 9.5 48.5 9.5 50.0 9.5 50.0 11.3 L49.65 14.5 49.25 17.35 Q49.0 19.25 49.0 21.55 49.0 25.2 51.0 25.2 52.5 25.2 53.7 22.9 54.85 20.6 54.9 17.5 L54.95 14.75 Q54.95 12.75 54.4 11.95 L54.6 11.9 56.95 10.65 Q58.35 9.85 59.35 9.85 60.55 9.85 60.55 11.2 L60.4 12.85 60.15 14.75" fill="url(#gradient5)" fill-rule="evenodd" stroke="none"/>
  </g>
  <defs>
    <linearGradient gradientTransform="matrix(0.0, 0.0122, -0.0132, 0.0, 34.8, 19.1)" gradientUnits="userSpaceOnUse" id="gradient0" spreadMethod="pad" x1="-819.2" x2="819.2">
      <stop offset="0.5215686274509804" stop-color="#ffffff"/>
      <stop offset="1.0" stop-color="#d8e4e4"/>
    </linearGradient>
    <linearGradient gradientTransform="matrix(0.0, 0.0106, -0.0188, 0.0, 12.35, 15.45)" gradientUnits="userSpaceOnUse" id="gradient1" spreadMethod="pad" x1="-819.2" x2="819.2">
      <stop offset="0.5215686274509804" stop-color="#ffffff"/>
      <stop offset="1.0" stop-color="#d8e4e4"/>
    </linearGradient>
    <linearGradient gradientTransform="matrix(0.0, 0.012, -0.0187, 0.0, 83.05, 24.3)" gradientUnits="userSpaceOnUse" id="gradient2" spreadMethod="pad" x1="-819.2" x2="819.2">
      <stop offset="0.5215686274509804" stop-color="#ffffff"/>
      <stop offset="1.0" stop-color="#d8e4e4"/>
    </linearGradient>
    <linearGradient gradientTransform="matrix(0.0, 0.0079, -0.0036, 0.0, 68.5, 27.65)" gradientUnits="userSpaceOnUse" id="gradient3" spreadMethod="pad" x1="-819.2" x2="819.2">
      <stop offset="0.5215686274509804" stop-color="#ffffff"/>
      <stop offset="1.0" stop-color="#d8e4e4"/>
    </linearGradient>
    <linearGradient gradientTransform="matrix(0.0, 0.0107, -0.0186, 0.0, 101.05, 15.3)" gradientUnits="userSpaceOnUse" id="gradient4" spreadMethod="pad" x1="-819.2" x2="819.2">
      <stop offset="0.5215686274509804" stop-color="#ffffff"/>
      <stop offset="1.0" stop-color="#d8e4e4"/>
    </linearGradient>
    <linearGradient gradientTransform="matrix(0.0, 0.0175, -0.0186, 0.0, 52.1, 24.75)" gradientUnits="userSpaceOnUse" id="gradient5" spreadMethod="pad" x1="-819.2" x2="819.2">
      <stop offset="0.3607843137254902" stop-color="#ffffff"/>
      <stop offset="0.5725490196078431" stop-color="#d8e4e4"/>
    </linearGradient>
  </defs>
</svg>
