<?xml version="1.0" encoding="UTF-8" standalone="no"?>
<svg xmlns:ffdec="https://www.free-decompiler.com/flash" xmlns:xlink="http://www.w3.org/1999/xlink" ffdec:objectType="shape" height="41.5px" width="139.4px" xmlns="http://www.w3.org/2000/svg">
  <g transform="matrix(1.0, 0.0, 0.0, 1.0, 0.0, 0.0)">
    <path d="M43.55 19.6 L43.55 20.55 Q43.55 25.8 41.25 29.2 38.9 32.55 35.3 32.55 33.35 32.55 31.25 31.15 L31.2 30.9 31.2 29.4 31.2 29.15 Q33.35 30.55 35.3 30.55 38.9 30.55 41.25 27.2 43.3 24.15 43.55 19.6 M31.9 37.6 L32.1 38.7 Q32.1 39.8 30.95 40.65 29.85 41.5 28.35 41.5 26.9 41.5 26.5 40.15 26.1 39.0 26.1 34.6 L26.1 34.15 Q26.2 37.2 26.5 38.15 26.9 39.5 28.35 39.5 29.85 39.5 30.95 38.65 L31.9 37.6 M26.65 19.05 Q26.5 14.45 25.25 13.35 L26.1 12.9 Q26.65 14.65 26.65 18.1 L26.65 19.05 M31.4 24.35 L31.4 22.85 Q31.4 18.9 32.65 16.2 33.9 13.45 35.7 13.45 38.5 13.45 38.5 19.35 L38.5 20.3 Q38.25 15.45 35.7 15.45 33.9 15.45 32.65 18.2 31.5 20.75 31.4 24.35 M22.25 23.05 L22.3 24.0 Q22.3 27.9 19.55 30.3 16.8 32.7 12.3 32.7 6.25 32.7 2.2 28.75 L0.3 26.85 0.0 26.65 1.2 25.75 2.2 26.75 Q6.25 30.7 12.3 30.7 16.8 30.7 19.55 28.3 21.95 26.2 22.25 23.05 M16.5 23.75 Q16.25 22.8 15.5 22.05 14.55 21.15 11.15 19.2 L7.15 16.7 Q2.5 13.6 2.5 9.55 L2.6 8.55 Q3.05 11.95 7.15 14.7 L11.15 17.2 Q14.55 19.15 15.5 20.05 16.6 21.15 16.6 22.75 L16.5 23.75 M21.1 6.35 L21.25 7.35 Q21.25 8.3 20.65 9.05 L18.7 10.75 18.55 10.9 Q17.6 9.15 15.5 7.9 13.4 6.65 11.45 6.65 10.15 6.65 9.3 7.35 8.85 7.7 8.65 8.15 L8.45 7.1 Q8.45 6.05 9.3 5.35 10.15 4.65 11.45 4.65 13.4 4.65 15.5 5.9 17.6 7.15 18.55 8.9 L18.7 8.75 20.65 7.05 21.1 6.35 M61.8 26.0 L61.9 27.0 Q61.9 29.15 59.9 30.8 57.85 32.45 55.15 32.45 51.55 32.45 49.25 29.45 46.95 26.5 46.95 21.85 L47.0 20.85 Q47.2 24.8 49.25 27.45 51.55 30.45 55.15 30.45 57.85 30.45 59.9 28.8 61.4 27.55 61.8 26.0 M60.35 15.45 L60.4 16.5 Q60.4 19.1 58.25 21.3 56.3 23.35 53.3 24.3 52.9 23.5 52.75 22.45 56.15 21.5 58.25 19.3 60.0 17.5 60.35 15.45 M112.75 15.35 L112.55 15.15 Q112.3 14.85 112.3 14.45 112.3 12.85 114.55 12.85 116.0 12.85 117.45 13.65 118.95 14.4 119.6 15.6 L120.4 14.7 121.1 13.75 121.35 14.85 Q121.35 15.6 120.4 16.7 L119.6 17.6 Q118.95 16.4 117.45 15.65 116.0 14.85 114.55 14.85 113.3 14.85 112.75 15.35 M106.9 15.75 Q107.4 18.25 110.4 20.15 L113.25 22.0 114.95 23.15 Q115.9 23.95 115.9 24.85 L115.6 25.9 114.95 25.15 113.25 24.0 110.4 22.15 Q106.8 19.85 106.8 16.75 L106.9 15.75 M106.75 28.5 L107.2 28.75 Q110.55 30.9 114.25 30.9 117.55 30.9 119.55 29.15 121.15 27.75 121.5 25.65 L121.55 26.6 Q121.55 29.45 119.55 31.15 117.55 32.9 114.25 32.9 110.55 32.9 107.2 30.75 L105.7 29.85 105.6 29.8 105.7 29.7 106.75 28.5 M89.55 16.2 L89.65 16.5 89.35 16.5 89.55 16.2 M90.85 18.55 L91.1 19.05 91.0 19.85 90.65 21.2 Q90.35 22.25 90.3 23.5 L90.25 22.6 Q90.25 20.75 90.65 19.2 L90.85 18.55 M93.95 27.55 L94.1 28.35 Q94.1 30.0 93.1 31.15 92.05 32.25 90.55 32.25 87.55 32.25 86.6 28.8 84.8 32.15 81.45 32.15 78.7 32.15 76.85 29.55 74.95 26.95 74.95 23.15 L75.0 22.15 Q75.2 25.3 76.85 27.55 78.7 30.15 81.45 30.15 84.8 30.15 86.6 26.8 87.55 30.25 90.55 30.25 92.05 30.25 93.1 29.15 93.7 28.45 93.95 27.55 M105.1 28.05 L105.25 29.0 Q105.25 30.5 103.9 31.5 102.55 32.5 100.55 32.5 99.2 32.5 98.35 31.85 97.55 31.15 97.55 30.05 L97.75 29.05 98.35 29.85 Q99.2 30.5 100.55 30.5 102.55 30.5 103.9 29.5 104.75 28.85 105.1 28.05 M124.5 20.85 Q124.7 24.8 126.75 27.45 129.05 30.45 132.65 30.45 135.35 30.45 137.4 28.8 138.9 27.55 139.3 26.0 L139.4 27.0 Q139.4 29.15 137.4 30.8 135.35 32.45 132.65 32.45 129.05 32.45 126.75 29.45 124.45 26.5 124.45 21.85 L124.5 20.85 M130.8 24.3 Q130.4 23.5 130.25 22.45 133.65 21.5 135.75 19.3 137.5 17.5 137.85 15.45 L137.9 16.5 Q137.9 19.1 135.75 21.3 133.8 23.35 130.8 24.3 M71.65 3.45 L71.7 4.25 71.3 7.85 70.05 17.15 69.65 22.05 69.6 21.1 70.05 15.15 71.3 5.85 71.65 3.45 M74.1 27.4 L74.2 28.15 Q74.2 30.1 73.05 31.25 71.85 32.4 69.8 32.4 66.8 32.4 65.45 30.2 64.45 28.5 64.45 25.0 L64.5 24.2 Q64.65 26.8 65.45 28.2 66.8 30.4 69.8 30.4 71.85 30.4 73.05 29.25 73.8 28.5 74.1 27.4 M65.6 6.25 L65.1 4.55 65.35 4.45 65.6 4.3 65.6 5.0 65.6 6.25 M85.6 19.45 Q85.3 19.15 85.3 18.65 L85.3 17.7 Q85.3 16.75 84.8 16.1 84.25 15.4 83.5 15.4 82.0 15.4 80.85 17.75 79.9 19.65 79.75 22.0 L79.7 21.05 Q79.7 18.05 80.85 15.75 82.0 13.4 83.5 13.4 84.25 13.4 84.8 14.1 85.3 14.75 85.3 15.7 L85.3 16.65 Q85.3 17.5 86.15 17.65 85.9 17.9 85.8 18.3 L85.6 19.45 M52.1 18.35 L52.0 17.4 Q52.0 15.65 52.75 14.4 53.55 13.15 54.6 13.15 56.2 13.15 56.2 15.05 L56.05 16.1 Q55.7 15.15 54.6 15.15 53.55 15.15 52.75 16.4 52.25 17.25 52.1 18.35 M129.6 18.35 L129.5 17.4 Q129.5 15.65 130.25 14.4 131.05 13.15 132.1 13.15 133.7 13.15 133.7 15.05 L133.55 16.1 Q133.2 15.15 132.1 15.15 131.05 15.15 130.25 16.4 129.75 17.25 129.6 18.35" fill="#86111a" fill-rule="evenodd" stroke="none"/>
    <path d="M26.1 12.9 Q25.8 11.8 25.25 11.35 L27.3 10.1 Q29.15 8.85 30.1 8.85 L30.9 9.05 Q31.45 9.4 31.45 10.95 L31.5 12.5 Q32.4 10.85 33.9 9.85 35.4 8.85 37.0 8.85 39.95 8.85 41.75 11.5 43.55 14.2 43.55 18.55 L43.55 19.6 Q43.3 24.15 41.25 27.2 38.9 30.55 35.3 30.55 33.35 30.55 31.2 29.15 L31.2 29.4 31.2 30.9 31.25 31.15 31.35 32.85 31.85 35.45 32.1 36.7 31.9 37.6 30.95 38.65 Q29.85 39.5 28.35 39.5 26.9 39.5 26.5 38.15 26.2 37.2 26.1 34.15 L26.1 33.15 26.1 32.6 Q26.1 29.75 26.4 24.7 L26.65 19.05 26.65 18.1 Q26.65 14.65 26.1 12.9 M38.5 20.3 L38.5 19.35 Q38.5 13.45 35.7 13.45 33.9 13.45 32.65 16.2 31.4 18.9 31.4 22.85 L31.4 24.35 Q32.95 26.35 34.65 26.35 36.35 26.35 37.4 24.4 38.35 22.75 38.5 20.3" fill="url(#gradient0)" fill-rule="evenodd" stroke="none"/>
    <path d="M8.65 8.15 L8.95 8.6 Q9.8 9.7 14.35 12.35 L18.85 15.2 Q22.3 17.75 22.3 22.0 L22.25 23.05 Q21.95 26.2 19.55 28.3 16.8 30.7 12.3 30.7 6.25 30.7 2.2 26.75 L1.2 25.75 0.3 24.85 0.0 24.65 1.3 23.6 Q2.9 22.2 3.8 22.2 4.6 22.2 6.1 23.6 9.05 26.25 12.45 26.25 14.35 26.25 15.5 25.3 L16.5 23.75 16.6 22.75 Q16.6 21.15 15.5 20.05 14.55 19.15 11.15 17.2 L7.15 14.7 Q3.05 11.95 2.6 8.55 L2.5 7.55 Q2.5 4.25 5.1 2.2 7.7 0.1 11.8 0.1 15.5 0.1 18.35 1.75 21.25 3.3 21.25 5.35 L21.1 6.35 20.65 7.05 18.7 8.75 18.55 8.9 Q17.6 7.15 15.5 5.9 13.4 4.65 11.45 4.65 10.15 4.65 9.3 5.35 8.45 6.05 8.45 7.1 L8.65 8.15" fill="url(#gradient1)" fill-rule="evenodd" stroke="none"/>
    <path d="M121.1 13.75 L120.4 14.7 119.6 15.6 Q118.95 14.4 117.45 13.65 116.0 12.85 114.55 12.85 112.3 12.85 112.3 14.45 112.3 14.85 112.55 15.15 L112.75 15.35 117.05 18.35 Q119.3 19.75 120.3 21.0 121.55 22.55 121.55 24.6 L121.5 25.65 Q121.15 27.75 119.55 29.15 117.55 30.9 114.25 30.9 110.55 30.9 107.2 28.75 L106.75 28.5 105.7 27.85 105.6 27.8 105.7 27.7 106.95 26.25 Q107.85 25.25 108.9 25.25 L109.8 25.45 111.1 26.1 Q112.4 26.7 113.8 26.7 114.7 26.7 115.3 26.2 L115.6 25.9 115.9 24.85 Q115.9 23.95 114.95 23.15 L113.25 22.0 110.4 20.15 Q107.4 18.25 106.9 15.75 L106.8 14.75 Q106.8 12.35 108.9 10.75 111.0 9.2 114.25 9.2 117.3 9.2 119.35 10.25 121.35 11.25 121.35 12.85 L121.1 13.75" fill="url(#gradient2)" fill-rule="evenodd" stroke="none"/>
    <path d="M89.65 16.5 L90.15 16.4 Q91.1 16.4 91.1 17.05 L91.0 17.85 90.85 18.55 90.65 19.2 Q90.25 20.75 90.25 22.6 L90.3 23.5 Q90.55 26.15 92.4 26.15 93.35 26.15 93.9 25.4 L94.1 26.35 93.95 27.55 Q93.7 28.45 93.1 29.15 92.05 30.25 90.55 30.25 87.55 30.25 86.6 26.8 84.8 30.15 81.45 30.15 78.7 30.15 76.85 27.55 75.2 25.3 75.0 22.15 L74.95 21.15 Q74.95 16.5 77.75 12.9 80.55 9.2 84.1 9.2 87.75 9.2 89.05 12.7 89.75 14.55 89.75 15.4 L89.55 16.2 89.35 16.5 89.65 16.5 M85.6 19.45 L85.8 18.3 Q85.9 17.9 86.15 17.65 85.3 17.5 85.3 16.65 L85.3 15.7 Q85.3 14.75 84.8 14.1 84.25 13.4 83.5 13.4 82.0 13.4 80.85 15.75 79.7 18.05 79.7 21.05 L79.75 22.0 Q79.85 23.55 80.4 24.55 81.1 25.8 82.3 25.8 84.65 25.8 85.45 20.4 L85.6 19.45" fill="url(#gradient3)" fill-rule="evenodd" stroke="none"/>
    <path d="M97.75 29.05 L97.55 28.05 Q97.55 26.7 98.95 25.65 100.4 24.6 102.25 24.6 103.6 24.6 104.45 25.25 105.25 25.9 105.25 27.0 L105.1 28.05 Q104.75 28.85 103.9 29.5 102.55 30.5 100.55 30.5 99.2 30.5 98.35 29.85 L97.75 29.05" fill="url(#gradient4)" fill-rule="evenodd" stroke="none"/>
    <path d="M139.3 26.0 Q138.9 27.55 137.4 28.8 135.35 30.45 132.65 30.45 129.05 30.45 126.75 27.45 124.7 24.8 124.5 20.85 L124.45 19.85 Q124.45 15.2 126.8 11.95 129.1 8.7 132.4 8.7 134.75 8.7 136.35 10.35 137.9 12.0 137.9 14.5 L137.85 15.45 Q137.5 17.5 135.75 19.3 133.65 21.5 130.25 22.45 130.4 23.5 130.8 24.3 131.7 26.3 133.9 26.3 135.25 26.3 136.7 25.5 138.15 24.65 139.05 23.4 139.4 24.05 139.4 25.0 L139.3 26.0 M133.55 16.1 L133.7 15.05 Q133.7 13.15 132.1 13.15 131.05 13.15 130.25 14.4 129.5 15.65 129.5 17.4 L129.6 18.35 129.7 19.05 Q132.95 18.15 133.55 16.1" fill="url(#gradient5)" fill-rule="evenodd" stroke="none"/>
    <path d="M65.6 4.3 L65.1 2.55 65.35 2.45 67.15 1.1 Q68.65 0.0 69.95 0.0 71.7 0.0 71.7 2.25 L71.65 3.45 71.3 5.85 70.05 15.15 69.6 21.1 69.65 22.05 Q69.9 25.7 72.45 25.7 L74.0 25.25 74.2 26.15 74.1 27.4 Q73.8 28.5 73.05 29.25 71.85 30.4 69.8 30.4 66.8 30.4 65.45 28.2 64.65 26.8 64.5 24.2 L64.45 23.0 64.5 21.75 65.1 12.65 65.6 6.25 65.6 5.0 65.6 4.3" fill="url(#gradient6)" fill-rule="evenodd" stroke="none"/>
    <path d="M47.0 20.85 L46.95 19.85 Q46.95 15.2 49.3 11.95 51.6 8.7 54.9 8.7 57.25 8.7 58.85 10.35 60.4 12.0 60.4 14.5 L60.35 15.45 Q60.0 17.5 58.25 19.3 56.15 21.5 52.75 22.45 52.9 23.5 53.3 24.3 54.2 26.3 56.4 26.3 57.75 26.3 59.2 25.5 60.65 24.65 61.55 23.4 61.9 24.05 61.9 25.0 L61.8 26.0 Q61.4 27.55 59.9 28.8 57.85 30.45 55.15 30.45 51.55 30.45 49.25 27.45 47.2 24.8 47.0 20.85 M56.05 16.1 L56.2 15.05 Q56.2 13.15 54.6 13.15 53.55 13.15 52.75 14.4 52.0 15.65 52.0 17.4 L52.1 18.35 52.2 19.05 Q55.45 18.15 56.05 16.1" fill="url(#gradient7)" fill-rule="evenodd" stroke="none"/>
  </g>
  <defs>
    <linearGradient gradientTransform="matrix(0.0, 0.0112, -0.0187, 0.0, 34.45, 24.2)" gradientUnits="userSpaceOnUse" id="gradient0" spreadMethod="pad" x1="-819.2" x2="819.2">
      <stop offset="0.34901960784313724" stop-color="#ffffff"/>
      <stop offset="0.5725490196078431" stop-color="#d8e4e4"/>
    </linearGradient>
    <linearGradient gradientTransform="matrix(0.0, 0.0136, -0.0187, 0.0, 11.15, 15.4)" gradientUnits="userSpaceOnUse" id="gradient1" spreadMethod="pad" x1="-819.2" x2="819.2">
      <stop offset="0.34901960784313724" stop-color="#ffffff"/>
      <stop offset="0.5725490196078431" stop-color="#d8e4e4"/>
    </linearGradient>
    <linearGradient gradientTransform="matrix(0.0, 0.0097, -0.0132, 0.0, 113.55, 20.3)" gradientUnits="userSpaceOnUse" id="gradient2" spreadMethod="pad" x1="-819.2" x2="819.2">
      <stop offset="0.34901960784313724" stop-color="#ffffff"/>
      <stop offset="0.5725490196078431" stop-color="#d8e4e4"/>
    </linearGradient>
    <linearGradient gradientTransform="matrix(0.0, 0.0117, -0.0128, 0.0, 84.55, 19.75)" gradientUnits="userSpaceOnUse" id="gradient3" spreadMethod="pad" x1="-819.2" x2="819.2">
      <stop offset="0.34901960784313724" stop-color="#ffffff"/>
      <stop offset="0.5725490196078431" stop-color="#d8e4e4"/>
    </linearGradient>
    <linearGradient gradientTransform="matrix(0.0, 0.0047, -0.0036, 0.0, 101.4, 27.55)" gradientUnits="userSpaceOnUse" id="gradient4" spreadMethod="pad" x1="-819.2" x2="819.2">
      <stop offset="0.34901960784313724" stop-color="#ffffff"/>
      <stop offset="0.5725490196078431" stop-color="#d8e4e4"/>
    </linearGradient>
    <linearGradient gradientTransform="matrix(0.0, 0.0091, -0.0133, 0.0, 131.9, 19.55)" gradientUnits="userSpaceOnUse" id="gradient5" spreadMethod="pad" x1="-819.2" x2="819.2">
      <stop offset="0.34901960784313724" stop-color="#ffffff"/>
      <stop offset="0.5725490196078431" stop-color="#d8e4e4"/>
    </linearGradient>
    <linearGradient gradientTransform="matrix(0.0, 0.006, -0.0186, 0.0, 69.3, 15.2)" gradientUnits="userSpaceOnUse" id="gradient6" spreadMethod="pad" x1="-819.2" x2="819.2">
      <stop offset="0.34901960784313724" stop-color="#ffffff"/>
      <stop offset="0.5725490196078431" stop-color="#d8e4e4"/>
    </linearGradient>
    <linearGradient gradientTransform="matrix(0.0, 0.0091, -0.0133, 0.0, 54.4, 19.55)" gradientUnits="userSpaceOnUse" id="gradient7" spreadMethod="pad" x1="-819.2" x2="819.2">
      <stop offset="0.34901960784313724" stop-color="#ffffff"/>
      <stop offset="0.5725490196078431" stop-color="#d8e4e4"/>
    </linearGradient>
  </defs>
</svg>
