<?xml version="1.0" encoding="UTF-8" standalone="no"?>
<svg xmlns:ffdec="https://www.free-decompiler.com/flash" xmlns:xlink="http://www.w3.org/1999/xlink" ffdec:objectType="shape" height="32.85px" width="130.95px" xmlns="http://www.w3.org/2000/svg">
  <g transform="matrix(1.0, 0.0, 0.0, 1.0, 0.0, 0.0)">
    <path d="M4.25 6.1 Q8.05 2.0 13.8 2.0 16.85 2.0 18.9 3.3 21.0 4.6 21.0 6.45 21.0 9.2 18.5 10.2 17.9 8.85 16.3 7.85 14.75 6.9 13.05 6.9 9.85 6.9 8.0 9.65 6.1 12.45 6.1 17.1 6.1 21.9 8.2 25.1 10.25 28.3 13.4 28.3 14.8 28.3 15.6 27.6 16.4 26.85 16.4 24.2 L16.3 22.8 16.3 22.55 Q13.7 22.7 12.55 23.55 L12.55 23.2 Q12.55 20.0 13.75 18.95 14.95 17.9 18.65 17.8 L22.05 17.5 Q23.1 17.3 24.4 16.55 L24.65 18.7 24.45 20.3 Q23.9 21.9 21.9 22.1 L21.9 24.15 22.1 27.9 22.15 28.65 Q22.15 29.65 21.5 29.95 L18.55 31.5 Q16.25 32.85 12.85 32.85 7.1 32.85 3.55 28.6 0.0 24.35 0.0 17.5 0.0 10.65 4.25 6.1 M130.95 26.8 Q130.95 29.1 129.35 30.7 127.8 32.25 125.5 32.25 122.15 32.25 120.6 29.6 119.45 27.55 119.45 23.25 L119.45 22.7 119.85 15.25 119.9 15.1 119.75 15.1 118.55 15.15 117.7 15.15 Q114.65 15.15 114.65 13.7 L114.85 12.9 116.6 10.7 116.7 10.6 117.25 11.0 118.95 11.25 119.45 11.2 120.2 11.15 120.35 11.15 120.45 8.65 120.6 6.95 120.65 6.0 Q120.75 5.15 121.3 4.75 122.0 4.3 122.9 4.0 L125.85 3.4 Q126.6 3.4 126.6 4.2 L126.25 5.6 Q125.4 8.4 125.35 11.05 L127.75 11.15 Q129.7 11.15 130.6 12.2 L130.5 12.25 129.9 13.25 Q129.25 14.25 127.85 14.7 L125.9 15.0 125.0 15.0 124.85 15.0 124.85 15.2 124.65 19.05 124.5 21.8 Q124.5 25.55 125.5 26.8 126.4 27.9 127.8 27.9 129.6 27.9 130.9 26.3 L130.95 26.8 M113.4 5.95 Q113.4 7.55 111.85 8.75 110.15 10.05 108.2 10.05 107.2 10.05 106.5 9.45 105.8 8.85 105.8 7.95 L105.8 7.75 Q105.8 6.0 108.1 4.45 109.5 3.55 110.8 3.55 113.4 3.55 113.4 5.95 M106.2 14.8 L108.5 13.4 Q109.85 12.45 111.05 12.45 112.4 12.45 112.4 13.9 L112.2 16.3 111.85 19.5 111.7 23.45 Q111.7 29.0 113.1 30.75 L111.45 31.65 Q110.5 32.2 109.15 32.2 106.6 32.2 106.6 28.4 L106.7 25.05 106.75 20.95 Q106.75 15.8 105.95 14.85 L106.2 14.8 M97.7 27.75 Q99.15 26.7 101.0 26.7 102.35 26.7 103.2 27.35 104.0 28.0 104.0 29.1 104.0 30.6 102.65 31.6 101.3 32.6 99.3 32.6 97.95 32.6 97.1 31.95 96.3 31.25 96.3 30.15 96.3 28.8 97.7 27.75 M91.5 29.8 Q89.1 32.7 85.15 32.7 81.25 32.7 78.75 29.8 76.2 26.85 76.2 22.3 76.2 19.75 77.25 17.4 78.3 15.05 79.8 14.3 L79.4 13.2 Q80.15 12.35 81.75 11.7 83.4 11.05 84.85 11.05 88.75 11.05 91.3 14.2 93.85 17.3 93.85 22.1 93.85 26.9 91.5 29.8 M68.1 11.0 Q70.45 11.0 72.05 12.35 73.6 13.75 73.6 15.75 73.6 17.2 72.85 18.15 72.0 19.1 70.8 19.1 L69.95 18.95 70.0 18.6 Q70.0 17.45 69.35 16.65 68.6 15.8 67.7 15.8 66.15 15.8 65.1 17.7 64.1 19.55 64.1 22.3 64.1 25.15 65.2 26.8 66.3 28.4 68.2 28.4 69.8 28.4 71.4 27.45 73.0 26.45 73.65 25.05 74.35 25.7 74.35 26.8 74.35 29.3 72.35 30.95 70.3 32.65 67.35 32.65 63.4 32.65 61.2 30.0 58.95 27.4 58.95 22.8 58.95 17.8 61.6 14.4 64.25 11.0 68.1 11.0 M53.15 29.8 Q50.75 32.7 46.8 32.7 42.9 32.7 40.4 29.8 37.85 26.85 37.85 22.3 37.85 19.75 38.9 17.4 39.95 15.05 41.45 14.3 L41.05 13.2 Q41.8 12.35 43.4 11.7 45.05 11.05 46.5 11.05 50.4 11.05 52.95 14.2 55.5 17.3 55.5 22.1 55.5 26.9 53.15 29.8 M49.4 17.85 Q48.25 15.75 46.6 15.75 45.05 15.75 44.15 17.3 43.25 18.8 43.25 21.35 43.25 24.55 44.35 26.5 45.5 28.45 47.25 28.45 50.55 28.45 50.55 22.95 50.55 19.9 49.4 17.85 M82.5 17.3 Q81.6 18.8 81.6 21.35 81.6 24.55 82.7 26.5 83.85 28.45 85.6 28.45 88.9 28.45 88.9 22.95 88.9 19.9 87.75 17.85 86.6 15.75 84.95 15.75 83.4 15.75 82.5 17.3 M34.9 5.95 Q34.9 7.55 33.35 8.75 31.65 10.05 29.7 10.05 28.7 10.05 28.0 9.45 27.3 8.85 27.3 7.95 L27.3 7.75 Q27.3 6.0 29.6 4.45 31.0 3.55 32.3 3.55 34.9 3.55 34.9 5.95 M27.7 14.8 L30.0 13.4 Q31.35 12.45 32.55 12.45 33.9 12.45 33.9 13.9 L33.7 16.3 33.35 19.5 33.2 23.45 Q33.2 29.0 34.6 30.75 L32.95 31.65 Q32.0 32.2 30.65 32.2 28.1 32.2 28.1 28.4 L28.2 25.05 28.25 20.95 Q28.25 15.8 27.45 14.85 L27.7 14.8" fill="#86111a" fill-rule="evenodd" stroke="none"/>
    <path d="M4.25 4.1 Q8.05 0.0 13.8 0.0 16.85 0.0 18.9 1.3 21.0 2.6 21.0 4.45 21.0 7.2 18.5 8.2 17.9 6.85 16.3 5.85 14.75 4.9 13.05 4.9 9.85 4.9 8.0 7.65 6.1 10.45 6.1 15.1 6.1 19.9 8.2 23.1 10.25 26.3 13.4 26.3 14.8 26.3 15.6 25.6 16.4 24.85 16.4 22.2 L16.3 20.8 16.3 20.55 Q13.7 20.7 12.55 21.55 L12.55 21.2 Q12.55 18.0 13.75 16.95 14.95 15.9 18.65 15.8 L22.05 15.5 Q23.1 15.3 24.4 14.55 L24.65 16.7 24.45 18.3 Q23.9 19.9 21.9 20.1 L21.9 22.15 22.1 25.9 22.15 26.65 Q22.15 27.65 21.5 27.95 L18.55 29.5 Q16.25 30.85 12.85 30.85 7.1 30.85 3.55 26.6 0.0 22.35 0.0 15.5 0.0 8.65 4.25 4.1" fill="url(#gradient0)" fill-rule="evenodd" stroke="none"/>
    <path d="M130.95 24.8 Q130.95 27.1 129.35 28.7 127.8 30.25 125.5 30.25 122.15 30.25 120.6 27.6 119.45 25.55 119.45 21.25 L119.45 20.7 119.85 13.25 119.9 13.1 119.75 13.1 118.55 13.15 117.7 13.15 Q114.65 13.15 114.65 11.7 L114.85 10.9 116.6 8.7 116.7 8.6 117.25 9.0 118.95 9.25 119.45 9.2 120.2 9.15 120.35 9.15 120.45 6.65 120.6 4.95 120.65 4.0 Q120.75 3.15 121.3 2.75 122.0 2.3 122.9 2.0 L125.85 1.4 Q126.6 1.4 126.6 2.2 L126.25 3.6 Q125.4 6.4 125.35 9.05 L127.75 9.15 Q129.7 9.15 130.6 10.2 L130.5 10.25 129.9 11.25 Q129.25 12.25 127.85 12.7 L125.9 13.0 125.0 13.0 124.85 13.0 124.85 13.2 124.65 17.05 124.5 19.8 Q124.5 23.55 125.5 24.8 126.4 25.9 127.8 25.9 129.6 25.9 130.9 24.3 L130.95 24.8" fill="url(#gradient1)" fill-rule="evenodd" stroke="none"/>
    <path d="M111.85 6.75 Q110.15 8.05 108.2 8.05 107.2 8.05 106.5 7.45 105.8 6.85 105.8 5.95 L105.8 5.75 Q105.8 4.0 108.1 2.45 109.5 1.55 110.8 1.55 113.4 1.55 113.4 3.95 113.4 5.55 111.85 6.75" fill="url(#gradient2)" fill-rule="evenodd" stroke="none"/>
    <path d="M105.95 12.85 L106.2 12.8 108.5 11.4 Q109.85 10.45 111.05 10.45 112.4 10.45 112.4 11.9 L112.2 14.3 111.85 17.5 111.7 21.45 Q111.7 27.0 113.1 28.75 L111.45 29.65 Q110.5 30.2 109.15 30.2 106.6 30.2 106.6 26.4 L106.7 23.05 106.75 18.95 Q106.75 13.8 105.95 12.85" fill="url(#gradient3)" fill-rule="evenodd" stroke="none"/>
    <path d="M93.85 20.1 Q93.85 24.9 91.5 27.8 89.1 30.7 85.15 30.7 81.25 30.7 78.75 27.8 76.2 24.85 76.2 20.3 76.2 17.75 77.25 15.4 78.3 13.05 79.8 12.3 L79.4 11.2 Q80.15 10.35 81.75 9.7 83.4 9.05 84.85 9.05 88.75 9.05 91.3 12.2 93.85 15.3 93.85 20.1 M82.5 15.3 Q81.6 16.8 81.6 19.35 81.6 22.55 82.7 24.5 83.85 26.45 85.6 26.45 88.9 26.45 88.9 20.95 88.9 17.9 87.75 15.85 86.6 13.75 84.95 13.75 83.4 13.75 82.5 15.3" fill="url(#gradient4)" fill-rule="evenodd" stroke="none"/>
    <path d="M97.7 25.75 Q99.15 24.7 101.0 24.7 102.35 24.7 103.2 25.35 104.0 26.0 104.0 27.1 104.0 28.6 102.65 29.6 101.3 30.6 99.3 30.6 97.95 30.6 97.1 29.95 96.3 29.25 96.3 28.15 96.3 26.8 97.7 25.75" fill="url(#gradient5)" fill-rule="evenodd" stroke="none"/>
    <path d="M68.1 9.0 Q70.45 9.0 72.05 10.35 73.6 11.75 73.6 13.75 73.6 15.2 72.85 16.15 72.0 17.1 70.8 17.1 L69.95 16.95 70.0 16.6 Q70.0 15.45 69.35 14.65 68.6 13.8 67.7 13.8 66.15 13.8 65.1 15.7 64.1 17.55 64.1 20.3 64.1 23.15 65.2 24.8 66.3 26.4 68.2 26.4 69.8 26.4 71.4 25.45 73.0 24.45 73.65 23.05 74.35 23.7 74.35 24.8 74.35 27.3 72.35 28.95 70.3 30.65 67.35 30.65 63.4 30.65 61.2 28.0 58.95 25.4 58.95 20.8 58.95 15.8 61.6 12.4 64.25 9.0 68.1 9.0" fill="url(#gradient6)" fill-rule="evenodd" stroke="none"/>
    <path d="M55.5 20.1 Q55.5 24.9 53.15 27.8 50.75 30.7 46.8 30.7 42.9 30.7 40.4 27.8 37.85 24.85 37.85 20.3 37.85 17.75 38.9 15.4 39.95 13.05 41.45 12.3 L41.05 11.2 Q41.8 10.35 43.4 9.7 45.05 9.05 46.5 9.05 50.4 9.05 52.95 12.2 55.5 15.3 55.5 20.1 M49.4 15.85 Q48.25 13.75 46.6 13.75 45.05 13.75 44.15 15.3 43.25 16.8 43.25 19.35 43.25 22.55 44.35 24.5 45.5 26.45 47.25 26.45 50.55 26.45 50.55 20.95 50.55 17.9 49.4 15.85" fill="url(#gradient7)" fill-rule="evenodd" stroke="none"/>
    <path d="M34.9 3.95 Q34.9 5.55 33.35 6.75 31.65 8.05 29.7 8.05 28.7 8.05 28.0 7.45 27.3 6.85 27.3 5.95 L27.3 5.75 Q27.3 4.0 29.6 2.45 31.0 1.55 32.3 1.55 34.9 1.55 34.9 3.95" fill="url(#gradient8)" fill-rule="evenodd" stroke="none"/>
    <path d="M27.7 12.8 L30.0 11.4 Q31.35 10.45 32.55 10.45 33.9 10.45 33.9 11.9 L33.7 14.3 33.35 17.5 33.2 21.45 Q33.2 27.0 34.6 28.75 L32.95 29.65 Q32.0 30.2 30.65 30.2 28.1 30.2 28.1 26.4 L28.2 23.05 28.25 18.95 Q28.25 13.8 27.45 12.85 L27.7 12.8" fill="url(#gradient9)" fill-rule="evenodd" stroke="none"/>
  </g>
  <defs>
    <linearGradient gradientTransform="matrix(0.0, 0.015, -0.0188, 0.0, 12.3, 15.55)" gradientUnits="userSpaceOnUse" id="gradient0" spreadMethod="pad" x1="-819.2" x2="819.2">
      <stop offset="0.5215686274509804" stop-color="#ffffff"/>
      <stop offset="1.0" stop-color="#d8e4e4"/>
    </linearGradient>
    <linearGradient gradientTransform="matrix(0.0, 0.0235, -0.0176, 0.0, 122.85, 15.85)" gradientUnits="userSpaceOnUse" id="gradient1" spreadMethod="pad" x1="-819.2" x2="819.2">
      <stop offset="0.5215686274509804" stop-color="#ffffff"/>
      <stop offset="1.0" stop-color="#d8e4e4"/>
    </linearGradient>
    <linearGradient gradientTransform="matrix(0.0046, 0.0, 0.0, 0.004, 109.6, 4.8)" gradientUnits="userSpaceOnUse" id="gradient2" spreadMethod="pad" x1="-819.2" x2="819.2">
      <stop offset="0.5215686274509804" stop-color="#ffffff"/>
      <stop offset="1.0" stop-color="#d8e4e4"/>
    </linearGradient>
    <linearGradient gradientTransform="matrix(0.0, 0.0181, -0.0121, 0.0, 109.5, 20.3)" gradientUnits="userSpaceOnUse" id="gradient3" spreadMethod="pad" x1="-819.2" x2="819.2">
      <stop offset="0.5215686274509804" stop-color="#ffffff"/>
      <stop offset="1.0" stop-color="#d8e4e4"/>
    </linearGradient>
    <linearGradient gradientTransform="matrix(0.0, 0.0108, -0.0132, 0.0, 85.05, 19.9)" gradientUnits="userSpaceOnUse" id="gradient4" spreadMethod="pad" x1="-819.2" x2="819.2">
      <stop offset="0.5215686274509804" stop-color="#ffffff"/>
      <stop offset="1.0" stop-color="#d8e4e4"/>
    </linearGradient>
    <linearGradient gradientTransform="matrix(0.0, 0.0047, -0.0036, 0.0, 100.15, 27.65)" gradientUnits="userSpaceOnUse" id="gradient5" spreadMethod="pad" x1="-819.2" x2="819.2">
      <stop offset="0.5215686274509804" stop-color="#ffffff"/>
      <stop offset="1.0" stop-color="#d8e4e4"/>
    </linearGradient>
    <linearGradient gradientTransform="matrix(0.0, 0.0094, -0.0132, 0.0, 66.75, 19.95)" gradientUnits="userSpaceOnUse" id="gradient6" spreadMethod="pad" x1="-819.2" x2="819.2">
      <stop offset="0.5215686274509804" stop-color="#ffffff"/>
      <stop offset="1.0" stop-color="#d8e4e4"/>
    </linearGradient>
    <linearGradient gradientTransform="matrix(0.0, 0.0108, -0.0132, 0.0, 46.7, 19.9)" gradientUnits="userSpaceOnUse" id="gradient7" spreadMethod="pad" x1="-819.2" x2="819.2">
      <stop offset="0.5215686274509804" stop-color="#ffffff"/>
      <stop offset="1.0" stop-color="#d8e4e4"/>
    </linearGradient>
    <linearGradient gradientTransform="matrix(0.0046, 0.0, 0.0, 0.004, 31.1, 4.8)" gradientUnits="userSpaceOnUse" id="gradient8" spreadMethod="pad" x1="-819.2" x2="819.2">
      <stop offset="0.5215686274509804" stop-color="#ffffff"/>
      <stop offset="1.0" stop-color="#d8e4e4"/>
    </linearGradient>
    <linearGradient gradientTransform="matrix(0.0, 0.0181, -0.0121, 0.0, 31.0, 20.3)" gradientUnits="userSpaceOnUse" id="gradient9" spreadMethod="pad" x1="-819.2" x2="819.2">
      <stop offset="0.5215686274509804" stop-color="#ffffff"/>
      <stop offset="1.0" stop-color="#d8e4e4"/>
    </linearGradient>
  </defs>
</svg>
