<?xml version="1.0" encoding="UTF-8" standalone="no"?>
<svg xmlns:ffdec="https://www.free-decompiler.com/flash" xmlns:xlink="http://www.w3.org/1999/xlink" ffdec:objectType="shape" height="41.75px" width="178.95px" xmlns="http://www.w3.org/2000/svg">
  <g transform="matrix(1.0, 0.0, 0.0, 1.0, 0.0, 0.0)">
    <path d="M177.3 13.0 L177.5 13.35 178.1 14.8 178.25 15.1 177.25 15.0 Q175.15 15.0 173.55 17.4 172.45 19.0 171.9 20.2 L171.5 19.45 171.5 19.3 Q171.9 17.75 173.55 15.4 175.15 13.0 177.25 13.0 L177.3 13.0 M178.85 27.35 L178.95 28.25 Q178.95 29.9 177.8 31.15 176.65 32.35 175.1 32.35 173.35 32.35 171.85 30.75 169.35 28.0 168.5 26.0 L168.35 26.3 Q166.85 29.3 165.55 30.7 164.15 32.2 162.65 32.2 161.55 32.2 160.75 31.25 159.95 30.25 159.95 28.95 159.95 28.45 160.1 27.95 160.25 28.65 160.75 29.25 161.55 30.2 162.65 30.2 164.15 30.2 165.55 28.7 166.85 27.3 168.35 24.3 L168.5 24.0 Q169.35 26.0 171.85 28.75 173.35 30.35 175.1 30.35 176.65 30.35 177.8 29.15 178.55 28.35 178.85 27.35 M165.85 21.5 L165.6 21.1 164.6 19.25 Q163.0 16.3 161.55 15.2 161.0 14.75 160.05 14.75 L160.25 14.5 161.55 13.2 Q163.0 14.3 164.6 17.25 L165.6 19.1 166.3 20.25 166.35 20.4 165.85 21.5 M154.7 17.5 L154.7 18.3 154.6 21.75 154.6 19.75 154.7 17.5 M158.2 27.7 L158.7 27.25 158.75 27.55 Q158.75 29.45 157.35 30.8 155.9 32.15 153.85 32.15 149.15 32.15 149.15 25.15 L149.2 24.35 Q149.55 30.15 153.85 30.15 155.9 30.15 157.35 28.8 L158.2 27.7 M149.35 19.05 Q149.2 18.35 148.6 18.35 147.9 18.35 147.0 19.45 145.75 21.05 145.2 23.1 L144.7 25.75 144.55 27.15 144.55 27.0 144.5 25.85 144.7 23.75 145.2 21.1 Q145.75 19.05 147.0 17.45 147.9 16.35 148.6 16.35 149.4 16.35 149.4 17.7 L149.35 19.05 M144.55 27.35 L144.5 27.85 144.55 29.0 Q144.55 30.05 143.85 30.45 L142.35 31.15 140.4 31.7 Q139.25 31.7 139.25 30.3 L139.35 28.9 Q139.5 29.7 140.4 29.7 L142.35 29.15 143.85 28.45 Q144.4 28.1 144.55 27.35 M139.75 21.0 Q139.6 19.15 138.75 19.15 137.9 19.15 136.9 20.65 134.55 24.0 134.15 27.05 L134.05 26.35 Q134.05 22.7 136.9 18.65 137.9 17.15 138.75 17.15 139.75 17.15 139.75 19.75 L139.75 21.0 M134.05 28.35 L134.15 29.1 134.2 29.85 133.65 30.9 Q132.3 32.3 131.1 32.3 130.05 32.3 129.4 31.1 128.7 29.85 128.7 28.05 L128.75 26.8 Q128.85 28.1 129.4 29.1 130.05 30.3 131.1 30.3 132.3 30.3 133.65 28.9 L134.05 28.35 M129.0 18.65 L128.65 14.35 128.15 12.85 128.35 12.8 128.7 12.65 129.0 18.15 129.0 18.65 M134.4 11.55 L134.45 12.25 134.25 14.75 134.05 16.9 133.95 17.05 133.95 16.85 Q133.95 15.35 134.25 12.75 L134.4 11.55 M124.0 27.8 L124.15 28.75 Q124.15 30.25 122.8 31.25 121.45 32.25 119.45 32.25 118.1 32.25 117.25 31.6 116.45 30.9 116.45 29.8 L116.65 28.8 117.25 29.6 Q118.1 30.25 119.45 30.25 121.45 30.25 122.8 29.25 L124.0 27.8 M112.8 13.5 L113.05 14.6 Q113.05 15.35 112.1 16.45 L111.3 17.35 Q110.65 16.15 109.15 15.4 107.7 14.6 106.25 14.6 105.0 14.6 104.45 15.1 L104.25 14.9 104.0 14.2 Q104.0 12.6 106.25 12.6 107.7 12.6 109.15 13.4 110.65 14.15 111.3 15.35 L112.1 14.45 112.8 13.5 M113.2 25.4 L113.25 26.35 Q113.25 29.2 111.25 30.9 109.25 32.65 105.95 32.65 102.25 32.65 98.9 30.5 L97.4 29.6 97.3 29.55 97.4 29.45 98.45 28.25 98.9 28.5 Q102.25 30.65 105.95 30.65 109.25 30.65 111.25 28.9 112.85 27.5 113.2 25.4 M107.3 25.65 L106.65 24.9 Q106.4 24.65 104.95 23.75 L102.1 21.9 Q98.5 19.6 98.5 16.5 L98.6 15.5 Q99.1 18.0 102.1 19.9 L104.95 21.75 Q106.4 22.65 106.65 22.9 107.6 23.7 107.6 24.6 L107.3 25.65 M95.9 20.8 L95.9 21.75 Q95.9 26.55 93.55 29.45 91.15 32.35 87.2 32.35 83.3 32.35 80.8 29.45 78.25 26.5 78.25 21.95 L78.3 21.0 Q78.55 24.85 80.8 27.45 83.3 30.35 87.2 30.35 91.15 30.35 93.55 27.45 95.65 24.85 95.9 20.8 M83.7 20.1 L83.65 19.0 Q83.65 16.45 84.55 14.95 85.45 13.4 87.0 13.4 88.65 13.4 89.8 15.5 90.95 17.55 90.95 20.6 L90.95 21.65 Q90.75 19.2 89.8 17.5 88.65 15.4 87.0 15.4 85.45 15.4 84.55 16.95 83.8 18.15 83.7 20.1 M73.5 15.8 L73.6 16.25 73.45 16.25 73.3 16.3 73.5 15.8 M74.8 18.35 Q75.1 18.55 75.1 19.0 L74.65 20.85 74.3 22.65 Q74.1 24.4 74.05 26.55 L74.05 26.25 74.05 25.65 Q74.05 22.85 74.3 20.65 L74.65 18.85 74.8 18.35 M74.1 32.3 L74.1 32.9 73.95 36.55 Q73.65 38.6 72.6 39.9 71.15 41.75 68.05 41.75 64.75 41.75 62.75 39.45 L61.8 38.3 61.5 38.1 62.7 37.35 62.75 37.45 Q64.75 39.75 68.05 39.75 71.15 39.75 72.6 37.9 73.65 36.6 73.95 34.55 L74.1 32.3 M69.4 30.1 Q67.3 31.95 64.8 31.95 62.2 31.95 60.45 29.45 58.7 26.9 58.7 23.15 L58.75 22.15 Q58.95 25.25 60.45 27.45 62.2 29.95 64.8 29.95 67.3 29.95 69.4 28.1 L69.4 28.55 69.4 29.95 69.4 30.1 M69.55 19.05 Q69.3 18.65 69.3 17.7 69.3 16.65 68.8 16.0 68.35 15.35 67.65 15.35 66.0 15.35 64.8 17.55 63.75 19.45 63.6 21.85 L63.55 20.8 Q63.55 17.8 64.8 15.55 66.0 13.35 67.65 13.35 68.35 13.35 68.8 14.0 69.3 14.65 69.3 15.7 69.3 17.0 69.7 17.25 L70.1 17.4 Q69.7 17.7 69.55 19.05 M55.45 15.2 L55.5 16.25 Q55.5 18.85 53.35 21.05 51.4 23.1 48.4 24.05 48.0 23.25 47.85 22.2 51.25 21.25 53.35 19.05 55.1 17.25 55.45 15.2 M56.9 25.75 L57.0 26.75 Q57.0 28.9 55.0 30.55 52.95 32.2 50.25 32.2 46.65 32.2 44.35 29.2 42.05 26.25 42.05 21.6 L42.1 20.6 Q42.3 24.55 44.35 27.2 46.65 30.2 50.25 30.2 52.95 30.2 55.0 28.55 56.5 27.3 56.9 25.75 M51.15 15.85 Q50.8 14.9 49.7 14.9 48.65 14.9 47.85 16.15 47.35 17.0 47.2 18.1 L47.1 17.15 Q47.1 15.4 47.85 14.15 48.65 12.9 49.7 12.9 51.3 12.9 51.3 14.8 L51.15 15.85 M38.4 12.75 L38.55 13.45 38.15 15.9 Q37.5 19.4 37.4 22.4 L37.35 21.55 Q37.35 18.1 38.15 13.9 L38.4 12.75 M40.25 27.4 L40.25 27.35 40.35 28.25 Q40.35 29.8 39.45 30.8 38.5 31.8 37.05 31.8 34.35 31.8 33.1 28.25 30.4 31.9 27.25 31.9 24.9 31.9 23.5 30.25 22.05 28.6 22.05 25.95 L22.1 24.7 Q22.25 26.85 23.5 28.25 24.9 29.9 27.25 29.9 30.4 29.9 33.1 26.25 34.35 29.8 37.05 29.8 38.5 29.8 39.45 28.8 L40.25 27.4 M22.45 17.25 Q22.35 15.4 21.85 13.9 L21.75 13.75 22.2 13.25 22.45 16.2 22.45 17.25 M28.0 12.1 L28.05 12.9 27.8 15.4 27.5 18.45 27.4 19.4 27.25 22.2 27.2 21.4 27.4 17.4 27.5 16.45 27.8 13.4 28.0 12.1 M32.5 16.7 L32.45 16.05 32.35 15.0 32.2 14.65 32.45 14.5 32.5 14.5 32.5 15.55 32.5 16.7 M17.35 2.95 L17.35 3.3 17.25 7.5 17.25 7.85 17.15 11.1 17.15 10.4 17.2 7.5 17.25 5.85 17.35 2.95 M17.45 23.15 L17.45 24.55 Q17.45 27.4 16.3 29.2 15.4 30.6 13.5 31.5 11.55 32.35 9.4 32.35 4.4 32.35 1.25 28.95 L0.2 27.95 0.0 27.9 1.45 27.15 Q4.55 30.35 9.4 30.35 11.55 30.35 13.5 29.5 15.4 28.6 16.3 27.2 17.35 25.6 17.45 23.15 M12.15 16.3 L11.8 8.2 11.75 7.5 Q11.5 4.85 11.1 3.5 L11.5 3.5 11.8 6.2 11.9 7.5 12.15 16.3" fill="#86111a" fill-rule="evenodd" stroke="none"/>
    <path d="M116.65 28.8 L116.45 27.8 Q116.45 26.45 117.85 25.4 119.3 24.35 121.15 24.35 122.5 24.35 123.35 25.0 124.15 25.65 124.15 26.75 L124.0 27.8 122.8 29.25 Q121.45 30.25 119.45 30.25 118.1 30.25 117.25 29.6 L116.65 28.8" fill="url(#gradient0)" fill-rule="evenodd" stroke="none"/>
    <path d="M98.6 15.5 L98.5 14.5 Q98.5 12.1 100.6 10.5 102.7 8.95 105.95 8.95 109.0 8.95 111.05 10.0 113.05 11.0 113.05 12.6 L112.8 13.5 112.1 14.45 111.3 15.35 Q110.65 14.15 109.15 13.4 107.7 12.6 106.25 12.6 104.0 12.6 104.0 14.2 L104.25 14.9 104.45 15.1 108.75 18.1 Q111.0 19.5 112.0 20.75 113.25 22.3 113.25 24.35 L113.2 25.4 Q112.85 27.5 111.25 28.9 109.25 30.65 105.95 30.65 102.25 30.65 98.9 28.5 L98.45 28.25 97.4 27.6 97.3 27.55 97.4 27.45 98.65 26.0 Q99.55 25.0 100.6 25.0 L101.5 25.2 102.8 25.85 Q104.1 26.45 105.5 26.45 106.4 26.45 107.0 25.95 L107.3 25.65 107.6 24.6 Q107.6 23.7 106.65 22.9 106.4 22.65 104.95 21.75 L102.1 19.9 Q99.1 18.0 98.6 15.5" fill="url(#gradient1)" fill-rule="evenodd" stroke="none"/>
    <path d="M78.3 21.0 L78.25 19.95 Q78.25 17.4 79.3 15.05 80.35 12.7 81.85 11.95 L81.45 10.85 Q82.2 10.0 83.8 9.35 85.45 8.7 86.9 8.7 90.8 8.7 93.35 11.85 95.9 14.95 95.9 19.75 L95.9 20.8 Q95.65 24.85 93.55 27.45 91.15 30.35 87.2 30.35 83.3 30.35 80.8 27.45 78.55 24.85 78.3 21.0 M90.95 21.65 L90.95 20.6 Q90.95 17.55 89.8 15.5 88.65 13.4 87.0 13.4 85.45 13.4 84.55 14.95 83.65 16.45 83.65 19.0 L83.7 20.1 Q83.85 22.55 84.75 24.15 85.9 26.1 87.65 26.1 90.65 26.1 90.95 21.65" fill="url(#gradient2)" fill-rule="evenodd" stroke="none"/>
    <path d="M58.75 22.15 L58.7 21.15 Q58.7 16.15 61.5 12.45 64.25 8.7 67.9 8.7 69.8 8.7 71.0 9.7 72.0 10.5 72.85 12.15 73.65 13.75 73.65 14.95 L73.5 15.8 73.3 16.3 73.45 16.25 73.6 16.25 74.25 16.2 Q75.1 16.2 75.1 17.0 L74.8 18.35 74.65 18.85 74.3 20.65 Q74.05 22.85 74.05 25.65 L74.05 26.25 74.05 26.55 74.05 27.65 74.05 28.2 74.05 28.25 74.1 29.65 74.1 30.9 74.1 31.5 74.1 32.3 73.95 34.55 Q73.65 36.6 72.6 37.9 71.15 39.75 68.05 39.75 64.75 39.75 62.75 37.45 L62.7 37.35 61.8 36.3 61.5 36.1 63.15 35.1 Q64.05 34.6 64.7 34.6 L66.35 35.0 67.4 35.2 Q69.3 35.2 69.4 31.55 L69.4 31.15 69.4 30.55 69.4 30.1 69.4 29.95 69.4 28.55 69.4 28.1 Q67.3 29.95 64.8 29.95 62.2 29.95 60.45 27.45 58.95 25.25 58.75 22.15 M69.55 19.05 Q69.7 17.7 70.1 17.4 L69.7 17.25 Q69.3 17.0 69.3 15.7 69.3 14.65 68.8 14.0 68.35 13.35 67.65 13.35 66.0 13.35 64.8 15.55 63.55 17.8 63.55 20.8 L63.6 21.85 Q63.85 25.5 66.15 25.5 68.8 25.5 69.4 20.0 L69.55 19.05" fill="url(#gradient3)" fill-rule="evenodd" stroke="none"/>
    <path d="M42.1 20.6 L42.05 19.6 Q42.05 14.95 44.4 11.7 46.7 8.45 50.0 8.45 52.35 8.45 53.95 10.1 55.5 11.75 55.5 14.25 L55.45 15.2 Q55.1 17.25 53.35 19.05 51.25 21.25 47.85 22.2 48.0 23.25 48.4 24.05 49.3 26.05 51.5 26.05 52.85 26.05 54.3 25.25 55.75 24.4 56.65 23.15 57.0 23.8 57.0 24.75 L56.9 25.75 Q56.5 27.3 55.0 28.55 52.95 30.2 50.25 30.2 46.65 30.2 44.35 27.2 42.3 24.55 42.1 20.6 M47.2 18.1 L47.3 18.8 Q50.55 17.9 51.15 15.85 L51.3 14.8 Q51.3 12.9 49.7 12.9 48.65 12.9 47.85 14.15 47.1 15.4 47.1 17.15 L47.2 18.1" fill="url(#gradient4)" fill-rule="evenodd" stroke="none"/>
    <path d="M32.5 14.5 L32.45 14.05 32.35 13.0 32.2 12.65 32.45 12.5 32.75 12.35 34.9 11.1 Q36.2 10.25 37.35 10.25 38.55 10.25 38.55 11.45 L38.4 12.75 38.15 13.9 Q37.35 18.1 37.35 21.55 L37.4 22.4 Q37.55 25.6 39.2 25.6 L40.25 25.35 40.35 26.25 40.25 27.4 39.45 28.8 Q38.5 29.8 37.05 29.8 34.35 29.8 33.1 26.25 30.4 29.9 27.25 29.9 24.9 29.9 23.5 28.25 22.25 26.85 22.1 24.7 L22.05 23.95 22.2 20.95 22.45 17.25 22.45 16.2 22.2 13.25 21.85 11.9 21.75 11.75 Q21.75 11.4 22.9 10.9 L24.75 9.7 Q25.8 8.9 26.6 8.9 28.05 8.9 28.05 10.9 L28.0 12.1 27.8 13.4 27.5 16.45 27.4 17.4 27.2 21.4 27.25 22.2 Q27.4 24.95 28.85 24.95 30.3 24.95 31.4 22.1 32.3 19.7 32.5 16.7 L32.5 15.55 32.5 14.5" fill="url(#gradient5)" fill-rule="evenodd" stroke="none"/>
    <path d="M11.5 3.5 L11.1 1.5 13.75 0.9 15.05 0.3 16.35 0.0 Q17.35 0.0 17.35 1.3 L17.35 2.95 17.25 5.85 17.2 7.5 17.15 10.4 17.15 11.1 17.15 11.75 17.15 12.4 17.2 14.1 17.35 18.35 17.45 22.55 17.45 23.15 Q17.35 25.6 16.3 27.2 15.4 28.6 13.5 29.5 11.55 30.35 9.4 30.35 4.55 30.35 1.45 27.15 L1.25 26.95 0.2 25.95 0.0 25.9 1.65 25.0 Q2.95 24.1 4.0 24.1 4.75 24.1 6.05 24.85 7.7 25.8 9.1 25.8 10.75 25.8 11.4 24.65 12.1 23.5 12.15 20.7 L12.15 18.3 12.15 16.6 12.15 16.3 11.9 7.5 11.8 6.2 11.5 3.5" fill="url(#gradient6)" fill-rule="evenodd" stroke="none"/>
    <path d="M161.55 13.2 Q160.95 12.75 160.05 12.75 L160.25 12.5 Q162.45 9.85 164.45 9.85 165.4 9.85 166.5 10.8 167.1 11.35 169.1 15.3 L169.3 15.75 Q170.35 12.95 171.9 11.35 173.45 9.75 175.1 9.75 175.95 9.75 176.6 10.3 L177.5 11.35 178.1 12.8 178.25 13.1 177.3 13.0 177.25 13.0 Q175.15 13.0 173.55 15.4 171.9 17.75 171.5 19.3 L171.5 19.45 171.9 20.2 Q172.9 21.95 174.4 23.9 175.85 25.9 177.2 25.9 178.05 25.9 178.8 25.3 L178.95 26.25 178.85 27.35 Q178.55 28.35 177.8 29.15 176.65 30.35 175.1 30.35 173.35 30.35 171.85 28.75 169.35 26.0 168.5 24.0 L168.35 24.3 Q166.85 27.3 165.55 28.7 164.15 30.2 162.65 30.2 161.55 30.2 160.75 29.25 160.25 28.65 160.1 27.95 159.95 27.45 159.95 26.95 L160.1 25.85 161.15 26.3 Q162.5 26.3 163.7 24.85 L165.85 21.5 166.35 20.4 166.3 20.25 165.6 19.1 164.6 17.25 Q163.0 14.3 161.55 13.2" fill="url(#gradient7)" fill-rule="evenodd" stroke="none"/>
    <path d="M134.05 16.9 Q137.3 11.45 140.75 11.45 143.4 11.45 144.2 15.5 L144.25 15.75 Q144.95 14.3 146.9 12.3 148.4 10.8 150.75 10.8 154.7 10.8 154.7 16.3 L154.7 17.5 154.6 19.75 154.6 21.75 154.6 22.2 154.6 22.75 154.7 24.5 Q154.95 26.25 156.5 26.25 157.8 26.25 158.7 25.25 L158.75 25.55 Q158.75 26.75 158.2 27.7 L157.35 28.8 Q155.9 30.15 153.85 30.15 149.55 30.15 149.2 24.35 L149.15 23.15 149.35 19.05 149.4 17.7 Q149.4 16.35 148.6 16.35 147.9 16.35 147.0 17.45 145.75 19.05 145.2 21.1 L144.7 23.75 144.5 25.85 144.55 27.0 144.55 27.15 144.55 27.35 Q144.4 28.1 143.85 28.45 L142.35 29.15 140.4 29.7 Q139.5 29.7 139.35 28.9 L139.25 28.3 139.4 25.95 139.75 21.0 139.75 19.75 Q139.75 17.15 138.75 17.15 137.9 17.15 136.9 18.65 134.05 22.7 134.05 26.35 L134.15 27.05 134.15 27.1 134.2 27.85 134.05 28.35 133.65 28.9 Q132.3 30.3 131.1 30.3 130.05 30.3 129.4 29.1 128.85 28.1 128.75 26.8 L128.7 26.05 128.85 23.0 129.0 19.65 129.0 18.65 129.0 18.15 128.7 12.65 128.65 12.35 128.15 10.85 128.35 10.8 130.1 9.6 Q131.65 8.45 133.0 8.45 134.45 8.45 134.45 10.25 L134.4 11.55 134.25 12.75 Q133.95 15.35 133.95 16.85 L133.95 17.05 134.05 16.9" fill="url(#gradient8)" fill-rule="evenodd" stroke="none"/>
  </g>
  <defs>
    <linearGradient gradientTransform="matrix(0.0, 0.0047, -0.0036, 0.0, 120.3, 27.3)" gradientUnits="userSpaceOnUse" id="gradient0" spreadMethod="pad" x1="-819.2" x2="819.2">
      <stop offset="0.3607843137254902" stop-color="#ffffff"/>
      <stop offset="0.5725490196078431" stop-color="#d8e4e4"/>
    </linearGradient>
    <linearGradient gradientTransform="matrix(0.0, 0.0097, -0.0132, 0.0, 105.25, 19.8)" gradientUnits="userSpaceOnUse" id="gradient1" spreadMethod="pad" x1="-819.2" x2="819.2">
      <stop offset="0.3607843137254902" stop-color="#ffffff"/>
      <stop offset="0.5725490196078431" stop-color="#d8e4e4"/>
    </linearGradient>
    <linearGradient gradientTransform="matrix(0.0, 0.0108, -0.0132, 0.0, 87.05, 19.5)" gradientUnits="userSpaceOnUse" id="gradient2" spreadMethod="pad" x1="-819.2" x2="819.2">
      <stop offset="0.3607843137254902" stop-color="#ffffff"/>
      <stop offset="0.5725490196078431" stop-color="#d8e4e4"/>
    </linearGradient>
    <linearGradient gradientTransform="matrix(0.0, 0.01, -0.019, 0.0, 66.9, 24.2)" gradientUnits="userSpaceOnUse" id="gradient3" spreadMethod="pad" x1="-819.2" x2="819.2">
      <stop offset="0.3607843137254902" stop-color="#ffffff"/>
      <stop offset="0.5725490196078431" stop-color="#d8e4e4"/>
    </linearGradient>
    <linearGradient gradientTransform="matrix(0.0, 0.0091, -0.0133, 0.0, 49.55, 19.45)" gradientUnits="userSpaceOnUse" id="gradient4" spreadMethod="pad" x1="-819.2" x2="819.2">
      <stop offset="0.3607843137254902" stop-color="#ffffff"/>
      <stop offset="0.5725490196078431" stop-color="#d8e4e4"/>
    </linearGradient>
    <linearGradient gradientTransform="matrix(0.0, 0.0114, -0.0128, 0.0, 31.05, 19.4)" gradientUnits="userSpaceOnUse" id="gradient5" spreadMethod="pad" x1="-819.2" x2="819.2">
      <stop offset="0.3607843137254902" stop-color="#ffffff"/>
      <stop offset="0.5725490196078431" stop-color="#d8e4e4"/>
    </linearGradient>
    <linearGradient gradientTransform="matrix(0.0, 0.0107, -0.0185, 0.0, 8.75, 15.2)" gradientUnits="userSpaceOnUse" id="gradient6" spreadMethod="pad" x1="-819.2" x2="819.2">
      <stop offset="0.3607843137254902" stop-color="#ffffff"/>
      <stop offset="0.5725490196078431" stop-color="#d8e4e4"/>
    </linearGradient>
    <linearGradient gradientTransform="matrix(0.0, 0.0116, -0.0126, 0.0, 169.45, 20.05)" gradientUnits="userSpaceOnUse" id="gradient7" spreadMethod="pad" x1="-819.2" x2="819.2">
      <stop offset="0.3607843137254902" stop-color="#ffffff"/>
      <stop offset="0.5725490196078431" stop-color="#d8e4e4"/>
    </linearGradient>
    <linearGradient gradientTransform="matrix(0.0, 0.0187, -0.0133, 0.0, 143.5, 19.4)" gradientUnits="userSpaceOnUse" id="gradient8" spreadMethod="pad" x1="-819.2" x2="819.2">
      <stop offset="0.3607843137254902" stop-color="#ffffff"/>
      <stop offset="0.5725490196078431" stop-color="#d8e4e4"/>
    </linearGradient>
  </defs>
</svg>
