<?xml version="1.0" encoding="UTF-8" standalone="no"?>
<svg xmlns:ffdec="https://www.free-decompiler.com/flash" xmlns:xlink="http://www.w3.org/1999/xlink" ffdec:objectType="shape" height="41.75px" width="245.1px" xmlns="http://www.w3.org/2000/svg">
  <g transform="matrix(1.0, 0.0, 0.0, 1.0, 0.0, 0.0)">
    <path d="M244.95 14.05 L245.1 15.15 Q245.1 16.2 244.35 17.1 243.55 18.05 242.4 18.4 242.3 17.65 241.75 17.15 241.15 16.6 240.35 16.6 239.05 16.6 237.9 18.5 236.15 21.4 235.9 24.05 L235.85 23.0 Q235.85 19.95 237.9 16.5 239.05 14.6 240.35 14.6 241.15 14.6 241.75 15.15 242.3 15.65 242.4 16.4 243.55 16.05 244.35 15.1 L244.95 14.05 M236.5 28.8 L237.25 29.75 Q235.85 32.1 233.55 32.1 230.55 32.1 230.55 28.0 L230.6 27.05 Q230.95 30.1 233.55 30.1 235.3 30.1 236.5 28.8 M231.0 18.3 Q230.9 14.35 230.2 13.05 L230.7 12.7 231.0 17.55 231.0 18.3 M236.25 11.45 L236.3 12.0 236.25 13.05 236.15 13.2 236.25 11.45 M227.45 27.4 L227.55 28.3 Q227.55 30.05 226.45 31.15 225.3 32.25 223.4 32.25 219.9 32.25 219.1 29.0 217.2 32.15 213.6 32.15 210.6 32.15 208.85 29.8 207.05 27.45 207.05 23.4 L207.1 22.45 Q207.3 25.75 208.85 27.8 210.6 30.15 213.6 30.15 217.2 30.15 219.1 27.0 219.9 30.25 223.4 30.25 225.3 30.25 226.45 29.15 227.2 28.4 227.45 27.4 M197.5 28.6 L198.1 29.4 Q198.95 30.05 200.3 30.05 202.3 30.05 203.65 29.05 L204.85 27.6 205.0 28.55 Q205.0 30.05 203.65 31.05 202.3 32.05 200.3 32.05 198.95 32.05 198.1 31.4 197.3 30.7 197.3 29.6 L197.5 28.6 M191.15 17.4 L191.15 18.2 191.05 21.65 191.05 19.65 191.15 17.4 M194.65 27.6 L195.15 27.15 195.2 27.45 Q195.2 29.35 193.8 30.7 192.35 32.05 190.3 32.05 185.6 32.05 185.6 25.05 L185.65 24.25 Q186.0 30.05 190.3 30.05 192.35 30.05 193.8 28.7 L194.65 27.6 M185.8 18.95 Q185.65 18.25 185.05 18.25 184.35 18.25 183.45 19.35 182.2 20.95 181.65 23.0 L181.15 25.65 181.0 27.05 181.0 26.9 180.95 25.75 181.15 23.65 181.65 21.0 Q182.2 18.95 183.45 17.35 184.35 16.25 185.05 16.25 185.85 16.25 185.85 17.6 L185.8 18.95 M181.0 27.25 L180.95 27.75 181.0 28.9 Q181.0 29.95 180.3 30.35 L178.8 31.05 176.85 31.6 Q175.7 31.6 175.7 30.2 L175.8 28.8 Q175.95 29.6 176.85 29.6 L178.8 29.05 180.3 28.35 Q180.85 28.0 181.0 27.25 M176.2 20.9 Q176.05 19.05 175.2 19.05 174.35 19.05 173.35 20.55 171.0 23.9 170.6 26.95 L170.5 26.25 Q170.5 22.6 173.35 18.55 174.35 17.05 175.2 17.05 176.2 17.05 176.2 19.65 L176.2 20.9 M170.5 28.25 L170.6 29.0 170.65 29.75 170.1 30.8 Q168.75 32.2 167.55 32.2 166.5 32.2 165.85 31.0 165.15 29.75 165.15 27.95 L165.2 26.7 Q165.3 28.0 165.85 29.0 166.5 30.2 167.55 30.2 168.75 30.2 170.1 28.8 L170.5 28.25 M165.45 18.55 L165.1 14.25 164.6 12.75 164.8 12.7 Q164.95 12.65 165.15 12.55 L165.45 18.05 165.45 18.55 M170.85 11.45 L170.9 12.15 170.7 14.65 170.5 16.8 170.4 16.95 170.4 16.75 Q170.4 15.25 170.7 12.65 L170.85 11.45 M160.55 20.8 L160.55 21.75 Q160.55 26.55 158.2 29.45 155.8 32.35 151.85 32.35 147.95 32.35 145.45 29.45 142.9 26.5 142.9 21.95 L142.95 21.0 Q143.2 24.85 145.45 27.45 147.95 30.35 151.85 30.35 155.8 30.35 158.2 27.45 160.3 24.85 160.55 20.8 M148.35 20.1 L148.3 19.0 Q148.3 16.45 149.2 14.95 150.1 13.4 151.65 13.4 153.3 13.4 154.45 15.5 155.6 17.55 155.6 20.6 L155.6 21.65 Q155.4 19.2 154.45 17.5 153.3 15.4 151.65 15.4 150.1 15.4 149.2 16.95 148.45 18.15 148.35 20.1 M140.2 14.4 L140.3 15.4 Q140.3 16.85 139.55 17.8 138.7 18.75 137.5 18.75 L136.65 18.6 136.7 18.25 Q136.7 17.1 136.05 16.3 135.3 15.45 134.4 15.45 132.85 15.45 131.8 17.35 131.0 18.85 130.85 20.95 L130.8 19.95 Q130.8 17.2 131.8 15.35 132.85 13.45 134.4 13.45 135.3 13.45 136.05 14.3 136.7 15.1 136.7 16.25 L136.65 16.6 137.5 16.75 Q138.7 16.75 139.55 15.8 L140.2 14.4 M140.95 25.65 L141.05 26.45 Q141.05 28.95 139.05 30.6 137.0 32.3 134.05 32.3 130.1 32.3 127.9 29.65 125.65 27.05 125.65 22.45 L125.7 21.45 Q125.9 25.35 127.9 27.65 130.1 30.3 134.05 30.3 137.0 30.3 139.05 28.6 140.55 27.35 140.95 25.65 M116.65 28.8 L117.25 29.6 Q118.1 30.25 119.45 30.25 121.45 30.25 122.8 29.25 L124.0 27.8 124.15 28.75 Q124.15 30.25 122.8 31.25 121.45 32.25 119.45 32.25 118.1 32.25 117.25 31.6 116.45 30.9 116.45 29.8 L116.65 28.8 M112.8 13.5 L113.05 14.6 Q113.05 15.35 112.1 16.45 L111.3 17.35 Q110.65 16.15 109.15 15.4 107.7 14.6 106.25 14.6 105.0 14.6 104.45 15.1 L104.25 14.9 104.0 14.2 Q104.0 12.6 106.25 12.6 107.7 12.6 109.15 13.4 110.65 14.15 111.3 15.35 L112.1 14.45 112.8 13.5 M113.2 25.4 L113.25 26.35 Q113.25 29.2 111.25 30.9 109.25 32.65 105.95 32.65 102.25 32.65 98.9 30.5 L97.4 29.6 97.3 29.55 97.4 29.45 98.45 28.25 98.9 28.5 Q102.25 30.65 105.95 30.65 109.25 30.65 111.25 28.9 112.85 27.5 113.2 25.4 M107.3 25.65 L106.65 24.9 Q106.4 24.65 104.95 23.75 L102.1 21.9 Q98.5 19.6 98.5 16.5 L98.6 15.5 Q99.1 18.0 102.1 19.9 L104.95 21.75 Q106.4 22.65 106.65 22.9 107.6 23.7 107.6 24.6 L107.3 25.65 M95.9 20.8 L95.9 21.75 Q95.9 26.55 93.55 29.45 91.15 32.35 87.2 32.35 83.3 32.35 80.8 29.45 78.25 26.5 78.25 21.95 L78.3 21.0 Q78.55 24.85 80.8 27.45 83.3 30.35 87.2 30.35 91.15 30.35 93.55 27.45 95.65 24.85 95.9 20.8 M83.7 20.1 L83.65 19.0 Q83.65 16.45 84.55 14.95 85.45 13.4 87.0 13.4 88.65 13.4 89.8 15.5 90.95 17.55 90.95 20.6 L90.95 21.65 Q90.75 19.2 89.8 17.5 88.65 15.4 87.0 15.4 85.45 15.4 84.55 16.95 83.8 18.15 83.7 20.1 M73.5 15.8 L73.6 16.25 73.45 16.25 73.3 16.3 73.5 15.8 M74.8 18.35 Q75.1 18.55 75.1 19.0 L74.65 20.85 74.3 22.65 Q74.1 24.4 74.05 26.55 L74.05 26.25 74.05 25.65 Q74.05 22.85 74.3 20.65 L74.65 18.85 74.8 18.35 M74.1 32.3 L74.1 32.9 73.95 36.55 Q73.65 38.6 72.6 39.9 71.15 41.75 68.05 41.75 64.75 41.75 62.75 39.45 L61.8 38.3 61.5 38.1 62.7 37.35 62.75 37.45 Q64.75 39.75 68.05 39.75 71.15 39.75 72.6 37.9 73.65 36.6 73.95 34.55 L74.1 32.3 M69.4 30.1 Q67.3 31.95 64.8 31.95 62.2 31.95 60.45 29.45 58.7 26.9 58.7 23.15 L58.75 22.15 Q58.95 25.25 60.45 27.45 62.2 29.95 64.8 29.95 67.3 29.95 69.4 28.1 L69.4 28.55 69.4 29.95 69.4 30.1 M69.55 19.05 Q69.3 18.65 69.3 17.7 69.3 16.65 68.8 16.0 68.35 15.35 67.65 15.35 66.0 15.35 64.8 17.55 63.75 19.45 63.6 21.85 L63.55 20.8 Q63.55 17.8 64.8 15.55 66.0 13.35 67.65 13.35 68.35 13.35 68.8 14.0 69.3 14.65 69.3 15.7 69.3 17.0 69.7 17.25 L70.1 17.4 Q69.7 17.7 69.55 19.05 M55.45 15.2 L55.5 16.25 Q55.5 18.85 53.35 21.05 51.4 23.1 48.4 24.05 48.0 23.25 47.85 22.2 51.25 21.25 53.35 19.05 55.1 17.25 55.45 15.2 M56.9 25.75 L57.0 26.75 Q57.0 28.9 55.0 30.55 52.95 32.2 50.25 32.2 46.65 32.2 44.35 29.2 42.05 26.25 42.05 21.6 L42.1 20.6 Q42.3 24.55 44.35 27.2 46.65 30.2 50.25 30.2 52.95 30.2 55.0 28.55 56.5 27.3 56.9 25.75 M51.15 15.85 Q50.8 14.9 49.7 14.9 48.65 14.9 47.85 16.15 47.35 17.0 47.2 18.1 L47.1 17.15 Q47.1 15.4 47.85 14.15 48.65 12.9 49.7 12.9 51.3 12.9 51.3 14.8 L51.15 15.85 M38.4 12.75 L38.55 13.45 38.15 15.9 Q37.5 19.4 37.4 22.4 L37.35 21.55 Q37.35 18.1 38.15 13.9 L38.4 12.75 M40.25 27.4 L40.25 27.35 40.35 28.25 Q40.35 29.8 39.45 30.8 38.5 31.8 37.05 31.8 34.35 31.8 33.1 28.25 30.4 31.9 27.25 31.9 24.9 31.9 23.5 30.25 22.05 28.6 22.05 25.95 L22.1 24.7 Q22.25 26.85 23.5 28.25 24.9 29.9 27.25 29.9 30.4 29.9 33.1 26.25 34.35 29.8 37.05 29.8 38.5 29.8 39.45 28.8 L40.25 27.4 M22.45 17.25 Q22.35 15.4 21.85 13.9 L21.75 13.75 22.2 13.25 22.45 16.2 22.45 17.25 M28.0 12.1 L28.05 12.9 27.8 15.4 27.5 18.45 27.4 19.4 27.25 22.2 27.2 21.4 27.4 17.4 27.5 16.45 27.8 13.4 28.0 12.1 M32.5 16.7 L32.45 16.05 32.35 15.0 32.2 14.65 32.45 14.5 32.5 14.5 32.5 15.55 32.5 16.7 M17.35 2.95 L17.35 3.3 17.25 7.5 17.25 7.85 17.15 11.1 17.15 10.4 17.2 7.5 17.25 5.85 17.35 2.95 M17.45 23.15 L17.45 24.55 Q17.45 27.4 16.3 29.2 15.4 30.6 13.5 31.5 11.55 32.35 9.4 32.35 4.4 32.35 1.25 28.95 L0.2 27.95 0.0 27.9 1.45 27.15 Q4.55 30.35 9.4 30.35 11.55 30.35 13.5 29.5 15.4 28.6 16.3 27.2 17.35 25.6 17.45 23.15 M12.15 16.3 L11.8 8.2 11.75 7.5 Q11.5 4.85 11.1 3.5 L11.5 3.5 11.8 6.2 11.9 7.5 12.15 16.3" fill="#86111a" fill-rule="evenodd" stroke="none"/>
    <path d="M170.5 16.8 Q173.75 11.35 177.2 11.35 179.85 11.35 180.65 15.4 L180.7 15.65 Q181.4 14.2 183.35 12.2 184.85 10.7 187.2 10.7 191.15 10.7 191.15 16.2 L191.15 17.4 191.05 19.65 191.05 21.65 191.05 22.1 191.05 22.65 191.15 24.4 Q191.4 26.15 192.95 26.15 194.25 26.15 195.15 25.15 L195.2 25.45 Q195.2 26.65 194.65 27.6 L193.8 28.7 Q192.35 30.05 190.3 30.05 186.0 30.05 185.65 24.25 L185.6 23.05 185.8 18.95 185.85 17.6 Q185.85 16.25 185.05 16.25 184.35 16.25 183.45 17.35 182.2 18.95 181.65 21.0 L181.15 23.65 180.95 25.75 181.0 26.9 181.0 27.05 181.0 27.25 Q180.85 28.0 180.3 28.35 L178.8 29.05 176.85 29.6 Q175.95 29.6 175.8 28.8 L175.7 28.2 175.85 25.85 176.2 20.9 176.2 19.65 Q176.2 17.05 175.2 17.05 174.35 17.05 173.35 18.55 170.5 22.6 170.5 26.25 L170.6 26.95 170.6 27.0 170.65 27.75 170.5 28.25 170.1 28.8 Q168.75 30.2 167.55 30.2 166.5 30.2 165.85 29.0 165.3 28.0 165.2 26.7 L165.15 25.95 165.3 22.9 165.45 19.55 165.45 18.55 165.45 18.05 165.15 12.55 165.1 12.25 164.6 10.75 164.8 10.7 166.55 9.5 Q168.1 8.35 169.45 8.35 170.9 8.35 170.9 10.15 L170.85 11.45 170.7 12.65 Q170.4 15.25 170.4 16.75 L170.4 16.95 170.5 16.8" fill="url(#gradient0)" fill-rule="evenodd" stroke="none"/>
    <path d="M142.95 21.0 L142.9 19.95 Q142.9 17.4 143.95 15.05 145.0 12.7 146.5 11.95 L146.1 10.85 Q146.85 10.0 148.45 9.35 150.1 8.7 151.55 8.7 155.45 8.7 158.0 11.85 160.55 14.95 160.55 19.75 L160.55 20.8 Q160.3 24.85 158.2 27.45 155.8 30.35 151.85 30.35 147.95 30.35 145.45 27.45 143.2 24.85 142.95 21.0 M155.6 21.65 L155.6 20.6 Q155.6 17.55 154.45 15.5 153.3 13.4 151.65 13.4 150.1 13.4 149.2 14.95 148.3 16.45 148.3 19.0 L148.35 20.1 Q148.5 22.55 149.4 24.15 150.55 26.1 152.3 26.1 155.3 26.1 155.6 21.65" fill="url(#gradient1)" fill-rule="evenodd" stroke="none"/>
    <path d="M125.7 21.45 L125.65 20.45 Q125.65 15.45 128.3 12.05 130.95 8.65 134.8 8.65 137.15 8.65 138.75 10.0 140.3 11.4 140.3 13.4 L140.2 14.4 139.55 15.8 Q138.7 16.75 137.5 16.75 L136.65 16.6 136.7 16.25 Q136.7 15.1 136.05 14.3 135.3 13.45 134.4 13.45 132.85 13.45 131.8 15.35 130.8 17.2 130.8 19.95 L130.85 20.95 Q131.0 23.1 131.9 24.45 133.0 26.05 134.9 26.05 136.5 26.05 138.1 25.1 139.7 24.1 140.35 22.7 141.05 23.35 141.05 24.45 L140.95 25.65 Q140.55 27.35 139.05 28.6 137.0 30.3 134.05 30.3 130.1 30.3 127.9 27.65 125.9 25.35 125.7 21.45" fill="url(#gradient2)" fill-rule="evenodd" stroke="none"/>
    <path d="M124.0 27.8 L122.8 29.25 Q121.45 30.25 119.45 30.25 118.1 30.25 117.25 29.6 L116.65 28.8 116.45 27.8 Q116.45 26.45 117.85 25.4 119.3 24.35 121.15 24.35 122.5 24.35 123.35 25.0 124.15 25.65 124.15 26.75 L124.0 27.8" fill="url(#gradient3)" fill-rule="evenodd" stroke="none"/>
    <path d="M98.6 15.5 L98.5 14.5 Q98.5 12.1 100.6 10.5 102.7 8.95 105.95 8.95 109.0 8.95 111.05 10.0 113.05 11.0 113.05 12.6 L112.8 13.5 112.1 14.45 111.3 15.35 Q110.65 14.15 109.15 13.4 107.7 12.6 106.25 12.6 104.0 12.6 104.0 14.2 L104.25 14.9 104.45 15.1 108.75 18.1 Q111.0 19.5 112.0 20.75 113.25 22.3 113.25 24.35 L113.2 25.4 Q112.85 27.5 111.25 28.9 109.25 30.65 105.95 30.65 102.25 30.65 98.9 28.5 L98.45 28.25 97.4 27.6 97.3 27.55 97.4 27.45 98.65 26.0 Q99.55 25.0 100.6 25.0 L101.5 25.2 102.8 25.85 Q104.1 26.45 105.5 26.45 106.4 26.45 107.0 25.95 L107.3 25.65 107.6 24.6 Q107.6 23.7 106.65 22.9 106.4 22.65 104.95 21.75 L102.1 19.9 Q99.1 18.0 98.6 15.5" fill="url(#gradient4)" fill-rule="evenodd" stroke="none"/>
    <path d="M78.3 21.0 L78.25 19.95 Q78.25 17.4 79.3 15.05 80.35 12.7 81.85 11.95 L81.45 10.85 Q82.2 10.0 83.8 9.35 85.45 8.7 86.9 8.7 90.8 8.7 93.35 11.85 95.9 14.95 95.9 19.75 L95.9 20.8 Q95.65 24.85 93.55 27.45 91.15 30.35 87.2 30.35 83.3 30.35 80.8 27.45 78.55 24.85 78.3 21.0 M90.95 21.65 L90.95 20.6 Q90.95 17.55 89.8 15.5 88.65 13.4 87.0 13.4 85.45 13.4 84.55 14.95 83.65 16.45 83.65 19.0 L83.7 20.1 Q83.85 22.55 84.75 24.15 85.9 26.1 87.65 26.1 90.65 26.1 90.95 21.65" fill="url(#gradient5)" fill-rule="evenodd" stroke="none"/>
    <path d="M58.75 22.15 L58.7 21.15 Q58.7 16.15 61.5 12.45 64.25 8.7 67.9 8.7 69.8 8.7 71.0 9.7 72.0 10.5 72.85 12.15 73.65 13.75 73.65 14.95 L73.5 15.8 73.3 16.3 73.45 16.25 73.6 16.25 74.25 16.2 Q75.1 16.2 75.1 17.0 L74.8 18.35 74.65 18.85 74.3 20.65 Q74.05 22.85 74.05 25.65 L74.05 26.25 74.05 26.55 74.05 27.65 74.05 28.2 74.05 28.25 74.1 29.65 74.1 30.9 74.1 31.5 74.1 32.3 73.95 34.55 Q73.65 36.6 72.6 37.9 71.15 39.75 68.05 39.75 64.75 39.75 62.75 37.45 L62.7 37.35 61.8 36.3 61.5 36.1 63.15 35.1 Q64.05 34.6 64.7 34.6 L66.35 35.0 67.4 35.2 Q69.3 35.2 69.4 31.55 L69.4 31.15 69.4 30.55 69.4 30.1 69.4 29.95 69.4 28.55 69.4 28.1 Q67.3 29.95 64.8 29.95 62.2 29.95 60.45 27.45 58.95 25.25 58.75 22.15 M69.55 19.05 Q69.7 17.7 70.1 17.4 L69.7 17.25 Q69.3 17.0 69.3 15.7 69.3 14.65 68.8 14.0 68.35 13.35 67.65 13.35 66.0 13.35 64.8 15.55 63.55 17.8 63.55 20.8 L63.6 21.85 Q63.85 25.5 66.15 25.5 68.8 25.5 69.4 20.0 L69.55 19.05" fill="url(#gradient6)" fill-rule="evenodd" stroke="none"/>
    <path d="M42.1 20.6 L42.05 19.6 Q42.05 14.95 44.4 11.7 46.7 8.45 50.0 8.45 52.35 8.45 53.95 10.1 55.5 11.75 55.5 14.25 L55.45 15.2 Q55.1 17.25 53.35 19.05 51.25 21.25 47.85 22.2 48.0 23.25 48.4 24.05 49.3 26.05 51.5 26.05 52.85 26.05 54.3 25.25 55.75 24.4 56.65 23.15 57.0 23.8 57.0 24.75 L56.9 25.75 Q56.5 27.3 55.0 28.55 52.95 30.2 50.25 30.2 46.65 30.2 44.35 27.2 42.3 24.55 42.1 20.6 M47.2 18.1 L47.3 18.8 Q50.55 17.9 51.15 15.85 L51.3 14.8 Q51.3 12.9 49.7 12.9 48.65 12.9 47.85 14.15 47.1 15.4 47.1 17.15 L47.2 18.1" fill="url(#gradient7)" fill-rule="evenodd" stroke="none"/>
    <path d="M32.5 14.5 L32.45 14.05 32.35 13.0 32.2 12.65 32.45 12.5 32.75 12.35 34.9 11.1 Q36.2 10.25 37.35 10.25 38.55 10.25 38.55 11.45 L38.4 12.75 38.15 13.9 Q37.35 18.1 37.35 21.55 L37.4 22.4 Q37.55 25.6 39.2 25.6 L40.25 25.35 40.35 26.25 40.25 27.4 39.45 28.8 Q38.5 29.8 37.05 29.8 34.35 29.8 33.1 26.25 30.4 29.9 27.25 29.9 24.9 29.9 23.5 28.25 22.25 26.85 22.1 24.7 L22.05 23.95 22.2 20.95 22.45 17.25 22.45 16.2 22.2 13.25 21.85 11.9 21.75 11.75 Q21.75 11.4 22.9 10.9 L24.75 9.7 Q25.8 8.9 26.6 8.9 28.05 8.9 28.05 10.9 L28.0 12.1 27.8 13.4 27.5 16.45 27.4 17.4 27.2 21.4 27.25 22.2 Q27.4 24.95 28.85 24.95 30.3 24.95 31.4 22.1 32.3 19.7 32.5 16.7 L32.5 15.55 32.5 14.5" fill="url(#gradient8)" fill-rule="evenodd" stroke="none"/>
    <path d="M11.5 3.5 L11.1 1.5 13.75 0.9 15.05 0.3 16.35 0.0 Q17.35 0.0 17.35 1.3 L17.35 2.95 17.25 5.85 17.2 7.5 17.15 10.4 17.15 11.1 17.15 11.75 17.15 12.4 17.2 14.1 17.35 18.35 17.45 22.55 17.45 23.15 Q17.35 25.6 16.3 27.2 15.4 28.6 13.5 29.5 11.55 30.35 9.4 30.35 4.55 30.35 1.45 27.15 L1.25 26.95 0.2 25.95 0.0 25.9 1.65 25.0 Q2.95 24.1 4.0 24.1 4.75 24.1 6.05 24.85 7.7 25.8 9.1 25.8 10.75 25.8 11.4 24.65 12.1 23.5 12.15 20.7 L12.15 18.3 12.15 16.6 12.15 16.3 11.9 7.5 11.8 6.2 11.5 3.5" fill="url(#gradient9)" fill-rule="evenodd" stroke="none"/>
    <path d="M204.85 27.6 L203.65 29.05 Q202.3 30.05 200.3 30.05 198.95 30.05 198.1 29.4 L197.5 28.6 197.3 27.6 Q197.3 26.25 198.7 25.2 200.15 24.15 202.0 24.15 203.35 24.15 204.2 24.8 205.0 25.45 205.0 26.55 L204.85 27.6" fill="url(#gradient10)" fill-rule="evenodd" stroke="none"/>
    <path d="M207.1 22.45 L207.05 21.4 Q207.05 17.55 208.8 14.55 L210.1 12.65 211.65 11.05 Q214.15 8.85 217.25 8.85 220.85 8.85 222.45 12.1 223.35 14.0 223.35 15.1 L223.15 15.85 222.8 16.35 223.0 16.3 223.6 16.3 Q224.7 16.3 224.7 17.0 L224.6 17.6 224.4 18.45 Q223.85 20.5 223.85 22.1 L223.9 23.1 Q224.2 25.6 226.05 25.6 226.65 25.6 227.3 25.1 L227.55 26.3 227.45 27.4 Q227.2 28.4 226.45 29.15 225.3 30.25 223.4 30.25 219.9 30.25 219.1 27.0 217.2 30.15 213.6 30.15 210.6 30.15 208.85 27.8 207.3 25.75 207.1 22.45 M217.75 16.8 L217.75 15.95 Q217.75 14.0 216.5 14.0 215.15 14.0 214.15 16.15 213.15 18.35 213.15 21.3 L213.2 22.25 Q213.4 24.95 215.1 24.95 216.05 24.95 216.8 23.6 217.55 22.2 217.75 20.0 L217.85 19.3 Q218.1 17.85 218.45 17.6 217.75 17.55 217.75 16.8" fill="url(#gradient11)" fill-rule="evenodd" stroke="none"/>
    <path d="M236.25 13.05 Q237.3 11.55 238.8 10.55 240.35 9.5 241.65 9.5 243.1 9.5 244.1 10.55 245.1 11.6 245.1 13.15 L244.95 14.05 244.35 15.1 Q243.55 16.05 242.4 16.4 242.3 15.65 241.75 15.15 241.15 14.6 240.35 14.6 239.05 14.6 237.9 16.5 235.85 19.95 235.85 23.0 L235.9 24.05 236.25 26.0 Q236.65 27.45 237.25 27.75 L236.5 28.8 Q235.3 30.1 233.55 30.1 230.95 30.1 230.6 27.05 L230.55 26.0 230.85 20.8 231.0 18.3 231.0 17.55 230.7 12.7 230.2 11.05 231.6 10.05 Q233.6 8.55 235.0 8.55 236.3 8.55 236.3 10.0 L236.25 11.45 236.15 13.2 236.25 13.05" fill="url(#gradient12)" fill-rule="evenodd" stroke="none"/>
  </g>
  <defs>
    <linearGradient gradientTransform="matrix(0.0, 0.0187, -0.0133, 0.0, 179.95, 19.3)" gradientUnits="userSpaceOnUse" id="gradient0" spreadMethod="pad" x1="-819.2" x2="819.2">
      <stop offset="0.3607843137254902" stop-color="#ffffff"/>
      <stop offset="0.5725490196078431" stop-color="#d8e4e4"/>
    </linearGradient>
    <linearGradient gradientTransform="matrix(0.0, 0.0108, -0.0132, 0.0, 151.7, 19.5)" gradientUnits="userSpaceOnUse" id="gradient1" spreadMethod="pad" x1="-819.2" x2="819.2">
      <stop offset="0.3607843137254902" stop-color="#ffffff"/>
      <stop offset="0.5725490196078431" stop-color="#d8e4e4"/>
    </linearGradient>
    <linearGradient gradientTransform="matrix(0.0, 0.0094, -0.0132, 0.0, 133.4, 19.5)" gradientUnits="userSpaceOnUse" id="gradient2" spreadMethod="pad" x1="-819.2" x2="819.2">
      <stop offset="0.3607843137254902" stop-color="#ffffff"/>
      <stop offset="0.5725490196078431" stop-color="#d8e4e4"/>
    </linearGradient>
    <linearGradient gradientTransform="matrix(0.0, 0.0047, -0.0036, 0.0, 120.3, 27.3)" gradientUnits="userSpaceOnUse" id="gradient3" spreadMethod="pad" x1="-819.2" x2="819.2">
      <stop offset="0.3607843137254902" stop-color="#ffffff"/>
      <stop offset="0.5725490196078431" stop-color="#d8e4e4"/>
    </linearGradient>
    <linearGradient gradientTransform="matrix(0.0, 0.0097, -0.0132, 0.0, 105.25, 19.8)" gradientUnits="userSpaceOnUse" id="gradient4" spreadMethod="pad" x1="-819.2" x2="819.2">
      <stop offset="0.3607843137254902" stop-color="#ffffff"/>
      <stop offset="0.5725490196078431" stop-color="#d8e4e4"/>
    </linearGradient>
    <linearGradient gradientTransform="matrix(0.0, 0.0108, -0.0132, 0.0, 87.05, 19.5)" gradientUnits="userSpaceOnUse" id="gradient5" spreadMethod="pad" x1="-819.2" x2="819.2">
      <stop offset="0.3607843137254902" stop-color="#ffffff"/>
      <stop offset="0.5725490196078431" stop-color="#d8e4e4"/>
    </linearGradient>
    <linearGradient gradientTransform="matrix(0.0, 0.01, -0.019, 0.0, 66.9, 24.2)" gradientUnits="userSpaceOnUse" id="gradient6" spreadMethod="pad" x1="-819.2" x2="819.2">
      <stop offset="0.3607843137254902" stop-color="#ffffff"/>
      <stop offset="0.5725490196078431" stop-color="#d8e4e4"/>
    </linearGradient>
    <linearGradient gradientTransform="matrix(0.0, 0.0091, -0.0133, 0.0, 49.55, 19.45)" gradientUnits="userSpaceOnUse" id="gradient7" spreadMethod="pad" x1="-819.2" x2="819.2">
      <stop offset="0.3607843137254902" stop-color="#ffffff"/>
      <stop offset="0.5725490196078431" stop-color="#d8e4e4"/>
    </linearGradient>
    <linearGradient gradientTransform="matrix(0.0, 0.0114, -0.0128, 0.0, 31.05, 19.4)" gradientUnits="userSpaceOnUse" id="gradient8" spreadMethod="pad" x1="-819.2" x2="819.2">
      <stop offset="0.3607843137254902" stop-color="#ffffff"/>
      <stop offset="0.5725490196078431" stop-color="#d8e4e4"/>
    </linearGradient>
    <linearGradient gradientTransform="matrix(0.0, 0.0107, -0.0185, 0.0, 8.75, 15.2)" gradientUnits="userSpaceOnUse" id="gradient9" spreadMethod="pad" x1="-819.2" x2="819.2">
      <stop offset="0.3607843137254902" stop-color="#ffffff"/>
      <stop offset="0.5725490196078431" stop-color="#d8e4e4"/>
    </linearGradient>
    <linearGradient gradientTransform="matrix(0.0, 0.0047, -0.0036, 0.0, 201.15, 27.1)" gradientUnits="userSpaceOnUse" id="gradient10" spreadMethod="pad" x1="-819.2" x2="819.2">
      <stop offset="0.3607843137254902" stop-color="#ffffff"/>
      <stop offset="0.5725490196078431" stop-color="#d8e4e4"/>
    </linearGradient>
    <linearGradient gradientTransform="matrix(0.0, 0.0125, -0.0131, 0.0, 217.3, 19.55)" gradientUnits="userSpaceOnUse" id="gradient11" spreadMethod="pad" x1="-819.2" x2="819.2">
      <stop offset="0.0" stop-color="#ffffff"/>
      <stop offset="1.0" stop-color="#d8e4e4"/>
    </linearGradient>
    <linearGradient gradientTransform="matrix(0.0, 0.0091, -0.0132, 0.0, 237.65, 19.3)" gradientUnits="userSpaceOnUse" id="gradient12" spreadMethod="pad" x1="-819.2" x2="819.2">
      <stop offset="0.3607843137254902" stop-color="#ffffff"/>
      <stop offset="0.5725490196078431" stop-color="#d8e4e4"/>
    </linearGradient>
  </defs>
</svg>
