<?xml version="1.0" encoding="UTF-8" standalone="no"?>
<svg xmlns:ffdec="https://www.free-decompiler.com/flash" xmlns:xlink="http://www.w3.org/1999/xlink" ffdec:objectType="shape" height="67.9px" width="390.05px" xmlns="http://www.w3.org/2000/svg">
  <g transform="matrix(1.0, 0.0, 0.0, 1.0, -41.65, -46.5)">
    <path d="M312.1 93.9 L312.1 94.55 Q312.15 100.25 314.5 100.35 317.1 100.45 317.4 96.8 L323.0 97.05 Q322.35 104.1 314.35 103.95 306.6 103.4 306.2 94.05 307.2 84.8 314.75 84.4 322.85 84.95 323.1 91.85 L317.5 91.7 Q317.3 88.1 314.8 88.1 312.65 87.95 312.2 93.5 L312.1 93.9 M355.1 84.85 L355.05 87.15 355.2 87.1 Q357.0 84.35 360.85 84.35 365.5 84.85 366.8 87.95 369.1 84.4 373.25 84.45 377.55 84.85 379.2 88.0 379.8 89.4 379.75 92.5 L379.7 103.8 374.05 103.8 374.1 92.5 Q374.25 88.1 370.85 88.05 367.9 88.35 367.4 92.45 L367.3 103.75 361.75 103.7 361.8 92.35 Q361.85 88.05 358.6 88.1 355.3 88.25 355.1 92.3 L355.05 103.6 349.25 103.65 349.4 84.8 355.1 84.85 M339.4 94.4 Q339.75 88.1 335.55 88.0 331.6 87.95 331.4 94.3 331.35 100.3 335.3 100.4 339.4 100.5 339.4 94.4 M325.45 94.25 Q326.15 84.55 335.55 84.35 345.0 85.0 345.2 94.55 344.55 103.95 335.15 104.05 325.7 103.55 325.45 94.25 M410.6 91.55 L405.0 91.5 Q404.65 88.0 402.1 88.05 400.05 88.0 399.55 93.55 L399.5 94.15 399.55 94.65 Q400.0 100.65 402.25 100.6 404.85 100.6 404.95 96.8 L410.55 96.85 Q410.15 104.0 402.25 104.1 394.4 103.85 393.7 94.3 394.5 84.95 402.1 84.5 410.15 84.75 410.6 91.55 M422.75 88.05 Q419.8 88.35 419.15 92.5 L419.25 103.65 413.7 103.65 413.9 84.7 419.4 84.9 419.3 87.15 419.5 87.05 Q420.95 84.35 425.1 84.25 430.2 85.0 431.35 88.6 431.9 90.2 431.6 103.7 L425.85 103.65 425.85 92.35 Q426.05 88.0 422.75 88.05" fill="#000000" fill-rule="evenodd" stroke="none"/>
    <path d="M264.25 57.0 Q259.9 57.15 257.9 59.8 256.0 62.45 255.85 66.65 L271.6 66.65 Q271.75 62.55 269.85 59.8 268.05 57.15 264.25 57.0 M277.1 49.55 Q283.1 52.65 286.45 58.8 289.95 65.05 290.1 74.9 L290.1 76.35 255.3 76.35 Q255.35 81.7 258.6 84.8 261.8 87.8 267.0 87.9 270.45 87.8 273.55 85.85 276.65 84.05 278.3 80.55 284.25 83.2 290.1 85.8 285.4 92.6 279.05 95.9 272.55 99.35 263.6 99.35 255.55 99.25 249.7 96.25 243.65 93.1 240.25 87.25 236.95 81.45 236.8 73.0 236.95 65.3 240.1 59.35 243.15 53.5 249.35 50.0 255.2 46.65 263.6 46.5 271.1 46.5 277.1 49.55" fill="#000000" fill-rule="evenodd" stroke="none"/>
    <path d="M212.15 49.0 Q215.05 47.85 218.95 47.85 223.8 47.95 227.0 49.95 230.05 52.05 231.45 55.3 232.85 58.45 232.85 62.05 L232.85 99.35 215.2 99.35 215.2 67.55 Q215.35 64.95 214.2 62.55 213.15 60.45 209.75 60.35 207.25 60.45 205.15 61.75 203.0 63.05 202.15 64.5 L202.15 99.35 184.4 99.35 184.4 67.55 Q184.5 64.7 183.5 62.55 182.4 60.45 179.05 60.35 176.4 60.45 174.35 61.75 172.3 63.05 171.4 64.5 L171.4 99.35 153.7 99.35 153.7 49.15 171.4 49.15 171.4 56.25 176.15 52.3 Q178.5 50.55 181.55 49.15 184.3 47.95 188.0 47.85 192.85 47.85 196.3 50.05 199.75 52.3 201.45 56.9 203.9 54.25 206.65 52.15 209.2 50.05 212.15 49.0" fill="#000000" fill-rule="evenodd" stroke="none"/>
    <path d="M129.6 76.4 L124.05 77.4 Q121.1 78.1 119.1 79.8 117.0 81.3 116.9 84.3 117.0 86.15 117.9 87.4 118.95 88.65 120.1 89.2 L122.35 89.75 Q124.4 89.75 126.0 88.95 L129.6 86.95 129.6 76.4 M114.75 49.05 Q119.2 47.8 124.4 47.8 133.6 47.95 138.4 49.9 143.4 52.0 145.1 55.2 146.9 58.7 146.8 62.55 L146.8 89.45 146.85 92.2 147.45 96.0 Q147.9 98.0 148.8 99.35 L130.55 99.35 Q130.2 98.35 130.1 97.2 L129.75 94.85 Q126.7 97.6 122.8 99.1 119.0 100.55 114.5 100.7 L110.2 100.05 Q107.85 99.5 105.35 97.85 102.95 96.25 101.4 93.35 99.75 90.4 99.75 85.8 99.9 80.6 102.45 77.25 104.9 73.75 109.25 71.75 113.9 69.65 118.85 68.85 L129.7 67.9 129.7 63.85 Q129.7 60.95 127.95 59.9 126.15 58.7 123.8 58.8 120.6 58.8 119.1 60.45 117.45 62.05 116.8 64.95 L102.1 61.8 Q103.35 56.35 106.65 53.35 110.0 50.4 114.75 49.05" fill="#000000" fill-rule="evenodd" stroke="none"/>
    <path d="M79.6 98.7 Q77.2 97.75 73.05 97.5 L64.5 97.2 57.2 97.8 Q54.65 98.65 54.65 101.0 54.55 102.25 55.5 103.25 56.45 104.2 59.45 104.8 L68.2 105.35 74.5 105.05 Q78.2 104.65 80.0 103.95 82.2 103.0 82.3 101.5 82.2 99.5 79.6 98.7 M73.15 57.6 Q71.2 55.6 68.2 55.5 65.1 55.6 62.9 57.6 60.55 59.55 60.45 62.8 60.55 66.2 62.65 68.2 64.75 70.3 67.9 70.3 71.05 70.3 73.1 68.1 75.1 66.05 75.25 62.7 75.25 59.6 73.15 57.6 M91.25 48.15 Q94.4 47.0 98.15 47.0 L98.15 57.75 Q97.1 57.15 95.4 56.6 93.75 56.0 92.1 56.1 90.5 56.1 89.7 57.45 90.35 58.3 90.75 59.8 L91.1 62.0 Q91.0 69.55 85.4 73.95 79.85 78.15 69.1 78.25 L64.85 78.25 Q61.7 78.4 61.0 78.9 60.15 79.6 60.3 80.55 60.15 81.9 61.15 82.25 L64.7 82.9 74.2 83.55 82.35 84.45 Q86.25 85.1 89.9 86.75 93.4 88.3 95.4 90.95 97.5 93.8 97.6 98.15 97.75 101.95 94.75 105.6 91.8 109.35 85.2 111.8 78.5 114.3 67.3 114.4 L54.25 113.45 Q48.4 112.5 45.1 110.4 41.8 108.35 41.65 104.7 41.8 102.15 43.15 100.4 44.35 98.8 46.6 97.65 48.75 96.55 50.7 95.9 L50.7 95.8 Q47.85 94.95 45.85 92.95 43.75 91.0 43.6 87.7 43.75 84.7 45.6 82.5 47.2 80.45 50.0 78.8 52.4 77.4 55.1 76.6 L55.1 76.4 Q50.5 74.75 47.65 71.25 44.8 67.7 44.65 62.7 44.65 59.15 46.95 55.55 49.25 52.1 54.15 49.6 59.0 47.1 66.55 47.0 71.35 46.85 76.55 48.0 81.45 49.05 85.6 52.1 88.05 49.3 91.25 48.15" fill="#000000" fill-rule="evenodd" stroke="none"/>
  </g>
</svg>
