<?xml version="1.0" encoding="UTF-8" standalone="no"?>
<svg xmlns:ffdec="https://www.free-decompiler.com/flash" xmlns:xlink="http://www.w3.org/1999/xlink" ffdec:objectType="shape" height="42.25px" width="243.85px" xmlns="http://www.w3.org/2000/svg">
  <g transform="matrix(1.0, 0.0, 0.0, 1.0, 0.0, 0.3)">
    <path d="M186.75 12.9 Q190.7 12.9 190.7 18.4 L190.6 21.85 190.6 24.3 190.7 26.6 Q190.95 28.35 192.5 28.35 193.8 28.35 194.7 27.35 L194.75 27.65 Q194.75 29.55 193.35 30.9 191.9 32.25 189.85 32.25 185.15 32.25 185.15 25.25 L185.4 19.8 Q185.4 18.45 184.6 18.45 183.9 18.45 183.0 19.55 181.75 21.15 181.2 23.2 L180.7 25.85 180.5 27.95 180.55 29.1 Q180.55 30.15 179.85 30.55 L178.35 31.25 176.4 31.8 Q175.25 31.8 175.25 30.4 L175.4 28.05 175.75 21.85 Q175.75 19.25 174.75 19.25 173.9 19.25 172.9 20.75 170.05 24.8 170.05 28.45 L170.15 29.2 170.2 29.95 169.65 31.0 Q168.3 32.4 167.1 32.4 166.05 32.4 165.4 31.2 164.7 29.95 164.7 28.15 L164.85 25.1 165.0 20.25 Q165.0 16.45 164.65 14.45 L164.15 12.95 164.35 12.9 166.1 11.7 Q167.65 10.55 169.0 10.55 170.45 10.55 170.45 12.35 L170.25 14.85 Q169.95 17.45 169.95 18.95 L169.95 19.15 Q173.25 13.55 176.75 13.55 179.4 13.55 180.2 17.6 L180.25 17.85 Q180.95 16.4 182.9 14.4 184.4 12.9 186.75 12.9 M31.8 3.4 Q34.4 3.4 34.4 5.75 34.4 7.3 32.85 8.55 31.2 9.85 29.25 9.85 28.15 9.85 27.5 9.3 26.8 8.7 26.8 7.75 L26.8 7.6 Q26.8 5.85 29.05 4.3 30.45 3.4 31.8 3.4 M16.7 9.3 Q14.95 6.15 12.05 6.15 9.1 6.15 7.3 9.25 5.5 12.35 5.5 17.3 5.5 21.9 6.95 24.9 8.8 28.75 12.05 28.75 14.95 28.75 16.7 25.65 18.5 22.5 18.5 17.45 18.5 12.4 16.7 9.3 M23.7 16.15 Q23.7 23.5 20.35 28.0 17.0 32.55 11.5 32.55 6.6 32.55 3.3 28.3 0.0 24.0 0.0 17.7 0.0 13.3 1.1 10.25 2.2 7.1 4.1 6.15 3.8 5.8 3.8 5.45 3.8 5.1 4.15 4.6 4.95 3.6 7.3 2.8 9.65 2.0 11.85 2.0 17.05 2.0 20.35 5.95 23.7 9.9 23.7 16.15 M29.65 13.25 Q31.35 12.3 32.3 12.3 33.65 12.3 33.65 14.1 L33.5 16.15 33.4 19.4 33.25 25.15 33.35 34.4 Q33.35 38.3 32.1 39.9 30.5 41.9 27.0 41.9 24.05 41.9 21.55 39.65 L20.65 38.85 20.45 38.7 20.7 38.6 22.0 37.6 Q23.0 36.85 23.6 36.85 L24.6 37.1 25.2 37.45 26.5 37.75 Q27.45 37.75 27.9 36.85 28.45 35.85 28.45 31.05 L28.2 21.25 Q27.95 16.7 27.1 14.65 L27.45 14.55 29.65 13.25 M52.4 14.05 Q54.95 17.15 54.95 21.95 54.95 26.75 52.6 29.65 50.2 32.55 46.25 32.55 42.35 32.55 39.85 29.65 37.3 26.7 37.3 22.15 37.3 19.6 38.35 17.25 39.4 14.9 40.9 14.15 L40.5 13.05 Q41.25 12.2 42.85 11.55 44.5 10.9 45.95 10.9 49.85 10.9 52.4 14.05 M43.6 17.15 Q42.7 18.65 42.7 21.2 42.7 24.4 43.8 26.35 44.95 28.3 46.7 28.3 50.0 28.3 50.0 22.8 50.0 19.75 48.85 17.7 47.7 15.6 46.05 15.6 44.5 15.6 43.6 17.15 M68.35 16.2 Q67.9 15.55 67.2 15.55 65.55 15.55 64.35 17.75 63.1 20.0 63.1 23.0 63.1 27.7 65.7 27.7 68.35 27.7 68.95 22.2 69.15 20.0 69.65 19.6 L69.25 19.45 Q68.85 19.2 68.85 17.9 68.85 16.85 68.35 16.2 M67.45 10.9 Q69.35 10.9 70.55 11.9 71.55 12.7 72.4 14.35 73.2 15.95 73.2 17.15 L72.85 18.5 73.0 18.45 73.8 18.4 Q74.65 18.4 74.65 19.2 L74.2 21.05 73.85 22.85 Q73.6 25.05 73.6 27.85 L73.6 28.45 73.6 30.4 73.65 31.85 73.65 33.1 73.5 36.75 Q73.2 38.8 72.15 40.1 70.7 41.95 67.6 41.95 64.3 41.95 62.3 39.65 L61.35 38.5 61.05 38.3 Q61.85 37.75 62.7 37.3 63.6 36.8 64.25 36.8 L65.9 37.2 66.95 37.4 Q68.95 37.4 68.95 33.35 L68.95 32.15 68.95 30.75 68.95 30.3 Q66.85 32.15 64.35 32.15 61.75 32.15 60.0 29.65 58.25 27.1 58.25 23.35 58.25 18.35 61.05 14.65 63.8 10.9 67.45 10.9 M84.1 17.15 Q83.2 18.65 83.2 21.2 83.2 24.4 84.3 26.35 85.45 28.3 87.2 28.3 90.5 28.3 90.5 22.8 90.5 19.75 89.35 17.7 88.2 15.6 86.55 15.6 85.0 15.6 84.1 17.15 M81.0 13.05 Q81.75 12.2 83.35 11.55 85.0 10.9 86.45 10.9 90.35 10.9 92.9 14.05 95.45 17.15 95.45 21.95 95.45 26.75 93.1 29.65 90.7 32.55 86.75 32.55 82.85 32.55 80.35 29.65 77.8 26.7 77.8 22.15 77.8 19.6 78.85 17.25 79.9 14.9 81.4 14.15 L81.0 13.05 M103.8 17.1 Q104.3 17.8 108.3 20.3 110.55 21.7 111.55 22.95 112.8 24.5 112.8 26.55 112.8 29.4 110.8 31.1 108.8 32.85 105.5 32.85 101.8 32.85 98.45 30.7 L96.95 29.8 96.85 29.75 96.95 29.65 98.2 28.2 Q99.1 27.2 100.15 27.2 L101.05 27.4 102.35 28.05 Q103.65 28.65 105.05 28.65 105.95 28.65 106.55 28.15 107.15 27.6 107.15 26.8 107.15 25.9 106.2 25.1 L104.5 23.95 101.65 22.1 Q98.05 19.8 98.05 16.7 98.05 14.3 100.15 12.7 102.25 11.15 105.5 11.15 108.55 11.15 110.6 12.2 112.6 13.2 112.6 14.8 112.6 15.55 111.65 16.65 L110.85 17.55 Q110.2 16.35 108.7 15.6 107.25 14.8 105.8 14.8 103.55 14.8 103.55 16.4 L103.8 17.1 M134.35 10.85 Q136.7 10.85 138.3 12.2 139.85 13.6 139.85 15.6 139.85 17.05 139.1 18.0 138.25 18.95 137.05 18.95 L136.2 18.8 136.25 18.45 Q136.25 17.3 135.6 16.5 134.85 15.65 133.95 15.65 132.4 15.65 131.35 17.55 130.35 19.4 130.35 22.15 130.35 25.0 131.45 26.65 132.55 28.25 134.45 28.25 136.05 28.25 137.65 27.3 139.25 26.3 139.9 24.9 140.6 25.55 140.6 26.65 140.6 29.15 138.6 30.8 136.55 32.5 133.6 32.5 129.65 32.5 127.45 29.85 125.2 27.25 125.2 22.65 125.2 17.65 127.85 14.25 130.5 10.85 134.35 10.85 M151.1 10.9 Q155.0 10.9 157.55 14.05 160.1 17.15 160.1 21.95 160.1 26.75 157.75 29.65 155.35 32.55 151.4 32.55 147.5 32.55 145.0 29.65 142.45 26.7 142.45 22.15 142.45 19.6 143.5 17.25 144.55 14.9 146.05 14.15 L145.65 13.05 Q146.4 12.2 148.0 11.55 149.65 10.9 151.1 10.9 M151.2 15.6 Q149.65 15.6 148.75 17.15 147.85 18.65 147.85 21.2 147.85 24.4 148.95 26.35 150.1 28.3 151.85 28.3 155.15 28.3 155.15 22.8 155.15 19.75 154.0 17.7 152.85 15.6 151.2 15.6 M123.7 28.95 Q123.7 30.45 122.35 31.45 121.0 32.45 119.0 32.45 117.65 32.45 116.8 31.8 116.0 31.1 116.0 30.0 116.0 28.65 117.4 27.6 118.85 26.55 120.7 26.55 122.05 26.55 122.9 27.2 123.7 27.85 123.7 28.95" fill="#86111a" fill-rule="evenodd" stroke="none"/>
    <path d="M190.7 16.4 L190.6 19.85 190.6 22.3 190.7 24.6 Q190.95 26.35 192.5 26.35 193.8 26.35 194.7 25.35 L194.75 25.65 Q194.75 27.55 193.35 28.9 191.9 30.25 189.85 30.25 185.15 30.25 185.15 23.25 L185.4 17.8 Q185.4 16.45 184.6 16.45 183.9 16.45 183.0 17.55 181.75 19.15 181.2 21.2 L180.7 23.85 180.5 25.95 180.55 27.1 Q180.55 28.15 179.85 28.55 L178.35 29.25 176.4 29.8 Q175.25 29.8 175.25 28.4 L175.4 26.05 175.75 19.85 Q175.75 17.25 174.75 17.25 173.9 17.25 172.9 18.75 170.05 22.8 170.05 26.45 L170.15 27.2 170.2 27.95 169.65 29.0 Q168.3 30.4 167.1 30.4 166.05 30.4 165.4 29.2 164.7 27.95 164.7 26.15 L164.85 23.1 165.0 18.25 Q165.0 14.45 164.65 12.45 L164.15 10.95 164.35 10.9 166.1 9.7 Q167.65 8.55 169.0 8.55 170.45 8.55 170.45 10.35 L170.25 12.85 Q169.95 15.45 169.95 16.95 L169.95 17.15 Q173.25 11.55 176.75 11.55 179.4 11.55 180.2 15.6 L180.25 15.85 Q180.95 14.4 182.9 12.4 184.4 10.9 186.75 10.9 190.7 10.9 190.7 16.4" fill="url(#gradient0)" fill-rule="evenodd" stroke="none"/>
    <path d="M34.4 3.75 Q34.4 5.3 32.85 6.55 31.2 7.85 29.25 7.85 28.15 7.85 27.5 7.3 26.8 6.7 26.8 5.75 L26.8 5.6 Q26.8 3.85 29.05 2.3 30.45 1.4 31.8 1.4 34.4 1.4 34.4 3.75" fill="url(#gradient1)" fill-rule="evenodd" stroke="none"/>
    <path d="M23.7 14.15 Q23.7 21.5 20.35 26.0 17.0 30.55 11.5 30.55 6.6 30.55 3.3 26.3 0.0 22.0 0.0 15.7 0.0 11.3 1.1 8.25 2.2 5.1 4.1 4.15 3.8 3.8 3.8 3.45 3.8 3.1 4.15 2.6 4.95 1.6 7.3 0.8 9.65 0.0 11.85 0.0 17.05 0.0 20.35 3.95 23.7 7.9 23.7 14.15 M12.05 4.15 Q9.1 4.15 7.3 7.25 5.5 10.35 5.5 15.3 5.5 19.9 6.95 22.9 8.8 26.75 12.05 26.75 14.95 26.75 16.7 23.65 18.5 20.5 18.5 15.45 18.5 10.4 16.7 7.3 14.95 4.15 12.05 4.15" fill="url(#gradient2)" fill-rule="evenodd" stroke="none"/>
    <path d="M33.65 12.1 L33.5 14.15 33.4 17.4 33.25 23.15 33.35 32.4 Q33.35 36.3 32.1 37.9 30.5 39.9 27.0 39.9 24.05 39.9 21.55 37.65 L20.65 36.85 20.45 36.7 20.7 36.6 22.0 35.6 Q23.0 34.85 23.6 34.85 L24.6 35.1 25.2 35.45 26.5 35.75 Q27.45 35.75 27.9 34.85 28.45 33.85 28.45 29.05 L28.2 19.25 Q27.95 14.7 27.1 12.65 L27.45 12.55 29.65 11.25 Q31.35 10.3 32.3 10.3 33.65 10.3 33.65 12.1" fill="url(#gradient3)" fill-rule="evenodd" stroke="none"/>
    <path d="M45.95 8.9 Q49.85 8.9 52.4 12.05 54.95 15.15 54.95 19.95 54.95 24.75 52.6 27.65 50.2 30.55 46.25 30.55 42.35 30.55 39.85 27.65 37.3 24.7 37.3 20.15 37.3 17.6 38.35 15.25 39.4 12.9 40.9 12.15 L40.5 11.05 Q41.25 10.2 42.85 9.55 44.5 8.9 45.95 8.9 M43.6 15.15 Q42.7 16.65 42.7 19.2 42.7 22.4 43.8 24.35 44.95 26.3 46.7 26.3 50.0 26.3 50.0 20.8 50.0 17.75 48.85 15.7 47.7 13.6 46.05 13.6 44.5 13.6 43.6 15.15" fill="url(#gradient4)" fill-rule="evenodd" stroke="none"/>
    <path d="M70.55 9.9 Q71.55 10.7 72.4 12.35 73.2 13.95 73.2 15.15 L72.85 16.5 73.0 16.45 73.8 16.4 Q74.65 16.4 74.65 17.2 L74.2 19.05 73.85 20.85 Q73.6 23.05 73.6 25.85 L73.6 26.45 73.6 28.4 73.65 29.85 73.65 31.1 73.5 34.75 Q73.2 36.8 72.15 38.1 70.7 39.95 67.6 39.95 64.3 39.95 62.3 37.65 L61.35 36.5 61.05 36.3 Q61.85 35.75 62.7 35.3 63.6 34.8 64.25 34.8 L65.9 35.2 66.95 35.4 Q68.95 35.4 68.95 31.35 L68.95 30.15 68.95 28.75 68.95 28.3 Q66.85 30.15 64.35 30.15 61.75 30.15 60.0 27.65 58.25 25.1 58.25 21.35 58.25 16.35 61.05 12.65 63.8 8.9 67.45 8.9 69.35 8.9 70.55 9.9 M68.85 15.9 Q68.85 14.85 68.35 14.2 67.9 13.55 67.2 13.55 65.55 13.55 64.35 15.75 63.1 18.0 63.1 21.0 63.1 25.7 65.7 25.7 68.35 25.7 68.95 20.2 69.15 18.0 69.65 17.6 L69.25 17.45 Q68.85 17.2 68.85 15.9" fill="url(#gradient5)" fill-rule="evenodd" stroke="none"/>
    <path d="M83.35 9.55 Q85.0 8.9 86.45 8.9 90.35 8.9 92.9 12.05 95.45 15.15 95.45 19.95 95.45 24.75 93.1 27.65 90.7 30.55 86.75 30.55 82.85 30.55 80.35 27.65 77.8 24.7 77.8 20.15 77.8 17.6 78.85 15.25 79.9 12.9 81.4 12.15 L81.0 11.05 Q81.75 10.2 83.35 9.55 M84.3 24.35 Q85.45 26.3 87.2 26.3 90.5 26.3 90.5 20.8 90.5 17.75 89.35 15.7 88.2 13.6 86.55 13.6 85.0 13.6 84.1 15.15 83.2 16.65 83.2 19.2 83.2 22.4 84.3 24.35" fill="url(#gradient6)" fill-rule="evenodd" stroke="none"/>
    <path d="M110.6 10.2 Q112.6 11.2 112.6 12.8 112.6 13.55 111.65 14.65 L110.85 15.55 Q110.2 14.35 108.7 13.6 107.25 12.8 105.8 12.8 103.55 12.8 103.55 14.4 L103.8 15.1 Q104.3 15.8 108.3 18.3 110.55 19.7 111.55 20.95 112.8 22.5 112.8 24.55 112.8 27.4 110.8 29.1 108.8 30.85 105.5 30.85 101.8 30.85 98.45 28.7 L96.95 27.8 96.85 27.75 96.95 27.65 98.2 26.2 Q99.1 25.2 100.15 25.2 L101.05 25.4 102.35 26.05 Q103.65 26.65 105.05 26.65 105.95 26.65 106.55 26.15 107.15 25.6 107.15 24.8 107.15 23.9 106.2 23.1 L104.5 21.95 101.65 20.1 Q98.05 17.8 98.05 14.7 98.05 12.3 100.15 10.7 102.25 9.15 105.5 9.15 108.55 9.15 110.6 10.2" fill="url(#gradient7)" fill-rule="evenodd" stroke="none"/>
    <path d="M138.3 10.2 Q139.85 11.6 139.85 13.6 139.85 15.05 139.1 16.0 138.25 16.95 137.05 16.95 L136.2 16.8 136.25 16.45 Q136.25 15.3 135.6 14.5 134.85 13.65 133.95 13.65 132.4 13.65 131.35 15.55 130.35 17.4 130.35 20.15 130.35 23.0 131.45 24.65 132.55 26.25 134.45 26.25 136.05 26.25 137.65 25.3 139.25 24.3 139.9 22.9 140.6 23.55 140.6 24.65 140.6 27.15 138.6 28.8 136.55 30.5 133.6 30.5 129.65 30.5 127.45 27.85 125.2 25.25 125.2 20.65 125.2 15.65 127.85 12.25 130.5 8.85 134.35 8.85 136.7 8.85 138.3 10.2" fill="url(#gradient8)" fill-rule="evenodd" stroke="none"/>
    <path d="M145.65 11.05 Q146.4 10.2 148.0 9.55 149.65 8.9 151.1 8.9 155.0 8.9 157.55 12.05 160.1 15.15 160.1 19.95 160.1 24.75 157.75 27.65 155.35 30.55 151.4 30.55 147.5 30.55 145.0 27.65 142.45 24.7 142.45 20.15 142.45 17.6 143.5 15.25 144.55 12.9 146.05 12.15 L145.65 11.05 M148.75 15.15 Q147.85 16.65 147.85 19.2 147.85 22.4 148.95 24.35 150.1 26.3 151.85 26.3 155.15 26.3 155.15 20.8 155.15 17.75 154.0 15.7 152.85 13.6 151.2 13.6 149.65 13.6 148.75 15.15" fill="url(#gradient9)" fill-rule="evenodd" stroke="none"/>
    <path d="M123.7 26.95 Q123.7 28.45 122.35 29.45 121.0 30.45 119.0 30.45 117.65 30.45 116.8 29.8 116.0 29.1 116.0 28.0 116.0 26.65 117.4 25.6 118.85 24.55 120.7 24.55 122.05 24.55 122.9 25.2 123.7 25.85 123.7 26.95" fill="url(#gradient10)" fill-rule="evenodd" stroke="none"/>
    <path d="M243.7 14.1 L243.85 15.2 Q243.85 16.25 243.1 17.15 242.3 18.1 241.15 18.45 241.05 17.7 240.5 17.2 239.9 16.65 239.1 16.65 237.8 16.65 236.65 18.55 234.9 21.45 234.65 24.1 L234.6 23.05 Q234.6 20.0 236.65 16.55 237.8 14.65 239.1 14.65 239.9 14.65 240.5 15.2 241.05 15.7 241.15 16.45 242.3 16.1 243.1 15.15 L243.7 14.1 M235.25 28.85 Q235.6 29.6 236.0 29.8 234.6 32.15 232.3 32.15 229.3 32.15 229.3 28.05 L229.35 27.1 Q229.7 30.15 232.3 30.15 234.05 30.15 235.25 28.85 M229.75 18.35 Q229.65 14.4 228.95 13.1 L229.45 12.75 229.75 17.6 229.75 18.35 M235.0 11.5 L235.05 12.05 235.0 13.1 234.9 13.25 235.0 11.5 M225.15 19.35 L225.15 20.35 Q225.15 25.5 222.75 28.8 220.35 32.0 216.55 32.0 213.95 32.0 211.75 30.1 L211.2 30.15 Q209.9 30.15 209.15 29.15 208.4 28.15 208.15 25.4 L207.95 19.5 208.15 23.4 Q208.4 26.15 209.15 27.15 209.9 28.15 211.2 28.15 L211.75 28.1 Q213.95 30.0 216.55 30.0 220.35 30.0 222.75 26.8 224.9 23.8 225.15 19.35 M208.5 5.35 L208.2 4.2 208.5 4.15 208.5 4.2 208.5 5.35 M214.45 2.25 L214.65 3.15 214.5 3.9 213.8 6.9 Q213.2 9.35 213.05 12.05 L213.0 12.15 Q213.0 8.25 213.8 4.9 L214.45 2.25 M213.05 22.85 L213.0 22.0 Q213.0 18.65 214.0 16.4 215.4 13.2 217.3 13.2 218.5 13.2 219.2 14.75 219.9 16.35 219.9 19.0 L219.9 19.95 Q219.75 18.0 219.2 16.75 218.5 15.2 217.3 15.2 215.4 15.2 214.0 18.4 213.2 20.25 213.05 22.85 M205.7 27.9 L205.85 28.85 Q205.85 30.35 204.5 31.35 203.15 32.35 201.15 32.35 199.8 32.35 198.95 31.7 198.15 31.0 198.15 29.9 L198.35 28.9 198.95 29.7 Q199.8 30.35 201.15 30.35 203.15 30.35 204.5 29.35 205.35 28.7 205.7 27.9" fill="#86111a" fill-rule="evenodd" stroke="none"/>
    <path d="M243.7 14.1 L243.1 15.15 Q242.3 16.1 241.15 16.45 241.05 15.7 240.5 15.2 239.9 14.65 239.1 14.65 237.8 14.65 236.65 16.55 234.6 20.0 234.6 23.05 L234.65 24.1 235.0 26.05 Q235.4 27.5 236.0 27.8 L235.25 28.85 Q234.05 30.15 232.3 30.15 229.7 30.15 229.35 27.1 L229.3 26.05 229.6 20.85 229.75 18.35 229.75 17.6 229.45 12.75 228.95 11.1 230.35 10.1 Q232.35 8.6 233.75 8.6 235.05 8.6 235.05 10.05 L235.0 11.5 234.9 13.25 235.0 13.1 Q236.05 11.6 237.55 10.6 239.1 9.55 240.4 9.55 241.85 9.55 242.85 10.6 243.85 11.65 243.85 13.2 L243.7 14.1" fill="url(#gradient11)" fill-rule="evenodd" stroke="none"/>
    <path d="M213.05 12.05 Q215.35 8.65 218.8 8.65 221.75 8.65 223.45 11.25 225.15 13.85 225.15 18.35 L225.15 19.35 Q224.9 23.8 222.75 26.8 220.35 30.0 216.55 30.0 213.95 30.0 211.75 28.1 L211.2 28.15 Q209.9 28.15 209.15 27.15 208.4 26.15 208.15 23.4 L207.95 19.5 208.0 15.65 208.2 8.65 208.5 5.35 208.5 4.2 208.5 4.15 Q208.5 2.85 208.2 2.2 208.95 2.05 210.45 0.95 212.15 -0.3 213.25 -0.3 214.65 -0.3 214.65 1.15 L214.5 1.9 214.45 2.25 213.8 4.9 Q213.0 8.25 213.0 12.15 L213.05 12.05 M219.9 19.95 L219.9 19.0 Q219.9 16.35 219.2 14.75 218.5 13.2 217.3 13.2 215.4 13.2 214.0 16.4 213.0 18.65 213.0 22.0 L213.05 22.85 213.1 24.0 Q214.55 26.05 216.15 26.05 217.7 26.05 218.8 24.0 219.7 22.3 219.9 19.95" fill="url(#gradient12)" fill-rule="evenodd" stroke="none"/>
    <path d="M198.35 28.9 L198.15 27.9 Q198.15 26.55 199.55 25.5 201.0 24.45 202.85 24.45 204.2 24.45 205.05 25.1 205.85 25.75 205.85 26.85 L205.7 27.9 Q205.35 28.7 204.5 29.35 203.15 30.35 201.15 30.35 199.8 30.35 198.95 29.7 L198.35 28.9" fill="url(#gradient13)" fill-rule="evenodd" stroke="none"/>
  </g>
  <defs>
    <linearGradient gradientTransform="matrix(0.0, 0.0187, -0.0133, 0.0, 179.5, 19.5)" gradientUnits="userSpaceOnUse" id="gradient0" spreadMethod="pad" x1="-819.2" x2="819.2">
      <stop offset="0.34901960784313724" stop-color="#ffffff"/>
      <stop offset="0.5725490196078431" stop-color="#d8e4e4"/>
    </linearGradient>
    <linearGradient gradientTransform="matrix(0.0, 0.0046, -0.0039, 0.0, 30.6, 4.6)" gradientUnits="userSpaceOnUse" id="gradient1" spreadMethod="pad" x1="-819.2" x2="819.2">
      <stop offset="0.34901960784313724" stop-color="#ffffff"/>
      <stop offset="0.5725490196078431" stop-color="#d8e4e4"/>
    </linearGradient>
    <linearGradient gradientTransform="matrix(0.0, 0.0145, -0.0186, 0.0, 11.9, 15.3)" gradientUnits="userSpaceOnUse" id="gradient2" spreadMethod="pad" x1="-819.2" x2="819.2">
      <stop offset="0.34901960784313724" stop-color="#ffffff"/>
      <stop offset="0.5725490196078431" stop-color="#d8e4e4"/>
    </linearGradient>
    <linearGradient gradientTransform="matrix(0.0, 0.0135, -0.0181, 0.0, 27.05, 25.1)" gradientUnits="userSpaceOnUse" id="gradient3" spreadMethod="pad" x1="-819.2" x2="819.2">
      <stop offset="0.34901960784313724" stop-color="#ffffff"/>
      <stop offset="0.5725490196078431" stop-color="#d8e4e4"/>
    </linearGradient>
    <linearGradient gradientTransform="matrix(0.0, 0.0108, -0.0132, 0.0, 46.15, 19.75)" gradientUnits="userSpaceOnUse" id="gradient4" spreadMethod="pad" x1="-819.2" x2="819.2">
      <stop offset="0.34901960784313724" stop-color="#ffffff"/>
      <stop offset="0.5725490196078431" stop-color="#d8e4e4"/>
    </linearGradient>
    <linearGradient gradientTransform="matrix(0.0, 0.01, -0.019, 0.0, 66.5, 24.45)" gradientUnits="userSpaceOnUse" id="gradient5" spreadMethod="pad" x1="-819.2" x2="819.2">
      <stop offset="0.34901960784313724" stop-color="#ffffff"/>
      <stop offset="0.5725490196078431" stop-color="#d8e4e4"/>
    </linearGradient>
    <linearGradient gradientTransform="matrix(0.0, 0.0108, -0.0132, 0.0, 86.65, 19.75)" gradientUnits="userSpaceOnUse" id="gradient6" spreadMethod="pad" x1="-819.2" x2="819.2">
      <stop offset="0.34901960784313724" stop-color="#ffffff"/>
      <stop offset="0.5725490196078431" stop-color="#d8e4e4"/>
    </linearGradient>
    <linearGradient gradientTransform="matrix(0.0, 0.0097, -0.0132, 0.0, 104.8, 20.0)" gradientUnits="userSpaceOnUse" id="gradient7" spreadMethod="pad" x1="-819.2" x2="819.2">
      <stop offset="0.34901960784313724" stop-color="#ffffff"/>
      <stop offset="0.5725490196078431" stop-color="#d8e4e4"/>
    </linearGradient>
    <linearGradient gradientTransform="matrix(0.0, 0.0094, -0.0132, 0.0, 132.95, 19.7)" gradientUnits="userSpaceOnUse" id="gradient8" spreadMethod="pad" x1="-819.2" x2="819.2">
      <stop offset="0.34901960784313724" stop-color="#ffffff"/>
      <stop offset="0.5725490196078431" stop-color="#d8e4e4"/>
    </linearGradient>
    <linearGradient gradientTransform="matrix(0.0, 0.0108, -0.0132, 0.0, 151.3, 19.75)" gradientUnits="userSpaceOnUse" id="gradient9" spreadMethod="pad" x1="-819.2" x2="819.2">
      <stop offset="0.34901960784313724" stop-color="#ffffff"/>
      <stop offset="0.5725490196078431" stop-color="#d8e4e4"/>
    </linearGradient>
    <linearGradient gradientTransform="matrix(0.0, 0.0047, -0.0036, 0.0, 119.85, 27.5)" gradientUnits="userSpaceOnUse" id="gradient10" spreadMethod="pad" x1="-819.2" x2="819.2">
      <stop offset="0.34901960784313724" stop-color="#ffffff"/>
      <stop offset="0.5725490196078431" stop-color="#d8e4e4"/>
    </linearGradient>
    <linearGradient gradientTransform="matrix(0.0, 0.0091, -0.0132, 0.0, 236.4, 19.35)" gradientUnits="userSpaceOnUse" id="gradient11" spreadMethod="pad" x1="-819.2" x2="819.2">
      <stop offset="0.34901960784313724" stop-color="#ffffff"/>
      <stop offset="0.5725490196078431" stop-color="#d8e4e4"/>
    </linearGradient>
    <linearGradient gradientTransform="matrix(0.0, 0.0105, -0.0185, 0.0, 216.55, 14.85)" gradientUnits="userSpaceOnUse" id="gradient12" spreadMethod="pad" x1="-819.2" x2="819.2">
      <stop offset="0.34901960784313724" stop-color="#ffffff"/>
      <stop offset="0.5725490196078431" stop-color="#d8e4e4"/>
    </linearGradient>
    <linearGradient gradientTransform="matrix(0.0, 0.0047, -0.0036, 0.0, 202.0, 27.4)" gradientUnits="userSpaceOnUse" id="gradient13" spreadMethod="pad" x1="-819.2" x2="819.2">
      <stop offset="0.34901960784313724" stop-color="#ffffff"/>
      <stop offset="0.5725490196078431" stop-color="#d8e4e4"/>
    </linearGradient>
  </defs>
</svg>
