<?xml version="1.0" encoding="UTF-8" standalone="no"?>
<svg xmlns:ffdec="https://www.free-decompiler.com/flash" xmlns:xlink="http://www.w3.org/1999/xlink" ffdec:objectType="shape" height="41.95px" width="214.45px" xmlns="http://www.w3.org/2000/svg">
  <g transform="matrix(1.0, 0.0, 0.0, 1.0, 0.0, 0.0)">
    <path d="M159.2 11.15 Q162.25 11.15 164.3 12.2 166.3 13.2 166.3 14.8 166.3 15.55 165.35 16.65 L164.55 17.55 Q163.9 16.35 162.4 15.6 160.95 14.8 159.5 14.8 157.25 14.8 157.25 16.4 L157.5 17.1 Q158.0 17.8 162.0 20.3 164.25 21.7 165.25 22.95 166.5 24.5 166.5 26.55 166.5 29.4 164.5 31.1 162.5 32.85 159.2 32.85 155.5 32.85 152.15 30.7 L150.65 29.8 150.55 29.75 150.65 29.65 151.9 28.2 Q152.8 27.2 153.85 27.2 L154.75 27.4 156.05 28.05 Q157.35 28.65 158.75 28.65 159.65 28.65 160.25 28.15 160.85 27.6 160.85 26.8 160.85 25.9 159.9 25.1 L158.2 23.95 155.35 22.1 Q151.75 19.8 151.75 16.7 151.75 14.3 153.85 12.7 155.95 11.15 159.2 11.15 M146.65 12.3 Q148.2 13.95 148.2 16.45 148.2 19.05 146.05 21.25 143.95 23.45 140.55 24.4 141.15 28.25 144.2 28.25 145.55 28.25 147.0 27.45 148.45 26.6 149.35 25.35 149.7 26.0 149.7 26.95 149.7 29.1 147.7 30.75 145.65 32.4 142.95 32.4 139.35 32.4 137.05 29.4 134.75 26.45 134.75 21.8 134.75 17.15 137.1 13.9 139.4 10.65 142.7 10.65 145.05 10.65 146.65 12.3 M193.1 12.7 Q194.1 13.75 194.1 15.3 194.1 16.35 193.35 17.25 192.55 18.2 191.4 18.55 191.3 17.8 190.75 17.3 190.15 16.75 189.35 16.75 188.05 16.75 186.9 18.65 184.85 22.1 184.85 25.15 184.85 26.7 185.25 28.15 185.65 29.6 186.25 29.9 184.85 32.25 182.55 32.25 179.55 32.25 179.55 28.15 L179.85 22.95 180.0 19.7 Q180.0 14.7 179.2 13.2 L180.6 12.2 Q182.6 10.7 184.0 10.7 185.3 10.7 185.3 12.15 L185.15 15.35 Q186.25 13.75 187.8 12.7 189.35 11.65 190.65 11.65 192.1 11.65 193.1 12.7 M200.7 11.1 Q202.15 11.1 202.15 13.1 L201.9 15.6 201.6 18.65 201.5 19.6 201.3 23.6 Q201.3 27.15 202.95 27.15 204.4 27.15 205.5 24.3 206.6 21.45 206.6 17.75 L206.55 16.25 206.45 15.2 206.3 14.85 Q206.3 14.8 206.55 14.7 L206.85 14.55 209.0 13.3 Q210.3 12.45 211.45 12.45 212.65 12.45 212.65 13.65 L212.25 16.1 Q211.45 20.3 211.45 23.75 211.45 27.8 213.3 27.8 L214.35 27.55 214.45 28.45 Q214.45 30.0 213.55 31.0 212.6 32.0 211.15 32.0 208.45 32.0 207.2 28.45 204.5 32.1 201.35 32.1 199.0 32.1 197.6 30.45 196.15 28.8 196.15 26.15 L196.3 23.15 196.55 18.4 Q196.55 16.0 195.95 14.1 L195.85 13.95 Q195.85 13.6 197.0 13.1 L198.85 11.9 Q199.9 11.1 200.7 11.1 M4.15 4.6 Q4.95 3.6 7.3 2.8 9.65 2.0 11.85 2.0 17.05 2.0 20.35 5.95 23.7 9.9 23.7 16.15 23.7 23.5 20.35 28.0 17.0 32.55 11.5 32.55 6.6 32.55 3.3 28.3 0.0 24.0 0.0 17.7 0.0 13.3 1.1 10.25 2.2 7.1 4.1 6.15 3.8 5.8 3.8 5.45 3.8 5.1 4.15 4.6 M7.3 9.25 Q5.5 12.35 5.5 17.3 5.5 21.9 6.95 24.9 8.8 28.75 12.05 28.75 14.95 28.75 16.7 25.65 18.5 22.5 18.5 17.45 18.5 12.4 16.7 9.3 14.95 6.15 12.05 6.15 9.1 6.15 7.3 9.25 M32.05 11.1 Q33.5 11.1 33.5 13.1 L33.25 15.6 32.95 18.65 32.85 19.6 32.65 23.6 Q32.65 27.15 34.3 27.15 35.75 27.15 36.85 24.3 37.95 21.45 37.95 17.75 L37.9 16.25 37.8 15.2 37.65 14.85 37.9 14.7 38.2 14.55 40.35 13.3 Q41.65 12.45 42.8 12.45 44.0 12.45 44.0 13.65 L43.6 16.1 Q42.8 20.3 42.8 23.75 42.8 27.8 44.65 27.8 L45.7 27.55 45.8 28.45 Q45.8 30.0 44.9 31.0 43.95 32.0 42.5 32.0 39.8 32.0 38.55 28.45 35.85 32.1 32.7 32.1 30.35 32.1 28.95 30.45 27.5 28.8 27.5 26.15 L27.65 23.15 27.9 18.4 Q27.9 16.0 27.3 14.1 L27.2 13.95 Q27.2 13.6 28.35 13.1 L30.2 11.9 Q31.25 11.1 32.05 11.1 M75.7 11.9 Q76.7 12.7 77.55 14.35 78.35 15.95 78.35 17.15 L78.0 18.5 78.15 18.45 78.95 18.4 Q79.8 18.4 79.8 19.2 L79.35 21.05 79.0 22.85 Q78.75 25.05 78.75 27.85 L78.75 28.45 78.75 30.4 78.8 31.85 78.8 33.1 78.65 36.75 Q78.35 38.8 77.3 40.1 75.85 41.95 72.75 41.95 69.45 41.95 67.45 39.65 L66.5 38.5 66.2 38.3 67.85 37.3 Q68.75 36.8 69.4 36.8 L71.05 37.2 72.1 37.4 Q74.1 37.4 74.1 33.35 L74.1 32.15 74.1 30.75 74.1 30.3 Q72.0 32.15 69.5 32.15 66.9 32.15 65.15 29.65 63.4 27.1 63.4 23.35 63.4 18.35 66.2 14.65 68.95 10.9 72.6 10.9 74.5 10.9 75.7 11.9 M61.85 12.7 Q62.85 13.75 62.85 15.3 62.85 16.35 62.1 17.25 61.3 18.2 60.15 18.55 60.05 17.8 59.5 17.3 58.9 16.75 58.1 16.75 56.8 16.75 55.65 18.65 53.6 22.1 53.6 25.15 53.6 26.7 54.0 28.15 54.4 29.6 55.0 29.9 53.6 32.25 51.3 32.25 48.3 32.25 48.3 28.15 L48.6 22.95 48.75 19.7 Q48.75 14.7 47.95 13.2 L49.35 12.2 Q51.35 10.7 52.75 10.7 54.05 10.7 54.05 12.15 L53.9 15.35 Q55.0 13.75 56.55 12.7 58.1 11.65 59.4 11.65 60.85 11.65 61.85 12.7 M109.7 12.35 L109.5 14.85 Q109.2 17.45 109.2 18.95 L109.2 19.15 Q112.5 13.55 116.0 13.55 118.65 13.55 119.45 17.6 L119.5 17.85 Q120.2 16.4 122.15 14.4 123.65 12.9 126.0 12.9 129.95 12.9 129.95 18.4 L129.85 21.85 129.85 24.3 129.95 26.6 Q130.2 28.35 131.75 28.35 133.05 28.35 133.95 27.35 L134.0 27.65 Q134.0 29.55 132.6 30.9 131.15 32.25 129.1 32.25 124.4 32.25 124.4 25.25 L124.65 19.8 Q124.65 18.45 123.85 18.45 123.15 18.45 122.25 19.55 121.0 21.15 120.45 23.2 L119.95 25.85 119.75 27.95 119.8 29.1 Q119.8 30.15 119.1 30.55 L117.6 31.25 115.65 31.8 Q114.5 31.8 114.5 30.4 L114.65 28.05 115.0 21.85 Q115.0 19.25 114.0 19.25 113.15 19.25 112.15 20.75 109.3 24.8 109.3 28.45 L109.4 29.2 109.45 29.95 108.9 31.0 Q107.55 32.4 106.35 32.4 105.3 32.4 104.65 31.2 103.95 29.95 103.95 28.15 L104.1 25.1 104.25 20.25 Q104.25 16.45 103.9 14.45 L103.4 12.95 103.6 12.9 105.35 11.7 Q106.9 10.55 108.25 10.55 109.7 10.55 109.7 12.35 M99.2 19.8 L98.85 21.15 Q98.45 22.7 98.45 24.55 98.45 28.1 100.6 28.1 101.55 28.1 102.1 27.35 L102.3 28.3 Q102.3 29.95 101.3 31.1 100.25 32.2 98.75 32.2 95.75 32.2 94.8 28.75 93.0 32.1 89.65 32.1 86.9 32.1 85.05 29.5 83.15 26.9 83.15 23.1 83.15 18.45 85.95 14.85 88.75 11.15 92.3 11.15 95.95 11.15 97.25 14.65 97.95 16.5 97.95 17.35 97.95 17.95 97.55 18.45 L98.35 18.35 Q99.3 18.35 99.3 19.0 L99.2 19.8 M93.5 17.65 Q93.5 16.7 93.0 16.05 92.45 15.35 91.7 15.35 90.2 15.35 89.05 17.7 87.9 20.0 87.9 23.0 87.9 25.2 88.6 26.5 89.3 27.75 90.5 27.75 92.85 27.75 93.65 22.35 L94.0 20.25 94.35 19.6 Q93.5 19.45 93.5 18.6 L93.5 17.65 M74.8 19.6 L74.4 19.45 Q74.0 19.2 74.0 17.9 74.0 16.85 73.5 16.2 73.05 15.55 72.35 15.55 70.7 15.55 69.5 17.75 68.25 20.0 68.25 23.0 68.25 27.7 70.85 27.7 73.5 27.7 74.1 22.2 74.3 20.0 74.8 19.6 M172.7 32.45 Q171.35 32.45 170.5 31.8 169.7 31.1 169.7 30.0 169.7 28.65 171.1 27.6 172.55 26.55 174.4 26.55 175.75 26.55 176.6 27.2 177.4 27.85 177.4 28.95 177.4 30.45 176.05 31.45 174.7 32.45 172.7 32.45 M144.0 17.0 Q144.0 15.1 142.4 15.1 141.35 15.1 140.55 16.35 139.8 17.6 139.8 19.35 L140.0 21.0 Q144.0 19.9 144.0 17.0" fill="#86111a" fill-rule="evenodd" stroke="none"/>
    <path d="M159.2 9.15 Q162.25 9.15 164.3 10.2 166.3 11.2 166.3 12.8 166.3 13.55 165.35 14.65 L164.55 15.55 Q163.9 14.35 162.4 13.6 160.95 12.8 159.5 12.8 157.25 12.8 157.25 14.4 L157.5 15.1 Q158.0 15.8 162.0 18.3 164.25 19.7 165.25 20.95 166.5 22.5 166.5 24.55 166.5 27.4 164.5 29.1 162.5 30.85 159.2 30.85 155.5 30.85 152.15 28.7 L150.65 27.8 150.55 27.75 150.65 27.65 151.9 26.2 Q152.8 25.2 153.85 25.2 L154.75 25.4 156.05 26.05 Q157.35 26.65 158.75 26.65 159.65 26.65 160.25 26.15 160.85 25.6 160.85 24.8 160.85 23.9 159.9 23.1 L158.2 21.95 155.35 20.1 Q151.75 17.8 151.75 14.7 151.75 12.3 153.85 10.7 155.95 9.15 159.2 9.15" fill="url(#gradient0)" fill-rule="evenodd" stroke="none"/>
    <path d="M146.65 10.3 Q148.2 11.95 148.2 14.45 148.2 17.05 146.05 19.25 143.95 21.45 140.55 22.4 141.15 26.25 144.2 26.25 145.55 26.25 147.0 25.45 148.45 24.6 149.35 23.35 149.7 24.0 149.7 24.95 149.7 27.1 147.7 28.75 145.65 30.4 142.95 30.4 139.35 30.4 137.05 27.4 134.75 24.45 134.75 19.8 134.75 15.15 137.1 11.9 139.4 8.65 142.7 8.65 145.05 8.65 146.65 10.3 M144.0 15.0 Q144.0 13.1 142.4 13.1 141.35 13.1 140.55 14.35 139.8 15.6 139.8 17.35 L140.0 19.0 Q144.0 17.9 144.0 15.0" fill="url(#gradient1)" fill-rule="evenodd" stroke="none"/>
    <path d="M126.0 10.9 Q129.95 10.9 129.95 16.4 L129.85 19.85 129.85 22.3 129.95 24.6 Q130.2 26.35 131.75 26.35 133.05 26.35 133.95 25.35 L134.0 25.65 Q134.0 27.55 132.6 28.9 131.15 30.25 129.1 30.25 124.4 30.25 124.4 23.25 L124.65 17.8 Q124.65 16.45 123.85 16.45 123.15 16.45 122.25 17.55 121.0 19.15 120.45 21.2 L119.95 23.85 119.75 25.95 119.8 27.1 Q119.8 28.15 119.1 28.55 L117.6 29.25 115.65 29.8 Q114.5 29.8 114.5 28.4 L114.65 26.05 115.0 19.85 Q115.0 17.25 114.0 17.25 113.15 17.25 112.15 18.75 109.3 22.8 109.3 26.45 L109.4 27.2 109.45 27.95 108.9 29.0 Q107.55 30.4 106.35 30.4 105.3 30.4 104.65 29.2 103.95 27.95 103.95 26.15 L104.1 23.1 104.25 18.25 Q104.25 14.45 103.9 12.45 L103.4 10.95 103.6 10.9 105.35 9.7 Q106.9 8.55 108.25 8.55 109.7 8.55 109.7 10.35 L109.5 12.85 Q109.2 15.45 109.2 16.95 L109.2 17.15 Q112.5 11.55 116.0 11.55 118.65 11.55 119.45 15.6 L119.5 15.85 Q120.2 14.4 122.15 12.4 123.65 10.9 126.0 10.9" fill="url(#gradient2)" fill-rule="evenodd" stroke="none"/>
    <path d="M190.65 9.65 Q192.1 9.65 193.1 10.7 194.1 11.75 194.1 13.3 194.1 14.35 193.35 15.25 192.55 16.2 191.4 16.55 191.3 15.8 190.75 15.3 190.15 14.75 189.35 14.75 188.05 14.75 186.9 16.65 184.85 20.1 184.85 23.15 184.85 24.7 185.25 26.15 185.65 27.6 186.25 27.9 184.85 30.25 182.55 30.25 179.55 30.25 179.55 26.15 L179.85 20.95 180.0 17.7 Q180.0 12.7 179.2 11.2 L180.6 10.2 Q182.6 8.7 184.0 8.7 185.3 8.7 185.3 10.15 L185.15 13.35 Q186.25 11.75 187.8 10.7 189.35 9.65 190.65 9.65" fill="url(#gradient3)" fill-rule="evenodd" stroke="none"/>
    <path d="M195.85 11.95 Q195.85 11.6 197.0 11.1 L198.85 9.9 Q199.9 9.1 200.7 9.1 202.15 9.1 202.15 11.1 L201.9 13.6 201.6 16.65 201.5 17.6 201.3 21.6 Q201.3 25.15 202.95 25.15 204.4 25.15 205.5 22.3 206.6 19.45 206.6 15.75 L206.55 14.25 206.45 13.2 206.3 12.85 Q206.3 12.8 206.55 12.7 L206.85 12.55 209.0 11.3 Q210.3 10.45 211.45 10.45 212.65 10.45 212.65 11.65 L212.25 14.1 Q211.45 18.3 211.45 21.75 211.45 25.8 213.3 25.8 L214.35 25.55 214.45 26.45 Q214.45 28.0 213.55 29.0 212.6 30.0 211.15 30.0 208.45 30.0 207.2 26.45 204.5 30.1 201.35 30.1 199.0 30.1 197.6 28.45 196.15 26.8 196.15 24.15 L196.3 21.15 196.55 16.4 Q196.55 14.0 195.95 12.1 L195.85 11.95" fill="url(#gradient4)" fill-rule="evenodd" stroke="none"/>
    <path d="M12.05 4.15 Q9.1 4.15 7.3 7.25 5.5 10.35 5.5 15.3 5.5 19.9 6.95 22.9 8.8 26.75 12.05 26.75 14.95 26.75 16.7 23.65 18.5 20.5 18.5 15.45 18.5 10.4 16.7 7.3 14.95 4.15 12.05 4.15 M3.8 3.45 Q3.8 3.1 4.15 2.6 4.95 1.6 7.3 0.8 9.65 0.0 11.85 0.0 17.05 0.0 20.35 3.95 23.7 7.9 23.7 14.15 23.7 21.5 20.35 26.0 17.0 30.55 11.5 30.55 6.6 30.55 3.3 26.3 0.0 22.0 0.0 15.7 0.0 11.3 1.1 8.25 2.2 5.1 4.1 4.15 3.8 3.8 3.8 3.45" fill="url(#gradient5)" fill-rule="evenodd" stroke="none"/>
    <path d="M27.2 11.95 Q27.2 11.6 28.35 11.1 L30.2 9.9 Q31.25 9.1 32.05 9.1 33.5 9.1 33.5 11.1 L33.25 13.6 32.95 16.65 32.85 17.6 32.65 21.6 Q32.65 25.15 34.3 25.15 35.75 25.15 36.85 22.3 37.95 19.45 37.95 15.75 L37.9 14.25 37.8 13.2 37.65 12.85 37.9 12.7 38.2 12.55 40.35 11.3 Q41.65 10.45 42.8 10.45 44.0 10.45 44.0 11.65 L43.6 14.1 Q42.8 18.3 42.8 21.75 42.8 25.8 44.65 25.8 L45.7 25.55 45.8 26.45 Q45.8 28.0 44.9 29.0 43.95 30.0 42.5 30.0 39.8 30.0 38.55 26.45 35.85 30.1 32.7 30.1 30.35 30.1 28.95 28.45 27.5 26.8 27.5 24.15 L27.65 21.15 27.9 16.4 Q27.9 14.0 27.3 12.1 L27.2 11.95" fill="url(#gradient6)" fill-rule="evenodd" stroke="none"/>
    <path d="M52.75 8.7 Q54.05 8.7 54.05 10.15 L53.9 13.35 Q55.0 11.75 56.55 10.7 58.1 9.65 59.4 9.65 60.85 9.65 61.85 10.7 62.85 11.75 62.85 13.3 62.85 14.35 62.1 15.25 61.3 16.2 60.15 16.55 60.05 15.8 59.5 15.3 58.9 14.75 58.1 14.75 56.8 14.75 55.65 16.65 53.6 20.1 53.6 23.15 53.6 24.7 54.0 26.15 54.4 27.6 55.0 27.9 53.6 30.25 51.3 30.25 48.3 30.25 48.3 26.15 L48.6 20.95 48.75 17.7 Q48.75 12.7 47.95 11.2 L49.35 10.2 Q51.35 8.7 52.75 8.7" fill="url(#gradient7)" fill-rule="evenodd" stroke="none"/>
    <path d="M72.6 8.9 Q74.5 8.9 75.7 9.9 76.7 10.7 77.55 12.35 78.35 13.95 78.35 15.15 L78.0 16.5 78.15 16.45 78.95 16.4 Q79.8 16.4 79.8 17.2 L79.35 19.05 79.0 20.85 Q78.75 23.05 78.75 25.85 L78.75 26.45 78.75 28.4 78.8 29.85 78.8 31.1 78.65 34.75 Q78.35 36.8 77.3 38.1 75.85 39.95 72.75 39.95 69.45 39.95 67.45 37.65 L66.5 36.5 66.2 36.3 67.85 35.3 Q68.75 34.8 69.4 34.8 L71.05 35.2 72.1 35.4 Q74.1 35.4 74.1 31.35 L74.1 30.15 74.1 28.75 74.1 28.3 Q72.0 30.15 69.5 30.15 66.9 30.15 65.15 27.65 63.4 25.1 63.4 21.35 63.4 16.35 66.2 12.65 68.95 8.9 72.6 8.9 M74.8 17.6 L74.4 17.45 Q74.0 17.2 74.0 15.9 74.0 14.85 73.5 14.2 73.05 13.55 72.35 13.55 70.7 13.55 69.5 15.75 68.25 18.0 68.25 21.0 68.25 25.7 70.85 25.7 73.5 25.7 74.1 20.2 74.3 18.0 74.8 17.6" fill="url(#gradient8)" fill-rule="evenodd" stroke="none"/>
    <path d="M97.25 12.65 Q97.95 14.5 97.95 15.35 97.95 15.95 97.55 16.45 L98.35 16.35 Q99.3 16.35 99.3 17.0 L99.2 17.8 98.85 19.15 Q98.45 20.7 98.45 22.55 98.45 26.1 100.6 26.1 101.55 26.1 102.1 25.35 L102.3 26.3 Q102.3 27.95 101.3 29.1 100.25 30.2 98.75 30.2 95.75 30.2 94.8 26.75 93.0 30.1 89.65 30.1 86.9 30.1 85.05 27.5 83.15 24.9 83.15 21.1 83.15 16.45 85.95 12.85 88.75 9.15 92.3 9.15 95.95 9.15 97.25 12.65 M93.5 15.65 Q93.5 14.7 93.0 14.05 92.45 13.35 91.7 13.35 90.2 13.35 89.05 15.7 87.9 18.0 87.9 21.0 87.9 23.2 88.6 24.5 89.3 25.75 90.5 25.75 92.85 25.75 93.65 20.35 L94.0 18.25 94.35 17.6 Q93.5 17.45 93.5 16.6 L93.5 15.65" fill="url(#gradient9)" fill-rule="evenodd" stroke="none"/>
    <path d="M176.6 25.2 Q177.4 25.85 177.4 26.95 177.4 28.45 176.05 29.45 174.7 30.45 172.7 30.45 171.35 30.45 170.5 29.8 169.7 29.1 169.7 28.0 169.7 26.65 171.1 25.6 172.55 24.55 174.4 24.55 175.75 24.55 176.6 25.2" fill="url(#gradient10)" fill-rule="evenodd" stroke="none"/>
  </g>
  <defs>
    <linearGradient gradientTransform="matrix(0.0, 0.0097, -0.0132, 0.0, 158.5, 20.0)" gradientUnits="userSpaceOnUse" id="gradient0" spreadMethod="pad" x1="-819.2" x2="819.2">
      <stop offset="0.34901960784313724" stop-color="#ffffff"/>
      <stop offset="0.5725490196078431" stop-color="#d8e4e4"/>
    </linearGradient>
    <linearGradient gradientTransform="matrix(0.0, 0.0091, -0.0133, 0.0, 142.25, 19.55)" gradientUnits="userSpaceOnUse" id="gradient1" spreadMethod="pad" x1="-819.2" x2="819.2">
      <stop offset="0.34901960784313724" stop-color="#ffffff"/>
      <stop offset="0.5725490196078431" stop-color="#d8e4e4"/>
    </linearGradient>
    <linearGradient gradientTransform="matrix(0.0, 0.0187, -0.0133, 0.0, 118.75, 19.5)" gradientUnits="userSpaceOnUse" id="gradient2" spreadMethod="pad" x1="-819.2" x2="819.2">
      <stop offset="0.34901960784313724" stop-color="#ffffff"/>
      <stop offset="0.5725490196078431" stop-color="#d8e4e4"/>
    </linearGradient>
    <linearGradient gradientTransform="matrix(0.0, 0.0091, -0.0132, 0.0, 186.65, 19.45)" gradientUnits="userSpaceOnUse" id="gradient3" spreadMethod="pad" x1="-819.2" x2="819.2">
      <stop offset="0.34901960784313724" stop-color="#ffffff"/>
      <stop offset="0.5725490196078431" stop-color="#d8e4e4"/>
    </linearGradient>
    <linearGradient gradientTransform="matrix(0.0, 0.0114, -0.0128, 0.0, 205.15, 19.6)" gradientUnits="userSpaceOnUse" id="gradient4" spreadMethod="pad" x1="-819.2" x2="819.2">
      <stop offset="0.34901960784313724" stop-color="#ffffff"/>
      <stop offset="0.5725490196078431" stop-color="#d8e4e4"/>
    </linearGradient>
    <linearGradient gradientTransform="matrix(0.0, 0.0145, -0.0186, 0.0, 11.9, 15.3)" gradientUnits="userSpaceOnUse" id="gradient5" spreadMethod="pad" x1="-819.2" x2="819.2">
      <stop offset="0.34901960784313724" stop-color="#ffffff"/>
      <stop offset="0.5725490196078431" stop-color="#d8e4e4"/>
    </linearGradient>
    <linearGradient gradientTransform="matrix(0.0, 0.0114, -0.0128, 0.0, 36.5, 19.6)" gradientUnits="userSpaceOnUse" id="gradient6" spreadMethod="pad" x1="-819.2" x2="819.2">
      <stop offset="0.34901960784313724" stop-color="#ffffff"/>
      <stop offset="0.5725490196078431" stop-color="#d8e4e4"/>
    </linearGradient>
    <linearGradient gradientTransform="matrix(0.0, 0.0091, -0.0132, 0.0, 55.4, 19.45)" gradientUnits="userSpaceOnUse" id="gradient7" spreadMethod="pad" x1="-819.2" x2="819.2">
      <stop offset="0.34901960784313724" stop-color="#ffffff"/>
      <stop offset="0.5725490196078431" stop-color="#d8e4e4"/>
    </linearGradient>
    <linearGradient gradientTransform="matrix(0.0, 0.01, -0.019, 0.0, 71.6, 24.4)" gradientUnits="userSpaceOnUse" id="gradient8" spreadMethod="pad" x1="-819.2" x2="819.2">
      <stop offset="0.34901960784313724" stop-color="#ffffff"/>
      <stop offset="0.5725490196078431" stop-color="#d8e4e4"/>
    </linearGradient>
    <linearGradient gradientTransform="matrix(0.0, 0.0117, -0.0128, 0.0, 92.7, 19.95)" gradientUnits="userSpaceOnUse" id="gradient9" spreadMethod="pad" x1="-819.2" x2="819.2">
      <stop offset="0.34901960784313724" stop-color="#ffffff"/>
      <stop offset="0.5725490196078431" stop-color="#d8e4e4"/>
    </linearGradient>
    <linearGradient gradientTransform="matrix(0.0, 0.0047, -0.0036, 0.0, 173.55, 27.5)" gradientUnits="userSpaceOnUse" id="gradient10" spreadMethod="pad" x1="-819.2" x2="819.2">
      <stop offset="0.34901960784313724" stop-color="#ffffff"/>
      <stop offset="0.5725490196078431" stop-color="#d8e4e4"/>
    </linearGradient>
  </defs>
</svg>
