<?xml version="1.0" encoding="UTF-8" standalone="no"?>
<svg xmlns:ffdec="https://www.free-decompiler.com/flash" xmlns:xlink="http://www.w3.org/1999/xlink" ffdec:objectType="shape" height="33.0px" width="210.7px" xmlns="http://www.w3.org/2000/svg">
  <g transform="matrix(1.0, 0.0, 0.0, 1.0, 0.0, 0.0)">
    <path d="M169.5 14.1 Q169.5 13.75 170.65 13.25 L172.5 12.05 Q173.55 11.25 174.35 11.25 175.8 11.25 175.8 13.25 L175.55 15.75 175.25 18.8 175.15 19.75 174.95 23.75 Q174.95 27.3 176.6 27.3 178.05 27.3 179.15 24.45 180.25 21.6 180.25 17.9 L180.2 16.4 180.1 15.35 179.95 15.0 180.2 14.85 180.5 14.7 182.65 13.45 Q183.95 12.6 185.1 12.6 186.3 12.6 186.3 13.8 L185.9 16.25 Q185.1 20.45 185.1 23.9 185.1 27.95 186.95 27.95 L188.0 27.7 188.1 28.6 Q188.1 30.15 187.2 31.15 186.25 32.15 184.8 32.15 182.1 32.15 180.85 28.6 178.15 32.25 175.0 32.25 172.65 32.25 171.25 30.6 169.8 28.95 169.8 26.3 L169.95 23.3 170.2 18.55 Q170.2 16.15 169.6 14.25 L169.5 14.1 M146.2 17.3 Q145.3 18.8 145.3 21.35 145.3 24.55 146.4 26.5 147.55 28.45 149.3 28.45 152.6 28.45 152.6 22.95 152.6 19.9 151.45 17.85 150.3 15.75 148.65 15.75 147.1 15.75 146.2 17.3 M145.45 11.7 Q147.1 11.05 148.55 11.05 152.45 11.05 155.0 14.2 157.55 17.3 157.55 22.1 157.55 26.9 155.2 29.8 152.8 32.7 148.85 32.7 144.95 32.7 142.45 29.8 139.9 26.85 139.9 22.3 139.9 19.75 140.95 17.4 142.0 15.05 143.5 14.3 L143.1 13.2 Q143.85 12.35 145.45 11.7 M160.0 30.15 Q160.0 28.8 161.4 27.75 162.85 26.7 164.7 26.7 166.05 26.7 166.9 27.35 167.7 28.0 167.7 29.1 167.7 30.6 166.35 31.6 165.0 32.6 163.0 32.6 161.65 32.6 160.8 31.95 160.0 31.25 160.0 30.15 M205.8 16.65 Q203.3 19.35 200.85 20.8 202.95 21.65 204.95 24.8 L206.15 26.65 Q207.4 28.6 208.7 28.6 209.75 28.6 210.4 27.9 L210.4 30.5 209.55 31.65 Q208.4 32.7 206.6 32.7 203.9 32.7 201.75 29.35 L199.6 26.15 Q198.55 24.5 197.4 23.55 L195.3 24.85 195.3 24.95 195.6 27.15 Q196.0 29.35 196.85 30.2 195.65 32.55 193.0 32.55 191.35 32.55 190.75 30.2 L190.4 28.3 Q190.1 25.35 190.1 21.25 190.1 18.8 190.4 14.6 L190.65 9.7 190.65 6.75 Q190.65 5.25 190.25 4.7 L190.35 4.65 192.55 3.2 Q194.15 2.0 195.3 2.0 196.95 2.0 196.95 3.9 L196.65 6.2 Q195.05 14.4 195.05 18.6 195.05 19.85 195.2 20.65 L195.35 20.55 Q198.55 18.5 200.5 16.35 202.45 14.2 202.45 12.8 L202.45 12.5 202.65 12.5 204.7 12.0 206.0 11.8 Q207.5 11.8 207.5 13.2 207.5 14.85 205.8 16.65 M18.9 3.3 Q21.0 4.6 21.0 6.45 21.0 9.2 18.5 10.2 17.9 8.85 16.3 7.85 14.75 6.9 13.05 6.9 9.85 6.9 8.0 9.65 6.1 12.45 6.1 17.1 6.1 21.9 8.2 25.1 10.25 28.3 13.4 28.3 14.8 28.3 15.6 27.6 16.4 26.85 16.4 24.2 L16.3 22.8 16.3 22.55 Q13.7 22.7 12.55 23.55 L12.55 23.2 Q12.55 20.0 13.75 18.95 14.95 17.9 18.65 17.8 L22.05 17.5 Q23.1 17.3 24.4 16.55 L24.65 18.7 24.45 20.3 Q23.9 21.9 21.9 22.1 L21.9 24.15 22.1 27.9 22.15 28.65 Q22.15 29.65 21.5 29.95 L18.55 31.5 Q16.25 32.85 12.85 32.85 7.1 32.85 3.55 28.6 0.0 24.35 0.0 17.5 0.0 10.65 4.25 6.1 8.05 2.0 13.8 2.0 16.85 2.0 18.9 3.3 M47.15 13.1 L47.35 13.05 49.1 11.85 Q50.65 10.7 52.0 10.7 53.45 10.7 53.45 12.5 L53.25 15.0 Q52.95 17.6 52.95 19.1 L52.95 19.3 Q56.25 13.7 59.75 13.7 62.4 13.7 63.2 17.75 L63.25 18.0 Q63.95 16.55 65.9 14.55 67.4 13.05 69.75 13.05 73.7 13.05 73.7 18.55 L73.6 22.0 73.6 24.45 73.7 26.75 Q73.95 28.5 75.5 28.5 76.8 28.5 77.7 27.5 L77.75 27.8 Q77.75 29.7 76.35 31.05 74.9 32.4 72.85 32.4 68.15 32.4 68.15 25.4 L68.4 19.95 Q68.4 18.6 67.6 18.6 66.9 18.6 66.0 19.7 64.75 21.3 64.2 23.35 L63.7 26.0 63.5 28.1 63.55 29.25 Q63.55 30.3 62.85 30.7 L61.35 31.4 59.4 31.95 Q58.25 31.95 58.25 30.55 L58.4 28.2 58.75 22.0 Q58.75 19.4 57.75 19.4 56.9 19.4 55.9 20.9 53.05 24.95 53.05 28.6 L53.15 29.35 53.2 30.1 52.65 31.15 Q51.3 32.55 50.1 32.55 49.05 32.55 48.4 31.35 47.7 30.1 47.7 28.3 L47.85 25.25 48.0 20.4 Q48.0 16.6 47.65 14.6 L47.15 13.1 M36.05 11.3 Q39.7 11.3 41.0 14.8 41.7 16.65 41.7 17.5 41.7 18.1 41.3 18.6 L42.1 18.5 Q43.05 18.5 43.05 19.15 L42.95 19.95 42.6 21.3 Q42.2 22.85 42.2 24.7 42.2 28.25 44.35 28.25 45.3 28.25 45.85 27.5 L46.05 28.45 Q46.05 30.1 45.05 31.25 44.0 32.35 42.5 32.35 39.5 32.35 38.55 28.9 36.75 32.25 33.4 32.25 30.65 32.25 28.8 29.65 26.9 27.05 26.9 23.25 26.9 18.6 29.7 15.0 32.5 11.3 36.05 11.3 M35.45 15.5 Q33.95 15.5 32.8 17.85 31.65 20.15 31.65 23.15 31.65 25.35 32.35 26.65 33.05 27.9 34.25 27.9 36.6 27.9 37.4 22.5 L37.75 20.4 Q37.85 20.0 38.1 19.75 37.25 19.6 37.25 18.75 L37.25 17.8 Q37.25 16.85 36.75 16.2 36.2 15.5 35.45 15.5 M97.6 12.85 Q99.7 11.3 102.95 11.3 106.0 11.3 108.05 12.35 110.05 13.35 110.05 14.95 110.05 15.7 109.1 16.8 L108.3 17.7 Q107.65 16.5 106.15 15.75 104.7 14.95 103.25 14.95 101.0 14.95 101.0 16.55 L101.25 17.25 Q101.75 17.95 105.75 20.45 108.0 21.85 109.0 23.1 110.25 24.65 110.25 26.7 110.25 29.55 108.25 31.25 106.25 33.0 102.95 33.0 99.25 33.0 95.9 30.85 L94.4 29.95 94.3 29.9 94.4 29.8 95.65 28.35 Q96.55 27.35 97.6 27.35 L98.5 27.55 99.8 28.2 Q101.1 28.8 102.5 28.8 103.4 28.8 104.0 28.3 104.6 27.75 104.6 26.95 104.6 26.05 103.65 25.25 L101.95 24.1 99.1 22.25 Q95.5 19.95 95.5 16.85 95.5 14.45 97.6 12.85 M86.15 15.25 Q85.1 15.25 84.3 16.5 83.55 17.75 83.55 19.5 L83.75 21.15 Q87.75 20.05 87.75 17.15 87.75 15.25 86.15 15.25 M91.95 16.6 Q91.95 19.2 89.8 21.4 87.7 23.6 84.3 24.55 84.9 28.4 87.95 28.4 89.3 28.4 90.75 27.6 92.2 26.75 93.1 25.5 93.45 26.15 93.45 27.1 93.45 29.25 91.45 30.9 89.4 32.55 86.7 32.55 83.1 32.55 80.8 29.55 78.5 26.6 78.5 21.95 78.5 17.3 80.85 14.05 83.15 10.8 86.45 10.8 88.8 10.8 90.4 12.45 91.95 14.1 91.95 16.6 M135.75 12.35 Q137.3 13.75 137.3 15.75 137.3 17.2 136.55 18.15 135.7 19.1 134.5 19.1 L133.65 18.95 133.7 18.6 Q133.7 17.45 133.05 16.65 132.3 15.8 131.4 15.8 129.85 15.8 128.8 17.7 127.8 19.55 127.8 22.3 127.8 25.15 128.9 26.8 130.0 28.4 131.9 28.4 133.5 28.4 135.1 27.45 136.7 26.45 137.35 25.05 138.05 25.7 138.05 26.8 138.05 29.3 136.05 30.95 134.0 32.65 131.05 32.65 127.1 32.65 124.9 30.0 122.65 27.4 122.65 22.8 122.65 17.8 125.3 14.4 127.95 11.0 131.8 11.0 134.15 11.0 135.75 12.35 M121.15 29.1 Q121.15 30.6 119.8 31.6 118.45 32.6 116.45 32.6 115.1 32.6 114.25 31.95 113.45 31.25 113.45 30.15 113.45 28.8 114.85 27.75 116.3 26.7 118.15 26.7 119.5 26.7 120.35 27.35 121.15 28.0 121.15 29.1" fill="#86111a" fill-rule="evenodd" stroke="none"/>
    <path d="M170.65 11.25 L172.5 10.05 Q173.55 9.25 174.35 9.25 175.8 9.25 175.8 11.25 L175.55 13.75 175.25 16.8 175.15 17.75 174.95 21.75 Q174.95 25.3 176.6 25.3 178.05 25.3 179.15 22.45 180.25 19.6 180.25 15.9 L180.2 14.4 180.1 13.35 179.95 13.0 180.2 12.85 180.5 12.7 182.65 11.45 Q183.95 10.6 185.1 10.6 186.3 10.6 186.3 11.8 L185.9 14.25 Q185.1 18.45 185.1 21.9 185.1 25.95 186.95 25.95 L188.0 25.7 188.1 26.6 Q188.1 28.15 187.2 29.15 186.25 30.15 184.8 30.15 182.1 30.15 180.85 26.6 178.15 30.25 175.0 30.25 172.65 30.25 171.25 28.6 169.8 26.95 169.8 24.3 L169.95 21.3 170.2 16.55 Q170.2 14.15 169.6 12.25 L169.5 12.1 Q169.5 11.75 170.65 11.25" fill="url(#gradient0)" fill-rule="evenodd" stroke="none"/>
    <path d="M148.65 13.75 Q147.1 13.75 146.2 15.3 145.3 16.8 145.3 19.35 145.3 22.55 146.4 24.5 147.55 26.45 149.3 26.45 152.6 26.45 152.6 20.95 152.6 17.9 151.45 15.85 150.3 13.75 148.65 13.75 M155.0 12.2 Q157.55 15.3 157.55 20.1 157.55 24.9 155.2 27.8 152.8 30.7 148.85 30.7 144.95 30.7 142.45 27.8 139.9 24.85 139.9 20.3 139.9 17.75 140.95 15.4 142.0 13.05 143.5 12.3 L143.1 11.2 Q143.85 10.35 145.45 9.7 147.1 9.05 148.55 9.05 152.45 9.05 155.0 12.2" fill="url(#gradient1)" fill-rule="evenodd" stroke="none"/>
    <path d="M161.4 25.75 Q162.85 24.7 164.7 24.7 166.05 24.7 166.9 25.35 167.7 26.0 167.7 27.1 167.7 28.6 166.35 29.6 165.0 30.6 163.0 30.6 161.65 30.6 160.8 29.95 160.0 29.25 160.0 28.15 160.0 26.8 161.4 25.75" fill="url(#gradient2)" fill-rule="evenodd" stroke="none"/>
    <path d="M202.45 10.5 L202.65 10.5 204.7 10.0 206.0 9.8 Q207.5 9.8 207.5 11.2 207.5 12.85 205.8 14.65 203.3 17.35 200.85 18.8 202.95 19.65 204.95 22.8 L206.15 24.65 Q207.4 26.6 208.7 26.6 209.75 26.6 210.4 25.9 L210.5 25.75 210.7 27.05 210.4 28.5 209.55 29.65 Q208.4 30.7 206.6 30.7 203.9 30.7 201.75 27.35 L199.6 24.15 Q198.55 22.5 197.4 21.55 L195.3 22.85 195.3 22.95 195.6 25.15 Q196.0 27.35 196.85 28.2 195.65 30.55 193.0 30.55 191.35 30.55 190.75 28.2 L190.4 26.3 Q190.1 23.35 190.1 19.25 190.1 16.8 190.4 12.6 L190.65 7.7 190.65 4.75 Q190.65 3.25 190.25 2.7 L190.35 2.65 192.55 1.2 Q194.15 0.0 195.3 0.0 196.95 0.0 196.95 1.9 L196.65 4.2 Q195.05 12.4 195.05 16.6 195.05 17.85 195.2 18.65 L195.35 18.55 Q198.55 16.5 200.5 14.35 202.45 12.2 202.45 10.8 L202.45 10.5" fill="url(#gradient3)" fill-rule="evenodd" stroke="none"/>
    <path d="M18.65 15.8 L22.05 15.5 Q23.1 15.3 24.4 14.55 L24.65 16.7 24.45 18.3 Q23.9 19.9 21.9 20.1 L21.9 22.15 22.1 25.9 22.15 26.65 Q22.15 27.65 21.5 27.95 L18.55 29.5 Q16.25 30.85 12.85 30.85 7.1 30.85 3.55 26.6 0.0 22.35 0.0 15.5 0.0 8.65 4.25 4.1 8.05 0.0 13.8 0.0 16.85 0.0 18.9 1.3 21.0 2.6 21.0 4.45 21.0 7.2 18.5 8.2 17.9 6.85 16.3 5.85 14.75 4.9 13.05 4.9 9.85 4.9 8.0 7.65 6.1 10.45 6.1 15.1 6.1 19.9 8.2 23.1 10.25 26.3 13.4 26.3 14.8 26.3 15.6 25.6 16.4 24.85 16.4 22.2 L16.3 20.8 16.3 20.55 Q13.7 20.7 12.55 21.55 L12.55 21.2 Q12.55 18.0 13.75 16.95 14.95 15.9 18.65 15.8" fill="url(#gradient4)" fill-rule="evenodd" stroke="none"/>
    <path d="M47.15 11.1 L47.35 11.05 49.1 9.85 Q50.65 8.7 52.0 8.7 53.45 8.7 53.45 10.5 L53.25 13.0 Q52.95 15.6 52.95 17.1 L52.95 17.3 Q56.25 11.7 59.75 11.7 62.4 11.7 63.2 15.75 L63.25 16.0 Q63.95 14.55 65.9 12.55 67.4 11.05 69.75 11.05 73.7 11.05 73.7 16.55 L73.6 20.0 73.6 22.45 73.7 24.75 Q73.95 26.5 75.5 26.5 76.8 26.5 77.7 25.5 L77.75 25.8 Q77.75 27.7 76.35 29.05 74.9 30.4 72.85 30.4 68.15 30.4 68.15 23.4 L68.4 17.95 Q68.4 16.6 67.6 16.6 66.9 16.6 66.0 17.7 64.75 19.3 64.2 21.35 L63.7 24.0 63.5 26.1 63.55 27.25 Q63.55 28.3 62.85 28.7 L61.35 29.4 59.4 29.95 Q58.25 29.95 58.25 28.55 L58.4 26.2 58.75 20.0 Q58.75 17.4 57.75 17.4 56.9 17.4 55.9 18.9 53.05 22.95 53.05 26.6 L53.15 27.35 53.2 28.1 52.65 29.15 Q51.3 30.55 50.1 30.55 49.05 30.55 48.4 29.35 47.7 28.1 47.7 26.3 L47.85 23.25 48.0 18.4 Q48.0 14.6 47.65 12.6 L47.15 11.1" fill="url(#gradient5)" fill-rule="evenodd" stroke="none"/>
    <path d="M43.05 17.15 L42.95 17.95 42.6 19.3 Q42.2 20.85 42.2 22.7 42.2 26.25 44.35 26.25 45.3 26.25 45.85 25.5 L46.05 26.45 Q46.05 28.1 45.05 29.25 44.0 30.35 42.5 30.35 39.5 30.35 38.55 26.9 36.75 30.25 33.4 30.25 30.65 30.25 28.8 27.65 26.9 25.05 26.9 21.25 26.9 16.6 29.7 13.0 32.5 9.3 36.05 9.3 39.7 9.3 41.0 12.8 41.7 14.65 41.7 15.5 41.7 16.1 41.3 16.6 L42.1 16.5 Q43.05 16.5 43.05 17.15 M37.25 15.8 Q37.25 14.85 36.75 14.2 36.2 13.5 35.45 13.5 33.95 13.5 32.8 15.85 31.65 18.15 31.65 21.15 31.65 23.35 32.35 24.65 33.05 25.9 34.25 25.9 36.6 25.9 37.4 20.5 L37.75 18.4 Q37.85 18.0 38.1 17.75 37.25 17.6 37.25 16.75 L37.25 15.8" fill="url(#gradient6)" fill-rule="evenodd" stroke="none"/>
    <path d="M86.15 13.25 Q85.1 13.25 84.3 14.5 83.55 15.75 83.55 17.5 L83.75 19.15 Q87.75 18.05 87.75 15.15 87.75 13.25 86.15 13.25 M91.95 14.6 Q91.95 17.2 89.8 19.4 87.7 21.6 84.3 22.55 84.9 26.4 87.95 26.4 89.3 26.4 90.75 25.6 92.2 24.75 93.1 23.5 93.45 24.15 93.45 25.1 93.45 27.25 91.45 28.9 89.4 30.55 86.7 30.55 83.1 30.55 80.8 27.55 78.5 24.6 78.5 19.95 78.5 15.3 80.85 12.05 83.15 8.8 86.45 8.8 88.8 8.8 90.4 10.45 91.95 12.1 91.95 14.6" fill="url(#gradient7)" fill-rule="evenodd" stroke="none"/>
    <path d="M97.6 10.85 Q99.7 9.3 102.95 9.3 106.0 9.3 108.05 10.35 110.05 11.35 110.05 12.95 110.05 13.7 109.1 14.8 L108.3 15.7 Q107.65 14.5 106.15 13.75 104.7 12.95 103.25 12.95 101.0 12.95 101.0 14.55 L101.25 15.25 Q101.75 15.95 105.75 18.45 108.0 19.85 109.0 21.1 110.25 22.65 110.25 24.7 110.25 27.55 108.25 29.25 106.25 31.0 102.95 31.0 99.25 31.0 95.9 28.85 L94.4 27.95 94.3 27.9 94.4 27.8 95.65 26.35 Q96.55 25.35 97.6 25.35 L98.5 25.55 99.8 26.2 Q101.1 26.8 102.5 26.8 103.4 26.8 104.0 26.3 104.6 25.75 104.6 24.95 104.6 24.05 103.65 23.25 L101.95 22.1 99.1 20.25 Q95.5 17.95 95.5 14.85 95.5 12.45 97.6 10.85" fill="url(#gradient8)" fill-rule="evenodd" stroke="none"/>
    <path d="M128.8 15.7 Q127.8 17.55 127.8 20.3 127.8 23.15 128.9 24.8 130.0 26.4 131.9 26.4 133.5 26.4 135.1 25.45 136.7 24.45 137.35 23.05 138.05 23.7 138.05 24.8 138.05 27.3 136.05 28.95 134.0 30.65 131.05 30.65 127.1 30.65 124.9 28.0 122.65 25.4 122.65 20.8 122.65 15.8 125.3 12.4 127.95 9.0 131.8 9.0 134.15 9.0 135.75 10.35 137.3 11.75 137.3 13.75 137.3 15.2 136.55 16.15 135.7 17.1 134.5 17.1 L133.65 16.95 133.7 16.6 Q133.7 15.45 133.05 14.65 132.3 13.8 131.4 13.8 129.85 13.8 128.8 15.7" fill="url(#gradient9)" fill-rule="evenodd" stroke="none"/>
    <path d="M119.8 29.6 Q118.45 30.6 116.45 30.6 115.1 30.6 114.25 29.95 113.45 29.25 113.45 28.15 113.45 26.8 114.85 25.75 116.3 24.7 118.15 24.7 119.5 24.7 120.35 25.35 121.15 26.0 121.15 27.1 121.15 28.6 119.8 29.6" fill="url(#gradient10)" fill-rule="evenodd" stroke="none"/>
  </g>
  <defs>
    <linearGradient gradientTransform="matrix(0.0, 0.0129, -0.0128, 0.0, 178.8, 19.75)" gradientUnits="userSpaceOnUse" id="gradient0" spreadMethod="pad" x1="-819.2" x2="819.2">
      <stop offset="0.5215686274509804" stop-color="#ffffff"/>
      <stop offset="1.0" stop-color="#d8e4e4"/>
    </linearGradient>
    <linearGradient gradientTransform="matrix(0.0, 0.0131, -0.0132, 0.0, 148.75, 19.9)" gradientUnits="userSpaceOnUse" id="gradient1" spreadMethod="pad" x1="-819.2" x2="819.2">
      <stop offset="0.5254901960784314" stop-color="#ffffff"/>
      <stop offset="1.0" stop-color="#d8e4e4"/>
    </linearGradient>
    <linearGradient gradientTransform="matrix(0.0, 0.0027, -0.0036, 0.0, 163.85, 27.65)" gradientUnits="userSpaceOnUse" id="gradient2" spreadMethod="pad" x1="-819.2" x2="819.2">
      <stop offset="0.0" stop-color="#ffffff"/>
      <stop offset="0.48627450980392156" stop-color="#d8e4e4"/>
    </linearGradient>
    <linearGradient gradientTransform="matrix(-1.0E-4, 0.0183, -0.0187, -1.0E-4, 200.4, 15.35)" gradientUnits="userSpaceOnUse" id="gradient3" spreadMethod="pad" x1="-819.2" x2="819.2">
      <stop offset="0.5411764705882353" stop-color="#ffffff"/>
      <stop offset="1.0" stop-color="#d8e4e4"/>
    </linearGradient>
    <linearGradient gradientTransform="matrix(0.0, 0.0188, -0.0188, 0.0, 12.35, 15.45)" gradientUnits="userSpaceOnUse" id="gradient4" spreadMethod="pad" x1="-819.2" x2="819.2">
      <stop offset="0.5215686274509804" stop-color="#ffffff"/>
      <stop offset="1.0" stop-color="#d8e4e4"/>
    </linearGradient>
    <linearGradient gradientTransform="matrix(0.0, 0.0131, -0.0133, 0.0, 62.45, 19.6)" gradientUnits="userSpaceOnUse" id="gradient5" spreadMethod="pad" x1="-819.2" x2="819.2">
      <stop offset="0.5176470588235295" stop-color="#ffffff"/>
      <stop offset="1.0" stop-color="#d8e4e4"/>
    </linearGradient>
    <linearGradient gradientTransform="matrix(0.0, 0.0128, -0.0128, 0.0, 36.5, 19.85)" gradientUnits="userSpaceOnUse" id="gradient6" spreadMethod="pad" x1="-819.2" x2="819.2">
      <stop offset="0.5176470588235295" stop-color="#ffffff"/>
      <stop offset="1.0" stop-color="#d8e4e4"/>
    </linearGradient>
    <linearGradient gradientTransform="matrix(0.0, 0.013, -0.0133, 0.0, 86.0, 19.7)" gradientUnits="userSpaceOnUse" id="gradient7" spreadMethod="pad" x1="-819.2" x2="819.2">
      <stop offset="0.5098039215686274" stop-color="#ffffff"/>
      <stop offset="1.0" stop-color="#d8e4e4"/>
    </linearGradient>
    <linearGradient gradientTransform="matrix(0.0, 0.0134, -0.0132, 0.0, 102.25, 20.15)" gradientUnits="userSpaceOnUse" id="gradient8" spreadMethod="pad" x1="-819.2" x2="819.2">
      <stop offset="0.5098039215686274" stop-color="#ffffff"/>
      <stop offset="1.0" stop-color="#d8e4e4"/>
    </linearGradient>
    <linearGradient gradientTransform="matrix(0.0, 0.0128, -0.0132, 0.0, 130.4, 19.85)" gradientUnits="userSpaceOnUse" id="gradient9" spreadMethod="pad" x1="-819.2" x2="819.2">
      <stop offset="0.5254901960784314" stop-color="#ffffff"/>
      <stop offset="1.0" stop-color="#d8e4e4"/>
    </linearGradient>
    <linearGradient gradientTransform="matrix(0.0, 0.0036, -0.0036, 0.0, 117.3, 27.65)" gradientUnits="userSpaceOnUse" id="gradient10" spreadMethod="pad" x1="-819.2" x2="819.2">
      <stop offset="0.0" stop-color="#ffffff"/>
      <stop offset="0.4470588235294118" stop-color="#d8e4e4"/>
    </linearGradient>
  </defs>
</svg>
