<?xml version="1.0" encoding="UTF-8" standalone="no"?>
<svg xmlns:ffdec="https://www.free-decompiler.com/flash" xmlns:xlink="http://www.w3.org/1999/xlink" ffdec:objectType="shape" height="48.9px" width="392.35px" xmlns="http://www.w3.org/2000/svg">
  <g transform="matrix(1.0, 0.0, 0.0, 1.0, 1.4, -0.9)">
    <path d="M15.2 26.35 Q15.95 27.15 17.25 27.65 L19.85 28.1 22.25 27.65 24.15 26.35 Q24.95 25.55 25.4 24.4 25.85 23.3 25.85 22.0 25.85 19.4 24.15 17.6 22.5 15.8 19.85 15.8 17.15 15.8 15.25 17.5 13.35 19.25 13.35 21.85 13.35 23.35 13.85 24.4 14.4 25.55 15.2 26.35 M7.5 11.15 Q12.45 6.05 19.95 6.05 26.85 6.05 31.55 10.85 36.2 15.65 36.2 22.6 36.2 28.15 32.1 32.7 27.3 37.85 20.0 37.85 12.65 37.85 7.8 33.3 3.1 28.8 3.1 21.4 3.1 15.65 7.5 11.15" fill="#ffffff" fill-rule="evenodd" stroke="none"/>
    <path d="M15.2 26.35 Q15.95 27.15 17.25 27.65 L19.85 28.1 22.25 27.65 24.15 26.35 Q24.95 25.55 25.4 24.4 25.85 23.3 25.85 22.0 25.85 19.4 24.15 17.6 22.5 15.8 19.85 15.8 17.15 15.8 15.25 17.5 13.35 19.25 13.35 21.85 13.35 23.35 13.85 24.4 14.4 25.55 15.2 26.35 M7.5 11.15 Q12.45 6.05 19.95 6.05 26.85 6.05 31.55 10.85 36.2 15.65 36.2 22.6 36.2 28.15 32.1 32.7 27.3 37.85 20.0 37.85 12.65 37.85 7.8 33.3 3.1 28.8 3.1 21.4 3.1 15.65 7.5 11.15 Z" fill="none" stroke="#ffffff" stroke-linecap="round" stroke-linejoin="round" stroke-width="9.0"/>
    <path d="M64.55 14.9 L64.55 36.6 Q64.55 41.55 61.05 43.7 58.35 45.3 52.9 45.3 47.4 45.3 42.8 43.45 L44.6 36.35 Q48.55 37.95 51.85 37.95 55.9 37.95 55.9 34.85 L55.9 32.65 54.05 36.0 48.9 36.0 Q46.3 36.0 44.55 34.85 42.6 33.6 42.6 30.95 L42.6 23.8 40.5 23.8 42.6 14.95 51.4 14.95 51.4 25.9 Q51.4 28.7 54.35 28.7 L55.9 28.45 55.9 14.9 64.55 14.9" fill="#ffffff" fill-rule="evenodd" stroke="none"/>
    <path d="M64.55 14.9 L64.55 36.6 Q64.55 41.55 61.05 43.7 58.35 45.3 52.9 45.3 47.4 45.3 42.8 43.45 L44.6 36.35 Q48.55 37.95 51.85 37.95 55.9 37.95 55.9 34.85 L55.9 32.65 54.05 36.0 48.9 36.0 Q46.3 36.0 44.55 34.85 42.6 33.6 42.6 30.95 L42.6 23.8 40.5 23.8 42.6 14.95 51.4 14.95 51.4 25.9 Q51.4 28.7 54.35 28.7 L55.9 28.45 55.9 14.9 64.55 14.9 Z" fill="none" stroke="#ffffff" stroke-linecap="round" stroke-linejoin="round" stroke-width="9.0"/>
    <path d="M80.65 14.9 L80.65 25.8 Q80.65 28.8 83.1 28.8 L85.05 28.8 85.05 14.95 93.7 14.95 93.7 28.8 95.85 28.8 93.7 37.4 85.05 37.4 85.05 33.1 82.8 37.4 78.65 37.4 Q75.7 37.4 73.85 35.5 71.95 33.6 71.95 30.6 L71.95 23.05 69.85 23.05 71.95 14.9 80.65 14.9" fill="#ffffff" fill-rule="evenodd" stroke="none"/>
    <path d="M80.65 14.9 L80.65 25.8 Q80.65 28.8 83.1 28.8 L85.05 28.8 85.05 14.95 93.7 14.95 93.7 28.8 95.85 28.8 93.7 37.4 85.05 37.4 85.05 33.1 82.8 37.4 78.65 37.4 Q75.7 37.4 73.85 35.5 71.95 33.6 71.95 30.6 L71.95 23.05 69.85 23.05 71.95 14.9 80.65 14.9 Z" fill="none" stroke="#ffffff" stroke-linecap="round" stroke-linejoin="round" stroke-width="9.0"/>
    <path d="M110.1 18.85 L111.9 14.9 116.85 14.9 Q123.1 14.9 123.1 21.2 L123.1 28.8 125.25 28.8 123.1 37.4 114.4 37.4 114.4 25.0 Q114.4 23.25 112.0 23.25 L110.1 23.6 110.1 37.4 101.4 37.4 101.4 23.35 99.3 23.35 101.4 14.9 110.1 14.9 110.1 18.85" fill="#ffffff" fill-rule="evenodd" stroke="none"/>
    <path d="M110.1 18.85 L111.9 14.9 116.85 14.9 Q123.1 14.9 123.1 21.2 L123.1 28.8 125.25 28.8 123.1 37.4 114.4 37.4 114.4 25.0 Q114.4 23.25 112.0 23.25 L110.1 23.6 110.1 37.4 101.4 37.4 101.4 23.35 99.3 23.35 101.4 14.9 110.1 14.9 110.1 18.85 Z" fill="none" stroke="#ffffff" stroke-linecap="round" stroke-linejoin="round" stroke-width="9.0"/>
    <path d="M139.8 37.4 L130.85 37.4 130.85 14.0 128.75 14.0 131.5 5.4 139.8 5.4 139.8 28.8 142.0 28.8 139.8 37.4" fill="#ffffff" fill-rule="evenodd" stroke="none"/>
    <path d="M139.8 37.4 L130.85 37.4 130.85 14.0 128.75 14.0 131.5 5.4 139.8 5.4 139.8 28.8 142.0 28.8 139.8 37.4 Z" fill="none" stroke="#ffffff" stroke-linecap="round" stroke-linejoin="round" stroke-width="9.0"/>
    <path d="M149.25 17.8 Q152.35 14.5 157.2 14.5 160.15 14.5 162.3 15.95 L162.65 14.9 170.5 14.9 170.5 28.75 172.65 28.75 170.5 37.4 161.5 37.4 161.5 34.25 159.55 37.4 158.5 37.4 Q153.15 37.65 149.75 34.5 146.25 31.35 146.25 26.15 146.25 21.1 149.25 17.8 M156.55 23.8 Q155.6 24.7 155.6 25.95 155.6 28.75 159.2 28.75 L161.5 28.75 161.5 25.1 Q161.5 24.2 160.6 23.5 159.65 22.85 158.7 22.85 157.5 22.85 156.55 23.8" fill="#ffffff" fill-rule="evenodd" stroke="none"/>
    <path d="M149.25 17.8 Q152.35 14.5 157.2 14.5 160.15 14.5 162.3 15.95 L162.65 14.9 170.5 14.9 170.5 28.75 172.65 28.75 170.5 37.4 161.5 37.4 161.5 34.25 159.55 37.4 158.5 37.4 Q153.15 37.65 149.75 34.5 146.25 31.35 146.25 26.15 146.25 21.1 149.25 17.8 M156.55 23.8 Q155.6 24.7 155.6 25.95 155.6 28.75 159.2 28.75 L161.5 28.75 161.5 25.1 Q161.5 24.2 160.6 23.5 159.65 22.85 158.7 22.85 157.5 22.85 156.55 23.8 Z" fill="none" stroke="#ffffff" stroke-linecap="round" stroke-linejoin="round" stroke-width="9.0"/>
    <path d="M176.1 23.4 L178.2 14.9 186.95 14.9 186.95 17.1 Q187.9 15.8 189.75 15.15 191.45 14.45 193.15 14.45 L193.95 14.5 191.35 24.2 190.05 24.0 Q189.3 24.0 188.75 24.35 L187.8 25.25 Q187.4 25.7 187.15 26.55 L186.95 28.0 186.95 37.4 178.2 37.4 178.2 23.4 176.1 23.4" fill="#ffffff" fill-rule="evenodd" stroke="none"/>
    <path d="M176.1 23.4 L178.2 14.9 186.95 14.9 186.95 17.1 Q187.9 15.8 189.75 15.15 191.45 14.45 193.15 14.45 L193.95 14.5 191.35 24.2 190.05 24.0 Q189.3 24.0 188.75 24.35 L187.8 25.25 Q187.4 25.7 187.15 26.55 L186.95 28.0 186.95 37.4 178.2 37.4 178.2 23.4 176.1 23.4 Z" fill="none" stroke="#ffffff" stroke-linecap="round" stroke-linejoin="round" stroke-width="9.0"/>
    <path d="M205.85 37.4 L205.85 16.0 203.7 16.0 205.9 6.65 215.45 6.65 215.45 37.4 205.85 37.4" fill="#ffffff" fill-rule="evenodd" stroke="none"/>
    <path d="M205.85 37.4 L205.85 16.0 203.7 16.0 205.9 6.65 215.45 6.65 215.45 37.4 205.85 37.4 Z" fill="none" stroke="#ffffff" stroke-linecap="round" stroke-linejoin="round" stroke-width="9.0"/>
    <path d="M233.9 18.45 L226.0 20.8 Q224.9 18.8 224.9 16.45 224.9 11.8 228.2 8.95 231.3 6.05 235.95 6.05 240.45 6.05 243.5 8.8 246.5 11.5 246.5 16.0 246.5 18.55 245.25 20.7 L241.25 27.5 247.8 27.5 245.0 37.4 225.55 37.4 236.65 18.55 Q237.0 18.0 237.0 17.05 237.0 15.55 235.7 15.55 234.9 15.55 234.25 16.1 233.65 16.65 233.65 17.5 L233.9 18.45" fill="#ffffff" fill-rule="evenodd" stroke="none"/>
    <path d="M233.9 18.45 L226.0 20.8 Q224.9 18.8 224.9 16.45 224.9 11.8 228.2 8.95 231.3 6.05 235.95 6.05 240.45 6.05 243.5 8.8 246.5 11.5 246.5 16.0 246.5 18.55 245.25 20.7 L241.25 27.5 247.8 27.5 245.0 37.4 225.55 37.4 236.65 18.55 Q237.0 18.0 237.0 17.05 237.0 15.55 235.7 15.55 234.9 15.55 234.25 16.1 233.65 16.65 233.65 17.5 L233.9 18.45 Z" fill="none" stroke="#ffffff" stroke-linecap="round" stroke-linejoin="round" stroke-width="9.0"/>
    <path d="M271.55 14.35 Q271.55 18.05 268.25 21.4 270.0 22.1 271.35 24.25 272.6 26.3 272.6 28.45 272.6 33.2 269.05 35.7 266.0 37.8 261.0 37.8 255.35 37.8 251.1 35.6 L253.45 27.0 Q257.6 29.0 259.55 29.0 262.2 29.0 262.2 27.1 262.2 25.3 257.5 25.3 L253.45 25.3 255.6 18.25 260.2 18.25 Q261.25 18.25 261.25 16.9 261.25 15.15 258.25 15.15 255.9 15.15 253.35 16.0 L255.8 6.75 261.1 6.15 Q265.35 6.15 268.3 8.05 271.55 10.3 271.55 14.35" fill="#ffffff" fill-rule="evenodd" stroke="none"/>
    <path d="M271.55 14.35 Q271.55 18.05 268.25 21.4 270.0 22.1 271.35 24.25 272.6 26.3 272.6 28.45 272.6 33.2 269.05 35.7 266.0 37.8 261.0 37.8 255.35 37.8 251.1 35.6 L253.45 27.0 Q257.6 29.0 259.55 29.0 262.2 29.0 262.2 27.1 262.2 25.3 257.5 25.3 L253.45 25.3 255.6 18.25 260.2 18.25 Q261.25 18.25 261.25 16.9 261.25 15.15 258.25 15.15 255.9 15.15 253.35 16.0 L255.8 6.75 261.1 6.15 Q265.35 6.15 268.3 8.05 271.55 10.3 271.55 14.35 Z" fill="none" stroke="#ffffff" stroke-linecap="round" stroke-linejoin="round" stroke-width="9.0"/>
    <path d="M15.35 26.4 Q16.2 27.25 17.4 27.7 L20.0 28.15 Q21.35 28.15 22.4 27.65 L24.3 26.4 Q25.1 25.6 25.55 24.45 26.0 23.35 26.0 22.0 26.0 19.45 24.3 17.6 22.65 15.8 20.0 15.8 17.4 15.8 15.4 17.5 13.5 19.25 13.5 21.9 13.5 23.3 14.0 24.45 L15.35 26.4 M7.65 11.15 Q12.65 6.1 20.1 6.1 27.0 6.1 31.7 10.9 36.35 15.7 36.35 22.65 36.35 28.25 32.2 32.7 27.45 37.9 20.15 37.9 12.8 37.9 7.95 33.35 3.25 28.85 3.25 21.45 3.25 15.7 7.65 11.15" fill="#000000" fill-rule="evenodd" stroke="none"/>
    <path d="M15.35 26.4 Q16.2 27.25 17.4 27.7 L20.0 28.15 Q21.35 28.15 22.4 27.65 L24.3 26.4 Q25.1 25.6 25.55 24.45 26.0 23.35 26.0 22.0 26.0 19.45 24.3 17.6 22.65 15.8 20.0 15.8 17.4 15.8 15.4 17.5 13.5 19.25 13.5 21.9 13.5 23.3 14.0 24.45 L15.35 26.4 M7.65 11.15 Q12.65 6.1 20.1 6.1 27.0 6.1 31.7 10.9 36.35 15.7 36.35 22.65 36.35 28.25 32.2 32.7 27.45 37.9 20.15 37.9 12.8 37.9 7.95 33.35 3.25 28.85 3.25 21.45 3.25 15.7 7.65 11.15 Z" fill="none" stroke="#000000" stroke-linecap="round" stroke-linejoin="round" stroke-width="4.0"/>
    <path d="M64.55 14.95 L64.55 36.65 Q64.55 41.65 61.05 43.75 58.25 45.35 52.9 45.35 47.35 45.35 42.85 43.5 L44.6 36.4 Q48.55 38.0 51.9 38.0 55.95 38.0 55.95 34.85 L55.95 32.65 54.1 36.05 48.9 36.05 Q46.3 36.05 44.55 34.85 42.65 33.7 42.65 31.0 L42.65 23.85 40.5 23.85 42.65 15.0 51.45 15.0 51.45 25.95 Q51.45 28.75 54.35 28.75 L55.95 28.5 55.95 14.95 64.55 14.95" fill="#000000" fill-rule="evenodd" stroke="none"/>
    <path d="M64.55 14.95 L64.55 36.65 Q64.55 41.65 61.05 43.75 58.25 45.35 52.9 45.35 47.35 45.35 42.85 43.5 L44.6 36.4 Q48.55 38.0 51.9 38.0 55.95 38.0 55.95 34.85 L55.95 32.65 54.1 36.05 48.9 36.05 Q46.3 36.05 44.55 34.85 42.65 33.7 42.65 31.0 L42.65 23.85 40.5 23.85 42.65 15.0 51.45 15.0 51.45 25.95 Q51.45 28.75 54.35 28.75 L55.95 28.5 55.95 14.95 64.55 14.95 Z" fill="none" stroke="#000000" stroke-linecap="round" stroke-linejoin="round" stroke-width="4.0"/>
    <path d="M80.8 14.95 L80.8 25.8 Q80.8 28.85 83.25 28.85 L85.2 28.85 85.2 14.95 93.85 14.95 93.85 28.85 96.0 28.85 93.85 37.45 85.2 37.45 85.2 33.15 82.95 37.45 78.8 37.45 Q75.9 37.45 74.0 35.5 72.1 33.65 72.1 30.6 L72.1 23.1 70.0 23.1 72.1 14.95 80.8 14.95" fill="#000000" fill-rule="evenodd" stroke="none"/>
    <path d="M80.8 14.95 L80.8 25.8 Q80.8 28.85 83.25 28.85 L85.2 28.85 85.2 14.95 93.85 14.95 93.85 28.85 96.0 28.85 93.85 37.45 85.2 37.45 85.2 33.15 82.95 37.45 78.8 37.45 Q75.9 37.45 74.0 35.5 72.1 33.65 72.1 30.6 L72.1 23.1 70.0 23.1 72.1 14.95 80.8 14.95 Z" fill="none" stroke="#000000" stroke-linecap="round" stroke-linejoin="round" stroke-width="4.0"/>
    <path d="M110.15 18.85 L111.9 14.95 116.85 14.95 Q123.15 14.95 123.15 21.2 L123.15 28.8 125.3 28.8 123.15 37.45 114.45 37.45 114.45 25.05 Q114.45 23.3 112.05 23.3 L110.15 23.65 110.15 37.45 101.45 37.45 101.45 23.35 99.35 23.35 101.45 14.95 110.15 14.95 110.15 18.85" fill="#000000" fill-rule="evenodd" stroke="none"/>
    <path d="M110.15 18.85 L111.9 14.95 116.85 14.95 Q123.15 14.95 123.15 21.2 L123.15 28.8 125.3 28.8 123.15 37.45 114.45 37.45 114.45 25.05 Q114.45 23.3 112.05 23.3 L110.15 23.65 110.15 37.45 101.45 37.45 101.45 23.35 99.35 23.35 101.45 14.95 110.15 14.95 110.15 18.85 Z" fill="none" stroke="#000000" stroke-linecap="round" stroke-linejoin="round" stroke-width="4.0"/>
    <path d="M139.75 37.4 L130.8 37.4 130.8 14.0 128.7 14.0 131.45 5.4 139.75 5.4 139.75 28.75 141.95 28.75 139.75 37.4" fill="#000000" fill-rule="evenodd" stroke="none"/>
    <path d="M139.75 37.4 L130.8 37.4 130.8 14.0 128.7 14.0 131.45 5.4 139.75 5.4 139.75 28.75 141.95 28.75 139.75 37.4 Z" fill="none" stroke="#000000" stroke-linecap="round" stroke-linejoin="round" stroke-width="4.0"/>
    <path d="M149.3 17.75 Q152.3 14.4 157.25 14.4 160.05 14.4 162.35 15.85 L162.7 14.8 170.5 14.8 170.5 28.7 172.7 28.7 170.5 37.35 161.5 37.35 161.5 34.2 159.6 37.35 158.5 37.35 Q153.3 37.55 149.75 34.4 146.25 31.2 146.25 26.05 146.25 20.95 149.3 17.75 M156.55 23.7 Q155.6 24.65 155.6 25.85 155.6 28.65 159.2 28.65 L161.5 28.65 161.5 25.05 Q161.5 24.1 160.6 23.4 159.65 22.75 158.75 22.75 157.6 22.75 156.55 23.7" fill="#000000" fill-rule="evenodd" stroke="none"/>
    <path d="M149.3 17.75 Q152.3 14.4 157.25 14.4 160.05 14.4 162.35 15.85 L162.7 14.8 170.5 14.8 170.5 28.7 172.7 28.7 170.5 37.35 161.5 37.35 161.5 34.2 159.6 37.35 158.5 37.35 Q153.3 37.55 149.75 34.4 146.25 31.2 146.25 26.05 146.25 20.95 149.3 17.75 M156.55 23.7 Q155.6 24.65 155.6 25.85 155.6 28.65 159.2 28.65 L161.5 28.65 161.5 25.05 Q161.5 24.1 160.6 23.4 159.65 22.75 158.75 22.75 157.6 22.75 156.55 23.7 Z" fill="none" stroke="#000000" stroke-linecap="round" stroke-linejoin="round" stroke-width="4.0"/>
    <path d="M176.25 23.3 L178.35 14.85 187.1 14.85 187.1 17.05 Q187.95 15.85 189.9 15.05 191.65 14.3 193.3 14.4 L194.1 14.4 191.5 24.1 190.2 23.9 Q189.6 23.9 188.9 24.25 L187.9 25.15 187.3 26.45 187.1 27.9 187.1 37.35 178.35 37.35 178.35 23.3 176.25 23.3" fill="#000000" fill-rule="evenodd" stroke="none"/>
    <path d="M176.25 23.3 L178.35 14.85 187.1 14.85 187.1 17.05 Q187.95 15.85 189.9 15.05 191.65 14.3 193.3 14.4 L194.1 14.4 191.5 24.1 190.2 23.9 Q189.6 23.9 188.9 24.25 L187.9 25.15 187.3 26.45 187.1 27.9 187.1 37.35 178.35 37.35 178.35 23.3 176.25 23.3 Z" fill="none" stroke="#000000" stroke-linecap="round" stroke-linejoin="round" stroke-width="4.0"/>
    <path d="M205.9 37.45 L205.9 16.05 203.75 16.05 205.95 6.7 215.5 6.7 215.5 37.45 205.9 37.45" fill="#000000" fill-rule="evenodd" stroke="none"/>
    <path d="M205.9 37.45 L205.9 16.05 203.75 16.05 205.95 6.7 215.5 6.7 215.5 37.45 205.9 37.45 Z" fill="none" stroke="#000000" stroke-linecap="round" stroke-linejoin="round" stroke-width="4.0"/>
    <path d="M234.05 18.4 L226.1 20.7 Q225.05 18.7 225.05 16.35 225.05 11.7 228.35 8.85 231.45 5.95 236.1 5.95 240.6 5.95 243.65 8.7 246.65 11.5 246.65 15.9 246.65 18.4 245.4 20.6 L241.4 27.45 247.95 27.45 245.15 37.35 225.7 37.35 236.8 18.45 Q237.15 17.9 237.15 16.95 237.15 15.45 235.85 15.45 235.05 15.45 234.4 16.0 233.75 16.55 233.75 17.4 233.75 17.95 234.05 18.4" fill="#000000" fill-rule="evenodd" stroke="none"/>
    <path d="M234.05 18.4 L226.1 20.7 Q225.05 18.7 225.05 16.35 225.05 11.7 228.35 8.85 231.45 5.95 236.1 5.95 240.6 5.95 243.65 8.7 246.65 11.5 246.65 15.9 246.65 18.4 245.4 20.6 L241.4 27.45 247.95 27.45 245.15 37.35 225.7 37.35 236.8 18.45 Q237.15 17.9 237.15 16.95 237.15 15.45 235.85 15.45 235.05 15.45 234.4 16.0 233.75 16.55 233.75 17.4 233.75 17.95 234.05 18.4 Z" fill="none" stroke="#000000" stroke-linecap="round" stroke-linejoin="round" stroke-width="4.0"/>
    <path d="M271.7 14.25 Q271.7 17.95 268.4 21.3 270.2 22.1 271.5 24.15 272.75 26.35 272.75 28.35 272.75 33.1 269.2 35.6 266.15 37.7 261.15 37.7 255.5 37.7 251.25 35.5 L253.6 26.9 Q257.6 28.9 259.7 28.9 262.35 28.9 262.35 27.0 262.35 25.2 257.65 25.2 L253.6 25.2 255.75 18.15 260.35 18.15 Q261.4 18.15 261.4 16.8 261.4 15.1 258.4 15.1 255.9 15.1 253.5 15.9 L255.95 6.65 261.25 6.1 Q265.5 6.1 268.4 7.95 271.7 10.2 271.7 14.25" fill="#000000" fill-rule="evenodd" stroke="none"/>
    <path d="M271.7 14.25 Q271.7 17.95 268.4 21.3 270.2 22.1 271.5 24.15 272.75 26.35 272.75 28.35 272.75 33.1 269.2 35.6 266.15 37.7 261.15 37.7 255.5 37.7 251.25 35.5 L253.6 26.9 Q257.6 28.9 259.7 28.9 262.35 28.9 262.35 27.0 262.35 25.2 257.65 25.2 L253.6 25.2 255.75 18.15 260.35 18.15 Q261.4 18.15 261.4 16.8 261.4 15.1 258.4 15.1 255.9 15.1 253.5 15.9 L255.95 6.65 261.25 6.1 Q265.5 6.1 268.4 7.95 271.7 10.2 271.7 14.25 Z" fill="none" stroke="#000000" stroke-linecap="round" stroke-linejoin="round" stroke-width="4.0"/>
    <path d="M15.35 26.5 Q16.1 27.25 17.4 27.75 L19.95 28.2 22.4 27.75 24.3 26.45 Q25.1 25.65 25.55 24.5 26.0 23.4 26.0 22.1 26.0 19.5 24.3 17.7 22.65 15.9 19.95 15.9 17.3 15.9 15.4 17.6 13.5 19.3 13.5 21.95 13.5 23.45 14.0 24.5 14.45 25.6 15.35 26.5 M7.65 11.25 Q12.6 6.15 20.05 6.15 27.0 6.15 31.65 10.95 36.35 15.75 36.35 22.7 36.35 28.2 32.2 32.8 27.5 37.95 20.15 37.95 12.75 37.95 7.95 33.4 3.25 28.9 3.25 21.5 3.25 15.75 7.65 11.25" fill="#1ed3ff" fill-rule="evenodd" stroke="none"/>
    <path d="M64.7 14.95 L64.7 36.65 Q64.7 41.65 61.2 43.7 58.35 45.35 53.05 45.35 47.45 45.35 42.95 43.5 L44.7 36.4 Q48.6 37.95 52.0 37.95 56.05 37.95 56.05 34.85 L56.05 32.65 54.2 36.05 49.05 36.05 Q46.35 36.05 44.7 34.85 42.75 33.6 42.75 31.0 L42.75 23.85 40.65 23.85 42.75 14.95 51.55 14.95 51.55 25.95 Q51.55 28.7 54.5 28.7 L56.05 28.5 56.05 14.95 64.7 14.95" fill="#3fff0b" fill-rule="evenodd" stroke="none"/>
    <path d="M80.65 14.9 L80.65 25.75 Q80.65 28.8 83.1 28.8 L85.1 28.8 85.1 14.95 93.7 14.95 93.7 28.8 95.85 28.8 93.7 37.4 85.1 37.4 85.1 33.1 82.85 37.4 78.65 37.4 Q75.75 37.4 73.85 35.5 71.95 33.55 71.95 30.55 L71.95 23.05 69.85 23.05 71.95 14.9 80.65 14.9" fill="#f8e92a" fill-rule="evenodd" stroke="none"/>
    <path d="M110.05 18.85 L111.85 14.95 116.75 14.95 Q123.05 14.95 123.05 21.2 L123.05 28.8 125.2 28.8 123.05 37.45 114.35 37.45 114.35 25.05 Q114.35 23.3 111.95 23.3 L110.05 23.65 110.05 37.45 101.35 37.45 101.35 23.35 99.25 23.35 101.35 14.95 110.05 14.95 110.05 18.85" fill="#ca0305" fill-rule="evenodd" stroke="none"/>
    <path d="M139.9 37.45 L130.95 37.45 130.95 14.05 128.85 14.05 131.6 5.45 139.9 5.45 139.9 28.8 142.1 28.8 139.9 37.45" fill="#3fff0b" fill-rule="evenodd" stroke="none"/>
    <path d="M149.4 17.8 Q152.45 14.45 157.35 14.45 160.15 14.45 162.45 15.9 L162.8 14.85 170.65 14.85 170.65 28.75 172.8 28.75 170.65 37.4 161.65 37.4 161.65 34.25 159.7 37.4 158.65 37.4 Q153.4 37.6 149.9 34.45 146.4 31.3 146.4 26.15 146.4 21.1 149.4 17.8 M156.7 23.75 Q155.75 24.65 155.75 25.9 155.75 28.7 159.35 28.7 L161.65 28.7 161.65 25.1 Q161.65 24.1 160.75 23.5 159.9 22.85 158.85 22.85 157.7 22.85 156.7 23.75" fill="#1ed3ff" fill-rule="evenodd" stroke="none"/>
    <path d="M176.3 23.3 L178.4 14.85 187.15 14.85 187.15 17.05 Q188.0 15.85 189.95 15.05 191.85 14.35 193.35 14.4 L194.15 14.45 191.55 24.1 190.25 23.95 Q189.55 23.95 188.95 24.25 L188.0 25.15 Q187.6 25.65 187.35 26.45 L187.15 27.95 187.15 37.35 178.4 37.35 178.4 23.3 176.3 23.3" fill="#f8e92a" fill-rule="evenodd" stroke="none"/>
    <path d="M206.05 37.45 L206.05 16.05 203.9 16.05 206.1 6.7 215.6 6.7 215.6 37.45 206.05 37.45" fill="#ca0305" fill-rule="evenodd" stroke="none"/>
    <path d="M233.95 18.5 L226.0 20.85 Q224.95 18.75 224.95 16.45 224.95 11.8 228.2 8.95 231.4 6.05 236.0 6.05 240.45 6.05 243.5 8.8 246.55 11.6 246.55 16.0 246.55 18.55 245.25 20.7 L241.25 27.55 247.85 27.55 245.05 37.45 225.6 37.45 236.65 18.6 Q237.05 17.9 237.05 17.05 237.05 15.55 235.75 15.55 234.9 15.55 234.25 16.1 233.65 16.65 233.65 17.5 233.65 18.05 233.95 18.5" fill="#f8e92a" fill-rule="evenodd" stroke="none"/>
    <path d="M271.7 14.25 Q271.7 17.95 268.4 21.3 270.2 22.1 271.5 24.15 272.75 26.2 272.75 28.35 272.75 33.1 269.2 35.6 266.15 37.7 261.15 37.7 255.5 37.7 251.25 35.5 L253.6 26.9 Q257.6 28.9 259.7 28.9 262.35 28.9 262.35 27.0 262.35 25.2 257.65 25.2 L253.6 25.2 255.75 18.15 260.35 18.15 Q261.4 18.15 261.4 16.8 261.4 15.1 258.4 15.1 255.9 15.1 253.5 15.9 L255.95 6.65 261.25 6.1 Q265.5 6.1 268.4 7.95 271.7 10.2 271.7 14.25" fill="#1ed3ff" fill-rule="evenodd" stroke="none"/>
    <path d="M289.85 33.05 Q289.85 35.2 288.35 36.7 286.8 38.2 284.7 38.2 L282.65 37.8 281.05 36.7 Q280.45 36.1 279.95 35.1 279.55 34.05 279.55 33.05 279.55 32.0 279.95 31.05 L281.05 29.4 282.65 28.3 284.7 27.9 Q286.8 27.9 288.35 29.4 289.85 31.0 289.85 33.05" fill="#ffffff" fill-rule="evenodd" stroke="none"/>
    <path d="M284.45 32.4 L284.3 32.5 284.1 32.8 284.05 33.05 284.1 33.3 284.25 33.55 284.45 33.65 284.7 33.7 285.2 33.45 285.35 33.05 285.15 32.6 284.7 32.4 284.45 32.4 M284.7 23.4 Q288.75 23.4 291.5 26.25 294.35 29.05 294.35 33.05 294.35 37.05 291.5 39.9 L291.4 40.0 Q288.55 42.7 284.7 42.7 282.65 42.7 280.9 41.9 279.2 41.25 277.85 39.9 276.65 38.7 275.85 36.85 275.05 35.1 275.05 33.05 275.05 31.0 275.85 29.25 276.5 27.6 277.8 26.25 279.2 24.85 280.9 24.15 282.7 23.4 284.7 23.4" fill="#ffffff" fill-rule="evenodd" stroke="none"/>
    <path d="M289.85 33.05 Q289.85 35.2 288.35 36.7 286.8 38.2 284.7 38.2 L282.65 37.8 281.05 36.7 Q280.45 36.1 279.95 35.1 279.55 34.05 279.55 33.05 279.55 32.0 279.95 31.05 L281.05 29.4 282.65 28.3 284.7 27.9 Q286.8 27.9 288.35 29.4 289.85 31.0 289.85 33.05" fill="#000000" fill-rule="evenodd" stroke="none"/>
    <path d="M284.7 29.9 L283.45 30.1 Q282.8 30.4 282.5 30.8 L281.8 31.8 281.55 33.05 281.8 34.3 282.45 35.3 283.45 35.95 284.7 36.2 Q285.95 36.2 286.95 35.25 287.85 34.35 287.85 33.05 287.85 31.75 286.9 30.85 286.0 29.9 284.7 29.9 M281.9 26.45 Q283.05 25.9 284.7 25.9 287.65 25.9 289.75 28.0 291.85 30.1 291.85 33.05 291.85 36.0 289.75 38.1 L289.7 38.15 Q287.6 40.2 284.7 40.2 L281.9 39.65 Q280.5 39.05 279.65 38.1 278.7 37.2 278.15 35.85 277.55 34.6 277.55 33.05 277.55 31.55 278.15 30.25 278.65 29.05 279.6 28.0 280.65 26.95 281.9 26.45" fill="#000000" fill-rule="evenodd" stroke="none"/>
    <path d="M289.85 33.05 Q289.85 35.2 288.35 36.7 286.8 38.2 284.7 38.2 L282.65 37.8 281.05 36.7 Q280.45 36.1 279.95 35.1 279.55 34.05 279.55 33.05 279.55 32.0 279.95 31.05 L281.05 29.4 282.65 28.3 284.7 27.9 Q286.8 27.9 288.35 29.4 289.85 31.0 289.85 33.05" fill="#f8e92a" fill-rule="evenodd" stroke="none"/>
    <path d="M309.5 14.4 Q311.8 14.4 313.95 15.3 L311.8 23.55 Q310.85 23.0 310.0 23.0 308.25 23.0 307.25 23.95 306.25 24.85 306.25 26.5 306.25 29.5 309.9 29.5 L311.7 29.35 313.4 37.3 309.9 37.7 Q304.4 37.7 300.95 34.35 297.5 31.05 297.5 25.55 297.5 21.0 301.25 17.6 304.8 14.4 309.5 14.4" fill="#ffffff" fill-rule="evenodd" stroke="none"/>
    <path d="M298.25 14.25 Q303.15 9.9 309.5 9.9 312.65 9.9 315.65 11.1 318.45 12.2 318.45 15.3 L318.3 16.4 316.15 24.7 Q315.95 25.65 315.1 26.5 315.9 27.35 316.1 28.4 L317.8 36.35 317.9 37.3 Q317.9 38.6 317.1 39.8 316.05 41.35 314.15 41.75 L309.9 42.2 Q302.55 42.2 297.8 37.6 293.0 32.95 293.0 25.55 293.0 18.95 298.25 14.25" fill="#ffffff" fill-rule="evenodd" stroke="none"/>
    <path d="M343.05 26.05 Q343.05 31.25 339.55 34.6 336.05 37.8 330.8 37.8 325.6 37.8 322.2 34.55 318.8 31.25 318.8 26.1 318.8 21.05 322.35 17.75 325.85 14.5 330.85 14.5 336.0 14.5 339.55 17.75 343.05 21.0 343.05 26.05 M328.45 23.9 Q327.4 24.95 327.4 26.35 327.4 27.0 327.7 27.6 L328.5 28.65 329.7 29.3 331.05 29.55 Q334.15 29.55 334.15 26.1 334.15 24.65 333.2 23.75 332.25 22.8 330.85 22.8 329.4 22.8 328.45 23.9" fill="#ffffff" fill-rule="evenodd" stroke="none"/>
    <path d="M342.6 14.45 Q347.55 19.0 347.55 26.05 347.55 33.3 342.6 37.85 L342.6 37.9 Q337.85 42.3 330.8 42.3 323.85 42.3 319.1 37.8 314.3 33.15 314.3 26.1 314.3 19.0 319.25 14.5 324.0 10.0 330.85 10.0 337.75 10.0 342.6 14.45 M338.55 26.05 Q338.55 22.95 336.45 21.05 334.25 19.0 330.85 19.0 327.6 19.0 325.4 21.05 323.3 23.0 323.3 26.1 323.3 29.3 325.35 31.3 327.5 33.3 330.8 33.3 334.25 33.3 336.45 31.3 338.55 29.35 338.55 26.05" fill="#ffffff" fill-rule="evenodd" stroke="none"/>
    <path d="M336.35 20.5 Q338.65 22.8 338.65 26.1 338.65 29.65 336.55 31.85 334.45 34.05 331.05 34.05 L328.1 33.55 Q326.85 33.05 325.65 32.1 324.4 31.1 323.65 29.55 322.9 28.05 322.9 26.35 322.9 23.15 325.2 20.75 327.5 18.3 330.85 18.3 334.05 18.3 336.35 20.5" fill="#ffffff" fill-rule="evenodd" stroke="none"/>
    <path d="M349.55 14.8 L358.25 14.8 358.25 19.0 360.0 14.8 365.35 14.8 Q367.1 14.8 368.9 16.2 370.5 17.5 371.15 19.25 L373.2 14.8 378.45 14.8 Q381.15 14.8 382.75 16.8 384.3 18.55 384.3 21.35 L384.3 28.7 386.45 28.7 384.3 37.3 375.65 37.3 375.65 25.15 Q375.65 23.15 372.85 23.15 L371.25 23.4 371.25 37.3 362.55 37.3 362.55 25.2 362.3 24.4 361.65 23.7 Q361.2 23.3 360.75 23.2 L359.85 23.0 358.25 23.3 358.25 37.3 349.55 37.3 349.55 22.95 347.45 22.95 349.55 14.8" fill="#ffffff" fill-rule="evenodd" stroke="none"/>
    <path d="M380.15 30.45 L380.15 32.8 380.8 32.8 381.05 31.75 380.15 30.45 M362.95 19.3 L362.95 19.35 364.45 20.15 366.15 22.1 366.75 23.4 Q366.75 22.45 367.2 21.3 L367.0 20.95 366.05 19.7 Q365.5 19.3 365.35 19.3 L362.95 19.3 M378.45 19.3 L376.35 19.3 Q378.9 20.45 379.8 23.0 L379.8 21.35 Q379.8 20.3 379.3 19.65 379.05 19.3 378.45 19.3 M353.0 19.3 L352.85 19.95 Q353.7 20.95 353.9 22.2 353.95 21.65 354.3 21.05 353.9 20.25 353.8 19.3 L353.0 19.3 M345.05 26.65 L343.85 25.7 Q342.95 24.5 342.95 22.95 L343.05 21.85 345.2 13.7 Q346.05 10.3 349.55 10.3 L358.25 10.3 358.95 10.45 360.0 10.3 365.35 10.3 Q367.8 10.3 370.1 11.6 371.4 10.3 373.2 10.3 L378.45 10.3 Q383.25 10.3 386.2 13.9 388.8 16.95 388.8 21.35 L388.8 24.95 Q389.5 25.35 390.0 25.9 390.95 27.15 390.95 28.7 L390.8 29.75 388.65 38.4 Q387.8 41.8 384.3 41.8 L375.65 41.8 Q374.5 41.8 373.45 41.15 372.4 41.8 371.25 41.8 L362.55 41.8 Q361.5 41.8 360.4 41.2 359.3 41.8 358.25 41.8 L349.55 41.8 Q347.7 41.8 346.35 40.5 345.05 39.2 345.05 37.3 L345.05 26.65" fill="#ffffff" fill-rule="evenodd" stroke="none"/>
    <path d="M309.5 14.4 Q311.8 14.4 313.95 15.3 L311.8 23.55 Q310.85 23.0 310.0 23.0 308.25 23.0 307.25 23.95 306.25 24.85 306.25 26.5 306.25 29.5 309.9 29.5 L311.7 29.35 313.4 37.3 309.9 37.7 Q304.4 37.7 300.95 34.35 297.5 31.05 297.5 25.55 297.5 21.0 301.25 17.6 304.8 14.4 309.5 14.4" fill="#000000" fill-rule="evenodd" stroke="none"/>
    <path d="M295.5 25.55 Q295.5 20.05 299.9 16.15 304.1 12.4 309.5 12.4 312.15 12.4 314.7 13.45 316.35 14.05 315.9 15.8 L313.75 24.05 Q313.5 25.0 312.6 25.4 L310.8 25.3 Q310.35 25.0 310.0 25.0 L308.6 25.4 Q308.25 25.75 308.25 26.5 308.25 27.5 309.9 27.5 L311.2 27.4 312.75 27.6 Q313.45 28.0 313.7 28.9 L315.35 36.9 Q315.5 37.7 315.05 38.4 314.6 39.1 313.7 39.25 L309.9 39.7 Q303.55 39.7 299.55 35.8 295.5 31.9 295.5 25.55 M302.6 19.1 Q299.5 21.9 299.5 25.55 299.5 30.25 302.3 32.9 305.15 35.7 309.9 35.7 L311.0 35.6 310.15 31.5 309.9 31.5 Q304.25 31.5 304.25 26.5 304.25 23.85 305.95 22.45 307.55 21.0 310.0 21.0 L310.4 21.05 311.55 16.65 309.5 16.4 Q305.7 16.4 302.6 19.1" fill="#000000" fill-rule="evenodd" stroke="none"/>
    <path d="M343.05 26.05 Q343.05 31.25 339.55 34.6 336.05 37.8 330.8 37.8 325.6 37.8 322.2 34.55 318.8 31.25 318.8 26.1 318.8 21.05 322.35 17.75 325.85 14.5 330.85 14.5 336.0 14.5 339.55 17.75 343.05 21.0 343.05 26.05 M328.45 23.9 Q327.4 24.95 327.4 26.35 327.4 27.0 327.7 27.6 L328.5 28.65 329.7 29.3 331.05 29.55 Q334.15 29.55 334.15 26.1 334.15 24.65 333.2 23.75 332.25 22.8 330.85 22.8 329.4 22.8 328.45 23.9" fill="#000000" fill-rule="evenodd" stroke="none"/>
    <path d="M340.9 16.3 Q345.05 20.05 345.05 26.05 345.05 32.15 340.9 36.05 336.8 39.8 330.8 39.8 324.8 39.8 320.85 36.0 316.8 32.1 316.8 26.1 316.8 20.15 321.0 16.3 325.05 12.5 330.85 12.5 336.8 12.5 340.9 16.3 M341.05 26.05 Q341.05 21.9 338.15 19.2 335.25 16.5 330.85 16.5 326.65 16.5 323.7 19.2 320.8 21.95 320.8 26.1 320.8 30.45 323.6 33.1 326.35 35.8 330.8 35.8 335.3 35.8 338.15 33.1 341.05 30.4 341.05 26.05" fill="#000000" fill-rule="evenodd" stroke="none"/>
    <path d="M329.85 25.25 Q329.4 25.8 329.4 26.35 L329.5 26.75 329.8 27.1 330.4 27.45 331.05 27.55 Q332.15 27.55 332.15 26.1 332.15 25.5 331.8 25.15 331.45 24.8 330.85 24.8 330.3 24.8 329.85 25.25 M334.6 22.3 Q336.15 23.8 336.15 26.1 336.15 31.55 331.05 31.55 L329.0 31.2 327.25 30.2 Q326.4 29.45 325.9 28.5 325.4 27.35 325.4 26.35 325.4 24.1 327.0 22.5 328.6 20.8 330.85 20.8 333.0 20.8 334.6 22.3" fill="#000000" fill-rule="evenodd" stroke="none"/>
    <path d="M349.55 14.8 L358.25 14.8 358.25 19.0 360.0 14.8 365.35 14.8 Q367.1 14.8 368.9 16.2 370.5 17.5 371.15 19.25 L373.2 14.8 378.45 14.8 Q381.15 14.8 382.75 16.8 384.3 18.55 384.3 21.35 L384.3 28.7 386.45 28.7 384.3 37.3 375.65 37.3 375.65 25.15 Q375.65 23.15 372.85 23.15 L371.25 23.4 371.25 37.3 362.55 37.3 362.55 25.2 362.3 24.4 361.65 23.7 Q361.2 23.3 360.75 23.2 L359.85 23.0 358.25 23.3 358.25 37.3 349.55 37.3 349.55 22.95 347.45 22.95 349.55 14.8" fill="#000000" fill-rule="evenodd" stroke="none"/>
    <path d="M345.5 22.45 L347.6 14.3 Q348.05 12.8 349.55 12.8 L358.25 12.8 359.15 13.05 360.0 12.8 365.35 12.8 Q367.85 12.8 370.15 14.65 L370.75 15.3 371.4 14.0 Q371.9 12.8 373.2 12.8 L378.45 12.8 Q382.05 12.8 384.3 15.5 386.3 17.9 386.3 21.35 L386.3 26.7 386.45 26.7 Q387.45 26.7 388.05 27.45 388.6 28.25 388.4 29.15 L386.25 37.8 Q385.85 39.3 384.3 39.3 L375.65 39.3 Q373.65 39.3 373.65 37.3 L373.65 25.25 373.25 25.2 373.25 37.3 Q373.25 39.3 371.25 39.3 L362.55 39.3 Q360.55 39.3 360.55 37.3 L360.55 25.4 360.4 25.25 360.25 25.15 360.25 37.3 Q360.25 39.3 358.25 39.3 L349.55 39.3 Q347.55 39.3 347.55 37.3 L347.55 24.95 347.45 24.95 Q346.4 24.95 345.85 24.2 345.25 23.45 345.5 22.45 M351.1 16.8 L350.0 21.05 Q351.55 21.4 351.55 22.95 L351.55 35.3 356.25 35.3 356.25 23.3 Q356.25 21.65 357.75 21.4 L358.65 21.25 358.2 21.3 359.85 21.0 361.45 21.3 362.9 22.1 364.0 23.35 Q364.55 24.3 364.55 25.2 L364.55 35.3 369.25 35.3 369.25 23.4 Q369.25 21.7 370.75 21.45 L372.85 21.15 Q377.65 21.15 377.65 25.15 L377.65 35.3 382.75 35.3 383.9 30.6 Q382.3 30.25 382.3 28.7 L382.3 21.35 Q382.3 19.35 381.2 18.05 380.15 16.8 378.45 16.8 L374.45 16.8 373.0 20.05 Q372.45 21.25 371.15 21.25 369.8 21.15 369.3 20.0 368.75 18.7 367.6 17.75 366.4 16.8 365.35 16.8 L361.3 16.8 360.05 19.8 Q359.45 21.3 357.85 20.95 356.25 20.7 356.25 19.0 L356.25 16.8 351.1 16.8" fill="#000000" fill-rule="evenodd" stroke="none"/>
    <path d="M309.5 14.4 Q311.8 14.4 313.95 15.3 L311.8 23.55 Q310.85 23.0 310.0 23.0 308.25 23.0 307.25 23.95 306.25 24.85 306.25 26.5 306.25 29.5 309.9 29.5 L311.7 29.35 313.4 37.3 309.9 37.7 Q304.4 37.7 300.95 34.35 297.5 31.05 297.5 25.55 297.5 21.0 301.25 17.6 304.8 14.4 309.5 14.4" fill="#ca0305" fill-rule="evenodd" stroke="none"/>
    <path d="M343.05 26.05 Q343.05 31.25 339.55 34.6 336.05 37.8 330.8 37.8 325.6 37.8 322.2 34.55 318.8 31.25 318.8 26.1 318.8 21.05 322.35 17.75 325.85 14.5 330.85 14.5 336.0 14.5 339.55 17.75 343.05 21.0 343.05 26.05 M328.45 23.9 Q327.4 24.95 327.4 26.35 327.4 27.0 327.7 27.6 L328.5 28.65 329.7 29.3 331.05 29.55 Q334.15 29.55 334.15 26.1 334.15 24.65 333.2 23.75 332.25 22.8 330.85 22.8 329.4 22.8 328.45 23.9" fill="#3fff0b" fill-rule="evenodd" stroke="none"/>
    <path d="M349.55 14.8 L358.25 14.8 358.25 19.0 360.0 14.8 365.35 14.8 Q367.1 14.8 368.9 16.2 370.5 17.5 371.15 19.25 L373.2 14.8 378.45 14.8 Q381.15 14.8 382.75 16.8 384.3 18.55 384.3 21.35 L384.3 28.7 386.45 28.7 384.3 37.3 375.65 37.3 375.65 25.15 Q375.65 23.15 372.85 23.15 L371.25 23.4 371.25 37.3 362.55 37.3 362.55 25.2 362.3 24.4 361.65 23.7 Q361.2 23.3 360.75 23.2 L359.85 23.0 358.25 23.3 358.25 37.3 349.55 37.3 349.55 22.95 347.45 22.95 349.55 14.8" fill="#1ed3ff" fill-rule="evenodd" stroke="none"/>
  </g>
</svg>
