<?xml version="1.0" encoding="UTF-8" standalone="no"?>
<svg xmlns:ffdec="https://www.free-decompiler.com/flash" xmlns:xlink="http://www.w3.org/1999/xlink" ffdec:objectType="shape" height="79.95px" width="809.9px" xmlns="http://www.w3.org/2000/svg">
  <g transform="matrix(1.0, 0.0, 0.0, 1.0, 399.55, 37.9)">
    <path d="M-21.1 -7.55 L-22.2 -4.25 -24.5 2.3 -26.75 8.9 -26.85 9.2 -26.9 9.6 -27.1 10.05 -27.2 10.65 -27.25 11.05 -27.25 11.4 -27.15 12.1 -26.65 12.55 -26.2 12.65 -25.7 12.6 -24.65 12.4 -23.65 11.9 -21.65 10.3 -19.85 8.2 -18.45 6.25 -17.6 4.6 -17.45 4.25 -17.25 3.9 -17.1 3.55 -16.95 3.2 -12.25 5.25 Q-15.6 12.35 -20.25 17.1 -24.95 21.85 -33.55 21.85 L-33.8 21.85 -34.0 21.85 Q-36.95 21.75 -39.5 20.5 -42.1 19.35 -43.3 16.5 -45.8 18.75 -48.9 20.15 -52.0 21.6 -55.3 21.85 L-56.05 21.95 -56.9 21.95 Q-60.05 21.85 -63.0 20.65 -65.9 19.5 -68.2 16.7 -69.9 14.6 -70.65 12.35 -71.4 10.1 -71.4 7.75 -71.4 3.65 -69.2 -0.25 -67.0 -4.15 -63.55 -6.8 -60.95 -8.75 -57.55 -10.05 -54.1 -11.35 -50.45 -11.55 L-49.7 -11.65 -48.9 -11.65 Q-46.05 -11.65 -43.3 -10.8 -40.65 -9.9 -38.45 -8.1 L-37.55 -10.85 -28.75 -10.85 -19.95 -10.85 -21.1 -7.55 M10.25 -3.05 L9.3 -2.05 Q7.95 -0.5 6.35 2.3 4.8 5.15 3.0 9.95 L2.4 11.65 1.1 15.45 0.0 18.9 -0.75 21.05 -17.6 21.05 -6.7 -10.6 10.2 -10.6 9.5 -8.65 Q11.6 -9.9 14.15 -10.75 16.7 -11.65 19.35 -11.8 L19.85 -11.8 20.4 -11.8 23.0 -11.65 25.45 -11.0 Q27.35 -10.35 28.9 -9.1 30.45 -7.75 31.05 -5.7 33.75 -8.55 37.15 -10.1 40.55 -11.65 44.15 -11.65 L46.85 -11.4 49.6 -10.7 Q53.15 -9.55 54.95 -6.95 56.75 -4.3 56.75 -1.1 L56.55 1.05 55.9 3.35 55.4 4.85 54.65 6.95 54.45 7.5 54.3 8.05 53.6 10.4 Q53.3 11.55 53.3 12.25 L53.3 12.5 53.4 12.8 53.7 12.9 54.3 12.9 55.2 12.75 56.1 12.35 58.65 10.3 60.9 7.45 62.4 5.3 62.6 3.65 63.25 1.0 Q65.05 -4.4 70.6 -7.45 76.1 -10.45 82.3 -11.3 L84.95 -11.55 87.55 -11.65 91.25 -11.45 94.6 -10.85 95.1 -10.65 95.6 -10.55 Q98.25 -9.85 100.55 -8.0 102.85 -6.2 102.9 -3.15 103.1 1.75 98.85 4.5 94.6 7.35 89.55 8.55 L84.1 9.6 79.6 9.75 Q80.05 13.0 82.1 14.8 84.1 16.55 87.45 16.55 94.2 16.55 98.85 12.75 103.45 8.95 106.1 3.2 L107.2 3.7 Q107.7 3.05 108.4 2.55 110.3 1.25 112.55 1.35 L113.05 1.35 113.5 1.35 113.9 1.4 114.35 1.5 122.4 -9.7 139.45 -14.0 140.1 -4.4 140.75 5.2 Q141.2 12.7 135.85 16.65 130.55 20.6 124.1 21.25 L122.5 21.35 121.05 21.4 119.15 21.35 117.15 21.15 Q114.55 20.85 112.05 19.85 109.55 18.9 107.75 17.0 106.5 15.45 105.95 13.75 L105.85 13.35 105.75 13.15 105.5 13.45 Q102.75 17.15 97.75 19.5 94.8 20.85 91.5 21.55 L84.75 22.15 83.7 22.15 82.65 22.05 78.45 21.6 74.35 20.5 Q69.15 18.7 65.75 15.0 L63.85 12.4 59.95 17.05 Q55.3 21.85 46.8 21.85 L45.5 21.8 44.1 21.65 Q42.0 21.4 40.05 20.65 38.15 19.85 36.85 18.15 35.95 16.9 35.55 15.6 35.2 14.25 35.2 12.85 L35.25 11.6 35.4 10.4 Q35.65 8.9 36.2 7.4 L37.2 4.5 37.55 3.55 38.2 1.9 38.5 1.05 38.75 0.2 39.05 -1.25 39.2 -2.4 38.9 -3.65 Q38.55 -4.15 37.85 -4.15 36.25 -4.15 34.8 -2.7 33.3 -1.2 32.25 0.55 L31.25 2.5 30.55 4.15 29.1 8.35 27.65 12.55 26.1 16.85 24.7 21.05 6.75 21.05 8.7 15.6 10.65 10.1 12.5 4.7 14.35 -0.75 14.6 -1.75 14.7 -2.65 Q14.7 -3.5 14.3 -3.85 13.9 -4.25 13.15 -4.25 L12.25 -4.1 11.25 -3.7 10.25 -3.05 M90.9 -7.85 Q87.55 -7.95 85.15 -5.35 82.65 -2.75 81.45 0.45 80.95 1.55 80.7 2.6 L80.25 4.6 82.5 4.35 84.85 3.8 Q88.25 2.9 91.15 0.8 93.95 -1.25 94.05 -4.95 94.05 -6.5 93.25 -7.15 92.4 -7.75 90.9 -7.85 M124.0 2.75 L124.0 -2.75 118.6 4.5 119.4 6.1 119.6 7.85 119.35 9.6 118.5 11.15 Q117.65 12.45 116.1 13.25 114.55 14.0 112.9 14.0 L112.7 14.0 112.45 14.0 112.25 13.95 112.05 13.9 Q112.65 14.85 113.65 15.5 114.65 16.15 115.8 16.15 119.5 16.15 121.75 14.15 123.95 12.2 123.95 8.3 L124.0 2.75 M-393.35 -4.25 L-393.2 -5.75 -392.7 -8.8 -391.85 -11.7 Q-388.95 -20.05 -381.25 -25.35 -373.55 -30.65 -364.95 -32.2 L-361.25 -32.7 -357.7 -32.9 -353.35 -32.75 -347.6 -32.1 Q-343.25 -31.35 -339.6 -29.5 -335.95 -27.65 -335.95 -23.95 -335.95 -21.2 -338.2 -19.45 -340.45 -17.7 -343.25 -17.5 L-343.5 -17.5 -343.7 -17.5 Q-344.85 -17.6 -346.0 -18.0 -347.15 -18.35 -348.05 -19.15 L-348.4 -19.45 -348.8 -19.8 -348.9 -19.85 -348.95 -19.95 -349.2 -20.15 -349.4 -20.35 -348.05 -21.7 -347.0 -23.15 Q-346.5 -23.75 -346.3 -24.4 L-346.15 -25.55 Q-346.15 -26.6 -347.15 -27.25 -348.15 -27.9 -350.6 -27.9 -356.35 -27.9 -361.45 -21.9 -366.55 -15.9 -369.55 -8.6 L-369.95 -7.6 -370.35 -6.45 -370.5 -6.15 -370.6 -5.85 -371.7 -2.7 -372.45 0.7 -372.7 2.5 -372.8 4.25 -372.7 5.7 -372.45 7.15 Q-372.1 8.5 -371.35 9.05 -370.6 9.6 -369.75 9.6 L-369.1 9.55 -368.45 9.4 -366.75 8.5 -365.3 7.25 Q-363.95 5.6 -362.5 2.7 -361.05 -0.15 -359.5 -4.9 L-359.05 -6.2 -358.1 -9.1 -357.2 -11.55 -356.65 -13.1 -333.05 -13.1 -335.3 -6.55 -337.6 0.0 -339.9 6.65 -342.15 13.2 Q-345.9 23.95 -355.6 30.5 -365.3 37.05 -376.4 37.05 L-380.2 36.8 -384.0 36.15 Q-388.95 34.95 -391.4 32.75 -393.85 30.55 -394.4 28.1 L-394.55 27.3 -394.55 26.55 Q-394.5 23.2 -392.05 20.7 -389.6 18.2 -386.25 18.25 -384.75 18.25 -383.3 18.85 -381.85 19.4 -380.35 20.85 L-380.0 21.25 -379.6 21.6 -379.2 22.0 -378.85 22.4 -379.65 22.8 -380.55 23.3 Q-382.0 24.15 -383.3 25.3 -384.55 26.5 -384.45 28.3 L-384.45 28.6 -384.45 28.8 Q-384.25 30.35 -383.15 31.05 -382.0 31.8 -380.55 31.9 L-378.1 31.5 -375.45 29.9 -374.4 29.05 -373.35 28.0 Q-370.7 25.2 -369.1 21.85 -367.45 18.45 -366.3 14.85 L-369.05 15.6 -371.9 16.2 -373.3 16.35 -374.7 16.35 Q-379.2 16.35 -383.35 14.5 -387.45 12.65 -390.15 8.55 -391.85 5.95 -392.65 3.1 -393.4 0.2 -393.4 -2.8 L-393.35 -4.25 M-328.55 -20.7 L-328.3 -22.15 -327.55 -23.5 Q-326.3 -25.15 -324.25 -25.95 -322.2 -26.75 -320.05 -26.95 L-319.55 -26.95 -319.05 -26.95 -317.1 -26.8 -315.2 -26.35 -314.6 -26.2 -314.15 -26.0 Q-312.3 -25.2 -310.7 -23.75 -309.1 -22.3 -309.1 -20.25 L-309.2 -19.65 -309.3 -19.0 Q-309.85 -17.3 -311.3 -16.15 -312.7 -15.0 -314.35 -14.45 L-315.0 -14.35 -315.55 -14.2 -317.05 -14.0 -318.5 -13.95 -322.5 -14.4 Q-324.5 -14.9 -326.0 -16.1 -327.2 -16.95 -327.85 -18.2 -328.55 -19.45 -328.55 -20.7 M-325.95 -10.85 L-321.5 -10.85 -317.05 -10.85 -312.65 -10.85 -313.75 -7.55 -314.9 -4.25 -317.2 2.3 -319.4 8.9 -319.85 10.25 -320.05 11.5 Q-320.05 12.0 -319.65 12.35 -319.25 12.75 -318.25 12.6 L-316.4 12.05 -314.15 10.4 Q-312.55 8.75 -311.55 6.95 L-310.15 4.35 -311.25 3.9 Q-308.95 -2.3 -304.4 -7.2 -299.8 -12.1 -292.95 -12.45 L-291.65 -12.55 -290.25 -12.45 Q-287.25 -12.3 -284.5 -10.95 -281.75 -9.65 -280.15 -7.05 L-275.95 -9.8 -271.35 -11.75 -269.25 -12.25 -267.2 -12.4 -264.5 -12.05 Q-263.25 -11.7 -262.05 -10.95 -260.9 -10.15 -260.2 -8.95 -259.55 -7.75 -259.25 -6.5 L-259.1 -5.4 -259.1 -4.45 Q-259.1 -1.1 -261.1 0.85 -263.15 2.8 -265.55 2.8 L-265.7 2.8 -265.85 2.8 Q-267.75 2.8 -269.45 1.5 -271.15 0.25 -271.9 -2.55 -272.2 -3.35 -272.6 -3.75 -273.0 -4.2 -273.5 -4.1 -274.45 -4.1 -275.55 -3.05 L-277.95 -0.15 Q-280.15 2.6 -281.65 6.05 L-284.35 13.0 -285.4 16.0 -286.35 18.9 -286.7 19.95 -287.05 21.05 -303.75 21.05 -296.25 0.1 Q-296.1 -0.25 -296.1 -0.55 L-296.1 -1.0 Q-296.1 -2.0 -296.9 -2.35 L-298.65 -2.55 Q-301.0 -2.3 -302.8 -0.4 -304.6 1.5 -305.75 3.7 L-306.3 4.65 -304.95 5.35 -305.4 6.2 -305.9 7.0 -309.0 12.6 Q-310.75 15.35 -313.2 17.5 -315.45 19.5 -318.45 20.6 -321.5 21.65 -324.75 21.85 L-325.55 21.85 -328.3 21.65 -330.9 21.05 Q-334.35 19.85 -335.8 17.4 -337.2 14.9 -337.2 11.9 L-337.05 9.9 -336.65 7.75 -336.35 6.7 -336.05 5.7 -333.2 -2.6 -330.35 -10.85 -325.95 -10.85 M-246.55 -28.65 L-242.05 -28.65 -237.6 -28.65 -233.2 -28.65 -228.7 -28.65 -235.25 -9.85 -241.65 8.9 -242.2 10.4 -242.35 11.55 -241.9 12.4 -240.45 12.6 -238.65 12.05 -236.4 10.4 Q-234.75 8.75 -233.75 6.95 L-233.35 6.25 Q-232.95 4.8 -232.05 3.75 L-231.8 3.15 -231.6 3.25 -230.8 2.55 Q-228.9 1.25 -226.65 1.35 L-226.15 1.35 -225.7 1.35 -225.3 1.4 -224.85 1.5 -216.8 -9.7 -199.75 -14.0 -199.1 -4.4 -198.45 5.2 Q-198.0 12.7 -203.35 16.65 -208.65 20.6 -215.1 21.25 L-216.7 21.35 -218.15 21.4 -220.05 21.35 -222.05 21.15 Q-224.65 20.85 -227.15 19.85 -229.65 18.9 -231.45 17.0 L-232.9 14.6 -235.0 17.0 Q-239.4 21.85 -247.85 21.85 L-248.85 21.8 -249.75 21.75 Q-252.05 21.5 -254.2 20.6 -256.4 19.75 -257.75 17.85 -258.65 16.6 -259.05 15.05 -259.55 13.55 -259.55 12.0 L-259.5 11.3 -259.45 10.75 -259.0 8.15 -258.3 5.65 -252.35 -11.55 -246.55 -28.65 M-188.85 -3.85 Q-185.8 -5.55 -182.45 -5.85 L-181.8 -5.9 -181.1 -5.95 -177.55 -5.4 Q-175.75 -4.85 -174.15 -3.75 L-173.75 -5.05 -161.65 -5.05 -163.9 1.65 -165.1 5.15 -166.2 8.3 -168.55 14.95 -170.85 21.65 Q-172.3 25.95 -176.6 28.7 -180.9 31.5 -185.75 32.15 L-186.95 32.25 -188.15 32.25 -188.85 32.25 -192.0 31.85 Q-193.85 31.35 -195.4 30.45 -196.85 29.6 -197.8 28.2 -198.7 26.85 -198.95 25.4 L-199.05 24.75 -199.1 24.15 Q-199.0 22.6 -198.05 21.35 -197.15 20.05 -194.95 19.65 L-194.7 19.65 -194.4 19.6 -194.15 19.6 -193.9 19.6 Q-191.6 19.6 -190.2 21.05 -189.15 22.25 -188.85 23.6 L-188.75 24.3 -188.75 24.4 -188.75 24.5 -188.85 25.4 Q-189.05 26.15 -189.55 26.9 -190.1 27.75 -191.15 28.3 L-192.05 28.65 -191.75 28.75 -191.4 28.85 -191.15 28.95 -190.85 28.95 -188.85 28.75 Q-186.95 28.25 -185.75 26.6 -183.9 24.1 -182.75 21.2 L-181.95 18.85 -181.25 16.7 -183.0 17.3 -184.8 17.65 -185.7 17.75 -186.55 17.8 -188.85 17.6 Q-191.5 17.05 -193.7 15.3 -196.8 12.8 -196.8 8.05 -196.8 2.55 -192.3 -1.4 -190.65 -2.9 -188.85 -3.85 M-180.0 -0.7 Q-181.25 0.45 -182.45 2.3 -183.7 4.15 -184.55 6.1 L-185.5 8.85 -185.85 11.25 -185.75 12.15 -185.55 12.95 -185.0 13.6 -184.3 13.8 Q-181.7 13.8 -180.1 11.55 -178.45 9.25 -177.55 6.5 L-176.45 3.15 -175.6 0.45 -175.6 0.15 -175.65 -0.15 -175.95 -1.0 Q-176.2 -1.4 -176.7 -1.6 L-176.9 -1.7 -177.05 -1.75 -177.3 -1.8 -177.55 -1.8 -178.75 -1.5 -180.0 -0.7 M-144.25 -2.5 L-145.65 -2.15 -147.2 -1.2 -147.8 -0.6 -148.4 0.05 Q-149.85 1.75 -150.7 3.9 -151.6 6.1 -152.0 8.35 L-152.1 9.85 -152.15 11.25 -152.15 12.2 -152.0 13.35 -151.35 15.3 Q-150.85 16.15 -149.85 16.15 -148.25 16.15 -147.05 15.05 -145.8 13.9 -145.05 12.55 L-144.65 11.95 -144.35 11.35 -145.9 9.6 Q-146.45 8.55 -146.45 7.35 L-146.45 7.1 -146.45 6.9 Q-146.25 5.05 -145.0 3.35 -143.8 1.65 -141.9 1.15 -141.95 -0.8 -142.6 -1.65 -143.3 -2.5 -144.25 -2.5 M-153.0 -4.75 L-146.5 -5.65 -145.5 -5.6 -144.55 -5.6 Q-141.85 -5.35 -139.25 -4.45 -136.65 -3.5 -134.65 -1.65 -132.95 -0.15 -132.05 1.75 -131.2 3.7 -131.2 5.75 L-131.35 7.3 -131.7 8.85 -130.15 8.35 -128.85 7.2 -128.1 6.25 -127.55 5.45 -128.4 3.1 Q-129.15 0.2 -129.15 -2.8 L-129.1 -4.25 -128.95 -5.75 -128.45 -8.8 -127.6 -11.7 Q-124.7 -20.05 -117.0 -25.35 -109.3 -30.65 -100.7 -32.2 L-97.0 -32.7 -93.45 -32.9 -89.1 -32.75 -83.35 -32.1 Q-79.0 -31.35 -75.35 -29.5 -71.7 -27.65 -71.7 -23.95 -71.7 -21.2 -73.95 -19.45 -76.2 -17.7 -79.0 -17.5 L-79.25 -17.5 -79.45 -17.5 Q-80.6 -17.6 -81.75 -18.0 -82.9 -18.35 -83.8 -19.15 L-84.15 -19.45 -84.55 -19.8 -84.65 -19.85 -84.7 -19.95 -84.95 -20.15 -85.15 -20.35 -83.8 -21.7 -82.75 -23.15 Q-82.25 -23.75 -82.05 -24.4 L-81.9 -25.55 Q-81.9 -26.6 -82.9 -27.25 -83.9 -27.9 -86.35 -27.9 -92.1 -27.9 -97.2 -21.9 -102.3 -15.9 -105.3 -8.6 L-105.7 -7.6 -106.1 -6.45 -106.25 -6.15 -106.35 -5.85 -107.45 -2.7 -108.2 0.7 -108.45 2.5 -108.55 4.25 -108.45 5.7 -108.2 7.15 Q-107.85 8.5 -107.1 9.05 -106.35 9.6 -105.5 9.6 L-104.85 9.55 -104.2 9.4 -102.5 8.5 Q-101.7 7.95 -101.05 7.25 -99.7 5.6 -98.25 2.7 -96.8 -0.15 -95.25 -4.9 L-94.8 -6.2 -93.85 -9.1 -92.95 -11.55 -92.4 -13.1 -68.8 -13.1 -71.05 -6.55 -73.35 0.0 -75.65 6.65 -77.9 13.2 Q-81.65 23.95 -91.35 30.5 -101.05 37.05 -112.15 37.05 L-115.95 36.8 -119.75 36.15 Q-124.7 34.95 -127.15 32.75 -129.6 30.55 -130.15 28.1 L-130.3 27.3 -130.3 26.55 Q-130.25 23.2 -127.8 20.7 -125.35 18.2 -122.0 18.25 -120.5 18.25 -119.05 18.85 -117.6 19.4 -116.1 20.85 L-115.75 21.25 -115.35 21.6 -114.95 22.0 -114.6 22.4 -115.4 22.8 -116.3 23.3 Q-117.75 24.15 -119.05 25.3 -120.3 26.5 -120.2 28.3 L-120.2 28.6 -120.2 28.8 Q-120.0 30.35 -118.9 31.05 -117.75 31.8 -116.3 31.9 -115.15 32.0 -113.85 31.5 L-111.2 29.9 -110.15 29.05 -109.1 28.0 Q-106.45 25.2 -104.85 21.85 -103.2 18.45 -102.05 14.85 L-104.8 15.6 -107.65 16.2 -109.05 16.35 -110.45 16.35 Q-114.95 16.35 -119.1 14.5 -122.8 12.85 -125.3 9.4 L-125.85 10.35 Q-127.05 12.4 -128.85 14.15 -130.55 15.9 -132.9 15.9 L-134.7 15.6 -136.3 14.9 Q-138.75 16.9 -142.1 18.05 -145.4 19.15 -148.9 19.4 L-149.45 19.4 -150.05 19.4 Q-153.3 19.4 -156.35 18.4 -159.4 17.4 -161.7 15.45 -163.5 13.8 -164.35 11.95 -165.15 10.05 -165.15 8.2 -165.15 6.7 -164.7 5.3 -164.25 3.85 -163.4 2.5 -161.6 -0.2 -158.7 -2.15 -156.15 -3.75 -153.0 -4.75 M-42.8 -6.05 L-43.7 -5.95 -44.6 -5.7 Q-46.3 -4.95 -48.05 -3.15 L-51.15 0.7 -52.85 3.6 -54.0 5.95 -54.3 6.85 -54.7 8.3 -55.1 9.65 -55.35 11.05 -55.6 12.2 -55.65 13.35 Q-55.65 14.75 -55.2 15.6 -54.7 16.55 -53.55 16.55 -50.9 16.55 -48.9 14.35 -46.85 12.2 -45.4 9.6 L-44.05 7.0 -43.05 4.7 -41.45 -0.15 Q-40.9 -2.25 -40.9 -3.7 -40.9 -4.8 -41.2 -5.4 -41.5 -6.05 -42.8 -6.05 M-220.65 11.2 Q-221.5 12.5 -223.05 13.3 -224.6 14.05 -226.25 14.05 L-226.45 14.05 -226.7 14.05 -226.9 14.0 -227.1 13.95 -225.5 15.55 Q-224.5 16.2 -223.35 16.2 -219.65 16.2 -217.4 14.2 -215.2 12.25 -215.2 8.35 L-215.15 2.8 -215.15 -2.7 -220.55 4.55 Q-220.0 5.25 -219.75 6.15 L-219.55 7.9 -219.8 9.65 -220.65 11.2" fill="none" stroke="url(#gradient0)" stroke-linecap="round" stroke-linejoin="round" stroke-width="10.0"/>
    <path d="M179.35 -6.55 Q182.45 -7.4 185.7 -7.5 L186.5 -7.6 187.25 -7.6 192.55 -6.95 Q195.1 -6.3 196.95 -4.65 L198.45 -2.55 199.2 0.05 199.2 0.3 199.2 0.55 198.85 2.45 197.85 4.15 Q197.0 5.1 195.95 5.55 L193.55 6.0 193.2 6.0 192.85 5.9 191.45 5.6 190.15 5.0 Q189.2 4.35 188.6 3.45 188.0 2.5 187.85 1.45 L187.85 1.35 187.85 1.1 187.75 0.95 187.75 0.8 Q187.75 -0.9 188.9 -2.15 190.0 -3.4 191.65 -3.85 L190.75 -4.1 189.8 -4.15 189.35 -4.15 188.95 -4.05 188.55 -4.0 188.15 -3.85 Q185.55 -2.95 183.7 -0.2 181.75 2.6 181.1 5.75 L180.9 7.2 180.85 8.6 Q180.9 11.5 182.4 13.6 183.85 15.7 187.25 15.7 192.95 15.7 196.5 12.55 199.2 10.15 201.2 6.95 201.55 4.3 203.15 1.85 205.2 -1.3 208.6 -3.55 211.6 -5.45 215.25 -6.6 218.95 -7.65 222.9 -7.65 L224.05 -7.65 225.15 -7.6 Q228.35 -7.3 231.4 -6.25 234.4 -5.2 236.75 -3.0 238.7 -1.25 239.75 1.0 240.8 3.3 240.8 5.7 L240.65 7.45 240.2 9.3 242.0 8.7 Q242.8 8.3 243.55 7.4 L244.45 6.3 245.35 4.7 245.4 4.75 249.35 -6.7 263.2 -6.7 262.6 -5.05 Q264.3 -6.1 266.4 -6.8 268.5 -7.5 270.65 -7.65 L271.1 -7.65 271.55 -7.65 273.65 -7.5 275.7 -7.0 Q277.25 -6.5 278.5 -5.45 279.8 -4.35 280.3 -2.65 282.5 -5.0 285.25 -6.25 288.05 -7.5 291.0 -7.5 L293.2 -7.35 295.45 -6.75 Q298.35 -5.85 299.85 -3.7 301.3 -1.55 301.3 1.1 L301.15 2.9 300.65 4.75 300.2 6.0 299.6 7.7 299.45 8.15 299.3 8.6 298.75 10.55 298.5 12.05 298.5 12.25 298.55 12.5 298.8 12.55 299.3 12.55 300.05 12.45 300.75 12.15 302.85 10.45 304.7 8.1 306.0 6.15 306.85 4.6 310.55 6.35 307.95 11.0 Q308.75 10.7 309.6 10.55 L310.65 10.45 311.6 10.4 312.85 10.45 314.25 10.75 Q316.4 11.25 318.15 12.7 320.0 14.15 319.85 16.55 319.65 18.75 317.95 19.95 316.25 21.15 314.2 21.55 L312.8 21.8 311.5 21.85 310.5 21.8 309.55 21.65 Q307.2 21.2 305.35 19.75 303.7 18.45 303.6 16.3 299.8 19.9 293.15 19.9 L292.1 19.85 290.95 19.75 287.65 18.9 Q286.05 18.25 285.0 16.85 284.3 15.85 283.95 14.75 L283.7 12.55 283.7 11.5 283.85 10.5 284.5 8.05 285.3 5.7 285.6 4.9 286.15 3.55 286.35 2.9 286.55 2.15 286.85 1.0 286.95 0.05 286.7 -1.0 Q286.45 -1.4 285.85 -1.4 284.5 -1.4 283.3 -0.2 L281.25 2.45 280.45 4.05 279.85 5.4 278.65 8.85 277.45 12.3 276.2 15.8 275.05 19.25 260.4 19.25 261.95 14.8 263.55 10.3 265.05 5.85 266.6 1.4 266.8 0.55 266.9 -0.15 Q266.9 -0.9 266.55 -1.15 L265.6 -1.45 264.85 -1.35 264.05 -1.0 263.25 -0.5 262.45 0.3 260.05 3.9 Q258.75 6.25 257.25 10.15 L256.8 11.55 255.7 14.65 254.8 17.5 254.25 19.25 240.4 19.25 241.15 17.15 238.8 17.55 236.7 17.25 234.8 16.35 Q231.95 18.75 228.05 20.1 224.15 21.4 220.1 21.65 L219.45 21.65 218.75 21.65 Q214.9 21.65 211.35 20.5 207.8 19.3 205.1 17.05 203.0 15.1 202.0 12.95 L201.6 13.45 Q199.55 16.15 195.7 18.0 193.4 19.05 190.6 19.6 L184.95 20.15 184.5 20.15 184.0 20.15 Q179.7 19.9 175.75 18.5 171.8 17.05 169.25 13.85 167.95 12.15 167.3 10.4 166.7 8.65 166.7 6.9 166.7 3.5 168.75 0.4 170.8 -2.65 174.05 -4.5 176.25 -5.7 179.35 -6.55 M221.4 -1.8 L220.65 -1.0 Q218.95 0.95 217.95 3.55 216.9 6.05 216.45 8.75 L216.3 10.45 216.25 12.15 216.3 13.25 216.45 14.6 Q216.7 15.85 217.2 16.85 217.8 17.85 218.95 17.85 220.85 17.85 222.25 16.55 223.7 15.25 224.6 13.6 L225.05 12.95 225.4 12.2 Q224.25 11.4 223.6 10.2 222.95 8.95 222.95 7.55 L222.95 7.25 222.95 7.05 Q223.2 4.85 224.65 2.85 226.05 0.9 228.3 0.3 228.2 -2.0 227.45 -2.95 226.65 -4.0 225.5 -4.0 L223.85 -3.6 222.05 -2.45 221.4 -1.8 M331.7 -21.45 L346.25 -21.45 340.7 -5.2 Q342.55 -6.35 344.45 -6.95 L348.4 -7.5 350.05 -7.4 351.75 -7.1 Q355.9 -6.1 358.0 -3.2 360.2 -0.25 360.1 3.5 L359.95 5.05 359.7 6.7 Q358.4 12.75 353.4 15.75 348.4 18.8 342.7 19.55 L340.15 19.85 337.6 19.9 335.45 19.85 333.15 19.6 Q330.5 19.25 328.0 18.25 325.45 17.25 323.85 15.15 322.85 13.85 322.4 12.3 321.9 10.8 321.9 9.15 L321.95 8.3 322.05 7.4 322.45 5.6 322.95 3.85 327.35 -8.85 331.7 -21.45 M344.2 -2.2 Q342.55 -2.2 341.0 -0.55 339.45 1.1 338.25 3.05 L336.9 5.5 336.05 7.4 Q335.15 9.6 334.6 11.5 334.05 13.3 334.15 14.65 334.15 15.55 334.6 16.05 335.05 16.6 336.1 16.6 338.45 16.6 340.35 14.65 342.2 12.7 343.4 10.45 L344.4 8.5 345.15 6.65 345.4 5.9 345.75 4.85 346.05 3.65 346.35 2.3 346.45 1.5 346.5 0.75 Q346.5 -0.5 345.95 -1.4 345.45 -2.2 344.2 -2.2 M379.85 -8.2 Q382.25 -8.05 384.55 -7.0 386.75 -5.9 388.1 -3.75 L391.55 -6.0 Q393.4 -7.0 395.3 -7.65 L397.05 -8.05 398.7 -8.15 400.9 -7.85 Q401.95 -7.55 402.9 -6.95 L404.45 -5.3 405.2 -3.35 405.35 -2.45 405.35 -1.65 Q405.35 1.1 403.7 2.7 402.0 4.3 400.05 4.3 L399.9 4.3 399.8 4.3 Q398.25 4.3 396.85 3.25 395.45 2.25 394.85 -0.1 L394.3 -1.05 Q393.95 -1.4 393.55 -1.35 392.75 -1.35 391.85 -0.5 390.95 0.4 389.9 1.85 388.1 4.15 386.85 6.95 385.6 9.8 384.65 12.65 L383.8 15.1 383.0 17.5 382.7 18.35 382.45 19.25 368.75 19.25 374.9 2.1 375.05 1.55 375.05 1.2 Q375.05 0.4 374.4 0.1 L372.95 -0.1 Q371.0 0.15 369.55 1.7 368.05 3.25 367.1 5.05 L366.65 5.85 366.3 6.7 362.6 5.2 Q364.5 0.15 368.25 -3.85 372.0 -7.9 377.6 -8.2 L378.7 -8.3 379.85 -8.2 M162.75 19.95 Q161.05 21.15 159.0 21.55 L157.6 21.8 156.3 21.85 155.3 21.8 154.35 21.65 Q152.0 21.2 150.15 19.75 148.25 18.3 148.4 15.7 148.55 13.25 150.4 12.1 152.3 10.9 154.4 10.55 L155.45 10.45 156.4 10.4 157.65 10.45 159.05 10.75 Q161.2 11.25 162.95 12.7 164.8 14.15 164.65 16.55 164.45 18.75 162.75 19.95 Z" fill="none" stroke="url(#gradient1)" stroke-linecap="round" stroke-linejoin="round" stroke-width="10.0"/>
    <path d="M-21.0 -7.45 L-22.1 -4.15 -24.4 2.4 -26.65 9.0 -26.75 9.3 -26.8 9.7 -27.0 10.15 -27.1 10.75 -27.15 11.15 -27.15 11.5 -27.05 12.2 -26.55 12.65 -26.1 12.75 -25.6 12.7 -24.55 12.5 -23.55 12.0 -21.55 10.4 -19.75 8.3 -18.35 6.35 -17.5 4.7 -17.35 4.35 -17.15 4.0 -17.0 3.65 -16.85 3.3 -12.15 5.35 Q-15.5 12.45 -20.15 17.2 -24.85 21.95 -33.45 21.95 L-33.7 21.95 -33.9 21.95 Q-36.85 21.85 -39.4 20.6 -42.0 19.45 -43.2 16.6 -45.7 18.85 -48.8 20.25 -51.9 21.7 -55.2 21.95 L-55.95 22.05 -56.8 22.05 Q-59.95 21.95 -62.9 20.75 -65.8 19.6 -68.1 16.8 -69.8 14.7 -70.55 12.45 -71.3 10.2 -71.3 7.85 -71.3 3.75 -69.1 -0.15 -66.9 -4.05 -63.45 -6.7 -60.85 -8.65 -57.45 -9.95 -54.0 -11.25 -50.35 -11.45 L-49.6 -11.55 -48.8 -11.55 Q-45.95 -11.55 -43.2 -10.7 -40.55 -9.8 -38.35 -8.0 L-37.45 -10.75 -28.65 -10.75 -19.85 -10.75 -21.0 -7.45 M10.35 -2.95 L9.4 -1.95 Q8.05 -0.4 6.45 2.4 4.9 5.25 3.1 10.05 L2.5 11.75 1.2 15.55 0.1 19.0 -0.65 21.15 -17.5 21.15 -6.6 -10.5 10.3 -10.5 9.6 -8.55 Q11.7 -9.8 14.25 -10.65 16.8 -11.55 19.45 -11.7 L19.95 -11.7 20.5 -11.7 23.1 -11.55 25.55 -10.9 Q27.45 -10.25 29.0 -9.0 30.55 -7.65 31.15 -5.6 33.85 -8.45 37.25 -10.0 40.65 -11.55 44.25 -11.55 L46.95 -11.3 49.7 -10.6 Q53.25 -9.45 55.05 -6.85 56.85 -4.2 56.85 -1.0 L56.65 1.15 56.0 3.45 55.5 4.95 54.75 7.05 54.55 7.6 54.4 8.15 53.7 10.5 Q53.4 11.65 53.4 12.35 L53.4 12.6 53.5 12.9 53.8 13.0 54.4 13.0 55.3 12.85 56.2 12.45 58.75 10.4 61.0 7.55 62.5 5.4 62.7 3.75 63.35 1.1 Q65.15 -4.3 70.7 -7.35 76.2 -10.35 82.4 -11.2 L85.05 -11.45 87.65 -11.55 91.35 -11.35 94.7 -10.75 95.2 -10.55 95.7 -10.45 Q98.35 -9.75 100.65 -7.9 102.95 -6.1 103.0 -3.05 103.2 1.85 98.95 4.6 94.7 7.45 89.65 8.65 L84.2 9.7 79.7 9.85 Q80.15 13.1 82.2 14.9 84.2 16.65 87.55 16.65 94.3 16.65 98.95 12.85 103.55 9.05 106.2 3.3 L107.3 3.8 Q107.8 3.15 108.5 2.65 110.4 1.35 112.65 1.45 L113.15 1.45 113.6 1.45 114.0 1.5 114.45 1.6 122.5 -9.6 139.55 -13.9 140.2 -4.3 140.85 5.3 Q141.3 12.8 135.95 16.75 130.65 20.7 124.2 21.35 L122.6 21.45 121.15 21.5 119.25 21.45 117.25 21.25 Q114.65 20.95 112.15 19.95 109.65 19.0 107.85 17.1 106.6 15.55 106.05 13.85 L105.85 13.25 105.6 13.55 Q102.85 17.25 97.85 19.6 94.9 20.95 91.6 21.65 L84.85 22.25 83.8 22.25 82.75 22.15 78.55 21.7 74.45 20.6 Q69.25 18.8 65.85 15.1 L63.95 12.5 60.05 17.15 Q55.4 21.95 46.9 21.95 L45.6 21.9 44.2 21.75 40.15 20.75 Q38.25 19.95 36.95 18.25 36.05 17.0 35.65 15.7 35.3 14.35 35.3 12.95 L35.35 11.7 35.5 10.5 Q35.75 9.0 36.3 7.5 L37.3 4.6 37.65 3.65 38.3 2.0 38.6 1.15 38.85 0.3 39.15 -1.15 39.3 -2.3 39.0 -3.55 Q38.65 -4.05 37.95 -4.05 36.35 -4.05 34.9 -2.6 33.4 -1.1 32.35 0.65 L31.35 2.6 30.65 4.25 29.2 8.45 27.75 12.65 26.2 16.95 24.8 21.15 6.85 21.15 8.8 15.7 10.75 10.2 12.6 4.8 14.45 -0.65 14.7 -1.65 14.8 -2.55 Q14.8 -3.4 14.4 -3.75 14.0 -4.15 13.25 -4.15 L12.35 -4.0 11.35 -3.6 10.35 -2.95 M91.0 -7.75 Q87.65 -7.85 85.25 -5.25 82.75 -2.65 81.55 0.55 81.05 1.65 80.8 2.7 L80.35 4.7 82.6 4.45 84.95 3.9 Q88.35 3.0 91.25 0.9 94.05 -1.15 94.15 -4.85 94.15 -6.4 93.35 -7.05 92.5 -7.65 91.0 -7.75 M179.35 -6.55 Q182.45 -7.4 185.7 -7.5 L186.5 -7.6 187.25 -7.6 192.55 -6.95 Q195.1 -6.3 196.95 -4.65 L198.45 -2.55 199.2 0.05 199.2 0.3 199.2 0.55 198.85 2.45 197.85 4.15 Q197.0 5.1 195.95 5.55 L193.55 6.0 193.2 6.0 192.85 5.9 191.45 5.6 190.15 5.0 Q189.2 4.35 188.6 3.45 188.0 2.5 187.85 1.45 L187.85 1.35 187.85 1.1 187.75 0.95 187.75 0.8 Q187.75 -0.9 188.9 -2.15 190.0 -3.4 191.65 -3.85 L190.75 -4.1 189.8 -4.15 189.35 -4.15 188.95 -4.05 188.55 -4.0 188.15 -3.85 Q185.55 -2.95 183.7 -0.2 181.75 2.6 181.1 5.75 L180.9 7.2 180.85 8.6 Q180.9 11.5 182.4 13.6 183.85 15.7 187.25 15.7 192.95 15.7 196.5 12.55 199.2 10.15 201.2 6.95 201.55 4.3 203.15 1.85 205.2 -1.3 208.6 -3.55 211.6 -5.45 215.25 -6.6 218.95 -7.65 222.9 -7.65 L224.05 -7.65 225.15 -7.6 Q228.35 -7.3 231.4 -6.25 234.4 -5.2 236.75 -3.0 238.7 -1.25 239.75 1.0 240.8 3.3 240.8 5.7 L240.65 7.45 240.2 9.3 242.0 8.7 Q242.8 8.3 243.55 7.4 L244.45 6.3 245.35 4.7 245.4 4.75 249.35 -6.7 263.2 -6.7 262.6 -5.05 Q264.3 -6.1 266.4 -6.8 268.5 -7.5 270.65 -7.65 L271.1 -7.65 271.55 -7.65 273.65 -7.5 275.7 -7.0 Q277.25 -6.5 278.5 -5.45 279.8 -4.35 280.3 -2.65 282.5 -5.0 285.25 -6.25 288.05 -7.5 291.0 -7.5 L293.2 -7.35 295.45 -6.75 Q298.35 -5.85 299.85 -3.7 301.3 -1.55 301.3 1.1 L301.15 2.9 300.65 4.75 300.2 6.0 299.6 7.7 299.45 8.15 299.3 8.6 298.75 10.55 298.5 12.05 298.5 12.25 298.55 12.5 298.8 12.55 299.3 12.55 300.05 12.45 300.75 12.15 302.85 10.45 304.7 8.1 306.0 6.15 306.85 4.6 310.55 6.35 307.95 11.0 Q308.75 10.7 309.6 10.55 L310.65 10.45 311.6 10.4 312.85 10.45 314.25 10.75 Q316.4 11.25 318.15 12.7 320.0 14.15 319.85 16.55 319.65 18.75 317.95 19.95 316.25 21.15 314.2 21.55 L312.8 21.8 311.5 21.85 310.5 21.8 309.55 21.65 Q307.2 21.2 305.35 19.75 303.7 18.45 303.6 16.3 299.8 19.9 293.15 19.9 L292.1 19.85 290.95 19.75 287.65 18.9 Q286.05 18.25 285.0 16.85 284.3 15.85 283.95 14.75 L283.7 12.55 283.7 11.5 283.85 10.5 284.5 8.05 285.3 5.7 285.6 4.9 286.15 3.55 286.35 2.9 286.55 2.15 286.85 1.0 286.95 0.05 286.7 -1.0 Q286.45 -1.4 285.85 -1.4 284.5 -1.4 283.3 -0.2 L281.25 2.45 280.45 4.05 279.85 5.4 278.65 8.85 277.45 12.3 276.2 15.8 275.05 19.25 260.4 19.25 261.95 14.8 263.55 10.3 265.05 5.85 266.6 1.4 266.8 0.55 266.9 -0.15 Q266.9 -0.9 266.55 -1.15 L265.6 -1.45 264.85 -1.35 264.05 -1.0 263.25 -0.5 262.45 0.3 260.05 3.9 Q258.75 6.25 257.25 10.15 L256.8 11.55 255.7 14.65 254.8 17.5 254.25 19.25 240.4 19.25 241.15 17.15 238.8 17.55 236.7 17.25 234.8 16.35 Q231.95 18.75 228.05 20.1 224.15 21.4 220.1 21.65 L219.45 21.65 218.75 21.65 Q214.9 21.65 211.35 20.5 207.8 19.3 205.1 17.05 203.0 15.1 202.0 12.95 L201.6 13.45 Q199.55 16.15 195.7 18.0 193.4 19.05 190.6 19.6 L184.95 20.15 184.5 20.15 184.0 20.15 Q179.7 19.9 175.75 18.5 171.8 17.05 169.25 13.85 167.95 12.15 167.3 10.4 166.7 8.65 166.7 6.9 166.7 3.5 168.75 0.4 170.8 -2.65 174.05 -4.5 176.25 -5.7 179.35 -6.55 M221.4 -1.8 L220.65 -1.0 Q218.95 0.95 217.95 3.55 216.9 6.05 216.45 8.75 L216.3 10.45 216.25 12.15 216.3 13.25 216.45 14.6 Q216.7 15.85 217.2 16.85 217.8 17.85 218.95 17.85 220.85 17.85 222.25 16.55 223.7 15.25 224.6 13.6 L225.05 12.95 225.4 12.2 Q224.25 11.4 223.6 10.2 222.95 8.95 222.95 7.55 L222.95 7.25 222.95 7.05 Q223.2 4.85 224.65 2.85 226.05 0.9 228.3 0.3 228.2 -2.0 227.45 -2.95 226.65 -4.0 225.5 -4.0 L223.85 -3.6 222.05 -2.45 221.4 -1.8 M331.7 -21.45 L346.25 -21.45 340.7 -5.2 Q342.55 -6.35 344.45 -6.95 L348.4 -7.5 350.05 -7.4 351.75 -7.1 Q355.9 -6.1 358.0 -3.2 360.2 -0.25 360.1 3.5 L359.95 5.05 359.7 6.7 Q358.4 12.75 353.4 15.75 348.4 18.8 342.7 19.55 L340.15 19.85 337.6 19.9 335.45 19.85 333.15 19.6 Q330.5 19.25 328.0 18.25 325.45 17.25 323.85 15.15 322.85 13.85 322.4 12.3 321.9 10.8 321.9 9.15 L321.95 8.3 322.05 7.4 322.45 5.6 322.95 3.85 327.35 -8.85 331.7 -21.45 M344.2 -2.2 Q342.55 -2.2 341.0 -0.55 339.45 1.1 338.25 3.05 L336.9 5.5 336.05 7.4 Q335.15 9.6 334.6 11.5 334.05 13.3 334.15 14.65 334.15 15.55 334.6 16.05 335.05 16.6 336.1 16.6 338.45 16.6 340.35 14.65 342.2 12.7 343.4 10.45 L344.4 8.5 345.15 6.65 345.4 5.9 345.75 4.85 346.05 3.65 346.35 2.3 346.45 1.5 346.5 0.75 Q346.5 -0.5 345.95 -1.4 345.45 -2.2 344.2 -2.2 M379.85 -8.2 Q382.25 -8.05 384.55 -7.0 386.75 -5.9 388.1 -3.75 L391.55 -6.0 Q393.4 -7.0 395.3 -7.65 L397.05 -8.05 398.7 -8.15 400.9 -7.85 Q401.95 -7.55 402.9 -6.95 L404.45 -5.3 405.2 -3.35 405.35 -2.45 405.35 -1.65 Q405.35 1.1 403.7 2.7 402.0 4.3 400.05 4.3 L399.9 4.3 399.8 4.3 Q398.25 4.3 396.85 3.25 395.45 2.25 394.85 -0.1 L394.3 -1.05 Q393.95 -1.4 393.55 -1.35 392.75 -1.35 391.85 -0.5 390.95 0.4 389.9 1.85 388.1 4.15 386.85 6.95 385.6 9.8 384.65 12.65 L383.8 15.1 383.0 17.5 382.7 18.35 382.45 19.25 368.75 19.25 374.9 2.1 375.05 1.55 375.05 1.2 Q375.05 0.4 374.4 0.1 L372.95 -0.1 Q371.0 0.15 369.55 1.7 368.05 3.25 367.1 5.05 L366.65 5.85 366.3 6.7 362.6 5.2 Q364.5 0.15 368.25 -3.85 372.0 -7.9 377.6 -8.2 L378.7 -8.3 379.85 -8.2 M162.75 19.95 Q161.05 21.15 159.0 21.55 L157.6 21.8 156.3 21.85 155.3 21.8 154.35 21.65 Q152.0 21.2 150.15 19.75 148.25 18.3 148.4 15.7 148.55 13.25 150.4 12.1 152.3 10.9 154.4 10.55 L155.45 10.45 156.4 10.4 157.65 10.45 159.05 10.75 Q161.2 11.25 162.95 12.7 164.8 14.15 164.65 16.55 164.45 18.75 162.75 19.95 M124.05 8.4 L124.1 2.85 124.1 -2.65 118.7 4.6 119.5 6.2 119.7 7.95 119.45 9.7 118.6 11.25 Q117.75 12.55 116.2 13.35 114.65 14.1 113.0 14.1 L112.8 14.1 112.55 14.1 112.35 14.05 112.15 14.0 Q112.75 14.95 113.75 15.6 114.75 16.25 115.9 16.25 119.6 16.25 121.85 14.25 124.05 12.3 124.05 8.4 M-393.25 -4.15 L-393.1 -5.65 -392.6 -8.7 -391.75 -11.6 Q-388.85 -19.95 -381.15 -25.25 -373.45 -30.55 -364.85 -32.1 L-361.15 -32.6 -357.6 -32.8 -353.25 -32.65 -347.5 -32.0 Q-343.15 -31.25 -339.5 -29.4 -335.85 -27.55 -335.85 -23.85 -335.85 -21.1 -338.1 -19.35 -340.35 -17.6 -343.15 -17.4 L-343.4 -17.4 -343.6 -17.4 -345.9 -17.9 Q-347.05 -18.25 -347.95 -19.05 L-348.3 -19.35 -348.7 -19.7 -348.8 -19.75 -348.85 -19.85 -349.1 -20.05 -349.3 -20.25 -347.95 -21.6 -346.9 -23.05 -346.2 -24.3 -346.05 -25.45 Q-346.05 -26.5 -347.05 -27.15 -348.05 -27.8 -350.5 -27.8 -356.25 -27.8 -361.35 -21.8 -366.45 -15.8 -369.45 -8.5 L-369.85 -7.5 -370.25 -6.35 -370.4 -6.05 -370.5 -5.75 -371.6 -2.6 -372.35 0.8 -372.6 2.6 -372.7 4.35 -372.6 5.8 -372.35 7.25 Q-372.0 8.6 -371.25 9.15 -370.5 9.7 -369.65 9.7 L-369.0 9.65 -368.35 9.5 -366.65 8.6 -365.2 7.35 Q-363.85 5.7 -362.4 2.8 -360.95 -0.05 -359.4 -4.8 L-358.95 -6.1 -358.0 -9.0 -357.1 -11.45 -356.55 -13.0 -332.95 -13.0 -335.2 -6.45 -337.5 0.1 -339.8 6.75 -342.05 13.3 Q-345.8 24.05 -355.5 30.6 -365.2 37.15 -376.3 37.15 L-380.1 36.9 -383.9 36.25 Q-388.85 35.05 -391.3 32.85 -393.75 30.65 -394.3 28.2 L-394.45 27.4 -394.45 26.65 Q-394.4 23.3 -391.95 20.8 -389.5 18.3 -386.15 18.35 -384.65 18.35 -383.2 18.95 -381.75 19.5 -380.25 20.95 L-379.9 21.35 -379.5 21.7 -379.1 22.1 -378.75 22.5 -379.55 22.9 -380.45 23.4 Q-381.9 24.25 -383.2 25.4 -384.45 26.6 -384.35 28.4 L-384.35 28.7 -384.35 28.9 Q-384.15 30.45 -383.05 31.15 -381.9 31.9 -380.45 32.0 L-378.0 31.6 -375.35 30.0 -374.3 29.15 -373.25 28.1 Q-370.6 25.3 -369.0 21.95 -367.35 18.55 -366.2 14.95 L-368.95 15.7 -371.8 16.3 -373.2 16.45 -374.6 16.45 Q-379.1 16.45 -383.25 14.6 -387.35 12.75 -390.05 8.65 -391.75 6.05 -392.55 3.2 -393.3 0.3 -393.3 -2.7 L-393.25 -4.15 M-328.45 -20.6 L-328.2 -22.05 -327.45 -23.4 Q-326.2 -25.05 -324.15 -25.85 -322.1 -26.65 -319.95 -26.85 L-319.45 -26.85 -318.95 -26.85 -317.0 -26.7 -315.1 -26.25 -314.5 -26.1 -314.05 -25.9 Q-312.2 -25.1 -310.6 -23.65 -309.0 -22.2 -309.0 -20.15 L-309.1 -19.55 -309.2 -18.9 Q-309.75 -17.2 -311.2 -16.05 -312.6 -14.9 -314.25 -14.35 L-314.9 -14.25 -315.45 -14.1 -316.95 -13.9 -318.4 -13.85 -322.4 -14.3 Q-324.4 -14.8 -325.9 -16.0 -327.1 -16.85 -327.75 -18.1 -328.45 -19.35 -328.45 -20.6 M-325.85 -10.75 L-321.4 -10.75 -316.95 -10.75 -312.55 -10.75 -313.65 -7.45 -314.8 -4.15 -317.1 2.4 -319.3 9.0 -319.75 10.35 -319.95 11.6 Q-319.95 12.1 -319.55 12.45 -319.15 12.85 -318.15 12.7 -317.4 12.7 -316.3 12.15 -315.25 11.6 -314.05 10.5 -312.45 8.85 -311.45 7.05 L-310.05 4.45 -311.15 4.0 Q-308.85 -2.2 -304.3 -7.1 -299.7 -12.0 -292.85 -12.35 L-291.55 -12.45 -290.15 -12.35 Q-287.15 -12.2 -284.4 -10.85 -281.65 -9.55 -280.05 -6.95 L-275.85 -9.7 -271.25 -11.65 -269.15 -12.15 -267.1 -12.3 -264.4 -11.95 Q-263.15 -11.6 -261.95 -10.85 -260.8 -10.05 -260.1 -8.85 -259.45 -7.65 -259.15 -6.4 L-259.0 -5.3 -259.0 -4.35 Q-259.0 -1.0 -261.0 0.95 -263.05 2.9 -265.45 2.9 L-265.6 2.9 -265.75 2.9 Q-267.65 2.9 -269.35 1.6 -271.05 0.35 -271.8 -2.45 L-272.5 -3.65 Q-272.9 -4.1 -273.4 -4.0 -274.35 -4.0 -275.45 -2.95 L-277.85 -0.05 Q-280.05 2.7 -281.55 6.15 L-284.25 13.1 -285.3 16.1 -286.25 19.0 -286.6 20.05 -286.95 21.15 -303.65 21.15 -296.15 0.2 -296.0 -0.45 -296.0 -0.9 Q-296.0 -1.9 -296.8 -2.25 L-298.55 -2.45 Q-300.9 -2.2 -302.7 -0.3 -304.5 1.6 -305.65 3.8 L-306.2 4.75 Q-305.55 5.05 -304.85 5.45 L-305.3 6.3 -305.8 7.1 -308.9 12.7 Q-310.65 15.45 -313.1 17.6 -315.35 19.6 -318.35 20.7 -321.4 21.75 -324.65 21.95 L-325.05 21.95 -325.45 21.95 -328.2 21.75 -330.8 21.15 Q-334.25 19.95 -335.7 17.5 -337.1 15.0 -337.1 12.0 L-336.95 10.0 -336.55 7.85 -336.25 6.8 -335.95 5.8 -333.1 -2.5 -330.25 -10.75 -325.85 -10.75 M-246.45 -28.55 L-241.95 -28.55 -237.5 -28.55 -233.1 -28.55 -228.6 -28.55 -235.15 -9.75 -241.55 9.0 -242.1 10.5 -242.25 11.65 -241.8 12.5 -240.35 12.7 Q-239.65 12.7 -238.55 12.15 L-236.3 10.5 Q-234.65 8.85 -233.65 7.05 L-233.25 6.35 Q-232.85 4.9 -231.95 3.85 L-231.7 3.25 -231.5 3.35 -230.7 2.65 Q-228.8 1.35 -226.55 1.45 L-226.05 1.45 -225.6 1.45 -225.2 1.5 -224.75 1.6 -216.7 -9.6 -199.65 -13.9 -199.0 -4.3 -198.35 5.3 Q-197.9 12.8 -203.25 16.75 -208.55 20.7 -215.0 21.35 L-216.6 21.45 -218.05 21.5 -219.95 21.45 -221.95 21.25 Q-224.55 20.95 -227.05 19.95 -229.55 19.0 -231.35 17.1 L-232.8 14.7 -234.9 17.1 Q-239.3 21.95 -247.75 21.95 L-248.75 21.9 -249.65 21.85 Q-251.95 21.6 -254.1 20.7 -256.3 19.85 -257.65 17.95 -258.55 16.7 -258.95 15.15 -259.45 13.65 -259.45 12.1 L-259.4 11.4 -259.35 10.85 -258.9 8.25 -258.2 5.75 -252.25 -11.45 -246.45 -28.55 M-179.9 -0.6 L-182.35 2.4 Q-183.6 4.25 -184.45 6.2 L-185.4 8.95 -185.75 11.35 -185.65 12.25 -185.45 13.05 -184.9 13.7 -184.2 13.9 Q-181.6 13.9 -180.0 11.65 -178.35 9.35 -177.45 6.6 L-176.35 3.25 -175.5 0.55 -175.5 0.25 -175.55 -0.05 -175.85 -0.9 -176.6 -1.5 -176.8 -1.6 -176.95 -1.65 -177.2 -1.7 -177.45 -1.7 -178.65 -1.4 -179.9 -0.6 M-181.7 -5.8 L-181.0 -5.85 -177.45 -5.3 Q-175.65 -4.75 -174.05 -3.65 L-173.65 -4.95 -161.55 -4.95 -163.8 1.75 -166.1 8.4 -168.45 15.05 -170.75 21.75 Q-172.2 26.05 -176.5 28.8 -180.8 31.6 -185.65 32.25 L-186.85 32.35 -188.05 32.35 -191.9 31.95 Q-193.75 31.45 -195.3 30.55 -196.75 29.7 -197.7 28.3 -198.6 26.95 -198.85 25.5 L-198.95 24.85 -199.0 24.25 Q-198.9 22.7 -197.95 21.45 -197.05 20.15 -194.85 19.75 L-194.6 19.75 -194.3 19.7 -194.05 19.7 -193.8 19.7 Q-191.5 19.7 -190.1 21.15 -188.75 22.65 -188.65 24.4 L-188.65 24.5 -188.65 24.6 Q-188.65 25.85 -189.45 27.0 -190.25 28.2 -191.95 28.75 L-191.65 28.85 -191.3 28.95 -191.05 29.05 -190.75 29.05 Q-187.45 29.15 -185.65 26.7 -183.8 24.2 -182.65 21.3 L-181.85 18.95 -181.15 16.8 -182.9 17.4 -184.7 17.75 -185.6 17.85 -186.45 17.9 Q-190.5 17.9 -193.6 15.4 -196.7 12.9 -196.7 8.15 -196.7 2.65 -192.2 -1.3 -187.7 -5.3 -182.35 -5.75 L-181.7 -5.8 M-144.15 -2.4 L-145.55 -2.05 -147.1 -1.1 -147.7 -0.5 -148.3 0.15 Q-149.75 1.85 -150.6 4.0 -151.5 6.2 -151.9 8.45 L-152.0 9.95 -152.05 11.35 -152.05 12.3 -151.9 13.45 -151.25 15.4 Q-150.75 16.25 -149.75 16.25 -148.15 16.25 -146.95 15.15 -145.7 14.0 -144.95 12.65 L-144.55 12.05 -144.25 11.45 Q-145.25 10.75 -145.8 9.7 -146.35 8.65 -146.35 7.45 L-146.35 7.2 -146.35 7.0 Q-146.15 5.15 -144.9 3.45 -143.7 1.75 -141.8 1.25 -141.85 -0.7 -142.5 -1.55 -143.2 -2.4 -144.15 -2.4 M-152.9 -4.65 Q-149.75 -5.55 -146.4 -5.55 L-145.4 -5.5 -144.45 -5.5 Q-141.75 -5.25 -139.15 -4.35 -136.55 -3.4 -134.55 -1.55 -132.85 -0.05 -131.95 1.85 -131.1 3.8 -131.1 5.85 L-131.25 7.4 -131.6 8.95 -130.05 8.45 -128.75 7.3 -128.0 6.35 -127.45 5.55 -128.3 3.2 Q-129.05 0.3 -129.05 -2.7 L-129.0 -4.15 -128.85 -5.65 -128.35 -8.7 -127.5 -11.6 Q-124.6 -19.95 -116.9 -25.25 -109.2 -30.55 -100.6 -32.1 L-96.9 -32.6 -93.35 -32.8 -89.0 -32.65 -83.25 -32.0 Q-78.9 -31.25 -75.25 -29.4 -71.6 -27.55 -71.6 -23.85 -71.6 -21.1 -73.85 -19.35 -76.1 -17.6 -78.9 -17.4 L-79.15 -17.4 -79.35 -17.4 -81.65 -17.9 -83.7 -19.05 -84.05 -19.35 -84.45 -19.7 -84.55 -19.75 -84.6 -19.85 -84.85 -20.05 -85.05 -20.25 -83.7 -21.6 Q-83.05 -22.3 -82.65 -23.05 -82.15 -23.65 -81.95 -24.3 L-81.8 -25.45 Q-81.8 -26.5 -82.8 -27.15 -83.8 -27.8 -86.25 -27.8 -92.0 -27.8 -97.1 -21.8 -102.2 -15.8 -105.2 -8.5 L-105.6 -7.5 -106.0 -6.35 -106.15 -6.05 -106.25 -5.75 -107.35 -2.6 -108.1 0.8 -108.35 2.6 -108.45 4.35 -108.35 5.8 -108.1 7.25 Q-107.75 8.6 -107.0 9.15 -106.25 9.7 -105.4 9.7 L-104.75 9.65 -104.1 9.5 -102.4 8.6 -100.95 7.35 Q-99.6 5.7 -98.15 2.8 -96.7 -0.05 -95.15 -4.8 L-94.7 -6.1 -93.75 -9.0 -92.85 -11.45 -92.3 -13.0 -68.7 -13.0 -70.95 -6.45 -73.25 0.1 -75.55 6.75 -77.8 13.3 Q-81.55 24.05 -91.25 30.6 -100.95 37.15 -112.05 37.15 L-115.85 36.9 -119.65 36.25 Q-124.6 35.05 -127.05 32.85 -129.5 30.65 -130.05 28.2 L-130.2 27.4 -130.2 26.65 Q-130.15 23.3 -127.7 20.8 -125.25 18.3 -121.9 18.35 -120.4 18.35 -118.95 18.95 -117.5 19.5 -116.0 20.95 L-115.65 21.35 -115.25 21.7 -114.85 22.1 -114.5 22.5 -115.3 22.9 -116.2 23.4 -118.95 25.4 Q-120.2 26.6 -120.1 28.4 L-120.1 28.7 -120.1 28.9 Q-119.9 30.45 -118.8 31.15 -117.65 31.9 -116.2 32.0 L-113.75 31.6 Q-112.4 31.05 -111.1 30.0 L-110.05 29.15 -109.0 28.1 Q-106.35 25.3 -104.75 21.95 -103.1 18.55 -101.95 14.95 L-104.7 15.7 -107.55 16.3 -108.95 16.45 -110.35 16.45 Q-114.85 16.45 -119.0 14.6 -122.7 12.95 -125.2 9.5 L-125.75 10.45 Q-126.95 12.5 -128.75 14.25 -130.45 16.0 -132.8 16.0 L-134.6 15.7 -136.2 15.0 Q-138.65 17.0 -142.0 18.15 -145.3 19.25 -148.8 19.5 L-149.35 19.5 -149.95 19.5 Q-153.2 19.5 -156.25 18.5 -159.3 17.5 -161.6 15.55 -163.4 13.9 -164.25 12.05 -165.05 10.15 -165.05 8.3 -165.05 5.3 -163.3 2.6 -161.5 -0.1 -158.6 -2.05 -156.05 -3.65 -152.9 -4.65 M-42.7 -5.95 L-43.6 -5.85 -44.5 -5.6 Q-46.2 -4.85 -47.95 -3.05 L-51.05 0.8 -52.75 3.7 -53.9 6.05 -54.2 6.95 -54.6 8.4 -55.0 9.75 -55.25 11.15 -55.5 12.3 -55.55 13.45 Q-55.55 14.85 -55.1 15.7 -54.6 16.65 -53.45 16.65 -50.8 16.65 -48.8 14.45 -46.75 12.3 -45.3 9.7 L-43.95 7.1 -42.95 4.8 -41.35 -0.05 Q-40.8 -2.15 -40.8 -3.6 -40.8 -4.7 -41.1 -5.3 -41.4 -5.95 -42.7 -5.95 M-220.6 11.25 Q-221.45 12.55 -223.0 13.35 -224.55 14.1 -226.2 14.1 L-226.4 14.1 -226.65 14.1 -226.85 14.05 -227.05 14.0 -225.45 15.6 Q-224.45 16.25 -223.3 16.25 -219.6 16.25 -217.35 14.25 -215.15 12.3 -215.15 8.4 L-215.1 2.85 -215.1 -2.65 -220.5 4.6 Q-219.95 5.3 -219.7 6.2 L-219.5 7.95 -219.75 9.7 -220.6 11.25" fill="#ffffff" fill-rule="evenodd" stroke="none"/>
  </g>
  <defs>
    <linearGradient gradientTransform="matrix(0.0, 0.0488, -0.0649, 0.0, -116.95, 2.05)" gradientUnits="userSpaceOnUse" id="gradient0" spreadMethod="pad" x1="-819.2" x2="819.2">
      <stop offset="0.0" stop-color="#ef019d"/>
      <stop offset="1.0" stop-color="#5a015f"/>
    </linearGradient>
    <linearGradient gradientTransform="matrix(0.0, 0.0229, -0.112, 0.0, 179.0, 0.2)" gradientUnits="userSpaceOnUse" id="gradient1" spreadMethod="pad" x1="-819.2" x2="819.2">
      <stop offset="0.0" stop-color="#e60199"/>
      <stop offset="1.0" stop-color="#710168"/>
    </linearGradient>
  </defs>
</svg>
