<?xml version="1.0" encoding="UTF-8" standalone="no"?>
<svg xmlns:ffdec="https://www.free-decompiler.com/flash" xmlns:xlink="http://www.w3.org/1999/xlink" ffdec:objectType="shape" height="79.95px" width="755.4px" xmlns="http://www.w3.org/2000/svg">
  <g transform="matrix(1.0, 0.0, 0.0, 1.0, 378.55, 37.9)">
    <path d="M1.05 -10.85 L-0.1 -7.55 -1.2 -4.25 -3.5 2.3 -5.75 8.9 -5.85 9.2 -5.9 9.6 -6.1 10.05 -6.2 10.65 -6.25 11.05 -6.25 11.4 -6.15 12.1 -5.65 12.55 -5.2 12.65 -4.7 12.6 -3.65 12.4 -2.65 11.9 -0.65 10.3 1.15 8.2 2.55 6.25 3.4 4.6 3.55 4.25 3.75 3.9 3.9 3.55 4.05 3.2 8.75 5.25 Q5.4 12.35 0.75 17.1 -3.95 21.85 -12.55 21.85 L-12.8 21.85 -13.0 21.85 Q-15.95 21.75 -18.5 20.5 -21.1 19.35 -22.3 16.5 -24.8 18.75 -27.9 20.15 -31.0 21.6 -34.3 21.85 L-35.05 21.95 -35.9 21.95 Q-39.05 21.85 -42.0 20.65 -44.9 19.5 -47.2 16.7 -48.9 14.6 -49.65 12.35 -50.4 10.1 -50.4 7.75 -50.4 3.65 -48.2 -0.25 -46.0 -4.15 -42.55 -6.8 -39.95 -8.75 -36.55 -10.05 -33.1 -11.35 -29.45 -11.55 L-28.7 -11.65 -27.9 -11.65 Q-25.05 -11.65 -22.3 -10.8 -19.65 -9.9 -17.45 -8.1 L-16.55 -10.85 -7.75 -10.85 1.05 -10.85 M31.25 -3.05 L30.3 -2.05 Q28.95 -0.5 27.35 2.3 25.8 5.15 24.0 9.95 L23.4 11.65 22.1 15.45 21.0 18.9 20.25 21.05 3.4 21.05 14.3 -10.6 31.2 -10.6 30.5 -8.65 Q32.6 -9.9 35.15 -10.75 37.7 -11.65 40.35 -11.8 L40.85 -11.8 41.4 -11.8 44.0 -11.65 46.45 -11.0 Q48.35 -10.35 49.9 -9.1 51.45 -7.75 52.05 -5.7 54.75 -8.55 58.15 -10.1 61.55 -11.65 65.15 -11.65 L67.85 -11.4 70.6 -10.7 Q74.15 -9.55 75.95 -6.95 77.75 -4.3 77.75 -1.1 L77.55 1.05 76.9 3.35 76.4 4.85 75.65 6.95 75.45 7.5 75.3 8.05 74.6 10.4 Q74.3 11.55 74.3 12.25 L74.3 12.5 74.4 12.8 74.7 12.9 75.3 12.9 76.2 12.75 77.1 12.35 79.65 10.3 81.9 7.45 83.4 5.3 83.6 3.65 Q83.8 2.35 84.25 1.0 86.05 -4.4 91.6 -7.45 97.1 -10.45 103.3 -11.3 L105.95 -11.55 108.55 -11.65 112.25 -11.45 115.6 -10.85 116.1 -10.65 116.6 -10.55 Q119.25 -9.85 121.55 -8.0 123.85 -6.2 123.9 -3.15 124.1 1.75 119.85 4.5 115.6 7.35 110.55 8.55 L105.1 9.6 100.6 9.75 Q101.05 13.0 103.1 14.8 105.1 16.55 108.45 16.55 115.2 16.55 119.85 12.75 124.45 8.95 127.1 3.2 L128.2 3.7 129.4 2.55 Q131.3 1.25 133.55 1.35 L134.05 1.35 134.5 1.35 134.9 1.4 135.35 1.5 143.4 -9.7 160.45 -14.0 161.1 -4.4 161.75 5.2 Q162.2 12.4 157.3 16.3 L156.85 16.65 Q151.55 20.6 145.1 21.25 L143.5 21.35 142.05 21.4 140.15 21.35 138.15 21.15 Q135.55 20.85 133.05 19.85 130.55 18.9 128.75 17.0 127.5 15.45 126.95 13.75 L126.85 13.35 126.75 13.15 126.5 13.45 Q123.75 17.15 118.75 19.5 115.8 20.85 112.5 21.55 L105.75 22.15 104.7 22.15 103.65 22.05 99.45 21.6 95.35 20.5 Q90.15 18.7 86.75 15.0 L84.85 12.4 Q83.05 14.9 80.95 17.05 76.3 21.85 67.8 21.85 L66.5 21.8 65.1 21.65 61.05 20.65 Q59.15 19.85 57.85 18.15 56.95 16.9 56.55 15.6 56.2 14.25 56.2 12.85 L56.25 11.6 56.4 10.4 Q56.65 8.9 57.2 7.4 L58.2 4.5 58.55 3.55 59.2 1.9 59.5 1.05 59.75 0.2 60.05 -1.25 60.2 -2.4 59.9 -3.65 Q59.55 -4.15 58.85 -4.15 57.25 -4.15 55.8 -2.7 54.3 -1.2 53.25 0.55 L52.25 2.5 51.55 4.15 50.1 8.35 48.65 12.55 47.1 16.85 45.7 21.05 27.75 21.05 29.7 15.6 31.65 10.1 33.5 4.7 35.35 -0.75 35.6 -1.75 35.7 -2.65 Q35.7 -3.5 35.3 -3.85 34.9 -4.25 34.15 -4.25 L33.25 -4.1 32.25 -3.7 31.25 -3.05 M111.9 -7.85 Q108.55 -7.95 106.15 -5.35 103.65 -2.75 102.45 0.45 101.95 1.55 101.7 2.6 L101.25 4.6 103.5 4.35 105.85 3.8 Q109.25 2.9 112.15 0.8 114.95 -1.25 115.05 -4.95 115.05 -6.5 114.25 -7.15 113.4 -7.75 111.9 -7.85 M145.0 2.75 L145.0 -2.75 139.6 4.5 140.4 6.1 140.6 7.85 140.35 9.6 139.5 11.15 Q138.65 12.45 137.1 13.25 135.55 14.0 133.9 14.0 L133.7 14.0 133.45 14.0 133.25 13.95 133.05 13.9 Q133.65 14.85 134.65 15.5 135.65 16.15 136.8 16.15 140.5 16.15 142.75 14.15 144.95 12.2 144.95 8.3 L145.0 2.75 M-372.35 -4.25 L-372.2 -5.75 -371.7 -8.8 -370.85 -11.7 Q-367.95 -20.05 -360.25 -25.35 -352.55 -30.65 -343.95 -32.2 L-340.25 -32.7 -336.7 -32.9 -332.35 -32.75 -326.6 -32.1 Q-322.25 -31.35 -318.6 -29.5 -314.95 -27.65 -314.95 -23.95 -314.95 -21.2 -317.2 -19.45 -319.45 -17.7 -322.25 -17.5 L-322.5 -17.5 -322.7 -17.5 -325.0 -18.0 -327.05 -19.15 -327.4 -19.45 -327.8 -19.8 -327.9 -19.85 -327.95 -19.95 -328.2 -20.15 -328.4 -20.35 -327.05 -21.7 -326.0 -23.15 Q-325.5 -23.75 -325.3 -24.4 L-325.15 -25.55 Q-325.15 -26.6 -326.15 -27.25 -327.15 -27.9 -329.6 -27.9 -335.35 -27.9 -340.45 -21.9 -345.55 -15.9 -348.55 -8.6 L-348.95 -7.6 -349.35 -6.45 -349.5 -6.15 -349.6 -5.85 -350.7 -2.7 -351.45 0.7 -351.7 2.5 -351.8 4.25 -351.7 5.7 -351.45 7.15 Q-351.1 8.5 -350.35 9.05 -349.6 9.6 -348.75 9.6 L-348.1 9.55 -347.45 9.4 Q-346.6 9.05 -345.75 8.5 L-344.3 7.25 Q-342.95 5.6 -341.5 2.7 -340.05 -0.15 -338.5 -4.9 L-338.05 -6.2 -337.1 -9.1 -336.2 -11.55 -335.65 -13.1 -312.05 -13.1 -314.3 -6.55 -316.6 0.0 -318.9 6.65 -321.15 13.2 Q-324.9 23.95 -334.6 30.5 -344.3 37.05 -355.4 37.05 L-359.2 36.8 -363.0 36.15 Q-367.95 34.95 -370.4 32.75 -372.85 30.55 -373.4 28.1 L-373.55 27.3 -373.55 26.55 Q-373.5 23.2 -371.05 20.7 -368.6 18.2 -365.25 18.25 -363.75 18.25 -362.3 18.85 -360.85 19.4 -359.35 20.85 L-359.0 21.25 -358.6 21.6 -358.2 22.0 -357.85 22.4 -358.65 22.8 -359.55 23.3 -362.3 25.3 Q-363.55 26.5 -363.45 28.3 L-363.45 28.6 -363.45 28.8 Q-363.25 30.35 -362.15 31.05 -361.0 31.8 -359.55 31.9 L-357.1 31.5 Q-355.75 30.95 -354.45 29.9 L-353.4 29.05 -352.35 28.0 Q-349.7 25.2 -348.1 21.85 -346.45 18.45 -345.3 14.85 L-348.05 15.6 -350.9 16.2 -352.3 16.35 -353.7 16.35 Q-358.2 16.35 -362.35 14.5 -366.45 12.65 -369.15 8.55 -370.85 5.95 -371.65 3.1 -372.4 0.2 -372.4 -2.8 L-372.35 -4.25 M-307.3 -22.15 L-306.55 -23.5 Q-305.3 -25.15 -303.25 -25.95 -301.2 -26.75 -299.05 -26.95 L-298.55 -26.95 -298.05 -26.95 -296.1 -26.8 -294.2 -26.35 -293.6 -26.2 -293.15 -26.0 Q-291.3 -25.2 -289.7 -23.75 -288.1 -22.3 -288.1 -20.25 L-288.2 -19.65 -288.3 -19.0 Q-288.85 -17.3 -290.3 -16.15 -291.7 -15.0 -293.35 -14.45 L-294.0 -14.35 -294.55 -14.2 -296.05 -14.0 -297.5 -13.95 -301.5 -14.4 Q-303.5 -14.9 -305.0 -16.1 -306.2 -16.95 -306.85 -18.2 -307.55 -19.45 -307.55 -20.7 L-307.3 -22.15 M-304.95 -10.85 L-300.5 -10.85 -296.05 -10.85 -291.65 -10.85 -292.75 -7.55 -293.9 -4.25 -296.2 2.3 -298.4 8.9 -298.85 10.25 -299.05 11.5 Q-299.05 12.0 -298.65 12.35 -298.25 12.75 -297.25 12.6 -296.5 12.6 -295.4 12.05 -294.35 11.5 -293.15 10.4 -291.55 8.75 -290.55 6.95 L-289.15 4.35 -290.25 3.9 Q-287.95 -2.3 -283.4 -7.2 -278.8 -12.1 -271.95 -12.45 L-270.65 -12.55 -269.25 -12.45 Q-266.25 -12.3 -263.5 -10.95 -260.75 -9.65 -259.15 -7.05 L-254.95 -9.8 -250.35 -11.75 -248.25 -12.25 -246.2 -12.4 -243.5 -12.05 Q-242.25 -11.7 -241.05 -10.95 -239.9 -10.15 -239.2 -8.95 -238.55 -7.75 -238.25 -6.5 L-238.1 -5.4 -238.1 -4.45 Q-238.1 -1.1 -240.1 0.85 -242.15 2.8 -244.55 2.8 L-244.7 2.8 -244.85 2.8 Q-246.75 2.8 -248.45 1.5 -250.15 0.25 -250.9 -2.55 -251.2 -3.35 -251.6 -3.75 -252.0 -4.2 -252.5 -4.1 -253.45 -4.1 -254.55 -3.05 L-256.95 -0.15 Q-259.15 2.6 -260.65 6.05 L-263.35 13.0 -264.4 16.0 -265.35 18.9 -265.7 19.95 -266.05 21.05 -282.75 21.05 -275.25 0.1 Q-275.1 -0.25 -275.1 -0.55 L-275.1 -1.0 Q-275.1 -2.0 -275.9 -2.35 L-277.65 -2.55 Q-280.0 -2.3 -281.8 -0.4 -283.6 1.5 -284.75 3.7 L-285.3 4.65 -283.95 5.35 -284.4 6.2 -284.9 7.0 -288.0 12.6 Q-289.75 15.35 -292.2 17.5 -294.45 19.5 -297.45 20.6 -300.5 21.65 -303.75 21.85 L-304.55 21.85 -307.3 21.65 -309.9 21.05 Q-313.35 19.85 -314.8 17.4 -316.2 14.9 -316.2 11.9 L-316.05 9.9 -315.65 7.75 -315.35 6.7 -315.05 5.7 -312.2 -2.6 -309.35 -10.85 -304.95 -10.85 M-225.55 -28.65 L-221.05 -28.65 -216.6 -28.65 -212.2 -28.65 -207.7 -28.65 -214.25 -9.85 -220.65 8.9 -221.2 10.4 -221.35 11.55 -220.9 12.4 -219.45 12.6 Q-218.75 12.6 -217.65 12.05 L-215.4 10.4 Q-213.75 8.75 -212.75 6.95 L-212.35 6.25 Q-211.95 4.8 -211.05 3.75 L-210.8 3.15 -210.6 3.25 -209.8 2.55 Q-207.9 1.25 -205.65 1.35 L-205.15 1.35 -204.7 1.35 -204.3 1.4 -203.85 1.5 -195.8 -9.7 -178.75 -14.0 -178.1 -4.4 -177.45 5.2 Q-177.0 12.7 -182.35 16.65 -187.65 20.6 -194.1 21.25 L-195.7 21.35 -197.15 21.4 -199.05 21.35 -201.05 21.15 Q-203.65 20.85 -206.15 19.85 -208.65 18.9 -210.45 17.0 L-211.9 14.6 -214.0 17.0 Q-218.4 21.85 -226.85 21.85 L-227.85 21.8 -228.75 21.75 Q-231.05 21.5 -233.2 20.6 -235.4 19.75 -236.75 17.85 -237.65 16.6 -238.05 15.05 -238.55 13.55 -238.55 12.0 L-238.5 11.3 -238.45 10.75 -238.0 8.15 -237.3 5.65 -231.35 -11.55 -225.55 -28.65 M-167.85 -3.85 Q-164.8 -5.55 -161.45 -5.85 L-160.8 -5.9 -160.1 -5.95 -156.55 -5.4 Q-154.75 -4.85 -153.15 -3.75 L-152.75 -5.05 -140.65 -5.05 -142.9 1.65 -144.1 5.15 -145.2 8.3 -147.55 14.95 -149.85 21.65 Q-151.3 25.95 -155.6 28.7 -159.9 31.5 -164.75 32.15 L-165.95 32.25 -167.15 32.25 -167.85 32.25 -171.0 31.85 Q-172.85 31.35 -174.4 30.45 -175.85 29.6 -176.8 28.2 -177.7 26.85 -177.95 25.4 L-178.05 24.75 -178.1 24.15 Q-178.0 22.6 -177.05 21.35 -176.15 20.05 -173.95 19.65 L-173.7 19.65 -173.4 19.6 -173.15 19.6 -172.9 19.6 Q-170.6 19.6 -169.2 21.05 -168.15 22.25 -167.85 23.6 L-167.75 24.3 -167.75 24.4 -167.75 24.5 -167.85 25.4 Q-168.05 26.15 -168.55 26.9 -169.1 27.75 -170.15 28.3 L-171.05 28.65 -170.75 28.75 -170.4 28.85 -170.15 28.95 -169.85 28.95 -167.85 28.75 Q-165.95 28.25 -164.75 26.6 -162.9 24.1 -161.75 21.2 L-160.95 18.85 -160.25 16.7 -162.0 17.3 -163.8 17.65 -164.7 17.75 -165.55 17.8 -167.85 17.6 Q-170.5 17.05 -172.7 15.3 -175.8 12.8 -175.8 8.05 -175.8 2.55 -171.3 -1.4 -169.65 -2.9 -167.85 -3.85 M-159.0 -0.7 L-161.45 2.3 Q-162.7 4.15 -163.55 6.1 L-164.5 8.85 -164.85 11.25 -164.75 12.15 -164.55 12.95 -164.0 13.6 -163.3 13.8 Q-160.7 13.8 -159.1 11.55 -157.45 9.25 -156.55 6.5 L-155.45 3.15 -154.6 0.45 -154.6 0.15 -154.65 -0.15 -154.95 -1.0 Q-155.2 -1.4 -155.7 -1.6 L-155.9 -1.7 -156.05 -1.75 -156.3 -1.8 -156.55 -1.8 -157.75 -1.5 -159.0 -0.7 M-132.0 -4.75 Q-128.85 -5.65 -125.5 -5.65 L-124.5 -5.6 -123.55 -5.6 -118.25 -4.45 Q-115.65 -3.5 -113.65 -1.65 -111.95 -0.15 -111.05 1.75 -110.2 3.7 -110.2 5.75 L-110.35 7.3 -110.7 8.85 -109.15 8.35 -107.85 7.2 -107.1 6.25 -106.55 5.45 -107.4 3.1 Q-108.15 0.2 -108.15 -2.8 L-108.1 -4.25 -107.95 -5.75 -107.45 -8.8 -106.6 -11.7 Q-103.7 -20.05 -96.0 -25.35 -88.3 -30.65 -79.7 -32.2 L-76.0 -32.7 -72.45 -32.9 -68.1 -32.75 -62.35 -32.1 Q-58.0 -31.35 -54.35 -29.5 -50.7 -27.65 -50.7 -23.95 -50.7 -21.2 -52.95 -19.45 -55.2 -17.7 -58.0 -17.5 L-58.25 -17.5 -58.45 -17.5 -60.75 -18.0 -62.8 -19.15 -63.15 -19.45 -63.55 -19.8 -63.65 -19.85 -63.7 -19.95 -63.95 -20.15 -64.15 -20.35 -62.8 -21.7 -61.75 -23.15 Q-61.25 -23.75 -61.05 -24.4 L-60.9 -25.55 Q-60.9 -26.6 -61.9 -27.25 -62.9 -27.9 -65.35 -27.9 -71.1 -27.9 -76.2 -21.9 -81.3 -15.9 -84.3 -8.6 L-84.7 -7.6 -85.1 -6.45 -85.25 -6.15 -85.35 -5.85 -86.45 -2.7 -87.2 0.7 -87.45 2.5 -87.55 4.25 -87.45 5.7 -87.2 7.15 Q-86.85 8.5 -86.1 9.05 -85.35 9.6 -84.5 9.6 L-83.85 9.55 -83.2 9.4 -81.5 8.5 -80.05 7.25 Q-78.7 5.6 -77.25 2.7 -75.8 -0.15 -74.25 -4.9 L-73.8 -6.2 -72.85 -9.1 -71.95 -11.55 -71.4 -13.1 -47.8 -13.1 -50.05 -6.55 -52.35 0.0 -54.65 6.65 -56.9 13.2 Q-60.65 23.95 -70.35 30.5 -80.05 37.05 -91.15 37.05 L-94.95 36.8 -98.75 36.15 Q-103.7 34.95 -106.15 32.75 -108.6 30.55 -109.15 28.1 L-109.3 27.3 -109.3 26.55 Q-109.25 23.2 -106.8 20.7 -104.35 18.2 -101.0 18.25 -99.5 18.25 -98.05 18.85 -96.6 19.4 -95.1 20.85 L-94.75 21.25 -94.35 21.6 -93.95 22.0 -93.6 22.4 -94.4 22.8 -95.3 23.3 -98.05 25.3 Q-99.3 26.5 -99.2 28.3 L-99.2 28.6 -99.2 28.8 Q-99.0 30.35 -97.9 31.05 -96.75 31.8 -95.3 31.9 L-92.85 31.5 Q-91.5 30.95 -90.2 29.9 L-89.15 29.05 -88.1 28.0 Q-85.45 25.2 -83.85 21.85 -82.2 18.45 -81.05 14.85 L-83.8 15.6 -86.65 16.2 -88.05 16.35 -89.45 16.35 Q-93.95 16.35 -98.1 14.5 -101.8 12.85 -104.3 9.4 L-104.85 10.35 Q-106.05 12.4 -107.85 14.15 -109.55 15.9 -111.9 15.9 L-113.7 15.6 -115.3 14.9 Q-117.75 16.9 -121.1 18.05 -124.4 19.15 -127.9 19.4 L-128.45 19.4 -129.05 19.4 Q-132.3 19.4 -135.35 18.4 -138.4 17.4 -140.7 15.45 -142.5 13.8 -143.35 11.95 -144.15 10.05 -144.15 8.2 -144.15 6.7 -143.7 5.3 -143.25 3.85 -142.4 2.5 -140.6 -0.2 -137.7 -2.15 -135.15 -3.75 -132.0 -4.75 M-124.65 -2.15 L-126.2 -1.2 -126.8 -0.6 -127.4 0.05 Q-128.85 1.75 -129.7 3.9 -130.6 6.1 -131.0 8.35 L-131.1 9.85 -131.15 11.25 -131.15 12.2 -131.0 13.35 -130.35 15.3 Q-129.85 16.15 -128.85 16.15 -127.25 16.15 -126.05 15.05 -124.8 13.9 -124.05 12.55 L-123.65 11.95 -123.35 11.35 Q-124.35 10.65 -124.9 9.6 -125.45 8.55 -125.45 7.35 L-125.45 7.1 -125.45 6.9 Q-125.25 5.05 -124.0 3.35 -122.8 1.65 -120.9 1.15 -120.95 -0.8 -121.6 -1.65 -122.3 -2.5 -123.25 -2.5 L-124.65 -2.15 M-27.05 -3.15 L-30.15 0.7 -31.85 3.6 -33.0 5.95 -33.3 6.85 -33.7 8.3 -34.1 9.65 -34.35 11.05 -34.6 12.2 -34.65 13.35 Q-34.65 14.75 -34.2 15.6 -33.7 16.55 -32.55 16.55 -29.9 16.55 -27.9 14.35 -25.85 12.2 -24.4 9.6 L-23.05 7.0 -22.05 4.7 -20.45 -0.15 Q-19.9 -2.25 -19.9 -3.7 -19.9 -4.8 -20.2 -5.4 -20.5 -6.05 -21.8 -6.05 L-22.7 -5.95 -23.6 -5.7 Q-25.3 -4.95 -27.05 -3.15 M-198.75 6.15 L-198.55 7.9 -198.8 9.65 -199.65 11.2 Q-200.5 12.5 -202.05 13.3 -203.6 14.05 -205.25 14.05 L-205.45 14.05 -205.7 14.05 -205.9 14.0 -206.1 13.95 -204.5 15.55 Q-203.5 16.2 -202.35 16.2 -198.65 16.2 -196.4 14.2 -194.2 12.25 -194.2 8.35 L-194.15 2.8 -194.15 -2.7 -199.55 4.55 Q-199.0 5.25 -198.75 6.15" fill="none" stroke="url(#gradient0)" stroke-linecap="round" stroke-linejoin="round" stroke-width="10.0"/>
    <path d="M199.35 -6.15 Q202.45 -7.0 205.7 -7.1 L206.5 -7.2 207.25 -7.2 212.55 -6.55 Q215.1 -5.9 216.95 -4.25 L218.45 -2.15 219.2 0.45 219.2 0.7 219.2 0.95 218.85 2.85 217.85 4.55 Q217.0 5.5 215.95 5.95 L213.55 6.4 213.2 6.4 212.85 6.3 211.45 6.0 210.15 5.4 Q209.2 4.75 208.6 3.85 208.0 2.9 207.85 1.85 L207.85 1.75 207.85 1.5 207.75 1.35 207.75 1.2 Q207.75 -0.5 208.9 -1.75 210.0 -3.0 211.65 -3.45 L210.75 -3.7 209.8 -3.75 209.35 -3.75 208.95 -3.65 208.55 -3.6 208.15 -3.45 Q205.55 -2.55 203.7 0.2 201.75 3.0 201.1 6.15 L200.9 7.6 200.85 9.0 Q200.9 11.9 202.4 14.0 203.85 16.1 207.25 16.1 212.95 16.1 216.5 12.95 219.2 10.55 221.2 7.35 221.55 4.7 223.15 2.25 225.2 -0.9 228.6 -3.15 231.6 -5.05 235.25 -6.2 238.95 -7.25 242.9 -7.25 L244.05 -7.25 245.15 -7.2 Q248.35 -6.9 251.4 -5.85 254.4 -4.8 256.75 -2.6 258.7 -0.85 259.75 1.4 260.8 3.7 260.8 6.1 L260.65 7.85 260.2 9.7 262.0 9.1 Q262.8 8.7 263.55 7.8 L264.45 6.7 265.35 5.1 269.4 6.85 268.35 8.95 267.05 11.45 266.2 12.8 266.6 12.5 Q268.5 11.3 270.6 10.95 L271.65 10.85 272.6 10.8 273.85 10.85 275.25 11.15 Q277.4 11.65 279.15 13.1 281.0 14.55 280.85 16.95 280.65 19.15 278.95 20.35 277.25 21.55 275.2 21.95 L273.8 22.2 272.5 22.25 271.5 22.2 270.55 22.05 Q268.2 21.6 266.35 20.15 264.45 18.7 264.6 16.1 264.65 15.1 265.0 14.35 L263.55 15.95 Q261.55 17.95 258.8 17.95 L256.7 17.65 254.8 16.75 Q251.95 19.15 248.05 20.5 244.15 21.8 240.1 22.05 L239.45 22.05 238.75 22.05 Q234.9 22.05 231.35 20.9 227.8 19.7 225.1 17.45 223.0 15.5 222.0 13.35 L221.6 13.85 Q219.55 16.55 215.7 18.4 213.4 19.45 210.6 20.0 L204.95 20.55 204.5 20.55 204.0 20.55 Q199.7 20.3 195.75 18.9 191.8 17.45 189.25 14.25 187.95 12.55 187.3 10.8 186.7 9.05 186.7 7.3 186.7 3.9 188.75 0.8 190.8 -2.25 194.05 -4.1 196.25 -5.3 199.35 -6.15" fill="none" stroke="url(#gradient1)" stroke-linecap="round" stroke-linejoin="round" stroke-width="10.0"/>
    <path d="M240.65 -0.6 Q238.95 1.35 237.95 3.95 236.9 6.45 236.45 9.15 L236.3 10.85 236.25 12.55 236.3 13.65 236.45 15.0 237.2 17.25 Q237.8 18.25 238.95 18.25 240.85 18.25 242.25 16.95 243.7 15.65 244.6 14.0 L245.05 13.35 245.4 12.6 Q244.25 11.8 243.6 10.6 242.95 9.35 242.95 7.95 L242.95 7.65 242.95 7.45 Q243.2 5.25 244.65 3.25 246.05 1.3 248.3 0.7 248.2 -1.6 247.45 -2.55 246.65 -3.6 245.5 -3.6 L243.85 -3.2 Q242.95 -2.8 242.05 -2.05 L241.4 -1.4 240.65 -0.6" fill="none" stroke="url(#gradient2)" stroke-linecap="round" stroke-linejoin="round" stroke-width="10.0"/>
    <path d="M288.4 -6.75 L302.45 -6.75 301.0 -2.6 299.65 1.5 298.2 5.65 296.75 9.8 296.6 10.45 296.45 11.05 Q296.45 11.5 296.7 11.8 L297.65 12.1 Q298.4 12.1 299.45 11.5 300.5 11.0 301.8 9.4 303.4 7.6 304.55 5.1 L306.65 0.05 307.45 -2.35 308.3 -4.8 308.45 -5.3 308.65 -5.85 308.7 -6.15 308.85 -6.35 308.85 -6.45 308.9 -6.45 308.95 -6.6 308.95 -6.75 311.3 -6.75 313.65 -6.75 318.25 -6.75 322.95 -6.75 321.5 -2.7 320.15 1.3 318.75 5.4 317.3 9.4 317.05 10.5 316.95 11.35 Q316.95 11.95 317.2 12.2 L317.9 12.45 318.85 12.25 320.0 11.75 320.7 11.1 321.45 10.55 Q322.9 9.3 323.75 7.85 L325.4 4.7 327.95 5.9 337.25 -21.05 351.35 -21.05 345.8 -4.8 Q347.6 -5.85 349.65 -6.5 L353.8 -7.2 354.4 -7.25 355.0 -7.25 357.75 -7.05 360.2 -6.35 Q362.15 -5.8 363.65 -4.4 365.15 -3.05 365.15 -0.9 365.15 1.75 363.15 3.55 361.2 5.4 358.9 6.45 L357.85 6.8 356.85 7.15 356.7 8.0 356.7 8.85 Q356.7 10.4 357.4 11.65 358.1 12.95 359.8 13.3 L360.15 13.35 360.6 13.35 361.3 13.3 361.95 13.15 Q363.85 12.55 365.05 10.85 L367.05 7.35 367.55 6.15 368.05 5.0 371.85 6.7 369.2 12.2 Q367.7 14.9 365.3 16.9 363.25 18.55 360.6 19.45 357.95 20.3 354.4 20.3 L349.8 19.7 Q347.7 19.05 346.15 17.5 344.55 15.9 343.85 13.8 343.15 11.75 342.85 9.5 L342.7 7.85 342.65 6.3 342.8 6.3 343.0 6.15 344.2 5.75 345.45 5.3 348.7 3.75 Q350.25 2.85 351.25 1.35 L351.6 0.55 351.75 -0.2 351.25 -1.25 Q350.75 -1.65 349.95 -1.65 L349.8 -1.65 349.65 -1.65 349.55 -1.6 349.35 -1.6 Q347.2 -1.25 345.55 0.55 343.9 2.25 342.85 4.25 L342.45 5.15 342.1 6.05 337.4 19.65 323.2 19.65 325.5 13.0 322.35 16.45 Q320.3 18.15 317.7 19.05 315.2 20.0 311.85 20.0 308.65 20.0 306.3 18.55 303.9 17.05 303.4 13.7 300.9 16.4 297.5 18.25 294.15 20.1 290.35 20.1 286.3 20.1 284.45 17.65 282.5 15.3 282.5 12.1 282.5 11.0 282.8 9.85 283.0 8.75 283.35 7.75 L284.65 4.1 285.9 0.5 287.1 -3.2 288.4 -6.75" fill="none" stroke="url(#gradient3)" stroke-linecap="round" stroke-linejoin="round" stroke-width="10.0"/>
    <path d="M182.75 20.35 Q181.05 21.55 179.0 21.95 L177.6 22.2 176.3 22.25 175.3 22.2 174.35 22.05 Q172.0 21.6 170.15 20.15 168.25 18.7 168.4 16.1 168.55 13.65 170.4 12.5 172.3 11.3 174.4 10.95 L175.45 10.85 176.4 10.8 177.65 10.85 179.05 11.15 Q181.2 11.65 182.95 13.1 184.8 14.55 184.65 16.95 184.45 19.15 182.75 20.35 Z" fill="none" stroke="url(#gradient4)" stroke-linecap="round" stroke-linejoin="round" stroke-width="10.0"/>
    <path d="M1.15 -10.75 L0.0 -7.45 -1.1 -4.15 -3.4 2.4 -5.65 9.0 -5.75 9.3 -5.8 9.7 -6.0 10.15 -6.1 10.75 -6.15 11.15 -6.15 11.5 -6.05 12.2 -5.55 12.65 -5.1 12.75 -4.6 12.7 -3.55 12.5 -2.55 12.0 -0.55 10.4 1.25 8.3 2.65 6.35 3.5 4.7 3.65 4.35 3.85 4.0 Q3.85 3.8 4.0 3.65 L4.15 3.3 8.85 5.35 Q5.5 12.45 0.85 17.2 -3.85 21.95 -12.45 21.95 L-12.7 21.95 -12.9 21.95 Q-15.85 21.85 -18.4 20.6 -21.0 19.45 -22.2 16.6 -24.7 18.85 -27.8 20.25 -30.9 21.7 -34.2 21.95 L-34.95 22.05 -35.8 22.05 Q-38.95 21.95 -41.9 20.75 -44.8 19.6 -47.1 16.8 -48.8 14.7 -49.55 12.45 -50.3 10.2 -50.3 7.85 -50.3 3.75 -48.1 -0.15 -45.9 -4.05 -42.45 -6.7 -39.85 -8.65 -36.45 -9.95 -33.0 -11.25 -29.35 -11.45 L-28.6 -11.55 -27.8 -11.55 Q-24.95 -11.55 -22.2 -10.7 -19.55 -9.8 -17.35 -8.0 L-16.45 -10.75 -7.65 -10.75 1.15 -10.75 M35.7 -1.65 L35.8 -2.55 Q35.8 -3.4 35.4 -3.75 35.0 -4.15 34.25 -4.15 L33.35 -4.0 32.35 -3.6 31.35 -2.95 30.4 -1.95 Q29.05 -0.4 27.45 2.4 25.9 5.25 24.1 10.05 L23.5 11.75 22.2 15.55 21.1 19.0 20.35 21.15 3.5 21.15 14.4 -10.5 31.3 -10.5 30.6 -8.55 Q32.7 -9.8 35.25 -10.65 37.8 -11.55 40.45 -11.7 L40.95 -11.7 41.5 -11.7 44.1 -11.55 46.55 -10.9 Q48.45 -10.25 50.0 -9.0 51.55 -7.65 52.15 -5.6 54.85 -8.45 58.25 -10.0 61.65 -11.55 65.25 -11.55 L67.95 -11.3 70.7 -10.6 Q74.25 -9.45 76.05 -6.85 77.85 -4.2 77.85 -1.0 L77.65 1.15 77.0 3.45 76.5 4.95 75.75 7.05 75.55 7.6 75.4 8.15 74.7 10.5 Q74.4 11.65 74.4 12.35 L74.4 12.6 74.5 12.9 74.8 13.0 75.4 13.0 76.3 12.85 77.2 12.45 Q78.45 11.75 79.75 10.4 L82.0 7.55 83.5 5.4 83.7 3.75 Q83.9 2.45 84.35 1.1 86.15 -4.3 91.7 -7.35 97.2 -10.35 103.4 -11.2 L106.05 -11.45 108.65 -11.55 112.35 -11.35 115.7 -10.75 116.2 -10.55 116.7 -10.45 Q119.35 -9.75 121.65 -7.9 123.95 -6.1 124.0 -3.05 124.2 1.85 119.95 4.6 115.7 7.45 110.65 8.65 L105.2 9.7 100.7 9.85 Q101.15 13.1 103.2 14.9 105.2 16.65 108.55 16.65 115.3 16.65 119.95 12.85 124.55 9.05 127.2 3.3 L128.3 3.8 129.5 2.65 Q131.4 1.35 133.65 1.45 L134.15 1.45 134.6 1.45 135.0 1.5 135.45 1.6 143.5 -9.6 160.55 -13.9 161.2 -4.3 161.85 5.3 Q162.3 12.55 157.3 16.5 L156.95 16.75 Q151.65 20.7 145.2 21.35 L143.6 21.45 142.15 21.5 140.25 21.45 138.25 21.25 Q135.65 20.95 133.15 19.95 130.65 19.0 128.85 17.1 127.6 15.55 127.05 13.85 L126.85 13.25 126.6 13.55 Q123.85 17.25 118.85 19.6 115.9 20.95 112.6 21.65 L105.85 22.25 104.8 22.25 103.75 22.15 99.55 21.7 95.45 20.6 Q90.25 18.8 86.85 15.1 L84.95 12.5 81.05 17.15 Q76.4 21.95 67.9 21.95 L66.6 21.9 65.2 21.75 Q63.1 21.5 61.15 20.75 59.25 19.95 57.95 18.25 57.05 17.0 56.65 15.7 56.3 14.35 56.3 12.95 L56.35 11.7 56.5 10.5 Q56.75 9.0 57.3 7.5 L58.3 4.6 58.65 3.65 59.3 2.0 59.6 1.15 59.85 0.3 60.15 -1.15 60.3 -2.3 60.0 -3.55 Q59.65 -4.05 58.95 -4.05 57.35 -4.05 55.9 -2.6 54.4 -1.1 53.35 0.65 L52.35 2.6 51.65 4.25 50.2 8.45 48.75 12.65 47.2 16.95 45.8 21.15 27.85 21.15 29.8 15.7 31.75 10.2 33.6 4.8 35.45 -0.65 35.7 -1.65 M112.0 -7.75 Q108.65 -7.85 106.25 -5.25 103.75 -2.65 102.55 0.55 102.05 1.65 101.8 2.7 L101.35 4.7 103.6 4.45 105.95 3.9 Q109.35 3.0 112.25 0.9 115.05 -1.15 115.15 -4.85 115.15 -6.4 114.35 -7.05 113.5 -7.65 112.0 -7.75 M199.35 -6.15 Q202.45 -7.0 205.7 -7.1 L206.5 -7.2 207.25 -7.2 212.55 -6.55 Q215.1 -5.9 216.95 -4.25 L218.45 -2.15 219.2 0.45 219.2 0.7 219.2 0.95 218.85 2.85 217.85 4.55 Q217.0 5.5 215.95 5.95 L213.55 6.4 213.2 6.4 212.85 6.3 211.45 6.0 210.15 5.4 Q209.2 4.75 208.6 3.85 208.0 2.9 207.85 1.85 L207.85 1.75 207.85 1.5 207.75 1.35 207.75 1.2 Q207.75 -0.5 208.9 -1.75 210.0 -3.0 211.65 -3.45 L210.75 -3.7 209.8 -3.75 209.35 -3.75 208.95 -3.65 208.55 -3.6 208.15 -3.45 Q205.55 -2.55 203.7 0.2 201.75 3.0 201.1 6.15 L200.9 7.6 200.85 9.0 Q200.9 11.9 202.4 14.0 203.85 16.1 207.25 16.1 212.95 16.1 216.5 12.95 219.2 10.55 221.2 7.35 221.55 4.7 223.15 2.25 225.2 -0.9 228.6 -3.15 231.6 -5.05 235.25 -6.2 238.95 -7.25 242.9 -7.25 L244.05 -7.25 245.15 -7.2 Q248.35 -6.9 251.4 -5.85 254.4 -4.8 256.75 -2.6 258.7 -0.85 259.75 1.4 260.8 3.7 260.8 6.1 L260.65 7.85 260.2 9.7 262.0 9.1 Q262.8 8.7 263.55 7.8 L264.45 6.7 265.35 5.1 269.4 6.85 268.35 8.95 267.05 11.45 266.2 12.8 266.6 12.5 Q268.5 11.3 270.6 10.95 L271.65 10.85 272.6 10.8 273.85 10.85 275.25 11.15 Q277.4 11.65 279.15 13.1 281.0 14.55 280.85 16.95 280.65 19.15 278.95 20.35 277.25 21.55 275.2 21.95 L273.8 22.2 272.5 22.25 271.5 22.2 270.55 22.05 Q268.2 21.6 266.35 20.15 264.45 18.7 264.6 16.1 264.65 15.1 265.0 14.35 L263.55 15.95 Q261.55 17.95 258.8 17.95 L256.7 17.65 254.8 16.75 Q251.95 19.15 248.05 20.5 244.15 21.8 240.1 22.05 L239.45 22.05 238.75 22.05 Q234.9 22.05 231.35 20.9 227.8 19.7 225.1 17.45 223.0 15.5 222.0 13.35 L221.6 13.85 Q219.55 16.55 215.7 18.4 213.4 19.45 210.6 20.0 L204.95 20.55 204.5 20.55 204.0 20.55 Q199.7 20.3 195.75 18.9 191.8 17.45 189.25 14.25 187.95 12.55 187.3 10.8 186.7 9.05 186.7 7.3 186.7 3.9 188.75 0.8 190.8 -2.25 194.05 -4.1 196.25 -5.3 199.35 -6.15 M240.65 -0.6 Q238.95 1.35 237.95 3.95 236.9 6.45 236.45 9.15 L236.3 10.85 236.25 12.55 236.3 13.65 236.45 15.0 237.2 17.25 Q237.8 18.25 238.95 18.25 240.85 18.25 242.25 16.95 243.7 15.65 244.6 14.0 L245.05 13.35 245.4 12.6 Q244.25 11.8 243.6 10.6 242.95 9.35 242.95 7.95 L242.95 7.65 242.95 7.45 Q243.2 5.25 244.65 3.25 246.05 1.3 248.3 0.7 248.2 -1.6 247.45 -2.55 246.65 -3.6 245.5 -3.6 L243.85 -3.2 Q242.95 -2.8 242.05 -2.05 L241.4 -1.4 240.65 -0.6 M288.4 -6.75 L302.45 -6.75 301.0 -2.6 299.65 1.5 298.2 5.65 296.75 9.8 296.6 10.45 296.45 11.05 Q296.45 11.5 296.7 11.8 L297.65 12.1 Q298.4 12.1 299.45 11.5 300.5 11.0 301.8 9.4 303.4 7.6 304.55 5.1 L306.65 0.05 307.45 -2.35 308.3 -4.8 308.45 -5.3 308.65 -5.85 308.7 -6.15 308.85 -6.35 308.85 -6.45 308.9 -6.45 308.95 -6.6 308.95 -6.75 311.3 -6.75 313.65 -6.75 318.25 -6.75 322.95 -6.75 321.5 -2.7 320.15 1.3 318.75 5.4 317.3 9.4 317.05 10.5 316.95 11.35 Q316.95 11.95 317.2 12.2 L317.9 12.45 318.85 12.25 320.0 11.75 320.7 11.1 321.45 10.55 Q322.9 9.3 323.75 7.85 L325.4 4.7 327.95 5.9 337.25 -21.05 351.35 -21.05 345.8 -4.8 Q347.6 -5.85 349.65 -6.5 L353.8 -7.2 354.4 -7.25 355.0 -7.25 357.75 -7.05 360.2 -6.35 Q362.15 -5.8 363.65 -4.4 365.15 -3.05 365.15 -0.9 365.15 1.75 363.15 3.55 361.2 5.4 358.9 6.45 L357.85 6.8 356.85 7.15 356.7 8.0 356.7 8.85 Q356.7 10.4 357.4 11.65 358.1 12.95 359.8 13.3 L360.15 13.35 360.6 13.35 361.3 13.3 361.95 13.15 Q363.85 12.55 365.05 10.85 L367.05 7.35 367.55 6.15 368.05 5.0 371.85 6.7 369.2 12.2 Q367.7 14.9 365.3 16.9 363.25 18.55 360.6 19.45 357.95 20.3 354.4 20.3 L349.8 19.7 Q347.7 19.05 346.15 17.5 344.55 15.9 343.85 13.8 343.15 11.75 342.85 9.5 L342.7 7.85 342.65 6.3 342.8 6.3 343.0 6.15 344.2 5.75 345.45 5.3 348.7 3.75 Q350.25 2.85 351.25 1.35 L351.6 0.55 351.75 -0.2 351.25 -1.25 Q350.75 -1.65 349.95 -1.65 L349.8 -1.65 349.65 -1.65 349.55 -1.6 349.35 -1.6 Q347.2 -1.25 345.55 0.55 343.9 2.25 342.85 4.25 L342.45 5.15 342.1 6.05 337.4 19.65 323.2 19.65 325.5 13.0 322.35 16.45 Q320.3 18.15 317.7 19.05 315.2 20.0 311.85 20.0 308.65 20.0 306.3 18.55 303.9 17.05 303.4 13.7 300.9 16.4 297.5 18.25 294.15 20.1 290.35 20.1 286.3 20.1 284.45 17.65 282.5 15.3 282.5 12.1 282.5 11.0 282.8 9.85 283.0 8.75 283.35 7.75 L284.65 4.1 285.9 0.5 287.1 -3.2 288.4 -6.75 M184.65 16.95 Q184.45 19.15 182.75 20.35 181.05 21.55 179.0 21.95 L177.6 22.2 176.3 22.25 175.3 22.2 174.35 22.05 Q172.0 21.6 170.15 20.15 168.25 18.7 168.4 16.1 168.55 13.65 170.4 12.5 172.3 11.3 174.4 10.95 L175.45 10.85 176.4 10.8 177.65 10.85 179.05 11.15 Q181.2 11.65 182.95 13.1 184.8 14.55 184.65 16.95 M145.05 8.4 L145.1 2.85 145.1 -2.65 139.7 4.6 140.5 6.2 140.7 7.95 140.45 9.7 139.6 11.25 Q138.75 12.55 137.2 13.35 135.65 14.1 134.0 14.1 L133.8 14.1 133.55 14.1 133.35 14.05 133.15 14.0 Q133.75 14.95 134.75 15.6 135.75 16.25 136.9 16.25 140.6 16.25 142.85 14.25 145.05 12.3 145.05 8.4 M-372.25 -4.15 L-372.1 -5.65 -371.6 -8.7 -370.75 -11.6 Q-367.85 -19.95 -360.15 -25.25 -352.45 -30.55 -343.85 -32.1 L-340.15 -32.6 -336.6 -32.8 -332.25 -32.65 -326.5 -32.0 Q-322.15 -31.25 -318.5 -29.4 -314.85 -27.55 -314.85 -23.85 -314.85 -21.1 -317.1 -19.35 -319.35 -17.6 -322.15 -17.4 L-322.4 -17.4 -322.6 -17.4 -324.9 -17.9 Q-326.05 -18.25 -326.95 -19.05 L-327.3 -19.35 -327.7 -19.7 -327.8 -19.75 -327.85 -19.85 -328.1 -20.05 -328.3 -20.25 -326.95 -21.6 -325.9 -23.05 Q-325.4 -23.65 -325.2 -24.3 L-325.05 -25.45 Q-325.05 -26.5 -326.05 -27.15 -327.05 -27.8 -329.5 -27.8 -335.25 -27.8 -340.35 -21.8 -345.45 -15.8 -348.45 -8.5 L-348.85 -7.5 -349.25 -6.35 -349.4 -6.05 -349.5 -5.75 -350.6 -2.6 -351.35 0.8 -351.6 2.6 -351.7 4.35 -351.6 5.8 -351.35 7.25 Q-351.0 8.6 -350.25 9.15 -349.5 9.7 -348.65 9.7 L-348.0 9.65 -347.35 9.5 -345.65 8.6 -344.2 7.35 Q-342.85 5.7 -341.4 2.8 -339.95 -0.05 -338.4 -4.8 L-337.95 -6.1 -337.0 -9.0 -336.1 -11.45 -335.55 -13.0 -311.95 -13.0 -314.2 -6.45 -316.5 0.1 -318.8 6.75 -321.05 13.3 Q-324.8 24.05 -334.5 30.6 -344.2 37.15 -355.3 37.15 L-359.1 36.9 -362.9 36.25 Q-367.85 35.05 -370.3 32.85 -372.75 30.65 -373.3 28.2 L-373.45 27.4 -373.45 26.65 Q-373.4 23.3 -370.95 20.8 -368.5 18.3 -365.15 18.35 -363.65 18.35 -362.2 18.95 -360.75 19.5 -359.25 20.95 L-358.9 21.35 -358.5 21.7 -358.1 22.1 -357.75 22.5 -358.55 22.9 -359.45 23.4 -362.2 25.4 Q-363.45 26.6 -363.35 28.4 L-363.35 28.7 -363.35 28.9 Q-363.15 30.45 -362.05 31.15 -360.9 31.9 -359.45 32.0 -358.3 32.1 -357.0 31.6 -355.65 31.05 -354.35 30.0 L-353.3 29.15 -352.25 28.1 Q-349.6 25.3 -348.0 21.95 -346.35 18.55 -345.2 14.95 L-347.95 15.7 -350.8 16.3 -352.2 16.45 -353.6 16.45 Q-358.1 16.45 -362.25 14.6 -366.35 12.75 -369.05 8.65 -370.75 6.05 -371.55 3.2 -372.3 0.3 -372.3 -2.7 L-372.25 -4.15 M-307.2 -22.05 L-306.45 -23.4 Q-305.2 -25.05 -303.15 -25.85 -301.1 -26.65 -298.95 -26.85 L-298.45 -26.85 -297.95 -26.85 -296.0 -26.7 -294.1 -26.25 -293.5 -26.1 -293.05 -25.9 Q-291.2 -25.1 -289.6 -23.65 -288.0 -22.2 -288.0 -20.15 L-288.1 -19.55 -288.2 -18.9 Q-288.75 -17.2 -290.2 -16.05 -291.6 -14.9 -293.25 -14.35 L-293.9 -14.25 -294.45 -14.1 -295.95 -13.9 -297.4 -13.85 -301.4 -14.3 Q-303.4 -14.8 -304.9 -16.0 -306.1 -16.85 -306.75 -18.1 -307.45 -19.35 -307.45 -20.6 L-307.2 -22.05 M-304.85 -10.75 L-300.4 -10.75 -295.95 -10.75 -291.55 -10.75 -292.65 -7.45 -293.8 -4.15 -296.1 2.4 -298.3 9.0 -298.75 10.35 -298.95 11.6 Q-298.95 12.1 -298.55 12.45 -298.15 12.85 -297.15 12.7 -296.4 12.7 -295.3 12.15 L-293.05 10.5 Q-291.45 8.85 -290.45 7.05 L-289.05 4.45 -290.15 4.0 Q-287.85 -2.2 -283.3 -7.1 -278.7 -12.0 -271.85 -12.35 L-270.55 -12.45 -269.15 -12.35 Q-266.15 -12.2 -263.4 -10.85 -260.65 -9.55 -259.05 -6.95 L-254.85 -9.7 Q-252.6 -10.9 -250.25 -11.65 L-248.15 -12.15 -246.1 -12.3 -243.4 -11.95 Q-242.15 -11.6 -240.95 -10.85 -239.8 -10.05 -239.1 -8.85 -238.45 -7.65 -238.15 -6.4 -238.0 -5.9 -238.0 -5.3 L-238.0 -4.35 Q-238.0 -1.0 -240.0 0.95 -242.05 2.9 -244.45 2.9 L-244.6 2.9 -244.75 2.9 Q-246.65 2.9 -248.35 1.6 -250.05 0.35 -250.8 -2.45 L-251.5 -3.65 Q-251.9 -4.1 -252.4 -4.0 -253.35 -4.0 -254.45 -2.95 L-256.85 -0.05 Q-259.05 2.7 -260.55 6.15 L-263.25 13.1 -264.3 16.1 -265.25 19.0 -265.6 20.05 -265.95 21.15 -282.65 21.15 -275.15 0.2 -275.0 -0.45 -275.0 -0.9 Q-275.0 -1.9 -275.8 -2.25 L-277.55 -2.45 Q-279.9 -2.2 -281.7 -0.3 -283.5 1.6 -284.65 3.8 L-285.2 4.75 Q-284.55 5.05 -283.85 5.45 L-284.3 6.3 -284.8 7.1 -287.9 12.7 Q-289.65 15.45 -292.1 17.6 -294.35 19.6 -297.35 20.7 -300.4 21.75 -303.65 21.95 L-304.05 21.95 -304.45 21.95 -307.2 21.75 -309.8 21.15 Q-313.25 19.95 -314.7 17.5 -316.1 15.0 -316.1 12.0 L-315.95 10.0 -315.55 7.85 -315.25 6.8 -314.95 5.8 -312.1 -2.5 -309.25 -10.75 -304.85 -10.75 M-225.45 -28.55 L-220.95 -28.55 -216.5 -28.55 -212.1 -28.55 -207.6 -28.55 -214.15 -9.75 -220.55 9.0 -221.1 10.5 -221.25 11.65 Q-221.25 12.2 -220.8 12.5 L-219.35 12.7 -217.55 12.15 Q-216.5 11.55 -215.3 10.5 -213.65 8.85 -212.65 7.05 L-212.25 6.35 Q-211.85 4.9 -210.95 3.85 L-210.7 3.25 -210.5 3.35 -209.7 2.65 Q-207.8 1.35 -205.55 1.45 L-205.05 1.45 -204.6 1.45 -204.2 1.5 -203.75 1.6 -195.7 -9.6 -178.65 -13.9 -178.0 -4.3 -177.35 5.3 Q-176.9 12.8 -182.25 16.75 -187.55 20.7 -194.0 21.35 L-195.6 21.45 -197.05 21.5 -198.95 21.45 -200.95 21.25 Q-203.55 20.95 -206.05 19.95 -208.55 19.0 -210.35 17.1 L-211.8 14.7 -213.9 17.1 Q-218.3 21.95 -226.75 21.95 L-227.75 21.9 -228.65 21.85 -233.1 20.7 Q-235.3 19.85 -236.65 17.95 -237.55 16.7 -237.95 15.15 -238.45 13.65 -238.45 12.1 L-238.4 11.4 -238.35 10.85 -237.9 8.25 -237.2 5.75 -231.25 -11.45 -225.45 -28.55 M-160.7 -5.8 L-160.0 -5.85 -156.45 -5.3 Q-154.65 -4.75 -153.05 -3.65 L-152.65 -4.95 -140.55 -4.95 -142.8 1.75 -145.1 8.4 -147.45 15.05 -149.75 21.75 Q-151.2 26.05 -155.5 28.8 -159.8 31.6 -164.65 32.25 L-165.85 32.35 -167.05 32.35 -170.9 31.95 Q-172.75 31.45 -174.3 30.55 -175.75 29.7 -176.7 28.3 -177.6 26.95 -177.85 25.5 L-177.95 24.85 -178.0 24.25 Q-177.9 22.7 -176.95 21.45 -176.05 20.15 -173.85 19.75 L-173.6 19.75 -173.3 19.7 -173.05 19.7 -172.8 19.7 Q-170.5 19.7 -169.1 21.15 -167.75 22.65 -167.65 24.4 L-167.65 24.5 -167.65 24.6 Q-167.65 25.85 -168.45 27.0 -169.25 28.2 -170.95 28.75 L-170.65 28.85 -170.3 28.95 -170.05 29.05 -169.75 29.05 Q-166.45 29.15 -164.65 26.7 -162.8 24.2 -161.65 21.3 L-160.85 18.95 -160.15 16.8 -161.9 17.4 -163.7 17.75 -164.6 17.85 -165.45 17.9 Q-169.5 17.9 -172.6 15.4 -175.7 12.9 -175.7 8.15 -175.7 2.65 -171.2 -1.3 -166.7 -5.3 -161.35 -5.75 L-160.7 -5.8 M-158.9 -0.6 Q-160.15 0.55 -161.35 2.4 -162.6 4.25 -163.45 6.2 L-164.4 8.95 -164.75 11.35 -164.65 12.25 -164.45 13.05 -163.9 13.7 -163.2 13.9 Q-160.6 13.9 -159.0 11.65 -157.35 9.35 -156.45 6.6 L-155.35 3.25 -154.5 0.55 -154.5 0.25 -154.55 -0.05 -154.85 -0.9 -155.6 -1.5 -155.8 -1.6 -155.95 -1.65 -156.2 -1.7 -156.45 -1.7 -157.65 -1.4 -158.9 -0.6 M-131.9 -4.65 Q-128.75 -5.55 -125.4 -5.55 L-124.4 -5.5 -123.45 -5.5 Q-120.75 -5.25 -118.15 -4.35 -115.55 -3.4 -113.55 -1.55 -111.85 -0.05 -110.95 1.85 -110.1 3.8 -110.1 5.85 L-110.25 7.4 -110.6 8.95 -109.05 8.45 -107.75 7.3 -107.0 6.35 -106.45 5.55 -107.3 3.2 Q-108.05 0.3 -108.05 -2.7 L-108.0 -4.15 -107.85 -5.65 -107.35 -8.7 -106.5 -11.6 Q-103.6 -19.95 -95.9 -25.25 -88.2 -30.55 -79.6 -32.1 L-75.9 -32.6 -72.35 -32.8 -68.0 -32.65 -62.25 -32.0 Q-57.9 -31.25 -54.25 -29.4 -50.6 -27.55 -50.6 -23.85 -50.6 -21.1 -52.85 -19.35 -55.1 -17.6 -57.9 -17.4 L-58.15 -17.4 -58.35 -17.4 -60.65 -17.9 Q-61.8 -18.25 -62.7 -19.05 L-63.05 -19.35 -63.45 -19.7 -63.55 -19.75 -63.6 -19.85 -63.85 -20.05 -64.05 -20.25 -62.7 -21.6 -61.65 -23.05 Q-61.15 -23.65 -60.95 -24.3 -60.8 -24.95 -60.8 -25.45 -60.8 -26.5 -61.8 -27.15 -62.8 -27.8 -65.25 -27.8 -71.0 -27.8 -76.1 -21.8 -81.2 -15.8 -84.2 -8.5 L-84.6 -7.5 -85.0 -6.35 -85.15 -6.05 -85.25 -5.75 -86.35 -2.6 -87.1 0.8 -87.35 2.6 -87.45 4.35 -87.35 5.8 -87.1 7.25 Q-86.75 8.6 -86.0 9.15 -85.25 9.7 -84.4 9.7 L-83.75 9.65 -83.1 9.5 -81.4 8.6 -79.95 7.35 Q-78.6 5.7 -77.15 2.8 -75.7 -0.05 -74.15 -4.8 L-73.7 -6.1 -72.75 -9.0 -71.85 -11.45 -71.3 -13.0 -47.7 -13.0 -49.95 -6.45 -52.25 0.1 -54.55 6.75 -56.8 13.3 Q-60.55 24.05 -70.25 30.6 -79.95 37.15 -91.05 37.15 L-94.85 36.9 -98.65 36.25 Q-103.6 35.05 -106.05 32.85 -108.5 30.65 -109.05 28.2 L-109.2 27.4 -109.2 26.65 Q-109.15 23.3 -106.7 20.8 -104.25 18.3 -100.9 18.35 L-97.95 18.95 Q-96.5 19.5 -95.0 20.95 L-94.65 21.35 -94.25 21.7 -93.85 22.1 -93.5 22.5 -94.3 22.9 -95.2 23.4 Q-96.65 24.25 -97.95 25.4 -99.2 26.6 -99.1 28.4 L-99.1 28.7 -99.1 28.9 Q-98.9 30.45 -97.8 31.15 -96.65 31.9 -95.2 32.0 L-92.75 31.6 -90.1 30.0 -89.05 29.15 -88.0 28.1 Q-85.35 25.3 -83.75 21.95 -82.1 18.55 -80.95 14.95 L-83.7 15.7 -86.55 16.3 -87.95 16.45 -89.35 16.45 Q-93.85 16.45 -98.0 14.6 -101.7 12.95 -104.2 9.5 L-104.75 10.45 Q-105.95 12.5 -107.75 14.25 -109.45 16.0 -111.8 16.0 L-113.6 15.7 -115.2 15.0 Q-117.65 17.0 -121.0 18.15 -124.3 19.25 -127.8 19.5 L-128.35 19.5 -128.95 19.5 Q-132.2 19.5 -135.25 18.5 -138.3 17.5 -140.6 15.55 -142.4 13.9 -143.25 12.05 -144.05 10.15 -144.05 8.3 -144.05 5.3 -142.3 2.6 -140.5 -0.1 -137.6 -2.05 -135.05 -3.65 -131.9 -4.65 M-124.55 -2.05 L-126.1 -1.1 -126.7 -0.5 -127.3 0.15 Q-128.75 1.85 -129.6 4.0 -130.5 6.2 -130.9 8.45 L-131.0 9.95 -131.05 11.35 -131.05 12.3 -130.9 13.45 -130.25 15.4 Q-129.75 16.25 -128.75 16.25 -127.15 16.25 -125.95 15.15 -124.7 14.0 -123.95 12.65 L-123.55 12.05 -123.25 11.45 Q-124.25 10.75 -124.8 9.7 -125.35 8.65 -125.35 7.45 L-125.35 7.2 -125.35 7.0 Q-125.15 5.15 -123.9 3.45 -122.7 1.75 -120.8 1.25 -120.85 -0.7 -121.5 -1.55 -122.2 -2.4 -123.15 -2.4 L-124.55 -2.05 M-26.95 -3.05 L-30.05 0.8 -31.75 3.7 -32.9 6.05 -33.2 6.95 -33.6 8.4 -34.0 9.75 -34.25 11.15 -34.5 12.3 -34.55 13.45 Q-34.55 14.85 -34.1 15.7 -33.6 16.65 -32.45 16.65 -29.8 16.65 -27.8 14.45 -25.75 12.3 -24.3 9.7 L-22.95 7.1 -21.95 4.8 Q-20.9 2.0 -20.35 -0.05 -19.8 -2.15 -19.8 -3.6 -19.8 -4.7 -20.1 -5.3 -20.4 -5.95 -21.7 -5.95 L-22.6 -5.85 -23.5 -5.6 Q-25.2 -4.85 -26.95 -3.05 M-198.7 6.2 L-198.5 7.95 -198.75 9.7 -199.6 11.25 Q-200.45 12.55 -202.0 13.35 -203.55 14.1 -205.2 14.1 L-205.4 14.1 -205.65 14.1 -205.85 14.05 -206.05 14.0 -204.45 15.6 Q-203.45 16.25 -202.3 16.25 -198.6 16.25 -196.35 14.25 -194.15 12.3 -194.15 8.4 L-194.1 2.85 -194.1 -2.65 -199.5 4.6 Q-198.95 5.3 -198.7 6.2" fill="#ffffff" fill-rule="evenodd" stroke="none"/>
  </g>
  <defs>
    <linearGradient gradientTransform="matrix(0.0, 0.0488, -0.0649, 0.0, -95.95, 2.05)" gradientUnits="userSpaceOnUse" id="gradient0" spreadMethod="pad" x1="-819.2" x2="819.2">
      <stop offset="0.0" stop-color="#ef019d"/>
      <stop offset="1.0" stop-color="#5a015f"/>
    </linearGradient>
    <linearGradient gradientTransform="matrix(0.0, 0.0319, -0.0241, 0.0, 233.75, 7.5)" gradientUnits="userSpaceOnUse" id="gradient1" spreadMethod="pad" x1="-819.2" x2="819.2">
      <stop offset="0.0" stop-color="#e60199"/>
      <stop offset="1.0" stop-color="#710168"/>
    </linearGradient>
    <linearGradient gradientTransform="matrix(0.0, 0.0334, -0.0194, 0.0, 242.25, 7.3)" gradientUnits="userSpaceOnUse" id="gradient2" spreadMethod="pad" x1="-819.2" x2="819.2">
      <stop offset="0.0" stop-color="#e60199"/>
      <stop offset="1.0" stop-color="#710168"/>
    </linearGradient>
    <linearGradient gradientTransform="matrix(0.0, 0.0317, -0.0313, 0.0, 327.2, -0.35)" gradientUnits="userSpaceOnUse" id="gradient3" spreadMethod="pad" x1="-819.2" x2="819.2">
      <stop offset="0.0" stop-color="#e60199"/>
      <stop offset="1.0" stop-color="#710168"/>
    </linearGradient>
    <linearGradient gradientTransform="matrix(0.0, 0.0295, -0.0131, 0.0, 176.5, 16.5)" gradientUnits="userSpaceOnUse" id="gradient4" spreadMethod="pad" x1="-819.2" x2="819.2">
      <stop offset="0.0" stop-color="#e60199"/>
      <stop offset="1.0" stop-color="#710168"/>
    </linearGradient>
  </defs>
</svg>
